<svg xmlns="http://www.w3.org/2000/svg" viewBox="0 0 925.74 94.64"><defs><style>.cls-1{fill:#f1d654;}.cls-2{fill:#656464;}</style></defs><g id="レイヤー_2" data-name="レイヤー 2"><g id="メイン"><g id="_2022" data-name="2022"><polygon class="cls-1" points="0 0 41.01 47.32 0 94.64 925.74 94.64 925.74 0 0 0"/><path class="cls-2" d="M111.44,54.3H98.31v2.43h31.24V73.24H78.73V41.36h30c1.72,0,2.36-.7,2.36-1.72v-.26c0-1.08-.83-1.59-2.36-1.59h-30V21.34h32.71c13.9,0,19.45,6.25,19.45,17v1.15C130.89,47.29,126.74,54.3,111.44,54.3Z"/><path class="cls-2" d="M165.9,73.94h-6.83c-17,0-22.06-4.91-22.06-22.06V43.21c0-17.92,5.3-22.51,21.87-22.51h7.34c16.38,0,21.8,4.59,21.8,22.51v8.67C188,69,182.92,73.94,165.9,73.94Zm4.71-30.73c0-4.59-1.72-5.87-4.39-5.87h-7.34c-3.19,0-4.59,1.34-4.59,5.87v8.67c0,4.21,1.15,5.36,4.78,5.36h6.83c3.12,0,4.71-1.85,4.71-5.36Z"/><path class="cls-2" d="M226.79,54.3H213.66v2.43H244.9V73.24H194.09V41.36h30c1.72,0,2.36-.7,2.36-1.72v-.26c0-1.08-.83-1.59-2.36-1.59h-30V21.34h32.7c13.9,0,19.45,6.25,19.45,17v1.15C246.24,47.29,242.1,54.3,226.79,54.3Z"/><path class="cls-2" d="M284,54.3H270.86v2.43H302.1V73.24H251.28V41.36h30c1.73,0,2.36-.7,2.36-1.72v-.26c0-1.08-.83-1.59-2.36-1.59h-30V21.34H284c13.9,0,19.45,6.25,19.45,17v1.15C303.44,47.29,299.3,54.3,284,54.3Z"/></g></g></g></svg>