<?xml version="1.0" encoding="utf-8"?>
<!-- Generator: Adobe Illustrator 26.3.1, SVG Export Plug-In . SVG Version: 6.00 Build 0)  -->
<svg version="1.1" id="レイヤー_1" xmlns="http://www.w3.org/2000/svg" xmlns:xlink="http://www.w3.org/1999/xlink" x="0px"
	 y="0px" viewBox="0 0 469.4 94.6" style="enable-background:new 0 0 469.4 94.6;" xml:space="preserve">
<style type="text/css">
	.st0{fill:#F1D654;}
	.st1{fill:#656464;}
</style>
<g id="レイヤー_2_00000087390379492546639290000002358088161343500692_">
	<g id="メイン">
		<g id="_2022">
			<polygon class="st0" points="0,0 41,47.3 0,94.6 471,94.6 471,0 			"/>
			<path class="st1" d="M141.4,54.3h-13.1v2.4h31.2v16.5h-50.8V41.4h30c1.7,0,2.4-0.7,2.4-1.7v-0.3c0-1.1-0.8-1.6-2.4-1.6h-30V21.3
				h32.7c13.9,0,19.4,6.2,19.4,17v1.2C160.9,47.3,156.7,54.3,141.4,54.3z"/>
			<path class="st1" d="M195.9,73.9h-6.8c-17,0-22.1-4.9-22.1-22.1v-8.7c0-17.9,5.3-22.5,21.9-22.5h7.3c16.4,0,21.8,4.6,21.8,22.5
				v8.7C218,69,212.9,73.9,195.9,73.9z M200.6,43.2c0-4.6-1.7-5.9-4.4-5.9h-7.3c-3.2,0-4.6,1.3-4.6,5.9v8.7c0,4.2,1.1,5.4,4.8,5.4
				h6.8c3.1,0,4.7-1.8,4.7-5.4L200.6,43.2z"/>
			<path class="st1" d="M256.8,54.3h-13.1v2.4h31.2v16.5h-50.8V41.4h30c1.7,0,2.4-0.7,2.4-1.7v-0.3c0-1.1-0.8-1.6-2.4-1.6h-30V21.3
				h32.7c13.9,0,19.5,6.2,19.5,17v1.2C276.2,47.3,272.1,54.3,256.8,54.3z"/>
			<path class="st1" d="M314,54.3h-13.1v2.4h31.2v16.5h-50.8V41.4h30c1.7,0,2.4-0.7,2.4-1.7v-0.3c0-1.1-0.8-1.6-2.4-1.6h-30V21.3
				H314c13.9,0,19.5,6.2,19.5,17v1.2C333.4,47.3,329.3,54.3,314,54.3z"/>
		</g>
	</g>
</g>
</svg>
