<?xml version="1.0" encoding="UTF-8"?><svg id="_レイヤー_2" xmlns="http://www.w3.org/2000/svg" viewBox="0 0 165.93 231.34"><defs><style>.cls-1{fill:#78bbcf;}.cls-2{fill:#f2bfd7;}.cls-3{fill:#e1b1c8;}.cls-4{fill:#f2f9fd;}</style></defs><g id="_スタンプラリー"><g><g><rect class="cls-1" y="65.41" width="165.93" height="165.93" rx="11.03" ry="11.03"/><rect class="cls-4" x="0" y="51.72" width="165.93" height="165.93" rx="11.03" ry="11.03"/></g><circle class="cls-3" cx="82.97" cy="31.86" r="8.71"/><path class="cls-4" d="M52.61,30.35v1.73c0,6.77,5.49,12.26,12.26,12.26h0c6.77,0,12.26-5.49,12.26-12.26v-1.73c0-3.22,2.61-5.84,5.84-5.84h0c3.22,0,5.84,2.61,5.84,5.84v27.61s24.52,0,24.52,0V30.35c0-16.76-13.59-30.35-30.35-30.35h0c-16.76,0-30.35,13.59-30.35,30.35Z"/><circle class="cls-2" cx="82.97" cy="28.98" r="8.71"/></g></g></svg>