<?xml version="1.0" encoding="UTF-8"?><svg id="_レイヤー_2" xmlns="http://www.w3.org/2000/svg" viewBox="0 0 564.43 729.52"><defs><style>.cls-1{fill:#78bbcf;}.cls-2{fill:#f2bfd7;}.cls-3{fill:#dfbc56;}.cls-4{fill:#e1b1c8;}.cls-5{fill:#f2f9fd;}.cls-6{fill:#f7d15f;}</style></defs><g id="_スタンプラリー"><g id="_箱"><g><circle class="cls-4" cx="82.96" cy="31.86" r="8.71"/><g><g><rect class="cls-1" y="65.41" width="165.93" height="165.93" rx="11.03" ry="11.03"/><rect class="cls-5" x="0" y="51.72" width="165.93" height="165.93" rx="11.03" ry="11.03"/></g><path class="cls-5" d="M52.61,30.35v1.73c0,6.77,5.49,12.26,12.26,12.26h0c6.77,0,12.26-5.49,12.26-12.26v-1.73c0-3.22,2.61-5.84,5.84-5.84h0c3.22,0,5.84,2.61,5.84,5.84v27.61s24.52,0,24.52,0V30.35c0-16.76-13.59-30.35-30.35-30.35h0c-16.76,0-30.35,13.59-30.35,30.35Z"/><circle class="cls-2" cx="82.96" cy="28.98" r="8.71"/></g></g><g><g><rect class="cls-1" x="199.25" y="65.41" width="165.93" height="165.93" rx="11.03" ry="11.03"/><rect class="cls-5" x="199.25" y="51.72" width="165.93" height="165.93" rx="11.03" ry="11.03"/></g><circle class="cls-3" cx="282.22" cy="31.86" r="8.71"/><path class="cls-5" d="M251.86,30.35v1.73c0,6.77,5.49,12.26,12.26,12.26h0c6.77,0,12.26-5.49,12.26-12.26v-1.73c0-3.22,2.61-5.84,5.84-5.84h0c3.22,0,5.84,2.61,5.84,5.84v27.61s24.52,0,24.52,0V30.35c0-16.76-13.59-30.35-30.35-30.35h0c-16.76,0-30.35,13.59-30.35,30.35Z"/><circle class="cls-6" cx="282.22" cy="28.98" r="8.71"/></g><g><g><rect class="cls-1" x="398.5" y="65.41" width="165.93" height="165.93" rx="11.03" ry="11.03"/><rect class="cls-5" x="398.5" y="51.72" width="165.93" height="165.93" rx="11.03" ry="11.03"/></g><circle class="cls-4" cx="481.47" cy="31.86" r="8.71"/><path class="cls-5" d="M451.11,30.35v1.73c0,6.77,5.49,12.26,12.26,12.26h0c6.77,0,12.26-5.49,12.26-12.26v-1.73c0-3.22,2.61-5.84,5.84-5.84h0c3.22,0,5.84,2.61,5.84,5.84v27.61s24.52,0,24.52,0V30.35c0-16.76-13.59-30.35-30.35-30.35h0c-16.76,0-30.35,13.59-30.35,30.35Z"/><circle class="cls-2" cx="481.47" cy="28.98" r="8.71"/></g><g><circle class="cls-3" cx="82.96" cy="280.95" r="8.71"/><g><g><rect class="cls-1" y="314.5" width="165.93" height="165.93" rx="11.03" ry="11.03"/><rect class="cls-5" x="0" y="300.8" width="165.93" height="165.93" rx="11.03" ry="11.03"/></g><path class="cls-5" d="M52.61,279.44v1.73c0,6.77,5.49,12.26,12.26,12.26h0c6.77,0,12.26-5.49,12.26-12.26v-1.73c0-3.22,2.61-5.84,5.84-5.84h0c3.22,0,5.84,2.61,5.84,5.84v27.61s24.52,0,24.52,0v-27.61c0-16.76-13.59-30.35-30.35-30.35h0c-16.76,0-30.35,13.59-30.35,30.35Z"/><circle class="cls-6" cx="82.96" cy="278.07" r="8.71"/></g></g><g><g><rect class="cls-1" x="199.25" y="314.5" width="165.93" height="165.93" rx="11.03" ry="11.03"/><rect class="cls-5" x="199.25" y="300.8" width="165.93" height="165.93" rx="11.03" ry="11.03"/></g><circle class="cls-4" cx="282.22" cy="280.95" r="8.71"/><path class="cls-5" d="M251.86,279.44v1.73c0,6.77,5.49,12.26,12.26,12.26h0c6.77,0,12.26-5.49,12.26-12.26v-1.73c0-3.22,2.61-5.84,5.84-5.84h0c3.22,0,5.84,2.61,5.84,5.84v27.61s24.52,0,24.52,0v-27.61c0-16.76-13.59-30.35-30.35-30.35h0c-16.76,0-30.35,13.59-30.35,30.35Z"/><circle class="cls-2" cx="282.22" cy="278.07" r="8.71"/></g><g><g><rect class="cls-1" x="398.5" y="314.5" width="165.93" height="165.93" rx="11.03" ry="11.03"/><rect class="cls-5" x="398.5" y="300.8" width="165.93" height="165.93" rx="11.03" ry="11.03"/></g><circle class="cls-3" cx="481.47" cy="280.95" r="8.71"/><path class="cls-5" d="M451.11,279.44v1.73c0,6.77,5.49,12.26,12.26,12.26h0c6.77,0,12.26-5.49,12.26-12.26v-1.73c0-3.22,2.61-5.84,5.84-5.84h0c3.22,0,5.84,2.61,5.84,5.84v27.61s24.52,0,24.52,0v-27.61c0-16.76-13.59-30.35-30.35-30.35h0c-16.76,0-30.35,13.59-30.35,30.35Z"/><circle class="cls-6" cx="481.47" cy="278.07" r="8.71"/></g><g><circle class="cls-4" cx="82.96" cy="530.03" r="8.71"/><g><g><rect class="cls-1" y="563.59" width="165.93" height="165.93" rx="11.03" ry="11.03"/><rect class="cls-5" x="0" y="549.89" width="165.93" height="165.93" rx="11.03" ry="11.03"/></g><path class="cls-5" d="M52.61,528.53v1.73c0,6.77,5.49,12.26,12.26,12.26h0c6.77,0,12.26-5.49,12.26-12.26v-1.73c0-3.22,2.61-5.84,5.84-5.84h0c3.22,0,5.84,2.61,5.84,5.84v27.61s24.52,0,24.52,0v-27.61c0-16.76-13.59-30.35-30.35-30.35h0c-16.76,0-30.35,13.59-30.35,30.35Z"/><circle class="cls-2" cx="82.96" cy="527.16" r="8.71"/></g></g><g><g><rect class="cls-1" x="199.25" y="563.59" width="165.93" height="165.93" rx="11.03" ry="11.03"/><rect class="cls-5" x="199.25" y="549.89" width="165.93" height="165.93" rx="11.03" ry="11.03"/></g><circle class="cls-3" cx="282.22" cy="530.03" r="8.71"/><path class="cls-5" d="M251.86,528.53v1.73c0,6.77,5.49,12.26,12.26,12.26h0c6.77,0,12.26-5.49,12.26-12.26v-1.73c0-3.22,2.61-5.84,5.84-5.84h0c3.22,0,5.84,2.61,5.84,5.84v27.61s24.52,0,24.52,0v-27.61c0-16.76-13.59-30.35-30.35-30.35h0c-16.76,0-30.35,13.59-30.35,30.35Z"/><circle class="cls-6" cx="282.22" cy="527.16" r="8.71"/></g><g><g><rect class="cls-1" x="398.5" y="563.59" width="165.93" height="165.93" rx="11.03" ry="11.03"/><rect class="cls-5" x="398.5" y="549.89" width="165.93" height="165.93" rx="11.03" ry="11.03"/></g><circle class="cls-4" cx="481.47" cy="530.03" r="8.71"/><path class="cls-5" d="M451.11,528.53v1.73c0,6.77,5.49,12.26,12.26,12.26h0c6.77,0,12.26-5.49,12.26-12.26v-1.73c0-3.22,2.61-5.84,5.84-5.84h0c3.22,0,5.84,2.61,5.84,5.84v27.61s24.52,0,24.52,0v-27.61c0-16.76-13.59-30.35-30.35-30.35h0c-16.76,0-30.35,13.59-30.35,30.35Z"/><circle class="cls-2" cx="481.47" cy="527.16" r="8.71"/></g></g></g></svg>