<?xml version="1.0" encoding="UTF-8"?><svg id="_レイヤー_2" xmlns="http://www.w3.org/2000/svg" xmlns:xlink="http://www.w3.org/1999/xlink" viewBox="0 0 87.14 268.07"><defs><style>.cls-1{fill:#78bbcf;}.cls-2{fill:url(#_新規パターンスウォッチ_3-2);}.cls-3{fill:#bbe1e7;}.cls-4{fill:#f2bfd7;}.cls-5{fill:#5ca6bb;}.cls-6{fill:url(#_新規パターンスウォッチ_3-3);}.cls-7{stroke:url(#_新規パターンスウォッチ_3);stroke-width:7px;}.cls-7,.cls-8,.cls-9,.cls-10{fill:none;}.cls-11{fill:#deeee8;}.cls-12{fill:url(#_新規パターンスウォッチ_3-4);}.cls-13{fill:url(#_新規パターンスウォッチ_3-6);}.cls-14{fill:#eec55b;}.cls-15{fill:url(#_新規パターンスウォッチ_3-5);}.cls-9{stroke:#deeee8;}.cls-9,.cls-10{stroke-linecap:round;stroke-miterlimit:10;}.cls-16{fill:#f7d15f;}.cls-10{stroke:#f7d15f;stroke-width:3px;}</style><pattern id="_新規パターンスウォッチ_3" x="0" y="0" width="30.78" height="26.28" patternTransform="translate(-2871.17 -1212.18)" patternUnits="userSpaceOnUse" viewBox="0 0 30.78 26.28"><g><rect class="cls-8" width="30.78" height="26.28"/><rect class="cls-11" width="30.78" height="26.28"/></g></pattern><pattern id="_新規パターンスウォッチ_3-2" patternTransform="translate(-2824.76 504.37) rotate(5.99) scale(1.16)" xlink:href="#_新規パターンスウォッチ_3"/><pattern id="_新規パターンスウォッチ_3-3" patternTransform="translate(-2824.76 504.37) rotate(5.99) scale(1.16)" xlink:href="#_新規パターンスウォッチ_3"/><pattern id="_新規パターンスウォッチ_3-4" patternTransform="translate(-2824.76 504.37) rotate(5.99) scale(1.16)" xlink:href="#_新規パターンスウォッチ_3"/><pattern id="_新規パターンスウォッチ_3-5" patternTransform="translate(-2824.76 504.37) rotate(5.99) scale(1.16)" xlink:href="#_新規パターンスウォッチ_3"/><pattern id="_新規パターンスウォッチ_3-6" patternTransform="translate(-2824.76 504.37) rotate(5.99) scale(1.16)" xlink:href="#_新規パターンスウォッチ_3"/></defs><g id="_スタンプラリー"><g id="_風鈴"><g><g><g><path class="cls-7" d="M48.67,42.47c0-2.78-2.25-5.03-5.03-5.03s-5.03,2.25-5.03,5.03l-1,8.34h12.07l-1-8.34Zm-5.03,2.75c-1.52,0-2.75-1.23-2.75-2.75s1.23-2.75,2.75-2.75,2.75,1.23,2.75,2.75-1.23,2.75-2.75,2.75Z"/><path class="cls-7" d="M22.57,137.12l-11.11,128.75c-.12,1.37,1.13,2.45,2.46,2.15l36.78-8.3c.86-.19,1.5-.92,1.57-1.8l10.12-117.36c.1-1.11-.73-2.1-1.84-2.19l-35.8-3.09c-1.11-.1-2.1,.73-2.19,1.84Zm19.78,12.38c-3.36,.22-5.93-2.84-5.14-6.11,.49-2.04,2.33-3.58,4.42-3.72,3.36-.22,5.94,2.84,5.14,6.11-.5,2.04-2.33,3.58-4.42,3.72Z"/><circle class="cls-7" cx="38.58" cy="173.37" r="16.12"/><path class="cls-7" d="M45.61,102.5l-.02,16.28c0,3.9-.39,7.79-1.15,11.62l-2.18,11.02"/><path class="cls-7" d="M87.14,89.98c0-24.59-20.39-44.41-45.19-43.47C19.68,47.35,1.42,65.28,.2,87.53c-.7,12.83,4.16,24.53,12.4,32.91h-.02v2.77c0,2.25,1.82,4.07,4.07,4.07h53.99c2.25,0,4.07-1.82,4.07-4.07v-2.77h-.02c7.71-7.85,12.46-18.6,12.46-30.47Z"/><rect class="cls-7" x="41.81" y="31.28" width="3.66" height="10.98" rx="1.83" ry="1.83"/><path class="cls-7" d="M43.64,36.06c-3.42,0-6.21-2.78-6.21-6.21,0-2.63,1.03-4.22,3.69-5.67,.62-.34,1.39-.11,1.73,.51,.34,.62,.11,1.39-.51,1.73-2.03,1.11-2.36,1.92-2.36,3.43,0,2.01,1.64,3.65,3.65,3.65s3.65-1.64,3.65-3.65c0-2.25-.59-2.71-1.58-3.48-1.83-1.44-3.35-3.09-3.35-8.74,0-.71,.57-1.28,1.28-1.28s1.28,.57,1.28,1.28c0,4.87,1.15,5.77,2.37,6.73,1.2,.94,2.56,2,2.56,5.49s-2.78,6.21-6.21,6.21Z"/><rect class="cls-7" x="39.13" width="9" height="18.11" rx="1.71" ry="1.71"/><path class="cls-7" d="M48.14,15.69h-9c-.28,0-.5-.22-.5-.5s.22-.5,.5-.5h9c.28,0,.5,.22,.5,.5s-.22,.5-.5,.5Z"/><path class="cls-7" d="M48.14,12.62h-9c-.28,0-.5-.22-.5-.5s.22-.5,.5-.5h9c.28,0,.5,.22,.5,.5s-.22,.5-.5,.5Z"/><path class="cls-7" d="M48.14,9.56h-9c-.28,0-.5-.22-.5-.5s.22-.5,.5-.5h9c.28,0,.5,.22,.5,.5s-.22,.5-.5,.5Z"/><path class="cls-7" d="M48.14,6.49h-9c-.28,0-.5-.22-.5-.5s.22-.5,.5-.5h9c.28,0,.5,.22,.5,.5s-.22,.5-.5,.5Z"/><path class="cls-7" d="M48.14,3.43h-9c-.28,0-.5-.22-.5-.5s.22-.5,.5-.5h9c.28,0,.5,.22,.5,.5s-.22,.5-.5,.5Z"/><path class="cls-7" d="M54.05,74.46c-4.12,3.19-16.72,3.19-20.84,0-5.28-4.09-6.34-24.62,0-26.72,4.95-1.64,16.22-1.65,20.84-.01,6.3,2.23,5.28,22.64,0,26.73Z"/><path class="cls-7" d="M76.84,61.68c5.41,6.19-27.87,6.5-32.91,0-2.2-2.84-3.4-13.22,0-14.39,6.03-2.07,21.92,1.83,32.91,14.39Z"/><path class="cls-7" d="M10.26,61.86c-5.41,6.19,27.87,6.5,32.91,0,2.2-2.84,3.4-13.22,0-14.39-6.03-2.07-21.92,1.83-32.91,14.39Z"/><path class="cls-7" d="M4.03,107.99c26.33,0,70.54-6.07,81.83-28.45"/><circle class="cls-7" cx="68.28" cy="95.63" r="2.67"/><circle class="cls-7" cx="59.32" cy="99.62" r="2.67"/><circle class="cls-7" cx="13.33" cy="107.99" r="2.67"/><path class="cls-7" d="M.5,95.63c18.74,9.68,53.24,18.54,82.22,13.46"/><circle class="cls-7" cx="48.39" cy="109.66" r="2.67"/><circle class="cls-7" cx="76.31" cy="110.03" r="2.67"/><path class="cls-7" d="M38.58,161.27c9.9,2.3,11.68,11.78,6.24,18.35-3.31,3.99-14.83,6.52-18.35-6.24,.14,5.44,5.42,12.11,12.11,12.11s12.11-5.42,12.11-12.11-6.48-12.14-12.11-12.11Z"/></g><path class="cls-7" d="M28.09,210.38c-1.29-2.99-4.22-6.95-6.76-9.03-.61-.5-.47-1.45,.26-1.73,3.02-1.17,6.88-3.75,8.97-6.49,.49-.65,1.47-.51,1.77,.25,1.26,3.22,4.31,6.76,6.87,8.74,.62,.48,.48,1.43-.24,1.73-3.1,1.3-7.1,4.25-9.13,6.77-.49,.61-1.42,.49-1.73-.23Z"/><path class="cls-7" d="M40.24,227.05c-1.07-2.48-3.5-5.76-5.61-7.49-.5-.41-.39-1.2,.21-1.43,2.51-.97,5.7-3.11,7.44-5.38,.41-.54,1.22-.42,1.47,.21,1.04,2.67,3.57,5.6,5.7,7.25,.51,.39,.4,1.18-.2,1.43-2.57,1.08-5.89,3.52-7.57,5.61-.41,.51-1.18,.4-1.44-.19Z"/><path class="cls-7" d="M26.68,241.64c-.86-1.99-2.8-4.61-4.49-6-.4-.33-.31-.96,.17-1.15,2.01-.78,4.57-2.49,5.96-4.31,.33-.43,.98-.34,1.17,.17,.84,2.14,2.86,4.49,4.57,5.8,.41,.32,.32,.95-.16,1.15-2.06,.87-4.71,2.82-6.06,4.5-.33,.41-.95,.32-1.15-.15Z"/><path class="cls-7" d="M36.44,254.53c-.48-1.11-1.56-2.57-2.5-3.34-.22-.18-.18-.54,.1-.64,1.12-.43,2.55-1.39,3.32-2.4,.18-.24,.54-.19,.65,.09,.47,1.19,1.59,2.5,2.54,3.24,.23,.18,.18,.53-.09,.64-1.15,.48-2.63,1.57-3.38,2.51-.18,.23-.53,.18-.64-.09Z"/><path class="cls-7" d="M54.04,242.98c-.83,.03-1.52-.61-1.56-1.44l-.65-17.08c-.34-8.87,1.57-17.77,5.5-25.73,4.9-9.92,6.39-21.18,4.26-32.03l-.67-3.42c-1.66-8.47-1.25-17.21,1.2-25.48l4.49-15.13,2.88,.85-4.49,15.13c-2.31,7.81-2.7,16.06-1.14,24.06l.52,2.62c2.3,11.74,.96,23.99-4.35,34.72-3.72,7.52-5.52,15.92-5.2,24.3l.65,17.08c.03,.83-.61,1.52-1.44,1.56h0Z"/><path class="cls-7" d="M8.33,240l-.62-16.36c-.34-9.07,1.36-18.16,5.4-26.29,4.92-9.9,6.46-21.33,4.34-32.18l-.67-3.43c-1.66-8.47-1.25-17.21,1.2-25.48l4.49-15.13,2.88,.85-4.49,15.13c-2.31,7.81-2.7,16.06-1.14,24.05l.67,3.43c2.25,11.44,.64,23.51-4.53,33.96-3.71,7.5-5.5,15.89-5.18,24.26l.65,17.08c.03,.83-.61,1.52-1.44,1.56h0c-.83,.03-1.52-.61-1.56-1.44Z"/><path class="cls-7" d="M39.84,241.16l-.62-16.36c-.34-9.07,1.36-18.16,5.4-26.29,4.92-9.9,6.46-21.34,4.34-32.18l-.67-3.43c-1.66-8.47-1.25-17.21,1.2-25.48l4.49-15.14,2.88,.85-4.49,15.13c-2.31,7.81-2.7,16.06-1.14,24.06l.51,2.62c2.3,11.74,.96,24-4.35,34.72-3.72,7.52-5.52,15.92-5.2,24.3l.65,17.08c.03,.83-.61,1.52-1.44,1.56h0c-.83,.03-1.52-.61-1.56-1.44Z"/><path class="cls-7" d="M24.98,241.54c-.83,.03-1.52-.61-1.56-1.44l-.65-17.08c-.34-8.86,1.56-17.75,5.49-25.7,4.87-9.87,6.39-21.25,4.27-32.06l-.67-3.43c-1.66-8.47-1.25-17.22,1.21-25.49l4.48-15.12,2.88,.85-4.49,15.13c-2.31,7.81-2.7,16.06-1.14,24.04l.52,2.64c2.3,11.74,.96,24-4.35,34.72-3.72,7.52-5.52,15.92-5.2,24.3l.65,17.08c.03,.83-.61,1.52-1.44,1.56h0Z"/></g><g><g><path class="cls-16" d="M48.67,42.47c0-2.78-2.25-5.03-5.03-5.03s-5.03,2.25-5.03,5.03l-1,8.34h12.07l-1-8.34Zm-5.03,2.75c-1.52,0-2.75-1.23-2.75-2.75s1.23-2.75,2.75-2.75,2.75,1.23,2.75,2.75-1.23,2.75-2.75,2.75Z"/><path class="cls-4" d="M22.57,137.12l-11.11,128.75c-.12,1.37,1.13,2.45,2.46,2.15l36.78-8.3c.86-.19,1.5-.92,1.57-1.8l10.12-117.36c.1-1.11-.73-2.1-1.84-2.19l-35.8-3.09c-1.11-.1-2.1,.73-2.19,1.84Zm19.78,12.38c-3.36,.22-5.93-2.84-5.14-6.11,.49-2.04,2.33-3.58,4.42-3.72,3.36-.22,5.94,2.84,5.14,6.11-.5,2.04-2.33,3.58-4.42,3.72Z"/><circle class="cls-5" cx="38.58" cy="173.37" r="16.12"/><path class="cls-10" d="M45.61,102.5l-.02,16.28c0,3.9-.39,7.79-1.15,11.62l-2.18,11.02"/><path class="cls-3" d="M87.14,89.98c0-24.59-20.39-44.41-45.19-43.47C19.68,47.35,1.42,65.28,.2,87.53c-.7,12.83,4.16,24.53,12.4,32.91h-.02v2.77c0,2.25,1.82,4.07,4.07,4.07h53.99c2.25,0,4.07-1.82,4.07-4.07v-2.77h-.02c7.71-7.85,12.46-18.6,12.46-30.47Z"/><rect class="cls-16" x="41.81" y="31.28" width="3.66" height="10.98" rx="1.83" ry="1.83"/><path class="cls-16" d="M43.64,36.06c-3.42,0-6.21-2.78-6.21-6.21,0-2.63,1.03-4.22,3.69-5.67,.62-.34,1.39-.11,1.73,.51,.34,.62,.11,1.39-.51,1.73-2.03,1.11-2.36,1.92-2.36,3.43,0,2.01,1.64,3.65,3.65,3.65s3.65-1.64,3.65-3.65c0-2.25-.59-2.71-1.58-3.48-1.83-1.44-3.35-3.09-3.35-8.74,0-.71,.57-1.28,1.28-1.28s1.28,.57,1.28,1.28c0,4.87,1.15,5.77,2.37,6.73,1.2,.94,2.56,2,2.56,5.49s-2.78,6.21-6.21,6.21Z"/><rect class="cls-16" x="39.13" width="9" height="18.11" rx="1.71" ry="1.71"/><path class="cls-14" d="M48.14,15.69h-9c-.28,0-.5-.22-.5-.5s.22-.5,.5-.5h9c.28,0,.5,.22,.5,.5s-.22,.5-.5,.5Z"/><path class="cls-14" d="M48.14,12.62h-9c-.28,0-.5-.22-.5-.5s.22-.5,.5-.5h9c.28,0,.5,.22,.5,.5s-.22,.5-.5,.5Z"/><path class="cls-14" d="M48.14,9.56h-9c-.28,0-.5-.22-.5-.5s.22-.5,.5-.5h9c.28,0,.5,.22,.5,.5s-.22,.5-.5,.5Z"/><path class="cls-14" d="M48.14,6.49h-9c-.28,0-.5-.22-.5-.5s.22-.5,.5-.5h9c.28,0,.5,.22,.5,.5s-.22,.5-.5,.5Z"/><path class="cls-14" d="M48.14,3.43h-9c-.28,0-.5-.22-.5-.5s.22-.5,.5-.5h9c.28,0,.5,.22,.5,.5s-.22,.5-.5,.5Z"/><path class="cls-1" d="M54.05,74.46c-4.12,3.19-16.72,3.19-20.84,0-5.28-4.09-6.34-24.62,0-26.72,4.95-1.64,16.22-1.65,20.84-.01,6.3,2.23,5.28,22.64,0,26.73Z"/><path class="cls-1" d="M76.84,61.68c5.41,6.19-27.87,6.5-32.91,0-2.2-2.84-3.4-13.22,0-14.39,6.03-2.07,21.92,1.83,32.91,14.39Z"/><path class="cls-1" d="M10.26,61.86c-5.41,6.19,27.87,6.5,32.91,0,2.2-2.84,3.4-13.22,0-14.39-6.03-2.07-21.92,1.83-32.91,14.39Z"/><path class="cls-9" d="M4.03,107.99c26.33,0,70.54-6.07,81.83-28.45"/><circle class="cls-11" cx="68.28" cy="95.63" r="2.67"/><circle class="cls-11" cx="59.32" cy="99.62" r="2.67"/><circle class="cls-11" cx="13.33" cy="107.99" r="2.67"/><path class="cls-9" d="M.5,95.63c18.74,9.68,53.24,18.54,82.22,13.46"/><circle class="cls-11" cx="48.39" cy="109.66" r="2.67"/><circle class="cls-11" cx="76.31" cy="110.03" r="2.67"/><path class="cls-14" d="M38.58,161.27c9.9,2.3,11.68,11.78,6.24,18.35-3.31,3.99-14.83,6.52-18.35-6.24,.14,5.44,5.42,12.11,12.11,12.11s12.11-5.42,12.11-12.11-6.48-12.14-12.11-12.11Z"/></g><path class="cls-5" d="M28.09,210.38c-1.29-2.99-4.22-6.95-6.76-9.03-.61-.5-.47-1.45,.26-1.73,3.02-1.17,6.88-3.75,8.97-6.49,.49-.65,1.47-.51,1.77,.25,1.26,3.22,4.31,6.76,6.87,8.74,.62,.48,.48,1.43-.24,1.73-3.1,1.3-7.1,4.25-9.13,6.77-.49,.61-1.42,.49-1.73-.23Z"/><path class="cls-5" d="M40.24,227.05c-1.07-2.48-3.5-5.76-5.61-7.49-.5-.41-.39-1.2,.21-1.43,2.51-.97,5.7-3.11,7.44-5.38,.41-.54,1.22-.42,1.47,.21,1.04,2.67,3.57,5.6,5.7,7.25,.51,.39,.4,1.18-.2,1.43-2.57,1.08-5.89,3.52-7.57,5.61-.41,.51-1.18,.4-1.44-.19Z"/><path class="cls-5" d="M26.68,241.64c-.86-1.99-2.8-4.61-4.49-6-.4-.33-.31-.96,.17-1.15,2.01-.78,4.57-2.49,5.96-4.31,.33-.43,.98-.34,1.17,.17,.84,2.14,2.86,4.49,4.57,5.8,.41,.32,.32,.95-.16,1.15-2.06,.87-4.71,2.82-6.06,4.5-.33,.41-.95,.32-1.15-.15Z"/><path class="cls-5" d="M36.44,254.53c-.48-1.11-1.56-2.57-2.5-3.34-.22-.18-.18-.54,.1-.64,1.12-.43,2.55-1.39,3.32-2.4,.18-.24,.54-.19,.65,.09,.47,1.19,1.59,2.5,2.54,3.24,.23,.18,.18,.53-.09,.64-1.15,.48-2.63,1.57-3.38,2.51-.18,.23-.53,.18-.64-.09Z"/><path class="cls-3" d="M54.04,242.98c-.83,.03-1.52-.61-1.56-1.44l-.65-17.08c-.34-8.87,1.57-17.77,5.5-25.73,4.9-9.92,6.39-21.18,4.26-32.03l-.67-3.42c-1.66-8.47-1.25-17.21,1.2-25.48l4.49-15.13,2.88,.85-4.49,15.13c-2.31,7.81-2.7,16.06-1.14,24.06l.52,2.62c2.3,11.74,.96,23.99-4.35,34.72-3.72,7.52-5.52,15.92-5.2,24.3l.65,17.08c.03,.83-.61,1.52-1.44,1.56h0Z"/><path class="cls-3" d="M8.33,240l-.62-16.36c-.34-9.07,1.36-18.16,5.4-26.29,4.92-9.9,6.46-21.33,4.34-32.18l-.67-3.43c-1.66-8.47-1.25-17.21,1.2-25.48l4.49-15.13,2.88,.85-4.49,15.13c-2.31,7.81-2.7,16.06-1.14,24.05l.67,3.43c2.25,11.44,.64,23.51-4.53,33.96-3.71,7.5-5.5,15.89-5.18,24.26l.65,17.08c.03,.83-.61,1.52-1.44,1.56h0c-.83,.03-1.52-.61-1.56-1.44Z"/><path class="cls-3" d="M39.84,241.16l-.62-16.36c-.34-9.07,1.36-18.16,5.4-26.29,4.92-9.9,6.46-21.34,4.34-32.18l-.67-3.43c-1.66-8.47-1.25-17.21,1.2-25.48l4.49-15.14,2.88,.85-4.49,15.13c-2.31,7.81-2.7,16.06-1.14,24.06l.51,2.62c2.3,11.74,.96,24-4.35,34.72-3.72,7.52-5.52,15.92-5.2,24.3l.65,17.08c.03,.83-.61,1.52-1.44,1.56h0c-.83,.03-1.52-.61-1.56-1.44Z"/><path class="cls-3" d="M24.98,241.54c-.83,.03-1.52-.61-1.56-1.44l-.65-17.08c-.34-8.86,1.56-17.75,5.49-25.7,4.87-9.87,6.39-21.25,4.27-32.06l-.67-3.43c-1.66-8.47-1.25-17.22,1.21-25.49l4.48-15.12,2.88,.85-4.49,15.13c-2.31,7.81-2.7,16.06-1.14,24.04l.52,2.64c2.3,11.74,.96,24-4.35,34.72-3.72,7.52-5.52,15.92-5.2,24.3l.65,17.08c.03,.83-.61,1.52-1.44,1.56h0Z"/></g></g><circle class="cls-2" cx="41.99" cy="144.76" r="1.76"/><path class="cls-6" d="M41.69,23.91l-.7,.34-1.01-1.97c.38-.26,2.38-.48,2.38-.48l-.67,2.11Z"/><polygon class="cls-12" points="44.06 28.01 42.23 28.01 42.13 26.55 42.78 26.17 44.06 28.01"/><rect class="cls-15" x="56.7" y="130.14" width="3.55" height="5.12"/><rect class="cls-13" x="25.48" y="130.14" width="6.62" height="2.89"/></g></g></svg>