<svg xmlns="http://www.w3.org/2000/svg" viewBox="0 0 381.09 78.45"><defs><style>.cls-1{fill:#656464;}</style></defs><g id="レイヤー_2" data-name="レイヤー 2"><g id="メイン"><g id="前夕祭"><path class="cls-1" d="M0,.73H15.11v7h-6v6.61h5.66v6.63H9.06V28.6h6.65v7H0Z"/><path class="cls-1" d="M39.86.73,35.25,35.58H21.48L16.25.73H25.8q1.66,14.4,2.38,24.36Q28.89,15,29.67,7.21L30.3.73Z"/><path class="cls-1" d="M41.39.73h15.1v7h-6v6.61h5.66v6.63H50.45V28.6H57.1v7H41.39Z"/><path class="cls-1" d="M67.47.73H82.82v7H76.53v6.61h5.6v6.63h-5.6V35.58H67.47Z"/><path class="cls-1" d="M85,.73h15.11v7H94.07v6.61h5.66v6.63H94.07V28.6h6.65v7H85Z"/><path class="cls-1" d="M122.52,11.28h-8.41V8.69a5.16,5.16,0,0,0-.32-2.3,1.2,1.2,0,0,0-1.08-.49,1.36,1.36,0,0,0-1.24.67,3.83,3.83,0,0,0-.42,2,5.83,5.83,0,0,0,.47,2.63,6.87,6.87,0,0,0,2.56,2.13q6.06,3.59,7.63,5.89c1,1.54,1.57,4,1.57,7.43a12.81,12.81,0,0,1-.88,5.48,6.78,6.78,0,0,1-3.36,3,13.28,13.28,0,0,1-5.81,1.2A13,13,0,0,1,107,34.93a6.75,6.75,0,0,1-3.37-3.51,18,18,0,0,1-.8-6.05V23.09h8.42v4.24a5.69,5.69,0,0,0,.35,2.52,1.39,1.39,0,0,0,1.26.56,1.5,1.5,0,0,0,1.35-.71,4.1,4.1,0,0,0,.44-2.11q0-3.07-.84-4a27.33,27.33,0,0,0-4.24-3.17,40.85,40.85,0,0,1-4.48-3.25,7.55,7.55,0,0,1-1.82-2.79,12.41,12.41,0,0,1-.72-4.57,12.65,12.65,0,0,1,1-5.85A6.94,6.94,0,0,1,106.9,1a13.28,13.28,0,0,1,5.51-1,14.32,14.32,0,0,1,6,1.14A6.33,6.33,0,0,1,121.72,4a15.44,15.44,0,0,1,.8,5.89Z"/><path class="cls-1" d="M144.37.73v7H139V35.58h-9.06V7.7h-5.36v-7Z"/><path class="cls-1" d="M155.49.73V35.58h-9.06V.73Z"/><path class="cls-1" d="M180.67.73l-4.61,34.85H162.3L157.07.73h9.55q1.66,14.4,2.38,24.36.7-10.07,1.49-17.88l.63-6.48Z"/><path class="cls-1" d="M197.87.73l5.18,34.85h-9.26l-.49-6.27h-3.24l-.54,6.27h-9.37L184.77.73Zm-4.81,22.41q-.67-5.92-1.38-14.64-1.38,10-1.74,14.64Z"/><path class="cls-1" d="M213.65.73V28.6h5.51v7H204.59V.73Z"/><path class="cls-1" d="M55.11,78H36.4V68.94H52.45a1.84,1.84,0,0,0,1.91-2.06v-.07a24.11,24.11,0,0,1-2.81.19H45.38c-8,0-10.66-4.19-10.66-9.21V56.67c0-5.13,2.5-9.69,10.66-9.69h8.68c7.78,0,11.52,4.15,11.52,10.25V67.82C65.58,73.21,62.33,78,55.11,78Zm-.75-20.42a1,1,0,0,0-1.16-1.16H47c-.9,0-1.16.52-1.16,1v.41A1.06,1.06,0,0,0,47,59H53.2a1,1,0,0,0,1.16-1.09Z"/><path class="cls-1" d="M68.32,77.88V66.7h11V77.88Z"/><path class="cls-1" d="M89.91,78V59.4a.73.73,0,0,0-.83-.82H82.2v-11H94.85c4.22,0,6.81,2.73,6.81,6.73V78Z"/><path class="cls-1" d="M124.56,78.07H104.65V68.16h17.7c.78,0,1-.3,1-.86v-.23c0-.56-.3-.86-1-.86H108.54c-2.84,0-3.89-1.38-3.89-4.15V47.58h28.89v9.13H115.65v.93c0,.38.26.53.67.53h8.24c8,0,10.25,3.29,10.25,8.9v1.76C134.81,75.19,132,78.07,124.56,78.07Z"/><path class="cls-1" d="M170.58,71.78h-8.27V78H151.2V47.5h19.45c6.18,0,10.37,3,10.37,11.12v2.43C181,67.45,177.88,71.78,170.58,71.78Zm-.75-12.23c0-1.83-.6-2.06-2.24-2.06h-5.28v4.19h5.28c1.61,0,2.24-.45,2.24-1.79Z"/><path class="cls-1" d="M208.52,78V60.22c0-2.24-.26-3.06-2.36-3.14V78h-8v-21c-1.91.15-2.32,1.16-2.32,3.14V78H185.55V59.25c0-8.9,3.78-11.93,12.79-11.93h8.12c9.13,0,12.46,2.62,12.46,11.93V78Z"/><path class="cls-1" d="M230.23,78V59.4a.73.73,0,0,0-.83-.82h-6.88v-11h12.64c4.23,0,6.81,2.73,6.81,6.73V78Z"/><path class="cls-1" d="M264.28,66.92h-7.71v1.42H274.9V78H245.08V59.33H262.7c1,0,1.39-.42,1.39-1v-.15c0-.64-.49-.94-1.39-.94H245.08V47.58h19.2c8.15,0,11.41,3.66,11.41,10v.67C275.69,62.81,273.25,66.92,264.28,66.92Z"/><path class="cls-1" d="M278.42,63V51.73h11V63Zm0,14.92V66.7h11V77.88Z"/><path class="cls-1" d="M309.74,78.45h-4c-10,0-12.94-2.89-12.94-13V60.41c0-10.51,3.1-13.21,12.83-13.21h4.31c9.61,0,12.79,2.7,12.79,13.21V65.5C322.72,75.56,319.73,78.45,309.74,78.45Zm2.77-18c0-2.69-1-3.44-2.58-3.44h-4.31c-1.87,0-2.69.78-2.69,3.44V65.5c0,2.47.67,3.14,2.8,3.14h4c1.83,0,2.77-1.08,2.77-3.14Z"/><path class="cls-1" d="M343.86,78.45h-4c-10,0-12.95-2.89-12.95-13V60.41c0-10.51,3.11-13.21,12.84-13.21h4.3c9.62,0,12.8,2.7,12.8,13.21V65.5C356.85,75.56,353.85,78.45,343.86,78.45Zm2.77-18c0-2.69-1-3.44-2.58-3.44h-4.3c-1.87,0-2.7.78-2.7,3.44V65.5c0,2.47.68,3.14,2.81,3.14h4c1.84,0,2.77-1.08,2.77-3.14Z"/><path class="cls-1" d="M375,68.79c-3.15,0-5.91-3.33-8.35-3.33a9.57,9.57,0,0,0-5.87,2.47V57.31a8.76,8.76,0,0,1,5.84-2c3.59,0,6.24,3.33,8.41,3.33a9.91,9.91,0,0,0,6.1-2.54V66.77A9.7,9.7,0,0,1,375,68.79Z"/></g></g></g></svg>