<?xml version="1.0" encoding="UTF-8"?><svg id="_イヤー_2" xmlns="http://www.w3.org/2000/svg" viewBox="0 0 478.64 82.16"><defs><style>.cls-1{fill:#666464;}.cls-2{fill:#f8d25f;}.cls-3{fill:#f3fafe;}.cls-4{fill:#f3c0d8;}.cls-5{fill:#78bccf;}</style></defs><g id="_イヤー_3"><g><g><path class="cls-5" d="M0,22.19H448.66c16.55,0,29.99,13.44,29.99,29.99h0c0,16.55-13.44,29.99-29.99,29.99H29.99C13.44,82.16,0,68.72,0,52.17V22.19H0Z"/><path class="cls-3" d="M0,7.18H448.66c16.55,0,29.99,13.44,29.99,29.99h0c0,16.55-13.44,29.99-29.99,29.99H29.99C13.44,67.16,0,53.72,0,37.17V7.18H0Z"/><circle class="cls-4" cx="20.96" cy="34.77" r="7.7"/></g><g><path class="cls-1" d="M70.08,36.35l-.84,4.43h2.86v9.73h-4.71l-.7,3.56h-9.59l.7-3.56h-2.23l-.66,3.56h-9.59l.7-3.56h-1.88v-9.73h3.73l.84-4.43h-2.3v-9.69h4.15l.42-2.41h9.55l-.42,2.41h2.27l.45-2.41h9.52l-.42,2.41h2.41v9.69h-4.25Zm-11.82,0l-.84,4.43h2.23l.87-4.43h-2.27Z"/><path class="cls-1" d="M94.67,56.51h-9.55c.94-3.14,1.46-12.48,1.46-13.46h9.41c0,1.25-.45,10.67-1.33,13.46Zm-8.89-23.85v-8.33l10.18,1.12v8.3l-10.18-1.08Zm0,8.89v-8.3l10.18,1.08v8.33l-10.18-1.12Zm10.25,14.75v-8.26h6.52v-1.85h-5.33v-8.79h5.33v-1.81h-5.93v-9.1h5.93l-.31-2.27h9.48l.38,2.27h6.17v9.1h-6.28v1.81h5.68v8.79h-5.68v1.85h6.28v8.26h-22.25Z"/><path class="cls-1" d="M128.49,56.71h-7.88c.35-1.74,.8-5.44,.8-8.02h7.77c0,1.53-.35,6-.7,8.02Zm-7.81-19.52v-6.14h4.15c-.07-.28-.11-.56-.17-.87h-3.17v-5.09h10.67v-.91h9.48v.91h10.88v5.09h-3.14l-.21,.87h4.11v6.14h-32.6Zm24.51,19.52l-.94-7.39h-5.51l-.31-1.22h-16.98v-10.29h30.89v10.29h-6.1l.17,.59h5.79l1.05,8.02h-8.05Zm-4.43,0h-5.82c-3.7,0-5.12-2.27-5.12-5.44v-2.58h7.98v.8c0,.28,.14,.45,.38,.45h2.68c1.19,0,2.02,.04,3.07-.24v6.76c-.63,.17-1.71,.24-3.17,.24Zm2.02-15.79h-11.79v.8h11.79v-.8Zm0,3.21h-11.79v.8h11.79v-.8Zm-9.21-13.95c.07,.35,.14,.7,.21,1.05h6.35l.21-1.05h-6.76Z"/><path class="cls-1" d="M187.11,49.71v4.5h-11.02c-.42,1.57-1.53,2.48-4.04,2.48h-8.12v-3.24h-7.95v-5.68h11.26v-.59h-11.61v-3.38h11.61v-.59h-11.26v-5.51h11.26v-.59h-11.26v-5.75h11.26v-.56h-11.64v-5.96h11.02v-.7h10.29v.7h11.16v5.96h-11.75v.56h10.81v5.75h-10.81v.59h10.81v3.52h.94v8.51h-.94Zm-19.87-15.93h-3.8v.87h3.8v-.87Zm12.87,0h-3.8v.87h3.8v-.87Zm-1.43,9.41h-2.37v1.01h2.37v-1.01Zm0,3.52h-2.37v1.05h2.37v-1.05Z"/><path class="cls-1" d="M190.39,56.09v-8.68h1.43v-13.84h-1.43v-8.54h10.95v8.54h-1.36v12.38c.59-.21,1.12-.45,1.57-.73v9.03c-2.27,1.18-7.39,1.85-11.16,1.85Zm24.51,.59l-1.19-2.13h-2.51c-.45,.87-.94,1.67-1.36,2.13h-8.96c.56-.45,1.19-1.26,1.78-2.13h-.59v-21.76h4.57l.31-.59h-4.92v-7.74h20.85v7.74h-6.49l-.24,.59h6.03v21.76h-.52l1.22,2.13h-7.98Zm-1.64-18.69h-2.27v1.05h2.27v-1.05Zm0,4.99h-2.27v1.05h2.27v-1.05Zm0,4.88h-2.27v1.08h2.27v-1.08Z"/></g><g><g><path class="cls-2" d="M410.41,42.27c-.35,0-.69-.12-.96-.35-.45-.38-.64-.99-.48-1.56l10.51-36.4c.38-1.29,1.58-2.17,2.9-2.17h13.54c1.32,0,2.53,.61,3.32,1.66,.79,1.06,1.02,2.39,.65,3.65l-10,33.53c-.13,.45-.47,.81-.92,.98-.17,.06-.35,.09-.52,.09-.28,0-.57-.08-.81-.24l-6.58-4.23-9.99,4.88c-.21,.1-.43,.15-.66,.15Z"/><path class="cls-3" d="M435.93,3.28c1.76,0,3.03,1.7,2.53,3.39l-10,33.53-7.29-4.68-10.75,5.26,10.51-36.4c.19-.65,.79-1.09,1.46-1.09h13.54m0-3h-13.54c-1.99,0-3.77,1.33-4.34,3.23l-10.52,36.42c-.33,1.14,.04,2.37,.95,3.13,.55,.46,1.24,.7,1.93,.7,.45,0,.9-.1,1.32-.3l9.24-4.51,5.87,3.77c.49,.31,1.05,.48,1.62,.48,.35,0,.7-.06,1.04-.19,.88-.33,1.56-1.05,1.83-1.96l10-33.53c.51-1.72,.19-3.54-.88-4.98s-2.72-2.27-4.52-2.27h0Z"/></g><g><path class="cls-2" d="M375.67,71.91c-1.33,0-2.55-.61-3.34-1.68-.8-1.07-1.03-2.41-.65-3.69l18.16-60.89c.73-2.45,3.02-4.16,5.58-4.16h11.27c1.37,0,2.62,.63,3.43,1.72,.82,1.09,1.06,2.47,.67,3.78l-18.38,61.62c-.54,1.79-2.15,3.02-4.02,3.05,0,0-12.7,.24-12.71,.24Z"/><path class="cls-3" d="M406.68,3c1.86,0,3.19,1.79,2.66,3.57l-18.38,61.62c-.35,1.16-1.4,1.96-2.61,1.98l-12.63,.24h-.05c-1.78,0-3.07-1.72-2.56-3.44l18.16-60.89c.55-1.83,2.23-3.08,4.14-3.08h11.27m0-3h-11.27c-3.21,0-6.1,2.15-7.01,5.23l-18.16,60.89c-.52,1.73-.19,3.56,.89,5.01,1.08,1.45,2.74,2.28,4.55,2.28h.11l12.63-.24c2.53-.05,4.71-1.71,5.43-4.13l18.38-61.62c.53-1.77,.2-3.63-.9-5.1-1.1-1.48-2.79-2.33-4.63-2.33h0Z"/></g></g></g></g></svg>