<?xml version="1.0" encoding="UTF-8"?><svg id="_イヤー_2" xmlns="http://www.w3.org/2000/svg" viewBox="0 0 478.64 80.92"><defs><style>.cls-1{fill:#666464;}.cls-2{fill:#f8d25f;}.cls-3{fill:#f3fafe;}.cls-4{fill:#f3c0d8;}.cls-5{fill:#78bccf;}</style></defs><g id="_イヤー_3"><g><g><path class="cls-5" d="M0,20.95H448.66c16.55,0,29.99,13.44,29.99,29.99h0c0,16.55-13.44,29.99-29.99,29.99H29.99C13.44,80.92,0,67.49,0,50.94V20.95H0Z"/><path class="cls-3" d="M0,6.75H448.66c16.55,0,29.99,13.44,29.99,29.99h0c0,16.55-13.44,29.99-29.99,29.99H29.99C13.44,66.73,0,53.29,0,36.74V6.75H0Z"/><circle class="cls-4" cx="20.96" cy="32.65" r="7.7"/></g><g><path class="cls-1" d="M70.08,35.1l-.84,4.43h2.86v9.73h-4.71l-.7,3.56h-9.59l.7-3.56h-2.23l-.66,3.56h-9.59l.7-3.56h-1.88v-9.73h3.73l.84-4.43h-2.3v-9.69h4.15l.42-2.41h9.55l-.42,2.41h2.27l.45-2.41h9.52l-.42,2.41h2.41v9.69h-4.25Zm-11.82,0l-.84,4.43h2.23l.87-4.43h-2.27Z"/><path class="cls-1" d="M99.2,52.84v-16.6c0-2.09-.24-2.86-2.2-2.93v19.52h-7.43v-19.52c-1.78,.14-2.16,1.08-2.16,2.93v16.6h-9.62v-17.5c0-8.3,3.52-11.12,11.92-11.12h7.57c8.51,0,11.61,2.44,11.61,11.12v17.5h-9.69Z"/><path class="cls-1" d="M129.71,52.84v-4.29h-6.9v4.29h-9.94v-17.36c0-8.65,1.99-11.61,11.19-11.61h3.87c9.21,0,11.65,2.96,11.65,11.61v17.36h-9.87Zm0-17.36c0-1.81-.28-2.34-1.88-2.34h-3.17c-1.57,0-1.85,.52-1.85,2.34v4.01h6.9v-4.01Z"/><path class="cls-1" d="M162.11,47.02h-7.71v5.82h-10.35V24.39h18.13c5.75,0,9.66,2.79,9.66,10.36v2.27c0,5.96-2.93,10.01-9.73,10.01Zm-.7-11.4c0-1.71-.56-1.92-2.09-1.92h-4.92v3.91h4.92c1.5,0,2.09-.42,2.09-1.67v-.31Z"/></g><g><g><path class="cls-2" d="M422.66,3.95c.38-1.29,1.58-2.17,2.9-2.17h13.54c1.32,0,2.53,.61,3.32,1.66,.79,1.06,1.02,2.39,.65,3.65l-10.57,35.44-8.26-5.31-13.03,6.37,11.45-39.65Z"/><path class="cls-3" d="M439.11,3.28c1.76,0,3.03,1.7,2.53,3.39l-10,33.53-7.29-4.68-10.75,5.26,10.51-36.4c.19-.65,.79-1.09,1.46-1.09h13.54m0-3h-13.54c-1.99,0-3.77,1.33-4.34,3.23l-10.52,36.42-1.88,6.5,6.08-2.97,9.24-4.51,5.87,3.77,3.36,2.16,1.14-3.82,10-33.53c.51-1.72,.19-3.54-.88-4.98-1.07-1.44-2.72-2.27-4.52-2.27h0Z"/></g><g><path class="cls-2" d="M378.86,71.91c-1.33,0-2.55-.61-3.34-1.68-.8-1.07-1.03-2.41-.65-3.69l18.16-60.89c.73-2.45,3.02-4.16,5.58-4.16h11.27c1.37,0,2.62,.63,3.43,1.72,.82,1.09,1.06,2.47,.67,3.78l-18.38,61.62c-.54,1.79-2.15,3.02-4.02,3.05l-12.71,.24Z"/><path class="cls-3" d="M409.86,3c1.86,0,3.19,1.79,2.66,3.57l-18.38,61.62c-.35,1.16-1.4,1.96-2.61,1.98l-12.63,.24h-.05c-1.78,0-3.07-1.72-2.56-3.44l18.16-60.89c.55-1.83,2.23-3.08,4.14-3.08h11.27m0-3h-11.27c-3.21,0-6.1,2.15-7.01,5.23l-18.16,60.89c-.52,1.73-.19,3.56,.89,5.01,1.08,1.45,2.74,2.28,4.55,2.28h.11l12.63-.24c2.53-.05,4.71-1.71,5.43-4.13l18.38-61.62c.53-1.77,.2-3.63-.9-5.1-1.1-1.48-2.79-2.33-4.63-2.33h0Z"/></g></g></g></g></svg>