<?xml version="1.0" encoding="UTF-8"?><svg id="_イヤー_2" xmlns="http://www.w3.org/2000/svg" viewBox="0 0 478.64 81.05"><defs><style>.cls-1{fill:#666464;}.cls-2{fill:#f8d25f;}.cls-3{fill:#f3fafe;}.cls-4{fill:#f3c0d8;}.cls-5{fill:#78bccf;}</style></defs><g id="_イヤー_3"><g><g><path class="cls-5" d="M0,21.08H448.66c16.55,0,29.99,13.44,29.99,29.99h0c0,16.55-13.44,29.99-29.99,29.99H29.99C13.44,81.05,0,67.62,0,51.07V21.08H0Z"/><path class="cls-3" d="M0,6.99H448.66c16.55,0,29.99,13.44,29.99,29.99h0c0,16.55-13.44,29.99-29.99,29.99H29.99C13.44,66.97,0,53.53,0,36.98V6.99H0Z"/><circle class="cls-2" cx="20.96" cy="33.07" r="7.7"/></g><g><path class="cls-1" d="M70.08,33.24l-.84,4.43h2.86v9.73h-4.71l-.7,3.56h-9.59l.7-3.56h-2.23l-.66,3.56h-9.59l.7-3.56h-1.88v-9.73h3.73l.84-4.43h-2.3v-9.69h4.15l.42-2.41h9.55l-.42,2.41h2.27l.45-2.41h9.52l-.42,2.41h2.41v9.69h-4.25Zm-11.82,0l-.84,4.43h2.23l.87-4.43h-2.27Z"/><path class="cls-1" d="M112.1,42.2c-.56,6.07-3.52,10.67-13.7,10.67h-11.19v-9.66h9.8c3.14,0,4.04-.66,4.25-2.2h-15.38v-7.5h32.67v8.68h-6.45Zm-25.7-10.29v-8.75h31.59v8.75h-31.59Z"/><path class="cls-1" d="M121.97,42.37v-10.39h29.88v10.39h-29.88Z"/><path class="cls-1" d="M174.14,47.78h-1.5l1.19,5.2h-10.22l-3.42-14.78h12.83c2.34,0,3.87-1.08,3.87-3.52v-1.53h-21.27v-9.76h31.97v10.01c0,8.58-6.07,14.4-13.46,14.4Z"/></g><g><g><path class="cls-4" d="M412.3,42.27c-.35,0-.69-.12-.96-.35-.45-.38-.64-.99-.48-1.56l10.51-36.4c.38-1.29,1.58-2.17,2.9-2.17h13.54c1.32,0,2.53,.61,3.32,1.66s1.02,2.39,.65,3.65l-10,33.53c-.13,.45-.47,.81-.92,.98-.17,.06-.35,.09-.52,.09-.28,0-.57-.08-.81-.24l-6.58-4.23-10,4.88c-.21,.1-.43,.15-.66,.15Z"/><path class="cls-3" d="M437.82,3.28c1.76,0,3.03,1.7,2.53,3.39l-10,33.53-7.29-4.68-10.75,5.26,10.51-36.4c.19-.65,.79-1.09,1.46-1.09h13.54m0-3h-13.54c-1.99,0-3.77,1.33-4.34,3.23l-10.52,36.42c-.33,1.14,.04,2.37,.95,3.13,.55,.46,1.24,.7,1.93,.7,.45,0,.9-.1,1.32-.3l9.24-4.51,5.87,3.77c.49,.31,1.05,.48,1.62,.48,.35,0,.7-.06,1.04-.19,.88-.33,1.56-1.05,1.83-1.96l10-33.53c.51-1.72,.19-3.54-.88-4.98-1.07-1.44-2.72-2.27-4.52-2.27h0Z"/></g><g><path class="cls-4" d="M377.57,71.91c-1.33,0-2.55-.61-3.34-1.68-.8-1.07-1.03-2.41-.65-3.69l18.16-60.89c.73-2.45,3.02-4.16,5.58-4.16h11.27c1.36,0,2.61,.63,3.43,1.72s1.06,2.47,.67,3.78l-18.38,61.62c-.53,1.79-2.15,3.02-4.02,3.05,0,0-12.7,.24-12.71,.24Z"/><path class="cls-3" d="M408.58,3c1.86,0,3.19,1.79,2.66,3.57l-18.38,61.62c-.35,1.16-1.4,1.96-2.61,1.98l-12.63,.24h-.05c-1.78,0-3.07-1.72-2.56-3.44l18.16-60.89c.55-1.83,2.23-3.08,4.14-3.08h11.27m0-3h-11.27c-3.21,0-6.1,2.15-7.01,5.23l-18.16,60.89c-.52,1.73-.19,3.56,.89,5.01,1.08,1.45,2.74,2.28,4.55,2.28h.11l12.63-.24c2.53-.05,4.71-1.71,5.43-4.13l18.38-61.62c.53-1.77,.2-3.63-.9-5.1-1.1-1.48-2.79-2.33-4.63-2.33h0Z"/></g></g></g></g></svg>