<?xml version="1.0" encoding="UTF-8"?><svg id="_イヤー_2" xmlns="http://www.w3.org/2000/svg" viewBox="0 0 478.64 83.34"><defs><style>.cls-1{fill:#666464;}.cls-2{fill:#f8d25f;}.cls-3{fill:#f3fafe;}.cls-4{fill:#f3c0d8;}.cls-5{fill:#78bccf;}</style></defs><g id="_イヤー_3"><g><path class="cls-5" d="M0,23.37H448.66c16.55,0,29.99,13.44,29.99,29.99h0c0,16.55-13.44,29.99-29.99,29.99H29.99C13.44,83.34,0,69.91,0,53.36V23.37H0Z"/><path class="cls-3" d="M0,7H448.66c16.55,0,29.99,13.44,29.99,29.99h0c0,16.55-13.44,29.99-29.99,29.99H29.99C13.44,66.97,0,53.54,0,36.99V7H0Z"/><circle class="cls-2" cx="20.96" cy="36.85" r="7.7"/><g><path class="cls-1" d="M70.08,34.47l-.84,4.43h2.86v9.73h-4.71l-.7,3.56h-9.59l.7-3.56h-2.23l-.66,3.56h-9.59l.7-3.56h-1.88v-9.73h3.73l.84-4.43h-2.3v-9.69h4.15l.42-2.41h9.55l-.42,2.41h2.27l.45-2.41h9.52l-.42,2.41h2.41v9.69h-4.25Zm-11.82,0l-.84,4.43h2.23l.87-4.43h-2.27Z"/><path class="cls-1" d="M103.84,49.99c-4.32,2.54-10.11,4.25-17.82,4.25v-10.25c13.77,0,17.64-6.8,17.64-9.66v-.73h-16.53v-9.27h27.26v7.67c0,3.31-.91,7.11-3.07,10.67,2.02,.8,4.22,1.12,6.83,1.12v10.15c-7.84,0-10.39-1.22-14.33-3.94Z"/><path class="cls-1" d="M148.3,46.33c-2.75,4.53-8.19,7.88-18.3,7.88h-7.39v-9.83h7.5c3.59,0,6.1-.24,7.81-1.19-2.27-.14-4.74-.21-6.62-.21v-7.32c2.93,0,6.69,.17,9.69,.49v-2.3h-9.13c-1.53,3.03-4.81,6.55-10.46,7.25v-11.54c1.88,0,3.52-2.02,3.52-4.57v-.8h25.91v13.11c.91,.17,1.71,.35,2.13,.42v9.69c-.94-.21-2.61-.59-4.64-1.08Z"/><path class="cls-1" d="M186.24,37.51c-1.57,11.54-8.12,16.42-20.75,16.42h-9.62v-9.83h8.4c9.13,0,10.88-2.72,11.78-7.32,1.67-8.33,3.7-11.54,11.72-12.48v11.19c-1.05,.28-1.4,1.01-1.53,2.02Zm-30.26-3.07v-9.73h14.43v9.73h-14.43Z"/><path class="cls-1" d="M221.91,30.5v5.26c0,13.04-9.34,18.55-23.99,18.55h-5.68v-10.11h6c9.76,0,13.32-1.99,13.32-8.12v-1.71h-20.61v-9.66h22.91c.56-1.92,2.13-2.82,4.67-2.82,3.31,0,4.92,1.5,4.92,4.74,0,1.85-.52,3.1-1.53,3.87Zm-3.38-5.13c-.8,0-1.19,.31-1.19,1.15,0,.98,.38,1.25,1.19,1.25s1.15-.28,1.15-1.25c0-.84-.38-1.15-1.15-1.15Z"/><path class="cls-1" d="M242.35,54h-14.19v-9.55h15.27c2.51,0,3.28-.63,3.28-1.85v-.63h-21.27v-8.3h31.97v7.25c0,7.39-3.24,13.08-15.06,13.08Zm-16.39-21.65v-8.37h30.75v8.37h-30.75Z"/><path class="cls-1" d="M261.42,41.51V23.7h10.25v17.82h-10.25Zm12.76,12.48h-8.96v-10.15h8.65c5.13,0,7.15-1.99,7.15-7.92v-12.24h10.29v12.41c0,14.16-6.21,17.89-17.12,17.89Z"/><path class="cls-1" d="M296.33,43.61v-10.39h29.88v10.39h-29.88Z"/></g><g><path class="cls-4" d="M420.86,3.96c.39-1.31,1.56-2.17,2.91-2.17h13.54c1.32,0,2.53,.61,3.32,1.66,.79,1.06,1.02,2.39,.65,3.65l-10.57,35.44-8.26-5.31-13.03,6.37,11.45-39.65Z"/><path class="cls-3" d="M437.3,3.28c1.76,0,3.03,1.7,2.53,3.39l-10,33.53-7.29-4.68-10.75,5.26,10.51-36.4c.19-.65,.79-1.09,1.46-1.09h13.54m0-3h-13.54c-1.99,0-3.77,1.33-4.34,3.23l-10.52,36.42-1.88,6.5,6.08-2.97,9.24-4.51,5.87,3.77,3.36,2.16,1.14-3.82,10-33.53c.51-1.72,.19-3.54-.88-4.98-1.07-1.44-2.72-2.27-4.52-2.27h0Z"/></g><g><path class="cls-4" d="M377.05,71.91c-1.33,0-2.55-.61-3.35-1.68-.79-1.07-1.03-2.41-.65-3.69l18.16-60.89c.73-2.45,3.02-4.16,5.58-4.16h11.27c1.36,0,2.61,.63,3.43,1.72s1.06,2.47,.67,3.78l-18.38,61.62c-.53,1.79-2.15,3.02-4.02,3.05l-12.71,.24Z"/><path class="cls-3" d="M408.06,3c1.86,0,3.19,1.79,2.66,3.57l-18.38,61.62c-.35,1.16-1.4,1.96-2.61,1.98l-12.63,.24h-.05c-1.78,0-3.07-1.72-2.56-3.44l18.16-60.89c.55-1.83,2.23-3.08,4.14-3.08h11.27m0-3h-11.27c-3.21,0-6.1,2.15-7.01,5.23l-18.16,60.89c-.52,1.73-.19,3.56,.89,5.01,1.08,1.45,2.74,2.28,4.55,2.28h.11l12.63-.24c2.53-.05,4.71-1.71,5.43-4.13l18.38-61.62c.53-1.77,.2-3.63-.9-5.1-1.1-1.48-2.79-2.33-4.63-2.33h0Z"/></g></g></g></svg>