<?xml version="1.0" encoding="UTF-8"?><svg id="_レイヤー_2" xmlns="http://www.w3.org/2000/svg" viewBox="0 0 478.64 82.67"><defs><style>.cls-1{fill:#666464;}.cls-2{fill:#f8d25f;}.cls-3{fill:#f3fafe;}.cls-4{fill:#f3c0d8;}.cls-5{fill:#78bccf;}</style></defs><g id="_目次"><g><path class="cls-5" d="M0,22.7H448.66c16.55,0,29.99,13.44,29.99,29.99h0c0,16.55-13.44,29.99-29.99,29.99H29.99C13.44,82.67,0,69.24,0,52.69V22.7H0Z"/><path class="cls-3" d="M0,7.25H448.66c16.55,0,29.99,13.44,29.99,29.99h0c0,16.55-13.44,29.99-29.99,29.99H29.99C13.44,67.22,0,53.78,0,37.23V7.25H0Z"/><circle class="cls-4" cx="20.96" cy="35.58" r="7.7"/><g><path class="cls-2" d="M420.58,3.95c.38-1.29,1.58-2.17,2.9-2.17h13.54c1.32,0,2.53,.61,3.32,1.67s1.02,2.39,.65,3.65l-10.57,35.44-8.26-5.31-13.03,6.37,11.45-39.65Z"/><path class="cls-3" d="M437.02,3.28c1.76,0,3.03,1.7,2.53,3.39l-10,33.53-7.29-4.68-10.75,5.26,10.51-36.4c.19-.65,.79-1.09,1.46-1.09h13.54m0-3h-13.54c-1.99,0-3.77,1.33-4.34,3.23l-10.52,36.42-1.88,6.5,6.08-2.97,9.24-4.51,5.87,3.77,3.36,2.16,1.14-3.82,10-33.53c.51-1.72,.19-3.54-.88-4.98-1.07-1.44-2.72-2.27-4.52-2.27h0Z"/></g><g><path class="cls-2" d="M376.77,71.91c-1.33,0-2.55-.61-3.35-1.68-.8-1.07-1.03-2.41-.65-3.69l18.16-60.89c.73-2.45,3.02-4.16,5.58-4.16h11.27c1.36,0,2.61,.63,3.43,1.72,.82,1.09,1.06,2.47,.67,3.78l-18.38,61.62c-.53,1.79-2.15,3.02-4.02,3.05l-12.71,.24Z"/><path class="cls-3" d="M407.78,3c1.86,0,3.19,1.79,2.66,3.57l-18.38,61.62c-.35,1.16-1.4,1.96-2.61,1.98l-12.63,.24s-.03,0-.05,0c-1.78,0-3.07-1.72-2.56-3.44l18.16-60.89c.55-1.83,2.23-3.08,4.14-3.08h11.27m0-3h-11.27c-3.21,0-6.1,2.15-7.01,5.23l-18.16,60.89c-.52,1.73-.19,3.56,.89,5.01,1.08,1.45,2.74,2.28,4.55,2.28h.11s12.63-.24,12.63-.24c2.53-.05,4.71-1.71,5.43-4.13l18.38-61.62c.53-1.77,.2-3.63-.9-5.1-1.1-1.48-2.79-2.33-4.63-2.33h0Z"/></g><path class="cls-1" d="M70.08,35.78l-.84,4.43h2.86v9.73h-4.71l-.7,3.56h-9.59l.7-3.56h-2.23l-.66,3.56h-9.59l.7-3.56h-1.88v-9.73h3.73l.84-4.43h-2.3v-9.69h4.15l.42-2.41h9.55l-.42,2.41h2.27l.45-2.41h9.52l-.42,2.41h2.41v9.69h-4.25Zm-11.82,0l-.84,4.43h2.23l.87-4.43h-2.27Z"/><path class="cls-1" d="M120.61,32.47v-8.02h11.44v-.87h9.73v.87h11.26v8.02h-32.43Zm20.29,22.11c-2.62,.98-5.72,1.53-9.38,1.53v-8.16c.52,0,.98-.03,1.43-.03-.24-.59-.42-1.19-.59-1.81-.28,.07-.56,.17-.84,.21v-8.72c-.45,1.99-1.26,3.87-2.41,5.61h1.78v12.9h-9.13v-6.45c-.35,.17-.73,.38-1.15,.52v-11.75c1.5-.73,2.72-2.69,2.72-5.37h8.75c0,1.05-.07,2.06-.24,3.07,1.25-.31,2.06-1.57,2.06-3.07h18.72v7.39c-.35,2.48-1.25,5.09-2.89,7.46,1.01,.03,2.09,.03,3.31,.03v8.16c-4.85,0-8.93-.45-12.13-1.53Zm-1.67-9.87l-1.43-1.33c-.66,.52-1.36,1.01-2.13,1.4h3.42c.38,.42,.77,.77,1.29,1.12,.59-.35,1.12-.77,1.57-1.19h-2.72Zm1.19-4.11c-.21,.35-.45,.66-.7,.94h3.38l.73,.66c.28-.56,.49-1.08,.63-1.6h-4.04Z"/><path class="cls-1" d="M163.96,55.69h-8.75c.91-1.78,1.5-5.13,1.5-6.69h8.23c-.24,3.1-.45,5.23-.98,6.69Zm23.12-11.58v4.29h-9.28v2.37c0,3.35-1.67,5.3-5.65,5.3h-6.59v-6.76h2.23c.31,0,.63-.14,.63-.52v-.38h-11.96v-3.77c-.28,.07-.59,.14-.91,.17v-9.31c.52-.07,.98-.17,1.43-.28l-.63-1.15c-.24,.1-.52,.17-.8,.24v-7.43c1.78-.35,3.87-1.88,4.57-3.24h9.24c-.03,.17-.1,.31-.17,.45h7.88c.07,1.39,.42,2.61,.91,3.7v-3.7h9.83v6.73l-1.74,3.28c.63,.24,1.25,.45,1.88,.66v9.52c-.28-.04-.59-.14-.87-.17Zm-26.46-12.13c-.28,.21-.59,.42-.94,.59l.8,1.29c.35-.17,.66-.38,.98-.59l-.84-1.29Zm17.61,6.94v1.01h-13.21v-.94c-.73,.56-1.5,1.05-2.3,1.5h18.24c-.94-.45-1.85-.98-2.72-1.57Zm-14.78-9.52l.87,1.33c.31-.42,.63-.87,.87-1.33h-1.74Zm8.16,2.41c-.28,.49-.59,1.01-.94,1.5h1.88c-.35-.49-.66-.98-.94-1.5Zm8.33,23.88l-1.32-6.69h8.33l1.29,6.69h-8.3Zm-.56-25.84c.42,.49,.87,.94,1.36,1.32l.73-1.32h-2.09Z"/><path class="cls-1" d="M113.06,31.32h4.69l.77,9.07h-6.51l-.07-.49c-.95,.25-2.03,.35-3.22,.42-.07,.21-.17,.42-.25,.59h9.17v5.78c-.46,.91-.95,1.75-1.58,2.52,.67,.04,1.37,.04,2.17,0v6.9c-4.17,0-7.42-.56-10.08-1.51-2.91,.98-6.44,1.51-10.75,1.51v-6.72c.98,0,1.82-.04,2.66-.14-.21-.25-.46-.49-.67-.73-.63,.17-1.29,.35-2,.45v-7.84c1.19-.03,2.21-.28,2.84-.8h-2.84v-3.29c-.7,2.21-1.64,4.17-2.83,5.81h2.24v13.3h-8.47v-7.98c-.84,.38-1.75,.73-2.7,.98v-10.22c1.4-.28,2.45-1.19,3.22-2.45-1.01,.56-2.06,.95-3.18,1.19v-9.84c1.5-.35,2.52-1.71,2.52-4.24h10.05c-.32,2.98-1.33,5.64-2.8,7.84h2.07v-3.71l3.99-4.13h8.47l-3.99,4.27h.56l2.62-2.77h9.38l-5.5,6.23Zm-14.74,2.03c-.04,.21-.07,.38-.1,.56h1.71l.53-.56h-2.14Zm5.36,13.23c-.35,.25-.7,.46-1.08,.63h4.2c.35-.17,.67-.38,.98-.63h-4.1Zm7.91-14.46l-1.86,2.1c.67-.1,1.37-.25,2-.42l-.14-1.68Z"/></g></g></svg>