<svg xmlns="http://www.w3.org/2000/svg" viewBox="0 0 613.95 103.29"><defs><style>.cls-1{fill:#78bbcf;}.cls-2{fill:#f2f9fd;}.cls-3{fill:#f2bfd7;}.cls-4{fill:#f7d15f;}.cls-5{fill:#656464;}</style></defs><g id="レイヤー_2" data-name="レイヤー 2"><g id="もくじ"><g id="スケジュール"><path class="cls-1" d="M0,26.36H575.49A38.46,38.46,0,0,1,614,64.83v0a38.46,38.46,0,0,1-38.46,38.46h-537A38.46,38.46,0,0,1,0,64.83V26.36a0,0,0,0,1,0,0Z"/><path class="cls-2" d="M0,7.7H575.49A38.46,38.46,0,0,1,614,46.17v0a38.46,38.46,0,0,1-38.46,38.46h-537A38.46,38.46,0,0,1,0,46.17V7.7a0,0,0,0,1,0,0Z"/><circle class="cls-3" cx="26.89" cy="42.13" r="9.87"/><path class="cls-4" d="M541.17,4.34a3.49,3.49,0,0,1,3.32-2.48h17.37a4.89,4.89,0,0,1,4.68,6.28l-13.4,44.92-10.32-6.63-16.07,7.85Z"/><path class="cls-2" d="M561.86,3.36a3.38,3.38,0,0,1,3.24,4.35l-12.83,43-9.35-6-13.79,6.74L542.61,4.76a2,2,0,0,1,1.88-1.4h17.37m0-3H544.49a5,5,0,0,0-4.75,3.54l-13.5,46.72-1.87,6.49,6.07-3,12.28-6,7.93,5.1L554,55.4l1.14-3.83L568,8.57A6.37,6.37,0,0,0,561.86.36Z"/><path class="cls-4" d="M484.58,91a4.93,4.93,0,0,1-4.73-6.34l23.29-78.1a7.1,7.1,0,0,1,6.75-5h14.46A5.06,5.06,0,0,1,529.2,8l-23.57,79a5.05,5.05,0,0,1-4.76,3.62Z"/><path class="cls-2" d="M524.35,3a3.56,3.56,0,0,1,3.41,4.58l-23.57,79a3.57,3.57,0,0,1-3.35,2.55l-16.2.3h-.06a3.43,3.43,0,0,1-3.29-4.41L504.58,7a5.54,5.54,0,0,1,5.31-4h14.46m0-3H509.89a8.59,8.59,0,0,0-8.18,6.1L478.42,84.2a6.43,6.43,0,0,0,6.16,8.27h.12l16.2-.3a6.55,6.55,0,0,0,6.17-4.69l23.57-79A6.57,6.57,0,0,0,524.35,0Z"/><path class="cls-5" d="M90.85,43.46l-1.11,5.87h3.79v12.9H87.29l-.93,4.71H73.65l.92-4.71h-3l-.88,4.71H58l.92-4.71H56.45V49.33h4.94l1.11-5.87h-3V30.61H65l.56-3.2H78.18l-.56,3.2h3l.6-3.2H93.85l-.55,3.2h3.19V43.46Zm-15.68,0-1.11,5.87h3l1.16-5.87Z"/><path class="cls-5" d="M135.6,64c-5.73,3.38-13.4,5.64-23.62,5.64V56.08c18.26,0,23.39-9,23.39-12.81v-1H113.46V30h36.15V40.18a27.53,27.53,0,0,1-4.06,14.14,23.9,23.9,0,0,0,9.06,1.48V69.26C144.2,69.26,140.83,67.64,135.6,64Z"/><path class="cls-5" d="M196.22,45.35V48c0,14.33-7.26,21.41-23.48,21.41H161.09V55.9h11.65c7.49,0,9.52-3.47,9.52-7.86V45.35h-11c-2.5,4-6.66,6.71-13.13,7.54V38.28c1.85-.92,2.64-2.08,2.64-5.22V29.17h13.5V32h26.12V45.35Z"/><path class="cls-5" d="M245.7,47c-2.08,13.36-7.54,22.29-28.39,22.29H204.87V56.77h10.87c11.37,0,14.93-3.65,16.37-11.79a5.71,5.71,0,0,1,.92-2.54h14.38v.19C246.72,43.09,246.07,44.48,245.7,47Zm-40.27-6.1v-11h20.34v11Zm0,12.71V42.63h20.34V53.58Zm31-19.69V28.62h11.24v5.27Zm0,7V35.64h11.24v5.23Z"/><path class="cls-5" d="M254.72,69.3V58.72h20.11V49.93a1.5,1.5,0,0,0-1.71-1.57h-16.5V37.77h16.5c11.28,0,12.95,1.76,12.95,11.93v9h3.09V69.3Z"/><path class="cls-5" d="M298.37,55.57V41.79H338V55.57Z"/><path class="cls-5" d="M343,69.35V55c1.85-.46,2.5-1.34,2.5-5.78V29.13h11.93V48C357.42,63.29,353.26,68.52,343,69.35ZM374.06,44.8v.09c0,8.69-1.71,10.36-2.26,10.36h-.56l.23-2.36V29.13h-12.2V69.35h11.51c10.91,0,15.49-7.86,15.49-24.55Zm12.21-.09v0Z"/></g></g></g></svg>