<?xml version="1.0" encoding="UTF-8"?><svg id="_レイヤー_2" xmlns="http://www.w3.org/2000/svg" viewBox="0 0 613.95 103.29"><defs><style>.cls-1{fill:#78bbcf;}.cls-2{fill:#f2bfd7;}.cls-3{fill:#656464;}.cls-4{fill:#f2f9fd;}.cls-5{fill:#f7d15f;}</style></defs><g id="_もくじ"><g id="_スケジュール"><g><path class="cls-1" d="M0,26.36H575.49c21.23,0,38.46,17.23,38.46,38.46h0c0,21.23-17.23,38.46-38.46,38.46H38.46C17.23,103.29,0,86.05,0,64.83V26.36H0Z"/><path class="cls-4" d="M0,7.7H575.49c21.23,0,38.46,17.23,38.46,38.46h0c0,21.23-17.23,38.46-38.46,38.46H38.46C17.23,84.63,0,67.4,0,46.17V7.7H0Z"/><circle class="cls-5" cx="26.89" cy="42.13" r="9.87"/></g><g><g><path class="cls-2" d="M529.13,52.95c-.35,0-.69-.12-.96-.35-.45-.38-.64-.99-.48-1.56l13.49-46.69c.44-1.47,1.8-2.48,3.32-2.48h17.37c1.56,0,2.98,.72,3.91,1.96,.93,1.25,1.21,2.82,.76,4.31l-12.83,43.01c-.13,.45-.47,.81-.92,.98-.17,.06-.35,.09-.52,.09-.28,0-.57-.08-.81-.24l-8.64-5.55-13.04,6.37c-.21,.1-.43,.15-.66,.15Z"/><path class="cls-4" d="M561.86,3.36c2.26,0,3.89,2.18,3.24,4.35l-12.82,43.01-9.35-6.01-13.79,6.74,13.49-46.69c.25-.83,1.01-1.4,1.88-1.4h17.37m0-3h-17.37c-2.18,0-4.13,1.46-4.75,3.54l-13.49,46.72c-.33,1.14,.04,2.37,.95,3.13,.55,.46,1.24,.7,1.93,.7,.45,0,.9-.1,1.32-.3l12.28-6,7.93,5.1c.49,.31,1.05,.48,1.62,.48,.35,0,.7-.06,1.04-.19,.88-.33,1.56-1.05,1.83-1.96l12.82-43.01c.58-1.95,.22-4.01-1-5.64-1.22-1.63-3.08-2.57-5.12-2.57h0Z"/></g><g><path class="cls-2" d="M484.58,90.97c-1.57,0-3.01-.72-3.95-1.98-.94-1.26-1.22-2.85-.77-4.35L503.14,6.53c.88-2.96,3.66-5.03,6.75-5.03h14.46c1.62,0,3.1,.74,4.06,2.04s1.25,2.93,.79,4.47l-23.57,79.04c-.63,2.12-2.54,3.57-4.76,3.62,0,0-16.29,.3-16.29,.3Z"/><path class="cls-4" d="M524.35,3c2.38,0,4.1,2.3,3.42,4.58l-23.57,79.04c-.44,1.49-1.8,2.52-3.35,2.54l-16.2,.3s-.04,0-.07,0c-2.29,0-3.94-2.21-3.28-4.41L504.58,6.96c.7-2.35,2.86-3.96,5.31-3.96h14.46m0-3h-14.46c-3.75,0-7.11,2.51-8.18,6.1l-23.29,78.1c-.59,1.97-.22,4.04,1.01,5.68,1.23,1.64,3.1,2.59,5.15,2.59h.12s16.2-.3,16.2-.3c2.87-.05,5.35-1.94,6.17-4.69l23.57-79.04c.6-2.01,.22-4.12-1.03-5.8-1.25-1.68-3.17-2.64-5.26-2.64h0Z"/></g></g><g><path class="cls-3" d="M90.85,43.46l-1.11,5.87h3.79v12.9h-6.24l-.92,4.72h-12.71l.92-4.72h-2.96l-.88,4.72h-12.71l.92-4.72h-2.5v-12.9h4.95l1.11-5.87h-3.05v-12.85h5.5l.56-3.19h12.67l-.55,3.19h3l.6-3.19h12.62l-.56,3.19h3.19v12.85h-5.64Zm-15.67,0l-1.11,5.87h2.96l1.16-5.87h-3.01Z"/><path class="cls-3" d="M135.6,64.03c-5.73,3.38-13.41,5.64-23.62,5.64v-13.59c18.26,0,23.39-9.02,23.39-12.81v-.97h-21.92v-12.3h36.16v10.17c0,4.39-1.2,9.43-4.07,14.15,2.68,1.06,5.59,1.48,9.06,1.48v13.45c-10.4,0-13.78-1.62-19-5.22Z"/><path class="cls-3" d="M196.22,45.35v2.64c0,14.33-7.26,21.41-23.49,21.41h-11.65v-13.5h11.65c7.49,0,9.52-3.47,9.52-7.86v-2.68h-11.05c-2.5,4.02-6.66,6.7-13.13,7.54v-14.61c1.85-.92,2.63-2.08,2.63-5.22v-3.88h13.5v2.87h26.12v13.32h-4.12Z"/><path class="cls-3" d="M245.7,46.97c-2.08,13.36-7.54,22.28-28.39,22.28h-12.44v-12.48h10.87c11.37,0,14.93-3.65,16.37-11.79,.23-1.34,.55-2.03,.92-2.54h14.38v.18c-.69,.46-1.34,1.85-1.71,4.35Zm-40.27-6.1v-11h20.34v11h-20.34Zm0,12.71v-10.96h20.34v10.96h-20.34Zm31.02-19.7v-5.27h11.23v5.27h-11.23Zm0,6.98v-5.22h11.23v5.22h-11.23Z"/><path class="cls-3" d="M254.72,69.3v-10.59h20.11v-8.78c0-.88-.51-1.57-1.71-1.57h-16.5v-10.59h16.5c11.28,0,12.95,1.76,12.95,11.93v9.02h3.1v10.59h-34.44Z"/><path class="cls-3" d="M298.37,55.57v-13.78h39.62v13.78h-39.62Z"/><path class="cls-3" d="M342.99,69.35v-14.38c1.85-.46,2.5-1.34,2.5-5.78V29.13h11.93v18.86c0,15.3-4.16,20.53-14.43,21.36Zm31.07-24.55v.09c0,8.69-1.71,10.36-2.26,10.36h-.56l.23-2.36V29.13h-12.21v40.22h11.51c10.91,0,15.49-7.86,15.49-24.55h-12.21Zm12.21-.09v0Z"/></g></g></g></svg>