<?xml version="1.0" encoding="UTF-8"?><svg id="_イヤー_2" xmlns="http://www.w3.org/2000/svg" viewBox="0 0 478.64 82.15"><defs><style>.cls-1{fill:#666464;}.cls-2{fill:#f8d25f;}.cls-3{fill:#f3fafe;}.cls-4{fill:#f3c0d8;}.cls-5{fill:#78bccf;}</style></defs><g id="_イヤー_3"><g><path class="cls-5" d="M0,22.18H448.66c16.55,0,29.99,13.44,29.99,29.99h0c0,16.55-13.44,29.99-29.99,29.99H29.99C13.44,82.15,0,68.72,0,52.17V22.18H0Z"/><path class="cls-3" d="M0,6.27H448.66c16.55,0,29.99,13.44,29.99,29.99h0c0,16.55-13.44,29.99-29.99,29.99H29.99C13.44,66.24,0,52.8,0,36.25V6.27H0Z"/><circle class="cls-4" cx="20.96" cy="35.36" r="7.7"/><g><path class="cls-1" d="M70.08,33.78l-.84,4.43h2.86v9.73h-4.71l-.7,3.56h-9.59l.7-3.56h-2.23l-.66,3.56h-9.59l.7-3.56h-1.88v-9.73h3.73l.84-4.43h-2.3v-9.69h4.15l.42-2.41h9.55l-.42,2.41h2.27l.45-2.41h9.52l-.42,2.41h2.41v9.69h-4.25Zm-11.82,0l-.84,4.43h2.23l.87-4.43h-2.27Z"/><path class="cls-1" d="M108.47,46.78v1.78c0,3.97-2.27,5.58-6.03,5.58h-8.61v-6.94h4.01c.45,0,.56-.24,.56-.49v-.31h-12.62v-7.85h12.62v-.59c2.13,0,3.9-.03,4.78-.7h-14.16v-3.45h-3.24v-10.39h1.99c-.14-.59-.28-1.19-.42-1.74h8.51c.21,.56,.35,1.15,.49,1.74h1.15c-.07-.7-.17-1.29-.31-1.74h8.44c.14,.42,.24,1.05,.38,1.74h1.29l.59-1.74h8.89l-.63,1.74h2.09v10.43h-3.28v2.93c-1.36,.7-4.08,1.6-5.61,1.99h8.89v8.02h-9.76Zm.31-16.39h-13.46v.77h13.46v-.77Z"/><path class="cls-1" d="M142.79,51.25c-2.75,1.67-6.03,2.82-9.83,3.07v-8.96l-1.64-1.92v10.7h-8.37v-7.15c-.7,.73-1.46,1.43-2.3,2.06v-12.03c1.46-1.29,1.99-2.68,2.16-5.02h-2.13v-8.96h2.27v-1.4h8.37v1.4h1.39v8.96h-1.39v.98l1.81,1.78c.73-.21,1.25-.91,1.43-2.16h16.98c.17,1.08,.8,1.85,1.6,1.99v9.59c-.94-.24-1.81-.59-2.65-1.01-.21,.42-.45,.84-.7,1.29,1.01,.21,2.16,.38,3.38,.42v9.45c-4.15-.21-7.57-1.32-10.39-3.07Zm-9.48-19.25v-8.96h4.46v-1.43h9.9v1.43h5.51v8.96h-19.87Zm2.2,11.23c-.59,.28-1.26,.56-1.95,.73v.84c.91-.14,1.74-.31,2.51-.52-.17-.35-.38-.7-.56-1.05Zm7.57-10.56c-.28,1.57-.98,3.52-2.09,5.33h1.05c.24,.66,.52,1.29,.87,1.88,.42-.59,.73-1.22,.94-1.88h1.32c-1.15-1.81-1.81-3.77-2.09-5.33Z"/><path class="cls-1" d="M172.95,50.9v2.62c-2.79,.66-11.26,.77-17.43,.77v-7.15c.52,0,1.01,.04,1.5,.04v-2.55h-1.5v-7.25h1.08v-15.34h30.68v6.87h-20.78v.59h19.7v3.38h-19.7v.56h19.7v3.38h-19.7v.56h21.51v7.25h-11.61c.77,.63,1.74,1.05,2.96,1.32l.49-.98h6.8l-.52,1.12c.91,.03,1.74,.03,1.88,.03v8.16c-7.11,0-11.82-1.29-15.06-3.38Zm-5.23-6.28h-.87v2.68c.87-.03,1.6-.1,2.27-.21-.52-.77-.98-1.6-1.39-2.48Z"/><path class="cls-1" d="M213.68,53.86h-3.38v-6.28c-3.45,4.78-7.92,6.28-11.68,6.28-5.2,0-8.47-3.52-8.47-10.01,0-5.61,3.77-8.79,7.98-9.24v-2.34h-7.22v-8.79h7.22v-1.19h9.48v1.19h14.26v8.58h-14.26v2.48h1.43l.73-1.5h7.92l-.66,1.92c3.98,.98,6.24,3.87,6.24,8.89,0,6.9-3.21,10.01-9.59,10.01Zm-13.11-11.65c-.98,0-1.5,.45-1.5,1.19,0,.52,.35,1.08,1.36,1.08s2.54-.59,3.8-2.27h-3.66Zm12.48,0c-.49,1.32-1.05,2.48-1.64,3.56h.98c1.5,0,2.27-.77,2.27-1.85,0-.91-.56-1.53-1.6-1.71Z"/><path class="cls-1" d="M247.72,52.54v-18.76c0-.8-.24-.94-.56-.94-.28,0-.45,.38-.52,.7l-2.48,11.4c-1.25,5.75-3.38,8.65-9.1,8.65s-9.45-3.24-9.45-9.59V23.95h9.55v18.65c0,.87,.17,1.01,.45,1.01,.31,0,.63-.14,.84-1.22l2.16-10.49c1.15-5.51,3.59-8.68,9.27-8.68,6.14,0,9.52,4.11,9.52,9.62v19.7h-9.69Z"/><path class="cls-1" d="M287.85,33.54v8.89h-16.25c-.94,0-1.43,.49-1.43,1.05,0,.73,.52,1.08,1.43,1.08h18.41v9.14h-21.2c-5.86,0-8.72-4.39-8.72-9.24,0-5.33,3.07-9.48,8.93-9.48h8.72v-1.43h-17.29v-9.14h17.29v-1.64h10.11v1.64h4.46v9.14h-4.46Z"/><path class="cls-1" d="M313.97,52.99h-15.62v-9.69h15.24c2.16,0,3.52-1.26,3.52-4.29,0-3.28-1.64-4.15-3.52-4.15h-18.51v-11.09h10.15v1.53h8.75c8.82,0,13.39,4.92,13.39,13.77,0,9.45-5.75,13.91-13.39,13.91Z"/></g><g><g><path class="cls-2" d="M412.05,42.27c-.35,0-.69-.12-.96-.35-.45-.38-.64-.99-.48-1.56l10.51-36.4c.38-1.29,1.58-2.17,2.9-2.17h13.54c1.32,0,2.53,.61,3.32,1.66s1.02,2.39,.65,3.65l-10,33.53c-.13,.45-.47,.81-.92,.98-.17,.06-.35,.09-.52,.09-.28,0-.57-.08-.81-.24l-6.58-4.23-9.99,4.89c-.21,.1-.43,.15-.66,.15Z"/><path class="cls-3" d="M437.57,3.28c1.76,0,3.03,1.7,2.53,3.39l-10,33.53-7.29-4.68-10.75,5.26,10.51-36.4c.19-.65,.79-1.09,1.46-1.09h13.54m0-3h-13.54c-1.99,0-3.77,1.33-4.34,3.23l-10.52,36.42c-.33,1.14,.04,2.37,.95,3.13,.55,.46,1.24,.7,1.93,.7,.45,0,.9-.1,1.32-.3l9.24-4.51,5.87,3.77c.49,.31,1.05,.48,1.62,.48,.35,0,.7-.06,1.04-.19,.88-.33,1.56-1.05,1.83-1.96l10-33.53c.51-1.72,.19-3.54-.88-4.98s-2.72-2.27-4.52-2.27h0Z"/></g><g><path class="cls-2" d="M377.32,71.91c-1.33,0-2.55-.61-3.34-1.68-.8-1.07-1.03-2.41-.65-3.69l18.16-60.89c.73-2.45,3.02-4.16,5.58-4.16h11.27c1.36,0,2.61,.63,3.43,1.72s1.06,2.47,.67,3.78l-18.38,61.62c-.53,1.79-2.15,3.02-4.02,3.05,0,0-12.7,.24-12.71,.24Z"/><path class="cls-3" d="M408.32,3c1.86,0,3.19,1.79,2.66,3.57l-18.38,61.62c-.35,1.16-1.4,1.96-2.61,1.98l-12.63,.24h-.05c-1.78,0-3.07-1.72-2.56-3.44l18.16-60.89c.55-1.83,2.23-3.08,4.14-3.08h11.27m0-3h-11.27c-3.21,0-6.1,2.15-7.01,5.23l-18.16,60.89c-.52,1.73-.19,3.56,.89,5.01,1.08,1.45,2.74,2.28,4.55,2.28h.11l12.63-.24c2.53-.05,4.71-1.71,5.43-4.13l18.38-61.62c.53-1.77,.2-3.63-.9-5.1-1.1-1.48-2.79-2.33-4.63-2.33h0Z"/></g></g></g></g></svg>