<?xml version="1.0" encoding="UTF-8"?><svg id="_イヤー_2" xmlns="http://www.w3.org/2000/svg" viewBox="0 0 550.62 72.08"><defs><style>.cls-1{fill:#e3dac5;}.cls-2,.cls-3{fill:none;stroke:#5e5d5c;stroke-linejoin:round;stroke-width:2px;}.cls-3{stroke-linecap:round;}.cls-4{fill:#5e5d5c;}</style></defs><g id="_イヤー_3"><g><g><rect class="cls-1" width="550.62" height="72.08" rx="8.63" ry="8.63"/><g><polygon class="cls-2" points="51.82 46.44 29.6 41.77 21.64 41.77 21.64 28.19 29.6 28.19 51.82 22.47 51.82 46.44"/><polygon class="cls-2" points="38.16 49.61 32.85 49.61 32.85 42.45 38.16 43.56 38.16 49.61"/></g><g><path class="cls-4" d="M104.84,25.14c-.13,.16-.33,.26-.62,.26-.1,0-.2,0-.33-.03-2.5,2.54-6.12,5.5-9.27,7.78,.26,.1,.65,.29,.78,.36-.07,.19-.36,.39-.72,.42v17.47h-2.38v-16.72c-3.45,2.44-7.94,5.08-12.39,7.25-.33-.52-.91-1.33-1.37-1.79,8.88-4.1,18.61-11.06,23.85-16.82l2.44,1.82Z"/><path class="cls-4" d="M109.62,39.13c2.47-2.6,7.61-8.33,9.47-10.31,.85-.85,1.69-1.24,2.54-1.24s1.76,.46,2.64,1.24c4.2,3.84,10.96,11.35,15.88,17.73l-1.95,1.79c-4.62-6.41-11.42-14.12-15.06-17.5-.55-.52-.98-.81-1.4-.81s-.81,.33-1.33,.81c-1.53,1.66-6.28,7.12-8.46,9.47,.03,.07,.03,.16,.03,.23,0,.26-.13,.52-.33,.68l-2.02-2.08Zm21.57-13.5c1.5,1.3,3.16,3.32,4.1,4.75l-1.24,.98c-.94-1.43-2.67-3.55-4.07-4.75l1.2-.98Zm3.84-2.86c1.5,1.33,3.19,3.29,4.13,4.75l-1.24,.98c-.94-1.43-2.7-3.51-4.07-4.72l1.17-1.01Z"/><path class="cls-4" d="M146.15,25.7c3.38,1.07,7.29,2.77,9.7,4.42l-1.24,2.05c-2.34-1.66-6.18-3.38-9.5-4.52l1.04-1.95Zm-.13,22.54c11.55-3.58,19.23-10.05,23.13-19.06,.68,.55,1.43,.98,2.12,1.33-4.07,8.91-12,15.84-23.03,19.52-.03,.29-.23,.62-.46,.75l-1.76-2.54Z"/><path class="cls-4" d="M199.08,40.37c-3.32-1.79-7.87-3.9-11.42-5.3v16.27h-2.44V23.06l3.29,.2c-.03,.36-.29,.59-.85,.68v9.5l.49-.68c3.81,1.4,8.85,3.64,12.23,5.43l-1.3,2.18Z"/><path class="cls-4" d="M223.51,34.64h13.66v2.08h-29.38v-2.08h13.47v-5.53h-7.16c-.88,1.85-1.85,3.58-2.86,4.88-.46-.36-1.3-.88-1.89-1.14,1.95-2.37,3.74-6.47,4.81-10.38l2.73,.75c-.06,.23-.29,.36-.68,.36-.36,1.17-.78,2.34-1.24,3.51h6.28v-4.98l2.9,.2c-.03,.23-.2,.39-.65,.46v4.33h11.09v2.02h-11.09v5.53Zm-10.87,17.73v-12.49h19.78v12.46h-2.28v-1.33h-15.29v1.37h-2.21Zm17.5-10.44h-15.29v7.03h15.29v-7.03Z"/><path class="cls-4" d="M249.21,28.66v5.56c0,.52,0,1.11-.03,1.66h5.95v2.08h-6.12c-.1,.98-.29,1.98-.52,3.03,1.56,1.53,5.3,5.63,6.25,6.67l-1.46,1.79c-1.04-1.43-3.64-4.49-5.37-6.41-1.11,3.25-3.12,6.41-6.64,8.91-.29-.46-1.04-1.3-1.46-1.59,4.94-3.48,6.6-8.13,7.09-12.39h-6.96v-2.08h7.12c.03-.59,.03-1.14,.03-1.69v-5.53h-2.9c-.75,2.18-1.66,4.2-2.7,5.66-.39-.33-1.14-.88-1.63-1.14,1.76-2.5,3.12-6.8,3.9-11.06l2.6,.65c-.07,.23-.29,.33-.68,.33-.23,1.17-.52,2.34-.85,3.51h9.47v2.05h-5.11Zm7.38-3.64h12.04v26.06h-2.21v-2.31h-7.68v2.67h-2.15V25.01Zm2.15,21.67h7.68V27.1h-7.68v19.58Z"/></g></g><g><line class="cls-3" x1="517.16" y1="31.51" x2="504.84" y2="43.6"/><line class="cls-3" x1="504.84" y1="43.6" x2="492.52" y2="31.52"/></g></g></g></svg>