<svg xmlns="http://www.w3.org/2000/svg" viewBox="0 0 626.96 106.05"><defs><style>.cls-1{fill:#78bbcf;}.cls-2{fill:#f2f9fd;}.cls-3{fill:#f7d15f;}.cls-4{fill:#656464;}.cls-5{fill:#f2bfd7;}</style></defs><g id="レイヤー_2" data-name="レイヤー 2"><g id="もくじ"><g id="スタンプラリー"><path class="cls-1" d="M0,29.13H588.5A38.46,38.46,0,0,1,627,67.59v0a38.46,38.46,0,0,1-38.46,38.46h-550A38.46,38.46,0,0,1,0,67.59V29.13a0,0,0,0,1,0,0Z"/><path class="cls-2" d="M0,8.13H588.5A38.46,38.46,0,0,1,627,46.6v0A38.46,38.46,0,0,1,588.5,85.06h-550A38.46,38.46,0,0,1,0,46.6V8.13a0,0,0,0,1,0,0Z"/><ellipse class="cls-3" cx="27.46" cy="46.41" rx="10.08" ry="9.87"/><path class="cls-4" d="M91.8,43.37l-1.1,5.68h3.75V61.53H88.28l-.91,4.56H74.81l.91-4.56H72.8l-.87,4.56H59.37l.92-4.56H57.82V49.05h4.89l1.09-5.68h-3V30.94h5.43l.55-3.09H79.28l-.54,3.09h3l.6-3.09H94.77l-.55,3.09h3.15V43.37Zm-15.49,0-1.09,5.68h2.92l1.14-5.68Z"/><path class="cls-4" d="M136,63.27c-5.66,3.27-13.24,5.46-23.33,5.46V55.58c18,0,23.11-8.72,23.11-12.39v-.94H114.14V30.35h35.71v9.84a26.23,26.23,0,0,1-4,13.69,24.21,24.21,0,0,0,8.95,1.43v13C144.51,68.32,141.18,66.76,136,63.27Z"/><path class="cls-4" d="M194.25,58.57c-3.61,5.82-10.73,10.11-24,10.11h-9.68V56.07h9.82c4.7,0,8-.31,10.23-1.52-3-.18-6.21-.27-8.68-.27V44.89c3.84,0,8.77.22,12.7.63v-3h-12A17.42,17.42,0,0,1,159,51.87V37.06c2.47,0,4.62-2.59,4.62-5.86v-1h33.93V47c1.19.22,2.24.45,2.78.54V60C199.09,59.69,196.9,59.2,194.25,58.57Z"/><path class="cls-4" d="M244,47.26c-2.06,14.8-10.64,21.06-27.18,21.06h-12.6V55.71h11c12,0,14.25-3.49,15.44-9.39,2.19-10.69,4.84-14.8,15.35-16V44.67A2.64,2.64,0,0,0,244,47.26ZM204.3,43.32V30.85h18.91V43.32Z"/><path class="cls-4" d="M290.67,38.27V45c0,16.73-12.24,23.8-31.42,23.8h-7.44v-13h7.85c12.79,0,17.45-2.55,17.45-10.42v-2.2h-27V30.85h30c.73-2.46,2.79-3.63,6.12-3.63,4.34,0,6.44,1.93,6.44,6.09C292.68,35.68,292,37.29,290.67,38.27Zm-4.43-6.57c-1.05,0-1.55.4-1.55,1.47,0,1.25.5,1.61,1.55,1.61s1.51-.36,1.51-1.61C287.75,32.1,287.25,31.7,286.24,31.7Z"/><path class="cls-4" d="M317.44,68.41H298.86V56.16h20c3.29,0,4.29-.81,4.29-2.37V53H295.29V42.34h41.88v9.3C337.17,61.12,332.92,68.41,317.44,68.41ZM296,40.64V29.91h40.28V40.64Z"/><path class="cls-4" d="M342.43,52.4V29.55h13.43V52.4Zm16.72,16H347.41v-13h11.32c6.72,0,9.37-2.55,9.37-10.15V29.55h13.47V45.47C381.57,63.63,373.44,68.41,359.15,68.41Z"/><path class="cls-4" d="M388.15,55.09V41.76h39.14V55.09Z"/><path class="cls-5" d="M539.39,53A1.5,1.5,0,0,1,538,51L551.72,4.33a3.48,3.48,0,0,1,3.36-2.47h17.73a4.93,4.93,0,0,1,4,2,4.77,4.77,0,0,1,.75,4.28l-13.1,43a1.49,1.49,0,0,1-.91,1,1.6,1.6,0,0,1-.52.1,1.44,1.44,0,0,1-.8-.24l-8.86-5.56L540,52.8A1.43,1.43,0,0,1,539.39,53Z"/><path class="cls-2" d="M572.81,3.36a3.4,3.4,0,0,1,3.31,4.35l-13.1,43-9.55-6-14.08,6.74L553.16,4.76a2,2,0,0,1,1.91-1.4h17.74m0-3H555.07a5,5,0,0,0-4.78,3.52L536.51,50.6a3,3,0,0,0,.93,3.13,3,3,0,0,0,1.95.72,2.94,2.94,0,0,0,1.29-.3l12.6-6,8.15,5.12a3,3,0,0,0,1.6.47,3.13,3.13,0,0,0,1-.19,3,3,0,0,0,1.82-1.94l13.1-43A6.26,6.26,0,0,0,578,3,6.42,6.42,0,0,0,572.81.36Z"/><path class="cls-5" d="M493.89,91a5,5,0,0,1-4-2,4.86,4.86,0,0,1-.75-4.33l23.79-78.1a7.1,7.1,0,0,1,6.85-5H534.5a5.13,5.13,0,0,1,4.16,2.08A5,5,0,0,1,539.43,8l-24.07,79a5.12,5.12,0,0,1-4.83,3.61Z"/><path class="cls-2" d="M534.5,3A3.58,3.58,0,0,1,538,7.58l-24.07,79a3.62,3.62,0,0,1-3.42,2.55l-16.54.3h-.07a3.45,3.45,0,0,1-3.35-4.41L514.32,7a5.65,5.65,0,0,1,5.42-4H534.5m0-3H519.74a8.59,8.59,0,0,0-8.29,6.08L487.67,84.19a6.28,6.28,0,0,0,1,5.65,6.54,6.54,0,0,0,5.24,2.63H494l16.55-.3a6.61,6.61,0,0,0,6.23-4.67l24.07-79a6.44,6.44,0,0,0-1-5.77A6.59,6.59,0,0,0,534.5,0Z"/></g></g></g></svg>