<?xml version="1.0" encoding="UTF-8"?><svg id="_レイヤー_2" xmlns="http://www.w3.org/2000/svg" xmlns:xlink="http://www.w3.org/1999/xlink" viewBox="0 0 149.31 175.16"><defs><style>.cls-1{fill:url(#_新規パターンスウォッチ_3);}.cls-2{stroke:url(#_新規パターンスウォッチ_3-13);}.cls-2,.cls-3,.cls-4,.cls-5,.cls-6,.cls-7,.cls-8,.cls-9,.cls-10,.cls-11,.cls-12,.cls-13,.cls-14,.cls-15,.cls-16,.cls-17,.cls-18,.cls-19,.cls-20,.cls-21,.cls-22,.cls-23,.cls-24,.cls-25,.cls-26,.cls-27,.cls-28,.cls-29,.cls-30,.cls-31,.cls-32,.cls-33,.cls-34,.cls-35{fill:none;}.cls-2,.cls-3,.cls-4,.cls-5,.cls-6,.cls-7,.cls-8,.cls-9,.cls-10,.cls-11,.cls-12,.cls-13,.cls-14,.cls-15,.cls-16,.cls-17,.cls-18,.cls-19,.cls-20,.cls-21,.cls-22,.cls-23,.cls-24,.cls-25,.cls-26,.cls-27,.cls-29,.cls-30,.cls-31,.cls-32,.cls-33,.cls-34,.cls-35{stroke-width:8px;}.cls-3{stroke:url(#_新規パターンスウォッチ_3-32);}.cls-4{stroke:url(#_新規パターンスウォッチ_3-12);}.cls-5{stroke:url(#_新規パターンスウォッチ_3-33);}.cls-36{fill:#bbe1e7;}.cls-37{fill:#f2f9fd;stroke:#bbe1e7;stroke-width:.75px;}.cls-6{stroke:url(#_新規パターンスウォッチ_3-19);}.cls-38{fill:#f2bfd7;}.cls-7{stroke:url(#_新規パターンスウォッチ_3-25);}.cls-39{fill:#5ca6bb;}.cls-8{stroke:url(#_新規パターンスウォッチ_3-11);}.cls-9{stroke:url(#_新規パターンスウォッチ_3-17);}.cls-10{stroke:url(#_新規パターンスウォッチ_3-22);}.cls-11{stroke:url(#_新規パターンスウォッチ_3-5);}.cls-12{stroke:url(#_新規パターンスウォッチ_3-27);}.cls-40{fill:#edaecb;}.cls-13{stroke:url(#_新規パターンスウォッチ_3-18);}.cls-14{stroke:url(#_新規パターンスウォッチ_3-30);}.cls-15{stroke:url(#_新規パターンスウォッチ_3-20);}.cls-16{stroke:url(#_新規パターンスウォッチ_3-3);}.cls-17{stroke:url(#_新規パターンスウォッチ_3-14);}.cls-18{stroke:url(#_新規パターンスウォッチ_3-34);}.cls-19{stroke:url(#_新規パターンスウォッチ_3-21);}.cls-20{stroke:url(#_新規パターンスウォッチ_3-10);}.cls-21{stroke:url(#_新規パターンスウォッチ_3-4);}.cls-41{fill:#deeee8;}.cls-22{stroke:url(#_新規パターンスウォッチ_3-16);}.cls-23{stroke:url(#_新規パターンスウォッチ_3-15);}.cls-24{stroke:url(#_新規パターンスウォッチ_3-9);}.cls-25{stroke:url(#_新規パターンスウォッチ_3-29);}.cls-26{stroke:url(#_新規パターンスウォッチ_3-23);}.cls-27{stroke:url(#_新規パターンスウォッチ_3-26);}.cls-42{fill:#eec55b;}.cls-29{stroke:url(#_新規パターンスウォッチ_3-24);}.cls-30{stroke:url(#_新規パターンスウォッチ_3-31);}.cls-31{stroke:url(#_新規パターンスウォッチ_3-8);}.cls-43{fill:#f7d15f;}.cls-32{stroke:url(#_新規パターンスウォッチ_3-7);}.cls-33{stroke:url(#_新規パターンスウォッチ_3-2);}.cls-34{stroke:url(#_新規パターンスウォッチ_3-28);}.cls-35{stroke:url(#_新規パターンスウォッチ_3-6);}</style><pattern id="_新規パターンスウォッチ_3" x="0" y="0" width="30.78" height="26.28" patternTransform="translate(-2823.33 971.81) rotate(5.99) scale(1.16)" patternUnits="userSpaceOnUse" viewBox="0 0 30.78 26.28"><g><rect class="cls-28" width="30.78" height="26.28"/><rect class="cls-41" width="30.78" height="26.28"/></g></pattern><pattern id="_新規パターンスウォッチ_3-2" patternTransform="translate(-2841.3 955.84) rotate(5.99) scale(1.16)" xlink:href="#_新規パターンスウォッチ_3"/><pattern id="_新規パターンスウォッチ_3-3" patternTransform="translate(-2841.3 955.84) rotate(5.99) scale(1.16)" xlink:href="#_新規パターンスウォッチ_3"/><pattern id="_新規パターンスウォッチ_3-4" patternTransform="translate(-2841.3 955.84) rotate(5.99) scale(1.16)" xlink:href="#_新規パターンスウォッチ_3"/><pattern id="_新規パターンスウォッチ_3-5" patternTransform="translate(-2841.3 955.84) rotate(5.99) scale(1.16)" xlink:href="#_新規パターンスウォッチ_3"/><pattern id="_新規パターンスウォッチ_3-6" patternTransform="translate(-2841.3 955.84) rotate(5.99) scale(1.16)" xlink:href="#_新規パターンスウォッチ_3"/><pattern id="_新規パターンスウォッチ_3-7" patternTransform="translate(-2841.3 955.84) rotate(5.99) scale(1.16)" xlink:href="#_新規パターンスウォッチ_3"/><pattern id="_新規パターンスウォッチ_3-8" patternTransform="translate(-2841.3 955.84) rotate(5.99) scale(1.16)" xlink:href="#_新規パターンスウォッチ_3"/><pattern id="_新規パターンスウォッチ_3-9" patternTransform="translate(-2841.3 955.84) rotate(5.99) scale(1.16)" xlink:href="#_新規パターンスウォッチ_3"/><pattern id="_新規パターンスウォッチ_3-10" patternTransform="translate(-2841.3 955.84) rotate(5.99) scale(1.16)" xlink:href="#_新規パターンスウォッチ_3"/><pattern id="_新規パターンスウォッチ_3-11" patternTransform="translate(-2841.3 955.84) rotate(5.99) scale(1.16)" xlink:href="#_新規パターンスウォッチ_3"/><pattern id="_新規パターンスウォッチ_3-12" patternTransform="translate(-2841.3 955.84) rotate(5.99) scale(1.16)" xlink:href="#_新規パターンスウォッチ_3"/><pattern id="_新規パターンスウォッチ_3-13" patternTransform="translate(-2841.3 955.84) rotate(5.99) scale(1.16)" xlink:href="#_新規パターンスウォッチ_3"/><pattern id="_新規パターンスウォッチ_3-14" patternTransform="translate(-2841.3 955.84) rotate(5.99) scale(1.16)" xlink:href="#_新規パターンスウォッチ_3"/><pattern id="_新規パターンスウォッチ_3-15" patternTransform="translate(-2841.3 955.84) rotate(5.99) scale(1.16)" xlink:href="#_新規パターンスウォッチ_3"/><pattern id="_新規パターンスウォッチ_3-16" patternTransform="translate(-2841.3 955.84) rotate(5.99) scale(1.16)" xlink:href="#_新規パターンスウォッチ_3"/><pattern id="_新規パターンスウォッチ_3-17" patternTransform="translate(-2841.3 955.84) rotate(5.99) scale(1.16)" xlink:href="#_新規パターンスウォッチ_3"/><pattern id="_新規パターンスウォッチ_3-18" patternTransform="translate(-2841.3 955.84) rotate(5.99) scale(1.16)" xlink:href="#_新規パターンスウォッチ_3"/><pattern id="_新規パターンスウォッチ_3-19" patternTransform="translate(-2841.3 955.84) rotate(5.99) scale(1.16)" xlink:href="#_新規パターンスウォッチ_3"/><pattern id="_新規パターンスウォッチ_3-20" patternTransform="translate(-2841.3 955.84) rotate(5.99) scale(1.16)" xlink:href="#_新規パターンスウォッチ_3"/><pattern id="_新規パターンスウォッチ_3-21" patternTransform="translate(-2841.3 955.84) rotate(5.99) scale(1.16)" xlink:href="#_新規パターンスウォッチ_3"/><pattern id="_新規パターンスウォッチ_3-22" patternTransform="translate(-2841.3 955.84) rotate(5.99) scale(1.16)" xlink:href="#_新規パターンスウォッチ_3"/><pattern id="_新規パターンスウォッチ_3-23" patternTransform="translate(-2841.3 955.84) rotate(5.99) scale(1.16)" xlink:href="#_新規パターンスウォッチ_3"/><pattern id="_新規パターンスウォッチ_3-24" patternTransform="translate(-2841.3 955.84) rotate(5.99) scale(1.16)" xlink:href="#_新規パターンスウォッチ_3"/><pattern id="_新規パターンスウォッチ_3-25" patternTransform="translate(-2841.3 955.84) rotate(5.99) scale(1.16)" xlink:href="#_新規パターンスウォッチ_3"/><pattern id="_新規パターンスウォッチ_3-26" patternTransform="translate(-2841.3 955.84) rotate(5.99) scale(1.16)" xlink:href="#_新規パターンスウォッチ_3"/><pattern id="_新規パターンスウォッチ_3-27" patternTransform="translate(-2841.3 955.84) rotate(5.99) scale(1.16)" xlink:href="#_新規パターンスウォッチ_3"/><pattern id="_新規パターンスウォッチ_3-28" patternTransform="translate(-2841.3 955.84) rotate(5.99) scale(1.16)" xlink:href="#_新規パターンスウォッチ_3"/><pattern id="_新規パターンスウォッチ_3-29" patternTransform="translate(-2841.3 955.84) rotate(5.99) scale(1.16)" xlink:href="#_新規パターンスウォッチ_3"/><pattern id="_新規パターンスウォッチ_3-30" patternTransform="translate(-2841.3 955.84) rotate(5.99) scale(1.16)" xlink:href="#_新規パターンスウォッチ_3"/><pattern id="_新規パターンスウォッチ_3-31" patternTransform="translate(-2841.3 955.84) rotate(5.99) scale(1.16)" xlink:href="#_新規パターンスウォッチ_3"/><pattern id="_新規パターンスウォッチ_3-32" patternTransform="translate(-2841.3 955.84) rotate(5.99) scale(1.16)" xlink:href="#_新規パターンスウォッチ_3"/><pattern id="_新規パターンスウォッチ_3-33" patternTransform="translate(-2841.3 955.84) rotate(5.99) scale(1.16)" xlink:href="#_新規パターンスウォッチ_3"/><pattern id="_新規パターンスウォッチ_3-34" patternTransform="translate(-2841.3 955.84) rotate(5.99) scale(1.16)" xlink:href="#_新規パターンスウォッチ_3"/></defs><g id="_スタンプラリー"><g id="_地球儀"><polygon class="cls-1" points="42.04 135.79 106.54 135.97 126.1 77.61 48.99 69.52 42.04 135.79"/><g><g><path class="cls-33" d="M144.34,17.53l-11.04-14.28c-.73-.95-2.1-1.13-3.05-.39s-1.13,2.1-.39,3.05l.81,1.04-29.73,22.98C80.83,10.09,48.66,7.67,25.7,25.42,.66,44.77-3.94,80.75,15.41,105.79c19.35,25.03,55.33,29.64,80.36,10.29,22.96-17.75,28.72-49.49,14.58-73.94l29.73-22.98,.81,1.04c.73,.95,2.1,1.13,3.05,.39,.95-.73,1.13-2.1,.39-3.05Z"/><path class="cls-16" d="M140.66,.03c1.82,.47,8.72,9.28,8.65,11.19-.08,1.97-6.89,3.85-6.89,3.85l-7.22-9.34S138.75-.46,140.66,.03Z"/><path class="cls-21" d="M122.07,22.35c.81-1.87,1.35-4.91,1.21-6.96-.03-.49,.46-.84,.9-.63,1.83,.87,4.66,1.52,6.81,1.29,.51-.05,.86,.45,.65,.91-.92,1.95-1.23,4.86-1.03,6.88,.05,.48-.44,.83-.89,.63-1.92-.85-4.98-1.41-7-1.25-.49,.04-.83-.44-.64-.89Z"/><path class="cls-11" d="M109.99,31.7c.81-1.87,1.35-4.91,1.21-6.96-.03-.49,.46-.84,.9-.63,1.83,.87,4.66,1.52,6.81,1.29,.51-.05,.86,.45,.65,.91-.92,1.95-1.23,4.86-1.03,6.88,.05,.48-.44,.83-.89,.63-1.92-.85-4.98-1.41-7-1.25-.49,.04-.83-.44-.64-.89Z"/><path class="cls-35" d="M12.14,120.13L.71,105.33c-1.14-1.48-.87-3.61,.61-4.75h0c1.48-1.14,3.61-.87,4.75,.61l11.43,14.79c1.14,1.48,.87,3.61-.61,4.75h0c-1.48,1.14-3.61,.87-4.75-.61Z"/><path class="cls-32" d="M115.39,40.3l-11.43-14.79c-1.14-1.48-.87-3.61,.61-4.75h0c1.48-1.14,3.61-.87,4.75,.61l11.43,14.79c1.14,1.48,.87,3.61-.61,4.75h0c-1.48,1.14-3.61,.87-4.75-.61Z"/><path class="cls-31" d="M57.86,144.5c-18-1.89-35.23-10.83-47.15-26.25l5.35-4.13c20.87,26.99,59.8,31.98,86.8,11.11,13.08-10.11,21.43-24.7,23.53-41.1,2.1-16.39-2.31-32.62-12.42-45.7l5.35-4.13c11.21,14.51,16.1,32.51,13.78,50.69-2.33,18.18-11.6,34.37-26.1,45.59-14.52,11.23-32.17,15.71-49.12,13.93Z"/><polygon class="cls-24" points="62.71 149.64 49.99 148.3 50.72 141.29 63.44 142.62 62.71 149.64"/><circle class="cls-20" cx="55.31" cy="158.86" r="12.24"/><path class="cls-8" d="M81.09,175.09c-12.5,.55-41.26-2.46-54.37-5.71-3.26-.81-1.95-13.23,1.4-13.37,12.57-.55,42.46,2.7,54.37,5.71,3.26,.82,1.95,13.23-1.4,13.37Z"/><path class="cls-4" d="M66.04,20.14c-12.5-2.08-25.72,2.03-36.53,10.42C8.36,46.96,3.56,77.48,18.73,99.54c16.7,24.29,50.11,29.28,73.12,11.5,7.97-6.16,13.88-15.45,17.02-24.17,.91-2.52-2.34-4.43-4.06-2.37-7.73,9.24-14.94,15.15-22.13,17.56s-21.52,5-29.19-2.62c-6.72-6.69-8.44-17.54-9.59-23.87-1.95-10.76,7.51-17.48,18.44-20.27,18.02-4.59,27.53,4.43,32.6-11.53,3.82-11.99-14.32-21.18-28.93-23.62Z"/><path class="cls-2" d="M76.5,68c-.4,3.81-1.94,7.99-7.63,6.18-3.65-1.16-6.98-1.72-7.76-5.71-.73-3.76,5.39-7.74,9.21-8.1,4.39-.42,6.58,3.82,6.18,7.63Z"/><path class="cls-17" d="M19.12,72.16c-.4,3.38-4.68,6.12-4.51-1.03,.49-20.43,10.5-30.02,18.16-36.91,2.81-2.53,3.6-.29,1.49,1.54-8.04,6.98-12.4,13.45-15.14,36.4Z"/><path class="cls-23" d="M39.23,31.41c.28,.94,1.69-.43,3.2-.43,1.97,0,3.15-.86,2.73-1.74-.41-.85-2.14-1.98-3.31-.87-1.44,1.37-2.9,2.11-2.63,3.04Z"/><polygon class="cls-22" points="120.2 39.84 116.75 42.25 114.99 39.75 118.44 37.33 120.2 39.84"/><polygon class="cls-9" points="108.07 126.47 105.27 123.32 107.56 121.29 110.35 124.43 108.07 126.47"/><polygon class="cls-13" points="19.95 118.75 16.83 121.58 14.77 119.31 17.89 116.48 19.95 118.75"/><polygon class="cls-6" points="130.32 86.37 126.15 85.81 126.55 82.78 130.72 83.33 130.32 86.37"/><polygon class="cls-15" points="60.42 138.01 59.97 142.2 56.93 141.87 57.37 137.69 60.42 138.01"/><polygon class="cls-19" points="36.96 131.45 36.04 133.34 34.5 132.55 35.43 130.66 36.96 131.45"/><polygon class="cls-10" points="47.16 135.6 46.53 137.61 44.89 137.06 45.52 135.05 47.16 135.6"/><polygon class="cls-26" points="27.95 125.88 26.71 127.59 25.33 126.54 26.57 124.84 27.95 125.88"/><polygon class="cls-29" points="85.13 134.84 85.84 136.82 84.2 137.37 83.49 135.39 85.13 134.84"/><polygon class="cls-7" points="72.23 137.75 72.48 139.84 70.76 140.01 70.51 137.92 72.23 137.75"/><polygon class="cls-27" points="97.23 129.15 98.3 130.96 96.8 131.82 95.73 130.01 97.23 129.15"/><polygon class="cls-12" points="120.7 103.3 122.6 104.2 121.83 105.74 119.93 104.84 120.7 103.3"/><polygon class="cls-34" points="114.8 113.03 116.5 114.27 115.46 115.64 113.76 114.4 114.8 113.03"/><polygon class="cls-25" points="124.29 94.05 126.31 94.64 125.79 96.29 123.77 95.69 124.29 94.05"/><polygon class="cls-14" points="125.04 61.08 127.07 60.52 127.49 62.19 125.46 62.75 125.04 61.08"/><polygon class="cls-30" points="126.73 71.6 128.83 71.43 128.94 73.15 126.84 73.33 126.73 71.6"/><polygon class="cls-3" points="121.31 50.47 123.22 49.6 123.91 51.18 121.99 52.06 121.31 50.47"/><path class="cls-5" d="M36,87.4c1.3-3.01,2.17-7.9,1.94-11.19-.05-.79,.73-1.35,1.44-1.01,2.94,1.41,7.5,2.44,10.95,2.08,.82-.09,1.39,.72,1.04,1.47-1.49,3.15-1.97,7.82-1.65,11.08,.08,.78-.71,1.34-1.43,1.02-3.09-1.37-8.02-2.26-11.27-2.01-.79,.06-1.34-.71-1.03-1.43Z"/><path class="cls-18" d="M24,96.38c.81-1.87,1.35-4.91,1.21-6.96-.03-.49,.46-.84,.9-.63,1.83,.87,4.66,1.52,6.81,1.29,.51-.05,.86,.45,.65,.91-.92,1.95-1.23,4.86-1.03,6.88,.05,.48-.44,.83-.89,.63-1.92-.85-4.98-1.41-7-1.25-.49,.04-.83-.44-.64-.89Z"/></g><g><path class="cls-37" d="M144.34,17.53l-11.04-14.28c-.73-.95-2.1-1.13-3.05-.39s-1.13,2.1-.39,3.05l.81,1.04-29.73,22.98C80.83,10.09,48.66,7.67,25.7,25.42,.66,44.77-3.94,80.75,15.41,105.79c19.35,25.03,55.33,29.64,80.36,10.29,22.96-17.75,28.72-49.49,14.58-73.94l29.73-22.98,.81,1.04c.73,.95,2.1,1.13,3.05,.39,.95-.73,1.13-2.1,.39-3.05Z"/><path class="cls-39" d="M140.66,.03c1.82,.47,8.72,9.28,8.65,11.19-.08,1.97-6.89,3.85-6.89,3.85l-7.22-9.34S138.75-.46,140.66,.03Z"/><path class="cls-36" d="M122.07,22.35c.81-1.87,1.35-4.91,1.21-6.96-.03-.49,.46-.84,.9-.63,1.83,.87,4.66,1.52,6.81,1.29,.51-.05,.86,.45,.65,.91-.92,1.95-1.23,4.86-1.03,6.88,.05,.48-.44,.83-.89,.63-1.92-.85-4.98-1.41-7-1.25-.49,.04-.83-.44-.64-.89Z"/><path class="cls-36" d="M109.99,31.7c.81-1.87,1.35-4.91,1.21-6.96-.03-.49,.46-.84,.9-.63,1.83,.87,4.66,1.52,6.81,1.29,.51-.05,.86,.45,.65,.91-.92,1.95-1.23,4.86-1.03,6.88,.05,.48-.44,.83-.89,.63-1.92-.85-4.98-1.41-7-1.25-.49,.04-.83-.44-.64-.89Z"/><rect class="cls-43" x="5.72" y="97.92" width="6.78" height="25.47" rx="3.39" ry="3.39" transform="translate(-65.77 28.68) rotate(-37.7)"/><rect class="cls-43" x="108.97" y="18.1" width="6.78" height="25.47" rx="3.39" ry="3.39" transform="translate(4.61 75.15) rotate(-37.7)"/><path class="cls-43" d="M57.86,144.5c-18-1.89-35.23-10.83-47.15-26.25l5.35-4.13c20.87,26.99,59.8,31.98,86.8,11.11,13.08-10.11,21.43-24.7,23.53-41.1,2.1-16.39-2.31-32.62-12.42-45.7l5.35-4.13c11.21,14.51,16.1,32.51,13.78,50.69-2.33,18.18-11.6,34.37-26.1,45.59-14.52,11.23-32.17,15.71-49.12,13.93Z"/><rect class="cls-43" x="53.19" y="139.07" width="7.05" height="12.79" transform="translate(-93.87 186.68) rotate(-84.01)"/><circle class="cls-43" cx="55.31" cy="158.86" r="12.24"/><path class="cls-43" d="M81.09,175.09c-12.5,.55-41.26-2.46-54.37-5.71-3.26-.81-1.95-13.23,1.4-13.37,12.57-.55,42.46,2.7,54.37,5.71,3.26,.82,1.95,13.23-1.4,13.37Z"/><path class="cls-38" d="M66.04,20.14c-12.5-2.08-25.72,2.03-36.53,10.42C8.36,46.96,3.56,77.48,18.73,99.54c16.7,24.29,50.11,29.28,73.12,11.5,7.97-6.16,13.88-15.45,17.02-24.17,.91-2.52-2.34-4.43-4.06-2.37-7.73,9.24-14.94,15.15-22.13,17.56s-21.52,5-29.19-2.62c-6.72-6.69-8.44-17.54-9.59-23.87-1.95-10.76,7.51-17.48,18.44-20.27,18.02-4.59,27.53,4.43,32.6-11.53,3.82-11.99-14.32-21.18-28.93-23.62Z"/><path class="cls-38" d="M76.5,68c-.4,3.81-1.94,7.99-7.63,6.18-3.65-1.16-6.98-1.72-7.76-5.71-.73-3.76,5.39-7.74,9.21-8.1,4.39-.42,6.58,3.82,6.18,7.63Z"/><path class="cls-40" d="M19.12,72.16c-.4,3.38-4.68,6.12-4.51-1.03,.49-20.43,10.5-30.02,18.16-36.91,2.81-2.53,3.6-.29,1.49,1.54-8.04,6.98-12.4,13.45-15.14,36.4Z"/><path class="cls-40" d="M39.23,31.41c.28,.94,1.69-.43,3.2-.43,1.97,0,3.15-.86,2.73-1.74-.41-.85-2.14-1.98-3.31-.87-1.44,1.37-2.9,2.11-2.63,3.04Z"/><rect class="cls-42" x="115.49" y="38.26" width="4.21" height="3.06" transform="translate(-1.55 74.66) rotate(-35.01)"/><rect class="cls-42" x="106.28" y="121.77" width="3.06" height="4.21" transform="translate(-55.07 102.95) rotate(-41.64)"/><rect class="cls-42" x="15.26" y="117.5" width="4.21" height="3.06" transform="translate(-75.4 42.45) rotate(-42.16)"/><rect class="cls-42" x="126.91" y="82.47" width="3.06" height="4.21" transform="translate(27.76 200.82) rotate(-82.47)"/><rect class="cls-42" x="56.57" y="138.41" width="4.21" height="3.06" transform="translate(-86.72 183.38) rotate(-83.89)"/><polygon class="cls-42" points="36.96 131.45 36.04 133.34 34.5 132.55 35.43 130.66 36.96 131.45"/><polygon class="cls-42" points="47.16 135.6 46.53 137.61 44.89 137.06 45.52 135.05 47.16 135.6"/><polygon class="cls-42" points="27.95 125.88 26.71 127.59 25.33 126.54 26.57 124.84 27.95 125.88"/><polygon class="cls-42" points="85.13 134.84 85.84 136.82 84.2 137.37 83.49 135.39 85.13 134.84"/><polygon class="cls-42" points="72.23 137.75 72.48 139.84 70.76 140.01 70.51 137.92 72.23 137.75"/><polygon class="cls-42" points="97.23 129.15 98.3 130.96 96.8 131.82 95.73 130.01 97.23 129.15"/><polygon class="cls-42" points="120.7 103.3 122.6 104.2 121.83 105.74 119.93 104.84 120.7 103.3"/><polygon class="cls-42" points="114.8 113.03 116.5 114.27 115.46 115.64 113.76 114.4 114.8 113.03"/><polygon class="cls-42" points="124.29 94.05 126.31 94.64 125.79 96.29 123.77 95.69 124.29 94.05"/><polygon class="cls-42" points="125.04 61.08 127.07 60.52 127.49 62.19 125.46 62.75 125.04 61.08"/><polygon class="cls-42" points="126.73 71.6 128.83 71.43 128.94 73.15 126.84 73.33 126.73 71.6"/><polygon class="cls-42" points="121.31 50.47 123.22 49.6 123.91 51.18 121.99 52.06 121.31 50.47"/><path class="cls-36" d="M36,87.4c1.3-3.01,2.17-7.9,1.94-11.19-.05-.79,.73-1.35,1.44-1.01,2.94,1.41,7.5,2.44,10.95,2.08,.82-.09,1.39,.72,1.04,1.47-1.49,3.15-1.97,7.82-1.65,11.08,.08,.78-.71,1.34-1.43,1.02-3.09-1.37-8.02-2.26-11.27-2.01-.79,.06-1.34-.71-1.03-1.43Z"/><path class="cls-36" d="M24,96.38c.81-1.87,1.35-4.91,1.21-6.96-.03-.49,.46-.84,.9-.63,1.83,.87,4.66,1.52,6.81,1.29,.51-.05,.86,.45,.65,.91-.92,1.95-1.23,4.86-1.03,6.88,.05,.48-.44,.83-.89,.63-1.92-.85-4.98-1.41-7-1.25-.49,.04-.83-.44-.64-.89Z"/></g></g></g></g></svg>