<svg xmlns="http://www.w3.org/2000/svg" viewBox="0 0 378.22 78.17"><defs><style>.cls-1{fill:#656464;}</style></defs><g id="レイヤー_2" data-name="レイヤー 2"><g id="メイン"><g id="前夕祭"><path class="cls-1" d="M0,.73H15.11v7h-6v6.61h5.66v6.63H9.06V28.6h6.65v7H0Z"/><path class="cls-1" d="M39.86.73,35.25,35.58H21.48L16.25.73H25.8q1.66,14.4,2.38,24.36Q28.89,15,29.67,7.21L30.3.73Z"/><path class="cls-1" d="M41.39.73h15.1v7h-6v6.61h5.66v6.63H50.45V28.6H57.1v7H41.39Z"/><path class="cls-1" d="M67.47.73H82.82v7H76.53v6.61h5.6v6.63h-5.6V35.58H67.47Z"/><path class="cls-1" d="M85,.73h15.11v7H94.07v6.61h5.66v6.63H94.07V28.6h6.65v7H85Z"/><path class="cls-1" d="M122.52,11.28h-8.41V8.69a5.16,5.16,0,0,0-.32-2.3,1.2,1.2,0,0,0-1.08-.49,1.36,1.36,0,0,0-1.24.67,3.83,3.83,0,0,0-.42,2,5.83,5.83,0,0,0,.47,2.63,6.87,6.87,0,0,0,2.56,2.13q6.06,3.59,7.63,5.89c1,1.54,1.57,4,1.57,7.43a12.81,12.81,0,0,1-.88,5.48,6.78,6.78,0,0,1-3.36,3,13.28,13.28,0,0,1-5.81,1.2A13,13,0,0,1,107,34.93a6.75,6.75,0,0,1-3.37-3.51,18,18,0,0,1-.8-6.05V23.09h8.42v4.24a5.69,5.69,0,0,0,.35,2.52,1.39,1.39,0,0,0,1.26.56,1.5,1.5,0,0,0,1.35-.71,4.1,4.1,0,0,0,.44-2.11q0-3.07-.84-4a27.33,27.33,0,0,0-4.24-3.17,40.85,40.85,0,0,1-4.48-3.25,7.55,7.55,0,0,1-1.82-2.79,12.41,12.41,0,0,1-.72-4.57,12.65,12.65,0,0,1,1-5.85A6.94,6.94,0,0,1,106.9,1a13.28,13.28,0,0,1,5.51-1,14.32,14.32,0,0,1,6,1.14A6.33,6.33,0,0,1,121.72,4a15.44,15.44,0,0,1,.8,5.89Z"/><path class="cls-1" d="M144.37.73v7H139V35.58h-9.06V7.7h-5.36v-7Z"/><path class="cls-1" d="M155.49.73V35.58h-9.06V.73Z"/><path class="cls-1" d="M180.67.73l-4.61,34.85H162.3L157.07.73h9.55q1.66,14.4,2.38,24.36.7-10.07,1.49-17.88l.63-6.48Z"/><path class="cls-1" d="M197.87.73l5.18,34.85h-9.26l-.49-6.27h-3.24l-.54,6.27h-9.37L184.77.73Zm-4.81,22.41q-.67-5.92-1.38-14.64-1.38,10-1.74,14.64Z"/><path class="cls-1" d="M213.65.73V28.6h5.51v7H204.59V.73Z"/><path class="cls-1" d="M57.56,77.77H39.15v-9H55a1.81,1.81,0,0,0,1.88-2v-.07a23.28,23.28,0,0,1-2.77.18H48c-7.85,0-10.5-4.12-10.5-9.06v-1.1c0-5.05,2.47-9.54,10.5-9.54h8.54c7.66,0,11.35,4.09,11.35,10.09V67.71C67.88,73,64.67,77.77,57.56,77.77Zm-.73-20.11a1,1,0,0,0-1.14-1.14H49.61c-.89,0-1.14.51-1.14.95v.41A1,1,0,0,0,49.61,59h6.08A1,1,0,0,0,56.83,58Z"/><path class="cls-1" d="M70.57,77.62v-11H81.43v11Z"/><path class="cls-1" d="M91.82,77.77V59.43a.72.72,0,0,0-.81-.81H84.23V47.79H96.68c4.16,0,6.7,2.69,6.7,6.63V77.77Z"/><path class="cls-1" d="M125.7,78h-8.84c-9.54,0-10.72-4.39-10.72-9.1V67.6a6.51,6.51,0,0,1,2.14-5,6.36,6.36,0,0,1-1.51-4.31v-2c0-6.78,2.51-8.92,9.91-8.92h9.17c9,0,10.13,4,10.13,8.92v2a6,6,0,0,1-1.58,4.27,6.48,6.48,0,0,1,2.28,5.08v1.33C136.68,74.82,134.25,78,125.7,78Zm.19-10.54c0-.37-.3-.92-1.22-.92h-6.55c-.74,0-1.18.37-1.18.92v.44a1.06,1.06,0,0,0,1.18,1h6.55c1,0,1.22-.52,1.22-1Zm-.33-10.09c0-.52-.34-.88-1-.88H118.3c-.81,0-1.1.44-1.1.88v.48c0,.48.36.77,1.1.77h6.26a.9.9,0,0,0,1-.77Z"/><path class="cls-1" d="M171.71,71.62h-8.14v6.15H152.63V47.71h19.15c6.08,0,10.2,2.95,10.2,10.94v2.4C182,67.35,178.89,71.62,171.71,71.62ZM171,59.57c0-1.8-.59-2-2.21-2h-5.19v4.12h5.19c1.58,0,2.21-.44,2.21-1.77Z"/><path class="cls-1" d="M209.05,77.77V60.24c0-2.21-.25-3-2.32-3.1V77.77h-7.84V57.14c-1.88.15-2.29,1.14-2.29,3.1V77.77H186.44V59.28c0-8.77,3.72-11.75,12.6-11.75h8c9,0,12.26,2.58,12.26,11.75V77.77Z"/><path class="cls-1" d="M230.42,77.77V59.43a.72.72,0,0,0-.81-.81h-6.78V47.79h12.45c4.16,0,6.7,2.69,6.7,6.63V77.77Z"/><path class="cls-1" d="M264.52,77.81H244.93V68h17.42c.77,0,1-.29,1-.84V67c0-.56-.3-.85-1-.85H248.76c-2.8,0-3.83-1.36-3.83-4.09V47.79h28.43v9h-17.6v.92c0,.37.26.52.66.52h8.1c7.85,0,10.1,3.24,10.1,8.77v1.73C274.62,75,271.89,77.81,264.52,77.81Z"/><path class="cls-1" d="M277.16,62.93v-11H288v11Zm0,14.69v-11H288v11Z"/><path class="cls-1" d="M308,78.17H304c-9.83,0-12.74-2.83-12.74-12.74v-5c0-10.35,3.06-13,12.63-13h4.24c9.47,0,12.6,2.65,12.6,13v5C320.77,75.34,317.82,78.17,308,78.17Zm2.72-17.75c0-2.65-1-3.39-2.54-3.39h-4.24c-1.84,0-2.65.78-2.65,3.39v5c0,2.43.67,3.09,2.76,3.09H308c1.8,0,2.72-1.06,2.72-3.09Z"/><path class="cls-1" d="M341.58,78.17h-3.94c-9.84,0-12.75-2.83-12.75-12.74v-5c0-10.35,3.06-13,12.63-13h4.24c9.47,0,12.6,2.65,12.6,13v5C354.36,75.34,351.41,78.17,341.58,78.17Zm2.72-17.75c0-2.65-1-3.39-2.54-3.39h-4.24c-1.84,0-2.65.78-2.65,3.39v5c0,2.43.67,3.09,2.77,3.09h3.94c1.8,0,2.72-1.06,2.72-3.09Z"/><path class="cls-1" d="M372.18,68.67c-3.09,0-5.82-3.28-8.21-3.28a9.42,9.42,0,0,0-5.78,2.43V57.36a8.62,8.62,0,0,1,5.74-2c3.54,0,6.15,3.28,8.29,3.28a9.71,9.71,0,0,0,6-2.51v10.5A9.52,9.52,0,0,1,372.18,68.67Z"/></g></g></g></svg>