<svg xmlns="http://www.w3.org/2000/svg" viewBox="0 0 511.81 113.02"><defs><style>.cls-1{fill:#656464;}</style></defs><g id="レイヤー_2" data-name="レイヤー 2"><g id="メイン"><g id="名電祭"><path class="cls-1" d="M111.27,76.81H99.1V73.07a7.35,7.35,0,0,0-.47-3.33A1.7,1.7,0,0,0,97.08,69a2,2,0,0,0-1.79,1,5.56,5.56,0,0,0-.61,2.93,8.37,8.37,0,0,0,.68,3.8c.44.85,1.67,1.88,3.71,3.08q8.75,5.2,11,8.53t2.27,10.74q0,5.39-1.26,7.94a9.86,9.86,0,0,1-4.87,4.28A19.17,19.17,0,0,1,97.82,113a18.76,18.76,0,0,1-9-2A9.73,9.73,0,0,1,84,106a25.91,25.91,0,0,1-1.16-8.75V93.9H95V100a8.11,8.11,0,0,0,.51,3.64,2,2,0,0,0,1.82.81,2.12,2.12,0,0,0,2-1,5.8,5.8,0,0,0,.64-3q0-4.45-1.22-5.82A38.33,38.33,0,0,0,92.56,90a60.14,60.14,0,0,1-6.48-4.7,11.07,11.07,0,0,1-2.63-4,17.91,17.91,0,0,1-1-6.6q0-5.79,1.48-8.47A10,10,0,0,1,88.67,62a19.18,19.18,0,0,1,8-1.51,20.75,20.75,0,0,1,8.7,1.65,9.13,9.13,0,0,1,4.77,4.16q1.15,2.51,1.16,8.52Z"/><path class="cls-1" d="M147.08,83.5H134V74.74a15.74,15.74,0,0,0-.42-4.77A1.8,1.8,0,0,0,131.7,69a2,2,0,0,0-2.06,1.15,17.64,17.64,0,0,0-.43,5V98.57a16.48,16.48,0,0,0,.43,4.8,1.88,1.88,0,0,0,2,1.12,1.84,1.84,0,0,0,1.91-1.12,18.43,18.43,0,0,0,.45-5.28V91.76h13.11v2q0,7.83-1.1,11.1a11.38,11.38,0,0,1-4.89,5.74,16.75,16.75,0,0,1-9.33,2.46,19.3,19.3,0,0,1-9.49-2.08,10.12,10.12,0,0,1-5-5.78q-1.21-3.69-1.22-11.1V79.33a67.38,67.38,0,0,1,.37-8.17,11.5,11.5,0,0,1,2.23-5.25,12.5,12.5,0,0,1,5.14-4,21,21,0,0,1,17.11.79,10.81,10.81,0,0,1,5,5.58q1.18,3.34,1.18,10.41Z"/><path class="cls-1" d="M181.92,61.55V112H168.81V90.79h-3.92V112H151.78V61.55h13.11v18h3.92v-18Z"/><path class="cls-1" d="M217.14,91.07c0,5.07-.12,8.65-.36,10.76a12.05,12.05,0,0,1-7.33,9.79A18.61,18.61,0,0,1,202,113a19,19,0,0,1-7.27-1.32,12.09,12.09,0,0,1-7.52-9.73,105.74,105.74,0,0,1-.38-10.9V82.45c0-5.07.12-8.65.36-10.76a12,12,0,0,1,7.33-9.79A18.45,18.45,0,0,1,202,60.49a19.06,19.06,0,0,1,7.27,1.33,12.14,12.14,0,0,1,7.52,9.73c.24,2.07.37,5.71.37,10.9ZM204,74.51a15.56,15.56,0,0,0-.39-4.5,1.54,1.54,0,0,0-1.6-1,1.77,1.77,0,0,0-1.57.79c-.37.53-.55,2.09-.55,4.69V98a23,23,0,0,0,.36,5.42,1.55,1.55,0,0,0,1.66,1,1.61,1.61,0,0,0,1.72-1.18,25,25,0,0,0,.37-5.64Z"/><path class="cls-1" d="M252,91.07c0,5.07-.12,8.65-.36,10.76a12.05,12.05,0,0,1-7.33,9.79,18.61,18.61,0,0,1-7.47,1.4,19,19,0,0,1-7.27-1.32A12.09,12.09,0,0,1,222,102a105.74,105.74,0,0,1-.38-10.9V82.45c0-5.07.12-8.65.36-10.76a12,12,0,0,1,7.33-9.79,18.45,18.45,0,0,1,7.48-1.41,19,19,0,0,1,7.27,1.33,12.14,12.14,0,0,1,7.52,9.73,106.44,106.44,0,0,1,.37,10.9ZM238.87,74.51a15.56,15.56,0,0,0-.39-4.5,1.54,1.54,0,0,0-1.6-1,1.77,1.77,0,0,0-1.57.79c-.37.53-.55,2.09-.55,4.69V98a23,23,0,0,0,.36,5.42,1.56,1.56,0,0,0,1.67,1,1.61,1.61,0,0,0,1.71-1.18,25,25,0,0,0,.37-5.64Z"/><path class="cls-1" d="M270,61.55v40.32h8V112H256.87V61.55Z"/><path class="cls-1" d="M292.36,61.55h22.2V71.64h-9.09V81.2h8.1v9.59h-8.1V112H292.36Z"/><path class="cls-1" d="M317.74,61.55H339.6V71.64h-8.75V81.2H339v9.59h-8.19v11.08h9.62V112H317.74Z"/><path class="cls-1" d="M372,76.81H359.84V73.07a7.35,7.35,0,0,0-.47-3.33,1.71,1.71,0,0,0-1.56-.71A2,2,0,0,0,356,70a5.67,5.67,0,0,0-.6,2.93,8.24,8.24,0,0,0,.68,3.8c.43.85,1.67,1.88,3.7,3.08q8.76,5.2,11,8.53t2.27,10.74q0,5.39-1.26,7.94a9.9,9.9,0,0,1-4.87,4.28,19.17,19.17,0,0,1-8.41,1.73,18.76,18.76,0,0,1-9-2A9.79,9.79,0,0,1,344.7,106a26.21,26.21,0,0,1-1.15-8.75V93.9h12.18V100a8.11,8.11,0,0,0,.51,3.64,2,2,0,0,0,1.82.81,2.14,2.14,0,0,0,1.95-1,5.9,5.9,0,0,0,.64-3q0-4.45-1.22-5.82A38.83,38.83,0,0,0,353.3,90a60.14,60.14,0,0,1-6.48-4.7,10.94,10.94,0,0,1-2.63-4,17.91,17.91,0,0,1-1-6.6q0-5.79,1.48-8.47A10,10,0,0,1,349.41,62a19.14,19.14,0,0,1,8-1.51,20.78,20.78,0,0,1,8.7,1.65,9.07,9.07,0,0,1,4.76,4.16Q372,68.81,372,74.82Z"/><path class="cls-1" d="M403.61,61.55V71.64h-7.78V112H382.72V71.64H375V61.55Z"/><path class="cls-1" d="M419.71,61.55V112H406.6V61.55Z"/><path class="cls-1" d="M456.14,61.55,449.47,112H429.56L422,61.55h13.83q2.42,20.83,3.44,35.25,1-14.58,2.16-25.87l.91-9.38Z"/><path class="cls-1" d="M481,61.55l7.5,50.41h-13.4l-.7-9.06h-4.69l-.79,9.06H455.38l6.69-50.41ZM474.06,94q-1-8.56-2-21.18-2,14.49-2.52,21.18Z"/><path class="cls-1" d="M503.84,61.55v40.32h8V112H490.74V61.55Z"/><path class="cls-1" d="M25.63,1.06l7.5,50.41H19.73L19,42.41H14.34l-.79,9.06H0L6.69,1.06ZM18.69,33.47q-1-8.56-2-21.17-2,14.47-2.52,21.17Z"/><path class="cls-1" d="M48.46,1.06V51.47H35.36V1.06Z"/><path class="cls-1" d="M80.13,1.06V11.15H72.35V51.47H59.24V11.15H51.48V1.06Z"/><path class="cls-1" d="M134.81,1.06V51.47H123.35l0-34-4.56,34h-8.13l-4.81-33.25V51.47H94.36V1.06h17q.75,4.55,1.56,10.72l1.86,12.82,3-23.54Z"/><path class="cls-1" d="M140.07,1.06h21.86V11.15h-8.75v9.56h8.18V30.3h-8.18V41.38h9.62V51.47H140.07Z"/><path class="cls-1" d="M179.67,1.06V51.47H166.56V1.06Z"/><path class="cls-1" d="M184.94,1.06h9.8q9.49,0,12.85.87a9.89,9.89,0,0,1,5.09,2.86,9.1,9.1,0,0,1,2.18,4.44,67.46,67.46,0,0,1,.43,9.61V36.49c0,4.53-.21,7.55-.63,9.08a6.87,6.87,0,0,1-2.23,3.58,9.27,9.27,0,0,1-3.92,1.8,34.88,34.88,0,0,1-7,.52H184.94ZM198,9.68V42.84c1.89,0,3.06-.37,3.49-1.13s.65-2.82.65-6.18V15.94a27.36,27.36,0,0,0-.21-4.39,2.13,2.13,0,0,0-1-1.42A6.48,6.48,0,0,0,198,9.68Z"/><path class="cls-1" d="M220.18,1.06H242V11.15h-8.75v9.56h8.19V30.3h-8.19V41.38h9.62V51.47H220.18Z"/><path class="cls-1" d="M276,1.06V51.47H264.46l-6.82-22.92V51.47h-11V1.06h11L265,23.76V1.06Z"/><path class="cls-1" d="M322.59,1.06V51.47H309.48V30.3h-3.92V51.47H292.45V1.06h13.11v18h3.92v-18Z"/><path class="cls-1" d="M335.85,41.19V51.47h-9.49V41.19Z"/><path class="cls-1" d="M367.4,16.32H355.22V12.58a7.2,7.2,0,0,0-.47-3.33,1.71,1.71,0,0,0-1.55-.72,2,2,0,0,0-1.79,1,5.54,5.54,0,0,0-.61,2.93,8.37,8.37,0,0,0,.68,3.8c.44.85,1.67,1.88,3.71,3.08q8.74,5.19,11,8.53t2.28,10.74q0,5.39-1.27,7.94a9.86,9.86,0,0,1-4.87,4.28,19.3,19.3,0,0,1-8.4,1.73,18.8,18.8,0,0,1-9-2,9.76,9.76,0,0,1-4.87-5.07,26,26,0,0,1-1.15-8.75v-3.3h12.17v6.13a8,8,0,0,0,.52,3.65,2,2,0,0,0,1.82.81,2.13,2.13,0,0,0,1.94-1,5.82,5.82,0,0,0,.64-3q0-4.45-1.21-5.83a39.26,39.26,0,0,0-6.14-4.57,61.13,61.13,0,0,1-6.47-4.7,11,11,0,0,1-2.63-4.05,17.72,17.72,0,0,1-1.05-6.6c0-3.86.5-6.69,1.48-8.47a10,10,0,0,1,4.78-4.19,19,19,0,0,1,8-1.51,20.71,20.71,0,0,1,8.7,1.65,9.13,9.13,0,0,1,4.77,4.16q1.17,2.51,1.17,8.51Z"/><path class="cls-1" d="M380.6,41.19V51.47h-9.5V41.19Z"/></g></g></g></svg>