<?xml version="1.0" encoding="UTF-8"?><svg id="_レイヤー_2" xmlns="http://www.w3.org/2000/svg" viewBox="0 0 190.65 701.46"><defs><style>.cls-1{fill:#f7c5af;}.cls-2{fill:#3e3a39;}.cls-3{fill:#eb6519;}</style></defs><g id="_前夕祭"><g id="_旗"><rect class="cls-3" x="-96.89" y="123.29" width="365.77" height="131.68" transform="translate(283.6 124.96) rotate(96.46)"/><path class="cls-1" d="M111.68,701.46h-8.95L181.33,7.19c.28-2.44,2.48-4.2,4.92-3.92h0c2.44,.28,4.2,2.48,3.92,4.92"/><rect class="cls-3" x="161.57" y="24.13" width="35.51" height="18.78" transform="translate(232.8 -140.9) rotate(96.46)"/><rect class="cls-3" x="124.41" y="352.29" width="35.51" height="18.78" transform="translate(517.54 261.1) rotate(96.46)"/><rect class="cls-3" x="142.99" y="188.21" width="35.51" height="18.78" transform="translate(375.17 60.1) rotate(96.46)"/><rect class="cls-3" x="133.7" y="270.25" width="35.51" height="18.78" transform="translate(446.36 160.6) rotate(96.46)"/><rect class="cls-3" x="152.28" y="106.17" width="35.51" height="18.78" transform="translate(303.98 -40.4) rotate(96.46)"/><g><path class="cls-2" d="M129.9,67.2l13.27,1.54-.8,25.91-18.43-2.14-.04-1.41c-2.76,.38-5.86,.32-9.25,.13-.27,.57-.63,1.13-.89,1.6l25.96,3.02-1.9,16.34c-1.59,2.43-3.25,4.64-5.29,6.61,1.87,.32,3.85,.55,6.14,.71l-2.27,19.52c-11.79-1.37-20.82-4.03-28.04-7.58-8.54,1.82-18.72,2.14-30.91,.72l2.21-19.02c2.77,.32,5.16,.5,7.57,.48-.51-.76-1.13-1.54-1.64-2.3-1.84,.29-3.78,.56-5.8,.63l2.58-22.19c3.38,.29,6.33-.07,8.29-1.35l-8.02-.93,1.08-9.31c-2.71,6.01-6.03,11.25-9.94,15.51l6.34,.74-4.38,37.64-23.97-2.79,2.63-22.59c-2.5,.81-5.2,1.5-7.95,1.89l3.36-28.93c4.05-.33,7.33-2.56,9.92-5.88-3.06,1.25-6.16,2-9.41,2.32l3.24-27.84c4.38-.5,7.7-4.02,8.53-11.16l28.43,3.3c-1.87,8.32-5.62,15.51-10.51,21.27l5.85,.68,1.22-10.5,12.65-10.38,23.97,2.79-12.7,10.77,1.58,.18,8.34-6.96,26.55,3.09-17.6,15.83Zm-42.37,.9c-.17,.58-.32,1.07-.48,1.55l4.85,.56,1.67-1.41-6.04-.7Zm10.8,39.21c-1.07,.58-2.13,1.06-3.28,1.43l11.89,1.38c1.05-.38,2.01-.87,2.98-1.46l-11.59-1.35Zm27.15-38.31l-5.94,5.33c1.92-.08,3.94-.25,5.78-.53l.16-4.8Z"/><path class="cls-2" d="M90.71,229.82c-7.75,1.91-16.75,2.47-27.16,1.26l2.69-23.18c1.49,.17,2.78,.22,4.07,.37-.5-1.76-.8-3.51-1.08-5.35-.82,.11-1.64,.31-2.45,.32l2.88-24.77c-1.94,5.5-4.84,10.58-8.69,15.15l5.05,.59-4.26,36.65-25.96-3.02,2.13-18.33c-1.05,.38-2.21,.85-3.44,1.11l3.88-33.38c4.5-1.58,8.61-6.73,9.5-14.36l24.86,2.89c-.35,2.97-.88,5.82-1.71,8.64,3.67-.48,6.36-3.78,6.86-8.04l53.2,6.18-2.44,21c-1.81,6.92-5.25,14.05-10.69,20.24,2.86,.43,5.93,.79,9.4,1.19l-2.69,23.18c-13.77-1.6-25.21-4.24-33.97-8.37Zm-50.35-69.51l2.65-22.79,32.49,3.78,.29-2.48,27.64,3.21-.29,2.48,32,3.72-2.65,22.79-92.13-10.71Zm48.86,40.92l-3.62-4.24c-2.06,1.27-4.2,2.42-6.5,3.26l9.71,1.13c.95,1.32,1.93,2.43,3.3,3.6,1.8-.79,3.42-1.81,4.85-2.85l-7.73-.9Zm4.73-11.3c-.71,.92-1.51,1.73-2.29,2.44l9.61,1.12,1.86,2.12c.98-1.49,1.74-2.91,2.31-4.35l-11.49-1.34Z"/><path class="cls-2" d="M45.24,328.15l-24.87-2.89c3.16-4.75,5.95-14.07,6.47-18.53l23.38,2.72c-1.72,8.74-3.02,14.71-4.99,18.7Zm69.5-25.25l-1.42,12.18-26.35-3.06-.78,6.74c-1.11,9.51-6.51,14.5-17.8,13.19l-18.72-2.18,2.23-19.22,6.34,.74c.89,.1,1.83-.19,1.96-1.28l.13-1.09-33.98-3.95,1.24-10.7c-.82,.1-1.73,.2-2.63,.19l3.08-26.45c1.51-.03,2.83-.17,4.15-.32l-1.4-3.48c-.73,.22-1.54,.32-2.36,.43l2.45-21.1c5.17-.4,11.62-4.07,14.05-7.7l26.25,3.05c-.16,.48-.4,.86-.65,1.23l22.39,2.6c-.26,3.99,.32,7.57,1.35,10.8l1.22-10.5,27.94,3.25-2.22,19.12-6.04,8.74c1.7,.9,3.42,1.7,5.13,2.5l-3.14,27.04c-.78-.19-1.64-.59-2.42-.78Zm-71.18-43.22c-.86,.5-1.82,.99-2.87,1.37l1.85,3.93c1.05-.38,2.01-.87,2.97-1.36l-1.95-3.94Zm47.74,25.53l-.33,2.87-37.55-4.37,.31-2.68c-2.26,1.34-4.6,2.48-7.03,3.5l51.81,6.02c-2.52-1.6-4.93-3.38-7.21-5.36Zm-38.86-31.93l2.04,4.05c1.03-1.09,2.07-2.27,2.91-3.48l-4.95-.58Zm22.39,9.53c-.95,1.29-2.02,2.68-3.17,3.95l5.35,.62c-.83-1.5-1.56-2.99-2.18-4.57Zm15.79,70.61l-1.55-19.46,23.68,2.75,1.45,19.45-23.58-2.74Zm6.95-73.59c1.03,1.53,2.17,2.96,3.43,4.21l2.52-3.52-5.94-.69Z"/></g></g></g></svg>