<?xml version="1.0" encoding="UTF-8"?><svg id="_レイヤー_2" xmlns="http://www.w3.org/2000/svg" viewBox="0 0 190.65 701.46"><defs><style>.cls-1{fill:#f7c5af;}.cls-2{fill:#3e3a39;}.cls-3{fill:#eb6519;}</style></defs><g id="_前夕祭"><g id="_旗"><rect class="cls-3" x="-96.89" y="123.29" width="365.77" height="131.68" transform="translate(283.6 124.96) rotate(96.46)"/><path class="cls-1" d="M111.68,701.46h-8.95L181.33,7.19c.28-2.44,2.48-4.2,4.92-3.92h0c2.44,.28,4.2,2.48,3.92,4.92"/><rect class="cls-3" x="161.57" y="24.13" width="35.51" height="18.78" transform="translate(232.8 -140.9) rotate(96.46)"/><rect class="cls-3" x="124.41" y="352.29" width="35.51" height="18.78" transform="translate(517.54 261.1) rotate(96.46)"/><rect class="cls-3" x="142.99" y="188.21" width="35.51" height="18.78" transform="translate(375.17 60.1) rotate(96.46)"/><rect class="cls-3" x="133.7" y="270.25" width="35.51" height="18.78" transform="translate(446.36 160.6) rotate(96.46)"/><rect class="cls-3" x="152.28" y="106.17" width="35.51" height="18.78" transform="translate(303.98 -40.4) rotate(96.46)"/><g><path class="cls-2" d="M73.59,128.88l1.2-10.61-4.14-.47-1.2,10.61-21.63-2.45,7.09-62.67,46.8,5.3-7.09,62.67-21.02-2.38ZM52.66,60.59l2.78-24.56,10.61,1.2c-.23-1.56-.48-3.02-.93-4.4l26.18,2.96c.28,1.16,.52,2.62,.63,4.37l20.32,2.3,1.29-4.15,26.58,3.01-1.29,4.15,10.92,1.24-2.78,24.56-94.3-10.68Zm24.06,40.7l-4.14-.47-.46,4.04,4.14,.47,.46-4.04Zm1.89-16.68l-4.14-.47-.39,3.44,4.14,.47,.39-3.44Zm43.61,49.78l-16.78-1.9,1.73-15.26-8.39-.95,5.37-47.41,17.08,1.93-4.22,37.3,.3,.03c1.42,.16,2.23-.67,2.37-1.98l3.97-35.07,21.53,2.44-4.99,44.07c-1.51,13.34-6.55,18.09-17.97,16.8Z"/><path class="cls-2" d="M33.92,226.97l3.22-28.4c10.21,1.16,20.93,.53,31.06-2.21l-8.91-10.84c-6.67,2.83-13.85,4.78-21.31,5.57l3.47-30.63c14.53-2.65,26.01-13.64,27.46-24.63l32.04,3.63c-.68,2.38-1.56,4.74-2.64,7.07l39.62,4.49-3.12,27.59c-15.54,33.25-53.89,53.69-100.89,48.36Zm47.17-55.88c-3.1,2.93-6.36,5.52-9.89,7.79l17.69,2,3.46,3.77c4.04-3.13,7.63-6.82,10.57-11.09l-21.83-2.47Z"/><path class="cls-2" d="M47.09,329.5l-25.37-2.87c3.21-4.86,6.03-14.36,6.54-18.91l23.85,2.7c-1.73,8.92-3.03,15.01-5.03,19.09Zm70.81-25.97l-1.41,12.43-26.89-3.04-.78,6.87c-1.1,9.7-6.59,14.81-18.11,13.51l-19.1-2.16,2.22-19.61,6.47,.73c.91,.1,1.87-.2,1.99-1.31l.13-1.11-34.67-3.93,1.24-10.92c-.83,.11-1.76,.21-2.69,.21l3.06-26.99c1.54-.03,2.89-.18,4.24-.34l-1.44-3.54c-.74,.22-1.57,.33-2.41,.44l2.44-21.53c5.27-.43,11.84-4.19,14.31-7.9l26.78,3.03c-.16,.49-.41,.87-.65,1.26l22.84,2.59c-.26,4.07,.35,7.72,1.41,11.01l1.21-10.71,28.5,3.23-2.21,19.51-6.13,8.93c1.74,.91,3.49,1.73,5.24,2.54l-3.12,27.59c-.8-.19-1.67-.6-2.47-.79Zm-72.73-43.86c-.88,.52-1.86,1.02-2.92,1.41l1.9,4c1.07-.39,2.05-.89,3.03-1.4l-2-4.02Zm48.77,25.89l-.33,2.93-38.31-4.34,.31-2.73c-2.31,1.38-4.69,2.54-7.16,3.59l52.86,5.99c-2.58-1.62-5.04-3.44-7.37-5.44Zm-39.73-32.45l2.09,4.13c1.05-1.11,2.11-2.32,2.96-3.56l-5.05-.57Zm22.86,9.65c-.97,1.32-2.05,2.74-3.22,4.04l5.46,.62c-.85-1.53-1.6-3.05-2.24-4.66Zm16.32,71.97l-1.64-19.84,24.16,2.74,1.54,19.83-24.06-2.72Zm6.86-75.08c1.05,1.55,2.22,3.02,3.51,4.29l2.56-3.6-6.07-.69Z"/></g></g></g></svg>