<?xml version="1.0" encoding="UTF-8"?><svg id="_イヤー_2" xmlns="http://www.w3.org/2000/svg" viewBox="0 0 39.96 38.83"><defs><style>.cls-1{fill:#656464;}</style></defs><g id="map"><path class="cls-1" d="M38.83,18.38H1.13c-1.05,0-1.54-1.31-.74-1.99L19.25,.27c.42-.36,1.05-.36,1.47,0l18.85,16.12c.8,.68,.32,1.99-.74,1.99Z"/><path class="cls-1" d="M6.24,18.1v17.95c0,1.53,1.24,2.77,2.77,2.77H30.95c1.53,0,2.77-1.24,2.77-2.77V18.1H6.24Zm15.1,14.93c-4.35,.96-8.13-2.82-7.17-7.17,.49-2.19,2.25-3.96,4.44-4.45,4.35-.97,8.14,2.82,7.17,7.17-.49,2.19-2.25,3.96-4.44,4.44Z"/></g></svg>