<?xml version="1.0" encoding="UTF-8"?><svg id="_レイヤー_2" xmlns="http://www.w3.org/2000/svg" viewBox="0 0 682.43 336.56"><defs><style>.cls-1{fill:#5e5c5c;}.cls-2{fill:none;stroke:#5e5c5c;stroke-linecap:round;stroke-miterlimit:10;}.cls-3{fill:#ef8871;}.cls-4{fill:#f2f9fd;}.cls-5{fill:#f7d15f;}.cls-6{fill:#231815;}</style></defs><g id="map"><g id="_説明"><rect class="cls-6" x="9.07" y="3.1" width="13.97" height="42.91"/><g><path class="cls-5" d="M12.06,158.81c-6.1,0-11.06-4.96-11.06-11.06v-55.01c0-6.1,4.96-11.06,11.06-11.06H368.33c.34,0,.67,.18,.85,.47s.2,.66,.05,.97l-18.17,37.12,18.17,37.12c.15,.31,.13,.68-.05,.97-.18,.29-.5,.47-.85,.47H12.06Z"/><path class="cls-4" d="M368.33,82.68l-18.38,37.56,18.38,37.56H12.06c-5.56,0-10.06-4.5-10.06-10.06v-55.01c0-5.56,4.5-10.06,10.06-10.06H368.33m0-2H12.06c-6.65,0-12.06,5.41-12.06,12.06v55.01c0,6.65,5.41,12.06,12.06,12.06H368.33c.69,0,1.33-.36,1.7-.94,.37-.59,.4-1.32,.1-1.94l-17.95-36.69,17.95-36.69c.3-.62,.27-1.35-.1-1.94-.37-.59-1.01-.94-1.7-.94h0Z"/></g><g><path class="cls-1" d="M22.1,187.63v2.22H7.8v-2.22h14.3Zm-1.25,16.21v11.46H11.89v1.83h-2.3v-13.29h11.26Zm-.12-10.76v2.14H9.63v-2.14h11.1Zm-11.11,7.52v-2.14h11.11v2.14H9.62Zm6.69-18.74v1.42h-7.15v-1.42h7.15Zm2.2,24.19h-6.63v7.02h6.63v-7.02Zm12.86-3.31c-.04,.27-.31,.43-.78,.51-.62,5.73-1.99,10.95-7.91,13.87-.31-.62-1.05-1.56-1.68-2.03,5.34-2.46,6.59-7.05,7.02-12.71l3.35,.35h0Zm5.81,10.38c0,1.01,.16,1.17,1.05,1.17h2.77c.97,0,1.17-.78,1.25-6.2,.54,.43,1.6,.82,2.26,1.05-.2,6.04-.82,7.52-3.24,7.52h-3.39c-2.57,0-3.2-.82-3.2-3.55v-11.73h-10.76v-12.98h18.63v12.98h-5.07c-.08,.04-.2,.08-.31,.08v11.65h.01Zm-10.02-31.99c1.33,1.95,2.57,4.56,3.08,6.31-1.29,.55-1.87,.74-2.45,.94-.47-1.75-1.72-4.48-2.96-6.47l2.34-.78h0Zm-.7,9.63v8.34h13.44v-8.34h-13.44Zm15.78-8.73c-.08,.23-.39,.35-.78,.31-.82,1.79-2.1,4.36-3.2,6.04-.47-.2-1.6-.7-2.1-.9,.97-1.75,2.26-4.64,2.92-6.59l3.16,1.13h0Z"/><path class="cls-1" d="M61.22,206.88h-10.33v3.74h-2.45v-27.2h12.78s0,23.46,0,23.46Zm-2.45-21.05h-7.87v7.91h7.87v-7.91Zm-7.87,18.63h7.87v-8.3h-7.87v8.3Zm30.83-21.79v30.87c0,1.75-.43,2.61-1.64,3.04s-3.35,.51-6.78,.51c-.12-.74-.58-1.87-.97-2.61,1.32,.04,2.61,.08,3.66,.08,2.85,0,3.16,0,3.16-1.01v-9.08h-12.16c-.9,4.72-2.92,9.47-7.41,12.94-.39-.51-1.37-1.44-1.95-1.79,6.74-5.18,7.41-12.71,7.41-18.9v-14.03h16.68v-.02Zm-14.11,14.03c0,1.68-.08,3.47-.27,5.34h11.81v-7.33h-11.54v1.99Zm11.54-11.58h-11.54v7.17h11.54v-7.17Z"/><path class="cls-1" d="M121.78,190.32h-7.02c1.01,.35,1.29,.43,1.56,.55-.12,.27-.43,.39-.97,.39-2.26,6.39-5.34,11.46-9.43,15.55,4.4,3.66,9.82,6.35,16.33,7.83-.62,.62-1.44,1.79-1.87,2.61-6.66-1.71-12.12-4.56-16.6-8.5-4.4,3.7-9.82,6.43-16.45,8.46-.27-.66-1.01-1.75-1.52-2.38,6.39-1.83,11.69-4.4,15.98-7.95-4.21-4.33-7.41-9.7-9.71-16.06l1.6-.51h-7.52v-2.57h16.33v-6.82l3.47,.23c-.04,.27-.27,.47-.78,.54v6.04h16.6v2.59Zm-27.01,0c2.03,5.69,5.07,10.64,9.16,14.65,3.86-3.86,6.78-8.65,8.85-14.65,0,0-18.01,0-18.01,0Z"/></g><line class="cls-2" x1="7.8" y1="227.34" x2="681.93" y2="227.34"/><line class="cls-2" x1="7.8" y1="281.7" x2="681.93" y2="281.7"/><line class="cls-2" x1="7.8" y1="336.06" x2="681.93" y2="336.06"/><path class="cls-3" d="M221.37,14.57c0-8.05-6.52-14.57-14.57-14.57s-14.57,6.52-14.57,14.57c0,4.18,1.77,7.94,4.6,10.6h-.02l9.99,20.27,9.98-20.27h0c2.82-2.66,4.6-6.42,4.6-10.6h0Zm-14.57,6.99c-3.76,0-6.8-3.05-6.8-6.8s3.05-6.8,6.8-6.8,6.8,3.05,6.8,6.8-3.05,6.8-6.8,6.8Z"/></g></g></svg>