<?xml version="1.0" encoding="UTF-8"?><svg id="_レイヤー_2" xmlns="http://www.w3.org/2000/svg" viewBox="0 0 514.01 281.89"><defs><style>.cls-1{fill:#78bbcf;}.cls-2{fill:#4d4e4f;}.cls-3{fill:none;stroke:#5e5c5c;stroke-linecap:round;stroke-miterlimit:10;}.cls-4{fill:#f2f9fd;}.cls-5{fill:#f7d15f;}</style></defs><g id="map"><g id="_引き出しタブ"><rect class="cls-1" x="261.42" y="0" width="213.83" height="17.97" rx="8.98" ry="8.98"/></g><g id="_説明"><rect class="cls-2" x="64.6" y="1.97" width="13.97" height="42.91"/><g><path class="cls-5" d="M12.06,154.18c-6.1,0-11.06-4.96-11.06-11.06v-55.01c0-6.1,4.96-11.06,11.06-11.06h499.95c.34,0,.67,.18,.85,.47,.18,.29,.2,.66,.05,.97l-18.17,37.12,18.17,37.12c.15,.31,.13,.68-.05,.97-.18,.29-.5,.47-.85,.47H12.06Z"/><path class="cls-4" d="M512.01,78.05l-18.38,37.56,18.38,37.56H12.06c-5.56,0-10.06-4.5-10.06-10.06v-55.01c0-5.56,4.5-10.06,10.06-10.06h499.95m0-2H12.06c-6.65,0-12.06,5.41-12.06,12.06v55.01c0,6.65,5.41,12.06,12.06,12.06h499.95c.69,0,1.33-.36,1.7-.94,.37-.59,.4-1.32,.1-1.94l-17.95-36.69,17.95-36.69c.3-.62,.27-1.35-.1-1.94-.37-.59-1.01-.94-1.7-.94h0Z"/></g><line class="cls-3" x1="29.02" y1="209.15" x2="357.9" y2="209.15"/><line class="cls-3" x1="29.02" y1="245.27" x2="357.9" y2="245.27"/><line class="cls-3" x1="29.02" y1="281.39" x2="357.9" y2="281.39"/></g></g></svg>