<?xml version="1.0" encoding="UTF-8"?><svg id="_レイヤー_2" xmlns="http://www.w3.org/2000/svg" viewBox="0 0 682.43 336.56"><defs><style>.cls-1{fill:#86bd41;}.cls-2{fill:#040000;}.cls-3{fill:#5e5c5c;}.cls-4{fill:#752b72;}.cls-5{fill:#7fae33;}.cls-6{isolation:isolate;opacity:.15;}.cls-7{fill:none;stroke:#5e5c5c;stroke-linecap:round;stroke-miterlimit:10;}.cls-8{fill:#656464;}.cls-9{fill:#ef8871;}.cls-10{fill:#f2f9fd;}.cls-11{fill:#f7d15f;}.cls-12{fill:#231815;}</style></defs><g id="map"><g id="_説明"><g><path class="cls-8" d="M60.84,46.01h-8.21c-10.9,0-16.42-4.8-16.42-14.05v-8.52h15.7v6.45c0,1.7,.77,2.22,2.43,2.22h3.05c2.74,0,4.08-.72,4.08-4.03V3.87h15.85V29.33c0,10.33-5.73,16.68-16.47,16.68Z"/><path class="cls-8" d="M107.88,30.67h-10.64v1.96h25.3v13.37h-41.15V20.19h24.32c1.39,0,1.91-.57,1.91-1.39v-.21c0-.88-.67-1.29-1.91-1.29h-24.32V3.97h26.49c11.26,0,15.75,5.06,15.75,13.74v.93c0,6.35-3.36,12.03-15.75,12.03Z"/><path class="cls-8" d="M153.73,46.01v-6.35h-10.23v6.35h-14.72V20.29c0-12.81,2.94-17.2,16.58-17.2h5.73c13.63,0,17.25,4.39,17.25,17.2v25.72h-14.61Zm0-25.72c0-2.69-.41-3.46-2.79-3.46h-4.7c-2.32,0-2.74,.77-2.74,3.46v5.94h10.23v-5.94Z"/></g><rect class="cls-12" x="9.07" y="3.1" width="13.97" height="42.91"/><g><path class="cls-11" d="M12.06,158.81c-6.1,0-11.06-4.96-11.06-11.06v-55.01c0-6.1,4.96-11.06,11.06-11.06H368.33c.34,0,.67,.18,.85,.47,.18,.29,.2,.66,.05,.97l-18.17,37.12,18.17,37.12c.15,.31,.13,.68-.05,.97-.18,.29-.5,.47-.85,.47H12.06Z"/><path class="cls-10" d="M368.33,82.68l-18.38,37.56,18.38,37.56H12.06c-5.56,0-10.06-4.5-10.06-10.06v-55.01c0-5.56,4.5-10.06,10.06-10.06H368.33m0-2H12.06c-6.65,0-12.06,5.41-12.06,12.06v55.01c0,6.65,5.41,12.06,12.06,12.06H368.33c.69,0,1.33-.36,1.7-.94,.37-.59,.4-1.32,.1-1.94l-17.95-36.69,17.95-36.69c.3-.62,.27-1.35-.1-1.94-.37-.59-1.01-.94-1.7-.94h0Z"/></g><g><path class="cls-8" d="M62.52,140.34c-1.6,2.74-4.54,3.98-9.76,3.98h-9.81v-4.39l-1.34,.67,.36,2.27h-5.22l-1.14-7.95v9.4h-11.67v-1.45h-4.13c.41-4.6,.52-10.48,.52-14.2h3.62v-.83h-3.87v-10.64l2.48-2.94h-2.48v-11.57l5.11-6.45h12.45l-4.75,5.89h9.45v-5.58h24.68v12.81h1.19v8.98h-8.21c.21,.31,.41,.62,.62,.88h4.03c0,.72,.05,1.39,.1,2.01l3.46-2.07v8.16l-1.6,.98c.46,.72,1.03,1.24,1.6,1.55v14.46c-2.27-.98-4.13-2.32-5.68-3.98Zm-28.35-25.56l-2.32,2.74h.67c.77,0,1.45-.1,2.12-.31l-.46-2.43Zm17.61,13.22l-10.33,5.32v-5.47h-5.84v.83h3.98l1.86,11.15v-5.58l10.38-5.47c0-.26-.05-.52-.05-.77Zm-8.99-23.75l-5.78,7.02h2.84l1.03,5.22v-5.94h12.86v-.93h-11.41v-4.49h11.41v-.77l.16-.1h-11.1Zm-1.5,14.1l1.03,5.37v-4.44l2.63-.93h-3.67Zm8.42,3.87l-6.97,3.46,.16,.83,7.23-3.67c-.16-.21-.31-.41-.41-.62Zm-2.32,15.34h2.43c1.45,0,1.91-.26,2.07-2.38l-4.49,2.38Z"/><path class="cls-8" d="M72.8,143.64v-46.58h45.91v46.58h-45.91Zm31.24-33.82h-16.58v4.85h16.58v-4.85Zm0,16.42h-16.58v4.75h16.58v-4.75Z"/><path class="cls-8" d="M160.06,133.94v-19.62c0-2.17-.67-3.3-2.01-3.3h-.46c.78,2.43,1.03,5.42,1.03,8.98v11.98c0,6.87-2.48,11.41-10.48,11.41h-6.45v-14.51h1.86c1.14,0,1.7-.41,1.7-1.86v-6.97c0-1.19-.62-1.5-1.5-1.5h-2.63l-1.6,24.84h-13.89l1.6-24.84h-3.46v-15.13h4.44l.36-5.73h13.89l-.36,5.73h1.34c6.46,0,10.28,1.45,12.45,4.29v-9.14h2.68c9.19,0,13.43,5.73,13.43,13.89v21.48h-11.93Z"/><path class="cls-8" d="M194.09,110.85v3.05h12.03v11.72h-12.03v.77c0,2.58,.67,3.36,3.3,3.36h7.13c2.22,0,3.25-1.08,3.25-3.36v-12.5h14.2v11c0,14.15-5.83,18.49-17.25,18.49h-7.75c-13.06,0-17.4-6.71-17.4-17.5v-.26h-4.18v-11.72h4.18v-3.05h-4.18v-11.67h4.18v-1.65h14.51v1.65h28.92v11.67h-28.92Z"/><path class="cls-8" d="M258.33,129.19c-6.4,0-11.98-4.54-16.32-4.54-4.7,0-9.24,1.96-11.36,3.36v-16.58c3.82-1.76,7.02-2.48,11.36-2.48,7.23,0,12.45,4.54,16.21,4.54,4.65,0,9.81-2.01,12.08-3.51v16.63c-3.77,1.7-7.54,2.58-11.98,2.58Z"/><g><path class="cls-4" d="M329.7,124.64c-7.61-9.07-19.44-10.29-30.46-21.04-6.66-6.49-18.44,6.37-15.2,12.52,4.29,8.13,14.13,23.81,23.05,30.69,18.94,14.63,37.97-3.87,22.61-22.17Z"/><g class="cls-6"><path class="cls-2" d="M286.51,118.11c2.17-2.62,1.58-6.91,1.58-6.91,0,0,1.64,2.01,4.19,2.03l.19-4.42s3.76-.14,7.04-3.83l-11.13-.35-3.92,6.34,2.05,7.14Z"/></g><path class="cls-5" d="M287.43,102.77l-.93,1.65c-2.43-1.66-5.78-6.03-2.37-12.08l1.46,.99c-3.09,5.5,1.35,9.1,1.84,9.43Z"/><path class="cls-5" d="M293.72,106.49c3.81,.42,7.31-2.54,7.31-2.54,0,0-2.69-3.63-6.5-4.05-3.81-.42-7.09,.72-7.31,2.54-.22,1.82,2.69,3.64,6.51,4.06Z"/><path class="cls-5" d="M281.59,110.49c-.48,3.94,1.97,7.45,1.97,7.45,0,0,3.22-2.89,3.7-6.83,.48-3.94-.4-7.28-1.96-7.45-1.56-.17-3.22,2.89-3.7,6.83Z"/><path class="cls-1" d="M285.18,108.25c2.53,3.53,7.87,3.52,7.87,3.52,0,0,1.23-5.72-1.3-9.25-2.53-3.53-6.06-5.1-7.87-3.52-1.81,1.58-1.23,5.72,1.3,9.25Z"/></g></g><g><path class="cls-3" d="M22.1,187.63v2.22H7.8v-2.22h14.3Zm-1.25,16.21v11.46H11.89v1.83h-2.3v-13.29h11.26Zm-.12-10.76v2.14H9.63v-2.14h11.11Zm-11.11,7.52v-2.14h11.11v2.14H9.63Zm6.69-18.74v1.42h-7.15v-1.42h7.15Zm2.2,24.19h-6.63v7.02h6.63v-7.02Zm12.86-3.31c-.04,.27-.31,.43-.78,.51-.62,5.73-1.99,10.95-7.91,13.87-.31-.62-1.05-1.56-1.68-2.03,5.34-2.46,6.59-7.05,7.02-12.71l3.35,.35Zm5.81,10.37c0,1.01,.16,1.17,1.05,1.17h2.77c.97,0,1.17-.78,1.25-6.2,.54,.43,1.6,.82,2.26,1.05-.2,6.04-.82,7.52-3.24,7.52h-3.39c-2.57,0-3.2-.82-3.2-3.55v-11.73h-10.76v-12.98h18.63v12.98h-5.07c-.08,.04-.2,.08-.31,.08v11.65Zm-10.02-32c1.33,1.95,2.57,4.56,3.08,6.31-1.29,.55-1.87,.74-2.45,.94-.47-1.75-1.72-4.48-2.96-6.47l2.34-.78Zm-.7,9.63v8.34h13.44v-8.34h-13.44Zm15.78-8.73c-.08,.23-.39,.35-.78,.31-.82,1.79-2.1,4.36-3.2,6.04-.47-.2-1.6-.7-2.1-.9,.97-1.75,2.26-4.64,2.92-6.59l3.16,1.13Z"/><path class="cls-3" d="M61.22,206.88h-10.33v3.74h-2.45v-27.2h12.78v23.46Zm-2.45-21.05h-7.87v7.91h7.87v-7.91Zm-7.87,18.63h7.87v-8.3h-7.87v8.3Zm30.83-21.79v30.87c0,1.75-.43,2.61-1.64,3.04s-3.35,.51-6.78,.51c-.12-.74-.58-1.87-.97-2.61,1.32,.04,2.61,.08,3.66,.08,2.85,0,3.16,0,3.16-1.01v-9.08h-12.16c-.9,4.72-2.92,9.47-7.41,12.94-.39-.51-1.37-1.44-1.95-1.79,6.74-5.18,7.41-12.71,7.41-18.9v-14.03h16.68Zm-14.11,14.03c0,1.68-.08,3.47-.27,5.34h11.81v-7.33h-11.54v1.99Zm11.54-11.58h-11.54v7.17h11.54v-7.17Z"/><path class="cls-3" d="M121.78,190.32h-7.02c1.01,.35,1.29,.43,1.56,.55-.12,.27-.43,.39-.97,.39-2.26,6.39-5.34,11.46-9.43,15.55,4.4,3.66,9.82,6.35,16.33,7.83-.62,.62-1.44,1.79-1.87,2.61-6.66-1.71-12.12-4.56-16.6-8.5-4.4,3.7-9.82,6.43-16.45,8.46-.27-.66-1.01-1.75-1.52-2.38,6.39-1.83,11.69-4.4,15.98-7.95-4.21-4.33-7.41-9.7-9.71-16.06l1.6-.51h-7.52v-2.57h16.33v-6.82l3.47,.23c-.04,.27-.27,.47-.78,.54v6.04h16.6v2.57Zm-27.01,0c2.03,5.69,5.07,10.64,9.16,14.65,3.86-3.86,6.78-8.65,8.85-14.65h-18.01Z"/></g><line class="cls-7" x1="7.8" y1="227.34" x2="681.93" y2="227.34"/><line class="cls-7" x1="7.8" y1="281.7" x2="681.93" y2="281.7"/><line class="cls-7" x1="7.8" y1="336.06" x2="681.93" y2="336.06"/><path class="cls-9" d="M221.37,14.57c0-8.05-6.52-14.57-14.57-14.57s-14.57,6.52-14.57,14.57c0,4.18,1.77,7.94,4.6,10.6h-.02l9.99,20.27,9.98-20.27h0c2.82-2.66,4.6-6.42,4.6-10.6Zm-14.57,6.99c-3.76,0-6.8-3.05-6.8-6.8s3.05-6.8,6.8-6.8,6.8,3.05,6.8,6.8-3.05,6.8-6.8,6.8Z"/><g><path class="cls-3" d="M449.79,145.59h-34.67v-16.88h30.51c1.36,0,1.75-.52,1.75-1.56v-.71c0-.71-.45-1.49-1.75-1.49h-30.32v-11.95h29.93c.91,0,1.56-.52,1.56-1.49v-.45c0-.97-.45-1.62-1.62-1.62h-29.6v-16.75h33.95c11.62,0,16.88,4.93,16.88,13.83v4.28c0,2.92-1.04,5.65-3.05,7.79,2.86,2.34,4.09,5.45,4.09,8.76v3.64c0,12.79-6.69,14.61-17.66,14.61Z"/><path class="cls-3" d="M497.83,110.01c-3.96,0-4.74,1.36-4.74,5v.52h29.67v15.19h-29.67v14.8h-19.35v-30.19c0-15.32,6.43-22.79,20.06-22.79h30.51v17.46h-26.49Z"/></g></g></g></svg>