<svg xmlns="http://www.w3.org/2000/svg" viewBox="0 0 325.88 501.83"><defs><style>.cls-1{fill:#eaead3;}.cls-2{fill:#d1c2a3;}.cls-3{fill:#514e4e;}.cls-4{fill:none;stroke:#d1c2a3;stroke-miterlimit:10;stroke-width:8.97px;}</style></defs><g id="レイヤー_2" data-name="レイヤー 2"><g id="校長挨拶"><g id="校長写真"><rect class="cls-1" x="7.66" y="4.49" width="311.17" height="415.91"/><path class="cls-2" d="M314.35,9V415.91H12.15V9h302.2m9-9H3.18V424.88H323.32V0Z"/></g><g id="ベルト"><polygon class="cls-3" points="315.25 426.66 0 362.84 0 315.09 325.27 380.92 325.08 426.66 315.25 426.66"/><polygon class="cls-3" points="73.38 426.66 325.88 374.53 325.88 326.77 0.61 392.6 0.8 426.66 73.38 426.66"/><polygon class="cls-3" points="100.18 476.67 98.9 347.23 145.72 347.23 147 476.67 122.95 501.83 100.18 476.67"/><rect class="cls-4" x="148.09" y="342.62" width="36.08" height="60.61" transform="translate(78.05 -25.72) rotate(11.55)"/><circle class="cls-2" cx="208.51" cy="381.58" r="7.22"/><circle class="cls-2" cx="231.73" cy="386.33" r="7.22"/></g></g></g></svg>