<?xml version="1.0" encoding="UTF-8"?><svg id="_イヤー_2" xmlns="http://www.w3.org/2000/svg" xmlns:xlink="http://www.w3.org/1999/xlink" viewBox="0 0 124.73 183.84"><defs><style>.cls-1,.cls-2,.cls-3,.cls-4,.cls-5,.cls-6,.cls-7,.cls-8,.cls-9,.cls-10,.cls-11,.cls-12,.cls-13,.cls-14,.cls-15,.cls-16,.cls-17,.cls-18,.cls-19,.cls-20,.cls-21,.cls-22,.cls-23,.cls-24,.cls-25,.cls-26,.cls-27,.cls-28,.cls-29,.cls-30,.cls-31,.cls-32,.cls-33,.cls-34,.cls-35,.cls-36,.cls-37{fill:none;}.cls-2{stroke:url(#_規パターンスウォッチ_3-11);}.cls-2,.cls-3,.cls-4,.cls-5,.cls-6,.cls-7,.cls-8,.cls-9,.cls-10,.cls-11,.cls-12,.cls-13,.cls-14,.cls-15,.cls-16,.cls-17,.cls-18,.cls-19,.cls-20,.cls-21,.cls-22,.cls-23,.cls-30,.cls-31,.cls-32,.cls-33,.cls-34,.cls-35,.cls-36,.cls-37{stroke-linejoin:round;stroke-width:8px;}.cls-3{stroke:url(#_規パターンスウォッチ_3-13);}.cls-4{stroke:url(#_規パターンスウォッチ_3-14);}.cls-5{stroke:url(#_規パターンスウォッチ_3-18);}.cls-6{stroke:url(#_規パターンスウォッチ_3-12);}.cls-7{stroke:url(#_規パターンスウォッチ_3-15);}.cls-8{stroke:url(#_規パターンスウォッチ_3-10);}.cls-9{stroke:url(#_規パターンスウォッチ_3-19);}.cls-10{stroke:url(#_規パターンスウォッチ_3-17);}.cls-11{stroke:url(#_規パターンスウォッチ_3-16);}.cls-12{stroke:url(#_規パターンスウォッチ_3-24);}.cls-13{stroke:url(#_規パターンスウォッチ_3-27);}.cls-14{stroke:url(#_規パターンスウォッチ_3-28);}.cls-15{stroke:url(#_規パターンスウォッチ_3-21);}.cls-16{stroke:url(#_規パターンスウォッチ_3-20);}.cls-17{stroke:url(#_規パターンスウォッチ_3-31);}.cls-18{stroke:url(#_規パターンスウォッチ_3-30);}.cls-19{stroke:url(#_規パターンスウォッチ_3-25);}.cls-20{stroke:url(#_規パターンスウォッチ_3-26);}.cls-21{stroke:url(#_規パターンスウォッチ_3-22);}.cls-22{stroke:url(#_規パターンスウォッチ_3-23);}.cls-23{stroke:url(#_規パターンスウォッチ_3-29);}.cls-38{fill:url(#_規パターンスウォッチ_3);}.cls-39{fill:#f7d15f;}.cls-40{fill:#eec55b;}.cls-41{fill:#edaecb;}.cls-42{fill:#96ae56;}.cls-43{fill:#b7dce3;}.cls-44{fill:#b2ce65;}.cls-45{fill:#c7cdd1;}.cls-46{fill:#dce3e7;}.cls-47{fill:#deeee8;}.cls-48{fill:#78bbcf;}.cls-24{stroke:#eec55b;}.cls-24,.cls-25,.cls-26,.cls-27{stroke-linecap:round;}.cls-24,.cls-25,.cls-26,.cls-27,.cls-28,.cls-29{stroke-miterlimit:10;}.cls-25{stroke-width:.5px;}.cls-25,.cls-26{stroke:#78bbcf;}.cls-26,.cls-27,.cls-28{stroke-width:1.56px;}.cls-27{stroke:#dce3e7;}.cls-28{stroke:#f2bfd7;}.cls-29{stroke:#f7d15f;stroke-width:3.11px;}.cls-30{stroke:url(#_規パターンスウォッチ_3-3);}.cls-31{stroke:url(#_規パターンスウォッチ_3-5);}.cls-32{stroke:url(#_規パターンスウォッチ_3-4);}.cls-33{stroke:url(#_規パターンスウォッチ_3-9);}.cls-34{stroke:url(#_規パターンスウォッチ_3-8);}.cls-35{stroke:url(#_規パターンスウォッチ_3-7);}.cls-36{stroke:url(#_規パターンスウォッチ_3-6);}.cls-37{stroke:url(#_規パターンスウォッチ_3-2);}</style><pattern id="_規パターンスウォッチ_3" x="0" y="0" width="30.78" height="26.28" patternTransform="translate(-3544.06 -500.04) rotate(5.5)" patternUnits="userSpaceOnUse" viewBox="0 0 30.78 26.28"><g><rect class="cls-1" width="30.78" height="26.28"/><rect class="cls-47" width="30.78" height="26.28"/></g></pattern><pattern id="_規パターンスウォッチ_3-2" patternTransform="translate(-3534.04 -495.74) rotate(5.5)" xlink:href="#_規パターンスウォッチ_3"/><pattern id="_規パターンスウォッチ_3-3" patternTransform="translate(-3534.04 -495.74) rotate(5.5)" xlink:href="#_規パターンスウォッチ_3"/><pattern id="_規パターンスウォッチ_3-4" patternTransform="translate(-3534.04 -495.74) rotate(5.5)" xlink:href="#_規パターンスウォッチ_3"/><pattern id="_規パターンスウォッチ_3-5" patternTransform="translate(-3534.04 -495.74) rotate(5.5)" xlink:href="#_規パターンスウォッチ_3"/><pattern id="_規パターンスウォッチ_3-6" patternTransform="translate(-3534.04 -495.74) rotate(5.5)" xlink:href="#_規パターンスウォッチ_3"/><pattern id="_規パターンスウォッチ_3-7" patternTransform="translate(-3534.04 -495.74) rotate(5.5)" xlink:href="#_規パターンスウォッチ_3"/><pattern id="_規パターンスウォッチ_3-8" patternTransform="translate(-3534.04 -495.74) rotate(5.5)" xlink:href="#_規パターンスウォッチ_3"/><pattern id="_規パターンスウォッチ_3-9" patternTransform="translate(-3534.04 -495.74) rotate(5.5)" xlink:href="#_規パターンスウォッチ_3"/><pattern id="_規パターンスウォッチ_3-10" patternTransform="translate(-3534.04 -495.74) rotate(5.5)" xlink:href="#_規パターンスウォッチ_3"/><pattern id="_規パターンスウォッチ_3-11" patternTransform="translate(-3534.04 -495.74) rotate(5.5)" xlink:href="#_規パターンスウォッチ_3"/><pattern id="_規パターンスウォッチ_3-12" patternTransform="translate(-3534.04 -495.74) rotate(5.5)" xlink:href="#_規パターンスウォッチ_3"/><pattern id="_規パターンスウォッチ_3-13" patternTransform="translate(-3534.04 -495.74) rotate(5.5)" xlink:href="#_規パターンスウォッチ_3"/><pattern id="_規パターンスウォッチ_3-14" patternTransform="translate(-3534.04 -495.74) rotate(5.5)" xlink:href="#_規パターンスウォッチ_3"/><pattern id="_規パターンスウォッチ_3-15" patternTransform="translate(-3534.04 -495.74) rotate(5.5)" xlink:href="#_規パターンスウォッチ_3"/><pattern id="_規パターンスウォッチ_3-16" patternTransform="translate(-3534.04 -495.74) rotate(5.5)" xlink:href="#_規パターンスウォッチ_3"/><pattern id="_規パターンスウォッチ_3-17" patternTransform="translate(-3534.04 -495.74) rotate(5.5)" xlink:href="#_規パターンスウォッチ_3"/><pattern id="_規パターンスウォッチ_3-18" patternTransform="translate(-3534.04 -495.74) rotate(5.5)" xlink:href="#_規パターンスウォッチ_3"/><pattern id="_規パターンスウォッチ_3-19" patternTransform="translate(-3534.04 -495.74) rotate(5.5)" xlink:href="#_規パターンスウォッチ_3"/><pattern id="_規パターンスウォッチ_3-20" patternTransform="translate(-3534.04 -495.74) rotate(5.5)" xlink:href="#_規パターンスウォッチ_3"/><pattern id="_規パターンスウォッチ_3-21" patternTransform="translate(-3534.04 -495.74) rotate(5.5)" xlink:href="#_規パターンスウォッチ_3"/><pattern id="_規パターンスウォッチ_3-22" patternTransform="translate(-3534.04 -495.74) rotate(5.5)" xlink:href="#_規パターンスウォッチ_3"/><pattern id="_規パターンスウォッチ_3-23" patternTransform="translate(-3534.04 -495.74) rotate(5.5)" xlink:href="#_規パターンスウォッチ_3"/><pattern id="_規パターンスウォッチ_3-24" patternTransform="translate(-3534.04 -495.74) rotate(5.5)" xlink:href="#_規パターンスウォッチ_3"/><pattern id="_規パターンスウォッチ_3-25" patternTransform="translate(-3534.04 -495.74) rotate(5.5)" xlink:href="#_規パターンスウォッチ_3"/><pattern id="_規パターンスウォッチ_3-26" patternTransform="translate(-3534.04 -495.74) rotate(5.5)" xlink:href="#_規パターンスウォッチ_3"/><pattern id="_規パターンスウォッチ_3-27" patternTransform="translate(-3534.04 -495.74) rotate(5.5)" xlink:href="#_規パターンスウォッチ_3"/><pattern id="_規パターンスウォッチ_3-28" patternTransform="translate(-3534.04 -495.74) rotate(5.5)" xlink:href="#_規パターンスウォッチ_3"/><pattern id="_規パターンスウォッチ_3-29" patternTransform="translate(-3534.04 -495.74) rotate(5.5)" xlink:href="#_規パターンスウォッチ_3"/><pattern id="_規パターンスウォッチ_3-30" patternTransform="translate(-3534.04 -495.74) rotate(5.5)" xlink:href="#_規パターンスウォッチ_3"/><pattern id="_規パターンスウォッチ_3-31" patternTransform="translate(-3534.04 -495.74) rotate(5.5)" xlink:href="#_規パターンスウォッチ_3"/></defs><g id="_タンプラリー"><g id="_ンタン"><polygon class="cls-38" points="26.09 28.65 108.69 36.6 110.42 167.28 5.46 156.98 26.09 28.65"/><g id="_ンタン-2"><g><polygon class="cls-37" points="89.91 151.63 84.72 151.13 77.71 157.11 66.72 156.05 66.86 154.59 77.22 155.59 84.23 149.61 90.05 150.17 89.91 151.63"/><g><g><path class="cls-30" d="M66.01,66.05c-17.87-1.72-33.75,11.37-35.47,29.23-1.72,17.87,11.37,33.75,29.23,35.47,17.87,1.72,33.75-11.37,35.47-29.23,1.72-17.87-11.37-33.75-29.23-35.47Zm-3.98,41.35c-4.97-.48-8.61-4.9-8.13-9.87,.48-4.97,4.9-8.61,9.87-8.13,4.97,.48,8.61,4.9,8.13,9.87-.48,4.97-4.9,8.61-9.87,8.13Z"/><circle class="cls-32" cx="62.9" cy="98.4" r="23.31"/><line class="cls-31" x1="72.17" y1="61.45" x2="69.22" y2="92.04"/><line class="cls-36" x1="66.01" y1="66.05" x2="63.76" y2="89.4"/><line class="cls-35" x1="60.96" y1="60.38" x2="58.02" y2="90.96"/><path class="cls-34" d="M69.22,92.04c-5.73-5.14-11.2-1.08-11.2-1.08"/><path class="cls-33" d="M71.62,67.09c-5.43-2.34-11.2-1.1-11.2-1.1"/></g><g><path class="cls-8" d="M100.79,36.5l-21.14-5.38,2.02-7.93,20.65,5.26c6.68,1.7,11.45,7.58,11.74,14.46l4.61,109.35c.33,7.82-4.87,14.81-12.46,16.74l-18.85,4.79-2.01-7.93,18.56-4.71c4.02-1.02,6.77-4.72,6.6-8.86l-4.64-109.54c-.13-2.97-2.19-5.51-5.07-6.25Z"/><path class="cls-2" d="M40.1,30.65l21.78-1.25-.47-8.17-21.28,1.22c-6.88,.39-12.68,5.25-14.28,11.96L.45,140.87c-1.82,7.62,1.95,15.47,9.04,18.81l17.59,8.3,3.49-7.4-17.32-8.17c-3.75-1.77-5.75-5.93-4.78-9.96L33.93,35.81c.69-2.89,3.2-4.99,6.17-5.16Z"/><path class="cls-6" d="M64.8,150.66l-2.54-9.12c-.92-3.3-5.43-3.74-6.96-.67l-4.24,8.46c-.34,.68-1.06,1.08-1.82,1.01h0c-1.01-.1-1.91,.64-2.01,1.65l-.03,.32,2.25,.22,16.31,1.57,2.25,.22,.03-.32c.1-1.01-.64-1.91-1.65-2.01h0c-.76-.07-1.39-.6-1.59-1.34Z"/><path class="cls-3" d="M89.17,167.62h0c.28-2.91-1.34-5.44-3.62-5.66l-15.7-6.98c-.91-.41-1.87-.66-2.84-.75l-18.81-1.81c-.97-.09-1.96-.03-2.93,.2l-16.75,3.86c-2.28-.22-4.35,1.96-4.63,4.87h0c-.36,3.78-2.38,7.06-5.2,8.46l-5.92,2.94c-1.23,.61-1.04,2.87,.25,3l84.05,8.1c1.29,.12,1.91-2.06,.82-2.9l-5.24-4.02c-2.5-1.91-3.85-5.52-3.49-9.3Z"/><circle class="cls-4" cx="56.19" cy="168.02" r="7.65"/><g><path class="cls-7" d="M93.57,41.71l-49.97-4.81c-.54-.05-.7-.78-.22-1.04l3.39-1.88,.84-8.75c.08-.81,.43-1.57,.99-2.16h0c.56-.59,.91-1.35,.99-2.16l.54-5.64c.1-1.02,1.01-1.77,2.03-1.67l37.43,3.61c1.02,.1,1.77,1.01,1.67,2.03l-.54,5.64c-.08,.81,.12,1.62,.56,2.3h0c.44,.68,.64,1.5,.56,2.3l-.84,8.75,2.97,2.5c.42,.35,.13,1.03-.41,.98Z"/><path class="cls-11" d="M86.16,51.3l.98-10.21-37.1-3.57-.98,10.21c-.08,.78-.63,1.43-1.38,1.64l-5.43,1.47c-1.1,.3-1.9,1.25-2.01,2.38l-.49,5.11,53.53,5.16,.49-5.11c.11-1.13-.5-2.22-1.52-2.72l-5.05-2.48c-.7-.35-1.12-1.09-1.05-1.87Zm-4.58-6.78c1.01,.1,1.75,.99,1.65,2s-.99,1.75-2,1.65-1.75-.99-1.65-2,.99-1.75,2-1.65Zm-13.36-1.29c1.01,.1,1.75,.99,1.65,2s-.99,1.75-2,1.65-1.75-.99-1.65-2,.99-1.75,2-1.65Zm-13.36-1.29c1.01,.1,1.75,.99,1.65,2s-.99,1.75-2,1.65-1.75-.99-1.65-2,.99-1.75,2-1.65Z"/><path class="cls-10" d="M56.22,3.09l-.86,8.91c-.1,1.04,.66,1.97,1.7,2.07l27.66,2.66c1.04,.1,1.97-.66,2.07-1.7l.86-8.91-31.43-3.03Zm25.36,7.89c-.08,.82-.81,1.42-1.63,1.34l-17.37-1.67c-.82-.08-1.42-.81-1.34-1.63h0c.08-.82,.81-1.42,1.63-1.34l17.37,1.67c.82,.08,1.42,.81,1.34,1.63h0Z"/><path class="cls-5" d="M78.61,1.35L66,.14c-2.22-.21-4.46-.18-6.67,.1l-10.59,1.35c-.47,.06-.46,.74,.01,.78l46.37,4.47c.47,.05,.61-.62,.16-.77l-10.14-3.34c-2.12-.7-4.31-1.16-6.53-1.37Z"/></g><path class="cls-9" d="M86.8,164.95l18.56-4.71c4.02-1.02,6.77-4.72,6.6-8.86l-4.64-109.54c-.13-2.97-2.19-5.51-5.07-6.25l-21.14-5.38"/><path class="cls-16" d="M29.46,159.48l-17.32-8.17c-3.75-1.77-5.75-5.93-4.78-9.96L32.81,34.71c.69-2.89,3.2-4.99,6.17-5.16l21.78-1.25"/></g></g><line class="cls-15" x1="91.01" y1="38.23" x2="46.78" y2="33.97"/><g><path class="cls-21" d="M117.9,21.39l-17.73,16.06c-1.09,.99-1.17,2.67-.19,3.76l2.38,2.63c.99,1.09,2.67,1.17,3.76,.19l17.73-16.06c1.09-.99,1.17-2.67,.19-3.76l-2.38-2.63c-.99-1.09-2.67-1.17-3.76-.19Zm-5.93,12.54c-.36,.33-.92,.3-1.24-.06s-.3-.92,.06-1.24l3.3-2.99c.36-.33,.92-.3,1.24,.06s.3,.92-.06,1.24l-3.3,2.99Zm6.92-6.65c-1.51-1.03-1.41-3.24,.2-4.12,.76-.41,1.73-.36,2.44,.12,1.51,1.03,1.41,3.24-.2,4.12-.76,.41-1.73,.36-2.44-.12Z"/><polygon class="cls-22" points="104.52 44.25 99.79 39.03 101.67 37.33 106.39 42.55 104.52 44.25"/><polygon class="cls-12" points="109.38 39.84 104.66 34.62 106.54 32.92 111.26 38.14 109.38 39.84"/><line class="cls-19" x1="105.32" y1="38.77" x2="111.61" y2="33.07"/></g><path class="cls-20" d="M56.03,169.69h0c-1.18-.11-2.04-1.16-1.93-2.34l.68-7.07c.11-1.18,1.16-2.04,2.34-1.93h0c1.18,.11,2.04,1.16,1.93,2.34l-.68,7.07c-.11,1.18-1.16,2.04-2.34,1.93Z"/><g><path class="cls-13" d="M89.96,153.89c-.2-1.78,.02-4.19,.53-5.86,.25-.81,1.1-1.25,1.9-.99,1.49,.48,3.25,1.16,4.51,1.85,.45,.24,.74,.7,.77,1.2,.05,.98-.07,2.14-.3,3.09-.13,.5-.51,.89-1.01,1.05-1.38,.42-3.15,.73-4.74,.93-.8,.1-1.56-.46-1.65-1.27Z"/><polygon class="cls-14" points="89.2 152.47 89.52 149.22 90.29 149.29 89.98 152.55 89.2 152.47"/><line class="cls-23" x1="95.58" y1="149.44" x2="95.2" y2="153.42"/><line class="cls-18" x1="93.84" y1="148.79" x2="93.36" y2="153.72"/><line class="cls-17" x1="91.85" y1="149.08" x2="91.47" y2="153.06"/></g></g><g><polygon class="cls-46" points="89.91 151.63 84.72 151.13 77.71 157.11 66.72 156.05 66.86 154.59 77.22 155.59 84.23 149.61 90.05 150.17 89.91 151.63"/><g><g><path class="cls-41" d="M66.01,66.05c-17.87-1.72-33.75,11.37-35.47,29.23-1.72,17.87,11.37,33.75,29.23,35.47,17.87,1.72,33.75-11.37,35.47-29.23,1.72-17.87-11.37-33.75-29.23-35.47Zm-3.98,41.35c-4.97-.48-8.61-4.9-8.13-9.87,.48-4.97,4.9-8.61,9.87-8.13,4.97,.48,8.61,4.9,8.13,9.87-.48,4.97-4.9,8.61-9.87,8.13Z"/><circle class="cls-28" cx="62.9" cy="98.4" r="23.31"/><line class="cls-26" x1="72.17" y1="61.45" x2="69.22" y2="92.04"/><line class="cls-26" x1="66.01" y1="66.05" x2="63.76" y2="89.4"/><line class="cls-26" x1="60.96" y1="60.38" x2="58.02" y2="90.96"/><path class="cls-26" d="M69.22,92.04c-5.73-5.14-11.2-1.08-11.2-1.08"/><path class="cls-26" d="M71.62,67.09c-5.43-2.34-11.2-1.1-11.2-1.1"/></g><g><path class="cls-40" d="M100.79,36.5l-21.14-5.38,2.02-7.93,20.65,5.26c6.68,1.7,11.45,7.58,11.74,14.46l4.61,109.35c.33,7.82-4.87,14.81-12.46,16.74l-18.85,4.79-2.01-7.93,18.56-4.71c4.02-1.02,6.77-4.72,6.6-8.86l-4.64-109.54c-.13-2.97-2.19-5.51-5.07-6.25Z"/><path class="cls-40" d="M40.1,30.65l21.78-1.25-.47-8.17-21.28,1.22c-6.88,.39-12.68,5.25-14.28,11.96L.45,140.87c-1.82,7.62,1.95,15.47,9.04,18.81l17.59,8.3,3.49-7.4-17.32-8.17c-3.75-1.77-5.75-5.93-4.78-9.96L33.93,35.81c.69-2.89,3.2-4.99,6.17-5.16Z"/><path class="cls-46" d="M64.8,150.66l-2.54-9.12c-.92-3.3-5.43-3.74-6.96-.67l-4.24,8.46c-.34,.68-1.06,1.08-1.82,1.01h0c-1.01-.1-1.91,.64-2.01,1.65l-.03,.32,2.25,.22,16.31,1.57,2.25,.22,.03-.32c.1-1.01-.64-1.91-1.65-2.01h0c-.76-.07-1.39-.6-1.59-1.34Z"/><path class="cls-39" d="M89.17,167.62h0c.28-2.91-1.34-5.44-3.62-5.66l-15.7-6.98c-.91-.41-1.87-.66-2.84-.75l-18.81-1.81c-.97-.09-1.96-.03-2.93,.2l-16.75,3.86c-2.28-.22-4.35,1.96-4.63,4.87h0c-.36,3.78-2.38,7.06-5.2,8.46l-5.92,2.94c-1.23,.61-1.04,2.87,.25,3l84.05,8.1c1.29,.12,1.91-2.06,.82-2.9l-5.24-4.02c-2.5-1.91-3.85-5.52-3.49-9.3Z"/><circle class="cls-46" cx="56.19" cy="168.02" r="7.65"/><g><path class="cls-39" d="M93.57,41.71l-49.97-4.81c-.54-.05-.7-.78-.22-1.04l3.39-1.88,.84-8.75c.08-.81,.43-1.57,.99-2.16h0c.56-.59,.91-1.35,.99-2.16l.54-5.64c.1-1.02,1.01-1.77,2.03-1.67l37.43,3.61c1.02,.1,1.77,1.01,1.67,2.03l-.54,5.64c-.08,.81,.12,1.62,.56,2.3h0c.44,.68,.64,1.5,.56,2.3l-.84,8.75,2.97,2.5c.42,.35,.13,1.03-.41,.98Z"/><path class="cls-40" d="M86.16,51.3l.98-10.21-37.1-3.57-.98,10.21c-.08,.78-.63,1.43-1.38,1.64l-5.43,1.47c-1.1,.3-1.9,1.25-2.01,2.38l-.49,5.11,53.53,5.16,.49-5.11c.11-1.13-.5-2.22-1.52-2.72l-5.05-2.48c-.7-.35-1.12-1.09-1.05-1.87Zm-4.58-6.78c1.01,.1,1.75,.99,1.65,2s-.99,1.75-2,1.65-1.75-.99-1.65-2,.99-1.75,2-1.65Zm-13.36-1.29c1.01,.1,1.75,.99,1.65,2s-.99,1.75-2,1.65-1.75-.99-1.65-2,.99-1.75,2-1.65Zm-13.36-1.29c1.01,.1,1.75,.99,1.65,2s-.99,1.75-2,1.65-1.75-.99-1.65-2,.99-1.75,2-1.65Z"/><path class="cls-39" d="M56.22,3.09l-.86,8.91c-.1,1.04,.66,1.97,1.7,2.07l27.66,2.66c1.04,.1,1.97-.66,2.07-1.7l.86-8.91-31.43-3.03Zm25.36,7.89c-.08,.82-.81,1.42-1.63,1.34l-17.37-1.67c-.82-.08-1.42-.81-1.34-1.63h0c.08-.82,.81-1.42,1.63-1.34l17.37,1.67c.82,.08,1.42,.81,1.34,1.63h0Z"/><path class="cls-39" d="M78.61,1.35L66,.14c-2.22-.21-4.46-.18-6.67,.1l-10.59,1.35c-.47,.06-.46,.74,.01,.78l46.37,4.47c.47,.05,.61-.62,.16-.77l-10.14-3.34c-2.12-.7-4.31-1.16-6.53-1.37Z"/></g><path class="cls-29" d="M86.8,164.95l18.56-4.71c4.02-1.02,6.77-4.72,6.6-8.86l-4.64-109.54c-.13-2.97-2.19-5.51-5.07-6.25l-21.14-5.38"/><path class="cls-29" d="M29.46,159.48l-17.32-8.17c-3.75-1.77-5.75-5.93-4.78-9.96L32.81,34.71c.69-2.89,3.2-4.99,6.17-5.16l21.78-1.25"/></g></g><line class="cls-24" x1="91.01" y1="38.23" x2="46.78" y2="33.97"/><g><path class="cls-44" d="M117.9,21.39l-17.73,16.06c-1.09,.99-1.17,2.67-.19,3.76l2.38,2.63c.99,1.09,2.67,1.17,3.76,.19l17.73-16.06c1.09-.99,1.17-2.67,.19-3.76l-2.38-2.63c-.99-1.09-2.67-1.17-3.76-.19Zm-5.93,12.54c-.36,.33-.92,.3-1.24-.06s-.3-.92,.06-1.24l3.3-2.99c.36-.33,.92-.3,1.24,.06s.3,.92-.06,1.24l-3.3,2.99Zm6.92-6.65c-1.51-1.03-1.41-3.24,.2-4.12,.76-.41,1.73-.36,2.44,.12,1.51,1.03,1.41,3.24-.2,4.12-.76,.41-1.73,.36-2.44-.12Z"/><rect class="cls-42" x="101.82" y="37.27" width="2.53" height="7.04" transform="translate(-.7 79.77) rotate(-42.17)"/><rect class="cls-42" x="106.69" y="32.86" width="2.53" height="7.04" transform="translate(3.53 81.9) rotate(-42.17)"/><line class="cls-27" x1="105.32" y1="38.77" x2="111.61" y2="33.07"/></g><rect class="cls-45" x="50.88" y="161.87" width="11.4" height="4.29" rx="2.15" ry="2.15" transform="translate(-112.11 204.61) rotate(-84.5)"/><g><path class="cls-43" d="M89.96,153.89c-.2-1.78,.02-4.19,.53-5.86,.25-.81,1.1-1.25,1.9-.99,1.49,.48,3.25,1.16,4.51,1.85,.45,.24,.74,.7,.77,1.2,.05,.98-.07,2.14-.3,3.09-.13,.5-.51,.89-1.01,1.05-1.38,.42-3.15,.73-4.74,.93-.8,.1-1.56-.46-1.65-1.27Z"/><rect class="cls-48" x="88.11" y="150.5" width="3.27" height=".77" transform="translate(-69.05 225.75) rotate(-84.5)"/><line class="cls-25" x1="95.58" y1="149.44" x2="95.2" y2="153.42"/><line class="cls-25" x1="93.84" y1="148.79" x2="93.36" y2="153.72"/><line class="cls-25" x1="91.85" y1="149.08" x2="91.47" y2="153.06"/></g></g></g></g></g></svg>