<svg xmlns="http://www.w3.org/2000/svg" viewBox="0 0 318.29 610.34"><defs><style>.cls-1{fill:#75b4c6;}.cls-2,.cls-4,.cls-6{fill:none;stroke-miterlimit:10;}.cls-2{stroke:#75b4c6;stroke-width:25px;}.cls-3{fill:#fff;}.cls-4{stroke:#fff;stroke-width:30px;}.cls-5{opacity:0.25;}.cls-6{stroke:#edbdd4;stroke-width:30.33px;}.cls-7{fill:#ebe669;opacity:0.5;}.cls-8{fill:#666464;}</style></defs><g id="レイヤー_2" data-name="レイヤー 2"><g id="レイヤー_6" data-name="レイヤー 6"><rect class="cls-1" x="29.51" y="340.63" width="288.79" height="78.85" rx="17.27"/><circle class="cls-1" cx="173.9" cy="140.43" r="127.84"/><path class="cls-2" d="M173.75,187.41V400c0,23.92,1.18,48.09-3.12,71.76-4,22.14-12.21,43.73-25.51,62q-2.79,3.83-5.86,7.44C108.51,577.3,60.81,592.3,15.07,596.76q-7.1.71-14.22,1.1"/></g><g id="レイヤー_3" data-name="レイヤー 3"><rect class="cls-3" x="30.3" y="332.25" width="287.21" height="78.42" rx="17.18"/><circle class="cls-3" cx="173.9" cy="127.84" r="127.84"/></g><g id="レイヤー_5" data-name="レイヤー 5"><path class="cls-4" d="M173.75,173.74V386.36c0,23.92,1.18,48.1-3.12,71.76-4,22.14-12.21,43.73-25.51,62q-2.79,3.82-5.86,7.44c-30.75,36.08-78.45,51.08-124.19,55.55Q8,583.79.85,584.19"/></g><g id="レイヤー_4" data-name="レイヤー 4"><g class="cls-5"><circle class="cls-6" cx="173.9" cy="127.84" r="112.64"/><line class="cls-6" x1="99.04" y1="43.68" x2="246.38" y2="214.05"/></g><rect class="cls-7" x="38.38" y="340.53" width="271.05" height="61.85" rx="12"/></g><g id="レイヤー_2-2" data-name="レイヤー 2"><path class="cls-8" d="M128.69,110.94c.27,0,.54.08.8.11v4.13c-.21,0-.44-.07-.66-.11v3.73h-1.46l-.06.27h2.18v3.41H114.57v-3.41h2.06c0-.08,0-.18-.06-.27h-1.28V115l-.72.09v-4h.49l-.32-.68h3.09l.13.28a2.57,2.57,0,0,0,1-.58H115v-2.51h8.66a2,2,0,0,0,.43.84l.59-.94h3.64l-1.07,1.68h2.35Zm-3,3.07v.27h-6.75V114a10,10,0,0,1-1.55.59h9.55A12.67,12.67,0,0,1,125.64,114Zm-1.23,2.4h-4.69v.45h4.69Zm-3.62,2.39a1.61,1.61,0,0,1,.08.38h2.39l.08-.38Zm1.35-7.57a7.11,7.11,0,0,1-.54.72h1.2A6.32,6.32,0,0,1,122.14,111.23Z"/><path class="cls-8" d="M139.56,112.14v.78l5.86,1.55v4.77l-5.86-1.68v4.92h-4.48V112.14h-4.5v-4.37H145.5v4.37Z"/><path class="cls-8" d="M156.73,121.15a9.76,9.76,0,0,1-4.51,1.41v-4.12l-.75-.88v4.92h-3.85V119.2a9.49,9.49,0,0,1-1.05.94v-5.52a3,3,0,0,0,1-2.31h-1V108.2h1v-.64h3.85v.64h.64v4.11h-.64v.45l.83.82c.33-.1.57-.42.65-1h7.8a1,1,0,0,0,.74.91v4.4a5.92,5.92,0,0,1-1.22-.46L160,118a10,10,0,0,0,1.55.19v4.34A9.93,9.93,0,0,1,156.73,121.15Zm-4.35-8.84V108.2h2.05v-.66H159v.66h2.53v4.11Zm1,5.16a5.06,5.06,0,0,1-.9.33v.39c.42-.07.8-.15,1.15-.24Zm3.47-4.85a7.47,7.47,0,0,1-1,2.45h.48a5.18,5.18,0,0,0,.4.86,3,3,0,0,0,.43-.86h.61A7,7,0,0,1,156.86,112.62Z"/><path class="cls-8" d="M172.48,120.33v2.18h-4.71v-2.18h-5.11V108.79h5.11v-1.25h4.71v1.25h5v11.54ZM168,113.16h-1V116h1Zm5.26,0h-.91V116h.91Z"/><path class="cls-8" d="M191.89,112.81v1.62h1.5V119h-1.33c-.05,2.35-1.21,3.3-3.71,3.3h-1.28a3.11,3.11,0,0,1-3-1.76v1.68h-1.43c-2.72,0-3.9-1.2-3.9-3.72V108h4.38v9.21c0,.43.1.56.48.57a3.44,3.44,0,0,1,3.7-3.37h0v-1.62h-3.62v-4.19h3.62V108h4.5v.6h1.52v4.19Zm-3.57,4.74h-.68a.47.47,0,0,0-.51.48.5.5,0,0,0,.55.57h.12a.53.53,0,0,0,.52-.56Z"/><path class="cls-8" d="M207.23,122.48h-4v-3.43h-.26v1.15c0,1.43-.64,2-1.86,2h-.16v.29h-3.47v-4.23h-.35v3.94h-2.32v-7.6h2.65v-.26h-2.75v-2.21h-.4a17.71,17.71,0,0,0,.3-4.54h2.58v.57h.27v-.57h3.4v.57h1.36v3.12h-1.36v.29h1.37v2.77h-1.37v.26h1.65v-6.82h3v10.34h.13a.15.15,0,0,0,.14-.15V107.58h3.77v12.48A2.19,2.19,0,0,1,207.23,122.48Zm-9.8-11.21h-.59c0,.18,0,.32-.05.47h.64Zm3.22,7h-.46v.64h.3c.13,0,.16-.06.16-.11Z"/><path class="cls-8" d="M214.89,122.45H213V119.6a5.28,5.28,0,0,1-2.54,2.85v-5.11a1.52,1.52,0,0,0,.38-1.18v-8.5H217v12.45C217,121.69,216.46,122.45,214.89,122.45Zm-.69-4.6h-.7c-.05.29-.11.56-.18.82H214c.15,0,.24-.13.24-.31Zm0-6.69h-.57V112h.57Zm0,3.36h-.57v.9h.57Zm8.81,6.92a6.1,6.1,0,0,1-2.36,1.12v-3.78l.39-.14a6.85,6.85,0,0,1-.48-2.2h2a1.78,1.78,0,0,0,.05-.28h-2.27v6.3h-3.09v-14.8h8.2v3.58a1.77,1.77,0,0,1-1,1.83h1v4.46a7.76,7.76,0,0,1-.4,1.17l.4.08v3.76A4.63,4.63,0,0,1,223,121.44Zm-.89-10.74h-1.18v2.37h.37v-2H222c.12,0,.16-.08.16-.18Z"/><path class="cls-8" d="M234,112.49v.78h6.73v3.32h-2.47v.81h-4.64v-.81h-1.78a.62.62,0,0,0-.59.64c0,.38.15.67.59.67h8.92v4.32h-9.08c-3.34,0-4.86-1.74-4.86-4.5a4.09,4.09,0,0,1,2.56-4v-1.22h-2.61v-4h2.61v-.55H234v.55h7.34v4Z"/><path class="cls-8" d="M121.87,142.87l-.19.28H129v7.12H115.37v-2.15c-.26.08-.51.16-.8.23v-4.69a3.6,3.6,0,0,0,2.14-.79h-2.14v-2.33h5.25v-.29h-4.77v-1.66h4.77v-.26h-5.25v-2.4h2c0-.11-.09-.24-.16-.37h4.37a2.61,2.61,0,0,1,.15.37h2.41l.12-.37h4.37l-.1.37h1.78v2.4h-5.17v.26H129v1.66h-4.67v.29h5.17v2.33Zm2.57,2.36H120v.37h4.43Zm0,1.36H120v.32h4.43Zm0,1.26H120v.37h4.43Z"/><path class="cls-8" d="M142.48,150.45h-2v-3.59h.46a.14.14,0,0,0,.14-.16v-.21H140v4h-4.18v-4h-.91c-.54,2.58-2,3.86-4.35,4V144.7c.35-.27.53-.64.53-1.55v-7.38h14.08v11.51C145.18,149.58,144.11,150.45,142.48,150.45Zm-6.26-11.38h-1v.75h1Zm0,3.71h-1v.73h1Zm4.86-3.71H140v.75h1.07Zm0,3.71H140v.73h1.07Z"/><path class="cls-8" d="M155.12,150.19h-2.28c-3.71,0-5.63-2.37-5.63-5.73v-8.37h4.51v8.21a1.15,1.15,0,0,0,1.06,1.26H155a1.13,1.13,0,0,0,1.08-1.21v-1.62h4.69v1.78C160.77,147.88,158.83,150.19,155.12,150.19Z"/><path class="cls-8" d="M172.49,140.86c-2.62,0-3.62,1.61-3.62,3.15,0,1,.73,1.51,2,1.51h5.68v4.7h-5.79c-4.63,0-6.55-2.27-6.55-5.89a5.57,5.57,0,0,1,1.25-3.47h-2.69v-4.58h14.52v4.58Z"/><path class="cls-8" d="M187.74,150.45v-.28c0-.24-.22-.54-.9-.81L182,147.45c-2.23-.88-3.08-1.84-3.08-3.87v-1c0-1.87.61-2.94,3.08-3.87l4.89-1.84a1.12,1.12,0,0,0,.82-1H193c-.17,2.47-1.37,3.88-4,4.9l-4.91,1.92c-.26.1-.36.19-.36.34v.09c0,.17.1.29.36.36l4.91,1.92c3,1.15,4.08,2.49,4.08,4.82v.24Z"/><path class="cls-8" d="M206.6,140v.7h-6.69l-.36,9.51h-4.41l.37-9.51h-.86v-4.37h1l0-.48h4.4l0,.48h5.59v-.48h3.89v1.83h-3v.51h3V140Zm-2.11,10.24c-3,0-4.29-1.68-4.29-4.72,0-2.55,1.51-4.24,4.48-4.24h4.52v3.39h-3.8c-.24,0-.36.18-.36.45s.08.46.36.46h3.8v4.66Z"/><path class="cls-8" d="M223.29,141v4.08h-7.46c-.43,0-.65.22-.65.48s.24.5.65.5h8.46v4.19h-9.74c-2.69,0-4-2-4-4.24,0-2.45,1.41-4.36,4.1-4.36h4V141h-7.94v-4.2h7.94v-.75h4.64v.75h2.05V141Z"/><path class="cls-8" d="M236.88,149.74v-8.61c0-.37-.12-.43-.26-.43s-.21.17-.24.32l-1.14,5.23c-.57,2.64-1.55,4-4.17,4s-4.34-1.49-4.34-4.4v-9.2h4.38v8.56c0,.4.08.46.21.46s.29-.06.39-.56l1-4.81c.53-2.53,1.65-4,4.26-4a4.12,4.12,0,0,1,4.37,4.42v9Z"/><path class="cls-8" d="M53.71,379a9.76,9.76,0,0,1-4.51,1.41V376.3l-.75-.88v4.92H44.61v-3.28a9.61,9.61,0,0,1-1.06.94v-5.52a3,3,0,0,0,1-2.31h-1v-4.11h1v-.64h3.84v.64h.64v4.11h-.64v.45l.83.82c.34-.1.58-.42.66-1h7.79a1,1,0,0,0,.74.91v4.4a5.92,5.92,0,0,1-1.22-.46l-.32.59a10,10,0,0,0,1.55.19v4.34A9.93,9.93,0,0,1,53.71,379Zm-4.35-8.84v-4.11h2v-.66H56v.66h2.53v4.11Zm1,5.16a4.78,4.78,0,0,1-.9.33v.39c.42-.07.8-.15,1.15-.24Zm3.47-4.85a7.47,7.47,0,0,1-1,2.45h.48a5.18,5.18,0,0,0,.4.86,3,3,0,0,0,.43-.86h.61A7,7,0,0,1,53.84,370.48Z"/><path class="cls-8" d="M71.09,380.32H67.6v-4h.7a6.6,6.6,0,0,1-1.93-1.76,6.22,6.22,0,0,1-2.76,2.18v-4.87a1.76,1.76,0,0,0,.84-1.39H63.23v9.84H59.1V366.46h5.09v-1h4.34v1h5.12v11.22A2.33,2.33,0,0,1,71.09,380.32Zm-1.66-9.84H68a2.26,2.26,0,0,0,1,1.36v4.48h0c.31,0,.33-.13.33-.32Z"/><path class="cls-8" d="M81.7,370.35v.78h6.72v3.32H86v.81H81.31v-.81H79.54a.62.62,0,0,0-.6.64c0,.38.15.67.6.67h8.91v4.32H79.38c-3.35,0-4.87-1.74-4.87-4.5a4.09,4.09,0,0,1,2.56-4v-1.22H74.46v-4h2.61v-.55H81.7v.55H89v4Z"/><path class="cls-8" d="M103,375.06a7.38,7.38,0,0,0,1.63.64v4.81a12.49,12.49,0,0,1-4.42-2.33v1.13a41.26,41.26,0,0,1-10.23,1.11v-4c.71,0,1.4,0,2.1,0V375.2a18,18,0,0,1-2.42,1.38v-4.87a5.73,5.73,0,0,0,2.08-1.44H89.61v-4.11h5.32v-.71h4.3v.71h5.35v4.11H96.37a12.8,12.8,0,0,1-1.31,2.11h1.07v3.73c.64-.08,1.26-.19,1.9-.32a10.48,10.48,0,0,1-1.71-5.1h4a6.73,6.73,0,0,0,.19,1.23l.54-1.22h3.75Z"/><path class="cls-8" d="M119.52,376.9h.4v3.49a8.39,8.39,0,0,1-5-1.54v1.23a80.42,80.42,0,0,1-8.53.32V379c-.43.06-.9.11-1.41.16v-3.25a8.09,8.09,0,0,0,2.67-.26H105v-3.23h5.09v-.29h-2.71v-.46A9.19,9.19,0,0,1,105,372v-3.22a7.39,7.39,0,0,0,2.37-.27l-2.37-.3v-2.72l2.38.32v-.42h4.07v6.39h.3v-2.69h1.83v-.27h-1.83v-3.11h1.83v-.32h4.26v.32h2.09v3.11h-2.09v.27h1.76v3h-4.77v.29h5.1v3.23h-3.49a3.05,3.05,0,0,0,.48.55l.16-.26h3Zm-10.19.78a9.06,9.06,0,0,1-1.36.47c.41,0,.88,0,1.36,0Zm3.74-1v1c.23,0,.42,0,.61,0C113.46,377.28,113.26,377,113.07,376.64Z"/><path class="cls-8" d="M130.35,380.13h-.93v-3.81c-.44,2.87-2.06,3.81-4.25,3.81-2.55,0-4.68-1.63-4.68-5.17v-3a5.65,5.65,0,0,1,6-6.08H129a5.77,5.77,0,0,1,6.11,6v2.63C135.09,378.1,133.31,380.13,130.35,380.13Zm-4.45-9.4a1.39,1.39,0,0,0-1.23,1.51v2.26c0,.59.27.72.58.72a.64.64,0,0,0,.65-.72Zm4.84,1.56a1.37,1.37,0,0,0-1.19-1.56v4.36h.21c.61,0,1-.24,1-1.06Z"/><path class="cls-8" d="M146.55,379.35v-1.94c0-.35-.1-.56-.45-.59,0,2.09-.82,3.31-3.32,3.31H139c-2.39,0-3.32-1.46-3.32-3.41,0-2.1,1.38-3.14,3.6-3.14H142v-.52h-5.64V370H142v-.58h-5.64v-3.13H142v-.53h4.5v.53h3.42v3.13h-3.42V370h3.42v3.11h-3.42v.52h.38c2.48,0,3.78,1.4,3.78,3.64v2.13ZM142,376.06h-2.12a.34.34,0,0,0-.35.36.32.32,0,0,0,.35.32h1.73c.31,0,.39-.1.39-.31Z"/><path class="cls-8" d="M161.91,379.35v-1.94c0-.35-.1-.56-.45-.59,0,2.09-.82,3.31-3.32,3.31h-3.77c-2.39,0-3.32-1.46-3.32-3.41,0-2.1,1.38-3.14,3.6-3.14h2.68v-.52h-5.64V370h5.64v-.58h-5.64v-3.13h5.64v-.53h4.5v.53h3.42v3.13h-3.42V370h3.42v3.11h-3.42v.52h.38c2.48,0,3.78,1.4,3.78,3.64v2.13Zm-4.58-3.29h-2.12a.34.34,0,0,0-.35.36.32.32,0,0,0,.35.32h1.73c.31,0,.39-.1.39-.31Z"/><path class="cls-8" d="M166.62,380.08V365.79h14.63v14.29Zm10.89-10.75h-7.14v7.39h7.14Zm-6.62,6.86v-6.32H177v6.32Zm3.53-3.81h-1v1.33h1Z"/><path class="cls-8" d="M192.27,380H182.21v-4.28h9.44c.32,0,.43-.14.43-.53s-.09-.48-.43-.48h-9.12v-4.25h4.8v.73h4.18v-.72a.48.48,0,0,0-.53-.53h-8.45v-4h8.67c4.29,0,5,2.62,5,4.21v1.07h-3.09c2.27.29,3.65,1.79,3.65,4.4C196.74,378.48,195,380,192.27,380Z"/><path class="cls-8" d="M211.25,376.42c-.08,2.27-1.42,3.76-4.11,3.76h-.31a4,4,0,0,1-4.19-4.18v-.42a3.79,3.79,0,0,1,4-3.89v-.4c0-.16,0-.32,0-.48h-4.21l-.3,9.22h-4.29l.3-9.22h-.85v-4.27h1v-.7h4.31l0,.7h4.15v3.33c.37-2.4,1.76-3.75,4.77-3.75h.56v4.44h-.27c-.56,0-.76.3-.76.85V372h1v4.47Zm-4.1-1.35h-.78a.51.51,0,0,0-.53.5v.16a.47.47,0,0,0,.53.49h.16c.38,0,.62-.27.62-.73Z"/><path class="cls-8" d="M222.82,379.6V371c0-.37-.12-.43-.26-.43s-.21.17-.24.32l-1.14,5.23c-.57,2.64-1.55,4-4.17,4s-4.34-1.49-4.34-4.4v-9.2h4.39V375c0,.4.08.46.2.46s.29-.06.39-.56l1-4.81c.53-2.53,1.65-4,4.26-4a4.12,4.12,0,0,1,4.37,4.42v9Z"/><path class="cls-8" d="M240.08,370v.72h-2.29c-2.62,0-3.63,1.62-3.63,3.15,0,1,.74,1.51,2,1.51h5.7v4.7H236c-4.65,0-6.57-2.27-6.57-5.89a5.65,5.65,0,0,1,1.27-3.47H228v-4.58h10.84v-.27h3.88v1.82h-2.67v.52h2.67V370Z"/><path class="cls-8" d="M252.4,380.31V380c0-.24-.22-.54-.9-.81l-4.81-1.91c-2.23-.88-3.08-1.84-3.08-3.87v-1c0-1.87.61-2.94,3.08-3.87l4.89-1.84a1.12,1.12,0,0,0,.82-1h5.28c-.17,2.47-1.37,3.88-4,4.9l-4.91,1.92c-.26.1-.35.2-.35.34v.1c0,.16.09.28.35.35l4.91,1.92c3,1.15,4.08,2.5,4.08,4.82v.24Z"/><path class="cls-8" d="M270.63,369.84v.7h-6.69l-.37,9.51h-4.4l.36-9.51h-.86v-4.37h1l0-.48h4.4v.48h5.58v-.48h3.89v1.83h-2.94V368h2.94v1.81Zm-2.12,10.24c-3,0-4.29-1.68-4.29-4.72,0-2.54,1.51-4.24,4.49-4.24h4.51v3.39h-3.79c-.24,0-.37.18-.37.45s.08.46.37.46h3.79v4.66Z"/><path class="cls-8" d="M286.67,370.88V375h-7.45c-.44,0-.66.22-.66.48s.24.5.66.5h8.45v4.19h-9.74c-2.68,0-4-2-4-4.24,0-2.45,1.41-4.36,4.1-4.36h4v-.65h-7.94v-4.2H282v-.75h4.64v.75h2.05v4.2Z"/><path class="cls-8" d="M299.62,379.6V371c0-.37-.12-.43-.26-.43s-.21.17-.24.32L298,376.11c-.57,2.64-1.55,4-4.17,4s-4.34-1.49-4.34-4.4v-9.2h4.38V375c0,.4.08.46.21.46s.29-.06.39-.56l1-4.81c.53-2.53,1.65-4,4.26-4a4.12,4.12,0,0,1,4.37,4.42v9Z"/></g></g></svg>