<?xml version="1.0" encoding="UTF-8"?><svg id="_レイヤー_2" xmlns="http://www.w3.org/2000/svg" xmlns:xlink="http://www.w3.org/1999/xlink" viewBox="0 0 162.9 174.7"><defs><style>.cls-1{fill:url(#_新規パターンスウォッチ_3);}.cls-2{fill:#78bbcf;}.cls-3{fill:#e5be5c;}.cls-4{fill:#96ae56;}.cls-5{fill:#edaecb;}.cls-6{fill:#ebbbd2;}.cls-7{stroke:#deeee8;stroke-linejoin:round;stroke-width:8px;}.cls-7,.cls-8{fill:none;}.cls-9{fill:#efcb60;}.cls-10{fill:#deeee8;}.cls-11{fill:#b2ce65;}.cls-12{fill:#74b3c6;}.cls-13{fill:#b7dce3;}</style><pattern id="_新規パターンスウォッチ_3" x="0" y="0" width="30.78" height="26.28" patternTransform="translate(-1096.93 982.29) scale(1.28)" patternUnits="userSpaceOnUse" viewBox="0 0 30.78 26.28"><g><rect class="cls-8" width="30.78" height="26.28"/><rect class="cls-10" width="30.78" height="26.28"/></g></pattern></defs><g id="_スタンプラリー"><g id="_望遠鏡"><g><polygon class="cls-7" points="47.7 154.2 65.87 158.52 65.87 157.1 47.7 152.78 47.7 154.2"/><polygon class="cls-7" points="87.39 154.2 69.22 158.52 69.22 157.1 87.39 152.78 87.39 154.2"/><g><rect class="cls-7" x="77.05" y="76.69" width="4.46" height="83.24" transform="translate(-29.38 26.25) rotate(-15.9)"/><path class="cls-7" d="M94.3,161.86l-4.83,1.38c-.24,.07-.49-.07-.56-.31l-1.08-3.78,5.7-1.62,1.08,3.78c.07,.24-.07,.49-.31,.56Z"/><path class="cls-7" d="M94.96,166.02l-3.82,1.09c-.18,.05-.36-.05-.41-.23l-1.05-3.7,4.45-1.27,1.05,3.7c.05,.18-.05,.36-.23,.41Z"/><path class="cls-7" d="M94.51,171.59h0c-.96,.27-1.97-.28-2.24-1.25l-.94-3.29,3.49-1,.94,3.29c.27,.96-.28,1.97-1.25,2.24Z"/></g><g><rect class="cls-7" x="65.74" y="77.68" width="4.46" height="83.24"/><path class="cls-7" d="M70.48,165.29h-5.02c-.25,0-.45-.2-.45-.45v-3.93h5.93v3.93c0,.25-.2,.45-.45,.45Z"/><path class="cls-7" d="M69.97,169.47h-3.97c-.18,0-.33-.15-.33-.33v-3.84h4.63v3.84c0,.18-.15,.33-.33,.33Z"/><path class="cls-7" d="M68.01,174.7h0c-1,0-1.82-.81-1.82-1.82v-3.42h3.63v3.42c0,1-.81,1.82-1.82,1.82Z"/></g><g><rect class="cls-7" x="15.03" y="116.08" width="83.24" height="4.46" transform="translate(-72.65 140.38) rotate(-74.1)"/><path class="cls-7" d="M41.63,161.86l4.83,1.38c.24,.07,.49-.07,.56-.31l1.08-3.78-5.7-1.62-1.08,3.78c-.07,.24,.07,.49,.31,.56Z"/><path class="cls-7" d="M40.98,166.02l3.82,1.09c.18,.05,.36-.05,.41-.23l1.05-3.7-4.45-1.27-1.05,3.7c-.05,.18,.05,.36,.23,.41Z"/><path class="cls-7" d="M41.43,171.59h0c.96,.27,1.97-.28,2.24-1.25l.94-3.29-3.49-1-.94,3.29c-.27,.96,.28,1.97,1.25,2.24Z"/></g><g><rect class="cls-7" x="6.51" y="6.51" width="37.84" height="37.84" transform="translate(-8.75 36.62) rotate(-63.12)"/><rect class="cls-7" x="27.49" y="32.75" width="33.67" height="4.51" transform="translate(-6.94 58.72) rotate(-63.12)"/><rect class="cls-7" x="60.94" y="17.99" width="29.23" height="65.39" transform="translate(-3.81 95.17) rotate(-63.12)"/><path class="cls-7" d="M73.69,73.67l-13.51-6.85c-1.14-.58-1.6-1.97-1.02-3.11l3.09-6.1,15.58,7.9-4.14,8.17Z"/><rect class="cls-7" x="92.15" y="64.21" width="29.23" height="4.58" transform="translate(-.82 131.66) rotate(-63.12)"/><rect class="cls-7" x="113.05" y="58.31" width="21.55" height="33.67" transform="translate(.81 151.62) rotate(-63.12)"/><rect class="cls-7" x="133.84" y="80.84" width="16.23" height="7" transform="translate(2.55 172.84) rotate(-63.12)"/><polygon class="cls-7" points="154.89 100.83 142.53 95.64 142.09 96.49 140.21 95.54 149.95 76.32 151.84 77.27 151.4 78.12 162.9 85.02 154.89 100.83"/><rect class="cls-7" x="102.53" y="41.75" width="9.97" height="5.72" transform="translate(19.11 120.34) rotate(-63.12)"/><circle class="cls-7" cx="106.01" cy="79.76" r="7.61"/><circle class="cls-7" cx="106.01" cy="79.76" r="5.64"/><rect class="cls-7" x="99.08" y="43.95" width="7.41" height="13" transform="translate(11.32 119.32) rotate(-63.12)"/><rect class="cls-7" x="104.06" y="34.68" width="8.62" height="3.37" transform="translate(26.94 116.59) rotate(-63.12)"/><rect class="cls-7" x="110.15" y="34.77" width="7.14" height="8.62" transform="translate(27.45 122.84) rotate(-63.12)"/><rect class="cls-7" x="117.27" y="39.55" width="5.39" height="5.39" transform="translate(28.05 130.15) rotate(-63.12)"/><rect class="cls-7" x="119.69" y="43.18" width="6.26" height="1.01" transform="translate(28.32 133.49) rotate(-63.12)"/><rect class="cls-7" x="102.1" y="33.65" width="7.14" height="2.69" transform="translate(26.68 113.43) rotate(-63.12)"/><rect class="cls-7" x="97.05" y="28.13" width="7.14" height="8.62" transform="translate(26.2 107.53) rotate(-63.12)"/><rect class="cls-7" x="92.85" y="29.9" width="7.14" height=".81" transform="translate(25.79 102.61) rotate(-63.12)"/><rect class="cls-7" x="91.21" y="27.17" width="6.06" height="4.07" transform="translate(25.59 100.06) rotate(-63.12)"/><rect class="cls-7" x="15.66" y="29.53" width="37.84" height="1.08" transform="translate(-7.87 47.32) rotate(-63.12)"/><circle class="cls-7" cx="45.38" cy="47.4" r="1.48"/><circle class="cls-7" cx="95.88" cy="73.07" r="1.48"/><rect class="cls-7" x="129.95" y="46.74" width="1.53" height="32.52" transform="translate(20.86 157.8) rotate(-66.52)"/><g><path class="cls-7" d="M115.37,57.89c-.1,.51,.17,1.01,.64,1.22l2.78,1.21c.16,.07,.33,.09,.5,.06,2.27-.31,5.04,.68,5.04,.68l-8.83-3.84-.13,.67Z"/><polygon class="cls-7" points="124.33 61.06 130.29 63.65 124.33 61.06 124.33 61.06"/></g><path class="cls-7" d="M130.29,63.65l8.58,3.73c.77,.34,1.13,1.23,.79,2.01h0s-1.01,1.21-1.01,1.21l3.27,1.66,.49-.95c.19-.38,.55-.65,.96-.73l1.96-.39-15.04-6.53Zm10.61,5.83c-.27-.13-.37-.46-.24-.72s.46-.37,.72-.24,.37,.46,.24,.72-.46,.37-.72,.24Z"/></g><path class="cls-7" d="M68.24,69.52v-7.18h-9.34v12.64c0,1.72,1.39,3.11,3.11,3.11h11.03v-8.57h-4.8Z"/><circle class="cls-7" cx="63.42" cy="65.28" r="1.88"/><rect class="cls-7" x="63.67" y="78.09" width="7.95" height="1.8"/><polygon class="cls-7" points="82.58 152.78 73.05 152.78 73.05 123.58 76.25 123.58 82.58 152.78"/><polygon class="cls-7" points="53.32 152.78 62.85 152.78 62.85 123.58 59.65 123.58 53.32 152.78"/></g><g><polygon class="cls-5" points="47.7 154.2 65.87 158.52 65.87 157.1 47.7 152.78 47.7 154.2"/><polygon class="cls-5" points="87.39 154.2 69.22 158.52 69.22 157.1 87.39 152.78 87.39 154.2"/><g><rect class="cls-6" x="77.05" y="76.69" width="4.46" height="83.24" transform="translate(-29.38 26.25) rotate(-15.9)"/><path class="cls-12" d="M94.3,161.86l-4.83,1.38c-.24,.07-.49-.07-.56-.31l-1.08-3.78,5.7-1.62,1.08,3.78c.07,.24-.07,.49-.31,.56Z"/><path class="cls-12" d="M94.96,166.02l-3.82,1.09c-.18,.05-.36-.05-.41-.23l-1.05-3.7,4.45-1.27,1.05,3.7c.05,.18-.05,.36-.23,.41Z"/><path class="cls-12" d="M94.51,171.59h0c-.96,.27-1.97-.28-2.24-1.25l-.94-3.29,3.49-1,.94,3.29c.27,.96-.28,1.97-1.25,2.24Z"/></g><g><rect class="cls-6" x="65.74" y="77.68" width="4.46" height="83.24"/><path class="cls-12" d="M70.48,165.29h-5.02c-.25,0-.45-.2-.45-.45v-3.93h5.93v3.93c0,.25-.2,.45-.45,.45Z"/><path class="cls-12" d="M69.97,169.47h-3.97c-.18,0-.33-.15-.33-.33v-3.84h4.63v3.84c0,.18-.15,.33-.33,.33Z"/><path class="cls-12" d="M68.01,174.7h0c-1,0-1.82-.81-1.82-1.82v-3.42h3.63v3.42c0,1-.81,1.82-1.82,1.82Z"/></g><g><rect class="cls-6" x="15.03" y="116.08" width="83.24" height="4.46" transform="translate(-72.65 140.38) rotate(-74.1)"/><path class="cls-12" d="M41.63,161.86l4.83,1.38c.24,.07,.49-.07,.56-.31l1.08-3.78-5.7-1.62-1.08,3.78c-.07,.24,.07,.49,.31,.56Z"/><path class="cls-12" d="M40.98,166.02l3.82,1.09c.18,.05,.36-.05,.41-.23l1.05-3.7-4.45-1.27-1.05,3.7c-.05,.18,.05,.36,.23,.41Z"/><path class="cls-12" d="M41.43,171.59h0c.96,.27,1.97-.28,2.24-1.25l.94-3.29-3.49-1-.94,3.29c-.27,.96,.28,1.97,1.25,2.24Z"/></g><g><rect class="cls-2" x="6.51" y="6.51" width="37.84" height="37.84" transform="translate(-8.75 36.62) rotate(-63.12)"/><rect class="cls-2" x="27.49" y="32.75" width="33.67" height="4.51" transform="translate(-6.94 58.72) rotate(-63.12)"/><rect class="cls-6" x="60.94" y="17.99" width="29.23" height="65.39" transform="translate(-3.81 95.17) rotate(-63.12)"/><path class="cls-12" d="M73.69,73.67l-13.51-6.85c-1.14-.58-1.6-1.97-1.02-3.11l3.09-6.1,15.58,7.9-4.14,8.17Z"/><rect class="cls-12" x="92.15" y="64.21" width="29.23" height="4.58" transform="translate(-.82 131.66) rotate(-63.12)"/><rect class="cls-12" x="113.05" y="58.31" width="21.55" height="33.67" transform="translate(.81 151.62) rotate(-63.12)"/><rect class="cls-13" x="133.84" y="80.84" width="16.23" height="7" transform="translate(2.55 172.84) rotate(-63.12)"/><polygon class="cls-12" points="154.89 100.83 142.53 95.64 142.09 96.49 140.21 95.54 149.95 76.32 151.84 77.27 151.4 78.12 162.9 85.02 154.89 100.83"/><rect class="cls-3" x="102.53" y="41.75" width="9.97" height="5.72" transform="translate(19.11 120.34) rotate(-63.12)"/><circle class="cls-12" cx="106.01" cy="79.76" r="7.61"/><circle class="cls-13" cx="106.01" cy="79.76" r="5.64"/><rect class="cls-9" x="99.08" y="43.95" width="7.41" height="13" transform="translate(11.32 119.32) rotate(-63.12)"/><rect class="cls-9" x="104.06" y="34.68" width="8.62" height="3.37" transform="translate(26.94 116.59) rotate(-63.12)"/><rect class="cls-6" x="110.15" y="34.77" width="7.14" height="8.62" transform="translate(27.45 122.84) rotate(-63.12)"/><rect class="cls-9" x="117.27" y="39.55" width="5.39" height="5.39" transform="translate(28.05 130.15) rotate(-63.12)"/><rect class="cls-9" x="119.69" y="43.18" width="6.26" height="1.01" transform="translate(28.32 133.49) rotate(-63.12)"/><rect class="cls-9" x="102.1" y="33.65" width="7.14" height="2.69" transform="translate(26.68 113.43) rotate(-63.12)"/><rect class="cls-6" x="97.05" y="28.13" width="7.14" height="8.62" transform="translate(26.2 107.53) rotate(-63.12)"/><rect class="cls-9" x="92.85" y="29.9" width="7.14" height=".81" transform="translate(25.79 102.61) rotate(-63.12)"/><rect class="cls-9" x="91.21" y="27.17" width="6.06" height="4.07" transform="translate(25.59 100.06) rotate(-63.12)"/><rect class="cls-13" x="15.66" y="29.53" width="37.84" height="1.08" transform="translate(-7.87 47.32) rotate(-63.12)"/><circle class="cls-5" cx="45.38" cy="47.4" r="1.48"/><circle class="cls-5" cx="95.88" cy="73.07" r="1.48"/><rect class="cls-11" x="129.95" y="46.74" width="1.53" height="32.52" transform="translate(20.86 157.8) rotate(-66.52)"/><g><path class="cls-4" d="M115.37,57.89c-.1,.51,.17,1.01,.64,1.22l2.78,1.21c.16,.07,.33,.09,.5,.06,2.27-.31,5.04,.68,5.04,.68l-8.83-3.84-.13,.67Z"/><polygon class="cls-4" points="124.33 61.06 130.29 63.65 124.33 61.06 124.33 61.06"/></g><path class="cls-4" d="M130.29,63.65l8.58,3.73c.77,.34,1.13,1.23,.79,2.01h0s-1.01,1.21-1.01,1.21l3.27,1.66,.49-.95c.19-.38,.55-.65,.96-.73l1.96-.39-15.04-6.53Zm10.61,5.83c-.27-.13-.37-.46-.24-.72s.46-.37,.72-.24,.37,.46,.24,.72-.46,.37-.72,.24Z"/></g><path class="cls-13" d="M68.24,69.52v-7.18h-9.34v12.64c0,1.72,1.39,3.11,3.11,3.11h11.03v-8.57h-4.8Z"/><circle class="cls-12" cx="63.42" cy="65.28" r="1.88"/><rect class="cls-12" x="63.67" y="78.09" width="7.95" height="1.8"/><polygon class="cls-1" points="82.58 152.78 73.05 152.78 73.05 123.58 76.25 123.58 82.58 152.78"/><polygon class="cls-1" points="53.32 152.78 62.85 152.78 62.85 123.58 59.65 123.58 53.32 152.78"/></g></g></g></svg>