<?xml version="1.0" encoding="UTF-8"?><svg id="_レイヤー_2" xmlns="http://www.w3.org/2000/svg" xmlns:xlink="http://www.w3.org/1999/xlink" viewBox="0 0 163.78 186.94"><defs><style>.cls-1{fill:#dce3e7;}.cls-2{fill:#78bbcf;}.cls-3{fill:#f2bfd7;}.cls-4{fill:#5ca6bb;}.cls-5{fill:#edaecb;}.cls-6{fill:#deeee8;}.cls-7{stroke:#eec55b;stroke-linecap:round;}.cls-7,.cls-8,.cls-9,.cls-10,.cls-11{fill:none;}.cls-7,.cls-10,.cls-11{stroke-miterlimit:10;stroke-width:1.13px;}.cls-8{stroke:url(#_新規パターンスウォッチ_3);stroke-linejoin:round;stroke-width:8px;}.cls-12{fill:#b2ce65;}.cls-13{fill:#ced4d8;}.cls-14{fill:#eec55b;}.cls-10{stroke:#edaecb;}.cls-15{fill:#f7d15f;}.cls-11{stroke:#b2ce65;}</style><pattern id="_新規パターンスウォッチ_3" x="0" y="0" width="30.78" height="26.28" patternTransform="translate(-2819.02 -696.93)" patternUnits="userSpaceOnUse" viewBox="0 0 30.78 26.28"><g><rect class="cls-9" width="30.78" height="26.28"/><rect class="cls-6" width="30.78" height="26.28"/></g></pattern></defs><g id="_スタンプラリー"><g id="_ロケット"><g><g><polygon class="cls-8" points="68.93 136.19 82.26 156.17 96.02 149.82 99.34 154.8 107.47 149.37 104.15 144.39 115.3 134.13 101.97 114.15 68.93 136.19"/><polygon class="cls-8" points="78.63 158.59 82.26 156.17 77.58 149.15 73.95 151.57 78.63 158.59"/><polygon class="cls-8" points="57.08 124.57 55.8 122.66 58.64 120.77 74.58 144.66 70.96 147.08 57.57 127.02 57.08 124.57"/><polygon class="cls-8" points="75.76 150.36 73.95 151.57 70.96 147.08 72.77 145.87 75.76 150.36"/><polygon class="cls-8" points="5.65 7.77 7.68 6.42 21.44 27.03 19.4 28.39 5.65 7.77"/><path class="cls-8" d="M9.26,2.25c1.55,2.32-.27,3.86-2.59,5.41s-4.27,2.52-5.81,.2C-.7,5.54-.07,2.4,2.25,.85S7.71-.07,9.26,2.25Z"/><path class="cls-8" d="M42.9,25.62l-14.73-5.45c-2.04-.76-4.33-.49-6.14,.72l-8.51,5.68c-1.81,1.21-2.94,3.22-3.02,5.39l-.63,15.7,59.07,88.52,33.04-22.04L42.9,25.62Z"/><path class="cls-8" d="M77.81,113.73h0c-4.84,3.23-11.38,1.92-14.61-2.92l-11.33-16.98c-3.23-4.84-1.92-11.38,2.92-14.61h0c4.84-3.23,11.38-1.92,14.61,2.92l11.33,16.98c3.23,4.84,1.92,11.38-2.92,14.61Z"/><path class="cls-8" d="M13.87,20.36l2.27-1.52c1.7-1.13,4-.68,5.13,1.02l.71,1.06-8.43,5.62-.71-1.06c-1.13-1.7-.68-4,1.02-5.13Z"/><path class="cls-8" d="M.96,7.79L9.15,2.32c.07-.04,.15-.03,.2,.04l2.6,3.9c.04,.07,.03,.15-.04,.2L3.72,11.92c-.07,.04-.15,.03-.2-.04L.92,7.98c-.04-.07-.03-.15,.04-.2Z"/><polygon class="cls-8" points="46.36 30.8 13.32 52.85 9.86 47.67 9.86 47.67 42.9 25.62 42.9 25.63 46.36 30.8"/><circle class="cls-8" cx="39.86" cy="31.4" r="2.02"/><circle class="cls-8" cx="33.98" cy="35.32" r="2.02"/><circle class="cls-8" cx="28.11" cy="39.24" r="2.02"/><circle class="cls-8" cx="22.23" cy="43.16" r="2.02"/><circle class="cls-8" cx="16.36" cy="47.08" r="2.02"/><path class="cls-8" d="M94.1,137.46h0c.84-.56,1.07-1.7,.51-2.54l-7.32-10.98-3.04,2.03,7.32,10.98c.56,.84,1.7,1.07,2.54,.51Z"/><path class="cls-8" d="M102.2,132.05h0c.84-.56,1.07-1.7,.51-2.54l-7.32-10.98-3.04,2.03,7.32,10.98c.56,.84,1.7,1.07,2.54,.51Z"/><path class="cls-8" d="M101.97,114.15l-1.52,1.01,7.32,10.98c.56,.84,1.7,1.07,2.54,.51"/><path class="cls-8" d="M85.68,143.07h0c.84-.56,1.07-1.7,.51-2.54l-7.32-10.98-3.04,2.03,7.32,10.98c.56,.84,1.7,1.07,2.54,.51Z"/><path class="cls-8" d="M77.27,148.69c.84-.56,1.07-1.7,.51-2.54l-7.32-10.98-1.52,1.01"/><polygon class="cls-8" points="69.75 137.42 102.79 115.38 101.97 114.15 68.93 136.19 69.75 137.42"/><circle class="cls-8" cx="60.58" cy="87.9" r="8.41"/><g><path class="cls-8" d="M71.63,112.51c-2.63,0-5.08-1.31-6.54-3.49l-10.83-16.22,.1-.07-.31-.47c-2.4-3.6-1.43-8.48,2.17-10.88,1.29-.86,2.8-1.32,4.35-1.32,2.63,0,5.08,1.31,6.54,3.49,.22,.33,.42,.7,.62,1.14l10.42,15.62c2.4,3.6,1.43,8.48-2.17,10.88-1.29,.86-2.8,1.32-4.35,1.32,0,0,0,0,0,0Z"/><path class="cls-8" d="M60.58,80.62c2.44,0,4.71,1.21,6.07,3.24,.2,.3,.39,.65,.58,1.06l.04,.08,.05,.08,10.37,15.54c1.08,1.62,1.46,3.56,1.08,5.47-.38,1.91-1.48,3.55-3.1,4.63-1.2,.8-2.6,1.23-4.04,1.23-2.44,0-4.71-1.21-6.07-3.24l-10.51-15.76,.1-.07-.63-.94c-1.08-1.62-1.46-3.56-1.08-5.47,.38-1.91,1.48-3.55,3.1-4.63,1.2-.8,2.6-1.23,4.04-1.23m0-1.13c-1.6,0-3.23,.46-4.66,1.42-3.86,2.58-4.91,7.8-2.33,11.67l-.1,.07,11.14,16.69c1.62,2.43,4.29,3.74,7,3.74,1.6,0,3.23-.46,4.66-1.42,3.86-2.58,4.91-7.8,2.33-11.67l-10.37-15.54c-.19-.42-.4-.83-.67-1.22-1.62-2.43-4.29-3.74-7-3.74h0Z"/></g><g><line class="cls-8" x1="77.98" y1="100.42" x2="74.37" y2="102.83"/><line class="cls-8" x1="77.98" y1="100.42" x2="74.37" y2="102.83"/></g><g><line class="cls-8" x1="76.26" y1="97.85" x2="72.65" y2="100.26"/><line class="cls-8" x1="76.26" y1="97.85" x2="72.65" y2="100.26"/></g><g><line class="cls-8" x1="74.54" y1="95.27" x2="70.94" y2="97.68"/><line class="cls-8" x1="74.54" y1="95.27" x2="70.94" y2="97.68"/></g><g><line class="cls-8" x1="72.83" y1="92.7" x2="69.22" y2="95.11"/><line class="cls-8" x1="72.83" y1="92.7" x2="69.22" y2="95.11"/></g><g><line class="cls-8" x1="71.11" y1="90.13" x2="67.5" y2="92.53"/><line class="cls-8" x1="71.11" y1="90.13" x2="67.5" y2="92.53"/></g><polygon class="cls-8" points="68.4 52.34 60.71 57.47 48.03 38.46 55.72 33.33 68.4 52.34"/><polygon class="cls-8" points="68.81 48.57 66.79 49.92 57.34 35.75 59.36 34.4 68.81 48.57"/><polygon class="cls-8" points="71.4 50.35 70.43 50.99 57.74 31.98 58.71 31.34 71.4 50.35"/><polygon class="cls-8" points="77.95 45.97 71.4 50.35 58.71 31.34 65.27 26.96 77.95 45.97"/><polygon class="cls-8" points="75.62 38.2 73.65 39.52 69.58 33.42 71.55 32.1 75.62 38.2"/><polygon class="cls-8" points="79.07 36.96 75.31 39.46 70.26 31.9 74.01 29.39 79.07 36.96"/><line class="cls-8" x1="75.26" y1="31.26" x2="71.51" y2="33.77"/><line class="cls-8" x1="77.75" y1="34.99" x2="74" y2="37.5"/><path class="cls-8" d="M46.09,47.25h0c-1.02-.4-1.52-1.54-1.12-2.56l1.51-3.86c.4-1.02,1.54-1.52,2.56-1.12h0c1.02,.4,1.52,1.54,1.12,2.56l-1.51,3.86c-.4,1.02-1.54,1.52-2.56,1.12Z"/><path class="cls-8" d="M44.08,52.39h0c-.67-.26-1.01-1.02-.74-1.7l2-5.1c.26-.67,1.02-1.01,1.7-.74h0c.67,.26,1.01,1.02,.74,1.7l-2,5.1c-.26,.67-1.02,1.01-1.7,.74Z"/><path class="cls-8" d="M42.03,57.61h0c-1.02-.4-1.52-1.54-1.12-2.56l1.51-3.86c.4-1.02,1.54-1.52,2.56-1.12h0c1.02,.4,1.52,1.54,1.12,2.56l-1.51,3.86c-.4,1.02-1.54,1.52-2.56,1.12Z"/><path class="cls-8" d="M40.02,62.75h0c-.67-.26-1.01-1.02-.74-1.7l2-5.1c.26-.67,1.02-1.01,1.7-.74h0c.67,.26,1.01,1.02,.74,1.7l-2,5.1c-.26,.67-1.02,1.01-1.7,.74Z"/><path class="cls-8" d="M37.98,67.97h0c-1.02-.4-1.52-1.54-1.12-2.56l1.51-3.86c.4-1.02,1.54-1.52,2.56-1.12h0c1.02,.4,1.52,1.54,1.12,2.56l-1.51,3.86c-.4,1.02-1.54,1.52-2.56,1.12Z"/><path class="cls-8" d="M35.97,73.11h0c-.67-.26-1.01-1.02-.74-1.7l2-5.1c.26-.67,1.02-1.01,1.7-.74h0c.67,.26,1.01,1.02,.74,1.7l-2,5.1c-.26,.67-1.02,1.01-1.7,.74Z"/><path class="cls-8" d="M33.92,78.33h0c-1.02-.4-1.52-1.54-1.12-2.56l1.51-3.86c.4-1.02,1.54-1.52,2.56-1.12h0c1.02,.4,1.52,1.54,1.12,2.56l-1.51,3.86c-.4,1.02-1.54,1.52-2.56,1.12Z"/><path class="cls-8" d="M31.91,83.47h0c-.67-.26-1.01-1.02-.74-1.7l2-5.1c.26-.67,1.02-1.01,1.7-.74h0c.67,.26,1.01,1.02,.74,1.7l-2,5.1c-.26,.67-1.02,1.01-1.7,.74Z"/><path class="cls-8" d="M47.92,42.57h0c-.67-.26-1.01-1.02-.74-1.7l2-5.1c.26-.67,1.02-1.01,1.7-.74h0c.67,.26,1.01,1.02,.74,1.7l-2,5.1c-.26,.67-1.02,1.01-1.7,.74Z"/><path class="cls-8" d="M53.48,62.18h0c-.62,.9-1.85,1.12-2.75,.5l-3.41-2.35c-.9-.62-1.12-1.85-.5-2.75h0c.62-.9,1.85-1.12,2.75-.5l3.41,2.35c.9,.62,1.12,1.85,.5,2.75Z"/><path class="cls-8" d="M58.02,65.32h0c-.41,.59-1.23,.74-1.82,.33l-4.5-3.11c-.59-.41-.74-1.23-.33-1.82h0c.41-.59,1.23-.74,1.82-.33l4.5,3.11c.59,.41,.74,1.23,.33,1.82Z"/><path class="cls-8" d="M62.63,68.51h0c-.62,.9-1.85,1.12-2.75,.5l-3.41-2.35c-.9-.62-1.12-1.85-.5-2.75h0c.62-.9,1.85-1.12,2.75-.5l3.41,2.35c.9,.62,1.12,1.85,.5,2.75Z"/><path class="cls-8" d="M67.17,71.64h0c-.41,.59-1.23,.74-1.82,.33l-4.5-3.11c-.59-.41-.74-1.23-.33-1.82h0c.41-.59,1.23-.74,1.82-.33l4.5,3.11c.59,.41,.74,1.23,.33,1.82Z"/><path class="cls-8" d="M71.79,74.83h0c-.62,.9-1.85,1.12-2.75,.5l-3.41-2.35c-.9-.62-1.12-1.85-.5-2.75h0c.62-.9,1.85-1.12,2.75-.5l3.41,2.35c.9,.62,1.12,1.85,.5,2.75Z"/><path class="cls-8" d="M76.32,77.97h0c-.41,.59-1.23,.74-1.82,.33l-4.5-3.11c-.59-.41-.74-1.23-.33-1.82h0c.41-.59,1.23-.74,1.82-.33l4.5,3.11c.59,.41,.74,1.23,.33,1.82Z"/><path class="cls-8" d="M80.94,81.16h0c-.62,.9-1.85,1.12-2.75,.5l-3.41-2.35c-.9-.62-1.12-1.85-.5-2.75h0c.62-.9,1.85-1.12,2.75-.5l3.41,2.35c.9,.62,1.12,1.85,.5,2.75Z"/><path class="cls-8" d="M85.48,84.3h0c-.41,.59-1.23,.74-1.82,.33l-4.5-3.11c-.59-.41-.74-1.23-.33-1.82h0c.41-.59,1.23-.74,1.82-.33l4.5,3.11c.59,.41,.74,1.23,.33,1.82Z"/><path class="cls-8" d="M49.35,59.32h0c-.41,.59-1.23,.74-1.82,.33l-4.5-3.11c-.59-.41-.74-1.23-.33-1.82h0c.41-.59,1.23-.74,1.82-.33l4.5,3.11c.59,.41,.74,1.23,.33,1.82Z"/></g><g><polygon class="cls-8" points="145.87 186.94 108.14 186.94 100.73 153.87 106.1 150.28 145.87 186.94"/><circle class="cls-8" cx="101.5" cy="180.86" r="6.08"/><circle class="cls-8" cx="157.41" cy="180.57" r="6.37"/><circle class="cls-8" cx="126.36" cy="166.57" r="4.88"/><circle class="cls-8" cx="147.05" cy="173.48" r="8.49"/><path class="cls-8" d="M155.14,176.98l-17.78-.35c-.36,0-.6,.37-.44,.69l4.59,9.34c.08,.17,.25,.27,.43,.27h14.89c.3,0,.53-.27,.47-.57l-1.7-8.99c-.04-.22-.24-.39-.46-.39Z"/><circle class="cls-8" cx="107.58" cy="179.2" r="7.74"/><rect class="cls-8" x="101.5" y="183.19" width="13.83" height="3.75" rx=".45" ry=".45"/><circle class="cls-8" cx="134.04" cy="172.44" r="10.75"/></g></g><g><g><polygon class="cls-2" points="68.93 136.19 82.26 156.17 96.02 149.82 99.34 154.8 107.47 149.37 104.15 144.39 115.3 134.13 101.97 114.15 68.93 136.19"/><rect class="cls-2" x="75.93" y="149.65" width="4.36" height="8.44" transform="translate(-72.27 69.23) rotate(-33.71)"/><polygon class="cls-2" points="57.08 124.57 55.8 122.66 58.64 120.77 74.58 144.66 70.96 147.08 57.57 127.02 57.08 124.57"/><rect class="cls-2" x="72.27" y="146.02" width="2.18" height="5.4" transform="translate(-70.21 65.73) rotate(-33.71)"/><rect class="cls-1" x="12.32" y="5.01" width="2.44" height="24.79" transform="translate(-7.38 10.44) rotate(-33.71)"/><path class="cls-5" d="M9.26,2.25c1.55,2.32-.27,3.86-2.59,5.41s-4.27,2.52-5.81,.2C-.7,5.54-.07,2.4,2.25,.85S7.71-.07,9.26,2.25Z"/><path class="cls-1" d="M42.9,25.62l-14.73-5.45c-2.04-.76-4.33-.49-6.14,.72l-8.51,5.68c-1.81,1.21-2.94,3.22-3.02,5.39l-.63,15.7,59.07,88.52,33.04-22.04L42.9,25.62Z"/><rect class="cls-15" x="55.77" y="75.74" width="21.06" height="41.47" rx="10.53" ry="10.53" transform="translate(-42.4 53.03) rotate(-33.71)"/><path class="cls-1" d="M13.87,20.36l2.27-1.52c1.7-1.13,4-.68,5.13,1.02l.71,1.06-8.43,5.62-.71-1.06c-1.13-1.7-.68-4,1.02-5.13Z"/><rect class="cls-1" x="1.37" y="4.64" width="10.13" height="4.97" rx=".14" ry=".14" transform="translate(-2.87 4.77) rotate(-33.71)"/><rect class="cls-15" x="8.25" y="36.12" width="39.72" height="6.23" transform="translate(-17.05 22.2) rotate(-33.71)"/><circle class="cls-14" cx="39.86" cy="31.4" r="2.02"/><circle class="cls-14" cx="33.98" cy="35.32" r="2.02"/><circle class="cls-14" cx="28.11" cy="39.24" r="2.02"/><circle class="cls-14" cx="22.23" cy="43.16" r="2.02"/><circle class="cls-14" cx="16.36" cy="47.08" r="2.02"/><path class="cls-4" d="M94.1,137.46h0c.84-.56,1.07-1.7,.51-2.54l-7.32-10.98-3.04,2.03,7.32,10.98c.56,.84,1.7,1.07,2.54,.51Z"/><path class="cls-4" d="M102.2,132.05h0c.84-.56,1.07-1.7,.51-2.54l-7.32-10.98-3.04,2.03,7.32,10.98c.56,.84,1.7,1.07,2.54,.51Z"/><path class="cls-4" d="M101.97,114.15l-1.52,1.01,7.32,10.98c.56,.84,1.7,1.07,2.54,.51"/><path class="cls-4" d="M85.68,143.07h0c.84-.56,1.07-1.7,.51-2.54l-7.32-10.98-3.04,2.03,7.32,10.98c.56,.84,1.7,1.07,2.54,.51Z"/><path class="cls-4" d="M77.27,148.69c.84-.56,1.07-1.7,.51-2.54l-7.32-10.98-1.52,1.01"/><rect class="cls-4" x="66" y="125.05" width="39.72" height="1.48" transform="translate(-55.38 68.81) rotate(-33.71)"/><circle class="cls-14" cx="60.58" cy="87.9" r="8.41"/><path class="cls-14" d="M60.58,80.62c2.44,0,4.71,1.21,6.07,3.24,.2,.3,.39,.65,.58,1.06l.04,.08,.05,.08,10.37,15.54c1.08,1.62,1.46,3.56,1.08,5.47-.38,1.91-1.48,3.55-3.1,4.63-1.2,.8-2.6,1.23-4.04,1.23-2.44,0-4.71-1.21-6.07-3.24l-10.51-15.76,.1-.07-.63-.94c-1.08-1.62-1.46-3.56-1.08-5.47,.38-1.91,1.48-3.55,3.1-4.63,1.2-.8,2.6-1.23,4.04-1.23m0-1.13c-1.6,0-3.23,.46-4.66,1.42-3.86,2.58-4.91,7.8-2.33,11.67l-.1,.07,11.14,16.69c1.62,2.43,4.29,3.74,7,3.74,1.6,0,3.23-.46,4.66-1.42,3.86-2.58,4.91-7.8,2.33-11.67l-10.37-15.54c-.19-.42-.4-.83-.67-1.22-1.62-2.43-4.29-3.74-7-3.74h0Z"/><line class="cls-7" x1="77.98" y1="100.42" x2="74.37" y2="102.83"/><line class="cls-7" x1="76.26" y1="97.85" x2="72.65" y2="100.26"/><line class="cls-7" x1="74.54" y1="95.27" x2="70.94" y2="97.68"/><line class="cls-7" x1="72.83" y1="92.7" x2="69.22" y2="95.11"/><line class="cls-7" x1="71.11" y1="90.13" x2="67.5" y2="92.53"/><rect class="cls-1" x="53.59" y="33.98" width="9.25" height="22.85" transform="translate(-15.41 39.95) rotate(-33.71)"/><rect class="cls-13" x="61.86" y="33.64" width="2.43" height="17.03" transform="translate(-12.79 42.1) rotate(-33.71)"/><rect class="cls-1" x="63.99" y="29.74" width="1.16" height="22.85" transform="translate(-11.99 42.76) rotate(-33.71)"/><rect class="cls-3" x="64.39" y="27.23" width="7.88" height="22.85" transform="translate(-9.96 44.43) rotate(-33.71)"/><rect class="cls-5" x="71.41" y="32.14" width="2.37" height="7.33" transform="translate(-7.67 46.32) rotate(-33.71)"/><rect class="cls-3" x="72.41" y="29.88" width="4.51" height="9.1" transform="translate(-6.55 47.23) rotate(-33.71)"/><line class="cls-10" x1="75.26" y1="31.26" x2="71.51" y2="33.77"/><line class="cls-10" x1="77.75" y1="34.99" x2="74" y2="37.5"/><rect class="cls-11" x="43.52" y="41.51" width="8.09" height="3.95" rx="1.98" ry="1.98" transform="translate(-10.27 71.92) rotate(-68.62)"/><rect class="cls-12" x="41.51" y="47.31" width="8.09" height="2.62" rx="1.31" ry="1.31" transform="translate(-16.33 73.31) rotate(-68.62)"/><rect class="cls-11" x="39.46" y="51.87" width="8.09" height="3.95" rx="1.98" ry="1.98" transform="translate(-22.49 74.73) rotate(-68.62)"/><rect class="cls-12" x="37.45" y="57.67" width="8.09" height="2.62" rx="1.31" ry="1.31" transform="translate(-28.55 76.12) rotate(-68.62)"/><rect class="cls-11" x="35.41" y="62.23" width="8.09" height="3.95" rx="1.98" ry="1.98" transform="translate(-34.72 77.53) rotate(-68.62)"/><rect class="cls-12" x="33.4" y="68.03" width="8.09" height="2.62" rx="1.31" ry="1.31" transform="translate(-40.78 78.92) rotate(-68.62)"/><rect class="cls-11" x="31.35" y="72.59" width="8.09" height="3.95" rx="1.98" ry="1.98" transform="translate(-46.94 80.34) rotate(-68.62)"/><rect class="cls-12" x="29.34" y="78.39" width="8.09" height="2.62" rx="1.31" ry="1.31" transform="translate(-53 81.73) rotate(-68.62)"/><rect class="cls-12" x="45.35" y="37.5" width="8.09" height="2.62" rx="1.31" ry="1.31" transform="translate(-4.75 70.66) rotate(-68.62)"/><rect class="cls-11" x="48.18" y="55.83" width="3.95" height="8.09" rx="1.98" ry="1.98" transform="translate(-27.62 67.08) rotate(-55.34)"/><rect class="cls-12" x="53.38" y="58.97" width="2.62" height="8.09" rx="1.31" ry="1.31" transform="translate(-28.24 72.17) rotate(-55.34)"/><rect class="cls-11" x="57.33" y="62.16" width="3.95" height="8.09" rx="1.98" ry="1.98" transform="translate(-28.88 77.34) rotate(-55.34)"/><rect class="cls-12" x="62.53" y="65.29" width="2.62" height="8.09" rx="1.31" ry="1.31" transform="translate(-29.5 82.43) rotate(-55.34)"/><rect class="cls-11" x="66.48" y="68.49" width="3.95" height="8.09" rx="1.98" ry="1.98" transform="translate(-30.13 87.6) rotate(-55.34)"/><rect class="cls-12" x="71.69" y="71.62" width="2.62" height="8.09" rx="1.31" ry="1.31" transform="translate(-30.76 92.68) rotate(-55.34)"/><rect class="cls-11" x="75.63" y="74.81" width="3.95" height="8.09" rx="1.98" ry="1.98" transform="translate(-31.39 97.86) rotate(-55.34)"/><rect class="cls-12" x="80.84" y="77.95" width="2.62" height="8.09" rx="1.31" ry="1.31" transform="translate(-32.01 102.94) rotate(-55.34)"/><rect class="cls-12" x="44.71" y="52.97" width="2.62" height="8.09" rx="1.31" ry="1.31" transform="translate(-27.05 62.45) rotate(-55.34)"/></g><g><polygon class="cls-15" points="145.87 186.94 108.14 186.94 100.73 153.87 106.1 150.28 145.87 186.94"/><circle class="cls-15" cx="101.5" cy="180.86" r="6.08"/><circle class="cls-15" cx="157.41" cy="180.57" r="6.37"/><circle class="cls-15" cx="126.36" cy="166.57" r="4.88"/><circle class="cls-15" cx="147.05" cy="173.48" r="8.49"/><path class="cls-15" d="M155.14,176.98l-17.78-.35c-.36,0-.6,.37-.44,.69l4.59,9.34c.08,.17,.25,.27,.43,.27h14.89c.3,0,.53-.27,.47-.57l-1.7-8.99c-.04-.22-.24-.39-.46-.39Z"/><circle class="cls-15" cx="107.58" cy="179.2" r="7.74"/><rect class="cls-15" x="101.5" y="183.19" width="13.83" height="3.75" rx=".45" ry=".45"/><circle class="cls-15" cx="134.04" cy="172.44" r="10.75"/></g></g></g></g></svg>