<?xml version="1.0" encoding="UTF-8"?><svg id="_レイヤー_2" xmlns="http://www.w3.org/2000/svg" viewBox="0 0 304.23 3515.03"><defs><style>.cls-1{fill:#ebe669;}.cls-2{fill:#edbdd4;}.cls-3{stroke-miterlimit:10;}.cls-3,.cls-4{fill:none;stroke:#f3fafe;stroke-width:3px;}.cls-5{fill:#f3fafe;}.cls-6{fill:#82c6da;}.cls-7{fill:#666464;font-family:VDL-LogoJrBlack-Black-90ms-RKSJ-H, VDL-LogoJrBlack;font-size:17px;}</style></defs><g id="_レイヤー_2-2"><g><rect class="cls-5" x="21.5" width="282.74" height="1694.77" rx="19.19" ry="19.19"/><path class="cls-5" d="M30.91,1644.77H294.82c5.19,0,9.41,4.22,9.41,9.41v1835.62c0,13.93-11.31,25.24-25.24,25.24H49.74c-15.59,0-28.24-12.65-28.24-28.24V1654.18c0-5.19,4.22-9.41,9.41-9.41Z"/></g><g><g><path class="cls-3" d="M97.67,2798.39H.8c-.44,0-.8-.36-.8-.8v-17.54c0-2.98,2.41-5.39,5.39-5.39H97.67c.44,0,.8,.36,.8,.8v22.12c0,.44-.36,.8-.8,.8Z"/><circle class="cls-3" cx="7.03" cy="2798.39" r="7.03"/><circle class="cls-3" cx="91.44" cy="2798.39" r="7.03"/><circle class="cls-3" cx="77.37" cy="2798.39" r="7.03"/><circle class="cls-3" cx="63.3" cy="2798.39" r="7.03"/><circle class="cls-3" cx="49.23" cy="2798.39" r="7.03"/><circle class="cls-3" cx="35.17" cy="2798.39" r="7.03"/><circle class="cls-3" cx="21.1" cy="2798.39" r="7.03"/></g><g><path class="cls-2" d="M97.67,2798.39H.8c-.44,0-.8-.36-.8-.8v-17.54c0-2.98,2.41-5.39,5.39-5.39H97.67c.44,0,.8,.36,.8,.8v22.12c0,.44-.36,.8-.8,.8Z"/><circle class="cls-2" cx="7.03" cy="2798.39" r="7.03"/><circle class="cls-2" cx="91.44" cy="2798.39" r="7.03"/><circle class="cls-2" cx="77.37" cy="2798.39" r="7.03"/><circle class="cls-2" cx="63.3" cy="2798.39" r="7.03"/><circle class="cls-2" cx="49.23" cy="2798.39" r="7.03"/><circle class="cls-2" cx="35.17" cy="2798.39" r="7.03"/><circle class="cls-2" cx="21.1" cy="2798.39" r="7.03"/></g><g><path class="cls-2" d="M97.67,2798.39H.8c-.44,0-.8-.36-.8-.8v-17.54c0-2.98,2.41-5.39,5.39-5.39H97.67c.44,0,.8,.36,.8,.8v22.12c0,.44-.36,.8-.8,.8Z"/><circle class="cls-2" cx="7.03" cy="2798.39" r="7.03"/><circle class="cls-2" cx="91.44" cy="2798.39" r="7.03"/><circle class="cls-2" cx="77.37" cy="2798.39" r="7.03"/><circle class="cls-2" cx="63.3" cy="2798.39" r="7.03"/><circle class="cls-2" cx="49.23" cy="2798.39" r="7.03"/><circle class="cls-2" cx="35.17" cy="2798.39" r="7.03"/><circle class="cls-2" cx="21.1" cy="2798.39" r="7.03"/></g></g><g><rect class="cls-2" x="98.47" y="2774.67" width="98.47" height="24.38"/><circle class="cls-2" cx="105.5" cy="2798.39" r="7.03"/><circle class="cls-2" cx="189.9" cy="2798.39" r="7.03"/><circle class="cls-2" cx="175.84" cy="2798.39" r="7.03"/><circle class="cls-2" cx="161.77" cy="2798.39" r="7.03"/><circle class="cls-2" cx="147.7" cy="2798.39" r="7.03"/><circle class="cls-2" cx="133.64" cy="2798.39" r="7.03"/><circle class="cls-2" cx="119.57" cy="2798.39" r="7.03"/></g><g><g><path class="cls-4" d="M97.67,2992.16H.8c-.44,0-.8-.36-.8-.8v-17.54c0-2.98,2.41-5.39,5.39-5.39H97.67c.44,0,.8,.36,.8,.8v22.12c0,.44-.36,.8-.8,.8Z"/><circle class="cls-4" cx="7.03" cy="2992.16" r="7.03"/><circle class="cls-4" cx="91.44" cy="2992.16" r="7.03"/><circle class="cls-4" cx="77.37" cy="2992.16" r="7.03"/><circle class="cls-4" cx="63.3" cy="2992.16" r="7.03"/><circle class="cls-4" cx="49.23" cy="2992.16" r="7.03"/><circle class="cls-4" cx="35.17" cy="2992.16" r="7.03"/><circle class="cls-4" cx="21.1" cy="2992.16" r="7.03"/></g><g><path class="cls-2" d="M97.67,2992.16H.8c-.44,0-.8-.36-.8-.8v-17.54c0-2.98,2.41-5.39,5.39-5.39H97.67c.44,0,.8,.36,.8,.8v22.12c0,.44-.36,.8-.8,.8Z"/><circle class="cls-2" cx="7.03" cy="2992.16" r="7.03"/><circle class="cls-2" cx="91.44" cy="2992.16" r="7.03"/><circle class="cls-2" cx="77.37" cy="2992.16" r="7.03"/><circle class="cls-2" cx="63.3" cy="2992.16" r="7.03"/><circle class="cls-2" cx="49.23" cy="2992.16" r="7.03"/><circle class="cls-2" cx="35.17" cy="2992.16" r="7.03"/><circle class="cls-2" cx="21.1" cy="2992.16" r="7.03"/></g><g><path class="cls-1" d="M97.67,2992.16H.8c-.44,0-.8-.36-.8-.8v-17.54c0-2.98,2.41-5.39,5.39-5.39H97.67c.44,0,.8,.36,.8,.8v22.12c0,.44-.36,.8-.8,.8Z"/><circle class="cls-1" cx="7.03" cy="2992.16" r="7.03"/><circle class="cls-1" cx="91.44" cy="2992.16" r="7.03"/><circle class="cls-1" cx="77.37" cy="2992.16" r="7.03"/><circle class="cls-1" cx="63.3" cy="2992.16" r="7.03"/><circle class="cls-1" cx="49.23" cy="2992.16" r="7.03"/><circle class="cls-1" cx="35.17" cy="2992.16" r="7.03"/><circle class="cls-1" cx="21.1" cy="2992.16" r="7.03"/></g></g><g><rect class="cls-1" x="98.47" y="2968.44" width="98.47" height="24.38"/><circle class="cls-1" cx="105.5" cy="2992.16" r="7.03"/><circle class="cls-1" cx="189.9" cy="2992.16" r="7.03"/><circle class="cls-1" cx="175.84" cy="2992.16" r="7.03"/><circle class="cls-1" cx="161.77" cy="2992.16" r="7.03"/><circle class="cls-1" cx="147.7" cy="2992.16" r="7.03"/><circle class="cls-1" cx="133.64" cy="2992.16" r="7.03"/><circle class="cls-1" cx="119.57" cy="2992.16" r="7.03"/></g><g><g><g><path class="cls-3" d="M97.67,3185.93H.8c-.44,0-.8-.36-.8-.8v-17.54c0-2.98,2.41-5.39,5.39-5.39H97.67c.44,0,.8,.36,.8,.8v22.12c0,.44-.36,.8-.8,.8Z"/><circle class="cls-3" cx="7.03" cy="3185.93" r="7.03"/><circle class="cls-3" cx="91.44" cy="3185.93" r="7.03"/><circle class="cls-3" cx="77.37" cy="3185.93" r="7.03"/><circle class="cls-3" cx="63.3" cy="3185.93" r="7.03"/><circle class="cls-3" cx="49.23" cy="3185.93" r="7.03"/><circle class="cls-3" cx="35.17" cy="3185.93" r="7.03"/><circle class="cls-3" cx="21.1" cy="3185.93" r="7.03"/></g><g><path class="cls-2" d="M97.67,3185.93H.8c-.44,0-.8-.36-.8-.8v-17.54c0-2.98,2.41-5.39,5.39-5.39H97.67c.44,0,.8,.36,.8,.8v22.12c0,.44-.36,.8-.8,.8Z"/><circle class="cls-2" cx="7.03" cy="3185.93" r="7.03"/><circle class="cls-2" cx="91.44" cy="3185.93" r="7.03"/><circle class="cls-2" cx="77.37" cy="3185.93" r="7.03"/><circle class="cls-2" cx="63.3" cy="3185.93" r="7.03"/><circle class="cls-2" cx="49.23" cy="3185.93" r="7.03"/><circle class="cls-2" cx="35.17" cy="3185.93" r="7.03"/><circle class="cls-2" cx="21.1" cy="3185.93" r="7.03"/></g><g><path class="cls-6" d="M97.67,3185.93H.8c-.44,0-.8-.36-.8-.8v-17.54c0-2.98,2.41-5.39,5.39-5.39H97.67c.44,0,.8,.36,.8,.8v22.12c0,.44-.36,.8-.8,.8Z"/><circle class="cls-6" cx="7.03" cy="3185.93" r="7.03"/><circle class="cls-6" cx="91.44" cy="3185.93" r="7.03"/><circle class="cls-6" cx="77.37" cy="3185.93" r="7.03"/><circle class="cls-6" cx="63.3" cy="3185.93" r="7.03"/><circle class="cls-6" cx="49.23" cy="3185.93" r="7.03"/><circle class="cls-6" cx="35.17" cy="3185.93" r="7.03"/><circle class="cls-6" cx="21.1" cy="3185.93" r="7.03"/></g></g><g><rect class="cls-6" x="98.47" y="3162.21" width="98.47" height="24.38"/><circle class="cls-6" cx="105.5" cy="3185.93" r="7.03"/><circle class="cls-6" cx="189.9" cy="3185.93" r="7.03"/><circle class="cls-6" cx="175.84" cy="3185.93" r="7.03"/><circle class="cls-6" cx="161.77" cy="3185.93" r="7.03"/><circle class="cls-6" cx="147.7" cy="3185.93" r="7.03"/><circle class="cls-6" cx="133.64" cy="3185.93" r="7.03"/><circle class="cls-6" cx="119.57" cy="3185.93" r="7.03"/></g></g><g><g><path class="cls-3" d="M108.97,3379.7H12.11c-.44,0-.8-.36-.8-.8v-17.54c0-2.98,2.41-5.39,5.39-5.39H108.97c.44,0,.8,.36,.8,.8v22.12c0,.44-.36,.8-.8,.8Z"/><circle class="cls-3" cx="18.34" cy="3379.7" r="7.03"/><circle class="cls-3" cx="102.74" cy="3379.7" r="7.03"/><circle class="cls-3" cx="88.67" cy="3379.7" r="7.03"/><circle class="cls-3" cx="74.61" cy="3379.7" r="7.03"/><circle class="cls-3" cx="60.54" cy="3379.7" r="7.03"/><circle class="cls-3" cx="46.47" cy="3379.7" r="7.03"/><circle class="cls-3" cx="32.4" cy="3379.7" r="7.03"/></g><g><path class="cls-2" d="M108.97,3379.7H12.11c-.44,0-.8-.36-.8-.8v-17.54c0-2.98,2.41-5.39,5.39-5.39H108.97c.44,0,.8,.36,.8,.8v22.12c0,.44-.36,.8-.8,.8Z"/><circle class="cls-2" cx="18.34" cy="3379.7" r="7.03"/><circle class="cls-2" cx="102.74" cy="3379.7" r="7.03"/><circle class="cls-2" cx="88.67" cy="3379.7" r="7.03"/><circle class="cls-2" cx="74.61" cy="3379.7" r="7.03"/><circle class="cls-2" cx="60.54" cy="3379.7" r="7.03"/><circle class="cls-2" cx="46.47" cy="3379.7" r="7.03"/><circle class="cls-2" cx="32.4" cy="3379.7" r="7.03"/></g><g><path class="cls-2" d="M108.97,3379.7H12.11c-.44,0-.8-.36-.8-.8v-17.54c0-2.98,2.41-5.39,5.39-5.39H108.97c.44,0,.8,.36,.8,.8v22.12c0,.44-.36,.8-.8,.8Z"/><circle class="cls-2" cx="18.34" cy="3379.7" r="7.03"/><circle class="cls-2" cx="102.74" cy="3379.7" r="7.03"/><circle class="cls-2" cx="88.67" cy="3379.7" r="7.03"/><circle class="cls-2" cx="74.61" cy="3379.7" r="7.03"/><circle class="cls-2" cx="60.54" cy="3379.7" r="7.03"/><circle class="cls-2" cx="46.47" cy="3379.7" r="7.03"/><circle class="cls-2" cx="32.4" cy="3379.7" r="7.03"/></g></g><g><rect class="cls-2" x="109.77" y="3355.98" width="98.47" height="24.38"/><circle class="cls-2" cx="116.81" cy="3379.7" r="7.03"/><circle class="cls-2" cx="201.21" cy="3379.7" r="7.03"/><circle class="cls-2" cx="187.14" cy="3379.7" r="7.03"/><circle class="cls-2" cx="173.08" cy="3379.7" r="7.03"/><circle class="cls-2" cx="159.01" cy="3379.7" r="7.03"/><circle class="cls-2" cx="144.94" cy="3379.7" r="7.03"/><circle class="cls-2" cx="130.87" cy="3379.7" r="7.03"/></g></g><g id="_レイヤー_3"><text class="cls-7" transform="translate(42.2 2795.49)"><tspan x="0" y="0">unknown</tspan></text><text class="cls-7" transform="translate(38.92 2987.74)"><tspan x="0" y="0">おはよう世界！</tspan></text><text class="cls-7" transform="translate(70.73 3183.02)"><tspan x="0" y="0">チア部</tspan></text><text class="cls-7" transform="translate(77.37 3376.32)"><tspan x="0" y="0">ダンス部</tspan></text></g></svg>