<svg xmlns="http://www.w3.org/2000/svg" viewBox="0 0 137.25 39.81"><defs><style>.cls-1{fill:#e2bf57;}.cls-2{fill:#f3f9f8;}.cls-3{fill:#5e5c5c;}</style></defs><g id="レイヤー_2" data-name="レイヤー 2"><g id="map"><rect class="cls-1" y="8.54" width="137.25" height="31.27" rx="15.63"/><rect class="cls-2" width="137.25" height="31.27" rx="15.63"/><path class="cls-3" d="M61,18.89h-5.8V20H69v7.3H46.58V13.18H59.85c.76,0,1-.31,1-.76V12.3c0-.48-.36-.7-1-.7H46.58V4.33H61c6.14,0,8.59,2.76,8.59,7.49v.51C69.62,15.8,67.79,18.89,61,18.89Z"/><path class="cls-3" d="M82.89,11.85c-1.71,0-2,.59-2,2.17v.23H93.71v6.59H80.84v6.42h-8.4V14.16c0-6.65,2.79-9.88,8.71-9.88H94.39v7.57Z"/></g></g></svg>