<svg xmlns="http://www.w3.org/2000/svg" viewBox="0 0 442.7 251.1"><defs><style>
.cls-1{fill:#fef9e4;}
.cls-2{fill:#666;}
.cls-10,.cls-11,.cls-12,.cls-13,.cls-2,.cls-21,.cls-22,.cls-3,.cls-4,.cls-5,.cls-6,.cls-7,.cls-8,
.cls-9{stroke:#5e5c5c;}
.cls-11,.cls-12,.cls-13,.cls-2,.cls-21,.cls-22,.cls-3,.cls-4,.cls-5,.cls-6,.cls-7,.cls-8,
.cls-9{stroke-linejoin:round;}
.cls-3{fill:#f7ea67;}
.cls-4{fill:#b2e0f8;}
.cls-5{fill:#e3776a;}
.cls-22,.cls-6{fill:none;}.cls-17,
.cls-7{fill:#f3f9f8;}
.cls-8{fill:#76b5de;}
.cls-9{fill:#f2bfd7;}.cls-10,
.cls-11{fill:#bbe1e7;}.cls-11,
.cls-22{stroke-width:3px;}
.cls-12{fill:#f7ca88;}
.cls-13{fill:#69bd83;}
.cls-14{fill:#c35f5a;}
.cls-15{fill:#4d4e4f;}
.cls-16{fill:#46976c;}
.cls-18{fill:#daa86e;}
.cls-19{fill:#dbcc5c;}
.cls-20{fill:#8ab7d6;}
.cls-21{fill:#fff;}
.cls-22{stroke-linecap:round;}
.cls-23{fill:#5e5c5c;}
</style>
</defs><g id="レイヤー_2" data-name="レイヤー 2"><g id="map"><g id="_2F" data-name="2F"><polygon class="cls-1" points="1.5 1.5 1.5 63.48 45.47 63.48 45.47 87.03 86.06 87.03 115.67 87.03 115.67 164.07 86.06 164.07 45.47 164.07 45.47 187.77 45.47 249.6 441.2 249.6 441.2 1.5 1.5 1.5"/><rect class="cls-2" x="1.5" y="1.5" width="43.97" height="45.04"/><rect class="cls-3" x="45.47" y="1.5" width="43.97" height="45.04"/><rect class="cls-4" x="89.44" y="1.5" width="43.97" height="45.04"/><rect class="cls-5" x="133.41" y="1.5" width="43.97" height="45.04"/><rect class="cls-3" x="177.38" y="1.5" width="43.97" height="45.04"/><path class="cls-6" d="M104.15,249.6s0-40,30.34-40.62"/><path class="cls-6" d="M110.47,249.6s.52-32.33,24-32.88"/><path class="cls-6" d="M116.75,249.6s-.38-24.39,17.74-25.22"/><rect class="cls-7" x="134.49" y="204.55" width="84.62" height="45.04"/><rect class="cls-7" x="219.14" y="204.55" width="47.26" height="45.04"/><rect class="cls-7" x="265.67" y="204.55" width="87.6" height="45.04"/><rect class="cls-7" x="353.26" y="204.55" width="87.94" height="45.04"/><rect class="cls-7" x="133.41" y="87.03" width="101.52" height="77.05"/><rect class="cls-7" x="133.41" y="164.07" width="11.93" height="11.85"/><rect class="cls-7" x="133.41" y="175.92" width="11.93" height="11.85"/><rect class="cls-8" x="145.34" y="164.07" width="21.8" height="23.7"/><rect class="cls-9" x="167.14" y="164.07" width="16.98" height="23.7"/><rect class="cls-7" x="184.12" y="164.07" width="33.9" height="23.7"/><rect class="cls-7" x="218.03" y="164.07" width="53.17" height="23.7"/><rect class="cls-7" x="271.2" y="164.07" width="53.17" height="23.7"/><rect class="cls-7" x="324.37" y="164.07" width="15.64" height="23.7"/><rect class="cls-7" x="340.01" y="164.07" width="30.06" height="23.7"/><rect class="cls-7" x="370.07" y="164.07" width="15.64" height="23.7"/><rect class="cls-7" x="370.07" y="125.55" width="56.22" height="38.53"/><rect class="cls-7" x="370.07" y="87.03" width="56.22" height="38.52"/><rect class="cls-3" x="363.91" y="63.33" width="21.8" height="23.7"/><rect class="cls-9" x="347.17" y="63.33" width="16.74" height="23.7"/><rect class="cls-10" x="309.29" y="63.33" width="37.88" height="23.7"/><rect class="cls-8" x="133.41" y="63.33" width="21.98" height="23.7"/><rect class="cls-9" x="155.39" y="63.33" width="17.11" height="23.7"/><rect class="cls-7" x="172.5" y="63.33" width="92.82" height="23.7"/><rect class="cls-11" x="234.93" y="87.03" width="135.14" height="77.05"/><rect class="cls-12" x="221.35" y="1.5" width="43.97" height="45.04"/><rect class="cls-13" x="265.32" y="1.5" width="43.97" height="45.04"/><rect class="cls-2" x="309.29" y="1.5" width="43.97" height="45.04"/><rect class="cls-12" x="353.26" y="1.5" width="43.97" height="45.04"/><rect class="cls-5" x="397.23" y="1.5" width="43.97" height="45.04"/><path class="cls-10" d="M179.59,124.86c0,10-5.83,18.13-13,18.13s-13-8.12-13-18.13,5.83-18.12,13-18.12S179.59,114.85,179.59,124.86Z"/><rect class="cls-14" x="141.2" y="15.9" width="28.16" height="16.24" rx="2.07"/><rect class="cls-15" x="10.44" y="16" width="28.16" height="16.24" rx="2.07"/><rect class="cls-15" x="317.64" y="16.21" width="28.16" height="16.24" rx="2.07"/><rect class="cls-14" x="404.39" y="15.9" width="28.16" height="16.24" rx="2.07"/><rect class="cls-16" x="273.93" y="16" width="28.16" height="16.24" rx="2.07"/><path class="cls-17" d="M21.29,28.52a8.16,8.16,0,0,1-2.8.5c-4.24,0-4.78-3.35-4.78-4.9a4.73,4.73,0,0,1,5-5.05,5.56,5.56,0,0,1,2.28.41l-.33,1.21a4.58,4.58,0,0,0-2-.37c-2,0-3.46,1.26-3.46,3.73s1.34,3.76,3.26,3.76a3.23,3.23,0,0,0,1.31-.2V24.85H18.16V23.67h3.13Z"/><path class="cls-17" d="M26.31,23.75a2.42,2.42,0,0,1,2,2.43c0,1.57-1.2,2.88-3.4,2.88a4.59,4.59,0,0,1-2.36-.6L23,27.33a3.78,3.78,0,0,0,1.91.54,1.73,1.73,0,0,0,1.93-1.74c0-1.24-1-1.81-2.19-1.81H24V23.26h.63c.83,0,1.92-.49,1.92-1.55A1.33,1.33,0,0,0,25,20.36a3.31,3.31,0,0,0-1.72.57l-.37-1.06a4.43,4.43,0,0,1,2.42-.7c1.81,0,2.69,1.08,2.69,2.31a2.39,2.39,0,0,1-1.72,2.24Z"/><path class="cls-17" d="M33.51,25.68c0,2.58-1.23,3.38-2.95,3.38a4.27,4.27,0,0,1-1.28-.19l.18-1.22a3.08,3.08,0,0,0,1,.15c1,0,1.59-.44,1.59-2.17V19.16h1.49Z"/><rect class="cls-18" x="361.17" y="15.9" width="28.16" height="16.24" rx="2.07"/><rect class="cls-19" x="53.38" y="16" width="28.16" height="16.24" rx="2.07"/><rect class="cls-20" x="97.81" y="15.9" width="28.16" height="16.24" rx="2.07"/><rect class="cls-18" x="230.18" y="16.21" width="28.16" height="16.24" rx="2.07"/><rect class="cls-19" x="185.63" y="16" width="28.16" height="16.24" rx="2.07"/><path class="cls-17" d="M64.89,28.52a8.09,8.09,0,0,1-2.79.5c-4.24,0-4.78-3.35-4.78-4.9a4.73,4.73,0,0,1,5-5.05,5.52,5.52,0,0,1,2.28.41l-.33,1.21a4.51,4.51,0,0,0-2-.37c-2,0-3.46,1.26-3.46,3.73s1.35,3.76,3.27,3.76a3.26,3.26,0,0,0,1.31-.2V24.85H61.77V23.67h3.12Z"/><path class="cls-17" d="M69.92,23.75a2.41,2.41,0,0,1,2,2.43c0,1.57-1.2,2.88-3.39,2.88a4.56,4.56,0,0,1-2.36-.6l.38-1.13a3.85,3.85,0,0,0,1.91.54,1.73,1.73,0,0,0,1.94-1.74c0-1.24-1-1.81-2.19-1.81h-.66V23.26h.63c.84,0,1.93-.49,1.93-1.55a1.33,1.33,0,0,0-1.52-1.35,3.27,3.27,0,0,0-1.71.57l-.38-1.06a4.5,4.5,0,0,1,2.43-.7c1.8,0,2.69,1.08,2.69,2.31a2.4,2.4,0,0,1-1.72,2.24Z"/><path class="cls-17" d="M73.88,19.17h1.49v9.75H73.88Z"/><path class="cls-17" d="M107.29,28.52a8.21,8.21,0,0,1-2.8.5c-4.24,0-4.78-3.35-4.78-4.9a4.73,4.73,0,0,1,5-5.05,5.56,5.56,0,0,1,2.28.41l-.34,1.21a4.49,4.49,0,0,0-1.94-.37c-2,0-3.47,1.26-3.47,3.73s1.35,3.76,3.27,3.76a3.26,3.26,0,0,0,1.31-.2V24.85h-1.69V23.67h3.13Z"/><path class="cls-17" d="M112.31,23.75a2.42,2.42,0,0,1,2,2.43c0,1.57-1.21,2.88-3.4,2.88a4.59,4.59,0,0,1-2.36-.6l.39-1.13a3.78,3.78,0,0,0,1.91.54,1.73,1.73,0,0,0,1.93-1.74c0-1.24-1-1.81-2.19-1.81H110V23.26h.63c.83,0,1.92-.49,1.92-1.55A1.33,1.33,0,0,0,111,20.36a3.31,3.31,0,0,0-1.72.57l-.37-1.06a4.43,4.43,0,0,1,2.42-.7c1.81,0,2.69,1.08,2.69,2.31a2.39,2.39,0,0,1-1.72,2.24Z"/><path class="cls-17" d="M123.25,28.92h-1.49V24.48h-4v4.44h-1.48V19.16h1.48v4h4v-4h1.49Z"/><path class="cls-17" d="M151.54,28.52a8.21,8.21,0,0,1-2.8.5c-4.24,0-4.78-3.35-4.78-4.9a4.73,4.73,0,0,1,5-5.05,5.56,5.56,0,0,1,2.28.41l-.34,1.21a4.49,4.49,0,0,0-1.94-.37c-2,0-3.47,1.26-3.47,3.73s1.35,3.76,3.27,3.76a3.26,3.26,0,0,0,1.31-.2V24.85h-1.69V23.67h3.13Z"/><path class="cls-17" d="M155.55,28.92V20.68h0l-1.63.89-.34-1.09,2.18-1.16H157v9.6Z"/><path class="cls-17" d="M160.53,28.92V19.17h5.1v1.24H162v3h3.36v1.23H162v4.28Z"/><path class="cls-17" d="M196,28.52a8.16,8.16,0,0,1-2.8.5c-4.24,0-4.78-3.35-4.78-4.9a4.73,4.73,0,0,1,5-5.05,5.56,5.56,0,0,1,2.28.41l-.33,1.21a4.51,4.51,0,0,0-2-.37c-2,0-3.46,1.26-3.46,3.73s1.34,3.76,3.27,3.76a3.17,3.17,0,0,0,1.3-.2V24.85h-1.69V23.67H196Z"/><path class="cls-17" d="M200,28.92V20.68h0l-1.63.89L198,20.48l2.18-1.16h1.25v9.6Z"/><path class="cls-17" d="M210.29,28.92H205V19.17h5.13v1.24h-3.64v2.81h3.43v1.23h-3.43v3.23h3.85Z"/><path class="cls-17" d="M283.9,28.52a8.14,8.14,0,0,1-2.79.5c-4.25,0-4.78-3.35-4.78-4.9a4.73,4.73,0,0,1,5-5.05,5.56,5.56,0,0,1,2.28.41l-.33,1.21a4.51,4.51,0,0,0-1.95-.37c-2,0-3.46,1.26-3.46,3.73s1.34,3.76,3.27,3.76a3.26,3.26,0,0,0,1.31-.2V24.85h-1.7V23.67h3.13Z"/><path class="cls-17" d="M287.92,28.92V20.68h0l-1.63.89-.33-1.09,2.18-1.16h1.25v9.6Z"/><path class="cls-17" d="M299.23,28.65a5.52,5.52,0,0,1-2.3.41c-2.73,0-4.57-1.8-4.57-4.91,0-3.31,2.11-5.12,4.82-5.12a4.79,4.79,0,0,1,2.09.38L299,20.62a4.06,4.06,0,0,0-1.72-.35c-1.89,0-3.3,1.27-3.3,3.81s1.25,3.73,3.28,3.73a4.46,4.46,0,0,0,1.77-.34Z"/><path class="cls-17" d="M370.85,20.43h-2.66v8.49h-1.48V20.43h-2.64V19.17h6.78Z"/><path class="cls-17" d="M375.19,23.75a2.42,2.42,0,0,1,2,2.43c0,1.57-1.2,2.88-3.4,2.88a4.59,4.59,0,0,1-2.36-.6l.39-1.13a3.78,3.78,0,0,0,1.91.54,1.73,1.73,0,0,0,1.93-1.74c0-1.24-1.05-1.81-2.19-1.81h-.65V23.26h.63c.83,0,1.92-.49,1.92-1.55a1.33,1.33,0,0,0-1.51-1.35,3.31,3.31,0,0,0-1.72.57l-.37-1.06a4.43,4.43,0,0,1,2.42-.7c1.81,0,2.69,1.08,2.69,2.31a2.39,2.39,0,0,1-1.72,2.24Z"/><path class="cls-17" d="M379.16,19.3a15.16,15.16,0,0,1,2.5-.2c4.17,0,5,2.56,5,4.72v0a5.23,5.23,0,0,1-1.41,3.88,5.71,5.71,0,0,1-4,1.29,15.17,15.17,0,0,1-2.12-.12Zm1.48,8.47a7,7,0,0,0,1,.05c2.21,0,3.54-1.27,3.54-4,0-2.37-1.23-3.59-3.34-3.59a6.11,6.11,0,0,0-1.16.1Z"/><path class="cls-17" d="M328,28.52a8.21,8.21,0,0,1-2.8.5c-4.24,0-4.78-3.35-4.78-4.9a4.73,4.73,0,0,1,5-5.05,5.58,5.58,0,0,1,2.29.41l-.34,1.21a4.51,4.51,0,0,0-1.95-.37c-2,0-3.46,1.26-3.46,3.73s1.35,3.76,3.27,3.76a3.26,3.26,0,0,0,1.31-.2V24.85h-1.69V23.67H328Z"/><path class="cls-17" d="M332,28.92V20.68h0l-1.62.89L330,20.48l2.18-1.16h1.26v9.6Z"/><path class="cls-17" d="M341.14,23.7a2.44,2.44,0,0,1,2,2.43,2.54,2.54,0,0,1-.84,2,4.71,4.71,0,0,1-3.35.92,16.09,16.09,0,0,1-2-.12V19.3a12,12,0,0,1,2.3-.2c3,0,3.5,1.45,3.5,2.43a2.29,2.29,0,0,1-1.62,2.13Zm-1.79-.46c1.18,0,1.92-.65,1.92-1.56,0-1.17-.95-1.46-1.87-1.46a4.68,4.68,0,0,0-1,.07v2.95Zm-.91,4.58a5.39,5.39,0,0,0,.9.05c1.19,0,2.21-.49,2.21-1.78s-1.11-1.76-2.25-1.76h-.86Z"/><path class="cls-17" d="M239.74,28.52a8.16,8.16,0,0,1-2.8.5c-4.24,0-4.78-3.35-4.78-4.9a4.73,4.73,0,0,1,5-5.05,5.56,5.56,0,0,1,2.28.41l-.33,1.21a4.58,4.58,0,0,0-1.95-.37c-2,0-3.46,1.26-3.46,3.73s1.34,3.76,3.26,3.76a3.23,3.23,0,0,0,1.31-.2V24.85h-1.69V23.67h3.13Z"/><path class="cls-17" d="M243.75,28.92V20.68h0l-1.63.89-.33-1.09,2.17-1.16h1.26v9.6Z"/><path class="cls-17" d="M248.73,19.3a15.16,15.16,0,0,1,2.5-.2c4.17,0,5,2.56,5,4.72v0a5.19,5.19,0,0,1-1.41,3.88,5.71,5.71,0,0,1-4,1.29,15.17,15.17,0,0,1-2.12-.12Zm1.48,8.47a7,7,0,0,0,1,.05c2.2,0,3.53-1.27,3.53-4,0-2.37-1.23-3.59-3.34-3.59a6.11,6.11,0,0,0-1.16.1Z"/><polyline class="cls-7" points="426.3 164.07 385.71 164.07 385.71 187.77 426.3 187.77 426.3 164.07 426.3 175.92"/><line class="cls-21" x1="398.19" y1="164.07" x2="398.19" y2="187.77"/><line class="cls-21" x1="401.31" y1="164.07" x2="401.31" y2="187.77"/><line class="cls-21" x1="404.43" y1="164.07" x2="404.43" y2="187.77"/><line class="cls-21" x1="407.56" y1="164.07" x2="407.56" y2="187.77"/><line class="cls-21" x1="410.68" y1="164.07" x2="410.68" y2="187.77"/><line class="cls-21" x1="413.8" y1="164.07" x2="413.8" y2="187.77"/><line class="cls-21" x1="416.93" y1="164.07" x2="416.93" y2="187.77"/><line class="cls-21" x1="420.05" y1="164.07" x2="420.05" y2="187.77"/><line class="cls-21" x1="423.17" y1="164.07" x2="423.17" y2="187.77"/><polyline class="cls-7" points="86.06 164.06 45.47 164.06 45.47 187.75 86.06 187.75 86.06 164.06 86.06 175.91"/><line class="cls-21" x1="57.95" y1="164.06" x2="57.95" y2="187.76"/><line class="cls-21" x1="61.07" y1="164.06" x2="61.07" y2="187.76"/><line class="cls-21" x1="64.19" y1="164.06" x2="64.19" y2="187.76"/><line class="cls-21" x1="67.32" y1="164.06" x2="67.32" y2="187.76"/><line class="cls-21" x1="70.44" y1="164.06" x2="70.44" y2="187.76"/><line class="cls-21" x1="73.56" y1="164.06" x2="73.56" y2="187.76"/><line class="cls-21" x1="76.69" y1="164.06" x2="76.69" y2="187.76"/><line class="cls-21" x1="79.81" y1="164.06" x2="79.81" y2="187.76"/><line class="cls-21" x1="82.93" y1="164.06" x2="82.93" y2="187.76"/><polyline class="cls-7" points="86.06 63.33 45.47 63.33 45.47 87.03 86.06 87.03 86.06 63.33 86.06 75.18"/><line class="cls-21" x1="57.95" y1="63.33" x2="57.95" y2="87.03"/><line class="cls-21" x1="61.07" y1="63.33" x2="61.07" y2="87.03"/><line class="cls-21" x1="64.19" y1="63.33" x2="64.19" y2="87.03"/><line class="cls-21" x1="67.32" y1="63.33" x2="67.32" y2="87.03"/><line class="cls-21" x1="70.44" y1="63.33" x2="70.44" y2="87.03"/><line class="cls-21" x1="73.56" y1="63.33" x2="73.56" y2="87.03"/><line class="cls-21" x1="76.69" y1="63.33" x2="76.69" y2="87.03"/><line class="cls-21" x1="79.81" y1="63.33" x2="79.81" y2="87.03"/><line class="cls-21" x1="82.93" y1="63.33" x2="82.93" y2="87.03"/><polyline class="cls-7" points="426.3 63.33 385.71 63.33 385.71 87.03 426.3 87.03 426.3 63.33 426.3 75.18"/><line class="cls-21" x1="398.19" y1="63.33" x2="398.19" y2="87.03"/><line class="cls-21" x1="401.31" y1="63.33" x2="401.31" y2="87.03"/><line class="cls-21" x1="404.43" y1="63.33" x2="404.43" y2="87.03"/><line class="cls-21" x1="407.56" y1="63.33" x2="407.56" y2="87.03"/><line class="cls-21" x1="410.68" y1="63.33" x2="410.68" y2="87.03"/><line class="cls-21" x1="413.8" y1="63.33" x2="413.8" y2="87.03"/><line class="cls-21" x1="416.93" y1="63.33" x2="416.93" y2="87.03"/><line class="cls-21" x1="420.05" y1="63.33" x2="420.05" y2="87.03"/><line class="cls-21" x1="423.17" y1="63.33" x2="423.17" y2="87.03"/><polygon class="cls-22" points="1.5 1.5 1.5 63.48 45.47 63.48 45.47 87.03 86.06 87.03 115.67 87.03 115.67 164.07 86.06 164.07 45.47 164.07 45.47 187.77 45.47 249.6 441.2 249.6 441.2 1.5 1.5 1.5"/><line class="cls-6" x1="86.06" y1="175.91" x2="57.95" y2="175.91"/><line class="cls-6" x1="86.06" y1="75.18" x2="57.95" y2="75.18"/><line class="cls-6" x1="426.3" y1="175.92" x2="398.18" y2="175.92"/><line class="cls-6" x1="426.3" y1="75.18" x2="398.19" y2="75.18"/><circle class="cls-17" cx="156.24" cy="172.17" r="2.02"/><rect class="cls-17" x="154.22" y="174.84" width="4.04" height="6.85" rx="0.89"/><circle class="cls-17" cx="144.4" cy="71.21" r="2.02"/><rect class="cls-17" x="142.39" y="73.89" width="4.04" height="6.85" rx="0.89"/><circle class="cls-17" cx="374.81" cy="71.41" r="2.02"/><circle class="cls-17" cx="355.54" cy="71.41" r="2.02"/><path class="cls-17" d="M357.6,80.94h-4.12a.83.83,0,0,1-.82-1l.76-5.2a.84.84,0,0,1,.82-.71h2.6a.84.84,0,0,1,.82.71l.76,5.2A.83.83,0,0,1,357.6,80.94Z"/><circle class="cls-17" cx="164.4" cy="71.66" r="2.02"/><path class="cls-17" d="M166.46,81.18h-4.12a.82.82,0,0,1-.82-.94l.76-5.2a.83.83,0,0,1,.82-.71h2.6a.83.83,0,0,1,.82.71l.76,5.2A.83.83,0,0,1,166.46,81.18Z"/><circle class="cls-17" cx="175.63" cy="172.17" r="2.02"/><path class="cls-17" d="M177.69,181.69h-4.12a.83.83,0,0,1-.82-.94l.76-5.2a.83.83,0,0,1,.82-.71h2.6a.82.82,0,0,1,.82.71l.76,5.2A.82.82,0,0,1,177.69,181.69Z"/><path class="cls-17" d="M414.41,20.43h-2.65v8.49h-1.49V20.43h-2.64V19.17h6.78Z"/><path class="cls-17" d="M418.76,23.75a2.42,2.42,0,0,1,2,2.43c0,1.57-1.21,2.88-3.4,2.88a4.56,4.56,0,0,1-2.36-.6l.39-1.13a3.78,3.78,0,0,0,1.91.54,1.73,1.73,0,0,0,1.93-1.74c0-1.24-1.05-1.81-2.19-1.81h-.65V23.26H417c.84,0,1.93-.49,1.93-1.55a1.33,1.33,0,0,0-1.52-1.35,3.27,3.27,0,0,0-1.71.57l-.38-1.06a4.5,4.5,0,0,1,2.43-.7c1.8,0,2.69,1.08,2.69,2.31a2.4,2.4,0,0,1-1.72,2.24Z"/><path class="cls-17" d="M429.84,28.92h-1.57l-.88-2.87h-3l-.85,2.87H422l3-9.75h1.82Zm-2.69-4-.77-2.55c-.18-.64-.35-1.32-.49-1.92h0c-.14.6-.29,1.31-.46,1.91l-.78,2.56Z"/><path class="cls-23" d="M282.88,75.81v.51h-1.77c-.28,1.82-.61,1.93-1.48,1.93-.3,0-.69,0-1.09,0a1.22,1.22,0,0,0-.19-.53c.59.06,1.16.07,1.37.07a.54.54,0,0,0,.39-.1,2.51,2.51,0,0,0,.44-1.33h-5.12v-.51h5.2l.11-1.06h-3.37l-.07.29-.57-.06c.26-.84.57-2.28.76-3.32l.71.07c0,.07-.07.1-.17.11,0,.26-.11.55-.18.85h3.64v.5h-3.74c-.09.36-.17.72-.25,1.06h3.4l.12,0,.33.08c-.05.21-.14,1.26-.18,1.5Zm-6.68-4.24v1.27h-.56V71.05h7v1.79h-.56V71.57Z"/><path class="cls-23" d="M291.09,76.19v.48h-7.41v-.48Zm-4.43,1a.56.56,0,0,1-.17.06,11,11,0,0,1-2.42,1,4.67,4.67,0,0,0-.38-.4,10,10,0,0,0,2.42-1Zm.42-4.81v-.6h-3.16v-.47h3.16v-.73l.74,0c0,.06-.06.1-.17.12v.56h3.22v.47h-3.22v.6H290v3.3h-5v-3.3Zm2.34,1v-.59h-3.93v.59Zm0,1v-.58h-3.93v.58Zm0,1v-.61h-3.93v.61Zm1.25,3a20.71,20.71,0,0,0-2.48-1l.36-.35a27,27,0,0,1,2.58,1Z"/><path class="cls-23" d="M294.45,73.76a10.56,10.56,0,0,0,.52-1.59l.64.18c0,.05-.08.08-.17.08-.13.41-.34,1-.52,1.41h1.22v.51H291.8v-.51h2.9ZM296,71.55v.5h-4v-.5h1.72v-1l.7,0c0,.06-.06.1-.16.12v.8Zm-3.63,6.7V75.12h3.26V78.2h-.53v-.42h-2.2v.47Zm.63-6a5.52,5.52,0,0,1,.4,1.35l-.49.11a6.12,6.12,0,0,0-.36-1.36Zm2.1,3.37h-2.2v1.67h2.2Zm4-4.56.36.18a.1.1,0,0,1-.07.08c-.31.7-.75,1.59-1.2,2.46.89.83,1.26,1.45,1.26,2,0,1.3-.9,1.3-1.44,1.3h-.38a1.23,1.23,0,0,0-.18-.55l.51,0c.55,0,.94,0,.94-.78,0-.54-.4-1.12-1.3-1.94.4-.82.76-1.59,1-2.26H297v6.63h-.53V71.08H299Z"/></g></g></g></svg>