<?xml version="1.0" encoding="UTF-8"?><svg id="_レイヤー_2" xmlns="http://www.w3.org/2000/svg" viewBox="0 0 442.7 251.1"><defs><style>.cls-1,.cls-2,.cls-3,.cls-4,.cls-5,.cls-6,.cls-7,.cls-8,.cls-9,.cls-10,.cls-11,.cls-12,.cls-13{stroke:#5e5c5c;}.cls-1,.cls-2,.cls-3,.cls-4,.cls-5,.cls-6,.cls-7,.cls-8,.cls-10,.cls-11,.cls-12,.cls-13{stroke-linejoin:round;}.cls-1,.cls-14{fill:#f3f9f8;}.cls-2{fill:#f2bfd7;}.cls-3{fill:#f7ea67;}.cls-4{fill:#b2e0f8;}.cls-15{fill:#fef9e4;}.cls-5,.cls-9{fill:#bbe1e7;}.cls-5,.cls-13{stroke-width:3px;}.cls-6{fill:#76b5de;}.cls-7{fill:#666;}.cls-8,.cls-13{fill:none;}.cls-10{fill:#e3776a;}.cls-11{fill:#69bd83;}.cls-12{fill:#fff;}.cls-13{stroke-linecap:round;}</style></defs><g id="map"><g id="_2F"><g><polygon class="cls-15" points="1.5 1.5 1.5 63.48 45.47 63.48 45.47 87.03 86.06 87.03 115.67 87.03 115.67 164.07 86.06 164.07 45.47 164.07 45.47 187.77 45.47 249.6 441.2 249.6 441.2 1.5 1.5 1.5"/><rect class="cls-7" x="1.5" y="1.5" width="43.97" height="45.04"/><rect class="cls-3" x="45.47" y="1.5" width="43.97" height="45.04"/><rect class="cls-4" x="89.44" y="1.5" width="43.97" height="45.04"/><rect class="cls-7" x="133.41" y="1.5" width="43.97" height="45.04"/><rect class="cls-4" x="177.38" y="1.5" width="43.97" height="45.04"/><path class="cls-8" d="M104.15,249.6s0-40.03,30.35-40.62"/><path class="cls-8" d="M110.47,249.6s.53-32.33,24.03-32.88"/><path class="cls-8" d="M116.75,249.6s-.38-24.39,17.74-25.23"/><rect class="cls-1" x="134.49" y="204.55" width="84.62" height="45.04"/><rect class="cls-1" x="219.14" y="204.55" width="47.26" height="45.04"/><rect class="cls-1" x="265.67" y="204.55" width="87.6" height="45.04"/><rect class="cls-1" x="353.26" y="204.55" width="87.94" height="45.04"/><rect class="cls-1" x="133.41" y="87.03" width="101.52" height="77.05"/><rect class="cls-1" x="133.41" y="164.07" width="11.93" height="11.85"/><rect class="cls-1" x="133.41" y="175.92" width="11.93" height="11.85"/><rect class="cls-6" x="145.34" y="164.07" width="21.8" height="23.7"/><rect class="cls-2" x="167.14" y="164.07" width="16.98" height="23.7"/><rect class="cls-1" x="184.12" y="164.07" width="33.9" height="23.7"/><rect class="cls-1" x="218.03" y="164.07" width="53.17" height="23.7"/><rect class="cls-1" x="271.2" y="164.07" width="53.17" height="23.7"/><rect class="cls-1" x="324.37" y="164.07" width="15.64" height="23.7"/><rect class="cls-1" x="340.01" y="164.07" width="30.06" height="23.7"/><rect class="cls-1" x="370.07" y="164.07" width="15.64" height="23.7"/><rect class="cls-1" x="370.07" y="125.55" width="56.22" height="38.53"/><rect class="cls-1" x="370.07" y="87.03" width="56.22" height="38.52"/><rect class="cls-6" x="363.91" y="63.33" width="21.8" height="23.7"/><rect class="cls-2" x="347.17" y="63.33" width="16.74" height="23.7"/><rect class="cls-9" x="309.29" y="63.33" width="37.88" height="23.7"/><rect class="cls-6" x="133.41" y="63.33" width="21.98" height="23.7"/><rect class="cls-2" x="155.39" y="63.33" width="17.11" height="23.7"/><rect class="cls-1" x="172.5" y="63.33" width="92.82" height="23.7"/><rect class="cls-5" x="234.93" y="87.03" width="135.14" height="77.05"/><rect class="cls-10" x="221.35" y="1.5" width="43.97" height="45.04"/><rect class="cls-11" x="265.32" y="1.5" width="43.97" height="45.04"/><rect class="cls-7" x="309.29" y="1.5" width="43.97" height="45.04"/><rect class="cls-7" x="353.26" y="1.5" width="43.97" height="45.04"/><rect class="cls-11" x="397.23" y="1.5" width="43.97" height="45.04"/><path class="cls-9" d="M179.59,124.86c0,10.01-5.83,18.13-13.03,18.13s-13.03-8.12-13.03-18.13,5.83-18.13,13.03-18.13,13.03,8.11,13.03,18.13Z"/><g><path class="cls-14" d="M21.29,28.52c-.55,.22-1.63,.5-2.79,.5-4.24,0-4.78-3.35-4.78-4.91,0-3.16,2.09-5.05,5.02-5.05,.96,0,1.79,.17,2.28,.41l-.33,1.21c-.46-.2-1.05-.37-1.95-.37-2.01,0-3.46,1.26-3.46,3.73s1.35,3.76,3.27,3.76c.64,0,1.09-.09,1.31-.2v-2.75h-1.69v-1.19h3.13v4.85Z"/><path class="cls-14" d="M26.31,23.75c1.09,.2,2.02,1.08,2.02,2.43,0,1.57-1.2,2.88-3.4,2.88-1,0-1.9-.29-2.36-.6l.38-1.13c.35,.23,1.12,.55,1.91,.55,1.37,0,1.93-.89,1.93-1.75,0-1.24-1.05-1.81-2.19-1.81h-.65v-1.06h.63c.83,0,1.92-.5,1.92-1.55,0-.75-.49-1.35-1.51-1.35-.68,0-1.35,.32-1.72,.57l-.37-1.06c.49-.36,1.42-.7,2.42-.7,1.81,0,2.69,1.08,2.69,2.31,0,.98-.62,1.83-1.72,2.24v.03Z"/><path class="cls-14" d="M33.51,25.68c0,2.57-1.23,3.38-2.95,3.38-.45,0-.97-.08-1.28-.19l.18-1.22c.24,.09,.58,.15,.97,.15,.99,0,1.59-.43,1.59-2.17v-6.47h1.49v6.52Z"/></g><g><path class="cls-14" d="M64.89,28.52c-.55,.22-1.63,.5-2.79,.5-4.24,0-4.78-3.35-4.78-4.91,0-3.16,2.09-5.05,5.02-5.05,.96,0,1.79,.17,2.28,.41l-.33,1.21c-.46-.2-1.05-.37-1.95-.37-2.01,0-3.46,1.26-3.46,3.73s1.35,3.76,3.27,3.76c.64,0,1.09-.09,1.31-.2v-2.75h-1.69v-1.19h3.13v4.85Z"/><path class="cls-14" d="M69.92,23.75c1.09,.2,2.02,1.08,2.02,2.43,0,1.57-1.2,2.88-3.4,2.88-1,0-1.9-.29-2.36-.6l.38-1.13c.35,.23,1.12,.55,1.91,.55,1.37,0,1.94-.89,1.94-1.75,0-1.24-1.05-1.81-2.19-1.81h-.65v-1.06h.63c.83,0,1.92-.5,1.92-1.55,0-.75-.49-1.35-1.51-1.35-.68,0-1.35,.32-1.72,.57l-.37-1.06c.49-.36,1.42-.7,2.42-.7,1.81,0,2.69,1.08,2.69,2.31,0,.98-.62,1.83-1.72,2.24v.03Z"/><path class="cls-14" d="M73.88,19.17h1.49v9.75h-1.49v-9.75Z"/></g><g><path class="cls-14" d="M107.29,28.52c-.55,.22-1.63,.5-2.79,.5-4.24,0-4.78-3.35-4.78-4.91,0-3.16,2.09-5.05,5.02-5.05,.96,0,1.79,.17,2.28,.41l-.33,1.21c-.46-.2-1.05-.37-1.95-.37-2.01,0-3.46,1.26-3.46,3.73s1.35,3.76,3.27,3.76c.64,0,1.09-.09,1.31-.2v-2.75h-1.69v-1.19h3.13v4.85Z"/><path class="cls-14" d="M112.31,23.75c1.09,.2,2.02,1.08,2.02,2.43,0,1.57-1.2,2.88-3.4,2.88-1,0-1.9-.29-2.36-.6l.38-1.13c.35,.23,1.12,.55,1.91,.55,1.37,0,1.94-.89,1.94-1.75,0-1.24-1.05-1.81-2.19-1.81h-.65v-1.06h.63c.83,0,1.92-.5,1.92-1.55,0-.75-.49-1.35-1.51-1.35-.68,0-1.35,.32-1.72,.57l-.37-1.06c.49-.36,1.42-.7,2.42-.7,1.81,0,2.69,1.08,2.69,2.31,0,.98-.62,1.83-1.72,2.24v.03Z"/><path class="cls-14" d="M123.25,28.92h-1.49v-4.43h-4v4.43h-1.49v-9.76h1.49v4.03h4v-4.03h1.49v9.76Z"/></g><g><path class="cls-14" d="M151.54,28.52c-.55,.22-1.63,.5-2.79,.5-4.24,0-4.78-3.35-4.78-4.91,0-3.16,2.09-5.05,5.02-5.05,.96,0,1.79,.17,2.28,.41l-.33,1.21c-.46-.2-1.05-.37-1.95-.37-2.01,0-3.46,1.26-3.46,3.73s1.35,3.76,3.27,3.76c.64,0,1.09-.09,1.31-.2v-2.75h-1.69v-1.19h3.13v4.85Z"/><path class="cls-14" d="M155.55,28.92v-8.24h-.03l-1.63,.89-.33-1.08,2.18-1.16h1.26v9.59h-1.45Z"/><path class="cls-14" d="M160.53,28.92v-9.75h5.1v1.24h-3.62v3.01h3.36v1.22h-3.36v4.28h-1.49Z"/></g><g><path class="cls-14" d="M195.96,28.52c-.55,.22-1.63,.5-2.79,.5-4.24,0-4.78-3.35-4.78-4.91,0-3.16,2.09-5.05,5.02-5.05,.96,0,1.79,.17,2.28,.41l-.33,1.21c-.46-.2-1.05-.37-1.95-.37-2.01,0-3.46,1.26-3.46,3.73s1.35,3.76,3.27,3.76c.64,0,1.09-.09,1.31-.2v-2.75h-1.69v-1.19h3.13v4.85Z"/><path class="cls-14" d="M199.97,28.92v-8.24h-.03l-1.63,.89-.33-1.08,2.18-1.16h1.26v9.59h-1.45Z"/><path class="cls-14" d="M210.29,28.92h-5.34v-9.75h5.13v1.24h-3.64v2.82h3.43v1.22h-3.43v3.24h3.86v1.24Z"/></g><g><path class="cls-14" d="M283.9,28.52c-.55,.22-1.63,.5-2.79,.5-4.24,0-4.78-3.35-4.78-4.91,0-3.16,2.09-5.05,5.02-5.05,.96,0,1.79,.17,2.28,.41l-.33,1.21c-.46-.2-1.05-.37-1.95-.37-2.01,0-3.46,1.26-3.46,3.73s1.35,3.76,3.27,3.76c.64,0,1.09-.09,1.31-.2v-2.75h-1.69v-1.19h3.13v4.85Z"/><path class="cls-14" d="M287.92,28.92v-8.24h-.03l-1.63,.89-.33-1.08,2.18-1.16h1.26v9.59h-1.45Z"/><path class="cls-14" d="M299.23,28.65c-.41,.2-1.24,.41-2.31,.41-2.73,0-4.56-1.8-4.56-4.91,0-3.31,2.1-5.12,4.82-5.12,1.13,0,1.82,.24,2.09,.38l-.32,1.21c-.41-.19-.99-.36-1.72-.36-1.9,0-3.31,1.27-3.31,3.81,0,2.4,1.26,3.73,3.28,3.73,.67,0,1.35-.14,1.77-.34l.26,1.19Z"/></g><g><path class="cls-14" d="M370.85,20.43h-2.65v8.49h-1.49v-8.49h-2.64v-1.26h6.78v1.26Z"/><path class="cls-14" d="M375.19,23.75c1.09,.2,2.02,1.08,2.02,2.43,0,1.57-1.2,2.88-3.4,2.88-1,0-1.9-.29-2.36-.6l.38-1.13c.35,.23,1.12,.55,1.91,.55,1.37,0,1.93-.89,1.93-1.75,0-1.24-1.05-1.81-2.19-1.81h-.65v-1.06h.63c.83,0,1.92-.5,1.92-1.55,0-.75-.49-1.35-1.51-1.35-.68,0-1.35,.32-1.72,.57l-.37-1.06c.49-.36,1.42-.7,2.42-.7,1.81,0,2.69,1.08,2.69,2.31,0,.98-.62,1.83-1.72,2.24v.03Z"/><path class="cls-14" d="M379.16,19.3c.71-.11,1.58-.2,2.5-.2,4.18,0,5.05,2.56,5.05,4.73h0c0,1.78-.55,3.07-1.41,3.9-.88,.85-2.28,1.29-4.01,1.29-.87,0-1.58-.04-2.13-.11v-9.59Zm1.49,8.47c.26,.04,.62,.05,.96,.05,2.2,.01,3.54-1.27,3.54-3.96,0-2.37-1.23-3.59-3.34-3.59-.51,0-.9,.05-1.15,.1v7.4Z"/></g><g><path class="cls-14" d="M327.98,28.52c-.55,.22-1.63,.5-2.79,.5-4.24,0-4.78-3.35-4.78-4.91,0-3.16,2.09-5.05,5.02-5.05,.96,0,1.79,.17,2.28,.41l-.33,1.21c-.46-.2-1.05-.37-1.95-.37-2.01,0-3.46,1.26-3.46,3.73s1.35,3.76,3.27,3.76c.64,0,1.09-.09,1.31-.2v-2.75h-1.69v-1.19h3.13v4.85Z"/><path class="cls-14" d="M331.99,28.92v-8.24h-.03l-1.63,.89-.33-1.08,2.18-1.16h1.26v9.59h-1.45Z"/><path class="cls-14" d="M341.14,23.7c1.03,.25,1.96,1.07,1.96,2.43,0,1.03-.49,1.63-.85,1.96-.65,.62-1.73,.92-3.35,.92-.87,0-1.53-.06-1.95-.11v-9.59c.55-.11,1.42-.2,2.29-.2,2.99,0,3.5,1.45,3.5,2.43,0,.93-.59,1.75-1.62,2.13v.04Zm-1.79-.46c1.18,0,1.92-.65,1.92-1.55,0-1.17-.95-1.47-1.87-1.47-.49,0-.78,.04-.96,.08v2.94h.91Zm-.91,4.59c.22,.04,.51,.05,.9,.05,1.19,0,2.22-.5,2.22-1.78s-1.12-1.76-2.26-1.76h-.86v3.49Z"/></g><g><path class="cls-14" d="M239.74,28.52c-.55,.22-1.63,.5-2.79,.5-4.24,0-4.78-3.35-4.78-4.91,0-3.16,2.09-5.05,5.02-5.05,.96,0,1.79,.17,2.28,.41l-.33,1.21c-.46-.2-1.05-.37-1.95-.37-2.01,0-3.46,1.26-3.46,3.73s1.35,3.76,3.27,3.76c.64,0,1.09-.09,1.31-.2v-2.75h-1.69v-1.19h3.13v4.85Z"/><path class="cls-14" d="M243.75,28.92v-8.24h-.03l-1.63,.89-.33-1.08,2.18-1.16h1.26v9.59h-1.45Z"/><path class="cls-14" d="M248.73,19.3c.71-.11,1.58-.2,2.5-.2,4.18,0,5.05,2.56,5.05,4.73h0c0,1.78-.55,3.07-1.41,3.9-.88,.85-2.28,1.29-4.01,1.29-.87,0-1.58-.04-2.13-.11v-9.59Zm1.49,8.47c.26,.04,.62,.05,.96,.05,2.2,.01,3.54-1.27,3.54-3.96,0-2.37-1.23-3.59-3.34-3.59-.51,0-.9,.05-1.15,.1v7.4Z"/></g><g><polyline class="cls-12" points="426.3 164.07 385.71 164.07 385.71 187.77 426.3 187.77 426.3 164.07 426.3 175.92"/><line class="cls-12" x1="398.19" y1="164.07" x2="398.19" y2="187.77"/><line class="cls-12" x1="401.31" y1="164.07" x2="401.31" y2="187.77"/><line class="cls-12" x1="404.43" y1="164.07" x2="404.43" y2="187.77"/><line class="cls-12" x1="407.56" y1="164.07" x2="407.56" y2="187.77"/><line class="cls-12" x1="410.68" y1="164.07" x2="410.68" y2="187.77"/><line class="cls-12" x1="413.8" y1="164.07" x2="413.8" y2="187.77"/><line class="cls-12" x1="416.93" y1="164.07" x2="416.93" y2="187.77"/><line class="cls-12" x1="420.05" y1="164.07" x2="420.05" y2="187.77"/><line class="cls-12" x1="423.17" y1="164.07" x2="423.17" y2="187.77"/></g><g><polyline class="cls-12" points="86.06 164.06 45.47 164.06 45.47 187.76 86.06 187.76 86.06 164.06 86.06 175.91"/><line class="cls-12" x1="57.95" y1="164.06" x2="57.95" y2="187.76"/><line class="cls-12" x1="61.07" y1="164.06" x2="61.07" y2="187.76"/><line class="cls-12" x1="64.19" y1="164.06" x2="64.19" y2="187.76"/><line class="cls-12" x1="67.32" y1="164.06" x2="67.32" y2="187.76"/><line class="cls-12" x1="70.44" y1="164.06" x2="70.44" y2="187.76"/><line class="cls-12" x1="73.56" y1="164.06" x2="73.56" y2="187.76"/><line class="cls-12" x1="76.69" y1="164.06" x2="76.69" y2="187.76"/><line class="cls-12" x1="79.81" y1="164.06" x2="79.81" y2="187.76"/><line class="cls-12" x1="82.93" y1="164.06" x2="82.93" y2="187.76"/></g><g><polyline class="cls-12" points="86.06 63.33 45.47 63.33 45.47 87.03 86.06 87.03 86.06 63.33 86.06 75.18"/><line class="cls-12" x1="57.95" y1="63.33" x2="57.95" y2="87.03"/><line class="cls-12" x1="61.07" y1="63.33" x2="61.07" y2="87.03"/><line class="cls-12" x1="64.19" y1="63.33" x2="64.19" y2="87.03"/><line class="cls-12" x1="67.32" y1="63.33" x2="67.32" y2="87.03"/><line class="cls-12" x1="70.44" y1="63.33" x2="70.44" y2="87.03"/><line class="cls-12" x1="73.56" y1="63.33" x2="73.56" y2="87.03"/><line class="cls-12" x1="76.69" y1="63.33" x2="76.69" y2="87.03"/><line class="cls-12" x1="79.81" y1="63.33" x2="79.81" y2="87.03"/><line class="cls-12" x1="82.93" y1="63.33" x2="82.93" y2="87.03"/></g><g><polyline class="cls-12" points="426.3 63.33 385.71 63.33 385.71 87.03 426.3 87.03 426.3 63.33 426.3 75.18"/><line class="cls-12" x1="398.19" y1="63.33" x2="398.19" y2="87.03"/><line class="cls-12" x1="401.31" y1="63.33" x2="401.31" y2="87.03"/><line class="cls-12" x1="404.43" y1="63.33" x2="404.43" y2="87.03"/><line class="cls-12" x1="407.56" y1="63.33" x2="407.56" y2="87.03"/><line class="cls-12" x1="410.68" y1="63.33" x2="410.68" y2="87.03"/><line class="cls-12" x1="413.8" y1="63.33" x2="413.8" y2="87.03"/><line class="cls-12" x1="416.93" y1="63.33" x2="416.93" y2="87.03"/><line class="cls-12" x1="420.05" y1="63.33" x2="420.05" y2="87.03"/><line class="cls-12" x1="423.17" y1="63.33" x2="423.17" y2="87.03"/></g><polygon class="cls-13" points="1.5 1.5 1.5 63.48 45.47 63.48 45.47 87.03 86.06 87.03 115.67 87.03 115.67 164.07 86.06 164.07 45.47 164.07 45.47 187.77 45.47 249.6 441.2 249.6 441.2 1.5 1.5 1.5"/></g><line class="cls-8" x1="86.06" y1="175.91" x2="57.95" y2="175.91"/><line class="cls-8" x1="86.06" y1="75.18" x2="57.95" y2="75.18"/><line class="cls-8" x1="426.3" y1="175.92" x2="398.18" y2="175.92"/><line class="cls-8" x1="426.3" y1="75.18" x2="398.19" y2="75.18"/><g><circle class="cls-14" cx="156.24" cy="172.17" r="2.02"/><rect class="cls-14" x="154.22" y="174.84" width="4.04" height="6.85" rx=".89" ry=".89"/></g><g><circle class="cls-14" cx="144.4" cy="71.21" r="2.02"/><rect class="cls-14" x="142.39" y="73.89" width="4.04" height="6.85" rx=".89" ry=".89"/></g><g><circle class="cls-14" cx="374.81" cy="71.41" r="2.02"/><rect class="cls-14" x="372.79" y="74.08" width="4.04" height="6.85" rx=".89" ry=".89"/></g><g><circle class="cls-14" cx="355.54" cy="71.41" r="2.02"/><path class="cls-14" d="M357.6,80.94h-4.12c-.51,0-.89-.45-.82-.95l.76-5.19c.06-.41,.41-.71,.82-.71h2.6c.41,0,.76,.3,.82,.71l.76,5.19c.07,.5-.31,.95-.82,.95Z"/></g><g><circle class="cls-14" cx="164.4" cy="71.66" r="2.02"/><path class="cls-14" d="M166.46,81.18h-4.12c-.51,0-.89-.45-.82-.95l.76-5.19c.06-.41,.41-.71,.82-.71h2.6c.41,0,.76,.3,.82,.71l.76,5.19c.07,.5-.31,.95-.82,.95Z"/></g><g><circle class="cls-14" cx="175.63" cy="172.17" r="2.02"/><path class="cls-14" d="M177.69,181.69h-4.12c-.51,0-.89-.45-.82-.95l.76-5.19c.06-.41,.41-.71,.82-.71h2.6c.41,0,.76,.3,.82,.71l.76,5.19c.07,.5-.31,.95-.82,.95Z"/></g><g><path class="cls-14" d="M414.41,20.43h-2.65v8.49h-1.49v-8.49h-2.64v-1.26h6.78v1.26Z"/><path class="cls-14" d="M418.76,23.75c1.09,.2,2.02,1.08,2.02,2.43,0,1.57-1.2,2.88-3.4,2.88-1,0-1.9-.29-2.36-.6l.38-1.13c.35,.23,1.12,.55,1.91,.55,1.37,0,1.93-.89,1.93-1.75,0-1.24-1.05-1.81-2.19-1.81h-.65v-1.06h.63c.83,0,1.92-.5,1.92-1.55,0-.75-.49-1.35-1.51-1.35-.68,0-1.35,.32-1.72,.57l-.37-1.06c.49-.36,1.42-.7,2.42-.7,1.81,0,2.69,1.08,2.69,2.31,0,.98-.62,1.83-1.72,2.24v.03Z"/><path class="cls-14" d="M429.84,28.92h-1.56l-.88-2.87h-3l-.85,2.87h-1.53l3-9.75h1.82l3,9.75Zm-2.69-4l-.77-2.55c-.18-.64-.35-1.33-.49-1.92h-.03c-.14,.6-.29,1.31-.46,1.91l-.78,2.56h2.53Z"/></g></g></g></svg>