<?xml version="1.0" encoding="UTF-8"?><svg id="_レイヤー_2" xmlns="http://www.w3.org/2000/svg" viewBox="0 0 442.16 251.36"><defs><style>.cls-1{fill:#f2bfd7;}.cls-1,.cls-2,.cls-3,.cls-4,.cls-5,.cls-6,.cls-7,.cls-8,.cls-9,.cls-10,.cls-11,.cls-12,.cls-13,.cls-14,.cls-15,.cls-16,.cls-17,.cls-18,.cls-19,.cls-20,.cls-21{stroke:#5e5c5c;}.cls-1,.cls-2,.cls-3,.cls-4,.cls-5,.cls-6,.cls-7,.cls-8,.cls-9,.cls-10,.cls-11,.cls-12,.cls-13,.cls-14,.cls-15,.cls-16,.cls-17,.cls-19,.cls-20,.cls-22,.cls-21{stroke-linejoin:round;}.cls-2,.cls-6,.cls-12{fill:#bbe1e7;}.cls-3,.cls-4{fill:#f7ea67;}.cls-4,.cls-8,.cls-20{stroke-width:.95px;}.cls-5{fill:#b2e0f8;}.cls-23{fill:#dbcc5c;}.cls-24{fill:#46976c;}.cls-6{stroke-width:.94px;}.cls-25{fill:#daa86e;}.cls-7{fill:#fff;}.cls-7,.cls-10,.cls-15{stroke-width:1px;}.cls-8,.cls-11{fill:#666;}.cls-9{stroke-width:3px;}.cls-9,.cls-10,.cls-22{fill:none;}.cls-26,.cls-15,.cls-20,.cls-21{fill:#f3fafe;}.cls-27{fill:#8ab7d6;}.cls-12{stroke-width:2px;}.cls-13{fill:#f7ca88;}.cls-28{fill:#4d4e4f;}.cls-14{fill:#b2ce65;}.cls-16{fill:#e3776a;}.cls-17{fill:#77bde9;}.cls-18{fill:#fef9e4;stroke-miterlimit:10;}.cls-19{fill:#69bd83;}.cls-29{fill:#c35f5a;}.cls-30{fill:#f3f9f8;}.cls-22{stroke:#231815;}</style></defs><g id="map"><g id="_4F"><polygon class="cls-18" points="1.5 1.5 1.5 63.55 45.41 63.55 45.41 87.26 85.95 87.12 115.03 87.26 115.03 164.25 85.95 164.25 45.41 164.25 45.41 187.97 45.41 249.86 440.66 249.86 440.66 1.5 1.5 1.5"/><rect class="cls-8" x="45.59" y="204.77" width="78.35" height="45.09"/><rect class="cls-21" x="133.25" y="164.25" width="11.91" height="11.86"/><rect class="cls-21" x="133.25" y="176.1" width="11.91" height="11.86"/><rect class="cls-14" x="161.95" y="164.25" width="16.96" height="23.72"/><rect class="cls-1" x="144.99" y="164.24" width="16.96" height="23.72"/><rect class="cls-22" x="385.24" y="164.25" width="40.54" height="23.72"/><rect class="cls-4" x="369.62" y="125.68" width="56.16" height="38.57"/><rect class="cls-13" x="369.62" y="87.12" width="56.16" height="38.56"/><polyline class="cls-22" points="425.77 87.12 385.24 87.12 385.24 63.39"/><rect class="cls-17" x="363.46" y="63.39" width="21.78" height="23.72"/><rect class="cls-17" x="133.25" y="63.39" width="21.96" height="23.72"/><rect class="cls-1" x="155.2" y="63.39" width="17.09" height="23.72"/><rect class="cls-6" x="172.29" y="63.39" width="81.74" height="23.72"/><rect class="cls-6" x="224.47" y="164.24" width="81.75" height="23.72"/><rect class="cls-22" x="45.41" y="164.25" width="40.54" height="23.72"/><rect class="cls-13" x="1.5" y="1.5" width="43.91" height="45.09"/><rect class="cls-3" x="45.41" y="1.5" width="43.92" height="45.09"/><rect class="cls-16" x="89.33" y="1.5" width="43.92" height="45.09"/><rect class="cls-21" x="133.25" y="1.5" width="43.92" height="45.09"/><rect class="cls-11" x="177.16" y="1.5" width="43.92" height="45.09"/><rect class="cls-5" x="221.08" y="1.5" width="43.92" height="45.09"/><rect class="cls-3" x="265" y="1.5" width="43.92" height="45.09"/><rect class="cls-13" x="308.91" y="1.5" width="43.92" height="45.09"/><rect class="cls-19" x="352.83" y="1.5" width="43.92" height="45.09"/><rect class="cls-11" x="396.74" y="1.5" width="43.92" height="45.09"/><rect class="cls-1" x="346.74" y="63.39" width="16.72" height="23.72"/><rect class="cls-17" x="363.46" y="164.24" width="21.78" height="23.72"/><rect class="cls-1" x="346.74" y="164.24" width="16.72" height="23.72"/><rect class="cls-20" x="123.94" y="204.77" width="21.22" height="45.09"/><rect class="cls-28" x="404.62" y="16.39" width="28.16" height="16.24" rx="2.07" ry="2.07"/><rect class="cls-29" x="97.21" y="15.93" width="28.16" height="16.24" rx="2.07" ry="2.07"/><rect class="cls-28" x="185.04" y="16.18" width="28.16" height="16.24" rx="2.07" ry="2.07"/><rect class="cls-20" x="145.16" y="204.77" width="78.35" height="45.09"/><rect class="cls-20" x="262.73" y="204.77" width="78.35" height="45.09"/><rect class="cls-20" x="341.09" y="204.77" width="21.22" height="45.09"/><rect class="cls-20" x="362.31" y="204.77" width="78.35" height="45.09"/><rect class="cls-23" x="53.29" y="16.09" width="28.16" height="16.24" rx="2.07" ry="2.07"/><rect class="cls-25" x="9.56" y="16.16" width="28.16" height="16.24" rx="2.07" ry="2.07"/><rect class="cls-24" x="360.27" y="16.16" width="28.16" height="16.24" rx="2.07" ry="2.07"/><rect class="cls-25" x="317.39" y="16.18" width="28.16" height="16.24" rx="2.07" ry="2.07"/><rect class="cls-27" x="229.66" y="16.1" width="28.16" height="16.24" rx="2.07" ry="2.07"/><rect class="cls-28" x="70.35" y="219.76" width="28.16" height="16.24" rx="2.07" ry="2.07"/><rect class="cls-23" x="383.62" y="137.32" width="28.16" height="16.24" rx="2.07" ry="2.07"/><rect class="cls-25" x="383.53" y="99.72" width="28.16" height="16.24" rx="2.07" ry="2.07"/><rect class="cls-23" x="272.88" y="16.11" width="28.16" height="16.24" rx="2.07" ry="2.07"/><rect class="cls-2" x="223.52" y="204.77" width="39.22" height="45.09"/><g><path class="cls-26" d="M20.9,28.7c-.55,.22-1.63,.5-2.79,.5-4.24,0-4.78-3.35-4.78-4.91,0-3.16,2.09-5.05,5.02-5.05,.96,0,1.79,.17,2.28,.41l-.33,1.21c-.46-.2-1.05-.37-1.95-.37-2.01,0-3.46,1.26-3.46,3.73s1.34,3.76,3.26,3.76c.64,0,1.09-.09,1.31-.2v-2.75h-1.69v-1.19h3.12v4.85Z"/><path class="cls-26" d="M24.91,29.09v-8.24h-.03l-1.63,.89-.33-1.08,2.18-1.16h1.25v9.59h-1.45Z"/><path class="cls-26" d="M33.1,25.85c0,2.57-1.23,3.38-2.94,3.38-.45,0-.97-.08-1.28-.19l.18-1.22c.24,.09,.58,.15,.97,.15,.99,0,1.59-.43,1.59-2.17v-6.47h1.48v6.52Z"/></g><g><path class="cls-26" d="M64.78,28.7c-.55,.22-1.63,.5-2.79,.5-4.24,0-4.78-3.35-4.78-4.91,0-3.16,2.09-5.05,5.02-5.05,.96,0,1.79,.17,2.28,.41l-.33,1.21c-.46-.2-1.05-.37-1.95-.37-2.01,0-3.46,1.26-3.46,3.73s1.34,3.76,3.26,3.76c.64,0,1.09-.09,1.31-.2v-2.75h-1.69v-1.19h3.12v4.85Z"/><path class="cls-26" d="M68.79,29.09v-8.24h-.03l-1.63,.89-.33-1.08,2.18-1.16h1.25v9.59h-1.45Z"/><path class="cls-26" d="M73.76,19.34h1.48v9.75h-1.48v-9.75Z"/></g><g><path class="cls-26" d="M106.85,28.7c-.55,.22-1.63,.5-2.79,.5-4.24,0-4.78-3.35-4.78-4.91,0-3.16,2.09-5.05,5.02-5.05,.96,0,1.79,.17,2.28,.41l-.33,1.21c-.46-.2-1.05-.37-1.95-.37-2.01,0-3.46,1.26-3.46,3.73s1.34,3.76,3.26,3.76c.64,0,1.09-.09,1.31-.2v-2.75h-1.69v-1.19h3.12v4.85Z"/><path class="cls-26" d="M110.86,29.09v-8.24h-.03l-1.63,.89-.33-1.08,2.18-1.16h1.25v9.59h-1.45Z"/><path class="cls-26" d="M122.79,29.09h-1.48v-4.43h-4v4.43h-1.48v-9.76h1.48v4.03h4v-4.03h1.48v9.76Z"/></g><g><path class="cls-26" d="M194.73,20.61h-2.65v8.49h-1.49v-8.49h-2.64v-1.26h6.77v1.26Z"/><path class="cls-26" d="M198.06,29.09v-8.24h-.03l-1.63,.89-.33-1.08,2.18-1.16h1.25v9.59h-1.45Z"/><path class="cls-26" d="M203.03,19.47c.7-.11,1.57-.2,2.5-.2,4.17,0,5.04,2.56,5.04,4.73h0c0,1.78-.55,3.07-1.41,3.9-.88,.85-2.28,1.29-4.01,1.29-.87,0-1.58-.04-2.12-.11v-9.59Zm1.48,8.47c.26,.04,.62,.05,.96,.05,2.2,.01,3.53-1.27,3.53-3.96,0-2.37-1.23-3.59-3.34-3.59-.51,0-.9,.05-1.15,.1v7.4Z"/></g><g><path class="cls-26" d="M239.78,20.61h-2.65v8.49h-1.49v-8.49h-2.64v-1.26h6.77v1.26Z"/><path class="cls-26" d="M243.11,29.09v-8.24h-.03l-1.63,.89-.33-1.08,2.18-1.16h1.25v9.59h-1.45Z"/><path class="cls-26" d="M254.41,28.82c-.41,.2-1.24,.41-2.3,.41-2.73,0-4.56-1.8-4.56-4.91,0-3.31,2.1-5.12,4.81-5.12,1.13,0,1.82,.24,2.09,.38l-.32,1.21c-.41-.19-.99-.36-1.71-.36-1.89,0-3.3,1.27-3.3,3.81,0,2.4,1.25,3.73,3.28,3.73,.67,0,1.34-.14,1.77-.34l.26,1.19Z"/></g><g><path class="cls-26" d="M283.44,20.61h-2.65v8.49h-1.49v-8.49h-2.64v-1.26h6.77v1.26Z"/><path class="cls-26" d="M286.77,29.09v-8.24h-.03l-1.63,.89-.33-1.08,2.18-1.16h1.25v9.59h-1.45Z"/><path class="cls-26" d="M295.91,23.87c1.02,.25,1.96,1.07,1.96,2.43,0,1.03-.49,1.63-.84,1.96-.65,.62-1.73,.92-3.34,.92-.87,0-1.52-.06-1.95-.11v-9.59c.55-.11,1.42-.2,2.29-.2,2.98,0,3.5,1.45,3.5,2.43,0,.93-.59,1.75-1.61,2.13v.04Zm-1.79-.46c1.18,0,1.92-.65,1.92-1.55,0-1.17-.95-1.47-1.87-1.47-.49,0-.78,.04-.96,.08v2.94h.91Zm-.91,4.59c.22,.04,.51,.05,.9,.05,1.19,0,2.21-.5,2.21-1.78s-1.11-1.76-2.25-1.76h-.86v3.49Z"/></g><g><path class="cls-26" d="M327.45,20.61h-2.65v8.49h-1.49v-8.49h-2.64v-1.26h6.77v1.26Z"/><path class="cls-26" d="M330.78,29.09v-8.24h-.03l-1.63,.89-.33-1.08,2.18-1.16h1.25v9.59h-1.45Z"/><path class="cls-26" d="M342.85,29.09h-1.56l-.88-2.87h-3l-.84,2.87h-1.52l3-9.75h1.82l3,9.75Zm-2.69-4l-.77-2.55c-.18-.64-.35-1.33-.49-1.92h-.03c-.14,.6-.29,1.31-.46,1.91l-.78,2.56h2.52Z"/></g><g><path class="cls-26" d="M368.73,25.85c0,2.57-1.23,3.38-2.94,3.38-.45,0-.97-.08-1.28-.19l.18-1.22c.24,.09,.58,.15,.97,.15,.99,0,1.59-.43,1.59-2.17v-6.47h1.48v6.52Z"/><path class="cls-26" d="M376.1,29.09h-5.86v-.9l1.01-1.06c2.04-2.08,3.16-3.4,3.16-4.84,0-.93-.45-1.75-1.67-1.75-.74,0-1.41,.4-1.86,.75l-.45-1.06c.59-.48,1.52-.89,2.6-.89,1.98,0,2.85,1.34,2.85,2.79,0,1.76-1.2,3.22-2.88,4.91l-.79,.8v.03h3.88v1.22Z"/><path class="cls-26" d="M382.04,23.87c1.02,.25,1.96,1.07,1.96,2.43,0,1.03-.49,1.63-.84,1.96-.65,.62-1.73,.92-3.34,.92-.87,0-1.52-.06-1.95-.11v-9.59c.55-.11,1.42-.2,2.29-.2,2.98,0,3.5,1.45,3.5,2.43,0,.93-.59,1.75-1.61,2.13v.04Zm-1.79-.46c1.18,0,1.92-.65,1.92-1.55,0-1.17-.95-1.47-1.87-1.47-.49,0-.78,.04-.96,.08v2.94h.91Zm-.91,4.59c.22,.04,.51,.05,.9,.05,1.19,0,2.21-.5,2.21-1.78s-1.11-1.76-2.25-1.76h-.86v3.49Z"/></g><g><path class="cls-26" d="M412.64,25.85c0,2.57-1.23,3.38-2.94,3.38-.45,0-.97-.08-1.28-.19l.18-1.22c.24,.09,.58,.15,.97,.15,.99,0,1.59-.43,1.59-2.17v-6.47h1.48v6.52Z"/><path class="cls-26" d="M420.02,29.09h-5.86v-.9l1.01-1.06c2.04-2.08,3.16-3.4,3.16-4.84,0-.93-.45-1.75-1.67-1.75-.74,0-1.41,.4-1.86,.75l-.45-1.06c.59-.48,1.52-.89,2.6-.89,1.98,0,2.85,1.34,2.85,2.79,0,1.76-1.2,3.22-2.88,4.91l-.79,.8v.03h3.88v1.22Z"/><path class="cls-26" d="M428.89,29.09h-1.56l-.88-2.87h-3l-.84,2.87h-1.52l3-9.75h1.82l3,9.75Zm-2.69-4l-.77-2.55c-.18-.64-.35-1.33-.49-1.92h-.03c-.14,.6-.29,1.31-.46,1.91l-.78,2.56h2.52Z"/></g><g><path class="cls-26" d="M393.94,112.32c-.55,.22-1.63,.5-2.79,.5-4.24,0-4.78-3.35-4.78-4.91,0-3.16,2.09-5.05,5.02-5.05,.96,0,1.79,.17,2.28,.41l-.33,1.21c-.46-.2-1.05-.37-1.95-.37-2.01,0-3.46,1.26-3.46,3.73s1.34,3.76,3.26,3.76c.64,0,1.09-.09,1.31-.2v-2.75h-1.69v-1.19h3.12v4.85Z"/><path class="cls-26" d="M401.15,112.72h-5.86v-.9l1.01-1.06c2.04-2.08,3.16-3.4,3.16-4.84,0-.93-.45-1.75-1.67-1.75-.74,0-1.41,.4-1.86,.75l-.45-1.06c.59-.48,1.52-.89,2.6-.89,1.98,0,2.85,1.34,2.85,2.79,0,1.76-1.2,3.22-2.88,4.91l-.79,.8v.03h3.88v1.22Z"/><path class="cls-26" d="M407.09,107.49c1.02,.25,1.96,1.07,1.96,2.43,0,1.03-.49,1.63-.84,1.96-.65,.62-1.73,.92-3.34,.92-.87,0-1.52-.06-1.95-.11v-9.59c.55-.11,1.42-.2,2.29-.2,2.98,0,3.5,1.45,3.5,2.43,0,.93-.59,1.75-1.61,2.13v.04Zm-1.79-.46c1.18,0,1.92-.65,1.92-1.55,0-1.17-.95-1.47-1.87-1.47-.49,0-.78,.04-.96,.08v2.94h.91Zm-.91,4.59c.22,.04,.51,.05,.9,.05,1.19,0,2.21-.5,2.21-1.78s-1.11-1.76-2.25-1.76h-.86v3.49Z"/></g><g><polyline class="cls-15" points="85.95 164.35 45.41 164.35 45.41 187.97 85.95 187.97 85.95 164.35"/><line class="cls-7" x1="57.87" y1="164.35" x2="57.87" y2="187.97"/><line class="cls-7" x1="60.99" y1="164.35" x2="60.99" y2="187.97"/><line class="cls-7" x1="64.11" y1="164.35" x2="64.11" y2="187.97"/><line class="cls-7" x1="67.23" y1="164.35" x2="67.23" y2="187.97"/><line class="cls-7" x1="70.35" y1="164.35" x2="70.35" y2="187.97"/><line class="cls-7" x1="73.47" y1="164.35" x2="73.47" y2="187.97"/><line class="cls-7" x1="76.59" y1="164.35" x2="76.59" y2="187.97"/><line class="cls-7" x1="79.71" y1="164.35" x2="79.71" y2="187.97"/><line class="cls-7" x1="82.83" y1="164.35" x2="82.83" y2="187.97"/></g><g><rect class="cls-15" x="385.24" y="63.39" width="40.54" height="23.77"/><line class="cls-7" x1="397.7" y1="63.55" x2="397.7" y2="87.17"/><line class="cls-7" x1="400.82" y1="63.55" x2="400.82" y2="87.17"/><line class="cls-7" x1="403.93" y1="63.55" x2="403.93" y2="87.17"/><line class="cls-7" x1="407.06" y1="63.55" x2="407.06" y2="87.17"/><line class="cls-7" x1="410.18" y1="63.55" x2="410.18" y2="87.17"/><line class="cls-7" x1="413.29" y1="63.55" x2="413.29" y2="87.17"/><line class="cls-7" x1="416.41" y1="63.55" x2="416.41" y2="87.17"/><line class="cls-7" x1="419.53" y1="63.55" x2="419.53" y2="87.17"/><line class="cls-7" x1="422.65" y1="63.55" x2="422.65" y2="87.17"/></g><g><polyline class="cls-15" points="425.77 164.35 385.24 164.35 385.24 187.97 425.77 187.97 425.77 164.35"/><line class="cls-7" x1="397.7" y1="164.35" x2="397.7" y2="187.97"/><line class="cls-7" x1="400.82" y1="164.35" x2="400.82" y2="187.97"/><line class="cls-7" x1="403.93" y1="164.35" x2="403.93" y2="187.97"/><line class="cls-7" x1="407.06" y1="164.35" x2="407.06" y2="187.97"/><line class="cls-7" x1="410.18" y1="164.35" x2="410.18" y2="187.97"/><line class="cls-7" x1="413.29" y1="164.35" x2="413.29" y2="187.97"/><line class="cls-7" x1="416.41" y1="164.35" x2="416.41" y2="187.97"/><line class="cls-7" x1="419.53" y1="164.35" x2="419.53" y2="187.97"/><line class="cls-7" x1="422.65" y1="164.35" x2="422.65" y2="187.97"/></g><g><rect class="cls-15" x="45.41" y="63.59" width="40.54" height="23.62"/><line class="cls-7" x1="57.87" y1="63.59" x2="57.87" y2="87.21"/><line class="cls-7" x1="60.99" y1="63.59" x2="60.99" y2="87.21"/><line class="cls-7" x1="64.11" y1="63.59" x2="64.11" y2="87.21"/><line class="cls-7" x1="67.23" y1="63.59" x2="67.23" y2="87.21"/><line class="cls-7" x1="70.35" y1="63.59" x2="70.35" y2="87.21"/><line class="cls-7" x1="73.47" y1="63.59" x2="73.47" y2="87.21"/><line class="cls-7" x1="76.59" y1="63.59" x2="76.59" y2="87.21"/><line class="cls-7" x1="79.71" y1="63.59" x2="79.71" y2="87.21"/><line class="cls-7" x1="82.83" y1="63.59" x2="82.83" y2="87.21"/></g><rect class="cls-12" x="133.25" y="87.12" width="236.37" height="77.13"/><polygon class="cls-9" points="1.5 1.5 1.5 63.55 45.41 63.55 45.41 87.26 85.95 87.12 115.03 87.26 115.03 164.25 85.95 164.25 45.41 164.25 45.41 187.97 45.41 249.86 440.66 249.86 440.66 1.5 1.5 1.5"/><line class="cls-10" x1="57.7" y1="74.94" x2="85.95" y2="74.94"/><line class="cls-7" x1="57.7" y1="176.09" x2="85.95" y2="176.09"/><line class="cls-10" x1="397.56" y1="177.31" x2="425.63" y2="177.31"/><line class="cls-10" x1="397.6" y1="76.41" x2="425.68" y2="76.41"/><g><path class="cls-26" d="M393.56,149.92c-.55,.22-1.63,.5-2.79,.5-4.24,0-4.78-3.35-4.78-4.91,0-3.16,2.09-5.05,5.02-5.05,.96,0,1.79,.17,2.28,.41l-.33,1.21c-.46-.2-1.05-.37-1.95-.37-2.01,0-3.46,1.26-3.46,3.73s1.34,3.76,3.26,3.76c.64,0,1.09-.09,1.31-.2v-2.75h-1.69v-1.19h3.12v4.85Z"/><path class="cls-26" d="M400.77,150.31h-5.86v-.9l1.01-1.06c2.04-2.08,3.16-3.4,3.16-4.84,0-.93-.45-1.75-1.67-1.75-.74,0-1.41,.4-1.86,.75l-.45-1.06c.59-.48,1.52-.89,2.6-.89,1.98,0,2.85,1.34,2.85,2.79,0,1.76-1.2,3.22-2.88,4.91l-.79,.8v.03h3.88v1.22Z"/><path class="cls-26" d="M409.65,150.31h-1.56l-.88-2.87h-3l-.84,2.87h-1.52l3-9.75h1.82l3,9.75Zm-2.69-4l-.77-2.55c-.18-.64-.35-1.33-.49-1.92h-.03c-.14,.6-.29,1.31-.46,1.91l-.78,2.56h2.52Z"/></g><g><path class="cls-26" d="M79.89,232.28c-.55,.22-1.63,.5-2.79,.5-4.24,0-4.78-3.35-4.78-4.91,0-3.16,2.09-5.05,5.02-5.05,.96,0,1.79,.17,2.28,.41l-.33,1.21c-.46-.2-1.05-.37-1.95-.37-2.01,0-3.46,1.26-3.46,3.73s1.34,3.76,3.26,3.76c.64,0,1.09-.09,1.31-.2v-2.75h-1.69v-1.19h3.12v4.85Z"/><path class="cls-26" d="M83.9,232.67v-8.24h-.03l-1.63,.89-.33-1.08,2.18-1.16h1.25v9.59h-1.45Z"/><path class="cls-26" d="M95.91,232.28c-.55,.22-1.63,.5-2.79,.5-4.24,0-4.78-3.35-4.78-4.91,0-3.16,2.09-5.05,5.02-5.05,.96,0,1.79,.17,2.28,.41l-.33,1.21c-.46-.2-1.05-.37-1.95-.37-2.01,0-3.46,1.26-3.46,3.73s1.34,3.76,3.26,3.76c.64,0,1.09-.09,1.31-.2v-2.75h-1.69v-1.19h3.12v4.85Z"/></g><g><circle class="cls-30" cx="144.23" cy="71.41" r="2.02"/><rect class="cls-30" x="142.21" y="74.09" width="4.04" height="6.85" rx=".89" ry=".89"/></g><g><circle class="cls-30" cx="374.07" cy="71.23" r="2.02"/><rect class="cls-30" x="372.05" y="73.9" width="4.04" height="6.85" rx=".89" ry=".89"/></g><g><circle class="cls-30" cx="373.94" cy="172.41" r="2.02"/><rect class="cls-30" x="371.92" y="175.09" width="4.04" height="6.85" rx=".89" ry=".89"/></g><g><circle class="cls-30" cx="354.8" cy="71.53" r="2.02"/><path class="cls-30" d="M356.86,81.05h-4.12c-.51,0-.89-.45-.82-.95l.76-5.19c.06-.41,.41-.71,.82-.71h2.6c.41,0,.76,.3,.82,.71l.76,5.19c.07,.5-.31,.95-.82,.95Z"/></g><g><circle class="cls-30" cx="164.08" cy="71.29" r="2.02"/><path class="cls-30" d="M166.14,80.82h-4.12c-.51,0-.89-.45-.82-.95l.76-5.19c.06-.41,.41-.71,.82-.71h2.6c.41,0,.76,.3,.82,.71l.76,5.19c.07,.5-.31,.95-.82,.95Z"/></g><g><circle class="cls-30" cx="153.48" cy="172.35" r="2.02"/><path class="cls-30" d="M155.54,181.88h-4.12c-.51,0-.89-.45-.82-.95l.76-5.19c.06-.41,.41-.71,.82-.71h2.6c.41,0,.76,.3,.82,.71l.76,5.19c.07,.5-.31,.95-.82,.95Z"/></g><g><circle class="cls-30" cx="354.7" cy="172.14" r="2.02"/><path class="cls-30" d="M356.76,181.66h-4.12c-.51,0-.89-.45-.82-.95l.76-5.19c.06-.41,.41-.71,.82-.71h2.6c.41,0,.76,.3,.82,.71l.76,5.19c.07,.5-.31,.95-.82,.95Z"/></g></g></g></svg>