<?xml version="1.0" encoding="UTF-8"?><svg id="_レイヤー_2" xmlns="http://www.w3.org/2000/svg" xmlns:xlink="http://www.w3.org/1999/xlink" viewBox="0 0 663.62 317.54"><defs><style>.cls-1{fill:#fff;stroke-width:1.25px;}.cls-1,.cls-2,.cls-3,.cls-4,.cls-5{stroke:#5e5c5c;}.cls-6{fill:#fef9e4;}.cls-7{fill:#f2bfd7;}.cls-8{stroke:url(#_新規パターンスウォッチ_2);stroke-width:1.28px;}.cls-8,.cls-2,.cls-3,.cls-9,.cls-10,.cls-11,.cls-5{fill:none;}.cls-8,.cls-10{stroke-miterlimit:10;}.cls-12{fill:#77bde9;}.cls-2,.cls-3,.cls-4,.cls-5{stroke-linejoin:round;}.cls-2,.cls-4,.cls-5{stroke-linecap:round;}.cls-13{fill:#f3fafe;}.cls-14{fill:#76b5de;}.cls-15{fill:#fbedcc;}.cls-16{fill:#b2ce65;}.cls-10{stroke:#ed0;stroke-width:2px;}.cls-4{fill:#f3ed66;}.cls-11{stroke:#231815;}.cls-17{fill:#f3f9f8;}.cls-18{fill:#f7d15f;}.cls-5{stroke-width:3px;}</style><pattern id="_新規パターンスウォッチ_2" x="0" y="0" width="136" height="183.16" patternTransform="translate(-3047.91 1928.69) scale(1.28)" patternUnits="userSpaceOnUse" viewBox="0 0 136 183.16"><g><rect class="cls-9" width="136" height="183.16"/><line class="cls-10" y2="183.16"/><line class="cls-10" x1="17" x2="17" y2="183.16"/><line class="cls-10" x1="34" x2="34" y2="183.16"/><line class="cls-10" x1="51" x2="51" y2="183.16"/><line class="cls-10" x1="68" x2="68" y2="183.16"/><line class="cls-10" x1="85" x2="85" y2="183.16"/><line class="cls-10" x1="102" x2="102" y2="183.16"/><line class="cls-10" x1="119" x2="119" y2="183.16"/><line class="cls-10" x1="136" x2="136" y2="183.16"/></g></pattern></defs><g id="map"><g id="_1F"><rect class="cls-4" x="159.21" y="165.59" width="131.08" height="53.99"/><g><g><polygon class="cls-7" points="172.41 130.05 172.41 153.71 155.63 153.71 155.63 141.37 161.33 141.37 161.33 130.05 172.41 130.05"/><rect class="cls-17" x="172.41" y="130.05" width="34.36" height="23.66"/><polygon class="cls-14" points="155.63 141.37 155.63 153.71 133.34 153.71 133.34 130.05 149.93 130.05 149.93 141.37 155.63 141.37"/><polygon class="cls-6" points="161.33 130.05 161.33 141.37 155.63 141.37 149.93 141.37 149.93 130.05 133.34 130.05 133.34 153.71 133.34 230.64 133.34 242.47 133.34 254.31 145.26 254.31 167.05 254.31 184.33 254.31 224.75 254.31 265.18 254.31 265.18 277.96 219.14 277.96 190.37 277.96 161.94 277.96 133.34 277.96 86.02 277.96 68.65 277.96 68.65 293.28 86.02 293.28 86.02 300.49 65.73 300.49 45.45 300.49 45.45 293.28 62.82 293.28 62.82 277.96 45.45 277.96 45.45 254.31 86.02 254.31 86.02 230.64 86.02 153.71 86.02 130.05 45.45 130.05 1.5 130.05 1.5 106.39 16.54 106.39 71.16 106.39 86.2 106.39 145.27 106.39 212.27 106.39 279.28 106.39 323.23 106.39 411.57 106.39 440.96 106.39 440.96 153.71 426.06 153.71 426.06 130.05 385.5 130.05 385.5 153.71 280.2 153.71 280.2 130.05 262.92 130.05 241.13 130.05 206.77 130.05 172.41 130.05 161.33 130.05"/><rect class="cls-7" x="262.92" y="130.05" width="17.28" height="23.66"/><rect class="cls-12" x="241.13" y="130.05" width="21.79" height="23.66"/><polygon class="cls-18" points="662.12 172.46 662.12 315.72 455.88 315.72 455.88 172.46 483.06 172.46 608.84 172.46 662.12 172.46"/><rect class="cls-17" x="483.06" y="158.64" width="125.78" height="13.82"/><rect class="cls-17" x="450.22" y="76.84" width="30.07" height="27.28"/><rect class="cls-17" x="440.96" y="304.53" width="14.89" height="11.51"/><rect class="cls-12" x="440.96" y="275.29" width="14.89" height="29.24"/><rect class="cls-15" x="440.96" y="259.88" width="14.89" height="15.42"/><rect class="cls-7" x="440.96" y="230.64" width="14.89" height="29.24"/><rect class="cls-15" x="440.96" y="172.46" width="14.89" height="58.18"/><path class="cls-17" d="M426.27,9.87c43.94,24.65,22.14,58.43,22.14,58.43h-36.84v38.08h-88.34v-38.08h-21.94c-11.87-50.97,81.4-82.86,124.98-58.43Z"/><polygon class="cls-17" points="440.96 304.53 440.96 316.04 265.18 316.04 265.18 277.96 265.18 254.31 265.18 230.64 385.5 230.64 385.5 254.31 426.06 254.31 426.06 275.29 440.96 275.29 440.96 304.53"/><polygon class="cls-15" points="440.96 259.88 440.96 275.29 426.06 275.29 426.06 254.31 426.06 230.64 440.96 230.64 440.96 259.88"/><rect class="cls-17" x="411.57" y="68.31" width="29.39" height="38.08"/><rect class="cls-17" x="385.5" y="230.64" width="40.57" height="23.67"/><rect class="cls-17" x="385.5" y="130.05" width="40.57" height="23.66"/><polygon class="cls-17" points="323.23 68.31 323.23 106.39 279.28 106.39 279.28 68.31 301.29 68.31 323.23 68.31"/><rect class="cls-17" x="212.27" y="68.31" width="67.01" height="38.08"/><polygon class="cls-17" points="265.18 277.96 265.18 316.04 219.14 316.04 219.14 315.95 219.14 277.96 265.18 277.96"/><rect class="cls-17" x="224.75" y="230.64" width="40.43" height="23.67"/><rect class="cls-17" x="206.77" y="130.05" width="34.36" height="23.66"/><rect class="cls-17" x="184.33" y="230.64" width="40.43" height="23.67"/><rect class="cls-17" x="190.37" y="277.96" width="28.77" height="37.99"/><rect class="cls-17" x="145.27" y="68.31" width="67" height="38.08"/><polygon class="cls-17" points="190.37 277.96 190.37 315.95 161.94 315.95 161.94 315.72 161.94 277.96 190.37 277.96"/><rect class="cls-12" x="167.05" y="230.64" width="17.28" height="23.67"/><polygon class="cls-7" points="167.05 230.64 167.05 254.31 145.26 254.31 145.26 242.47 145.26 230.64 167.05 230.64"/><rect class="cls-17" x="133.34" y="277.96" width="28.6" height="37.76"/><rect class="cls-17" x="86.2" y="68.31" width="59.07" height="38.08"/><rect class="cls-17" x="133.34" y="242.47" width="11.92" height="11.84"/><rect class="cls-17" x="133.34" y="230.64" width="11.92" height="11.83"/><polygon class="cls-17" points="133.34 277.96 133.34 315.72 86.02 315.72 86.02 300.49 86.02 293.28 86.02 277.96 133.34 277.96"/><rect class="cls-17" x="71.16" y="68.31" width="15.03" height="38.08"/><rect class="cls-17" x="65.73" y="300.49" width="20.29" height="15.23"/><rect class="cls-17" x="68.65" y="277.96" width="17.37" height="15.32"/><rect class="cls-17" x="45.45" y="230.64" width="40.57" height="23.67"/><rect class="cls-17" x="45.45" y="130.05" width="40.57" height="23.66"/><rect class="cls-17" x="16.54" y="68.31" width="54.63" height="38.08"/><polygon class="cls-17" points="65.73 315.72 65.73 316.04 45.45 316.04 45.45 300.49 65.73 300.49 65.73 315.72"/><rect class="cls-17" x="45.45" y="277.96" width="17.37" height="15.32"/><rect class="cls-17" x="1.5" y="68.31" width="15.03" height="38.08"/></g><g><polyline class="cls-11" points="1.5 106.39 1.5 130.05 45.45 130.05"/><path class="cls-11" d="M440.96,68.31h7.45s21.8-33.79-22.14-58.43c-43.58-24.43-136.85,7.46-124.98,58.43"/><polyline class="cls-11" points="426.06 153.71 440.96 153.71 440.96 106.39"/><line class="cls-11" x1="280.2" y1="153.71" x2="385.5" y2="153.71"/><line class="cls-11" x1="133.34" y1="230.64" x2="133.34" y2="153.71"/><line class="cls-11" x1="455.88" y1="172.46" x2="455.85" y2="172.46"/><polyline class="cls-11" points="455.85 316.04 662.12 316.04 662.12 315.72"/><line class="cls-11" x1="65.73" y1="316.04" x2="219.14" y2="316.04"/><line class="cls-11" x1="45.45" y1="293.28" x2="45.45" y2="300.49"/><line class="cls-11" x1="45.45" y1="254.31" x2="45.45" y2="277.96"/><line class="cls-11" x1="86.02" y1="153.71" x2="86.02" y2="230.64"/><polyline class="cls-11" points="1.5 106.39 1.5 68.31 16.54 68.31"/><line class="cls-3" x1="16.54" y1="106.39" x2="1.5" y2="106.39"/><line class="cls-11" x1="16.54" y1="68.31" x2="71.16" y2="68.31"/><polyline class="cls-3" points="71.16 106.39 16.54 106.39 16.54 68.31"/><line class="cls-11" x1="71.16" y1="68.31" x2="86.2" y2="68.31"/><polyline class="cls-3" points="86.2 106.39 71.16 106.39 71.16 68.31"/><line class="cls-11" x1="86.2" y1="68.31" x2="145.27" y2="68.31"/><polyline class="cls-3" points="145.27 106.39 86.2 106.39 86.2 68.31"/><line class="cls-11" x1="145.27" y1="68.31" x2="212.27" y2="68.31"/><polyline class="cls-3" points="212.27 106.39 145.27 106.39 145.27 68.31"/><line class="cls-11" x1="212.27" y1="68.31" x2="279.28" y2="68.31"/><polyline class="cls-3" points="279.28 106.39 212.27 106.39 212.27 68.31"/><polyline class="cls-3" points="301.29 68.31 323.23 68.31 323.23 106.39 279.28 106.39 279.28 68.31"/><line class="cls-11" x1="279.28" y1="68.31" x2="301.29" y2="68.31"/><line class="cls-11" x1="440.96" y1="68.31" x2="440.96" y2="106.39"/><polyline class="cls-3" points="440.96 106.39 411.57 106.39 411.57 68.31 440.96 68.31"/><polyline class="cls-3" points="133.34 153.71 133.34 130.05 149.93 130.05"/><line class="cls-11" x1="155.63" y1="153.71" x2="133.34" y2="153.71"/><line class="cls-3" x1="155.63" y1="153.71" x2="155.63" y2="141.37"/><line class="cls-11" x1="172.41" y1="153.71" x2="155.63" y2="153.71"/><line class="cls-3" x1="161.33" y1="130.05" x2="172.41" y2="130.05"/><polyline class="cls-3" points="172.41 153.71 172.41 130.05 206.77 130.05"/><line class="cls-11" x1="206.77" y1="153.71" x2="172.41" y2="153.71"/><polyline class="cls-3" points="206.77 153.71 206.77 130.05 241.13 130.05"/><line class="cls-11" x1="241.13" y1="153.71" x2="206.77" y2="153.71"/><polyline class="cls-3" points="241.13 153.71 241.13 130.05 262.92 130.05"/><line class="cls-11" x1="262.92" y1="153.71" x2="241.13" y2="153.71"/><polyline class="cls-3" points="262.92 153.71 262.92 130.05 280.2 130.05 280.2 153.71"/><line class="cls-11" x1="280.2" y1="153.71" x2="262.92" y2="153.71"/><polyline class="cls-3" points="385.5 153.71 385.5 130.05 426.06 130.05 426.06 153.71"/><line class="cls-11" x1="426.06" y1="153.71" x2="385.5" y2="153.71"/><line class="cls-3" x1="323.23" y1="106.39" x2="411.57" y2="106.39"/><polyline class="cls-2" points="155.63 130.05 161.33 130.05 161.33 141.37 155.63 141.37 149.93 141.37 149.93 130.05"/><line class="cls-11" x1="133.34" y1="230.64" x2="145.26" y2="230.64"/><line class="cls-3" x1="133.34" y1="242.47" x2="133.34" y2="230.64"/><polyline class="cls-3" points="145.26 254.31 133.34 254.31 133.34 242.47 145.26 242.47"/><line class="cls-11" x1="145.26" y1="230.64" x2="167.05" y2="230.64"/><polyline class="cls-3" points="167.05 254.31 145.26 254.31 145.26 242.47 145.26 230.64"/><line class="cls-11" x1="167.05" y1="230.64" x2="184.33" y2="230.64"/><polyline class="cls-3" points="184.33 254.31 167.05 254.31 167.05 230.64"/><line class="cls-11" x1="184.33" y1="230.64" x2="224.75" y2="230.64"/><polyline class="cls-3" points="224.75 254.31 184.33 254.31 184.33 230.64"/><line class="cls-11" x1="224.75" y1="230.64" x2="265.18" y2="230.64"/><polyline class="cls-3" points="265.18 254.31 224.75 254.31 224.75 230.64"/><line class="cls-11" x1="265.18" y1="230.64" x2="385.5" y2="230.64"/><polyline class="cls-3" points="265.18 277.96 265.18 254.31 265.18 230.64"/><line class="cls-11" x1="440.96" y1="316.04" x2="265.18" y2="316.04"/><line class="cls-11" x1="385.5" y1="230.64" x2="426.06" y2="230.64"/><polyline class="cls-3" points="426.06 254.31 385.5 254.31 385.5 230.64"/><line class="cls-11" x1="426.06" y1="230.64" x2="440.96" y2="230.64"/><polyline class="cls-3" points="440.96 275.29 426.06 275.29 426.06 254.31 426.06 230.64"/><line class="cls-3" x1="455.85" y1="230.64" x2="455.85" y2="259.88"/><line class="cls-3" x1="455.85" y1="275.29" x2="455.85" y2="304.53"/><line class="cls-3" x1="440.96" y1="304.53" x2="440.96" y2="275.29"/><polyline class="cls-8" points="455.88 172.46 455.88 315.72 662.12 315.72"/><line class="cls-11" x1="483.06" y1="172.46" x2="455.88" y2="172.46"/><polyline class="cls-11" points="662.12 315.72 662.12 172.46 608.84 172.46"/><polyline class="cls-3" points="86.02 230.64 86.02 254.31 45.45 254.31"/><polyline class="cls-11" points="45.45 254.31 45.45 230.64 86.02 230.64"/><rect class="cls-3" x="45.45" y="130.05" width="40.57" height="23.66"/><line class="cls-3" x1="65.73" y1="316.04" x2="65.73" y2="315.72"/><polyline class="cls-11" points="45.45 300.49 45.45 316.04 65.73 316.04"/><line class="cls-3" x1="65.73" y1="300.49" x2="45.45" y2="300.49"/><polyline class="cls-3" points="86.02 315.72 65.73 315.72 65.73 300.49 86.02 300.49"/><line class="cls-11" x1="45.45" y1="293.28" x2="45.45" y2="277.96"/><polyline class="cls-3" points="45.45 277.96 62.82 277.96 62.82 293.28 45.45 293.28"/><polyline class="cls-3" points="86.02 293.28 68.65 293.28 68.65 277.96 86.02 277.96"/><polyline class="cls-3" points="133.34 315.72 86.02 315.72 86.02 300.49 86.02 293.28 86.02 277.96 133.34 277.96"/><polyline class="cls-3" points="161.94 315.72 133.34 315.72 133.34 277.96 161.94 277.96"/><polyline class="cls-3" points="190.37 315.95 161.94 315.95 161.94 315.72 161.94 277.96 190.37 277.96"/><polyline class="cls-3" points="219.14 315.95 190.37 315.95 190.37 277.96 219.14 277.96"/><polyline class="cls-3" points="219.14 316.04 219.14 315.95 219.14 277.96 265.18 277.96 265.18 316.04"/><line class="cls-11" x1="265.18" y1="316.04" x2="219.14" y2="316.04"/><rect class="cls-3" x="450.22" y="76.84" width="30.07" height="27.28"/><line class="cls-11" x1="483.06" y1="172.46" x2="608.84" y2="172.46"/><polyline class="cls-3" points="608.84 172.46 608.84 158.64 483.06 158.64 483.06 172.46"/><polyline class="cls-3" points="455.85 172.46 455.85 230.64 440.96 230.64"/><polyline class="cls-11" points="440.96 230.64 440.96 172.46 455.85 172.46"/><polyline class="cls-3" points="455.85 316.04 455.85 304.53 440.96 304.53 440.96 316.04"/><line class="cls-11" x1="440.96" y1="316.04" x2="455.85" y2="316.04"/><polyline class="cls-3" points="440.96 275.29 455.85 275.29 455.85 259.88 440.96 259.88"/></g></g><rect class="cls-16" x="150.37" y="130.5" width="10.51" height="10.42"/><g><path class="cls-5" d="M45.45,230.64v85.4H662.12V172.46h-221.16v58.18H133.34v-76.93H440.95V68.31h7.45s21.8-33.79-22.14-58.43c-43.58-24.43-136.85,7.46-124.98,58.43H1.5v61.74H45.45v23.66s40.57,0,40.57,0v76.93H45.45Z"/><g><line class="cls-1" x1="426.06" y1="242.47" x2="398.58" y2="242.47"/><line class="cls-1" x1="398.58" y1="230.85" x2="398.58" y2="254.08"/><line class="cls-1" x1="401.64" y1="230.85" x2="401.64" y2="254.08"/><line class="cls-1" x1="404.69" y1="230.85" x2="404.69" y2="254.08"/><line class="cls-1" x1="407.74" y1="230.85" x2="407.74" y2="254.08"/><line class="cls-1" x1="410.8" y1="230.85" x2="410.8" y2="254.08"/><line class="cls-1" x1="413.85" y1="230.85" x2="413.85" y2="254.08"/><line class="cls-1" x1="416.9" y1="230.85" x2="416.9" y2="254.08"/><line class="cls-1" x1="419.95" y1="230.85" x2="419.95" y2="254.08"/><line class="cls-1" x1="423.01" y1="230.85" x2="423.01" y2="254.08"/></g><g><line class="cls-1" x1="426.21" y1="141.12" x2="398.73" y2="141.12"/><line class="cls-1" x1="398.74" y1="130.05" x2="398.74" y2="153.27"/><line class="cls-1" x1="401.79" y1="130.05" x2="401.79" y2="153.27"/><line class="cls-1" x1="404.84" y1="130.05" x2="404.84" y2="153.27"/><line class="cls-1" x1="407.89" y1="130.05" x2="407.89" y2="153.27"/><line class="cls-1" x1="410.95" y1="130.05" x2="410.95" y2="153.27"/><line class="cls-1" x1="414" y1="130.05" x2="414" y2="153.27"/><line class="cls-1" x1="417.05" y1="130.05" x2="417.05" y2="153.27"/><line class="cls-1" x1="420.11" y1="130.05" x2="420.11" y2="153.27"/><line class="cls-1" x1="423.16" y1="130.05" x2="423.16" y2="153.27"/></g><g><line class="cls-1" x1="86.02" y1="141.85" x2="58.54" y2="141.85"/><line class="cls-1" x1="58.54" y1="130.23" x2="58.54" y2="153.46"/><line class="cls-1" x1="61.59" y1="130.23" x2="61.59" y2="153.46"/><line class="cls-1" x1="64.64" y1="130.23" x2="64.64" y2="153.46"/><line class="cls-1" x1="67.7" y1="130.23" x2="67.7" y2="153.46"/><line class="cls-1" x1="70.75" y1="130.23" x2="70.75" y2="153.46"/><line class="cls-1" x1="73.8" y1="130.23" x2="73.8" y2="153.46"/><line class="cls-1" x1="76.86" y1="130.23" x2="76.86" y2="153.46"/><line class="cls-1" x1="79.91" y1="130.23" x2="79.91" y2="153.46"/><line class="cls-1" x1="82.96" y1="130.23" x2="82.96" y2="153.46"/></g><g><line class="cls-1" x1="86.02" y1="243" x2="58.54" y2="243"/><line class="cls-1" x1="58.54" y1="231.39" x2="58.54" y2="254.61"/><line class="cls-1" x1="61.59" y1="231.39" x2="61.59" y2="254.61"/><line class="cls-1" x1="64.64" y1="231.39" x2="64.64" y2="254.61"/><line class="cls-1" x1="67.7" y1="231.39" x2="67.7" y2="254.61"/><line class="cls-1" x1="70.75" y1="231.39" x2="70.75" y2="254.61"/><line class="cls-1" x1="73.8" y1="231.39" x2="73.8" y2="254.61"/><line class="cls-1" x1="76.86" y1="231.39" x2="76.86" y2="254.61"/><line class="cls-1" x1="79.91" y1="231.39" x2="79.91" y2="254.61"/><line class="cls-1" x1="82.96" y1="231.39" x2="82.96" y2="254.61"/></g><polyline class="cls-5" points="448.4 68.31 480.29 68.6 466.46 32.41"/><polyline class="cls-5" points="490.86 32.41 534.85 142.89 662.12 132.44 662.12 172.46"/></g><line class="cls-2" x1="440.95" y1="230.64" x2="440.95" y2="259.88"/><g><circle class="cls-17" cx="252.14" cy="138.13" r="2.02"/><rect class="cls-17" x="250.12" y="140.8" width="4.04" height="6.85" rx=".89" ry=".89"/></g><g><circle class="cls-17" cx="271.56" cy="138.13" r="2.02"/><path class="cls-17" d="M273.62,147.65h-4.12c-.51,0-.89-.45-.82-.95l.76-5.19c.06-.41,.41-.71,.82-.71h2.6c.41,0,.76,.3,.82,.71l.76,5.19c.07,.5-.31,.95-.82,.95Z"/></g><g><circle class="cls-17" cx="143.38" cy="138.13" r="2.02"/><rect class="cls-17" x="141.36" y="140.8" width="4.04" height="6.85" rx=".89" ry=".89"/></g><g><circle class="cls-17" cx="165.89" cy="138.13" r="2.02"/><path class="cls-17" d="M167.95,147.65h-4.12c-.51,0-.89-.45-.82-.95l.76-5.19c.06-.41,.41-.71,.82-.71h2.6c.41,0,.76,.3,.82,.71l.76,5.19c.07,.5-.31,.95-.82,.95Z"/></g><g><circle class="cls-17" cx="156.24" cy="238.75" r="2.02"/><path class="cls-17" d="M158.3,248.28h-4.12c-.51,0-.89-.45-.82-.95l.76-5.19c.06-.41,.41-.71,.82-.71h2.6c.41,0,.76,.3,.82,.71l.76,5.19c.07,.5-.31,.95-.82,.95Z"/></g><g><circle class="cls-17" cx="448.5" cy="241.82" r="2.02"/><path class="cls-17" d="M450.56,251.35h-4.12c-.51,0-.89-.45-.82-.95l.76-5.19c.06-.41,.41-.71,.82-.71h2.6c.41,0,.76,.3,.82,.71l.76,5.19c.07,.5-.31,.95-.82,.95Z"/></g><g><circle class="cls-17" cx="448.4" cy="286.16" r="2.02"/><rect class="cls-17" x="446.38" y="288.83" width="4.04" height="6.85" rx=".89" ry=".89"/></g><g><circle class="cls-17" cx="176.15" cy="238.75" r="2.02"/><rect class="cls-17" x="174.13" y="241.43" width="4.04" height="6.85" rx=".89" ry=".89"/></g><g><path class="cls-13" d="M199.91,191.47c0,.18-.18,.3-.46,.32-.53,4.65-1.56,8.35-7.43,10.24-.16-.39-.62-1.01-.94-1.33,5.5-1.61,6.42-4.9,6.79-9.41l2.05,.18Zm5.64,8.08c0,.76,.18,.92,1.13,.92h3.22c.94,0,1.13-.58,1.22-3.98,.35,.3,1.01,.55,1.43,.67-.18,3.77-.6,4.79-2.53,4.79h-3.47c-2,0-2.55-.53-2.55-2.39v-8.51h-12.49v-1.47h9.53v-9l2.03,.14c-.02,.16-.14,.28-.46,.32v8.54h9.71v1.47h-6.54c-.07,.02-.14,.02-.21,.05v8.47Zm-10.65-17.81c1.22,1.82,2.46,4.21,2.92,5.78l-1.5,.6c-.41-1.54-1.61-4-2.83-5.84l1.4-.53Zm15.85,.51c-.07,.14-.25,.23-.53,.23-.76,1.68-2.05,4.1-3.08,5.61-.02,0-1.29-.58-1.29-.58,1.04-1.59,2.35-4.19,3.04-6.03l1.86,.76Z"/><path class="cls-13" d="M226.21,184.77c-.09,.21-.28,.37-.58,.37-.83,7.16-3.22,13.39-7.04,13.39-1.93,0-3.68-1.93-3.68-5.57,0-5.52,4.3-10.15,10.35-10.15,6.65,0,9.53,4.21,9.53,8.7,0,5.48-3.18,8.12-8.74,9.41-.21-.37-.6-.99-.97-1.4,5.29-1.01,8.01-3.59,8.01-7.94,0-3.8-2.44-7.25-7.82-7.25-.23,0-.48,.02-.69,.05l1.63,.39Zm-2.21-.3c-4.65,.58-7.52,4.42-7.52,8.44,0,2.46,1.06,4,2.16,4,2.78,0,4.79-6.14,5.36-12.45Z"/><path class="cls-13" d="M240.38,184.17v5.52c0,3.59-.25,8.79-2.09,12.36-.28-.28-.92-.74-1.29-.87,1.75-3.38,1.89-8.08,1.89-11.48v-6.95h8.86v-2.16l2.05,.14c-.02,.16-.14,.28-.46,.32v1.7h9v1.43h-17.95Zm6.49,6.93l.85,.32c0,.12-.07,.18-.14,.25-.46,2.76-1.24,4.95-2.35,6.67,1.75,1.5,4.16,1.86,7.16,1.89,.74,0,5.41,0,6.4-.02-.23,.35-.48,.99-.55,1.4h-5.91c-3.38,0-6.01-.46-7.92-2.14-.9,1.08-1.98,1.93-3.17,2.55-.21-.32-.69-.85-1.01-1.08,1.24-.6,2.32-1.43,3.22-2.51-.81-1.04-1.45-2.37-1.96-4.12l1.17-.44c.39,1.43,.94,2.55,1.59,3.43,.83-1.31,1.43-2.95,1.82-4.9h-2.92l-.46,.71-1.27-.39c1.08-1.68,2.37-3.82,3.27-5.38h-3.41v-1.31h4.35l.28-.09,.94,.46c-.05,.09-.12,.18-.21,.28-.64,1.13-1.68,2.81-2.69,4.46h2.67l.25-.05Zm11.48,1.17h-4.46v4.1h3.98v1.36h-9.18v-1.36h3.73v-4.1h-4.19v-1.36h4.19v-3.15c-1.17,.18-2.37,.35-3.5,.46-.07-.32-.28-.81-.44-1.13,2.78-.35,6.14-.94,7.87-1.68l1.24,1.17s-.14,.07-.23,.07c-.05,0-.12,0-.18-.02-.76,.28-1.77,.55-2.9,.78-.07,.09-.18,.14-.39,.16v3.34h4.46v1.36Z"/></g><g><path class="cls-13" d="M544.2,237.31h-5.57c1.5,1.66,3.87,3.06,6.26,3.7-.32,.3-.76,.85-.97,1.22-1.56-.51-3.08-1.33-4.42-2.37v3.01h-10.47v-3.04c-1.29,1.06-2.78,1.89-4.37,2.51-.23-.3-.71-.81-1.06-1.06,2.37-.85,4.46-2.19,6.05-3.98h-5.52v-1.31h6.53c.35-.53,.64-1.06,.9-1.66-1.86,.11-3.77,.18-5.52,.21-.02-.35-.18-.9-.32-1.22,5.2-.11,11.67-.51,15.07-1.22l1.15,1.2s-.14,.07-.23,.07c-.05,0-.14-.02-.21-.05-2,.39-4.83,.69-7.87,.9-.07,.07-.23,.14-.46,.14-.23,.58-.51,1.1-.81,1.63h11.83v1.31Zm-1.13,6.88v7.39c0,1.7-.92,1.75-4.42,1.75-.09-.41-.32-.97-.53-1.36,.83,.02,1.59,.05,2.14,.05,1.13,0,1.29,0,1.29-.44v-6.1h-14.66v7.85h-1.5v-9.14h17.67Zm-4.49,7.13h-7.41v1.15h-1.4v-5.5h8.81v4.35Zm-.35-12.59c-.46-.46-.85-.92-1.22-1.43h-5.5c-.39,.51-.81,.99-1.24,1.43h7.96Zm-.23,3.08v-2.05h-7.55v2.05h7.55Zm-.85,6.21h-5.98v2.23h5.98v-2.23Z"/><path class="cls-13" d="M549.67,242.77c-.83,1.08-1.7,2.07-2.53,2.9-.16-.32-.6-.99-.85-1.31,1.84-1.75,4.03-4.62,5.41-7.36l1.73,.67c-.09,.18-.32,.23-.53,.21-.51,.94-1.1,1.91-1.75,2.85l.44,.14c-.05,.14-.18,.25-.46,.28v12.17h-1.45v-10.54Zm3.29-10.15c-.09,.21-.32,.21-.51,.18-1.24,1.59-3.43,3.73-5.22,5.18-.18-.3-.6-.85-.88-1.13,1.7-1.29,3.8-3.31,4.9-4.92l1.7,.69Zm2.55,15.14c-.39,1.79-1.06,3.77-2.44,4.97l-1.17-.9c1.24-1.01,1.93-2.81,2.3-4.49l1.31,.41Zm-2.65-13.3h6.53v-2.55l1.98,.14c-.02,.16-.14,.28-.46,.32v2.09h6.88v1.43h-6.88v2.42h5.89v6.35h-12.86v-6.35h5.45v-2.42h-6.53v-1.43Zm4.9,8.88v-3.73h-2.48v3.73h2.48Zm.37,7.69c0,.51,.16,.6,.97,.6h2.81c.67,0,.78-.25,.85-2.28,.32,.23,.92,.44,1.31,.55-.14,2.46-.58,3.04-2.03,3.04h-3.11c-1.79,0-2.23-.39-2.23-1.91v-3.47l1.89,.12c-.02,.16-.14,.28-.46,.32v3.04Zm.32-5.96c1.36,.6,2.99,1.56,3.82,2.35l-1.04,1.04c-.78-.76-2.39-1.82-3.75-2.44l.97-.94Zm3.13-1.73v-3.73h-2.6v3.73h2.6Zm1.22-3.73v3.73h2.65v-3.73h-2.65Zm3.91,12.75c-.55-1.38-2.05-3.36-3.54-4.74l1.22-.62c1.52,1.33,3.06,3.24,3.64,4.65l-1.31,.71Z"/><path class="cls-13" d="M585.41,234.62h5.06v3.66h-1.43v-2.35h-8.61v2.35h-1.38v-2l-1.01,.9c-.69-.97-2.07-2.37-3.38-3.52-.81,1.4-1.91,2.99-3.27,4.46h2.65v-2.28l1.77,.11c-.02,.16-.14,.25-.44,.3v1.86h2.81v7.5h-5.59v4.37c1.08-.23,2.25-.51,3.41-.78-.53-.76-1.13-1.47-1.7-2.12l1.17-.64c1.52,1.59,3.11,3.75,3.73,5.22l-1.24,.74c-.25-.6-.67-1.31-1.15-2.07-2.39,.64-4.86,1.29-6.42,1.68-.02,.18-.14,.3-.28,.35l-.69-1.68c.51-.09,1.1-.23,1.75-.37v-11.94c-.23,.25-.46,.48-.71,.71-.28-.34-.76-.78-1.1-.97,2.12-1.89,3.7-4.35,4.6-6.21l1.84,.28c-.05,.16-.18,.28-.44,.3,1.33,1.1,2.9,2.58,3.7,3.64v-1.5h4.86v-2.69l1.96,.14c-.02,.16-.16,.28-.46,.3v2.25Zm-8.65,4.72h-4.17v1.89h4.17v-1.89Zm-4.17,5.06h4.17v-1.98h-4.17v1.98Zm9.37-.44v2h7.71v7.18h-1.45v-.97h-6.26v1.1h-1.43v-15.12h8.24v5.8h-6.81Zm5.36-4.49h-5.36v3.18h5.36v-3.18Zm.9,7.82h-6.26v3.52h6.26v-3.52Z"/></g></g></g></svg>