<?xml version="1.0" encoding="UTF-8"?><svg id="_レイヤー_2" xmlns="http://www.w3.org/2000/svg" viewBox="0 0 475.41 299.39"><defs><style>.cls-1{fill:#f2bfd7;}.cls-1,.cls-2,.cls-3,.cls-4,.cls-5,.cls-6,.cls-7,.cls-8{stroke:#5e5c5c;stroke-linejoin:round;}.cls-2,.cls-3{fill:#bbe1e7;}.cls-9{fill:#78bbcf;}.cls-10{fill:#fef9e4;}.cls-3{stroke-width:.94px;}.cls-4{fill:#fff;}.cls-4,.cls-6{stroke-width:1px;}.cls-11{fill:#5e5c5c;}.cls-5{fill:none;stroke-width:3px;}.cls-6,.cls-8{fill:#f3fafe;}.cls-7{fill:#77bde9;}.cls-12{fill:#f3f9f8;}</style></defs><g id="map"><g id="_5_6F"><g id="_5F"><rect class="cls-10" x="77.15" y="212.28" width="396.44" height="85.61"/><g><polyline class="cls-6" points="118.88 212.28 78.35 212.28 78.35 235.9 118.88 235.9 118.88 212.28"/><line class="cls-4" x1="90.81" y1="212.28" x2="90.81" y2="235.9"/><line class="cls-4" x1="93.93" y1="212.28" x2="93.93" y2="235.9"/><line class="cls-4" x1="97.05" y1="212.28" x2="97.05" y2="235.9"/><line class="cls-4" x1="100.17" y1="212.28" x2="100.17" y2="235.9"/><line class="cls-4" x1="103.29" y1="212.28" x2="103.29" y2="235.9"/><line class="cls-4" x1="106.4" y1="212.28" x2="106.4" y2="235.9"/><line class="cls-4" x1="109.52" y1="212.28" x2="109.52" y2="235.9"/><line class="cls-4" x1="112.64" y1="212.28" x2="112.64" y2="235.9"/><line class="cls-4" x1="115.76" y1="212.28" x2="115.76" y2="235.9"/><line class="cls-4" x1="90.64" y1="224.02" x2="118.89" y2="224.02"/></g><g><polyline class="cls-6" points="458.7 212.28 418.17 212.28 418.17 235.9 458.7 235.9 458.7 212.28"/><line class="cls-4" x1="430.63" y1="212.28" x2="430.63" y2="235.9"/><line class="cls-4" x1="433.75" y1="212.28" x2="433.75" y2="235.9"/><line class="cls-4" x1="436.87" y1="212.28" x2="436.87" y2="235.9"/><line class="cls-4" x1="439.99" y1="212.28" x2="439.99" y2="235.9"/><line class="cls-4" x1="443.11" y1="212.28" x2="443.11" y2="235.9"/><line class="cls-4" x1="446.22" y1="212.28" x2="446.22" y2="235.9"/><line class="cls-4" x1="449.34" y1="212.28" x2="449.34" y2="235.9"/><line class="cls-4" x1="452.47" y1="212.28" x2="452.47" y2="235.9"/><line class="cls-4" x1="455.58" y1="212.28" x2="455.58" y2="235.9"/><line class="cls-4" x1="430.46" y1="224.02" x2="458.71" y2="224.02"/></g><rect class="cls-3" x="257.4" y="212.22" width="81.75" height="23.72"/><g><rect class="cls-8" x="166.18" y="212.23" width="11.91" height="11.86"/><rect class="cls-8" x="166.18" y="224.08" width="11.91" height="11.86"/><rect class="cls-8" x="178.1" y="212.23" width="79.3" height="23.72"/></g><g><rect class="cls-7" x="396.39" y="212.22" width="21.78" height="23.72"/><rect class="cls-1" x="379.68" y="212.22" width="16.72" height="23.72"/><g><circle class="cls-12" cx="406.88" cy="220.39" r="2.02"/><rect class="cls-12" x="404.86" y="223.07" width="4.04" height="6.85" rx=".89" ry=".89"/></g><g><circle class="cls-12" cx="387.64" cy="220.12" r="2.02"/><path class="cls-12" d="M389.7,229.64h-4.12c-.51,0-.89-.45-.82-.95l.76-5.19c.06-.41,.41-.71,.82-.71h2.6c.41,0,.76,.3,.82,.71l.76,5.19c.07,.5-.31,.95-.82,.95Z"/></g></g><g><rect class="cls-8" x="412.98" y="252.8" width="59.63" height="45.09"/><rect class="cls-8" x="396.39" y="252.8" width="16.58" height="45.09"/><rect class="cls-8" x="379.74" y="252.8" width="16.58" height="45.09"/><rect class="cls-8" x="295.67" y="252.8" width="84.08" height="45.09"/><rect class="cls-8" x="77.15" y="252.8" width="45.06" height="45.06"/><rect class="cls-8" x="122.21" y="252.81" width="45.06" height="45.06"/><rect class="cls-8" x="166.77" y="252.8" width="45.06" height="45.06"/><rect class="cls-8" x="210.97" y="252.81" width="45.06" height="45.06"/></g><rect class="cls-5" x="77.15" y="212.28" width="396.44" height="85.61"/></g><g id="_5Fアイコン"><g id="_切り替え"><g><circle class="cls-9" cx="31.79" cy="204.11" r="31.79"/><circle class="cls-12" cx="31.79" cy="193.7" r="31.79"/></g></g><g><path class="cls-11" d="M23.91,204.79h-5.84c-5.21,0-7.73-2.77-7.73-6.87v-7.13c0-3.65,2.17-6.9,7.02-6.9h12.79v6.14h-10.98c-.98,0-1.31,.7-1.31,1.36v.08c.65-.08,1.28-.1,1.89-.1h4.15c5.36,0,7.18,2.77,7.18,6.17v.73c0,3.47-1.69,6.52-7.18,6.52Zm-.33-7.33c0-.5-.38-.75-.81-.75h-4.13c-.58,0-.78,.4-.78,.73v.23c0,.4,.2,.78,.78,.78h4.13c.63,0,.81-.38,.81-.65v-.33Z"/><path class="cls-11" d="M42.86,190.62c-1.54,0-1.84,.53-1.84,1.94v.2h11.51v5.89h-11.51v5.74h-7.5v-11.71c0-5.94,2.49-8.84,7.78-8.84h11.83v6.77h-10.27Z"/></g></g><g id="_6F"><rect class="cls-10" x="77.47" y="50.31" width="396.44" height="85.61"/><g><polyline class="cls-6" points="119.2 50.31 78.67 50.31 78.67 73.93 119.2 73.93 119.2 50.31"/><line class="cls-4" x1="91.13" y1="50.31" x2="91.13" y2="73.93"/><line class="cls-4" x1="94.25" y1="50.31" x2="94.25" y2="73.93"/><line class="cls-4" x1="97.36" y1="50.31" x2="97.36" y2="73.93"/><line class="cls-4" x1="100.48" y1="50.31" x2="100.48" y2="73.93"/><line class="cls-4" x1="103.61" y1="50.31" x2="103.61" y2="73.93"/><line class="cls-4" x1="106.72" y1="50.31" x2="106.72" y2="73.93"/><line class="cls-4" x1="109.84" y1="50.31" x2="109.84" y2="73.93"/><line class="cls-4" x1="112.96" y1="50.31" x2="112.96" y2="73.93"/><line class="cls-4" x1="116.08" y1="50.31" x2="116.08" y2="73.93"/><line class="cls-4" x1="90.95" y1="62.05" x2="119.21" y2="62.05"/></g><g><polyline class="cls-6" points="459.02 50.31 418.49 50.31 418.49 73.93 459.02 73.93 459.02 50.31"/><line class="cls-4" x1="430.95" y1="50.31" x2="430.95" y2="73.93"/><line class="cls-4" x1="434.07" y1="50.31" x2="434.07" y2="73.93"/><line class="cls-4" x1="437.19" y1="50.31" x2="437.19" y2="73.93"/><line class="cls-4" x1="440.31" y1="50.31" x2="440.31" y2="73.93"/><line class="cls-4" x1="443.43" y1="50.31" x2="443.43" y2="73.93"/><line class="cls-4" x1="446.54" y1="50.31" x2="446.54" y2="73.93"/><line class="cls-4" x1="449.66" y1="50.31" x2="449.66" y2="73.93"/><line class="cls-4" x1="452.78" y1="50.31" x2="452.78" y2="73.93"/><line class="cls-4" x1="455.9" y1="50.31" x2="455.9" y2="73.93"/><line class="cls-4" x1="430.78" y1="62.05" x2="459.03" y2="62.05"/></g><rect class="cls-3" x="257.72" y="50.26" width="81.75" height="23.72"/><g><rect class="cls-8" x="166.5" y="50.26" width="11.91" height="11.86"/><rect class="cls-8" x="166.5" y="62.12" width="11.91" height="11.86"/><rect class="cls-8" x="178.42" y="50.26" width="79.3" height="23.72"/></g><g><rect class="cls-7" x="396.71" y="50.26" width="21.78" height="23.72"/><rect class="cls-1" x="379.99" y="50.26" width="16.72" height="23.72"/><g><circle class="cls-12" cx="407.2" cy="58.43" r="2.02"/><rect class="cls-12" x="405.18" y="61.1" width="4.04" height="6.85" rx=".89" ry=".89"/></g><g><circle class="cls-12" cx="387.96" cy="58.15" r="2.02"/><path class="cls-12" d="M390.02,67.68h-4.12c-.51,0-.89-.45-.82-.95l.76-5.19c.06-.41,.41-.71,.82-.71h2.6c.41,0,.76,.3,.82,.71l.76,5.19c.07,.5-.31,.95-.82,.95Z"/></g></g><g><rect class="cls-8" x="459.03" y="90.83" width="14.89" height="45.09"/><rect class="cls-8" x="388.35" y="90.83" width="70.67" height="45.09"/><rect class="cls-8" x="339.46" y="90.83" width="48.89" height="45.09"/><rect class="cls-8" x="290.58" y="90.83" width="48.89" height="45.09"/><rect class="cls-2" x="251.36" y="90.83" width="39.22" height="45.09"/><rect class="cls-8" x="178.24" y="90.83" width="73.12" height="45.09"/><rect class="cls-8" x="119.21" y="90.83" width="59.03" height="45.09"/><rect class="cls-8" x="98.34" y="122.91" width="20.87" height="13.02"/><rect class="cls-8" x="77.47" y="122.91" width="20.87" height="13.02"/><rect class="cls-8" x="105.08" y="104.95" width="14.12" height="17.95"/><rect class="cls-8" x="105.08" y="90.83" width="14.12" height="14.12"/><rect class="cls-8" x="76.83" y="104.95" width="14.12" height="17.95"/><rect class="cls-8" x="76.83" y="90.83" width="14.12" height="14.12"/></g><rect class="cls-5" x="77.47" y="50.31" width="396.44" height="85.61"/></g><g id="_6Fアイコン"><g id="_切り替え-2"><g><circle class="cls-9" cx="31.79" cy="42.2" r="31.79"/><circle class="cls-12" cx="31.79" cy="31.79" r="31.79"/></g></g><g><path class="cls-11" d="M23.73,42.5H10.34v-6.67h11.91c.53,0,.68-.2,.68-.58v-.15c0-.38-.2-.58-.68-.58H12.96c-1.91,0-2.62-.93-2.62-2.79v-9.74H29.78v6.14h-12.03v.63c0,.25,.18,.35,.45,.35h5.54c5.36,0,6.9,2.22,6.9,5.99v1.18c0,4.28-1.86,6.22-6.9,6.22Z"/><path class="cls-11" d="M42.38,28.7c-1.54,0-1.84,.53-1.84,1.94v.2h11.51v5.89h-11.51v5.74h-7.5v-11.71c0-5.94,2.49-8.84,7.78-8.84h11.83v6.77h-10.27Z"/></g></g></g></g></svg>