<?xml version="1.0" encoding="UTF-8"?><svg id="_レイヤー_2" xmlns="http://www.w3.org/2000/svg" viewBox="0 0 182.51 53.73"><defs><style>.cls-1{fill:#5cc3de;}.cls-2{fill:#fff;}</style></defs><g id="_レイヤー_1-2"><rect class="cls-1" y="0" width="182.51" height="53.73" rx="19.44" ry="19.44"/><g><path class="cls-2" d="M29.84,38.8h-3.11v-7.28h3.28c5.34,0,7.31-1.58,7.31-6v-1.26h-11.3v-6.93h16.95v7.94c0,9.44-5.12,13.54-13.13,13.54Z"/><path class="cls-2" d="M59.51,28.43v10.12h-4.54v-10.12h-.29l-.92,2.79c-2.02,6.18-3.53,7.06-6.55,7.06h-.42v-6h.31c.94,0,1.55-.45,2.29-2.74l.36-1.11h-3.05v-5.8h8.27v-1.81h4.54v1.81h1.26v5.8h-1.26Z"/><path class="cls-2" d="M64.63,31.09v-7.48h16.36v7.48h-16.36Z"/><path class="cls-2" d="M82.94,38.42v-9.19c0-9.59,3.95-12.56,9.26-13.14v7.36c-2.84,.45-3.55,2.26-3.55,5.78v2.66h6.79v-.98c0-.95-.21-1.03-1.35-1.03v-6.86c5.04-.13,6.87,2.41,6.87,8.31v7.08h-18.02Z"/><path class="cls-2" d="M115.55,38.53c-2.67,0-3.76-2.51-3.76-6.13v-6.83c0-.95-.38-2.21-2-2.21-1.32,0-2.12,.95-2.12,2.11v10.8h-5.4v-10.52c0-6.33,3.46-9.52,7.56-9.52,4.71,0,7.37,4.19,7.37,9.62v4.77c0,.78,.13,.98,.75,.98h2.08v6.93h-4.47Z"/><path class="cls-2" d="M136.1,24.46c0-.85-.29-1.31-1.13-1.31h-1.57c-1.15,0-1.51,.5-1.51,2.31v3.17c0,2.06,.5,2.29,1.7,2.29h1.72c.59,0,.82-.45,.82-.93v-.48h-2.81v-4.24h8.38v4.5c0,5.27-1.41,7.66-5.57,7.66h-3.47c-5.12,0-6.39-2.44-6.39-8.79v-3.17c0-6.4,1.13-8.79,6.2-8.79h3.34c4.56,0,5.96,2.08,5.96,7.79h-5.67Z"/><path class="cls-2" d="M152.41,37.4h-2c-5.5,0-6.78-1.91-6.78-8.82v-3.09c0-6.88,1.28-8.82,6.78-8.82h2c5.1,0,6.85,1.93,6.85,8.82v3.09c0,6.91-1.37,8.82-6.85,8.82Zm1.16-11.78c0-1.43-.4-2.36-1.79-2.36h-.75c-1.13,0-1.79,.58-1.79,2.36v2.71c0,1.76,.4,2.39,1.79,2.39h.75c1.39,0,1.79-.98,1.79-2.39v-2.71Z"/></g></g></svg>