<svg xmlns="http://www.w3.org/2000/svg" viewBox="0 0 340.25 628.06"><defs><style>.cls-1,.cls-6{fill:#75b4c6;}.cls-2,.cls-4,.cls-5{fill:none;stroke-miterlimit:10;}.cls-2{stroke:#75b4c6;stroke-width:25px;}.cls-3{fill:#fff;}.cls-4{stroke:#fff;stroke-width:30px;}.cls-5{stroke:#edbdd4;stroke-width:30.67px;opacity:0.25;}.cls-6{opacity:0.5;}.cls-7{fill:#666464;}</style></defs><g id="レイヤー_2" data-name="レイヤー 2"><g id="レイヤー_2-2" data-name="レイヤー 2"><rect class="cls-1" y="283.14" width="321.65" height="111.73" rx="15.77"/><path class="cls-1" d="M173.8,244,290.94,41.08a15,15,0,0,0-13-22.47H43.69a15,15,0,0,0-13,22.47L147.85,244A15,15,0,0,0,173.8,244Z"/><path class="cls-2" d="M158.35,205.13V417.74c0,23.93-1.18,48.1,3.12,71.77,4,22.14,12.21,43.73,25.52,62q2.77,3.82,5.86,7.44C223.59,595,271.29,610,317,614.48c4.73.47,17.77.83,22.51,1.1"/><rect class="cls-3" y="273.6" width="321.65" height="111.73" rx="15.77"/><path class="cls-4" d="M160.61,133.74c0,13.56.15,84,.15,97.53v172c0,23.93-1.18,48.1,3.11,71.76,4,22.14,12.22,43.73,25.52,62q2.79,3.82,5.86,7.43C226,580.51,273.7,595.5,319.44,600q7.1.69,14.22,1.09"/><path class="cls-3" d="M173.8,225.86,290.94,23A15,15,0,0,0,278,.5H43.69A15,15,0,0,0,30.71,23L147.85,225.86A15,15,0,0,0,173.8,225.86Z"/><path class="cls-5" d="M161.88,216.85,277.17,17.16a1.22,1.22,0,0,0-1.05-1.83H45.53a1.22,1.22,0,0,0-1.05,1.83L159.77,216.85A1.22,1.22,0,0,0,161.88,216.85Z"/><rect class="cls-6" x="9.64" y="283.79" width="302.37" height="91.35" rx="12"/><path class="cls-7" d="M79.78,55.9A9.85,9.85,0,0,1,79.86,57c0,2.69-1.73,3.81-5,3.81H70.69c-.44,0-.61.24-.61.47s.17.46.61.46h9.25v4.32H70c-3.25,0-4.43-1.58-4.43-4.78,0-2.71,2-4,4.67-4H74.8c.3,0,.48-.11.48-.45a.46.46,0,0,0-.48-.4H66.27V52.12h8.66a8.54,8.54,0,0,1,1.17.06v-.45h4.25v1.85h-3.2v.49h3.2V55.9Z"/><path class="cls-7" d="M95.62,60.79v.9a4.1,4.1,0,0,1-4.44,4.4H89.63V61.87h.83c.69,0,.93-.34,1-1.08h-2V62c0,2.7-1.26,4.08-3.91,4.08S81.32,64.7,81.32,62V60.71c0-2.59,1.3-3.9,3.73-4V56H82.33V51.88h7.06v4.79h2V52.76h4.21v3.91h.65v4.12Zm-10-.16c-.65,0-1,.16-1,.63v.32a.42.42,0,0,0,.47.48c.44,0,.57-.26.57-.48Z"/><path class="cls-7" d="M110.67,56.68V58.3h1.51v4.56h-1.33c0,2.35-1.22,3.3-3.71,3.3h-1.29a3.11,3.11,0,0,1-3-1.76v1.68h-1.42c-2.72,0-3.91-1.2-3.91-3.72V51.9H102v9.2c0,.43.09.56.48.57a3.45,3.45,0,0,1,3.7-3.37h0V56.68h-3.61V52.49h3.61V51.9h4.5v.59h1.52v4.19Zm-3.57,4.74h-.67a.47.47,0,0,0-.51.48c0,.38.19.58.54.58h.13a.53.53,0,0,0,.51-.56Z"/><path class="cls-7" d="M126.64,65.87h-.53v.48h-3.25v0h-2.13l-.06-.44a15.92,15.92,0,0,1-4.34.44V63.85a5.54,5.54,0,0,1-3,2.63v-6.1c.19-.07.34-.29.34-.69V51.88h5.36v-.43h4.19v.43h4.93v3.41H117.34v.54h1v-.29h3.07v.29h1.14v6.55H120v.8l.26-.08-.08-.42h2.27l.43,2.39V55.58h5.29v2.91a6.59,6.59,0,0,1-.25,1.6,6.9,6.9,0,0,1,.42,2.5C128.32,65,127.84,65.87,126.64,65.87ZM117.05,62a7.38,7.38,0,0,1-.37,1.18h.37Zm3.22-3.84h-.75v.4h.75Zm0,1.58h-.75v.42h.75Zm5.39,1a14,14,0,0,0,.23-2.06h-.37v3.84h.21c.13,0,.17-.1.17-.23A3.87,3.87,0,0,0,125.66,60.73Z"/><path class="cls-7" d="M138.35,56v.78l5.86,1.56v4.77l-5.86-1.69v4.92h-4.48V56h-4.5V51.64h14.92V56Z"/><path class="cls-7" d="M159.46,62.43c-.08,2.27-1.43,3.76-4.12,3.76H155A4,4,0,0,1,150.85,62v-.42a3.77,3.77,0,0,1,4-3.88v-.4c0-.16,0-.33,0-.49h-4.21L150.38,66h-4.29l.31-9.22h-.85V52.55h1l0-.7h4.31l0,.7H155v3.33c.36-2.4,1.76-3.75,4.76-3.75h.57v4.44H160c-.56,0-.75.3-.75.85V58h1v4.47Zm-4.1-1.35h-.79a.51.51,0,0,0-.52.5v.16a.46.46,0,0,0,.52.49h.16c.39,0,.63-.27.63-.73Z"/><path class="cls-7" d="M175.66,56v.64c0,1.63-.81,2.83-3.92,2.83h-3.66c-.91,0-1.59.18-1.59,1.07s.64,1,1.59,1h8v4.53h-8.67c-3.94,0-5.88-1.86-5.88-5.53A5.19,5.19,0,0,1,164,55.88V52.06h4.63v3h3.6v-.85h4.24V56Zm-3.47-2.35V51.83h4.24v1.83Z"/><path class="cls-7" d="M177.64,66V52h4.15V66ZM189,60.33l-2.08.78c-.18.07-.29.16-.29.31s.11.22.37.22h5.24v4.28h-5.94c-2.66,0-4.07-1.41-4.07-4.33,0-1.72.67-3,3.68-4.06l1.67-.58c.2-.11.27-.17.27-.35s-.07-.24-.31-.24l-5.05,0V52.17h5.84c2.64,0,4.16,1.13,4.16,4.08C192.48,58.63,191.33,59.45,189,60.33Z"/><path class="cls-7" d="M207.46,57V58h-2v.24h2.83v3.15h-9.68v-.42a5.44,5.44,0,0,1-.64.16v3.09a2.17,2.17,0,0,1-2,2.18h-2.45V62.2h.41a.29.29,0,0,0,.32-.3v-.31c-.32,0-.64,0-.93,0V57.31l.93,0V56.14h-.93v-4h.93v-.67H198v.67h.74v.74a3,3,0,0,0,2.25-1.38h4.85a4.37,4.37,0,0,0,2.52,1.39v4.31A4.24,4.24,0,0,1,207.46,57Zm-8.89-.88H198v.67a4.46,4.46,0,0,0,.62-.21ZM201.39,58h-2V57a4.16,4.16,0,0,1-.67.13v1h2.7Zm-2.54,8.4V61.63H208v4.72Zm3.5-10.93a5.73,5.73,0,0,1-.62.38h.62Zm1.71,8.4h-1.29v.4h1.29Zm-.65-9.25c-.19.17-.39.35-.58.49H204A5.69,5.69,0,0,1,203.41,54.57Zm1.07.85v.38h.66C204.93,55.69,204.7,55.56,204.48,55.42Z"/><path class="cls-7" d="M219.28,56.73c-2.63,0-3.62,1.62-3.62,3.15,0,1,.72,1.51,2,1.51h5.69v4.7h-5.8c-4.62,0-6.54-2.27-6.54-5.89a5.65,5.65,0,0,1,1.24-3.47h-2.68V52.15H224v4.58Z"/><path class="cls-7" d="M238.19,56.36v9.89h-4.66v-.73H230.3a4.06,4.06,0,0,1-4.37-4.39c0-2.3,1.28-4.19,4.37-4.19h3.23v-.68h-8V52.2h8v-.4h4.66v.4h2.15V54h-2.15v.5h2.15v1.82Zm-4.66,4h-2.84c-.45,0-.63.18-.63.48s.22.5.63.5h2.84Z"/><path class="cls-7" d="M241.64,66V52h4.15V66ZM253,60.33l-2.08.78c-.18.07-.29.16-.29.31s.11.22.37.22h5.24v4.28h-5.94c-2.66,0-4.07-1.41-4.07-4.33,0-1.72.67-3,3.68-4.06l1.67-.58c.2-.11.27-.17.27-.35s-.07-.24-.31-.24l-5.05,0V52.17h5.84c2.64,0,4.16,1.13,4.16,4.08C256.48,58.63,255.33,59.45,253,60.33Z"/><path class="cls-7" d="M116.64,89.26h-3.53a66,66,0,0,0,.44-8H117A77.6,77.6,0,0,1,116.64,89.26ZM126,92.33v1.51a5.84,5.84,0,0,1-2.61.48H120.7a3.34,3.34,0,0,1-2.83-1.19,15.26,15.26,0,0,1-4.19,1.19V90.19a11.74,11.74,0,0,0,3.45-1v-9.3h3.59l0-.39h3.51l.19,1.67a11.66,11.66,0,0,0,.3-1.33h3.64a17.18,17.18,0,0,1-1.65,5.06h1l.6,7.39Zm-4.46-6.83-.45-5,0,0v6.18a12.79,12.79,0,0,0,1.07-1.15Zm2.58,3.17a19.45,19.45,0,0,1-1.67,1.61h.85a5.38,5.38,0,0,0,.93-.06Z"/><path class="cls-7" d="M142.19,84.36v9.89h-4.66v-.73H134.3a4.06,4.06,0,0,1-4.37-4.39c0-2.3,1.28-4.19,4.37-4.19h3.23v-.68h-8V80.2h8v-.4h4.66v.4h2.15V82h-2.15v.5h2.15v1.82Zm-4.66,4h-2.84c-.45,0-.63.18-.63.48s.22.5.63.5h2.84Z"/><path class="cls-7" d="M159.78,83.9a9.85,9.85,0,0,1,.08,1.13c0,2.69-1.73,3.81-5.05,3.81h-4.12c-.44,0-.61.24-.61.47s.17.46.61.46h9.25v4.32H150c-3.25,0-4.43-1.58-4.43-4.78,0-2.71,2-4,4.67-4h4.58c.3,0,.48-.11.48-.45a.46.46,0,0,0-.48-.4h-8.53V80.12h8.66a8.54,8.54,0,0,1,1.17.06v-.45h4.25v1.85h-3.2v.49h3.2V83.9Z"/><path class="cls-7" d="M175.62,88.79v.9a4.1,4.1,0,0,1-4.44,4.4h-1.55V89.87h.83c.69,0,.93-.34.95-1.08h-2V90c0,2.7-1.26,4.08-3.91,4.08s-4.16-1.36-4.16-4.06V88.71c0-2.59,1.3-3.9,3.73-4V84h-2.72V79.88h7.06v4.79h2V80.76h4.21v3.91h.65v4.12Zm-10-.16c-.65,0-1,.16-1,.63v.32a.42.42,0,0,0,.47.48c.44,0,.57-.26.57-.48Z"/><path class="cls-7" d="M191.54,83v.78H188V82.9h-.35l-.13.82h-3.15a8,8,0,0,0,.24-.88H184v.91h-1v.72h.91v3.91h-.91v.11l.91.7v4.58l-.91-.86v1.45h-4.42v-1a9.12,9.12,0,0,1-1.16.79v-5a1.38,1.38,0,0,0,1-.78h-1V84.47h1.16v-.8h2.27v-.83h-.37l-.11.59h-3.09c.27-1.28.53-3.34.59-4h4.6l-.05.39h2.35v2.56c.23-1.15.43-2.55.5-3h4.43l-.08.4h2.74V83Zm-7.4,11.39V84h7.92V94.36Zm4.37-7.85h-.82v.62h.82Zm0,2.4h-.82v.64h.82Zm0,2.35h-.82V92h.82Z"/><path class="cls-7" d="M193.64,94V80h4.15V94ZM205,88.33l-2.08.78c-.18.07-.29.16-.29.31s.11.22.37.22h5.24v4.28h-5.94c-2.66,0-4.07-1.41-4.07-4.33,0-1.72.67-3,3.68-4.06l1.67-.58c.2-.11.27-.17.27-.35s-.07-.24-.31-.24l-5.05,0V80.17h5.84c2.64,0,4.16,1.13,4.16,4.08C208.48,86.63,207.33,87.45,205,88.33Z"/><path class="cls-7" d="M122.12,113V114h-2v.24h2.84v3.15h-9.69v-.42a5,5,0,0,1-.64.16v3.09a2.17,2.17,0,0,1-2,2.18h-2.45V118.2h.42a.29.29,0,0,0,.32-.3v-.31c-.32,0-.64,0-.93,0v-4.32l.93,0v-1.13h-.93v-4h.93v-.67h3.74v.67h.74v.74a3,3,0,0,0,2.26-1.38h4.85a4.32,4.32,0,0,0,2.51,1.39v4.31A4.52,4.52,0,0,1,122.12,113Zm-8.88-.88h-.63v.67a5.15,5.15,0,0,0,.63-.21Zm2.81,1.81h-2V113a4,4,0,0,1-.67.13v1h2.7Zm-2.54,8.4v-4.72h9.15v4.72Zm3.5-10.93a4.9,4.9,0,0,1-.62.38H117Zm1.72,8.4h-1.3v.4h1.3Zm-.66-9.25a6.55,6.55,0,0,1-.58.49h1.19A5.69,5.69,0,0,1,118.07,110.57Zm1.07.85v.38h.66C119.59,111.69,119.37,111.56,119.14,111.42Z"/><path class="cls-7" d="M133.94,112.73c-2.62,0-3.61,1.62-3.61,3.15,0,1,.72,1.51,1.95,1.51H138v4.7h-5.79c-4.63,0-6.55-2.27-6.55-5.89a5.65,5.65,0,0,1,1.25-3.47h-2.69v-4.58H138.7v4.58Z"/><path class="cls-7" d="M149.94,112.73c-2.62,0-3.61,1.62-3.61,3.15,0,1,.72,1.51,1.95,1.51H154v4.7h-5.79c-4.63,0-6.55-2.27-6.55-5.89a5.65,5.65,0,0,1,1.25-3.47h-2.69v-4.58H154.7v4.58Z"/><path class="cls-7" d="M165.19,122.32V122c0-.24-.22-.54-.9-.81l-4.81-1.91c-2.23-.88-3.08-1.84-3.08-3.87v-1c0-1.87.61-2.94,3.08-3.87l4.89-1.84a1.11,1.11,0,0,0,.82-1h5.28c-.17,2.47-1.37,3.88-4,4.9l-4.91,1.92c-.26.1-.36.2-.36.34v.1c0,.16.1.28.36.35l4.91,1.92c3,1.15,4.08,2.5,4.08,4.82v.24Z"/><path class="cls-7" d="M184.06,111.85v.7h-6.7l-.36,9.51h-4.4l.36-9.51h-.86v-4.37h1l0-.48h4.4l0,.48h5.59v-.48H187v1.83h-2.94V110H187v1.81Zm-2.12,10.24c-3,0-4.29-1.68-4.29-4.72,0-2.54,1.51-4.24,4.49-4.24h4.51v3.39h-3.8c-.24,0-.36.18-.36.45s.08.46.36.46h3.8v4.66Z"/><path class="cls-7" d="M200.74,112.89V117h-7.46c-.43,0-.65.22-.65.48s.24.5.65.5h8.46v4.19H192c-2.68,0-4-2-4-4.24,0-2.45,1.41-4.36,4.1-4.36h4v-.65h-7.94V108.7h7.94v-.76h4.64v.76h2v4.19Z"/><path class="cls-7" d="M214.33,121.61V113c0-.37-.11-.43-.26-.43s-.21.17-.24.32l-1.14,5.23c-.57,2.64-1.55,4-4.17,4s-4.34-1.49-4.34-4.4v-9.2h4.38v8.56c0,.4.09.46.21.46s.29-.06.39-.56l1-4.81c.53-2.53,1.65-4,4.26-4a4.12,4.12,0,0,1,4.37,4.42v9Z"/><path class="cls-7" d="M150.94,289.15h.9v7.9h-3.76v-4.66a10.06,10.06,0,0,1-1.32.87v-5a6.24,6.24,0,0,0,1.59-4.26h4A12.7,12.7,0,0,1,150.94,289.15Zm6.71,7.92H155.3c-1.8,0-2.62-.8-2.62-2.5V284h3.95v1.89l3.68-1.32v4.06L156.63,290v2.8c0,.27.13.47.54.47h.77a3.53,3.53,0,0,0,2.38-.69v4A4.6,4.6,0,0,1,157.65,297.07Z"/><path class="cls-7" d="M167.45,287.91H166.3v.23h1.27v3.41h-1.21l.74.75v4.31l-.8-1V297h-3.41v-1a4,4,0,0,1-1.54.88V292.4a2.05,2.05,0,0,0,1.35-.85h-1.35v-3.41h1.54v-.23h-1.32a19.74,19.74,0,0,0-.42-3.49h1.67a21,21,0,0,1,.31,2.18V284h2.94v3.29l.25-2.88h1.42Zm2.36,9.06v-1.82a4.52,4.52,0,0,1-2.46,2v-5.42c.39-.13.46-.64.46-1.3v-6h1.92V284h4v.43h1.13v3.49h-4V289h.26v-.82h3.12V289h.49v3.48h-.49v1.05h.65V297Zm1.29-4.51h-.39a7.54,7.54,0,0,1-.2,1.05h.59Z"/><path class="cls-7" d="M11.15,321.51a12.71,12.71,0,0,1,0-12.94h4.23a11.75,11.75,0,0,0-2,6.46,11.59,11.59,0,0,0,2,6.48Z"/><path class="cls-7" d="M18.33,321.36v-3.95c.46,0,.64-.24.64-.79v-1.87h3.59v1.76C22.56,319.93,21.58,321.26,18.33,321.36Zm12.84-8.65v1.18H27.05v7.41H23v-7.41H18.47v-3.81H23v-1.26h4.09v1.26h1.28V309h3.54v1.6h-3.1v.55h3.1v1.56Zm-3.7,3.8v-1.76h3.61v1.87c0,.55.16.79.64.79v3.95C28.48,321.26,27.47,319.93,27.47,316.51Z"/><path class="cls-7" d="M41.75,317c-.23,2.44-1.47,4.29-5.72,4.29H31.35v-3.88h4.09c1.32,0,1.7-.27,1.79-.88H30.81v-3H44.46V317Zm-.42-4.3v.17H31.1v-3.52h9.75V309H44.4v1.61H41.33v.52H44.4v1.58Z"/><path class="cls-7" d="M54.64,314.73a4.61,4.61,0,0,0-2,.37v6.33H49.1v-4.51l-.43.22a7.31,7.31,0,0,1-3.49.66h-.71v-3.31h.87a3.51,3.51,0,0,0,2-.5l4-2a5.38,5.38,0,0,1,2.65-.57h1.74v3.29Z"/><path class="cls-7" d="M67.56,312.13a2.71,2.71,0,0,1-1.2-.23.35.35,0,0,1,0,.13l1.53,4.86c0,.19.21.35.58.35h.77v4.07H67.53c-2.13,0-3-1.35-3.44-2.87l-1.29-4.3a1.14,1.14,0,0,0-1.14-.95H61.2c-.47,0-.8.39-.85,1.14l-.27,4.27h-4.2l.4-5.59a4,4,0,0,1,4.06-3.95h1.5a4.75,4.75,0,0,1,3.67,1.34s0-.11,0-.18c0-1.3.69-1.9,2.07-1.9s2,.6,2,1.9S68.91,312.13,67.56,312.13Zm0-2.41c-.35,0-.51.12-.51.46s.16.5.51.5.48-.11.48-.5S67.88,309.72,67.56,309.72Z"/><path class="cls-7" d="M80.68,313.05a5.52,5.52,0,0,0-2.52.46v7.92H73.91v-5.65l-.52.28a9,9,0,0,1-4.25.81h-.79v-4.1h1a4.28,4.28,0,0,0,2.43-.64l4.86-2.47a6.24,6.24,0,0,1,3.24-.71H82v4.1Z"/><path class="cls-7" d="M93.68,314.59c-.65,4.64-3.39,6.6-8.66,6.6H81v-3.95h3.51c3.82,0,4.54-1.09,4.92-2.94.7-3.35,1.55-4.64,4.89-5v4.5A.84.84,0,0,0,93.68,314.59Zm-12.63-1.23v-3.91h6v3.91Z"/><path class="cls-7" d="M104.32,317.72A18.08,18.08,0,0,1,98.7,317v4.23H94.23V308.89H98.7v2.91c0,1.33,2.27,1.8,5.62,1.8h1.82v4.12Z"/><path class="cls-7" d="M114.41,319h-3V314.9h3c.43,0,.59-.18.59-.53s-.2-.44-.59-.44h-3.6l.34,7.36h-4l-.34-7.36H106v-3.82h.69l-.08-1.3h4l.08,1.3H113v-1.33h3.88v1.64c2,.57,2.6,2,2.6,4C119.5,317.52,117.86,319,114.41,319Z"/><path class="cls-7" d="M121.57,321.34H119.2v-4.06h2.51c4.07,0,5.57-.88,5.57-3.35v-.7h-8.62v-3.86h12.93v4.42C131.59,319.06,127.69,321.34,121.57,321.34Z"/><path class="cls-7" d="M132.4,321.13V318H136v-1.62c0-1.13-.06-1.42-.54-1.55h-3v-3.11h10.29v3.11h-3.57a2.16,2.16,0,0,1,.29,1.32V318h3.35v3.13Z"/><path class="cls-7" d="M155.82,313.05a5.52,5.52,0,0,0-2.52.46v7.92h-4.25v-5.65l-.52.28a9,9,0,0,1-4.25.81h-.79v-4.1h1a4.23,4.23,0,0,0,2.43-.64l4.87-2.47A6.2,6.2,0,0,1,155,309h2.12v4.1Z"/><path class="cls-7" d="M163.54,319.61a14.87,14.87,0,0,1-7.44,1.7V317.2c5.75,0,7.37-2.73,7.37-3.88V313h-6.9V309.3H168v3.08a8.08,8.08,0,0,1-1.28,4.28,7.69,7.69,0,0,0,2.85.45v4.08C166.25,321.19,165.19,320.7,163.54,319.61Z"/><path class="cls-7" d="M180.27,312.13a2.63,2.63,0,0,1-1.19-.23.65.65,0,0,1,0,.13l1.53,4.86c.06.19.22.35.58.35H182v4.07h-1.77c-2.12,0-3-1.35-3.43-2.87l-1.3-4.3a1.13,1.13,0,0,0-1.13-.95h-.47c-.46,0-.8.39-.84,1.14l-.28,4.27H168.6L169,313a4,4,0,0,1,4.06-3.95h1.5a4.73,4.73,0,0,1,3.67,1.34s0-.11,0-.18c0-1.3.68-1.9,2.06-1.9s2.06.6,2.06,1.9S181.63,312.13,180.27,312.13Zm0-2.41c-.35,0-.51.12-.51.46s.16.5.51.5.48-.11.48-.5S180.59,309.72,180.27,309.72Z"/><path class="cls-7" d="M193.39,313.05a5.44,5.44,0,0,0-2.51.46v7.92h-4.26v-5.65l-.52.28a9,9,0,0,1-4.25.81h-.79v-4.1h1a4.29,4.29,0,0,0,2.44-.64l4.86-2.47a6.2,6.2,0,0,1,3.23-.71h2.12v4.1Z"/><path class="cls-7" d="M206.4,314.59c-.66,4.64-3.39,6.6-8.66,6.6h-4v-3.95h3.51c3.81,0,4.54-1.09,4.92-2.94.7-3.35,1.54-4.64,4.89-5v4.5A.83.83,0,0,0,206.4,314.59Zm-12.64-1.23v-3.91h6v3.91Z"/><path class="cls-7" d="M217,317.72a18.12,18.12,0,0,1-5.62-.73v4.23h-4.47V308.89h4.47v2.91c0,1.33,2.27,1.8,5.62,1.8h1.82v4.12Z"/><path class="cls-7" d="M225.37,312.81v.69h6.12v2.9h-2.24v.71H225v-.71h-1.62a.55.55,0,0,0-.54.56c0,.33.13.59.54.59h8.11v3.78h-8.26c-3,0-4.42-1.53-4.42-3.94a3.57,3.57,0,0,1,2.33-3.51v-1.07H218.8v-3.5h2.37v-.48h4.2v.48H232v3.5Z"/><path class="cls-7" d="M242,313v.25h-8.05V313c-.83.19-1.75.31-2.79.44v-3.81a7,7,0,0,0,4.41-1.11h4.76a7,7,0,0,0,4.41,1.11v3.81C243.72,313.3,242.82,313.18,242,313Zm-10.66,8.46v-5.09h6.8l.41-.33h-6.9V313.5h12.53v2.17l-.7.71h1v5.09Zm9.13-2.69h-5.08v.35h5.08Zm-2.52-7.9a6.49,6.49,0,0,1-.62.39h1.25C238.35,311.15,238.15,311,237.94,310.88Z"/><path class="cls-7" d="M257,313.26c-.25,0-.36.13-.36.37v4.88c0,1.8-1,2.88-3.16,2.88h-3.74c-2.27,0-3.1-.31-3.29-1.2-2.08-.05-2.81-1.09-2.81-3.18v-.86c0-1.7.77-2.93,3-2.93v-.35h-2.81V309.3h2.81v-.55h4.22v.55h2v2.22c.32-1.75,1.41-2.22,3.91-2.22h.5v4Zm-9.46,2.59h-.38c-.38,0-.49.18-.49.39v.24c0,.32.08.46.49.46h.38Zm5.23-3h-1.94v4.06c0,.31.15.45.47.45h1a.4.4,0,0,0,.43-.45Z"/><path class="cls-7" d="M256.19,317.06v-4.72h13.57v4.72Z"/><path class="cls-7" d="M279.46,321.54h-2.34v-2.48a5.52,5.52,0,0,1-3.08,2.47v-5c.57-.26.89-.94,1-4.14h-.71V315l-1.37.14v1.84a.1.1,0,0,0,.09.1h.07a1.26,1.26,0,0,0,.72-.17v4a3.94,3.94,0,0,1-1.46.25h-1.41a1.63,1.63,0,0,1-1.75-1.77v-3.93l-.45,0v-4l.45,0V308.5h3.74v2.6l1.34-.11v-2.42h7.85V319C282.11,321.06,281,321.54,279.46,321.54Zm-.87-9.13h-.28a19.42,19.42,0,0,1-.64,5.35h.65c.15,0,.27-.1.27-.31Z"/><path class="cls-7" d="M290.34,321.37h-.85V318a3.5,3.5,0,0,1-3.87,3.33c-2.31,0-4.25-1.43-4.25-4.52v-2.66c0-3.6,2.53-5.33,5.44-5.33h2.28c3.39,0,5.56,2.23,5.56,5.28v2.3C294.65,319.59,293,321.37,290.34,321.37Zm-4-8.22a1.21,1.21,0,0,0-1.12,1.32v2c0,.52.25.63.52.63a.57.57,0,0,0,.6-.63Zm4.4,1.36a1.2,1.2,0,0,0-1.08-1.36V317h.19c.55,0,.89-.21.89-.93Z"/><path class="cls-7" d="M304.49,321.54l-.42-.85h-.51a4.2,4.2,0,0,1-.48.85h-3v.11l-2.75-1.19a5.55,5.55,0,0,1-3.55,1.15V318.5a1.83,1.83,0,0,0,1.29-.34h-1.29V313a1.24,1.24,0,0,0,.73-.33h-.73V310h.29a6.08,6.08,0,0,0-.22-1.47h1.65a10.4,10.4,0,0,1,.19,1.47h.11v-1.46h2.32V310h.2l.15-1.47H300l-.14,1.47h.24V308.6h7.26v3.11h-2l-.09.23h2v8.75h-.35l.44.85Zm-8.94-6.91a3.9,3.9,0,0,1-1.67.89h1.56v-.41h.11Zm2.81.06v.42h.21v.41h1.5Zm1.72-3v1h-1.34l1.34.46v5h-1.54l1.54.48v2.72a4.61,4.61,0,0,0,.47-.67h-.22v-8.75h1.45l.11-.23Zm4.08,2.36h-.74v.48h.74Zm0,1.91h-.74v.52h.74Zm0,1.93h-.74v.52h.74Z"/><path class="cls-7" d="M310.28,321.79H306.4a12.81,12.81,0,0,0,1.94-6.76,13,13,0,0,0-1.94-6.76h3.88a14.07,14.07,0,0,1,0,13.52Z"/><path class="cls-7" d="M43.47,343h.36v3.06a7.75,7.75,0,0,1-4.54-1.35v1.08a75,75,0,0,1-7.76.28v-1.22c-.39.06-.82.1-1.28.14v-2.84a7.59,7.59,0,0,0,2.43-.23H30.25v-2.83h4.63v-.25H32.42v-.4a8.74,8.74,0,0,1-2.17.3V336a7.18,7.18,0,0,0,2.15-.24l-2.15-.27v-2.38l2.17.28V333h3.69v5.59h.28v-2.36h1.66V336H36.39v-2.72h1.66V333h3.87v.28h1.91V336H41.92v.23h1.6v2.65H39.19v.25h4.64V342H40.66a2.39,2.39,0,0,0,.43.48l.15-.22H44Zm-9.28.69a7.7,7.7,0,0,1-1.23.4h1.23Zm3.41-.91v.85a4.68,4.68,0,0,0,.55,0A9,9,0,0,1,37.6,342.82Z"/><path class="cls-7" d="M56.28,336.75v.59h2V344c0,1.29-.56,1.84-1.84,1.84h-.61v.27H53.21v-5.66H53v5.37h-2.1v-7.52H50.6v4.39h-3v.53l.35,0,0-.25h2.37l.63,3.2H48.42l0-.32a4.34,4.34,0,0,1-1.53.25H44.77v-2.81h.32v-6.5a1.87,1.87,0,0,1-.32.08v-3.15a1.88,1.88,0,0,0,1.41-.67h3.43a1.77,1.77,0,0,0,1.36.67v1.63a17.38,17.38,0,0,0,.36-2.3h3.13a3.71,3.71,0,0,1,0,.47h4v3.28Zm-9.71-.57a7.58,7.58,0,0,1-.81.35h.81Zm1.24-.81a5.36,5.36,0,0,1-.89.61h1.76A5.61,5.61,0,0,1,47.81,335.37Zm.33,3H47.6v.39h.54Zm0,1.93H47.6v.41h.54Zm.89-4.13v.35h.87A8.76,8.76,0,0,1,49,336.18Zm1.57.56v1c.08-.26.15-.57.24-.91A1.14,1.14,0,0,1,50.6,336.74Zm2.81,0h-.26c-.06.21-.1.41-.15.59h.41Zm2.71,3.69h-.25v2.74h.19s.06,0,.06-.05Z"/><path class="cls-7" d="M59.36,345.91v-6.37h6.55v6.37Zm.87-6.78v-5.95H72.06v5.95Zm2.82,3.18h-.82v.82h.82Zm4.81-6.45H64.44v.61h3.42Zm-1.49,10.05v-6.37h6.57v6.37Zm3.7-3.6h-.83v.82h.83Z"/><path class="cls-7" d="M86.83,336.29v.46h.36v2H82.86V339h4.61V341H86.19v.24h1.12v2.91H86.18c-.12,1.21-.79,1.85-2.26,1.85H80.78v-1.85H79.57l.7,1.88H76l-.67-1.88h-1.2v-2.91h7.94V341H74V339h4.61v-.26H74.23v-2H77v-.66H76.7l-.1.4H73.79c.22-1,.49-2.9.55-3.51H78.5l0,.33h2.09v2.11c.24-1,.44-2.09.48-2.44h4l0,.33H87.5v3ZM80,335.76v.45h.42c0-.13.09-.28.13-.45Zm3.64.22h-.34l-.1.51h-.29v.26h.73Z"/><path class="cls-7" d="M89.86,346.05l-.17-1c-.1-.54-.28-.78-.71-.78h-.16v-3.84h.58c2.3,0,3.91,1.51,4.37,4l.29,1.61Z"/><path class="cls-7" d="M112.3,344.89a9.1,9.1,0,0,1-4.1,1.23v-3.6l-.69-.77v4.3H104v-2.87a7,7,0,0,1-1,.83v-4.83a2.57,2.57,0,0,0,.9-2h-.89v-3.6h1V333h3.49v.56h.59v3.6h-.59v.39l.76.72c.31-.09.52-.37.6-.87H116a.87.87,0,0,0,.67.79v3.86a5.64,5.64,0,0,1-1.11-.41l-.29.52a9.55,9.55,0,0,0,1.41.17v3.79A9.19,9.19,0,0,1,112.3,344.89Zm-4-7.73v-3.6h1.87V333h4.13v.58h2.3v3.6Zm.92,4.51a4.64,4.64,0,0,1-.82.29v.34q.57-.09,1-.21C109.42,342,109.33,341.81,109.26,341.67Zm3.16-4.25a6.4,6.4,0,0,1-.87,2.15H112a4,4,0,0,0,.37.75,2.82,2.82,0,0,0,.39-.75h.55A6,6,0,0,1,112.42,337.42Z"/><path class="cls-7" d="M128.7,346h-3.17v-3.5h.64A5.93,5.93,0,0,1,124.4,341a5.56,5.56,0,0,1-2.5,1.9v-4.26a1.5,1.5,0,0,0,.76-1.22h-1.11V346H117.8V333.91h4.63V333h3.94v.88H131v9.82A2.08,2.08,0,0,1,128.7,346Zm-1.51-8.62h-1.27a2,2,0,0,0,.93,1.2v3.92h0c.28,0,.3-.11.3-.28Z"/><path class="cls-7" d="M143.29,337v.63h-2.08c-2.39,0-3.31,1.42-3.31,2.76,0,.9.67,1.32,1.8,1.32h5.18v4.12h-5.29c-4.22,0-6-2-6-5.16a4.87,4.87,0,0,1,1.14-3h-2.44v-4h9.86v-.24h3.53V335h-2.43v.45h2.43V337Z"/><path class="cls-7" d="M155.57,343.52V346h-4v-2.52h-4.76v-2.75h13.47v2.75Zm4.41-5v2H147.07v-2a1,1,0,0,1-.26.08v-2.76a1.81,1.81,0,0,0,1-.39h-1v-2.27h1.3V333h3.8v.24h1.44v2.27h-.88l.88.44v2.6h.33V335.8a2.52,2.52,0,0,0,1-.31h-1v-2.27h1.41V333h3.8v.24h1.35v2.27h-1.06a2.39,2.39,0,0,0,1.06.39v2.76ZM150.63,346h-3.78a3.69,3.69,0,0,0,.7-2.21h3.58A5.63,5.63,0,0,1,150.63,346Zm1-8.21v.53h-3.13v-.46a4.45,4.45,0,0,1-1.31.7h6.07Zm7,.07v.46h-3.13v-.49a5.22,5.22,0,0,1-1.41.73h5.91A5.71,5.71,0,0,1,158.55,337.83ZM156.48,346l-.58-2.21h3.73l.67,2.21Z"/><path class="cls-7" d="M161.29,345.87v-3.82h.76v-7.54h4v7.54h.86v-9H171V336h3.64v3.85H171v2.23h3.89v3.82Z"/><path class="cls-7" d="M187.44,337.77v3.58h-6.78c-.39,0-.6.19-.6.42s.22.43.6.43h7.69v3.67H179.5a3.47,3.47,0,0,1-3.64-3.71,3.52,3.52,0,0,1,3.72-3.81h3.64v-.58H176v-3.66h7.22v-.66h4.22v.66h1.87v3.66Z"/><path class="cls-7" d="M202.24,345.61c-2.88,0-3.58-.75-3.58-3.46V338.9c0-.24,0-.35-.28-.35s-.67.43-1.73,1.3l-1.09.89v5.06h-4V344h-1V339.9h1v-1.37h-1v-3.89h1v-1.33h4v2.36c2.05-1.48,3-1.85,4-1.85,2.51,0,3.18,1.22,3.18,3.56v3.74c0,.41.1.53.6.53h.75v4Z"/><path class="cls-7" d="M214,337.63c-2.39,0-3.29,1.42-3.29,2.76,0,.9.66,1.32,1.78,1.32h5.17v4.12h-5.27c-4.21,0-6-2-6-5.16a4.82,4.82,0,0,1,1.14-3h-2.45v-4h13.21v4Z"/><path class="cls-7" d="M228.93,345.41v-7.54c0-.32-.1-.38-.23-.38s-.19.16-.22.28l-1,4.59c-.53,2.31-1.41,3.47-3.8,3.47s-4-1.3-4-3.85v-8.06h4v7.5c0,.35.08.4.19.4s.26-.05.35-.49l.9-4.21c.48-2.22,1.5-3.49,3.88-3.49a3.66,3.66,0,0,1,4,3.86v7.92Z"/><path class="cls-7" d="M241.41,345.83h-3.08c-2.52,0-4-1.36-4-3.5v-.54a3.24,3.24,0,0,1,3.48-3.15h.28v-1.27h-3.53v-4h8v2.43c3.7.12,5.1,1.89,5.1,4.69v.53C247.59,343.64,246.07,345.83,241.41,345.83Zm-2.73-4a.52.52,0,0,0-.47-.57h-.13a.52.52,0,0,0-.57.52c0,.31.22.55.64.55h.53Zm3.07-2.47h-.93a3.6,3.6,0,0,1,1.08,2.37h0c.73,0,1-.47,1-1.22A1,1,0,0,0,241.75,339.4Z"/><path class="cls-7" d="M260.88,340.91v2.4c0,1.75-.74,2.7-2.86,2.7h-2.68v-3.58h1.47c.16,0,.2-.07.2-.21v-1.31h-3.39V346H250v-3.17a6.14,6.14,0,0,1-1.27.45v-4.21a2.26,2.26,0,0,0,1.46-1,5.49,5.49,0,0,1-1.44.55v-4c.61-.13,1.08-.63,1.08-1.63h3.88a6.55,6.55,0,0,1-1.16,3h1.4v-2.86h8v3.66h-7.55l-.09.38h7.92v3.72Zm-7.29-1.61a6.47,6.47,0,0,1-1,1.51h1Z"/><path class="cls-7" d="M273.49,346.12H272v-3.33h.6c.19,0,.24-.1.24-.25v-.27h-8a5.14,5.14,0,0,1-.64.38h2.17a34.71,34.71,0,0,1-.16,3.47h-2.93a18,18,0,0,0,.31-3.15,2.25,2.25,0,0,1-.31.16v-4.22a6.67,6.67,0,0,0,2.74-2.48h-2.62v-3h.51l-.09-.45h2.81l.09.45h.62a1.78,1.78,0,0,0,.09-.47h3.92c0,.17-.06.33-.09.47h5.09v2.76l-.32.63h.62V339l-.27.52h.5v3.32C276.83,345.2,275.55,346.12,273.49,346.12Zm-6.72-.15-.34-3.32H268l.33,3.32Zm1.62-6.86c-.11.12-.21.25-.33.36h4.66l.19-.36Zm.14,6.86-.33-3.32h1.51L270,346Zm1.6-9.54c-.07.14-.14.28-.22.41h2l.29-.41Zm.16,9.54-.33-3.32h1.56l.33,3.32Z"/><path class="cls-7" d="M289.92,337.59V339h1.37v4h-1.21c0,2.06-1.11,2.89-3.38,2.89h-1.16a2.83,2.83,0,0,1-2.69-1.55v1.47h-1.3c-2.47,0-3.55-1.05-3.55-3.24V333.4h4v8.06c0,.38.08.49.43.5a3.1,3.1,0,0,1,3.37-2.95h0v-1.42h-3.29v-3.67h3.29v-.52h4.09v.52h1.38v3.67Zm-3.25,4.15h-.61a.42.42,0,0,0-.46.42.44.44,0,0,0,.49.5h.12a.47.47,0,0,0,.46-.49Z"/><path class="cls-7" d="M105.48,366.06v-4.72h13.57v4.72Z"/><path class="cls-7" d="M130.79,370.54h-2.35v-2.48a5.46,5.46,0,0,1-3.07,2.47v-5c.57-.26.89-.94,1-4.14h-.71V364l-1.37.14v1.84a.1.1,0,0,0,.09.1h.07a1.21,1.21,0,0,0,.71-.17v4a3.85,3.85,0,0,1-1.45.25h-1.41a1.63,1.63,0,0,1-1.75-1.77v-3.93l-.45,0v-4l.45,0V357.5h3.74v2.6l1.34-.11v-2.42h7.85V368C133.44,370.06,132.32,370.54,130.79,370.54Zm-.88-9.13h-.27a19.81,19.81,0,0,1-.64,5.35h.65c.15,0,.26-.1.26-.31Z"/><path class="cls-7" d="M143.43,368v2.52h-4V368h-4.76v-2.75h13.47V368Zm4.41-5v2H134.93v-2a1,1,0,0,1-.26.08v-2.76a1.81,1.81,0,0,0,1-.39h-1v-2.27H136v-.24h3.79v.24h1.45V360h-.89l.89.44V363h.32V360.3a2.52,2.52,0,0,0,1-.31h-1v-2.27H143v-.24h3.8v.24h1.35V360H147a2.39,2.39,0,0,0,1.06.39v2.76Zm-9.35,7.41h-3.78a3.62,3.62,0,0,0,.7-2.21H139A5.63,5.63,0,0,1,138.49,370.47Zm.95-8.21v.53h-3.13v-.46a4.45,4.45,0,0,1-1.31.7h6.07Zm7,.07v.46h-3.13v-.49a5.08,5.08,0,0,1-1.41.73h5.91A5.71,5.71,0,0,1,146.41,362.33Zm-2.06,8.14-.59-2.21h3.73l.67,2.21Z"/><path class="cls-7" d="M149.15,370.37v-3.82h.76V359h4v7.54h.86v-9h4v2.93h3.64v3.85h-3.64v2.23h3.89v3.82Z"/><path class="cls-7" d="M173.27,364h-3.42c-.83,0-1.45.38-1.45,1.16s.59,1.19,1.45,1.19h7.27v4h-7.89c-3.58,0-5.34-2-5.34-5.15a4.89,4.89,0,0,1,2.21-4.23V358h4.21v2h2.29a.47.47,0,0,0,.51-.5V359h4.23v1.08C177.34,363,175.84,364,173.27,364Z"/><path class="cls-7" d="M186.07,370.3H184c-3.38,0-5.12-2.07-5.12-5V358H183v7.19a1,1,0,0,0,1,1.1h2a1,1,0,0,0,1-1.06v-1.42h4.27v1.56C191.21,368.28,189.44,370.3,186.07,370.3Z"/><path class="cls-7" d="M202.71,369.69V368c0-.31-.09-.49-.41-.52,0,1.84-.74,2.9-3,2.9h-3.43a2.7,2.7,0,0,1-3-3c0-1.84,1.25-2.75,3.28-2.75h2.43v-.46h-5.13v-2.72h5.13V361h-5.13v-2.75h5.13v-.46h4.09v.46h3.11V361h-3.11v.5h3.11v2.72h-3.11v.46H203c2.25,0,3.43,1.22,3.43,3.18v1.87Zm-4.16-2.88h-1.92a.29.29,0,0,0-.32.31c0,.16.11.28.32.28h1.57c.28,0,.35-.08.35-.26Z"/><path class="cls-7" d="M219.09,361.73v8.74h-4.23v-.65h-2.94a3.62,3.62,0,0,1-4-3.83c0-2,1.17-3.67,4-3.67h2.94v-.59h-7.25v-3.56h7.25v-.35h4.23v.35H221v3.56Zm-4.23,3.56h-2.59c-.41,0-.57.15-.57.42s.2.43.57.43h2.59Z"/></g></g></svg>