<svg xmlns="http://www.w3.org/2000/svg" viewBox="0 0 436.45 86.75"><defs><style>.cls-1{fill:#fff;}.cls-2{fill:#6ebf86;}.cls-3,.cls-5{fill:none;stroke-miterlimit:10;}.cls-3{stroke:#6ebf86;stroke-width:2px;}.cls-4{fill:#666464;}.cls-5{stroke:#666464;stroke-width:4px;}</style></defs><g id="レイヤー_2" data-name="レイヤー 2"><g id="レイヤー_4" data-name="レイヤー 4"><rect class="cls-1" width="436.45" height="61.28" rx="30.64"/><path class="cls-2" d="M413,24.88c-3.65,4.44-16.27,1.58-16.27,1.58h0s2.31-11,8.11-12.73a7.69,7.69,0,0,1,7.44,2.36C414.48,18.59,414.78,22.69,413,24.88Z"/><path class="cls-2" d="M395.63,12.49c4.85,3.28,2.8,15.57,2.8,15.57h0s-11.59-1.64-13.76-7.13a7,7,0,0,1,1.91-7.28C389,11.37,393.22,10.86,395.63,12.49Z"/><path class="cls-2" d="M383.31,28.51c3-4.86,15.89-3.55,15.89-3.55h0s-.8,11.25-6.31,13.64a7.73,7.73,0,0,1-7.68-1.44C382.66,35,381.81,30.91,383.31,28.51Z"/><path class="cls-2" d="M400.66,41.13c-5.06-3-3.82-15.35-3.82-15.35h0s11.67.87,14.2,6.2a7,7,0,0,1-1.43,7.39C407.34,41.81,403.17,42.59,400.66,41.13Z"/><path class="cls-3" d="M396.62,32.35s1.25,6.37-5.74,15.92"/><path class="cls-4" d="M97.41,39.27c-3.25,1.83-7.61,3-13.4,3V35c10.36,0,13.27-4.87,13.27-6.92v-.52H84.85V20.88h20.51v5.5A14.29,14.29,0,0,1,103.05,34a14.13,14.13,0,0,0,5.14.8V42.1C102.29,42.1,100.37,41.22,97.41,39.27Z"/><path class="cls-4" d="M129.86,34.57c-.42,4.35-2.65,7.65-10.31,7.65h-8.42V35.3h7.37c2.36,0,3-.48,3.2-1.58H110.14V28.35h24.57v6.22ZM110.53,27.2V20.93h23.76V27.2Z"/><path class="cls-4" d="M137.29,34.7V27.25h22.48V34.7Z"/><path class="cls-4" d="M186.11,30.05C184.93,37.27,181.83,42.1,170,42.1H163V35.35h6.16c6.45,0,8.47-2,9.29-6.37a3,3,0,0,1,.52-1.38h8.16v.1C186.68,28,186.32,28.7,186.11,30.05Zm-22.85-3.3V20.8H174.8v5.95Zm0,6.87V27.7H174.8v5.92ZM180.86,23V20.13h6.37V23Zm0,3.77V23.93h6.37v2.82Z"/><path class="cls-4" d="M202.35,39.27c-3.26,1.83-7.61,3-13.41,3V35c10.36,0,13.28-4.87,13.28-6.92v-.52H189.78V20.88h20.51v5.5A14.36,14.36,0,0,1,208,34a14.13,14.13,0,0,0,5.14.8V42.1C207.23,42.1,205.31,41.22,202.35,39.27Z"/><path class="cls-4" d="M236.74,29.18V30.6c0,7.75-4.12,11.57-13.33,11.57H216.8v-7.3h6.61c4.25,0,5.41-1.87,5.41-4.24V29.18h-6.27c-1.42,2.17-3.78,3.62-7.45,4.07v-7.9c1.05-.5,1.49-1.12,1.49-2.82v-2.1h7.66V22h14.82v7.2Z"/><path class="cls-4" d="M264.81,30.05c-1.18,7.22-4.28,12.05-16.11,12.05h-7V35.35h6.16c6.45,0,8.48-2,9.29-6.37a3,3,0,0,1,.52-1.38h8.16v.1C265.39,28,265,28.7,264.81,30.05ZM242,26.75V20.8H253.5v5.95Zm0,6.87V27.7H253.5v5.92ZM259.56,23V20.13h6.38V23Zm0,3.77V23.93h6.38v2.82Z"/><path class="cls-4" d="M269.93,42.12V36.4h11.41V31.65c0-.48-.29-.85-1-.85H271V25.08h9.37c6.4,0,7.34,1,7.34,6.44V36.4h1.76v5.72Z"/><path class="cls-4" d="M294.69,34.7V27.25h22.48V34.7Z"/><path class="cls-4" d="M320,42.15V34.37c1.05-.25,1.42-.72,1.42-3.12V20.4h6.76V30.6C328.19,38.87,325.83,41.7,320,42.15Zm17.63-13.27v.05c0,4.69-1,5.59-1.29,5.59H336l.13-1.27V20.4h-6.93V42.15h6.53c6.19,0,8.79-4.25,8.79-13.27Zm6.92-.05v0Z"/><path class="cls-5" d="M41.63,28.31a10.07,10.07,0,1,1-8.09-11.72A10.07,10.07,0,0,1,41.63,28.31Z"/><line class="cls-5" x1="25.26" y1="34.11" x2="16.73" y2="44.86"/><path class="cls-4" d="M20.5,81.7a2,2,0,0,1-2.05-2,2,2,0,1,1,4.09,0A2,2,0,0,1,20.5,81.7ZM27,79.64l5.55,5.57-1.44,1.45-5.58-5.58-5.49,5.49-1.44-1.45,5.48-5.48-5.61-5.59L20,72.58l5.59,5.59,5.69-5.68L32.7,74Zm-1.35-3.06a2,2,0,1,1,2.06-2A2,2,0,0,1,25.66,76.58Zm0,10.11a2.06,2.06,0,0,1-2-2,2,2,0,1,1,4.08,0A2.07,2.07,0,0,1,25.66,86.69Zm5.06-5a2.07,2.07,0,0,1,0-4.14,2.07,2.07,0,1,1,0,4.14Z"/><path class="cls-4" d="M41.37,84.49a14.9,14.9,0,0,1-7.67,1.83V81.91c5.93,0,7.59-2.93,7.59-4.16v-.31H34.18v-4H45.91v3.3a8.94,8.94,0,0,1-1.32,4.59,7.92,7.92,0,0,0,2.94.48v4.36C44.16,86.18,43.06,85.66,41.37,84.49Z"/><path class="cls-4" d="M59.92,81.67c-.24,2.61-1.51,4.59-5.89,4.59H49.21V82.1h4.22c1.35,0,1.74-.28,1.83-.94H48.64V77.93H62.7v3.74ZM48.87,77.24V73.48H62.46v3.76Z"/><path class="cls-4" d="M64.17,81.74V77.27H77v4.47Z"/><path class="cls-4" d="M92.08,79c-.67,4.34-2.44,7.23-9.21,7.23h-4V82.13h3.52c3.69,0,4.85-1.18,5.31-3.82a2,2,0,0,1,.3-.83h4.67v.06C92.41,77.69,92.2,78.14,92.08,79ZM79,77V73.4h6.6V77Zm0,4.13V77.54h6.6V81.1Zm10.06-6.39V73h3.65v1.71Zm0,2.26V75.28h3.65V77Z"/><path class="cls-4" d="M100.56,77.21V78h6.3v3.1h-2.31v.77H100.2v-.77H98.53a.58.58,0,0,0-.55.6c0,.36.13.63.55.63h8.36v4H98.38c-3.13,0-4.56-1.63-4.56-4.21a3.84,3.84,0,0,1,2.4-3.77V77.21H93.78V73.47h2.44V73h4.34v.52h6.87v3.74Z"/><path class="cls-4" d="M120.24,86.57h-2.49a2.25,2.25,0,0,1-2.42-2.37V82.75h-.22c-.47,2.32-2.09,4-6.53,4V83.2c1.07,0,1.65-.09,2-.45h-1.66v-10h13.42v10h-2.86v.15c0,.18.16.24.3.24h.55a4,4,0,0,0,2.3-.44v3.5A5.05,5.05,0,0,1,120.24,86.57Zm-2.09-10.9H113v.43h5.14Zm0,1.93H113v.45h5.14Zm0,1.89H113v.42h5.14Z"/><path class="cls-4" d="M131.11,86.33h-3.18c-2.59,0-4.14-1.45-4.14-3.75V82a3.39,3.39,0,0,1,3.59-3.37h.28V77.27H124V73h8.19v2.59c3.81.14,5.25,2,5.25,5v.57C137.47,84,135.91,86.33,131.11,86.33Zm-2.82-4.24a.54.54,0,0,0-.48-.6h-.13a.54.54,0,0,0-.59.55.59.59,0,0,0,.66.59h.54Zm3.17-2.64h-1A3.89,3.89,0,0,1,131.61,82h0c.75,0,1-.49,1-1.3A1.08,1.08,0,0,0,131.46,79.45Z"/><path class="cls-4" d="M148.42,79.55H144.9c-.86,0-1.49.41-1.49,1.25s.6,1.27,1.49,1.27h7.5v4.25h-8.13c-3.69,0-5.51-2.1-5.51-5.52A5.28,5.28,0,0,1,141,76.27V73.18h4.34v2.19h2.35a.5.5,0,0,0,.53-.54v-.66h4.36v1.15C152.62,78.52,151.08,79.55,148.42,79.55Z"/><path class="cls-4" d="M165.24,80.57l0,1.05H159c-.32,0-.45.15-.45.35s.16.34.45.34H167v4h-8.68c-2.54,0-4-1.42-4-3.58a4,4,0,0,1,.48-2h-1.09V77.54h7.15V77h-7.14V73.55h7.05l0-.58H165l0,.58h2.54V77h-2.45l0,.54h2.43v3Z"/><path class="cls-4" d="M181.08,77.51V79h1.41V83.3h-1.25c0,2.21-1.14,3.09-3.48,3.09h-1.2a2.9,2.9,0,0,1-2.77-1.65v1.58h-1.34c-2.55,0-3.66-1.13-3.66-3.48V73h4.11v8.62c0,.41.09.53.45.54A3.23,3.23,0,0,1,176.82,79h0V77.51h-3.39V73.58h3.39V73h4.22v.55h1.42v3.93ZM177.73,82h-.63a.45.45,0,0,0-.48.45c0,.36.18.54.51.54h.12a.49.49,0,0,0,.48-.52Z"/><path class="cls-4" d="M190.87,82.39a10.39,10.39,0,0,1-7.26,4.14V82.06c2.37-.53,3.77-1.38,4.4-3.33h-4.4V74.6h4.79v-2h4.45v2h4.7v4.13h-4.26c.79,2.13,2.31,2.74,4.26,3.33v4.47A10.62,10.62,0,0,1,190.87,82.39Z"/><path class="cls-4" d="M207.72,76.07v.27h4.56v2.09H198.9V76.34h4.38v-.27H198.6V72.91h4.68v-.32h4.44v.32h4.86v3.16ZM202,84.65a4.65,4.65,0,0,1-3.36,2.1V82.13c.31-.06.49-.72.49-1.35V78.7h13.19v6Zm1.87-3.28h-1a4.63,4.63,0,0,1,0,.54h1Zm4.74,0h-1.18v.54h1.18Z"/><path class="cls-4" d="M220.56,77.21V78h6.3v3.1h-2.31v.77H220.2v-.77h-1.67a.58.58,0,0,0-.55.6c0,.36.13.63.55.63h8.36v4h-8.51c-3.13,0-4.56-1.63-4.56-4.21a3.84,3.84,0,0,1,2.4-3.77V77.21h-2.44V73.47h2.44V73h4.34v.52h6.87v3.74Z"/><path class="cls-4" d="M228.57,86.42V80.5h3.82v2h1V79.63h-4.53V73.06h3.84v2.71h.69V72.58h4.34v3.19h.69V73.06h3.82v6.57h-4.51v2.91h1.06v-2h3.81v5.92Z"/><path class="cls-4" d="M255.52,77.71v3.82h-7c-.4,0-.61.21-.61.45s.22.47.61.47h7.92v3.93h-9.12a3.66,3.66,0,0,1-3.75-4c0-2.29,1.32-4.08,3.84-4.08h3.75v-.61h-7.44V73.78h7.44v-.71h4.35v.71h1.92v3.93Z"/><path class="cls-4" d="M271.81,82.9c-.07,2.13-1.33,3.52-3.85,3.52h-.29a3.71,3.71,0,0,1-3.93-3.91v-.39a3.54,3.54,0,0,1,3.78-3.65V78.1c0-.15,0-.3,0-.45h-4l-.28,8.64h-4l.28-8.64h-.79v-4h.91l0-.65h4v.65h3.88v3.12c.35-2.25,1.65-3.5,4.47-3.5h.53v4.15h-.26c-.52,0-.7.28-.7.79v.51h1V82.9ZM268,81.64h-.73a.47.47,0,0,0-.5.46v.15a.44.44,0,0,0,.5.47h.15c.36,0,.58-.26.58-.69Z"/><path class="cls-4" d="M283.26,85.88V77.81c0-.34-.11-.4-.24-.4s-.2.16-.23.3l-1.06,4.9c-.54,2.48-1.46,3.72-3.92,3.72s-4.06-1.39-4.06-4.12V73.58h4.11v8c0,.37.07.43.19.43s.27-.06.36-.52l.93-4.52c.5-2.37,1.55-3.73,4-3.73a3.86,3.86,0,0,1,4.1,4.14v8.47Z"/><path class="cls-4" d="M297.6,77v.64c2.49.26,4.77,1.46,4.77,5.76v1.25h-4.1V83.08a1.55,1.55,0,0,0-.67-1.52v1.22c0,2.52-1,3.87-4.1,3.87-3.43,0-5-1.26-5-4.7,0-3,2.16-4.32,4.89-4.38V72.93h4.22v.55h4.83V77ZM294,81.34h-.52c-.47,0-.68.28-.68.57a.57.57,0,0,0,.59.63c.34,0,.61-.15.61-.54Z"/><path class="cls-4" d="M311.94,86.33h-7.26v-4H312c.45,0,.62-.21.62-.54s-.2-.43-.62-.43h-8.16V77.44h8.15c3.7,0,5.25,1.6,5.25,4.36C317.19,84.94,315.46,86.33,311.94,86.33Zm-.53-9.12v0c0-.17-.1-.33-.43-.33h-6.32V73h6.11c4,0,5.1,1.18,5.1,3.82v.4Z"/><path class="cls-4" d="M318.87,86.29V73.09h3.88v13.2Zm10.63-5.36-1.95.74c-.16.06-.27.15-.27.28s.11.21.35.21h4.9v4H327c-2.49,0-3.81-1.32-3.81-4,0-1.62.63-2.84,3.45-3.81l1.56-.54c.19-.11.25-.17.25-.33s-.06-.23-.28-.23l-4.74,0v-4h5.47c2.48,0,3.9,1.07,3.9,3.83C332.77,79.34,331.69,80.11,329.5,80.93Z"/><path class="cls-4" d="M341.61,86.3h-2.13c-3.48,0-5.28-2.22-5.28-5.37V73.09h4.23v7.69a1.09,1.09,0,0,0,1,1.19h2.08a1.07,1.07,0,0,0,1-1.14V79.31h4.39V81C346.9,84.14,345.09,86.3,341.61,86.3Z"/><path class="cls-4" d="M358.75,85.64V83.83c0-.33-.09-.53-.42-.56,0,2-.76,3.11-3.1,3.11h-3.54c-2.24,0-3.11-1.37-3.11-3.2s1.29-2.94,3.38-2.94h2.5v-.49h-5.28V76.84h5.28V76.3h-5.28V73.36h5.28v-.5h4.22v.5h3.21V76.3h-3.21v.54h3.21v2.91h-3.21v.49H359c2.32,0,3.54,1.31,3.54,3.41v2Zm-4.29-3.07h-2a.31.31,0,0,0-.33.33.3.3,0,0,0,.33.3h1.62c.29,0,.36-.09.36-.29Z"/><path class="cls-4" d="M371.61,86.3h-2.13c-3.48,0-5.28-2.22-5.28-5.37V73.09h4.23v7.69a1.09,1.09,0,0,0,1,1.19h2.08a1.07,1.07,0,0,0,1-1.14V79.31h4.39V81C376.9,84.14,375.09,86.3,371.61,86.3Z"/><path class="cls-4" d="M387.33,78.76v.51c2,.21,3.91,1.17,3.91,4.62v1h-3.36V83.63a1.25,1.25,0,0,0-.55-1.23v1c0,2-.83,3.1-3.36,3.1-2.81,0-4.11-1-4.11-3.75,0-2.43,1.77-3.46,4-3.51V75.5h3.47V76h4v2.81Zm-3,3.46h-.42c-.39,0-.56.24-.56.47a.45.45,0,0,0,.48.51c.29,0,.5-.12.5-.44Z"/><path class="cls-4" d="M401.94,86.33h-7.26v-4H402c.45,0,.62-.21.62-.54s-.2-.43-.62-.43h-8.16V77.44h8.15c3.7,0,5.25,1.6,5.25,4.36C407.19,84.94,405.46,86.33,401.94,86.33Zm-.53-9.12v0c0-.17-.1-.33-.43-.33h-6.32V73h6.11c4,0,5.1,1.18,5.1,3.82v.4Z"/><path class="cls-4" d="M417.1,82.72H414L413.08,77V72.61H418V77Zm-3.73,4V83h4.32v3.72Z"/></g></g></svg>