<svg xmlns="http://www.w3.org/2000/svg" viewBox="0 0 244.79 244.79"><defs><style>.cls-1{fill:#f2bd47;}.cls-2{fill:#e4eaee;}.cls-3{fill:#3e3a39;}</style></defs><g id="レイヤー_2" data-name="レイヤー 2"><g id="前夕祭"><g id="吹き出し"><circle class="cls-1" cx="122.39" cy="122.39" r="119.39"/><path class="cls-2" d="M122.39,6A116.4,116.4,0,1,1,6,122.39,116.39,116.39,0,0,1,122.39,6m0-6A122.39,122.39,0,0,0,35.85,208.94,122.39,122.39,0,1,0,208.94,35.85,121.58,121.58,0,0,0,122.39,0Z"/></g><g id="日時"><path class="cls-3" d="M73.48,104.36H42.61v-15H69.09c2.35,0,3.15-1.72,3.15-3.39v-.12a39.84,39.84,0,0,1-4.63.3H57.43c-13.15,0-17.6-6.91-17.6-15.18V69.1c0-8.45,4.14-16,17.6-16H71.75c12.84,0,19,6.85,19,16.91V87.5C90.76,96.39,85.39,104.36,73.48,104.36ZM72.24,70.65a1.72,1.72,0,0,0-1.91-1.92H60.14c-1.48,0-1.91.87-1.91,1.61V71a1.74,1.74,0,0,0,1.91,1.91H70.33a1.71,1.71,0,0,0,1.91-1.79Z"/><path class="cls-3" d="M95.27,104.11V85.65h18.21v18.46Z"/><path class="cls-3" d="M130.89,104.36V73.61a1.22,1.22,0,0,0-1.36-1.36H118.17V54.1H139c7,0,11.24,4.51,11.24,11.12v39.14Z"/><path class="cls-3" d="M188.05,104.42H155.21V88.06h29.2c1.29,0,1.66-.5,1.66-1.42v-.37c0-.93-.49-1.42-1.66-1.42H161.63c-4.7,0-6.42-2.29-6.42-6.85V54.1h47.66V69.17H173.36v1.54c0,.62.43.86,1.11.86h13.58C201.2,71.57,205,77,205,86.27v2.9C205,99.67,200.4,104.42,188.05,104.42Z"/><path class="cls-3" d="M57.86,132.41H52.24v4.25H44.69V115.9H57.91c4.2,0,7,2,7,7.56v1.65C65,129.46,62.82,132.41,57.86,132.41Zm-.51-8.32c0-1.24-.4-1.4-1.52-1.4H52.24v2.85h3.59c1.09,0,1.52-.3,1.52-1.22Z"/><path class="cls-3" d="M83.65,136.66V124.55c0-1.53-.18-2.09-1.6-2.14v14.25H76.63V122.41c-1.3.11-1.58.79-1.58,2.14v12.11H68V123.89c0-6,2.57-8.11,8.7-8.11h5.52c6.21,0,8.47,1.78,8.47,8.11v12.77Z"/><path class="cls-3" d="M106.87,136.66V124a.5.5,0,0,0-.56-.56h-4.68V116h8.6a4.32,4.32,0,0,1,4.63,4.58v16.13Z"/><path class="cls-3" d="M130,129.1h-5.24v1h12.46v6.59H117V123.94h12c.68,0,.94-.28.94-.69v-.1c0-.43-.33-.63-.94-.63H117V116H130c5.54,0,7.75,2.5,7.75,6.77v.46C137.77,126.31,136.12,129.1,130,129.1Z"/><path class="cls-3" d="M139.63,126.41v-7.63h7.5v7.63Zm0,10.15V129h7.5v7.61Z"/><path class="cls-3" d="M160.92,136.94H158.2c-6.8,0-8.8-2-8.8-8.8v-3.46c0-7.15,2.11-9,8.72-9h2.93c6.53,0,8.69,1.83,8.69,9v3.46C169.74,135,167.71,136.94,160.92,136.94Zm1.88-12.26c0-1.83-.69-2.34-1.75-2.34h-2.93c-1.27,0-1.83.53-1.83,2.34v3.46c0,1.68.46,2.13,1.91,2.13h2.72c1.24,0,1.88-.73,1.88-2.13Z"/><path class="cls-3" d="M184.11,136.94h-2.72c-6.79,0-8.8-2-8.8-8.8v-3.46c0-7.15,2.11-9,8.73-9h2.92c6.54,0,8.7,1.83,8.7,9v3.46C192.94,135,190.9,136.94,184.11,136.94ZM186,124.68c0-1.83-.69-2.34-1.76-2.34h-2.92c-1.28,0-1.84.53-1.84,2.34v3.46c0,1.68.46,2.13,1.91,2.13h2.72c1.25,0,1.89-.73,1.89-2.13Z"/><path class="cls-3" d="M113.1,157.88c-2.14,0-4-2.26-5.67-2.26a6.47,6.47,0,0,0-4,1.68v-7.22a5.9,5.9,0,0,1,4-1.35c2.45,0,4.25,2.26,5.73,2.26a6.73,6.73,0,0,0,4.14-1.73v7.25A6.6,6.6,0,0,1,113.1,157.88Z"/><path class="cls-3" d="M74.8,186.43H69.18v4.25H61.62V169.92H74.85c4.2,0,7.05,2,7.05,7.56v1.65C81.9,183.48,79.76,186.43,74.8,186.43Zm-.51-8.32c0-1.24-.41-1.4-1.52-1.4H69.18v2.85h3.59c1.09,0,1.52-.3,1.52-1.22Z"/><path class="cls-3" d="M100.59,190.68V178.57c0-1.53-.18-2.09-1.6-2.14v14.25H93.57V176.43c-1.3.1-1.58.79-1.58,2.14v12.11H85V177.91c0-6.06,2.57-8.12,8.7-8.12h5.52c6.21,0,8.47,1.78,8.47,8.12v12.77Z"/><path class="cls-3" d="M123.81,190.68V178a.5.5,0,0,0-.56-.56h-4.68V170h8.6a4.32,4.32,0,0,1,4.63,4.58v16.13Z"/><path class="cls-3" d="M147.54,191.08h-5.9c-5.27,0-7.81-2.79-7.81-6.94v-7.2c0-3.69,2.19-7,7.1-7h12.92v6.21H142.76a1.25,1.25,0,0,0-1.33,1.37v.08a15.89,15.89,0,0,1,1.91-.1h4.2c5.42,0,7.25,2.79,7.25,6.23v.74C154.79,188,153.08,191.08,147.54,191.08Zm-.33-7.4a.74.74,0,0,0-.81-.76h-4.18a.72.72,0,0,0-.79.74v.23a.72.72,0,0,0,.79.78h4.18c.63,0,.81-.38.81-.66Z"/><path class="cls-3" d="M156.57,180.43V172.8h7.5v7.63Zm0,10.15V183h7.5v7.61Z"/><path class="cls-3" d="M177.86,191h-2.73c-6.79,0-8.8-2-8.8-8.8V178.7c0-7.15,2.11-9,8.73-9H178c6.54,0,8.7,1.83,8.7,9v3.46C186.68,189,184.65,191,177.86,191Zm1.88-12.26c0-1.83-.69-2.34-1.76-2.34h-2.92c-1.27,0-1.83.53-1.83,2.34v3.46c0,1.67.45,2.13,1.9,2.13h2.73c1.24,0,1.88-.74,1.88-2.13Z"/><path class="cls-3" d="M201.05,191h-2.72c-6.79,0-8.8-2-8.8-8.8V178.7c0-7.15,2.11-9,8.72-9h2.93c6.54,0,8.7,1.83,8.7,9v3.46C209.88,189,207.84,191,201.05,191Zm1.88-12.26c0-1.83-.68-2.34-1.75-2.34h-2.93c-1.27,0-1.83.53-1.83,2.34v3.46c0,1.67.46,2.13,1.91,2.13h2.72c1.25,0,1.88-.74,1.88-2.13Z"/></g></g></g></svg>