<svg xmlns="http://www.w3.org/2000/svg" viewBox="0 0 175.1 139"><defs><style>.cls-1{fill:#656464;}</style></defs><g id="レイヤー_2" data-name="レイヤー 2"><g id="メイン"><g id="日時"><path class="cls-1" d="M34.75,52.92H2.87V37.43H30.22c2.42,0,3.25-1.79,3.25-3.51v-.13a40.25,40.25,0,0,1-4.78.32H18.17C4.59,34.11,0,27,0,18.43V16.51C0,7.78,4.27,0,18.17,0H33C46.23,0,52.6,7.08,52.6,17.47v18C52.6,44.69,47.05,52.92,34.75,52.92ZM33.47,18.11a1.78,1.78,0,0,0-2-2H21c-1.53,0-2,.89-2,1.66v.7a1.81,1.81,0,0,0,2,2H31.5a1.77,1.77,0,0,0,2-1.85Z"/><path class="cls-1" d="M57.26,52.66V33.6H76.07V52.66Z"/><path class="cls-1" d="M94.05,52.92V21.17a1.25,1.25,0,0,0-1.4-1.41H80.92V1h21.55c7.2,0,11.61,4.65,11.61,11.48V52.92Z"/><path class="cls-1" d="M154.06,52.92H122.18V37.43h27.35c2.42,0,3.25-1.79,3.25-3.51v-.13a40.39,40.39,0,0,1-4.78.32H137.48c-13.58,0-18.17-7.14-18.17-15.68V16.51C119.31,7.78,123.58,0,137.48,0h14.79c13.26,0,19.64,7.08,19.64,17.47v18C171.91,44.69,166.36,52.92,154.06,52.92Zm-1.28-34.81a1.78,1.78,0,0,0-2-2H140.28c-1.53,0-2,.89-2,1.66v.7a1.8,1.8,0,0,0,2,2H150.8a1.77,1.77,0,0,0,2-1.85Z"/><path class="cls-1" d="M17.91,85.72V82.55H12.8v3.17H5.44V72.87c0-6.4,1.47-8.59,8.29-8.59h2.86c6.82,0,8.62,2.19,8.62,8.59V85.72Zm0-12.85c0-1.34-.21-1.73-1.39-1.73H14.17c-1.16,0-1.37.39-1.37,1.73v3h5.11Z"/><path class="cls-1" d="M44,85.72V73.44c0-1.55-.18-2.12-1.63-2.17V85.72H36.85V71.27c-1.32.1-1.6.8-1.6,2.17V85.72H28.12v-13c0-6.14,2.61-8.23,8.83-8.23h5.6c6.3,0,8.6,1.8,8.6,8.23v13Z"/><path class="cls-1" d="M76.17,85.72H63.27V79.45H74.34A1.26,1.26,0,0,0,75.65,78v0a15.64,15.64,0,0,1-1.93.13H69.46c-5.5,0-7.35-2.89-7.35-6.35V71c0-3.54,1.72-6.69,7.35-6.69h6c5.37,0,8,2.87,8,7.07v7.31C83.4,82.4,81.15,85.72,76.17,85.72Zm-.52-14.09a.72.72,0,0,0-.8-.8H70.6c-.62,0-.8.36-.8.67v.29a.73.73,0,0,0,.8.8h4.25a.72.72,0,0,0,.8-.75Z"/><path class="cls-1" d="M85.3,75.32V67.58h7.61v7.74Zm0,10.3V77.9h7.61v7.72Z"/><path class="cls-1" d="M106.9,86h-2.76c-6.89,0-8.93-2-8.93-8.93V73.57c0-7.25,2.14-9.11,8.85-9.11h3c6.63,0,8.83,1.86,8.83,9.11v3.51C115.86,84,113.79,86,106.9,86Zm1.91-12.44c0-1.86-.7-2.38-1.78-2.38h-3c-1.29,0-1.86.55-1.86,2.38v3.51c0,1.7.47,2.17,1.94,2.17h2.76c1.26,0,1.91-.75,1.91-2.17Z"/><path class="cls-1" d="M130.43,86h-2.76c-6.89,0-8.93-2-8.93-8.93V73.57c0-7.25,2.14-9.11,8.85-9.11h3c6.63,0,8.83,1.86,8.83,9.11v3.51C139.39,84,137.32,86,130.43,86Zm1.91-12.44c0-1.86-.7-2.38-1.78-2.38h-3c-1.29,0-1.86.55-1.86,2.38v3.51c0,1.7.47,2.17,1.94,2.17h2.76c1.27,0,1.91-.75,1.91-2.17Z"/><path class="cls-1" d="M77.38,106.54c-2.17,0-4.08-2.3-5.75-2.3a6.58,6.58,0,0,0-4,1.7V98.61a6,6,0,0,1,4-1.36c2.48,0,4.31,2.29,5.81,2.29a6.84,6.84,0,0,0,4.2-1.75v7.35A6.66,6.66,0,0,1,77.38,106.54Z"/><path class="cls-1" d="M38.66,134.4H33v4.31H25.29V117.65H38.71c4.26,0,7.15,2.07,7.15,7.67V127C45.86,131.41,43.69,134.4,38.66,134.4ZM38.14,126c0-1.26-.41-1.42-1.55-1.42H33v2.89h3.64c1.11,0,1.55-.3,1.55-1.23Z"/><path class="cls-1" d="M64.82,138.71V126.43c0-1.55-.18-2.12-1.63-2.17v14.45H57.7V124.26c-1.32.1-1.6.8-1.6,2.17v12.28H49v-13c0-6.15,2.61-8.24,8.83-8.24h5.6c6.3,0,8.59,1.81,8.59,8.24v13Z"/><path class="cls-1" d="M88.37,138.71V125.86a.5.5,0,0,0-.56-.57H83.06V117.7h8.72a4.38,4.38,0,0,1,4.7,4.65v16.36Z"/><path class="cls-1" d="M112.19,138.74H98.41V132h12.13c.54,0,.7-.21.7-.62v-.28c0-.29-.19-.6-.7-.6H98.49v-4.75h11.89a.56.56,0,0,0,.62-.59V125a.57.57,0,0,0-.64-.65H98.59V117.7h13.5c4.62,0,6.71,2,6.71,5.5v1.71a4.45,4.45,0,0,1-1.22,3.09,4.35,4.35,0,0,1,1.63,3.49v1.44C119.21,138,116.55,138.74,112.19,138.74Z"/><path class="cls-1" d="M121,128.31v-7.74h7.61v7.74Zm0,10.3v-7.72h7.61v7.72Z"/><path class="cls-1" d="M142.61,139h-2.76c-6.89,0-8.93-2-8.93-8.93v-3.51c0-7.26,2.14-9.11,8.85-9.11h3c6.63,0,8.83,1.85,8.83,9.11v3.51C151.57,137,149.5,139,142.61,139Zm1.91-12.44c0-1.86-.7-2.38-1.78-2.38h-3c-1.29,0-1.86.54-1.86,2.38v3.51c0,1.7.47,2.17,1.94,2.17h2.76c1.26,0,1.91-.75,1.91-2.17Z"/><path class="cls-1" d="M166.14,139h-2.76c-6.89,0-8.93-2-8.93-8.93v-3.51c0-7.26,2.14-9.11,8.85-9.11h3c6.63,0,8.83,1.85,8.83,9.11v3.51C175.1,137,173,139,166.14,139Zm1.91-12.44c0-1.86-.7-2.38-1.78-2.38h-3c-1.29,0-1.86.54-1.86,2.38v3.51c0,1.7.47,2.17,1.94,2.17h2.76c1.26,0,1.91-.75,1.91-2.17Z"/></g></g></g></svg>