<svg xmlns="http://www.w3.org/2000/svg" viewBox="0 0 242.79 242.79"><defs><style>.cls-1{fill:#f7d15f;}.cls-2{fill:#f2f9fd;}.cls-3{fill:#656464;}</style></defs><g id="レイヤー_2" data-name="レイヤー 2"><g id="メイン"><g id="吹き出し"><circle class="cls-1" cx="121.39" cy="121.39" r="118.89"/><path class="cls-2" d="M121.39,5A116.4,116.4,0,1,1,5,121.39,116.39,116.39,0,0,1,121.39,5m0-5A121.39,121.39,0,0,0,35.56,207.23,121.39,121.39,0,1,0,207.23,35.56,120.6,120.6,0,0,0,121.39,0Z"/></g><g id="日時"><path class="cls-3" d="M71.69,103.1H40.83v-15H67.31c2.35,0,3.15-1.73,3.15-3.4v-.12a37.9,37.9,0,0,1-4.63.31H55.64C42.49,84.89,38.05,78,38.05,69.7V67.85c0-8.46,4.13-16,17.59-16H70c12.84,0,19,6.85,19,16.92V86.25C89,95.14,83.61,103.1,71.69,103.1ZM70.46,69.39a1.72,1.72,0,0,0-1.91-1.91H58.36c-1.48,0-1.91.86-1.91,1.6v.68a1.75,1.75,0,0,0,1.91,1.92H68.55a1.71,1.71,0,0,0,1.91-1.79Z"/><path class="cls-3" d="M93.48,102.85V84.4h18.21v18.45Z"/><path class="cls-3" d="M129.1,103.1V72.36A1.21,1.21,0,0,0,127.74,71H116.38V52.85h20.87c7,0,11.24,4.5,11.24,11.11V103.1Z"/><path class="cls-3" d="M186.7,104.09H172.37c-12.77,0-19-6.79-19-16.86V69.76c0-9,5.31-16.91,17.23-16.91H202V67.91H175.09a3,3,0,0,0-3.21,3.34v.18a41.5,41.5,0,0,1,4.63-.25H186.7c13.15,0,17.59,6.79,17.59,15.13V88.1C204.29,96.62,200.16,104.09,186.7,104.09Zm-.8-18a1.82,1.82,0,0,0-2-1.85H173.79a1.74,1.74,0,0,0-1.91,1.79v.56a1.74,1.74,0,0,0,1.91,1.91h10.13c1.54,0,2-.93,2-1.6Z"/><path class="cls-3" d="M55,135.4v-3.12h-5v3.12H42.67V122.74c0-6.31,1.45-8.47,8.17-8.47h2.82c6.72,0,8.5,2.16,8.5,8.47V135.4Zm0-12.66c0-1.33-.21-1.71-1.38-1.71H51.27c-1.14,0-1.35.38-1.35,1.71v2.92h5Z"/><path class="cls-3" d="M80.65,135.4V123.3c0-1.53-.18-2.09-1.61-2.14V135.4H73.63V121.16c-1.3.1-1.58.79-1.58,2.14v12.1H65V122.63c0-6,2.57-8.11,8.7-8.11h5.52c6.2,0,8.47,1.78,8.47,8.11V135.4Z"/><path class="cls-3" d="M111.85,135.58h-6.1c-6.59,0-7.4-3-7.4-6.28v-.92a4.49,4.49,0,0,1,1.47-3.48,4.38,4.38,0,0,1-1-3v-1.35c0-4.68,1.73-6.15,6.84-6.15H112c6.19,0,7,2.77,7,6.15v1.35a4.15,4.15,0,0,1-1.09,3,4.5,4.5,0,0,1,1.57,3.51v.92C119.43,133.37,117.75,135.58,111.85,135.58Zm.13-7.27c0-.26-.2-.64-.84-.64h-4.53c-.51,0-.81.26-.81.64v.3a.74.74,0,0,0,.81.69h4.53c.66,0,.84-.36.84-.69Zm-.23-7c0-.36-.23-.61-.69-.61h-4.32c-.56,0-.76.3-.76.61v.33c0,.33.25.53.76.53h4.32a.62.62,0,0,0,.69-.53Z"/><path class="cls-3" d="M121.06,125.15v-7.63h7.5v7.63Zm0,10.15v-7.6h7.5v7.6Z"/><path class="cls-3" d="M143.77,135.43H130.19v-6.61h11.95c.54,0,.69-.21.69-.61v-.28c0-.28-.18-.59-.69-.59H130.27v-4.68H142a.55.55,0,0,0,.61-.58v-.18a.57.57,0,0,0-.63-.64h-11.6V114.7h13.3c4.55,0,6.61,1.93,6.61,5.42v1.67a4.39,4.39,0,0,1-1.19,3.06,4.27,4.27,0,0,1,1.6,3.43v1.43C150.69,134.72,148.07,135.43,143.77,135.43Z"/><path class="cls-3" d="M164.58,135.68h-2.72c-6.8,0-8.81-2-8.81-8.8v-3.46c0-7.14,2.12-9,8.73-9h2.92c6.54,0,8.7,1.84,8.7,9v3.46C173.4,133.72,171.37,135.68,164.58,135.68Zm1.88-12.26c0-1.83-.69-2.34-1.76-2.34h-2.92c-1.27,0-1.83.54-1.83,2.34v3.46c0,1.68.46,2.14,1.91,2.14h2.72c1.24,0,1.88-.74,1.88-2.14Z"/><path class="cls-3" d="M111.32,156.63c-2.14,0-4-2.26-5.67-2.26a6.55,6.55,0,0,0-4,1.67v-7.22a6,6,0,0,1,4-1.35c2.44,0,4.25,2.27,5.72,2.27a6.79,6.79,0,0,0,4.15-1.73v7.25A6.66,6.66,0,0,1,111.32,156.63Z"/><path class="cls-3" d="M73,185.17H67.39v4.25H59.84V168.67H73.07c4.19,0,7,2,7,7.55v1.65C80.11,182.22,78,185.17,73,185.17Zm-.51-8.31c0-1.25-.41-1.4-1.53-1.4H67.39v2.85H71c1.1,0,1.53-.31,1.53-1.22Z"/><path class="cls-3" d="M98.81,189.42V177.31c0-1.52-.18-2.08-1.61-2.13v14.24H91.79V175.18c-1.3.1-1.58.79-1.58,2.13v12.11h-7V176.65c0-6.05,2.57-8.11,8.7-8.11h5.52c6.2,0,8.47,1.78,8.47,8.11v12.77Z"/><path class="cls-3" d="M122,189.42V176.75a.49.49,0,0,0-.56-.55h-4.68v-7.48h8.59A4.31,4.31,0,0,1,130,173.3v16.12Z"/><path class="cls-3" d="M145.17,181.87h-5.24v1h12.46v6.59H132.12V176.7h12c.69,0,.94-.28.94-.68v-.1c0-.44-.33-.64-.94-.64h-12v-6.56h13c5.55,0,7.76,2.49,7.76,6.76v.46C152.93,179.07,151.28,181.87,145.17,181.87Z"/><path class="cls-3" d="M154.78,179.17v-7.63h7.51v7.63Zm0,10.15v-7.61h7.51v7.61Z"/><path class="cls-3" d="M176.07,189.7h-2.72c-6.79,0-8.8-2-8.8-8.8v-3.46c0-7.15,2.11-9,8.72-9h2.93c6.54,0,8.7,1.83,8.7,9v3.46C184.9,187.74,182.86,189.7,176.07,189.7ZM178,177.44c0-1.83-.68-2.34-1.75-2.34h-2.93c-1.27,0-1.83.54-1.83,2.34v3.46c0,1.68.46,2.14,1.91,2.14h2.72c1.25,0,1.88-.74,1.88-2.14Z"/><path class="cls-3" d="M199.27,189.7h-2.72c-6.8,0-8.81-2-8.81-8.8v-3.46c0-7.15,2.12-9,8.73-9h2.92c6.54,0,8.7,1.83,8.7,9v3.46C208.09,187.74,206.06,189.7,199.27,189.7Zm1.88-12.26c0-1.83-.69-2.34-1.76-2.34h-2.92c-1.27,0-1.83.54-1.83,2.34v3.46c0,1.68.46,2.14,1.91,2.14h2.72c1.24,0,1.88-.74,1.88-2.14Z"/></g></g></g></svg>