<svg xmlns="http://www.w3.org/2000/svg" viewBox="0 0 436.45 61.28"><defs><style>.cls-1{fill:#fff;}.cls-2{fill:#666464;}.cls-3,.cls-5{fill:none;stroke-miterlimit:10;}.cls-3{stroke:#666464;stroke-width:4px;}.cls-4{fill:#6ebf86;}.cls-5{stroke:#6ebf86;stroke-width:2px;}</style></defs><g id="レイヤー_2" data-name="レイヤー 2"><g id="レイヤー_1-2" data-name="レイヤー 1"><rect class="cls-1" width="436.45" height="61.28" rx="30.64"/><path class="cls-2" d="M97.41,39.27c-3.25,1.83-7.61,3-13.4,3V35c10.36,0,13.27-4.87,13.27-6.92v-.52H84.85V20.88h20.51v5.5A14.29,14.29,0,0,1,103.05,34a14.13,14.13,0,0,0,5.14.8V42.1C102.29,42.1,100.37,41.22,97.41,39.27Z"/><path class="cls-2" d="M129.86,34.57c-.42,4.35-2.65,7.65-10.31,7.65h-8.42V35.3h7.37c2.36,0,3-.48,3.2-1.58H110.14V28.35h24.57v6.22ZM110.53,27.2V20.93h23.76V27.2Z"/><path class="cls-2" d="M137.29,34.7V27.25h22.48V34.7Z"/><path class="cls-2" d="M186.11,30.05C184.93,37.27,181.83,42.1,170,42.1H163V35.35h6.16c6.45,0,8.47-2,9.29-6.37a3,3,0,0,1,.52-1.38h8.16v.1C186.68,28,186.32,28.7,186.11,30.05Zm-22.85-3.3V20.8H174.8v5.95Zm0,6.87V27.7H174.8v5.92ZM180.86,23V20.13h6.37V23Zm0,3.77V23.93h6.37v2.82Z"/><path class="cls-2" d="M202.35,39.27c-3.26,1.83-7.61,3-13.41,3V35c10.36,0,13.28-4.87,13.28-6.92v-.52H189.78V20.88h20.51v5.5A14.36,14.36,0,0,1,208,34a14.13,14.13,0,0,0,5.14.8V42.1C207.23,42.1,205.31,41.22,202.35,39.27Z"/><path class="cls-2" d="M236.74,29.18V30.6c0,7.75-4.12,11.57-13.33,11.57H216.8v-7.3h6.61c4.25,0,5.41-1.87,5.41-4.24V29.18h-6.27c-1.42,2.17-3.78,3.62-7.45,4.07v-7.9c1.05-.5,1.49-1.12,1.49-2.82v-2.1h7.66V22h14.82v7.2Z"/><path class="cls-2" d="M264.81,30.05c-1.18,7.22-4.28,12.05-16.11,12.05h-7V35.35h6.16c6.45,0,8.48-2,9.29-6.37a3,3,0,0,1,.52-1.38h8.16v.1C265.39,28,265,28.7,264.81,30.05ZM242,26.75V20.8H253.5v5.95Zm0,6.87V27.7H253.5v5.92ZM259.56,23V20.13h6.38V23Zm0,3.77V23.93h6.38v2.82Z"/><path class="cls-2" d="M269.93,42.12V36.4h11.41V31.65c0-.48-.29-.85-1-.85H271V25.08h9.37c6.4,0,7.34,1,7.34,6.44V36.4h1.76v5.72Z"/><path class="cls-2" d="M294.69,34.7V27.25h22.48V34.7Z"/><path class="cls-2" d="M320,42.15V34.37c1.05-.25,1.42-.72,1.42-3.12V20.4h6.76V30.6C328.19,38.87,325.83,41.7,320,42.15Zm17.63-13.27v.05c0,4.69-1,5.59-1.29,5.59H336l.13-1.27V20.4h-6.93V42.15h6.53c6.19,0,8.79-4.25,8.79-13.27Zm6.92-.05v0Z"/></g><g id="レイヤー_3" data-name="レイヤー 3"><path class="cls-3" d="M41.63,28.31a10.07,10.07,0,1,1-8.09-11.72A10.07,10.07,0,0,1,41.63,28.31Z"/><line class="cls-3" x1="25.26" y1="34.11" x2="16.73" y2="44.86"/><path class="cls-4" d="M413,24.88c-3.65,4.44-16.27,1.58-16.27,1.58h0s2.31-11,8.11-12.73a7.69,7.69,0,0,1,7.44,2.36C414.48,18.59,414.78,22.69,413,24.88Z"/><path class="cls-4" d="M395.63,12.49c4.85,3.28,2.8,15.57,2.8,15.57h0s-11.59-1.64-13.76-7.13a7,7,0,0,1,1.91-7.28C389,11.37,393.22,10.86,395.63,12.49Z"/><path class="cls-4" d="M383.31,28.51c3-4.86,15.89-3.55,15.89-3.55h0s-.8,11.25-6.31,13.64a7.73,7.73,0,0,1-7.68-1.44C382.66,35,381.81,30.91,383.31,28.51Z"/><path class="cls-4" d="M400.66,41.13c-5.06-3-3.82-15.35-3.82-15.35h0s11.67.87,14.2,6.2a7,7,0,0,1-1.43,7.39C407.34,41.81,403.17,42.59,400.66,41.13Z"/><path class="cls-5" d="M396.62,32.35s1.25,6.37-5.74,15.92"/></g></g></svg>