<?xml version="1.0" encoding="UTF-8"?><svg id="_レイヤー_2" xmlns="http://www.w3.org/2000/svg" xmlns:xlink="http://www.w3.org/1999/xlink" viewBox="0 0 171.37 157.69"><defs><style>.cls-1{fill:#78bbcf;}.cls-2{fill:#f2bfd7;}.cls-3{fill:#5ca6bb;}.cls-4{stroke-width:2.41px;}.cls-4,.cls-5,.cls-6,.cls-7,.cls-8,.cls-9,.cls-10,.cls-11,.cls-12{fill:none;}.cls-4,.cls-6,.cls-7,.cls-8,.cls-10,.cls-11{stroke-miterlimit:10;}.cls-4,.cls-6,.cls-12{stroke:#e8eff3;stroke-linecap:round;}.cls-13{fill:#96ae56;}.cls-5{stroke:url(#_新規パターンスウォッチ_3);stroke-width:8px;}.cls-6,.cls-7,.cls-8,.cls-10,.cls-12{stroke-width:.8px;}.cls-14{fill:#edaecb;}.cls-7{stroke-dasharray:0 0 2.47 .82;}.cls-7,.cls-8,.cls-10{stroke:#5ca6bb;}.cls-15{fill:#deeee8;}.cls-16{fill:#eec55b;}.cls-17{fill:#f2f9fd;}.cls-18{fill:#f7d15f;}.cls-10{stroke-dasharray:0 0 2.32 .77;}.cls-11{stroke:#f2bfd7;stroke-width:1.61px;}.cls-12{stroke-linejoin:round;}</style><pattern id="_新規パターンスウォッチ_3" x="0" y="0" width="30.78" height="26.28" patternTransform="translate(-1525.26 955.16) scale(1.28)" patternUnits="userSpaceOnUse" viewBox="0 0 30.78 26.28"><g><rect class="cls-9" width="30.78" height="26.28"/><rect class="cls-15" width="30.78" height="26.28"/></g></pattern></defs><g id="_スタンプラリー"><g id="_靴"><g><g><g><path class="cls-5" d="M98.61,30.8c-.46-.69,2.4-.84,2.69-.07,2.09,5.51,5.68,6.48,2.11,8.73-1.65,1.04-2.55-5.24-4.8-8.66Z"/><path class="cls-5" d="M67.31,37.99c-.25,.15-.45,.36-.58,.62-16.96,32.78-7.89,31.21-60.59,62.9-9.5,5.71-5.83,26.34-3.09,32.8,.44,1.05,1.58,1.61,2.69,1.34,28.7-7.19,81.89-19.32,113.09-28.44,1.08-.31,1.73-1.39,1.52-2.49-5.6-28.97-13.61-41.93-18.86-73.87-.12-.74-.76-1.29-1.51-1.28-12.17,.24-24.53,3.68-32.66,8.42Z"/><polygon class="cls-5" points="96.86 101.85 79.18 106.31 70.5 103.24 71.75 108.18 29.21 118.9 30.5 124.03 80.05 111.53 88.73 114.6 87.48 109.66 98.15 106.97 96.86 101.85"/><path class="cls-5" d="M123.15,126.42l-32.34,8.15c-1.78,.45-3.65-.15-4.85-1.55-2.12-2.48-5.61-6-7.95-5.41-3.71,.93-5.56,5.98-6.38,9.21-.43,1.71-1.78,3.03-3.49,3.46l-57.22,14.43c-1.36,.34-2.73-.48-3.08-1.84l-3.59-14.24c-.34-1.36,.48-2.73,1.84-3.08l112.22-28.29c1.36-.34,2.73,.48,3.08,1.84l3.59,14.24c.34,1.36-.48,2.73-1.84,3.08Z"/><polygon class="cls-5" points="98.13 106.91 82.96 110.73 74.28 107.67 75.53 112.6 32.99 123.33 34.28 128.45 83.83 115.96 92.51 119.03 91.26 114.08 99.42 112.03 98.13 106.91"/><polygon class="cls-5" points="97.57 93.61 55.68 69.78 65.72 49.4 102.91 69.31 97.57 93.61"/><g><line class="cls-5" x1="56.83" y1="67.92" x2="96.91" y2="90.42"/><g><line class="cls-5" x1="56.83" y1="67.92" x2="57.88" y2="68.51"/><line class="cls-5" x1="58.6" y1="68.91" x2="95.5" y2="89.63"/><line class="cls-5" x1="95.86" y1="89.83" x2="96.91" y2="90.42"/></g></g><g><line class="cls-5" x1="64.89" y1="51.26" x2="100.38" y2="70.46"/><g><line class="cls-5" x1="64.89" y1="51.26" x2="65.95" y2="51.83"/><line class="cls-5" x1="66.63" y1="52.2" x2="98.98" y2="69.7"/><line class="cls-5" x1="99.32" y1="69.88" x2="100.38" y2="70.46"/></g></g><path class="cls-5" d="M105.94,52c.11,.36-.71,1.33-.71,1.33,0,0-4.23-12.96-5.99-23.74,1.71-.14,2.15,.59,2.3,1.64,1.05,7.19,3.32,17.06,4.4,20.77Z"/><path class="cls-5" d="M6.14,101.51c-9.5,5.71-5.83,26.33-3.09,32.8,.44,1.05,1.59,1.61,2.69,1.34,6.45-1.61,30.3,1.26,28.54-7.2-1.97-9.47-7.78-26.68-14.28-35.41-4.13,2.37-8.67,5.34-13.87,8.47Z"/><path class="cls-5" d="M105.69,51.12c-6.17,9.67-12.36,48.39-9.42,62.28,1.76,8.31,15.89-4.23,22.56-6.18,1.08-.31,1.73-1.39,1.52-2.49-4.25-21.99-9.2-34.66-14.66-53.6Z"/><path class="cls-5" d="M120.15,108.91c4.34,16.4,4.77,15.89,2.65,16.35l-32.62,8.43c-1.78,.45-3.92-1.79-5.11-3.19-2.12-2.48-5-4.51-7.34-3.92-3.71,.93-6.1,6.18-6.92,9.41-.43,1.71-1.92,3.07-3.63,3.5l-56.55,14.26c-1.54,.39-1.7-.11-5.42-15.86"/><path class="cls-5" d="M16.64,95.12c3.17,3.68,13.05,28.39,14.23,34.19"/><path class="cls-5" d="M106.91,55.29c-1.41,3.15-11.53,37.38-7.49,56.73"/><path class="cls-5" d="M25.38,94.18s-2.46-2.27-2.17-3.48c.35-1.45,3.53-3.64,4.98-3.29,1.21,.29,2.17,3.48,2.17,3.48l-4.98,3.29Z"/><path class="cls-5" d="M35.48,87.33s-2.63-2.22-2.34-3.43c.35-1.45,3.53-3.64,4.98-3.29,1.21,.29,2.34,3.43,2.34,3.43l-4.98,3.29Z"/><path class="cls-5" d="M46.48,80.22s-3.23-2.7-3.12-3.94c.13-1.49,2.96-4.11,4.45-3.98,1.24,.11,3.22,3.49,3.22,3.49l-4.55,4.44Z"/><path class="cls-5" d="M56.31,68.29s-3.39-.85-3.72-2.05c-.39-1.44,1.36-4.89,2.8-5.27,1.2-.32,3.72,2.05,3.72,2.05l-2.8,5.27Z"/><path class="cls-5" d="M63.44,54.92s-3.84-.73-4.28-1.9c-.53-1.4,.88-4.99,2.28-5.52,1.17-.44,4.28,1.9,4.28,1.9l-2.28,5.52Z"/><path class="cls-5" d="M34.54,47.83c-.26,.28-.17,.85-.08,1.18,.1,.37,.35,.86,.81,.79,.19-.03,.37-.32,.52-.45,.18-.15,.37-.29,.56-.42,.54-.36,1.12-.67,1.71-.96,.78-.39,1.57-.75,2.37-1.09,.96-.41,1.93-.79,2.91-1.16,1.1-.41,2.2-.8,3.32-1.18,1.19-.4,2.39-.78,3.6-1.15s2.5-.73,3.75-1.07c1.25-.33,2.51-.65,3.78-.94s2.45-.53,3.68-.76c1.15-.21,2.3-.39,3.45-.53,1.03-.12,2.06-.22,3.1-.25,.41-.01,.81-.02,1.22,0,.7,.01,.35-2.85-.34-2.76-16.13,1.93-30.88,6.9-34.36,10.75Z"/><path class="cls-5" d="M40.8,58.95c-.09,.6,1.68,1.2,1.88,.63,2.44-6.75,8.63-39.57,26.4-19.2,.46,.52-.11-2.2-.57-2.73-17.3-19.75-26.46,12.8-27.71,21.29Z"/><path class="cls-5" d="M69.77,36.84c-5.88,19.96-15.93,37.41-21.34,41.45-5.09,3.81-36.91,24.28-41.84,31.4-4.92,7.12-1.01,21.53-.86,25.96"/><path class="cls-5" d="M118.83,107.21c-.73,.34-12.1,3.14-27.24,6.94l1.29,5.1-9.07-3.05c-32.74,8.18-76.67,18.99-77.24,19.11"/><path class="cls-5" d="M94.93,40.39c1.07,4.25-1.51,8.57-5.76,9.64-4.25,1.07-8.57-1.51-9.64-5.76-.75-2.97,2.77-3.57,7.02-4.64,4.25-1.07,7.52-2.66,8.38,.76Z"/><path class="cls-5" d="M91.32,34.62l-11.02,2.78c-.45,.11-.72,.57-.61,1.02l1.06,4.19c.11,.45,.57,.72,1.02,.61l11.02-2.78c.45-.11,.72-.57,.61-1.02l-1.06-4.19c-.11-.45-.57-.72-1.02-.61Z"/><path class="cls-5" d="M67.66,38.3c9.24-1.72,25.63-5.95,32.76-8.34,1.95-.66,.02-8.32-2.02-7.99-7.67,1.21-25.15,5.49-32.76,8.34-1.93,.72-.01,8.37,2.02,7.99Z"/><path class="cls-5" d="M41.6,61.86c-.13,.25-1.06-.03-1.08-.31-.06-.8,1.04-3.69,1.04-3.69l1.08,.31s-.63,2.92-1.04,3.69Z"/><path class="cls-5" d="M32.92,51.16c-.25,.13-.86-.62-.71-.87,.41-.69,2.96-2.44,2.96-2.44l.71,.87s-2.18,2.04-2.96,2.44Z"/></g><g><path class="cls-5" d="M98.61,30.8c-.46-.69,2.4-.84,2.69-.07,2.09,5.51,5.68,6.48,2.11,8.73-1.65,1.04-2.55-5.24-4.8-8.66Z"/><path class="cls-5" d="M67.31,37.99c-.25,.15-.45,.36-.58,.62-16.96,32.78-7.89,31.21-60.59,62.9-9.5,5.71-5.83,26.34-3.09,32.8,.44,1.05,1.58,1.61,2.69,1.34,28.7-7.19,81.89-19.32,113.09-28.44,1.08-.31,1.73-1.39,1.52-2.49-5.6-28.97-13.61-41.93-18.86-73.87-.12-.74-.76-1.29-1.51-1.28-12.17,.24-24.53,3.68-32.66,8.42Z"/><polygon class="cls-5" points="96.86 101.85 79.18 106.31 70.5 103.24 71.75 108.18 29.21 118.9 30.5 124.03 80.05 111.53 88.73 114.6 87.48 109.66 98.15 106.97 96.86 101.85"/><path class="cls-5" d="M123.15,126.42l-32.34,8.15c-1.78,.45-3.65-.15-4.85-1.55-2.12-2.48-5.61-6-7.95-5.41-3.71,.93-5.56,5.98-6.38,9.21-.43,1.71-1.78,3.03-3.49,3.46l-57.22,14.43c-1.36,.34-2.73-.48-3.08-1.84l-3.59-14.24c-.34-1.36,.48-2.73,1.84-3.08l112.22-28.29c1.36-.34,2.73,.48,3.08,1.84l3.59,14.24c.34,1.36-.48,2.73-1.84,3.08Z"/><polygon class="cls-5" points="98.13 106.91 82.96 110.73 74.28 107.67 75.53 112.6 32.99 123.33 34.28 128.45 83.83 115.96 92.51 119.03 91.26 114.08 99.42 112.03 98.13 106.91"/><polygon class="cls-5" points="97.57 93.61 55.68 69.78 65.72 49.4 102.91 69.31 97.57 93.61"/><g><line class="cls-5" x1="56.83" y1="67.92" x2="96.91" y2="90.42"/><g><line class="cls-5" x1="56.83" y1="67.92" x2="57.88" y2="68.51"/><line class="cls-5" x1="58.6" y1="68.91" x2="95.5" y2="89.63"/><line class="cls-5" x1="95.86" y1="89.83" x2="96.91" y2="90.42"/></g></g><g><line class="cls-5" x1="64.89" y1="51.26" x2="100.38" y2="70.46"/><g><line class="cls-5" x1="64.89" y1="51.26" x2="65.95" y2="51.83"/><line class="cls-5" x1="66.63" y1="52.2" x2="98.98" y2="69.7"/><line class="cls-5" x1="99.32" y1="69.88" x2="100.38" y2="70.46"/></g></g><path class="cls-5" d="M105.94,52c.11,.36-.71,1.33-.71,1.33,0,0-4.23-12.96-5.99-23.74,1.71-.14,2.15,.59,2.3,1.64,1.05,7.19,3.32,17.06,4.4,20.77Z"/><path class="cls-5" d="M6.14,101.51c-9.5,5.71-5.83,26.33-3.09,32.8,.44,1.05,1.59,1.61,2.69,1.34,6.45-1.61,30.3,1.26,28.54-7.2-1.97-9.47-7.78-26.68-14.28-35.41-4.13,2.37-8.67,5.34-13.87,8.47Z"/><path class="cls-5" d="M105.69,51.12c-6.17,9.67-12.36,48.39-9.42,62.28,1.76,8.31,15.89-4.23,22.56-6.18,1.08-.31,1.73-1.39,1.52-2.49-4.25-21.99-9.2-34.66-14.66-53.6Z"/><path class="cls-5" d="M120.15,108.91c4.34,16.4,4.77,15.89,2.65,16.35l-32.62,8.43c-1.78,.45-3.92-1.79-5.11-3.19-2.12-2.48-5-4.51-7.34-3.92-3.71,.93-6.1,6.18-6.92,9.41-.43,1.71-1.92,3.07-3.63,3.5l-56.55,14.26c-1.54,.39-1.7-.11-5.42-15.86"/><path class="cls-5" d="M16.64,95.12c3.17,3.68,13.05,28.39,14.23,34.19"/><path class="cls-5" d="M106.91,55.29c-1.41,3.15-11.53,37.38-7.49,56.73"/><path class="cls-5" d="M25.38,94.18s-2.46-2.27-2.17-3.48c.35-1.45,3.53-3.64,4.98-3.29,1.21,.29,2.17,3.48,2.17,3.48l-4.98,3.29Z"/><path class="cls-5" d="M35.48,87.33s-2.63-2.22-2.34-3.43c.35-1.45,3.53-3.64,4.98-3.29,1.21,.29,2.34,3.43,2.34,3.43l-4.98,3.29Z"/><path class="cls-5" d="M46.48,80.22s-3.23-2.7-3.12-3.94c.13-1.49,2.96-4.11,4.45-3.98,1.24,.11,3.22,3.49,3.22,3.49l-4.55,4.44Z"/><path class="cls-5" d="M56.31,68.29s-3.39-.85-3.72-2.05c-.39-1.44,1.36-4.89,2.8-5.27,1.2-.32,3.72,2.05,3.72,2.05l-2.8,5.27Z"/><path class="cls-5" d="M63.44,54.92s-3.84-.73-4.28-1.9c-.53-1.4,.88-4.99,2.28-5.52,1.17-.44,4.28,1.9,4.28,1.9l-2.28,5.52Z"/><path class="cls-5" d="M34.54,47.83c-.26,.28-.17,.85-.08,1.18,.1,.37,.35,.86,.81,.79,.19-.03,.37-.32,.52-.45,.18-.15,.37-.29,.56-.42,.54-.36,1.12-.67,1.71-.96,.78-.39,1.57-.75,2.37-1.09,.96-.41,1.93-.79,2.91-1.16,1.1-.41,2.2-.8,3.32-1.18,1.19-.4,2.39-.78,3.6-1.15s2.5-.73,3.75-1.07c1.25-.33,2.51-.65,3.78-.94s2.45-.53,3.68-.76c1.15-.21,2.3-.39,3.45-.53,1.03-.12,2.06-.22,3.1-.25,.41-.01,.81-.02,1.22,0,.7,.01,.35-2.85-.34-2.76-16.13,1.93-30.88,6.9-34.36,10.75Z"/><path class="cls-5" d="M40.8,58.95c-.09,.6,1.68,1.2,1.88,.63,2.44-6.75,8.63-39.57,26.4-19.2,.46,.52-.11-2.2-.57-2.73-17.3-19.75-26.46,12.8-27.71,21.29Z"/><path class="cls-5" d="M69.77,36.84c-5.88,19.96-15.93,37.41-21.34,41.45-5.09,3.81-36.91,24.28-41.84,31.4-4.92,7.12-1.01,21.53-.86,25.96"/><path class="cls-5" d="M118.83,107.21c-.73,.34-12.1,3.14-27.24,6.94l1.29,5.1-9.07-3.05c-32.74,8.18-76.67,18.99-77.24,19.11"/><path class="cls-5" d="M94.93,40.39c1.07,4.25-1.51,8.57-5.76,9.64-4.25,1.07-8.57-1.51-9.64-5.76-.75-2.97,2.77-3.57,7.02-4.64,4.25-1.07,7.52-2.66,8.38,.76Z"/><path class="cls-5" d="M91.32,34.62l-11.02,2.78c-.45,.11-.72,.57-.61,1.02l1.06,4.19c.11,.45,.57,.72,1.02,.61l11.02-2.78c.45-.11,.72-.57,.61-1.02l-1.06-4.19c-.11-.45-.57-.72-1.02-.61Z"/><path class="cls-5" d="M67.66,38.3c9.24-1.72,25.63-5.95,32.76-8.34,1.95-.66,.02-8.32-2.02-7.99-7.67,1.21-25.15,5.49-32.76,8.34-1.93,.72-.01,8.37,2.02,7.99Z"/><path class="cls-5" d="M41.6,61.86c-.13,.25-1.06-.03-1.08-.31-.06-.8,1.04-3.69,1.04-3.69l1.08,.31s-.63,2.92-1.04,3.69Z"/><path class="cls-5" d="M32.92,51.16c-.25,.13-.86-.62-.71-.87,.41-.69,2.96-2.44,2.96-2.44l.71,.87s-2.18,2.04-2.96,2.44Z"/></g></g><g><g><path class="cls-5" d="M109.02,8.13c-.7-.45,1.85-1.74,2.44-1.15,4.14,4.2,7.81,3.63,5.46,7.13-1.09,1.62-4.45-3.76-7.89-5.98Z"/><path class="cls-5" d="M83.3,27.37c-.17,.23-.27,.52-.28,.8-2.26,36.84,5.4,31.74-29.99,82.03-6.38,9.06,5.32,26.45,10.44,31.25,.83,.78,2.1,.83,3,.13,23.34-18.18,67.09-50.77,91.94-71.73,.86-.72,1.02-1.97,.38-2.9-16.83-24.24-29.4-32.85-47.12-59.94-.41-.63-1.22-.87-1.9-.56-11.04,5.14-20.94,13.28-26.47,20.91Z"/><polygon class="cls-5" points="136.14 73.83 121.78 85.05 112.6 85.76 115.73 89.77 81.17 116.77 84.42 120.94 124.68 89.48 133.86 88.78 130.72 84.76 139.39 77.99 136.14 73.83"/><path class="cls-5" d="M170.12,85.66l-26.28,20.53c-1.45,1.13-3.4,1.34-5.06,.55-2.94-1.41-7.56-3.22-9.46-1.74-3.01,2.35-2.66,7.72-2.11,11,.29,1.74-.4,3.49-1.79,4.58l-46.5,36.33c-1.1,.86-2.69,.67-3.56-.44l-9.04-11.57c-.86-1.1-.67-2.69,.44-3.56l91.2-71.25c1.1-.86,2.69-.67,3.56,.44l9.04,11.57c.86,1.1,.67,2.69-.44,3.56Z"/><polygon class="cls-5" points="139.35 77.94 127.02 87.57 117.85 88.28 120.98 92.29 86.41 119.29 89.66 123.46 129.93 92 139.11 91.3 135.97 87.28 142.6 82.1 139.35 77.94"/><polygon class="cls-5" points="133.46 66 85.51 61.14 86.46 38.45 128.52 41.62 133.46 66"/><g><line class="cls-5" x1="85.81" y1="58.98" x2="131.57" y2="63.35"/><g><line class="cls-5" x1="85.81" y1="58.98" x2="87.01" y2="59.09"/><line class="cls-5" x1="87.83" y1="59.17" x2="129.96" y2="63.2"/><line class="cls-5" x1="130.37" y1="63.23" x2="131.57" y2="63.35"/></g></g><g><line class="cls-5" x1="86.45" y1="40.48" x2="126.67" y2="43.69"/><g><line class="cls-5" x1="86.45" y1="40.48" x2="87.65" y2="40.57"/><line class="cls-5" x1="88.42" y1="40.63" x2="125.08" y2="43.56"/><line class="cls-5" x1="125.47" y1="43.59" x2="126.67" y2="43.69"/></g></g><path class="cls-5" d="M124.3,24.56c.24,.29-.11,1.51-.11,1.51,0,0-9.11-10.15-15.08-19.3,1.5-.81,2.2-.33,2.77,.57,3.86,6.15,9.94,14.26,12.42,17.21Z"/><path class="cls-5" d="M53.03,110.2c-6.38,9.06,5.31,26.44,10.44,31.25,.83,.78,2.1,.83,3,.13,5.25-4.08,28.22-11.1,23.2-18.12-5.63-7.87-17.9-21.26-27.38-26.61-2.81,3.84-5.77,8.39-9.26,13.35Z"/><path class="cls-5" d="M123.71,23.85c-1.73,11.34,8.26,49.26,16.56,60.77,4.97,6.89,12.83-10.3,18.14-14.78,.86-.72,1.02-1.97,.38-2.89-12.78-18.4-22.42-27.98-35.08-43.1Z"/><path class="cls-5" d="M160.3,70.87c10.6,13.24,10.78,12.6,9.03,13.88l-26.42,20.9c-1.45,1.13-4.31-.06-5.96-.85-2.94-1.41-6.4-2.1-8.3-.62-3.01,2.35-3.08,8.12-2.52,11.4,.29,1.74-.52,3.58-1.91,4.67l-45.96,35.91c-1.26,.98-1.6,.59-11.37-12.32"/><path class="cls-5" d="M60.05,100.1c4.38,2.09,23.41,20.69,26.84,25.52"/><path class="cls-5" d="M126.51,27.18c-.02,3.45,4.57,38.85,16.09,54.92"/><path class="cls-5" d="M67.67,95.71s-3.17-1.08-3.39-2.31c-.27-1.47,1.76-4.76,3.23-5.02,1.23-.22,3.39,2.31,3.39,2.31l-3.23,5.02Z"/><path class="cls-5" d="M74.13,85.36s-3.31-.97-3.53-2.19c-.27-1.47,1.76-4.76,3.23-5.02,1.23-.22,3.53,2.19,3.53,2.19l-3.23,5.02Z"/><path class="cls-5" d="M81.31,74.41s-4.05-1.16-4.45-2.34c-.48-1.41,1.05-4.96,2.46-5.44,1.18-.4,4.35,1.89,4.35,1.89l-2.37,5.9Z"/><path class="cls-5" d="M85.49,59.53s-3.44,.6-4.23-.37c-.94-1.16-.73-5.02,.43-5.96,.97-.78,4.23,.37,4.23,.37l-.43,5.96Z"/><path class="cls-5" d="M86.61,44.42s-3.81,.88-4.68,0c-1.05-1.07-1.21-4.92-.15-5.97,.89-.87,4.68,0,4.68,0l.15,5.97Z"/><path class="cls-5" d="M57.3,49.61c-.12,.36,.19,.84,.4,1.11,.24,.3,.67,.64,1.06,.39,.16-.1,.21-.44,.29-.62,.1-.21,.22-.42,.35-.61,.35-.55,.76-1.07,1.17-1.57,.55-.67,1.13-1.32,1.73-1.95,.71-.76,1.45-1.5,2.19-2.23,.84-.82,1.69-1.62,2.56-2.42,.93-.85,1.87-1.68,2.83-2.5,.99-.85,1.99-1.68,3-2.49,1.01-.81,2.04-1.61,3.08-2.39,1-.75,2.02-1.48,3.06-2.18,.96-.65,1.94-1.29,2.95-1.88,.89-.53,1.8-1.03,2.73-1.48,.37-.18,.74-.34,1.11-.5,.64-.27-.83-2.75-1.43-2.39-13.97,8.29-25.46,18.8-27.08,23.72Z"/><path class="cls-5" d="M67.53,57.25c.16,.59,2.02,.42,1.98-.18-.5-7.17-8.11-39.69,16.38-28.23,.63,.3-.99-1.97-1.62-2.26-23.81-11.07-19.03,22.41-16.73,30.68Z"/><path class="cls-5" d="M85.09,25.32c2.69,20.63,.55,40.65-2.76,46.53-3.12,5.54-23.95,37.13-25.57,45.64-1.62,8.5,7.78,20.1,9.71,24.09"/><path class="cls-5" d="M158.41,69.85c-.54,.61-9.79,7.76-22.11,17.36l3.24,4.14-9.53,.88c-26.64,20.72-62.45,48.37-62.92,48.71"/><path class="cls-5" d="M109.53,18.39c2.7,3.46,2.09,8.44-1.37,11.14-3.46,2.7-8.44,2.09-11.14-1.37-1.89-2.42,1.09-4.38,4.54-7.08,3.46-2.7,5.8-5.48,7.97-2.7Z"/><path class="cls-5" d="M103.9,14.58l-8.96,7c-.37,.29-.43,.81-.14,1.18l2.66,3.4c.29,.37,.81,.43,1.18,.14l8.96-7c.37-.29,.43-.81,.14-1.18l-2.66-3.4c-.29-.37-.81-.43-1.18-.14Z"/><path class="cls-5" d="M83.74,27.51c7.76-5.3,21.04-15.81,26.59-20.88,1.52-1.39-3.34-7.61-5.08-6.5-6.53,4.21-20.78,15.19-26.59,20.88-1.47,1.44,3.37,7.66,5.08,6.5Z"/><path class="cls-5" d="M69.43,59.59c-.02,.28-.98,.4-1.11,.16-.38-.71-.54-3.8-.54-3.8l1.11-.16s.6,2.93,.54,3.8Z"/><path class="cls-5" d="M57.17,53.32c-.18,.22-1.04-.22-1-.5,.1-.8,1.72-3.43,1.72-3.43l1,.5s-1.17,2.75-1.72,3.43Z"/></g><g><path class="cls-5" d="M109.02,8.13c-.7-.45,1.85-1.74,2.44-1.15,4.14,4.2,7.81,3.63,5.46,7.13-1.09,1.62-4.45-3.76-7.89-5.98Z"/><path class="cls-5" d="M83.3,27.37c-.17,.23-.27,.52-.28,.8-2.26,36.84,5.4,31.74-29.99,82.03-6.38,9.06,5.32,26.45,10.44,31.25,.83,.78,2.1,.83,3,.13,23.34-18.18,67.09-50.77,91.94-71.73,.86-.72,1.02-1.97,.38-2.9-16.83-24.24-29.4-32.85-47.12-59.94-.41-.63-1.22-.87-1.9-.56-11.04,5.14-20.94,13.28-26.47,20.91Z"/><polygon class="cls-5" points="136.14 73.83 121.78 85.05 112.6 85.76 115.73 89.77 81.17 116.77 84.42 120.94 124.68 89.48 133.86 88.78 130.72 84.76 139.39 77.99 136.14 73.83"/><path class="cls-5" d="M170.12,85.66l-26.28,20.53c-1.45,1.13-3.4,1.34-5.06,.55-2.94-1.41-7.56-3.22-9.46-1.74-3.01,2.35-2.66,7.72-2.11,11,.29,1.74-.4,3.49-1.79,4.58l-46.5,36.33c-1.1,.86-2.69,.67-3.56-.44l-9.04-11.57c-.86-1.1-.67-2.69,.44-3.56l91.2-71.25c1.1-.86,2.69-.67,3.56,.44l9.04,11.57c.86,1.1,.67,2.69-.44,3.56Z"/><polygon class="cls-5" points="139.35 77.94 127.02 87.57 117.85 88.28 120.98 92.29 86.41 119.29 89.66 123.46 129.93 92 139.11 91.3 135.97 87.28 142.6 82.1 139.35 77.94"/><polygon class="cls-5" points="133.46 66 85.51 61.14 86.46 38.45 128.52 41.62 133.46 66"/><g><line class="cls-5" x1="85.81" y1="58.98" x2="131.57" y2="63.35"/><g><line class="cls-5" x1="85.81" y1="58.98" x2="87.01" y2="59.09"/><line class="cls-5" x1="87.83" y1="59.17" x2="129.96" y2="63.2"/><line class="cls-5" x1="130.37" y1="63.23" x2="131.57" y2="63.35"/></g></g><g><line class="cls-5" x1="86.45" y1="40.48" x2="126.67" y2="43.69"/><g><line class="cls-5" x1="86.45" y1="40.48" x2="87.65" y2="40.57"/><line class="cls-5" x1="88.42" y1="40.63" x2="125.08" y2="43.56"/><line class="cls-5" x1="125.47" y1="43.59" x2="126.67" y2="43.69"/></g></g><path class="cls-5" d="M124.3,24.56c.24,.29-.11,1.51-.11,1.51,0,0-9.11-10.15-15.08-19.3,1.5-.81,2.2-.33,2.77,.57,3.86,6.15,9.94,14.26,12.42,17.21Z"/><path class="cls-5" d="M53.03,110.2c-6.38,9.06,5.31,26.44,10.44,31.25,.83,.78,2.1,.83,3,.13,5.25-4.08,28.22-11.1,23.2-18.12-5.63-7.87-17.9-21.26-27.38-26.61-2.81,3.84-5.77,8.39-9.26,13.35Z"/><path class="cls-5" d="M123.71,23.85c-1.73,11.34,8.26,49.26,16.56,60.77,4.97,6.89,12.83-10.3,18.14-14.78,.86-.72,1.02-1.97,.38-2.89-12.78-18.4-22.42-27.98-35.08-43.1Z"/><path class="cls-5" d="M160.3,70.87c10.6,13.24,10.78,12.6,9.03,13.88l-26.42,20.9c-1.45,1.13-4.31-.06-5.96-.85-2.94-1.41-6.4-2.1-8.3-.62-3.01,2.35-3.08,8.12-2.52,11.4,.29,1.74-.52,3.58-1.91,4.67l-45.96,35.91c-1.26,.98-1.6,.59-11.37-12.32"/><path class="cls-5" d="M60.05,100.1c4.38,2.09,23.41,20.69,26.84,25.52"/><path class="cls-5" d="M126.51,27.18c-.02,3.45,4.57,38.85,16.09,54.92"/><path class="cls-5" d="M67.67,95.71s-3.17-1.08-3.39-2.31c-.27-1.47,1.76-4.76,3.23-5.02,1.23-.22,3.39,2.31,3.39,2.31l-3.23,5.02Z"/><path class="cls-5" d="M74.13,85.36s-3.31-.97-3.53-2.19c-.27-1.47,1.76-4.76,3.23-5.02,1.23-.22,3.53,2.19,3.53,2.19l-3.23,5.02Z"/><path class="cls-5" d="M81.31,74.41s-4.05-1.16-4.45-2.34c-.48-1.41,1.05-4.96,2.46-5.44,1.18-.4,4.35,1.89,4.35,1.89l-2.37,5.9Z"/><path class="cls-5" d="M85.49,59.53s-3.44,.6-4.23-.37c-.94-1.16-.73-5.02,.43-5.96,.97-.78,4.23,.37,4.23,.37l-.43,5.96Z"/><path class="cls-5" d="M86.61,44.42s-3.81,.88-4.68,0c-1.05-1.07-1.21-4.92-.15-5.97,.89-.87,4.68,0,4.68,0l.15,5.97Z"/><path class="cls-5" d="M57.3,49.61c-.12,.36,.19,.84,.4,1.11,.24,.3,.67,.64,1.06,.39,.16-.1,.21-.44,.29-.62,.1-.21,.22-.42,.35-.61,.35-.55,.76-1.07,1.17-1.57,.55-.67,1.13-1.32,1.73-1.95,.71-.76,1.45-1.5,2.19-2.23,.84-.82,1.69-1.62,2.56-2.42,.93-.85,1.87-1.68,2.83-2.5,.99-.85,1.99-1.68,3-2.49,1.01-.81,2.04-1.61,3.08-2.39,1-.75,2.02-1.48,3.06-2.18,.96-.65,1.94-1.29,2.95-1.88,.89-.53,1.8-1.03,2.73-1.48,.37-.18,.74-.34,1.11-.5,.64-.27-.83-2.75-1.43-2.39-13.97,8.29-25.46,18.8-27.08,23.72Z"/><path class="cls-5" d="M67.53,57.25c.16,.59,2.02,.42,1.98-.18-.5-7.17-8.11-39.69,16.38-28.23,.63,.3-.99-1.97-1.62-2.26-23.81-11.07-19.03,22.41-16.73,30.68Z"/><path class="cls-5" d="M85.09,25.32c2.69,20.63,.55,40.65-2.76,46.53-3.12,5.54-23.95,37.13-25.57,45.64-1.62,8.5,7.78,20.1,9.71,24.09"/><path class="cls-5" d="M158.41,69.85c-.54,.61-9.79,7.76-22.11,17.36l3.24,4.14-9.53,.88c-26.64,20.72-62.45,48.37-62.92,48.71"/><path class="cls-5" d="M109.53,18.39c2.7,3.46,2.09,8.44-1.37,11.14-3.46,2.7-8.44,2.09-11.14-1.37-1.89-2.42,1.09-4.38,4.54-7.08,3.46-2.7,5.8-5.48,7.97-2.7Z"/><path class="cls-5" d="M103.9,14.58l-8.96,7c-.37,.29-.43,.81-.14,1.18l2.66,3.4c.29,.37,.81,.43,1.18,.14l8.96-7c.37-.29,.43-.81,.14-1.18l-2.66-3.4c-.29-.37-.81-.43-1.18-.14Z"/><path class="cls-5" d="M83.74,27.51c7.76-5.3,21.04-15.81,26.59-20.88,1.52-1.39-3.34-7.61-5.08-6.5-6.53,4.21-20.78,15.19-26.59,20.88-1.47,1.44,3.37,7.66,5.08,6.5Z"/><path class="cls-5" d="M69.43,59.59c-.02,.28-.98,.4-1.11,.16-.38-.71-.54-3.8-.54-3.8l1.11-.16s.6,2.93,.54,3.8Z"/><path class="cls-5" d="M57.17,53.32c-.18,.22-1.04-.22-1-.5,.1-.8,1.72-3.43,1.72-3.43l1,.5s-1.17,2.75-1.72,3.43Z"/></g></g></g><g><g><path class="cls-13" d="M98.61,30.8c-.46-.69,2.4-.84,2.69-.07,2.09,5.51,5.68,6.48,2.11,8.73-1.65,1.04-2.55-5.24-4.8-8.66Z"/><path class="cls-3" d="M67.31,37.99c-.25,.15-.45,.36-.58,.62-16.96,32.78-7.89,31.21-60.59,62.9-9.5,5.71-5.83,26.34-3.09,32.8,.44,1.05,1.58,1.61,2.69,1.34,28.7-7.19,81.89-19.32,113.09-28.44,1.08-.31,1.73-1.39,1.52-2.49-5.6-28.97-13.61-41.93-18.86-73.87-.12-.74-.76-1.29-1.51-1.28-12.17,.24-24.53,3.68-32.66,8.42Z"/><polygon class="cls-1" points="96.86 101.85 79.18 106.31 70.5 103.24 71.75 108.18 29.21 118.9 30.5 124.03 80.05 111.53 88.73 114.6 87.48 109.66 98.15 106.97 96.86 101.85"/><path class="cls-17" d="M123.15,126.42l-32.34,8.15c-1.78,.45-3.65-.15-4.85-1.55-2.12-2.48-5.61-6-7.95-5.41-3.71,.93-5.56,5.98-6.38,9.21-.43,1.71-1.78,3.03-3.49,3.46l-57.22,14.43c-1.36,.34-2.73-.48-3.08-1.84l-3.59-14.24c-.34-1.36,.48-2.73,1.84-3.08l112.22-28.29c1.36-.34,2.73,.48,3.08,1.84l3.59,14.24c.34,1.36-.48,2.73-1.84,3.08Z"/><polygon class="cls-2" points="98.13 106.91 82.96 110.73 74.28 107.67 75.53 112.6 32.99 123.33 34.28 128.45 83.83 115.96 92.51 119.03 91.26 114.08 99.42 112.03 98.13 106.91"/><polygon class="cls-1" points="97.57 93.61 55.68 69.78 65.72 49.4 102.91 69.31 97.57 93.61"/><g><line class="cls-8" x1="56.83" y1="67.92" x2="57.88" y2="68.51"/><line class="cls-7" x1="58.6" y1="68.91" x2="95.5" y2="89.63"/><line class="cls-8" x1="95.86" y1="89.83" x2="96.91" y2="90.42"/></g><g><line class="cls-8" x1="64.89" y1="51.26" x2="65.95" y2="51.83"/><line class="cls-10" x1="66.63" y1="52.2" x2="98.98" y2="69.7"/><line class="cls-8" x1="99.32" y1="69.88" x2="100.38" y2="70.46"/></g><path class="cls-1" d="M105.94,52c.11,.36-.71,1.33-.71,1.33,0,0-4.23-12.96-5.99-23.74,1.71-.14,2.15,.59,2.3,1.64,1.05,7.19,3.32,17.06,4.4,20.77Z"/><path class="cls-17" d="M6.14,101.51c-9.5,5.71-5.83,26.33-3.09,32.8,.44,1.05,1.59,1.61,2.69,1.34,6.45-1.61,30.3,1.26,28.54-7.2-1.97-9.47-7.78-26.68-14.28-35.41-4.13,2.37-8.67,5.34-13.87,8.47Z"/><path class="cls-17" d="M105.69,51.12c-6.17,9.67-12.36,48.39-9.42,62.28,1.76,8.31,15.89-4.23,22.56-6.18,1.08-.31,1.73-1.39,1.52-2.49-4.25-21.99-9.2-34.66-14.66-53.6Z"/><path class="cls-4" d="M120.15,108.91c4.34,16.4,4.77,15.89,2.65,16.35l-32.62,8.43c-1.78,.45-3.92-1.79-5.11-3.19-2.12-2.48-5-4.51-7.34-3.92-3.71,.93-6.1,6.18-6.92,9.41-.43,1.71-1.92,3.07-3.63,3.5l-56.55,14.26c-1.54,.39-1.7-.11-5.42-15.86"/><path class="cls-6" d="M16.64,95.12c3.17,3.68,13.05,28.39,14.23,34.19"/><path class="cls-6" d="M106.91,55.29c-1.41,3.15-11.53,37.38-7.49,56.73"/><path class="cls-16" d="M25.38,94.18s-2.46-2.27-2.17-3.48c.35-1.45,3.53-3.64,4.98-3.29,1.21,.29,2.17,3.48,2.17,3.48l-4.98,3.29Z"/><path class="cls-16" d="M35.48,87.33s-2.63-2.22-2.34-3.43c.35-1.45,3.53-3.64,4.98-3.29,1.21,.29,2.34,3.43,2.34,3.43l-4.98,3.29Z"/><path class="cls-16" d="M46.48,80.22s-3.23-2.7-3.12-3.94c.13-1.49,2.96-4.11,4.45-3.98,1.24,.11,3.22,3.49,3.22,3.49l-4.55,4.44Z"/><path class="cls-16" d="M56.31,68.29s-3.39-.85-3.72-2.05c-.39-1.44,1.36-4.89,2.8-5.27,1.2-.32,3.72,2.05,3.72,2.05l-2.8,5.27Z"/><path class="cls-16" d="M63.44,54.92s-3.84-.73-4.28-1.9c-.53-1.4,.88-4.99,2.28-5.52,1.17-.44,4.28,1.9,4.28,1.9l-2.28,5.52Z"/><path class="cls-18" d="M34.54,47.83c-.26,.28-.17,.85-.08,1.18,.1,.37,.35,.86,.81,.79,.19-.03,.37-.32,.52-.45,.18-.15,.37-.29,.56-.42,.54-.36,1.12-.67,1.71-.96,.78-.39,1.57-.75,2.37-1.09,.96-.41,1.93-.79,2.91-1.16,1.1-.41,2.2-.8,3.32-1.18,1.19-.4,2.39-.78,3.6-1.15s2.5-.73,3.75-1.07c1.25-.33,2.51-.65,3.78-.94s2.45-.53,3.68-.76c1.15-.21,2.3-.39,3.45-.53,1.03-.12,2.06-.22,3.1-.25,.41-.01,.81-.02,1.22,0,.7,.01,.35-2.85-.34-2.76-16.13,1.93-30.88,6.9-34.36,10.75Z"/><path class="cls-18" d="M40.8,58.95c-.09,.6,1.68,1.2,1.88,.63,2.44-6.75,8.63-39.57,26.4-19.2,.46,.52-.11-2.2-.57-2.73-17.3-19.75-26.46,12.8-27.71,21.29Z"/><path class="cls-6" d="M69.77,36.84c-5.88,19.96-15.93,37.41-21.34,41.45-5.09,3.81-36.91,24.28-41.84,31.4-4.92,7.12-1.01,21.53-.86,25.96"/><path class="cls-12" d="M118.83,107.21c-.73,.34-12.1,3.14-27.24,6.94l1.29,5.1-9.07-3.05c-32.74,8.18-76.67,18.99-77.24,19.11"/><path class="cls-11" d="M94.93,40.39c1.07,4.25-1.51,8.57-5.76,9.64-4.25,1.07-8.57-1.51-9.64-5.76-.75-2.97,2.77-3.57,7.02-4.64,4.25-1.07,7.52-2.66,8.38,.76Z"/><rect class="cls-14" x="80.02" y="35.92" width="13.05" height="6" rx=".84" ry=".84" transform="translate(-6.89 22.34) rotate(-14.15)"/><path class="cls-2" d="M67.66,38.3c9.24-1.72,25.63-5.95,32.76-8.34,1.95-.66,.02-8.32-2.02-7.99-7.67,1.21-25.15,5.49-32.76,8.34-1.93,.72-.01,8.37,2.02,7.99Z"/><path class="cls-18" d="M41.6,61.86c-.13,.25-1.06-.03-1.08-.31-.06-.8,1.04-3.69,1.04-3.69l1.08,.31s-.63,2.92-1.04,3.69Z"/><path class="cls-18" d="M32.92,51.16c-.25,.13-.86-.62-.71-.87,.41-.69,2.96-2.44,2.96-2.44l.71,.87s-2.18,2.04-2.96,2.44Z"/></g><g><path class="cls-13" d="M109.02,8.13c-.7-.45,1.85-1.74,2.44-1.15,4.14,4.2,7.81,3.63,5.46,7.13-1.09,1.62-4.45-3.76-7.89-5.98Z"/><path class="cls-3" d="M83.3,27.37c-.17,.23-.27,.52-.28,.8-2.26,36.84,5.4,31.74-29.99,82.03-6.38,9.06,5.32,26.45,10.44,31.25,.83,.78,2.1,.83,3,.13,23.34-18.18,67.09-50.77,91.94-71.73,.86-.72,1.02-1.97,.38-2.9-16.83-24.24-29.4-32.85-47.12-59.94-.41-.63-1.22-.87-1.9-.56-11.04,5.14-20.94,13.28-26.47,20.91Z"/><polygon class="cls-1" points="136.14 73.83 121.78 85.05 112.6 85.76 115.73 89.77 81.17 116.77 84.42 120.94 124.68 89.48 133.86 88.78 130.72 84.76 139.39 77.99 136.14 73.83"/><path class="cls-17" d="M170.12,85.66l-26.28,20.53c-1.45,1.13-3.4,1.34-5.06,.55-2.94-1.41-7.56-3.22-9.46-1.74-3.01,2.35-2.66,7.72-2.11,11,.29,1.74-.4,3.49-1.79,4.58l-46.5,36.33c-1.1,.86-2.69,.67-3.56-.44l-9.04-11.57c-.86-1.1-.67-2.69,.44-3.56l91.2-71.25c1.1-.86,2.69-.67,3.56,.44l9.04,11.57c.86,1.1,.67,2.69-.44,3.56Z"/><polygon class="cls-2" points="139.35 77.94 127.02 87.57 117.85 88.28 120.98 92.29 86.41 119.29 89.66 123.46 129.93 92 139.11 91.3 135.97 87.28 142.6 82.1 139.35 77.94"/><polygon class="cls-1" points="133.46 66 85.51 61.14 86.46 38.45 128.52 41.62 133.46 66"/><g><line class="cls-8" x1="85.81" y1="58.98" x2="87.01" y2="59.09"/><line class="cls-7" x1="87.83" y1="59.17" x2="129.96" y2="63.2"/><line class="cls-8" x1="130.37" y1="63.23" x2="131.57" y2="63.35"/></g><g><line class="cls-8" x1="86.45" y1="40.48" x2="87.65" y2="40.57"/><line class="cls-10" x1="88.42" y1="40.63" x2="125.08" y2="43.56"/><line class="cls-8" x1="125.47" y1="43.59" x2="126.67" y2="43.69"/></g><path class="cls-1" d="M124.3,24.56c.24,.29-.11,1.51-.11,1.51,0,0-9.11-10.15-15.08-19.3,1.5-.81,2.2-.33,2.77,.57,3.86,6.15,9.94,14.26,12.42,17.21Z"/><path class="cls-17" d="M53.03,110.2c-6.38,9.06,5.31,26.44,10.44,31.25,.83,.78,2.1,.83,3,.13,5.25-4.08,28.22-11.1,23.2-18.12-5.63-7.87-17.9-21.26-27.38-26.61-2.81,3.84-5.77,8.39-9.26,13.35Z"/><path class="cls-17" d="M123.71,23.85c-1.73,11.34,8.26,49.26,16.56,60.77,4.97,6.89,12.83-10.3,18.14-14.78,.86-.72,1.02-1.97,.38-2.89-12.78-18.4-22.42-27.98-35.08-43.1Z"/><path class="cls-4" d="M160.3,70.87c10.6,13.24,10.78,12.6,9.03,13.88l-26.42,20.9c-1.45,1.13-4.31-.06-5.96-.85-2.94-1.41-6.4-2.1-8.3-.62-3.01,2.35-3.08,8.12-2.52,11.4,.29,1.74-.52,3.58-1.91,4.67l-45.96,35.91c-1.26,.98-1.6,.59-11.37-12.32"/><path class="cls-6" d="M60.05,100.1c4.38,2.09,23.41,20.69,26.84,25.52"/><path class="cls-6" d="M126.51,27.18c-.02,3.45,4.57,38.85,16.09,54.92"/><path class="cls-16" d="M67.67,95.71s-3.17-1.08-3.39-2.31c-.27-1.47,1.76-4.76,3.23-5.02,1.23-.22,3.39,2.31,3.39,2.31l-3.23,5.02Z"/><path class="cls-16" d="M74.13,85.36s-3.31-.97-3.53-2.19c-.27-1.47,1.76-4.76,3.23-5.02,1.23-.22,3.53,2.19,3.53,2.19l-3.23,5.02Z"/><path class="cls-16" d="M81.31,74.41s-4.05-1.16-4.45-2.34c-.48-1.41,1.05-4.96,2.46-5.44,1.18-.4,4.35,1.89,4.35,1.89l-2.37,5.9Z"/><path class="cls-16" d="M85.49,59.53s-3.44,.6-4.23-.37c-.94-1.16-.73-5.02,.43-5.96,.97-.78,4.23,.37,4.23,.37l-.43,5.96Z"/><path class="cls-16" d="M86.61,44.42s-3.81,.88-4.68,0c-1.05-1.07-1.21-4.92-.15-5.97,.89-.87,4.68,0,4.68,0l.15,5.97Z"/><path class="cls-18" d="M57.3,49.61c-.12,.36,.19,.84,.4,1.11,.24,.3,.67,.64,1.06,.39,.16-.1,.21-.44,.29-.62,.1-.21,.22-.42,.35-.61,.35-.55,.76-1.07,1.17-1.57,.55-.67,1.13-1.32,1.73-1.95,.71-.76,1.45-1.5,2.19-2.23,.84-.82,1.69-1.62,2.56-2.42,.93-.85,1.87-1.68,2.83-2.5,.99-.85,1.99-1.68,3-2.49,1.01-.81,2.04-1.61,3.08-2.39,1-.75,2.02-1.48,3.06-2.18,.96-.65,1.94-1.29,2.95-1.88,.89-.53,1.8-1.03,2.73-1.48,.37-.18,.74-.34,1.11-.5,.64-.27-.83-2.75-1.43-2.39-13.97,8.29-25.46,18.8-27.08,23.72Z"/><path class="cls-18" d="M67.53,57.25c.16,.59,2.02,.42,1.98-.18-.5-7.17-8.11-39.69,16.38-28.23,.63,.3-.99-1.97-1.62-2.26-23.81-11.07-19.03,22.41-16.73,30.68Z"/><path class="cls-6" d="M85.09,25.32c2.69,20.63,.55,40.65-2.76,46.53-3.12,5.54-23.95,37.13-25.57,45.64-1.62,8.5,7.78,20.1,9.71,24.09"/><path class="cls-12" d="M158.41,69.85c-.54,.61-9.79,7.76-22.11,17.36l3.24,4.14-9.53,.88c-26.64,20.72-62.45,48.37-62.92,48.71"/><path class="cls-11" d="M109.53,18.39c2.7,3.46,2.09,8.44-1.37,11.14-3.46,2.7-8.44,2.09-11.14-1.37-1.89-2.42,1.09-4.38,4.54-7.08,3.46-2.7,5.8-5.48,7.97-2.7Z"/><rect class="cls-14" x="94.74" y="17.44" width="13.05" height="6" rx=".84" ry=".84" transform="translate(8.88 66.67) rotate(-38)"/><path class="cls-2" d="M83.74,27.51c7.76-5.3,21.04-15.81,26.59-20.88,1.52-1.39-3.34-7.61-5.08-6.5-6.53,4.21-20.78,15.19-26.59,20.88-1.47,1.44,3.37,7.66,5.08,6.5Z"/><path class="cls-18" d="M69.43,59.59c-.02,.28-.98,.4-1.11,.16-.38-.71-.54-3.8-.54-3.8l1.11-.16s.6,2.93,.54,3.8Z"/><path class="cls-18" d="M57.17,53.32c-.18,.22-1.04-.22-1-.5,.1-.8,1.72-3.43,1.72-3.43l1,.5s-1.17,2.75-1.72,3.43Z"/></g></g></g></g></svg>