<svg xmlns="http://www.w3.org/2000/svg" viewBox="0 0 143.98 1571.18"><defs><style>.cls-1{fill:#f3fafe;}.cls-2{fill:#edbdd4;stroke:#f3fafe;}.cls-3{fill:#666464;}.cls-4{fill:none;stroke:#666464;stroke-miterlimit:10;stroke-width:3px;}</style></defs><g id="レイヤー_2" data-name="レイヤー 2"><g id="レイヤー_2-2" data-name="レイヤー 2"><rect class="cls-1" x="7.95" y="5.2" width="136.03" height="756.29" rx="18.88"/><path class="cls-1" d="M7.73,687.56h136a0,0,0,0,1,0,0V1552.3a18.88,18.88,0,0,1-18.88,18.88H26.6A18.88,18.88,0,0,1,7.73,1552.3V687.56A0,0,0,0,1,7.73,687.56Z"/><polygon class="cls-2" points="1.31 0.5 118.62 0.5 118.62 24.23 118.62 31.26 110.24 24.23 101.86 31.26 93.48 24.23 85.1 32.35 76.72 24.23 68.34 32.35 59.96 24.23 51.59 32.35 43.2 24.23 34.83 32.35 26.45 24.23 18.07 32.35 9.69 24.23 1.31 32.35 1.31 0.5"/><polygon class="cls-2" points="0.5 1183.29 117.81 1183.29 117.81 1207.02 117.81 1214.05 109.44 1207.02 101.06 1214.05 92.68 1207.02 84.3 1215.14 75.92 1207.02 67.54 1215.14 59.16 1207.02 50.78 1215.14 42.4 1207.02 34.02 1215.14 25.64 1207.02 17.26 1215.14 8.88 1207.02 0.5 1215.14 0.5 1183.29"/><polygon class="cls-2" points="0.5 1418.16 117.81 1418.16 117.81 1441.89 117.81 1448.92 109.44 1441.89 101.06 1448.92 92.68 1441.89 84.3 1450.01 75.92 1441.89 67.54 1450.01 59.16 1441.89 50.78 1450.01 42.4 1441.89 34.02 1450.01 25.64 1441.89 17.26 1450.01 8.88 1441.89 0.5 1450.01 0.5 1418.16"/><polygon class="cls-2" points="1.31 139.64 118.62 139.64 118.62 163.37 118.62 170.4 110.24 163.37 101.86 170.4 93.48 163.37 85.1 171.49 76.72 163.37 68.34 171.49 59.96 163.37 51.59 171.49 43.2 163.37 34.83 171.49 26.45 163.37 18.07 171.49 9.69 163.37 1.31 171.49 1.31 139.64"/><path class="cls-3" d="M32.22,159.62h-1v-3.57c-.48,2.68-2.19,3.57-4.52,3.57-2.7,0-5-1.53-5-4.85v-2.85c0-3.85,2.95-5.7,6.35-5.7h2.65c4,0,6.5,2.39,6.5,5.66v2.46C37.25,157.71,35.36,159.62,32.22,159.62Zm-4.73-8.81a1.35,1.35,0,0,0-1.31,1.41v2.12c0,.55.29.67.61.67a.64.64,0,0,0,.7-.67Zm5.13,1.46a1.31,1.31,0,0,0-1.25-1.46v4.08h.22c.64,0,1-.22,1-1Z"/><path class="cls-3" d="M53.79,150.12v.6c0,1.53-.86,2.66-4.16,2.66H45.74c-1,0-1.69.16-1.69,1s.68.93,1.69.93h8.49v4.25H45c-4.18,0-6.24-1.74-6.24-5.18A4.75,4.75,0,0,1,41.37,150v-3.58h4.91v2.79H50.1v-.8h4.51v1.71Zm-3.69-2.2v-1.71h4.51v1.71Z"/><path class="cls-3" d="M56,159.62V146.69h4.86l.42-.84h5.09l-.41.84h5v12.93Zm10.18-9.54H60.83v.48h5.36Zm0,2.83H60.83v.51h5.36Zm0,2.88H60.83v.47h5.36Z"/><path class="cls-3" d="M83.21,159.29a22.3,22.3,0,0,1-5.25.57v-2.75h.83a5.6,5.6,0,0,1-.54-.57H82.6a1.5,1.5,0,0,0,.47.2,8.24,8.24,0,0,0,1.53-.45H78.33v-1.94h-.41l-.29-1.75v7.2H73.69v-4.49H72.42c.1-1.84.13-4.24.13-7.2h1.14v-2.28h3.94v2.28h.48l.22,1.22v-3.45h9.79v4.83H78.58l.07.3h9.81v3H79.2l0,.3h9.21v2.1a4.05,4.05,0,0,1-.56.6h.56v2.82A22,22,0,0,1,83.21,159.29Zm-1.7-7H81v.48h.49Zm2.09-5h-.78v.36h.78Zm0,1.74h-.78v.35h.78Zm.08,3.3h-.52v.48h.52Zm2.13,0h-.49v.48h.49Z"/><path class="cls-3" d="M48.25,1195v1.5H39v1.71c0,1.33.53,1.69,3.86,1.69h5.87v4.2H41.59c-5.44,0-7.34-1.92-7.34-5.49v-7.56H39v1.22h6.09v-1.25h4.13v1.71H46v.59h3.28V1195Z"/><path class="cls-3" d="M65.31,1197.05c-.77,5-4,7.06-10.12,7.06H50.5v-4.23h4.1c4.45,0,5.3-1.17,5.74-3.15.82-3.58,1.81-5,5.71-5.37v4.82A.89.89,0,0,0,65.31,1197.05Zm-14.76-1.32v-4.19h7v4.19Z"/><path class="cls-3" d="M82.39,1194.9a12.29,12.29,0,0,1,.07,1.53v7.71H67.93v-4.36h9.5v-3.35c0-.55-.12-.72-.87-.72H67.93v-4.38h8.63a19.86,19.86,0,0,1,2.55.14v-.54h4.15v1.71H80.08v.57h3.18v1.69Z"/><path class="cls-3" d="M34.66,1432.77v6.9h-4v-13.74h7.5v6.84Zm.38-4.43h-.68v.59H35Zm0,2.24h-.68v.55H35Zm6.2,5.74v3.29H37.83v-.9a5.46,5.46,0,0,1-2.89,1v-2.89c1.17,0,1.83-.18,2.17-.53H34.92v-2.76h2.91v-.49h3.41v.49h.43v2.76Zm.72,3.35v-6.9H38.44v-6.84H46v13.74Zm.28-11.33h-.69v.59h.69Zm0,2.24h-.69v.55h.69Z"/><path class="cls-3" d="M61.75,1431.21v.91H48.86v-.84c-.51.11-1,.21-1.53.29v-4.31c2.59-.18,4-1.12,4.35-1.56h7.06c.34.44,1.87,1.38,4.45,1.56v4.23A13.1,13.1,0,0,1,61.75,1431.21Zm-3,8.44-.14-.45a17,17,0,0,1-4.81.45H47.52v-3.3h.8l.24-.66h-1v-3.22H63v3.22h-.81l1.2,4Zm-1.12-4H53.42l-.24.66h1.53a23.82,23.82,0,0,0,3-.19Zm-2.3-7.3a9.52,9.52,0,0,1-1.51,1H56.9A11.56,11.56,0,0,1,55.3,1428.39Z"/><path class="cls-3" d="M74.16,1435.51V1439c-1.22.54-4.66.66-9.57.66v-4h1.78v-1H64.59v-3.78h7.94a4.75,4.75,0,0,1,0-.51H64.33v-4h7.31v-.63h4.64v.63H77l-.1-.63h2.79l.1.63h.39v4H77c.17,2.64,1.43,3.9,3.16,4.53v4.89A10.74,10.74,0,0,1,74.16,1435.51ZM73,1433v1.68h-2v.85a9.91,9.91,0,0,0,3-.45A10.52,10.52,0,0,1,73,1433Z"/></g><g id="レイヤー_3" data-name="レイヤー 3"><text/><path class="cls-3" d="M37.31,13.81v6.92h-4V6.94h7.5v6.87Zm.44-4.74H37v.62h.78Zm0,2.12H37v.63h.78Zm6.19,8.34v1H41.06v-1h-.35a3.15,3.15,0,0,1-.33,1h-3a2.72,2.72,0,0,0,.53-1h-.35V17h.53v-.46h-.53V14.11h6.74v2.45h-.5V17h.5v2.51Zm-2.69-3h-.68v.55h.68Zm3.37,4.17V13.81H41.11V6.94h7.5V20.73ZM45,9.07h-.79v.62H45Zm0,2.12h-.79v.63H45Z"/><path class="cls-3" d="M64.75,12.22v.92H51.86V12.3c-.51.1-1,.21-1.53.28V8.28c2.59-.18,4-1.13,4.35-1.56h7.06c.34.43,1.87,1.38,4.45,1.56v4.23C65.7,12.43,65.21,12.34,64.75,12.22Zm-3,8.45-.14-.45a17,17,0,0,1-4.81.45H50.52v-3.3h.8l.24-.66h-1V13.48H66v3.23h-.81l1.2,4Zm-1.12-4H56.42l-.24.66h1.53a23.76,23.76,0,0,0,3-.2ZM58.3,9.4a9.55,9.55,0,0,1-1.51,1H59.9A11.6,11.6,0,0,1,58.3,9.4Z"/><path class="cls-3" d="M77.16,16.53V20c-1.22.54-4.66.66-9.57.66v-4c.65,0,1.24,0,1.78,0v-1H67.59V11.89h7.94a4.56,4.56,0,0,1,0-.51H67.33v-4h7.31V6.78h4.64v.63H80l-.1-.63h2.79l.1.63h.39v4H80c.17,2.64,1.43,3.9,3.16,4.53V20.8A10.72,10.72,0,0,1,77.16,16.53ZM76,14v1.68h-2v.86a10.62,10.62,0,0,0,3-.45A10.35,10.35,0,0,1,76,14Z"/><line class="cls-4" x1="72.26" y1="40.12" x2="72.26" y2="118.37"/><polyline class="cls-4" points="65.18 108 72.48 121.04 79.33 108"/><line class="cls-4" x1="72.26" y1="183.81" x2="72.26" y2="1159.82"/><polyline class="cls-4" points="63.78 1147.04 72.11 1162.84 80.73 1147.04"/><line class="cls-4" x1="72.26" y1="1226.37" x2="72.26" y2="1393.63"/><polyline class="cls-4" points="63.78 1379.22 72.11 1395.03 80.73 1379.22"/><line class="cls-4" x1="72.26" y1="1459.72" x2="72.26" y2="1549.62"/><polyline class="cls-4" points="63.78 1535.65 72.11 1551.46 80.73 1535.65"/></g></g></svg>