<svg xmlns="http://www.w3.org/2000/svg" xmlns:xlink="http://www.w3.org/1999/xlink" viewBox="0 0 141.62 130.96"><defs><style>.cls-1,.cls-10,.cls-11,.cls-12,.cls-13,.cls-16,.cls-17,.cls-3,.cls-9{fill:none;}.cls-2{fill:#deeee9;}.cls-3{stroke-width:8px;stroke:url(#新規パターンスウォッチ_3);}.cls-4{fill:#97af56;}.cls-5{fill:#5da6bc;}.cls-6{fill:#78bccf;}.cls-7{fill:#f3fafe;}.cls-8{fill:#f3c0d8;}.cls-10,.cls-11,.cls-9{stroke:#5da6bc;}.cls-10,.cls-11,.cls-12,.cls-13,.cls-17,.cls-9{stroke-miterlimit:10;}.cls-10,.cls-11,.cls-13,.cls-16,.cls-9{stroke-width:0.8px;}.cls-10{stroke-dasharray:2.45 0.82;}.cls-11{stroke-dasharray:2.36 0.79;}.cls-12,.cls-13,.cls-16{stroke:#e9eff3;stroke-linecap:round;}.cls-12{stroke-width:2.41px;}.cls-14{fill:#eec55a;}.cls-15{fill:#f8d25f;}.cls-16{stroke-linejoin:round;}.cls-17{stroke:#f3c0d8;stroke-width:1.61px;}.cls-18{fill:#edaecb;}</style><pattern id="新規パターンスウォッチ_3" data-name="新規パターンスウォッチ 3" width="30.78" height="26.28" patternTransform="translate(-17.57 -37.45)" patternUnits="userSpaceOnUse" viewBox="0 0 30.78 26.28"><rect class="cls-1" width="30.78" height="26.28"/><rect class="cls-2" width="30.78" height="26.28"/></pattern></defs><g id="レイヤー_2" data-name="レイヤー 2"><g id="スタンプラリー"><path class="cls-3" d="M81,28.05c-.35-.54,1.88-.66,2.11-.05,1.63,4.3,4.43,5.06,1.64,6.82C83.47,35.63,82.77,30.73,81,28.05Z"/><path class="cls-3" d="M56.57,33.67a1.18,1.18,0,0,0-.46.48C42.86,59.75,50,58.53,8.79,83.28c-7.42,4.46-4.55,20.56-2.41,25.62a1.82,1.82,0,0,0,2.1,1c22.41-5.61,64-15.09,88.32-22.21a1.7,1.7,0,0,0,1.19-2C93.62,63.16,87.36,53,83.25,28.09a1.17,1.17,0,0,0-1.17-1C72.57,27.28,62.92,30,56.57,33.67Z"/><polygon class="cls-3" points="79.64 83.54 65.84 87.02 59.06 84.63 60.03 88.49 26.81 96.86 27.82 100.86 66.52 91.11 73.3 93.5 72.32 89.64 80.65 87.54 79.64 83.54"/><path class="cls-3" d="M100.18,102.73l-25.26,6.36a3.75,3.75,0,0,1-3.78-1.2c-1.66-1.94-4.39-4.69-6.21-4.23-2.9.73-4.34,4.67-5,7.19a3.77,3.77,0,0,1-2.72,2.71L12.54,124.82a2,2,0,0,1-2.4-1.43L7.33,112.27a2,2,0,0,1,1.44-2.41L96.41,87.77a2,2,0,0,1,2.4,1.43l2.8,11.12A2,2,0,0,1,100.18,102.73Z"/><polygon class="cls-3" points="80.64 87.49 68.79 90.48 62.01 88.09 62.98 91.94 29.77 100.32 30.77 104.32 69.47 94.56 76.25 96.96 75.27 93.1 81.65 91.49 80.64 87.49"/><polygon class="cls-3" points="80.2 77.1 47.48 58.49 55.33 42.58 84.37 58.13 80.2 77.1"/><line class="cls-3" x1="48.38" y1="57.04" x2="79.69" y2="74.61"/><line class="cls-3" x1="48.38" y1="57.04" x2="49.43" y2="57.63"/><line class="cls-3" x1="50.15" y1="58.03" x2="78.28" y2="73.82"/><line class="cls-3" x1="78.64" y1="74.02" x2="79.69" y2="74.61"/><line class="cls-3" x1="54.68" y1="44.03" x2="82.4" y2="59.02"/><line class="cls-3" x1="54.68" y1="44.03" x2="55.74" y2="44.6"/><line class="cls-3" x1="56.43" y1="44.98" x2="80.99" y2="58.26"/><line class="cls-3" x1="81.34" y1="58.45" x2="82.4" y2="59.02"/><path class="cls-3" d="M86.74,44.61c.08.28-.56,1-.56,1a149.45,149.45,0,0,1-4.67-18.54c1.33-.11,1.67.46,1.79,1.28A155.36,155.36,0,0,0,86.74,44.61Z"/><path class="cls-3" d="M8.79,83.28c-7.41,4.46-4.55,20.56-2.41,25.61a1.81,1.81,0,0,0,2.1,1c5-1.26,23.67,1,22.29-5.62-1.53-7.4-6.07-20.84-11.15-27.66C16.4,78.52,12.85,80.84,8.79,83.28Z"/><path class="cls-3" d="M86.54,43.92c-4.82,7.55-9.65,37.79-7.36,48.64,1.38,6.49,12.42-3.31,17.62-4.83a1.7,1.7,0,0,0,1.19-2C94.67,68.61,90.8,58.72,86.54,43.92Z"/><path class="cls-3" d="M97.84,89.06c3.39,12.8,3.72,12.4,2.07,12.76l-25.48,6.59c-1.38.35-3.05-1.4-4-2.49-1.66-1.94-3.91-3.52-5.74-3.06-2.89.73-4.76,4.83-5.4,7.34a3.94,3.94,0,0,1-2.83,2.74L12.31,124.07c-1.21.31-1.33-.08-4.23-12.38"/><path class="cls-3" d="M17,78.29c2.47,2.87,10.19,22.17,11.11,26.7"/><path class="cls-3" d="M87.5,47.18c-1.1,2.46-9,29.2-5.85,44.31"/><path class="cls-3" d="M23.82,77.55s-1.92-1.77-1.69-2.72C22.4,73.7,24.89,72,26,72.27,27,72.49,27.71,75,27.71,75Z"/><path class="cls-3" d="M31.71,72.2s-2.06-1.74-1.83-2.68c.27-1.14,2.76-2.84,3.89-2.57.95.23,1.83,2.68,1.83,2.68Z"/><path class="cls-3" d="M40.3,66.65s-2.53-2.11-2.44-3.08c.1-1.16,2.31-3.22,3.47-3.11,1,.09,2.52,2.72,2.52,2.72Z"/><path class="cls-3" d="M48,57.33s-2.65-.66-2.91-1.6c-.3-1.12,1.07-3.81,2.19-4.12.94-.25,2.9,1.6,2.9,1.6Z"/><path class="cls-3" d="M53.55,46.89s-3-.57-3.35-1.48c-.41-1.09.69-3.9,1.78-4.31.91-.34,3.35,1.48,3.35,1.48Z"/><path class="cls-3" d="M31,41.35c-.2.22-.13.66-.06.92s.28.67.64.62c.14,0,.29-.25.4-.35a4.59,4.59,0,0,1,.44-.33,11.82,11.82,0,0,1,1.34-.76c.6-.3,1.22-.58,1.85-.84s1.5-.62,2.27-.91,1.72-.62,2.59-.91,1.86-.62,2.81-.9,2-.57,2.93-.83,2-.51,3-.74S51,35.91,52,35.73s1.8-.3,2.7-.41,1.61-.17,2.42-.2h1c.55,0,.28-2.23-.26-2.16C45.21,34.47,33.69,38.35,31,41.35Z"/><path class="cls-3" d="M35.87,50c-.07.47,1.31.94,1.47.49,1.91-5.27,6.74-30.9,20.61-15,.36.41-.08-1.72-.44-2.13C44,18,36.84,43.41,35.87,50Z"/><path class="cls-3" d="M58.49,32.77C53.9,48.36,46.05,62,41.83,65.14c-4,3-28.83,19-32.68,24.52s-.78,16.82-.67,20.28"/><path class="cls-3" d="M96.8,87.73c-.57.27-9.44,2.45-21.27,5.42l1,4-7.09-2.38c-25.56,6.39-59.88,14.83-60.32,14.93"/><path class="cls-3" d="M78.14,35.55a6.2,6.2,0,0,1-12,3c-.59-2.33,2.16-2.79,5.48-3.63S77.47,32.87,78.14,35.55Z"/><path class="cls-3" d="M75.32,31l-8.61,2.17a.65.65,0,0,0-.48.79l.83,3.27a.65.65,0,0,0,.79.48l8.61-2.17a.66.66,0,0,0,.48-.8l-.83-3.27A.64.64,0,0,0,75.32,31Z"/><path class="cls-3" d="M56.84,33.91a251.91,251.91,0,0,0,25.58-6.52c1.53-.51,0-6.49-1.57-6.24-6,1-19.64,4.29-25.58,6.52C53.76,28.23,55.26,34.2,56.84,33.91Z"/><path class="cls-3" d="M36.49,52.31c-.1.19-.83,0-.84-.24a13.38,13.38,0,0,1,.81-2.88l.84.24A20,20,0,0,1,36.49,52.31Z"/><path class="cls-3" d="M29.71,44c-.2.1-.67-.49-.56-.68a13.84,13.84,0,0,1,2.31-1.91l.56.68A20.34,20.34,0,0,1,29.71,44Z"/><path class="cls-3" d="M81,28.05c-.35-.54,1.88-.66,2.11-.05,1.63,4.3,4.43,5.06,1.64,6.82C83.47,35.63,82.77,30.73,81,28.05Z"/><path class="cls-3" d="M56.57,33.67a1.18,1.18,0,0,0-.46.48C42.86,59.75,50,58.53,8.79,83.28c-7.42,4.46-4.55,20.56-2.41,25.62a1.82,1.82,0,0,0,2.1,1c22.41-5.61,64-15.09,88.32-22.21a1.7,1.7,0,0,0,1.19-2C93.62,63.16,87.36,53,83.25,28.09a1.17,1.17,0,0,0-1.17-1C72.57,27.28,62.92,30,56.57,33.67Z"/><polygon class="cls-3" points="79.64 83.54 65.84 87.02 59.06 84.63 60.03 88.49 26.81 96.86 27.82 100.86 66.52 91.11 73.3 93.5 72.32 89.64 80.65 87.54 79.64 83.54"/><path class="cls-3" d="M100.18,102.73l-25.26,6.36a3.75,3.75,0,0,1-3.78-1.2c-1.66-1.94-4.39-4.69-6.21-4.23-2.9.73-4.34,4.67-5,7.19a3.77,3.77,0,0,1-2.72,2.71L12.54,124.82a2,2,0,0,1-2.4-1.43L7.33,112.27a2,2,0,0,1,1.44-2.41L96.41,87.77a2,2,0,0,1,2.4,1.43l2.8,11.12A2,2,0,0,1,100.18,102.73Z"/><polygon class="cls-3" points="80.64 87.49 68.79 90.48 62.01 88.09 62.98 91.94 29.77 100.32 30.77 104.32 69.47 94.56 76.25 96.96 75.27 93.1 81.65 91.49 80.64 87.49"/><polygon class="cls-3" points="80.2 77.1 47.48 58.49 55.33 42.58 84.37 58.13 80.2 77.1"/><line class="cls-3" x1="48.38" y1="57.04" x2="79.69" y2="74.61"/><line class="cls-3" x1="48.38" y1="57.04" x2="49.43" y2="57.63"/><line class="cls-3" x1="50.15" y1="58.03" x2="78.28" y2="73.82"/><line class="cls-3" x1="78.64" y1="74.02" x2="79.69" y2="74.61"/><line class="cls-3" x1="54.68" y1="44.03" x2="82.4" y2="59.02"/><line class="cls-3" x1="54.68" y1="44.03" x2="55.74" y2="44.6"/><line class="cls-3" x1="56.43" y1="44.98" x2="80.99" y2="58.26"/><line class="cls-3" x1="81.34" y1="58.45" x2="82.4" y2="59.02"/><path class="cls-3" d="M86.74,44.61c.08.28-.56,1-.56,1a149.45,149.45,0,0,1-4.67-18.54c1.33-.11,1.67.46,1.79,1.28A155.36,155.36,0,0,0,86.74,44.61Z"/><path class="cls-3" d="M8.79,83.28c-7.41,4.46-4.55,20.56-2.41,25.61a1.81,1.81,0,0,0,2.1,1c5-1.26,23.67,1,22.29-5.62-1.53-7.4-6.07-20.84-11.15-27.66C16.4,78.52,12.85,80.84,8.79,83.28Z"/><path class="cls-3" d="M86.54,43.92c-4.82,7.55-9.65,37.79-7.36,48.64,1.38,6.49,12.42-3.31,17.62-4.83a1.7,1.7,0,0,0,1.19-2C94.67,68.61,90.8,58.72,86.54,43.92Z"/><path class="cls-3" d="M97.84,89.06c3.39,12.8,3.72,12.4,2.07,12.76l-25.48,6.59c-1.38.35-3.05-1.4-4-2.49-1.66-1.94-3.91-3.52-5.74-3.06-2.89.73-4.76,4.83-5.4,7.34a3.94,3.94,0,0,1-2.83,2.74L12.31,124.07c-1.21.31-1.33-.08-4.23-12.38"/><path class="cls-3" d="M17,78.29c2.47,2.87,10.19,22.17,11.11,26.7"/><path class="cls-3" d="M87.5,47.18c-1.1,2.46-9,29.2-5.85,44.31"/><path class="cls-3" d="M23.82,77.55s-1.92-1.77-1.69-2.72C22.4,73.7,24.89,72,26,72.27,27,72.49,27.71,75,27.71,75Z"/><path class="cls-3" d="M31.71,72.2s-2.06-1.74-1.83-2.68c.27-1.14,2.76-2.84,3.89-2.57.95.23,1.83,2.68,1.83,2.68Z"/><path class="cls-3" d="M40.3,66.65s-2.53-2.11-2.44-3.08c.1-1.16,2.31-3.22,3.47-3.11,1,.09,2.52,2.72,2.52,2.72Z"/><path class="cls-3" d="M48,57.33s-2.65-.66-2.91-1.6c-.3-1.12,1.07-3.81,2.19-4.12.94-.25,2.9,1.6,2.9,1.6Z"/><path class="cls-3" d="M53.55,46.89s-3-.57-3.35-1.48c-.41-1.09.69-3.9,1.78-4.31.91-.34,3.35,1.48,3.35,1.48Z"/><path class="cls-3" d="M31,41.35c-.2.22-.13.66-.06.92s.28.67.64.62c.14,0,.29-.25.4-.35a4.59,4.59,0,0,1,.44-.33,11.82,11.82,0,0,1,1.34-.76c.6-.3,1.22-.58,1.85-.84s1.5-.62,2.27-.91,1.72-.62,2.59-.91,1.86-.62,2.81-.9,2-.57,2.93-.83,2-.51,3-.74S51,35.91,52,35.73s1.8-.3,2.7-.41,1.61-.17,2.42-.2h1c.55,0,.28-2.23-.26-2.16C45.21,34.47,33.69,38.35,31,41.35Z"/><path class="cls-3" d="M35.87,50c-.07.47,1.31.94,1.47.49,1.91-5.27,6.74-30.9,20.61-15,.36.41-.08-1.72-.44-2.13C44,18,36.84,43.41,35.87,50Z"/><path class="cls-3" d="M58.49,32.77C53.9,48.36,46.05,62,41.83,65.14c-4,3-28.83,19-32.68,24.52s-.78,16.82-.67,20.28"/><path class="cls-3" d="M96.8,87.73c-.57.27-9.44,2.45-21.27,5.42l1,4-7.09-2.38c-25.56,6.39-59.88,14.83-60.32,14.93"/><path class="cls-3" d="M78.14,35.55a6.2,6.2,0,0,1-12,3c-.59-2.33,2.16-2.79,5.48-3.63S77.47,32.87,78.14,35.55Z"/><path class="cls-3" d="M75.32,31l-8.61,2.17a.65.65,0,0,0-.48.79l.83,3.27a.65.65,0,0,0,.79.48l8.61-2.17a.66.66,0,0,0,.48-.8l-.83-3.27A.64.64,0,0,0,75.32,31Z"/><path class="cls-3" d="M56.84,33.91a251.91,251.91,0,0,0,25.58-6.52c1.53-.51,0-6.49-1.57-6.24-6,1-19.64,4.29-25.58,6.52C53.76,28.23,55.26,34.2,56.84,33.91Z"/><path class="cls-3" d="M36.49,52.31c-.1.19-.83,0-.84-.24a13.38,13.38,0,0,1,.81-2.88l.84.24A20,20,0,0,1,36.49,52.31Z"/><path class="cls-3" d="M29.71,44c-.2.1-.67-.49-.56-.68a13.84,13.84,0,0,1,2.31-1.91l.56.68A20.34,20.34,0,0,1,29.71,44Z"/><path class="cls-3" d="M89.14,10.35C88.59,10,90.59,9,91,9.45c3.24,3.28,6.11,2.84,4.26,5.58C94.45,16.29,91.83,12.09,89.14,10.35Z"/><path class="cls-3" d="M69.05,25.37a1.26,1.26,0,0,0-.22.63c-1.77,28.77,4.22,24.78-23.42,64.06-5,7.08,4.15,20.65,8.15,24.41a1.82,1.82,0,0,0,2.35.1c18.23-14.19,52.39-39.65,71.8-56a1.7,1.7,0,0,0,.3-2.26c-13.15-18.93-23-25.65-36.8-46.81A1.2,1.2,0,0,0,89.72,9C81.1,13.06,73.37,19.42,69.05,25.37Z"/><polygon class="cls-3" points="110.32 61.66 99.1 70.42 91.94 70.97 94.38 74.11 67.39 95.2 69.93 98.45 101.37 73.88 108.54 73.33 106.09 70.2 112.86 64.91 110.32 61.66"/><path class="cls-3" d="M136.86,70.9l-20.53,16a3.76,3.76,0,0,1-4,.42c-2.29-1.1-5.9-2.51-7.38-1.35-2.35,1.83-2.08,6-1.65,8.59a3.74,3.74,0,0,1-1.4,3.57L65.64,126.54a2,2,0,0,1-2.78-.34l-7.06-9a2,2,0,0,1,.34-2.78l71.22-55.64a2,2,0,0,1,2.78.34l7.06,9A2,2,0,0,1,136.86,70.9Z"/><polygon class="cls-3" points="112.83 64.87 103.2 72.39 96.03 72.94 98.48 76.07 71.48 97.16 74.03 100.42 105.47 75.85 112.64 75.3 110.19 72.16 115.37 68.12 112.83 64.87"/><polygon class="cls-3" points="108.23 55.55 70.78 51.75 71.52 34.02 104.37 36.5 108.23 55.55"/><line class="cls-3" x1="71.02" y1="50.06" x2="106.75" y2="53.47"/><line class="cls-3" x1="71.02" y1="50.06" x2="72.22" y2="50.17"/><line class="cls-3" x1="73.03" y1="50.25" x2="105.15" y2="53.32"/><line class="cls-3" x1="105.55" y1="53.36" x2="106.75" y2="53.47"/><line class="cls-3" x1="71.51" y1="35.61" x2="102.93" y2="38.12"/><line class="cls-3" x1="71.51" y1="35.61" x2="72.71" y2="35.71"/><line class="cls-3" x1="73.5" y1="35.77" x2="101.33" y2="37.99"/><line class="cls-3" x1="101.73" y1="38.02" x2="102.93" y2="38.12"/><path class="cls-3" d="M101.07,23.18c.19.22-.09,1.18-.09,1.18A150.17,150.17,0,0,1,89.21,9.29c1.17-.64,1.72-.26,2.16.44A154.17,154.17,0,0,0,101.07,23.18Z"/><path class="cls-3" d="M45.41,90.06c-5,7.08,4.15,20.65,8.15,24.41a1.82,1.82,0,0,0,2.35.1C60,111.38,78,105.9,74,100.42c-4.39-6.15-14-16.61-21.38-20.79C50.45,82.63,48.14,86.19,45.41,90.06Z"/><path class="cls-3" d="M100.61,22.63c-1.35,8.86,6.45,38.47,12.94,47.46,3.88,5.38,10-8,14.16-11.54a1.69,1.69,0,0,0,.3-2.26C118,41.92,110.49,34.44,100.61,22.63Z"/><path class="cls-3" d="M129.19,59.34c8.28,10.35,8.42,9.85,7.06,10.85L115.61,86.51c-1.13.88-3.36,0-4.65-.67-2.3-1.1-5-1.64-6.48-.48-2.36,1.84-2.41,6.34-2,8.9A4,4,0,0,1,101,97.91L65.13,126c-1,.77-1.26.46-8.88-9.62"/><path class="cls-3" d="M50.9,82.18c3.42,1.63,18.28,16.15,21,19.93"/><path class="cls-3" d="M102.8,25.23c0,2.69,3.57,30.34,12.57,42.89"/><path class="cls-3" d="M56.85,78.75S54.37,77.9,54.2,77C54,75.8,55.57,73.23,56.72,73c1-.17,2.65,1.81,2.65,1.81Z"/><path class="cls-3" d="M61.9,70.66s-2.59-.75-2.76-1.71c-.21-1.15,1.37-3.71,2.52-3.92,1-.18,2.76,1.71,2.76,1.71Z"/><path class="cls-3" d="M67.5,62.11S64.34,61.2,64,60.28c-.38-1.1.82-3.87,1.92-4.25.92-.31,3.4,1.48,3.4,1.48Z"/><path class="cls-3" d="M70.76,50.49s-2.69.46-3.3-.29c-.73-.91-.57-3.92.34-4.65.75-.62,3.3.29,3.3.29Z"/><path class="cls-3" d="M71.64,38.69s-3,.69-3.66,0-1-3.84-.12-4.66,3.66,0,3.66,0Z"/><path class="cls-3" d="M48.75,42.75c-.09.28.15.65.32.86s.52.5.83.31c.12-.08.16-.35.22-.49s.18-.32.27-.47a11.25,11.25,0,0,1,.92-1.23c.43-.53.88-1,1.35-1.53s1.13-1.17,1.71-1.74,1.32-1.27,2-1.89,1.46-1.31,2.21-2,1.55-1.31,2.34-1.95,1.59-1.26,2.4-1.86,1.58-1.16,2.39-1.71,1.52-1,2.3-1.47,1.41-.8,2.14-1.15c.28-.14.57-.27.87-.4.5-.2-.65-2.14-1.12-1.86C59,30.69,50,38.9,48.75,42.75Z"/><path class="cls-3" d="M56.74,48.71c.13.46,1.58.33,1.54-.14-.38-5.6-6.33-31,12.8-22,.49.23-.78-1.54-1.27-1.77C51.21,16.11,55,42.26,56.74,48.71Z"/><path class="cls-3" d="M70.45,23.77c2.1,16.12.43,31.75-2.15,36.34-2.44,4.33-18.7,29-20,35.64s6.07,15.7,7.58,18.82"/><path class="cls-3" d="M127.71,58.55c-.42.47-7.65,6.06-17.26,13.56L113,75.34l-7.44.69c-20.81,16.18-48.78,37.77-49.14,38"/><path class="cls-3" d="M89.54,18.37A6.2,6.2,0,0,1,79.77,26c-1.47-1.89.85-3.42,3.55-5.53S87.85,16.19,89.54,18.37Z"/><path class="cls-3" d="M85.14,15.38l-7,5.47a.66.66,0,0,0-.11.92l2.07,2.66a.66.66,0,0,0,.92.11l7-5.47a.65.65,0,0,0,.12-.92L86.06,15.5A.66.66,0,0,0,85.14,15.38Z"/><path class="cls-3" d="M69.4,25.48A252.44,252.44,0,0,0,90.16,9.18c1.19-1.09-2.61-5.95-4-5.08A185.14,185.14,0,0,0,65.44,20.41C64.28,21.53,68.07,26.39,69.4,25.48Z"/><path class="cls-3" d="M58.23,50.54c0,.22-.77.32-.87.12a13.31,13.31,0,0,1-.42-3l.87-.13A20.18,20.18,0,0,1,58.23,50.54Z"/><path class="cls-3" d="M48.65,45.64c-.14.17-.81-.18-.79-.39a13.88,13.88,0,0,1,1.35-2.68L50,43A21,21,0,0,1,48.65,45.64Z"/><path class="cls-3" d="M89.14,10.35C88.59,10,90.59,9,91,9.45c3.24,3.28,6.11,2.84,4.26,5.58C94.45,16.29,91.83,12.09,89.14,10.35Z"/><path class="cls-3" d="M69.05,25.37a1.26,1.26,0,0,0-.22.63c-1.77,28.77,4.22,24.78-23.42,64.06-5,7.08,4.15,20.65,8.15,24.41a1.82,1.82,0,0,0,2.35.1c18.23-14.19,52.39-39.65,71.8-56a1.7,1.7,0,0,0,.3-2.26c-13.15-18.93-23-25.65-36.8-46.81A1.2,1.2,0,0,0,89.72,9C81.1,13.06,73.37,19.42,69.05,25.37Z"/><polygon class="cls-3" points="110.32 61.66 99.1 70.42 91.94 70.97 94.38 74.11 67.39 95.2 69.93 98.45 101.37 73.88 108.54 73.33 106.09 70.2 112.86 64.91 110.32 61.66"/><path class="cls-3" d="M136.86,70.9l-20.53,16a3.76,3.76,0,0,1-4,.42c-2.29-1.1-5.9-2.51-7.38-1.35-2.35,1.83-2.08,6-1.65,8.59a3.74,3.74,0,0,1-1.4,3.57L65.64,126.54a2,2,0,0,1-2.78-.34l-7.06-9a2,2,0,0,1,.34-2.78l71.22-55.64a2,2,0,0,1,2.78.34l7.06,9A2,2,0,0,1,136.86,70.9Z"/><polygon class="cls-3" points="112.83 64.87 103.2 72.39 96.03 72.94 98.48 76.07 71.48 97.16 74.03 100.42 105.47 75.85 112.64 75.3 110.19 72.16 115.37 68.12 112.83 64.87"/><polygon class="cls-3" points="108.23 55.55 70.78 51.75 71.52 34.02 104.37 36.5 108.23 55.55"/><line class="cls-3" x1="71.02" y1="50.06" x2="106.75" y2="53.47"/><line class="cls-3" x1="71.02" y1="50.06" x2="72.22" y2="50.17"/><line class="cls-3" x1="73.03" y1="50.25" x2="105.15" y2="53.32"/><line class="cls-3" x1="105.55" y1="53.36" x2="106.75" y2="53.47"/><line class="cls-3" x1="71.51" y1="35.61" x2="102.93" y2="38.12"/><line class="cls-3" x1="71.51" y1="35.61" x2="72.71" y2="35.71"/><line class="cls-3" x1="73.5" y1="35.77" x2="101.33" y2="37.99"/><line class="cls-3" x1="101.73" y1="38.02" x2="102.93" y2="38.12"/><path class="cls-3" d="M101.07,23.18c.19.22-.09,1.18-.09,1.18A150.17,150.17,0,0,1,89.21,9.29c1.17-.64,1.72-.26,2.16.44A154.17,154.17,0,0,0,101.07,23.18Z"/><path class="cls-3" d="M45.41,90.06c-5,7.08,4.15,20.65,8.15,24.41a1.82,1.82,0,0,0,2.35.1C60,111.38,78,105.9,74,100.42c-4.39-6.15-14-16.61-21.38-20.79C50.45,82.63,48.14,86.19,45.41,90.06Z"/><path class="cls-3" d="M100.61,22.63c-1.35,8.86,6.45,38.47,12.94,47.46,3.88,5.38,10-8,14.16-11.54a1.69,1.69,0,0,0,.3-2.26C118,41.92,110.49,34.44,100.61,22.63Z"/><path class="cls-3" d="M129.19,59.34c8.28,10.35,8.42,9.85,7.06,10.85L115.61,86.51c-1.13.88-3.36,0-4.65-.67-2.3-1.1-5-1.64-6.48-.48-2.36,1.84-2.41,6.34-2,8.9A4,4,0,0,1,101,97.91L65.13,126c-1,.77-1.26.46-8.88-9.62"/><path class="cls-3" d="M50.9,82.18c3.42,1.63,18.28,16.15,21,19.93"/><path class="cls-3" d="M102.8,25.23c0,2.69,3.57,30.34,12.57,42.89"/><path class="cls-3" d="M56.85,78.75S54.37,77.9,54.2,77C54,75.8,55.57,73.23,56.72,73c1-.17,2.65,1.81,2.65,1.81Z"/><path class="cls-3" d="M61.9,70.66s-2.59-.75-2.76-1.71c-.21-1.15,1.37-3.71,2.52-3.92,1-.18,2.76,1.71,2.76,1.71Z"/><path class="cls-3" d="M67.5,62.11S64.34,61.2,64,60.28c-.38-1.1.82-3.87,1.92-4.25.92-.31,3.4,1.48,3.4,1.48Z"/><path class="cls-3" d="M70.76,50.49s-2.69.46-3.3-.29c-.73-.91-.57-3.92.34-4.65.75-.62,3.3.29,3.3.29Z"/><path class="cls-3" d="M71.64,38.69s-3,.69-3.66,0-1-3.84-.12-4.66,3.66,0,3.66,0Z"/><path class="cls-3" d="M48.75,42.75c-.09.28.15.65.32.86s.52.5.83.31c.12-.08.16-.35.22-.49s.18-.32.27-.47a11.25,11.25,0,0,1,.92-1.23c.43-.53.88-1,1.35-1.53s1.13-1.17,1.71-1.74,1.32-1.27,2-1.89,1.46-1.31,2.21-2,1.55-1.31,2.34-1.95,1.59-1.26,2.4-1.86,1.58-1.16,2.39-1.71,1.52-1,2.3-1.47,1.41-.8,2.14-1.15c.28-.14.57-.27.87-.4.5-.2-.65-2.14-1.12-1.86C59,30.69,50,38.9,48.75,42.75Z"/><path class="cls-3" d="M56.74,48.71c.13.46,1.58.33,1.54-.14-.38-5.6-6.33-31,12.8-22,.49.23-.78-1.54-1.27-1.77C51.21,16.11,55,42.26,56.74,48.71Z"/><path class="cls-3" d="M70.45,23.77c2.1,16.12.43,31.75-2.15,36.34-2.44,4.33-18.7,29-20,35.64s6.07,15.7,7.58,18.82"/><path class="cls-3" d="M127.71,58.55c-.42.47-7.65,6.06-17.26,13.56L113,75.34l-7.44.69c-20.81,16.18-48.78,37.77-49.14,38"/><path class="cls-3" d="M89.54,18.37A6.2,6.2,0,0,1,79.77,26c-1.47-1.89.85-3.42,3.55-5.53S87.85,16.19,89.54,18.37Z"/><path class="cls-3" d="M85.14,15.38l-7,5.47a.66.66,0,0,0-.11.92l2.07,2.66a.66.66,0,0,0,.92.11l7-5.47a.65.65,0,0,0,.12-.92L86.06,15.5A.66.66,0,0,0,85.14,15.38Z"/><path class="cls-3" d="M69.4,25.48A252.44,252.44,0,0,0,90.16,9.18c1.19-1.09-2.61-5.95-4-5.08A185.14,185.14,0,0,0,65.44,20.41C64.28,21.53,68.07,26.39,69.4,25.48Z"/><path class="cls-3" d="M58.23,50.54c0,.22-.77.32-.87.12a13.31,13.31,0,0,1-.42-3l.87-.13A20.18,20.18,0,0,1,58.23,50.54Z"/><path class="cls-3" d="M48.65,45.64c-.14.17-.81-.18-.79-.39a13.88,13.88,0,0,1,1.35-2.68L50,43A21,21,0,0,1,48.65,45.64Z"/><path class="cls-4" d="M81,28.05c-.35-.54,1.88-.66,2.11-.05,1.63,4.3,4.43,5.06,1.64,6.82C83.47,35.63,82.77,30.73,81,28.05Z"/><path class="cls-5" d="M56.57,33.67a1.18,1.18,0,0,0-.46.48C42.86,59.75,50,58.53,8.79,83.28c-7.42,4.46-4.55,20.56-2.41,25.62a1.82,1.82,0,0,0,2.1,1c22.41-5.61,64-15.09,88.32-22.21a1.7,1.7,0,0,0,1.19-2C93.62,63.16,87.36,53,83.25,28.09a1.17,1.17,0,0,0-1.17-1C72.57,27.28,62.92,30,56.57,33.67Z"/><polygon class="cls-6" points="79.64 83.54 65.84 87.02 59.06 84.63 60.03 88.49 26.81 96.86 27.82 100.86 66.52 91.11 73.3 93.5 72.32 89.64 80.65 87.54 79.64 83.54"/><path class="cls-7" d="M100.18,102.73l-25.26,6.36a3.75,3.75,0,0,1-3.78-1.2c-1.66-1.94-4.39-4.69-6.21-4.23-2.9.73-4.34,4.67-5,7.19a3.77,3.77,0,0,1-2.72,2.71L12.54,124.82a2,2,0,0,1-2.4-1.43L7.33,112.27a2,2,0,0,1,1.44-2.41L96.41,87.77a2,2,0,0,1,2.4,1.43l2.8,11.12A2,2,0,0,1,100.18,102.73Z"/><polygon class="cls-8" points="80.64 87.49 68.79 90.48 62.01 88.09 62.98 91.94 29.77 100.32 30.77 104.32 69.47 94.56 76.25 96.96 75.27 93.1 81.65 91.49 80.64 87.49"/><polygon class="cls-6" points="80.2 77.1 47.48 58.49 55.33 42.58 84.37 58.13 80.2 77.1"/><line class="cls-9" x1="48.38" y1="57.04" x2="49.43" y2="57.63"/><line class="cls-10" x1="50.15" y1="58.03" x2="78.28" y2="73.82"/><line class="cls-9" x1="78.64" y1="74.02" x2="79.69" y2="74.61"/><line class="cls-9" x1="54.68" y1="44.03" x2="55.74" y2="44.6"/><line class="cls-11" x1="56.43" y1="44.98" x2="80.99" y2="58.26"/><line class="cls-9" x1="81.34" y1="58.45" x2="82.4" y2="59.02"/><path class="cls-6" d="M86.74,44.61c.08.28-.56,1-.56,1a149.45,149.45,0,0,1-4.67-18.54c1.33-.11,1.67.46,1.79,1.28A155.36,155.36,0,0,0,86.74,44.61Z"/><path class="cls-7" d="M8.79,83.28c-7.41,4.46-4.55,20.56-2.41,25.61a1.81,1.81,0,0,0,2.1,1c5-1.26,23.67,1,22.29-5.62-1.53-7.4-6.07-20.84-11.15-27.66C16.4,78.52,12.85,80.84,8.79,83.28Z"/><path class="cls-7" d="M86.54,43.92c-4.82,7.55-9.65,37.79-7.36,48.64,1.38,6.49,12.42-3.31,17.62-4.83a1.7,1.7,0,0,0,1.19-2C94.67,68.61,90.8,58.72,86.54,43.92Z"/><path class="cls-12" d="M97.84,89.06c3.39,12.8,3.72,12.4,2.07,12.76l-25.48,6.59c-1.38.35-3.05-1.4-4-2.49-1.66-1.94-3.91-3.52-5.74-3.06-2.89.73-4.76,4.83-5.4,7.34a3.94,3.94,0,0,1-2.83,2.74L12.31,124.07c-1.21.31-1.33-.08-4.23-12.38"/><path class="cls-13" d="M17,78.29c2.47,2.87,10.19,22.17,11.11,26.7"/><path class="cls-13" d="M87.5,47.18c-1.1,2.46-9,29.2-5.85,44.31"/><path class="cls-14" d="M23.82,77.55s-1.92-1.77-1.69-2.72C22.4,73.7,24.89,72,26,72.27,27,72.49,27.71,75,27.71,75Z"/><path class="cls-14" d="M31.71,72.2s-2.06-1.74-1.83-2.68c.27-1.14,2.76-2.84,3.89-2.57.95.23,1.83,2.68,1.83,2.68Z"/><path class="cls-14" d="M40.3,66.65s-2.53-2.11-2.44-3.08c.1-1.16,2.31-3.22,3.47-3.11,1,.09,2.52,2.72,2.52,2.72Z"/><path class="cls-14" d="M48,57.33s-2.65-.66-2.91-1.6c-.3-1.12,1.07-3.81,2.19-4.12.94-.25,2.9,1.6,2.9,1.6Z"/><path class="cls-14" d="M53.55,46.89s-3-.57-3.35-1.48c-.41-1.09.69-3.9,1.78-4.31.91-.34,3.35,1.48,3.35,1.48Z"/><path class="cls-15" d="M31,41.35c-.2.22-.13.66-.06.92s.28.67.64.62c.14,0,.29-.25.4-.35a4.59,4.59,0,0,1,.44-.33,11.82,11.82,0,0,1,1.34-.76c.6-.3,1.22-.58,1.85-.84s1.5-.62,2.27-.91,1.72-.62,2.59-.91,1.86-.62,2.81-.9,2-.57,2.93-.83,2-.51,3-.74S51,35.91,52,35.73s1.8-.3,2.7-.41,1.61-.17,2.42-.2h1c.55,0,.28-2.23-.26-2.16C45.21,34.47,33.69,38.35,31,41.35Z"/><path class="cls-15" d="M35.87,50c-.07.47,1.31.94,1.47.49,1.91-5.27,6.74-30.9,20.61-15,.36.41-.08-1.72-.44-2.13C44,18,36.84,43.41,35.87,50Z"/><path class="cls-13" d="M58.49,32.77C53.9,48.36,46.05,62,41.83,65.14c-4,3-28.83,19-32.68,24.52s-.78,16.82-.67,20.28"/><path class="cls-16" d="M96.8,87.73c-.57.27-9.44,2.45-21.27,5.42l1,4-7.09-2.38c-25.56,6.39-59.88,14.83-60.32,14.93"/><path class="cls-17" d="M78.14,35.55a6.2,6.2,0,0,1-12,3c-.59-2.33,2.16-2.79,5.48-3.63S77.47,32.87,78.14,35.55Z"/><rect class="cls-18" x="66.49" y="32.05" width="10.19" height="4.68" rx="0.66" transform="translate(-6.24 18.54) rotate(-14.15)"/><path class="cls-8" d="M56.84,33.91a251.91,251.91,0,0,0,25.58-6.52c1.53-.51,0-6.49-1.57-6.24-6,1-19.64,4.29-25.58,6.52C53.76,28.23,55.26,34.2,56.84,33.91Z"/><path class="cls-15" d="M36.49,52.31c-.1.19-.83,0-.84-.24a13.38,13.38,0,0,1,.81-2.88l.84.24A20,20,0,0,1,36.49,52.31Z"/><path class="cls-15" d="M29.71,44c-.2.1-.67-.49-.56-.68a13.84,13.84,0,0,1,2.31-1.91l.56.68A20.34,20.34,0,0,1,29.71,44Z"/><path class="cls-4" d="M89.14,10.35C88.59,10,90.59,9,91,9.45c3.24,3.28,6.11,2.84,4.26,5.58C94.45,16.29,91.83,12.09,89.14,10.35Z"/><path class="cls-5" d="M69.05,25.37a1.26,1.26,0,0,0-.22.63c-1.77,28.77,4.22,24.78-23.42,64.06-5,7.08,4.15,20.65,8.15,24.41a1.82,1.82,0,0,0,2.35.1c18.23-14.19,52.39-39.65,71.8-56a1.7,1.7,0,0,0,.3-2.26c-13.15-18.93-23-25.65-36.8-46.81A1.2,1.2,0,0,0,89.72,9C81.1,13.06,73.37,19.42,69.05,25.37Z"/><polygon class="cls-6" points="110.32 61.66 99.1 70.42 91.94 70.97 94.38 74.11 67.39 95.2 69.93 98.45 101.37 73.88 108.54 73.33 106.09 70.2 112.86 64.91 110.32 61.66"/><path class="cls-7" d="M136.86,70.9l-20.53,16a3.76,3.76,0,0,1-4,.42c-2.29-1.1-5.9-2.51-7.38-1.35-2.35,1.83-2.08,6-1.65,8.59a3.74,3.74,0,0,1-1.4,3.57L65.64,126.54a2,2,0,0,1-2.78-.34l-7.06-9a2,2,0,0,1,.34-2.78l71.22-55.64a2,2,0,0,1,2.78.34l7.06,9A2,2,0,0,1,136.86,70.9Z"/><polygon class="cls-8" points="112.83 64.87 103.2 72.39 96.03 72.94 98.48 76.07 71.48 97.16 74.03 100.42 105.47 75.85 112.64 75.3 110.19 72.16 115.37 68.12 112.83 64.87"/><polygon class="cls-6" points="108.23 55.55 70.78 51.75 71.52 34.02 104.37 36.5 108.23 55.55"/><line class="cls-9" x1="71.02" y1="50.06" x2="72.22" y2="50.17"/><line class="cls-10" x1="73.03" y1="50.25" x2="105.15" y2="53.32"/><line class="cls-9" x1="105.55" y1="53.36" x2="106.75" y2="53.47"/><line class="cls-9" x1="71.51" y1="35.61" x2="72.71" y2="35.71"/><line class="cls-11" x1="73.5" y1="35.77" x2="101.33" y2="37.99"/><line class="cls-9" x1="101.73" y1="38.02" x2="102.93" y2="38.12"/><path class="cls-6" d="M101.07,23.18c.19.22-.09,1.18-.09,1.18A150.17,150.17,0,0,1,89.21,9.29c1.17-.64,1.72-.26,2.16.44A154.17,154.17,0,0,0,101.07,23.18Z"/><path class="cls-7" d="M45.41,90.06c-5,7.08,4.15,20.65,8.15,24.41a1.82,1.82,0,0,0,2.35.1C60,111.38,78,105.9,74,100.42c-4.39-6.15-14-16.61-21.38-20.79C50.45,82.63,48.14,86.19,45.41,90.06Z"/><path class="cls-7" d="M100.61,22.63c-1.35,8.86,6.45,38.47,12.94,47.46,3.88,5.38,10-8,14.16-11.54a1.69,1.69,0,0,0,.3-2.26C118,41.92,110.49,34.44,100.61,22.63Z"/><path class="cls-12" d="M129.19,59.34c8.28,10.35,8.42,9.85,7.06,10.85L115.61,86.51c-1.13.88-3.36,0-4.65-.67-2.3-1.1-5-1.64-6.48-.48-2.36,1.84-2.41,6.34-2,8.9A4,4,0,0,1,101,97.91L65.13,126c-1,.77-1.26.46-8.88-9.62"/><path class="cls-13" d="M50.9,82.18c3.42,1.63,18.28,16.15,21,19.93"/><path class="cls-13" d="M102.8,25.23c0,2.69,3.57,30.34,12.57,42.89"/><path class="cls-14" d="M56.85,78.75S54.37,77.9,54.2,77C54,75.8,55.57,73.23,56.72,73c1-.17,2.65,1.81,2.65,1.81Z"/><path class="cls-14" d="M61.9,70.66s-2.59-.75-2.76-1.71c-.21-1.15,1.37-3.71,2.52-3.92,1-.18,2.76,1.71,2.76,1.71Z"/><path class="cls-14" d="M67.5,62.11S64.34,61.2,64,60.28c-.38-1.1.82-3.87,1.92-4.25.92-.31,3.4,1.48,3.4,1.48Z"/><path class="cls-14" d="M70.76,50.49s-2.69.46-3.3-.29c-.73-.91-.57-3.92.34-4.65.75-.62,3.3.29,3.3.29Z"/><path class="cls-14" d="M71.64,38.69s-3,.69-3.66,0-1-3.84-.12-4.66,3.66,0,3.66,0Z"/><path class="cls-15" d="M48.75,42.75c-.09.28.15.65.32.86s.52.5.83.31c.12-.08.16-.35.22-.49s.18-.32.27-.47a11.25,11.25,0,0,1,.92-1.23c.43-.53.88-1,1.35-1.53s1.13-1.17,1.71-1.74,1.32-1.27,2-1.89,1.46-1.31,2.21-2,1.55-1.31,2.34-1.95,1.59-1.26,2.4-1.86,1.58-1.16,2.39-1.71,1.52-1,2.3-1.47,1.41-.8,2.14-1.15c.28-.14.57-.27.87-.4.5-.2-.65-2.14-1.12-1.86C59,30.69,50,38.9,48.75,42.75Z"/><path class="cls-15" d="M56.74,48.71c.13.46,1.58.33,1.54-.14-.38-5.6-6.33-31,12.8-22,.49.23-.78-1.54-1.27-1.77C51.21,16.11,55,42.26,56.74,48.71Z"/><path class="cls-13" d="M70.45,23.77c2.1,16.12.43,31.75-2.15,36.34-2.44,4.33-18.7,29-20,35.64s6.07,15.7,7.58,18.82"/><path class="cls-16" d="M127.71,58.55c-.42.47-7.65,6.06-17.26,13.56L113,75.34l-7.44.69c-20.81,16.18-48.78,37.77-49.14,38"/><path class="cls-17" d="M89.54,18.37A6.2,6.2,0,0,1,79.77,26c-1.47-1.89.85-3.42,3.55-5.53S87.85,16.19,89.54,18.37Z"/><rect class="cls-18" x="77.99" y="17.62" width="10.19" height="4.68" rx="0.66" transform="translate(5.32 55.38) rotate(-38)"/><path class="cls-8" d="M69.4,25.48A252.44,252.44,0,0,0,90.16,9.18c1.19-1.09-2.61-5.95-4-5.08A185.14,185.14,0,0,0,65.44,20.41C64.28,21.53,68.07,26.39,69.4,25.48Z"/><path class="cls-15" d="M58.23,50.54c0,.22-.77.32-.87.12a13.31,13.31,0,0,1-.42-3l.87-.13A20.18,20.18,0,0,1,58.23,50.54Z"/><path class="cls-15" d="M48.65,45.64c-.14.17-.81-.18-.79-.39a13.88,13.88,0,0,1,1.35-2.68L50,43A21,21,0,0,1,48.65,45.64Z"/></g></g></svg>