<svg xmlns="http://www.w3.org/2000/svg" viewBox="0 0 168.55 109.39"><defs><style>.cls-1{fill:#e0f0eb;}.cls-2{fill:none;stroke:#e0f0eb;stroke-miterlimit:10;stroke-width:8px;}.cls-3{fill:#f3c0d8;}.cls-4{fill:#edaecb;}.cls-5{fill:#b3ce65;}.cls-6{fill:#78bccf;}.cls-7{fill:#5faec5;}.cls-8{fill:#f8d25f;}.cls-9{fill:#eec55a;}</style></defs><g id="レイヤー_2" data-name="レイヤー 2"><g id="スタンプラリー"><polygon class="cls-1" points="90.21 51.09 102.77 70.83 76.14 64.2 79.63 53.33 90.21 51.09"/><path class="cls-2" d="M145.09,50l-51.76-6.8,4.74-27.95,51.11,10.66a12.23,12.23,0,0,1,9.55,14h0A12.22,12.22,0,0,1,145.09,50Z"/><path class="cls-2" d="M88.63,43.39l4.53.77,5.08-29.91-4.53-.77a1.36,1.36,0,0,0-1.57,1.1L87.52,41.83A1.34,1.34,0,0,0,88.63,43.39Z"/><rect class="cls-2" x="81.38" y="23.07" width="4.31" height="8.2" transform="translate(42.76 104.98) rotate(-80.36)"/><polygon class="cls-2" points="105.13 44.65 128.94 47.95 133.26 22.48 109.7 17.74 105.13 44.65"/><circle class="cls-2" cx="119.26" cy="33.2" r="9.73"/><rect class="cls-2" x="83.57" y="26.32" width="9.26" height="3.29" transform="translate(45.86 110.24) rotate(-80.36)"/><path class="cls-2" d="M148.94,24.86l-4.79,28.23-1.82-.31,4.79-28.23-2.84-.48-4.8,28.22L125.72,50l-.83,4.9,32.47,5.51a1.87,1.87,0,0,0,2.17-1.54l5-29.42A1.89,1.89,0,0,0,163,27.24Z"/><rect class="cls-2" x="133.39" y="53.54" width="3.24" height="1.02" transform="translate(59.12 178.11) rotate(-80.36)"/><rect class="cls-2" x="131.52" y="53.23" width="3.24" height="1.02" transform="translate(57.87 176) rotate(-80.36)"/><rect class="cls-2" x="129.65" y="52.91" width="3.24" height="1.02" transform="translate(56.63 173.89) rotate(-80.36)"/><rect class="cls-2" x="127.77" y="52.59" width="3.24" height="1.02" transform="translate(55.38 171.78) rotate(-80.36)"/><rect class="cls-2" x="125.9" y="52.27" width="3.24" height="1.02" transform="translate(54.14 169.67) rotate(-80.36)"/><circle class="cls-2" cx="161.56" cy="29.77" r="1.9"/><path class="cls-2" d="M163.21,37.18l-21.28-3.61,1.52-9a.66.66,0,0,1,.77-.54l18.61,3.16a2,2,0,0,1,1.67,2.35Z"/><path class="cls-2" d="M7.23,20.46l4.7,2.07L14.1,9.71,9,10.12A5.4,5.4,0,0,0,4.08,14.6h0A5.4,5.4,0,0,0,7.23,20.46Z"/><path class="cls-2" d="M129.65,50.63,117,48.47a2,2,0,0,1-1.7-2.11c.62-11.38-2.36-27.93-2.36-27.93A1.33,1.33,0,0,1,114.46,17l2.74.46a1.87,1.87,0,0,0,2.15-1.43,16.28,16.28,0,0,0,.57-4.13C118.37-.19,86.36,6.23,86.36,6.23L20.59,4a6.53,6.53,0,0,0-6.66,5.43L11.7,22.61a6.52,6.52,0,0,0,3.66,7l-.78,4.56a1.55,1.55,0,0,0,1.09,1.74L70.72,52a2,2,0,0,1,1.4,2c-.28,4.5-.43,13.77,2.88,15.09,5.84,2.32,15.4,4.66,21.22,6,1,7.63,2.47,17.79-4.69,24.21-5.64,5.06,17.53,8.56,23.3,4,12.77-10.19-.87-27.42,2.65-40.51,1.87-7,8.26-6.66,12.7-10.12A1.12,1.12,0,0,0,129.65,50.63ZM85,14.55a2,2,0,0,1,2-1.67,45.53,45.53,0,0,1,13.94,1.83,1.39,1.39,0,0,1,1.16,1.5s2.91,19.88-1.64,27.79a2.5,2.5,0,0,1-2.57,1.22L82.22,42.57a2,2,0,0,1-1.64-2.31Zm-6.9,43.12A3.38,3.38,0,0,1,82,54.85l21.16,3.59a1.59,1.59,0,0,1,1.28,1.92c-1,4.07-2.77,8.73-6.26,11.4a4.07,4.07,0,0,1-3.44.71c-5.37-1.31-12.29-3.34-15.51-5.69C77.32,65.42,77.54,61.08,78.05,57.67Z"/><path class="cls-2" d="M14.63,33.87l-1.42-.24A1.44,1.44,0,0,1,12,32h0a1.45,1.45,0,0,1,1.66-1.18l1.43.24Z"/><rect class="cls-2" x="99.31" y="60.19" width="2.78" height="8.6" transform="translate(20.26 152.97) rotate(-80.36)"/><rect class="cls-2" x="92.64" y="63.17" width="6.62" height="1.03" transform="translate(17.1 147.62) rotate(-80.36)"/><path class="cls-2" d="M102.27,75.93c1.76,8.15,3.94,18.82-3.49,27.63a.88.88,0,0,0,.56,1.42c4.41.63,11.53.43,14.22-1,4.63-2.41,8.35-8.63,6.13-19.68a1.32,1.32,0,0,0-1.24-1.06c-4.53-.2-10-1.6-12.6-7.91C104.68,72.48,101.74,73.5,102.27,75.93Z"/><path class="cls-2" d="M10,16.47l2.89.49.29-1.68-2.9-.49a.85.85,0,0,0-1,.7h0A.85.85,0,0,0,10,16.47Z"/><path class="cls-2" d="M9.1,20.32a.84.84,0,0,0-.93.53l3.55,1.64L12,20.81Z"/><path class="cls-2" d="M10,10a.85.85,0,0,0,.71.84l2.89.49.29-1.68Z"/><path class="cls-2" d="M17.37,23.69,78.43,39.56A2.08,2.08,0,0,0,81,37.9l3.35-19.73a2.07,2.07,0,0,0-1.87-2.4L19.6,10.59a2,2,0,0,0-1.84.84A15.92,15.92,0,0,0,15.91,22.3,2,2,0,0,0,17.37,23.69Z"/><path class="cls-2" d="M45.84,30.62c-1.92,2.05,9.89,5.46,10.88,2.82,1.93-5.12,9-15.2,13.86-18.65.49-.35-5.09-.73-5.64-.46C59.82,16.79,51.8,24.23,45.84,30.62Z"/><path class="cls-2" d="M77.5,33.08l4.18.71-.45,2.65-4.18-.71A1.35,1.35,0,0,1,76,34.18h0A1.35,1.35,0,0,1,77.5,33.08Z"/><path class="cls-2" d="M78.7,26l4.19.71-.45,2.65-4.19-.71a1.34,1.34,0,0,1-1.1-1.55h0A1.35,1.35,0,0,1,78.7,26Z"/><path class="cls-2" d="M79.91,18.92l4.18.71-.45,2.65-4.18-.71A1.33,1.33,0,0,1,78.36,20h0A1.34,1.34,0,0,1,79.91,18.92Z"/><path class="cls-2" d="M39,27.66,20.62,22.81a1.79,1.79,0,0,1-1.28-2.18h0l21.88,5.75h0A1.78,1.78,0,0,1,39,27.66Z"/><path class="cls-2" d="M41.31,13.82l-19-1.51A1.79,1.79,0,0,0,20.4,14h0L43,15.74h0A1.78,1.78,0,0,0,41.31,13.82Z"/><circle class="cls-2" cx="84.56" cy="49.41" r="2.84"/><circle class="cls-2" cx="96.03" cy="51.35" r="2.84"/><circle class="cls-2" cx="107.49" cy="53.3" r="2.84"/><rect class="cls-2" x="50.57" y="-12.66" width="2.14" height="41.72" rx="1.07" transform="matrix(0.04, -1, 1, 0.04, 41.61, 59.52)"/><rect class="cls-2" x="77.46" y="4.61" width="2.14" height="9.09" rx="1.07" transform="translate(66.59 87.31) rotate(-87.97)"/><rect class="cls-2" x="23.74" y="2.7" width="2.14" height="9.09" rx="1.07" transform="translate(16.69 31.78) rotate(-87.97)"/><circle class="cls-2" cx="103.23" cy="13.35" r="4.87"/><circle class="cls-2" cx="103.23" cy="13.35" r="3.44"/><path class="cls-2" d="M64.59,50.2,61,49.15l.81-4.77a1.88,1.88,0,0,1,2.16-1.54h0A1.88,1.88,0,0,1,65.47,45Z"/><path class="cls-2" d="M55.13,47.44l-3.62-1.06.78-4.6a1.87,1.87,0,0,1,2.16-1.53h0A1.86,1.86,0,0,1,56,42.41Z"/><path class="cls-2" d="M45.67,44.67l-3.62-1.06.82-4.8A1.86,1.86,0,0,1,45,37.28h0a1.87,1.87,0,0,1,1.53,2.15Z"/><path class="cls-2" d="M36.21,41.9l-3.62-1,.76-4.46a1.86,1.86,0,0,1,2.16-1.53h0A1.86,1.86,0,0,1,37,37Z"/><path class="cls-2" d="M26.75,39.14l-3.61-1.06L23.83,34A1.86,1.86,0,0,1,26,32.48h0a1.87,1.87,0,0,1,1.53,2.15Z"/><path class="cls-2" d="M88,39.28l4.2.71a.69.69,0,0,1,.57.8h0a.69.69,0,0,1-.8.57l-4.2-.71Z"/><path class="cls-2" d="M88.52,35.91l4.2.72a.69.69,0,0,1,.57.8h0a.69.69,0,0,1-.8.57l-4.2-.71Z"/><path class="cls-2" d="M89.09,32.55l4.21.72a.69.69,0,0,1,.56.8h0a.69.69,0,0,1-.8.57l-4.2-.72Z"/><path class="cls-2" d="M89.66,29.19l4.21.72a.7.7,0,0,1,.57.8h0a.71.71,0,0,1-.81.57l-4.2-.72Z"/><path class="cls-2" d="M90.23,25.83l4.21.71a.71.71,0,0,1,.57.81h0a.72.72,0,0,1-.81.57L90,27.2Z"/><path class="cls-2" d="M90.81,22.47l4.2.71a.7.7,0,0,1,.57.8h0a.7.7,0,0,1-.81.57l-4.2-.71Z"/><path class="cls-2" d="M91.38,19.11l4.2.71a.69.69,0,0,1,.57.8h0a.7.7,0,0,1-.8.57l-4.21-.71Z"/><path class="cls-2" d="M92,15.75l4.2.71a.69.69,0,0,1,.57.8h0a.7.7,0,0,1-.8.57l-4.21-.71Z"/><path class="cls-3" d="M145.09,50l-51.76-6.8,4.74-27.95,51.11,10.66a12.23,12.23,0,0,1,9.55,14h0A12.22,12.22,0,0,1,145.09,50Z"/><path class="cls-3" d="M88.63,43.39l4.53.77,5.08-29.91-4.53-.77a1.36,1.36,0,0,0-1.57,1.1L87.52,41.83A1.34,1.34,0,0,0,88.63,43.39Z"/><rect class="cls-3" x="81.38" y="23.07" width="4.31" height="8.2" transform="translate(42.76 104.98) rotate(-80.36)"/><polygon class="cls-4" points="105.13 44.65 128.94 47.95 133.26 22.48 109.7 17.74 105.13 44.65"/><circle class="cls-5" cx="119.26" cy="33.2" r="9.73"/><rect class="cls-3" x="83.57" y="26.32" width="9.26" height="3.29" transform="translate(45.86 110.24) rotate(-80.36)"/><path class="cls-6" d="M148.94,24.86l-4.79,28.23-1.82-.31,4.79-28.23-2.84-.48-4.8,28.22L125.72,50l-.83,4.9,32.47,5.51a1.87,1.87,0,0,0,2.17-1.54l5-29.42A1.89,1.89,0,0,0,163,27.24Z"/><rect class="cls-7" x="133.39" y="53.54" width="3.24" height="1.02" transform="translate(59.12 178.11) rotate(-80.36)"/><rect class="cls-7" x="131.52" y="53.23" width="3.24" height="1.02" transform="translate(57.87 176) rotate(-80.36)"/><rect class="cls-7" x="129.65" y="52.91" width="3.24" height="1.02" transform="translate(56.63 173.89) rotate(-80.36)"/><rect class="cls-7" x="127.77" y="52.59" width="3.24" height="1.02" transform="translate(55.38 171.78) rotate(-80.36)"/><rect class="cls-7" x="125.9" y="52.27" width="3.24" height="1.02" transform="translate(54.14 169.67) rotate(-80.36)"/><circle class="cls-6" cx="161.56" cy="29.77" r="1.9"/><path class="cls-7" d="M163.21,37.18l-21.28-3.61,1.52-9a.66.66,0,0,1,.77-.54l18.61,3.16a2,2,0,0,1,1.67,2.35Z"/><path class="cls-8" d="M7.23,20.46l4.7,2.07L14.1,9.71,9,10.12A5.4,5.4,0,0,0,4.08,14.6h0A5.4,5.4,0,0,0,7.23,20.46Z"/><path class="cls-8" d="M129.65,50.63,117,48.47a2,2,0,0,1-1.7-2.11c.62-11.38-2.36-27.93-2.36-27.93A1.33,1.33,0,0,1,114.46,17l2.74.46a1.87,1.87,0,0,0,2.15-1.43,16.28,16.28,0,0,0,.57-4.13C118.37-.19,86.36,6.23,86.36,6.23L20.59,4a6.53,6.53,0,0,0-6.66,5.43L11.7,22.61a6.52,6.52,0,0,0,3.66,7l-.78,4.56a1.55,1.55,0,0,0,1.09,1.74L70.72,52a2,2,0,0,1,1.4,2c-.28,4.5-.43,13.77,2.88,15.09,5.84,2.32,15.4,4.66,21.22,6,1,7.63,2.47,17.79-4.69,24.21-5.64,5.06,17.53,8.56,23.3,4,12.77-10.19-.87-27.42,2.65-40.51,1.87-7,8.26-6.66,12.7-10.12A1.12,1.12,0,0,0,129.65,50.63ZM85,14.55a2,2,0,0,1,2-1.67,45.53,45.53,0,0,1,13.94,1.83,1.39,1.39,0,0,1,1.16,1.5s2.91,19.88-1.64,27.79a2.5,2.5,0,0,1-2.57,1.22L82.22,42.57a2,2,0,0,1-1.64-2.31Zm-6.9,43.12A3.38,3.38,0,0,1,82,54.85l21.16,3.59a1.59,1.59,0,0,1,1.28,1.92c-1,4.07-2.77,8.73-6.26,11.4a4.07,4.07,0,0,1-3.44.71c-5.37-1.31-12.29-3.34-15.51-5.69C77.32,65.42,77.54,61.08,78.05,57.67Z"/><path class="cls-8" d="M14.63,33.87l-1.42-.24A1.44,1.44,0,0,1,12,32h0a1.45,1.45,0,0,1,1.66-1.18l1.43.24Z"/><rect class="cls-8" x="99.31" y="60.19" width="2.78" height="8.6" transform="translate(20.26 152.97) rotate(-80.36)"/><rect class="cls-8" x="92.64" y="63.17" width="6.62" height="1.03" transform="translate(17.1 147.62) rotate(-80.36)"/><path class="cls-9" d="M102.27,75.93c1.76,8.15,3.94,18.82-3.49,27.63a.88.88,0,0,0,.56,1.42c4.41.63,11.53.43,14.22-1,4.63-2.41,8.35-8.63,6.13-19.68a1.32,1.32,0,0,0-1.24-1.06c-4.53-.2-10-1.6-12.6-7.91C104.68,72.48,101.74,73.5,102.27,75.93Z"/><path class="cls-9" d="M10,16.47l2.89.49.29-1.68-2.9-.49a.85.85,0,0,0-1,.7h0A.85.85,0,0,0,10,16.47Z"/><path class="cls-9" d="M9.1,20.32a.84.84,0,0,0-.93.53l3.55,1.64L12,20.81Z"/><path class="cls-9" d="M10,10a.85.85,0,0,0,.71.84l2.89.49.29-1.68Z"/><path class="cls-9" d="M17.37,23.69,78.43,39.56A2.08,2.08,0,0,0,81,37.9l3.35-19.73a2.07,2.07,0,0,0-1.87-2.4L19.6,10.59a2,2,0,0,0-1.84.84A15.92,15.92,0,0,0,15.91,22.3,2,2,0,0,0,17.37,23.69Z"/><path class="cls-8" d="M45.84,30.62c-1.92,2.05,9.89,5.46,10.88,2.82,1.93-5.12,9-15.2,13.86-18.65.49-.35-5.09-.73-5.64-.46C59.82,16.79,51.8,24.23,45.84,30.62Z"/><path class="cls-8" d="M77.5,33.08l4.18.71-.45,2.65-4.18-.71A1.35,1.35,0,0,1,76,34.18h0A1.35,1.35,0,0,1,77.5,33.08Z"/><path class="cls-8" d="M78.7,26l4.19.71-.45,2.65-4.19-.71a1.34,1.34,0,0,1-1.1-1.55h0A1.35,1.35,0,0,1,78.7,26Z"/><path class="cls-8" d="M79.91,18.92l4.18.71-.45,2.65-4.18-.71A1.33,1.33,0,0,1,78.36,20h0A1.34,1.34,0,0,1,79.91,18.92Z"/><path class="cls-8" d="M39,27.66,20.62,22.81a1.79,1.79,0,0,1-1.28-2.18h0l21.88,5.75h0A1.78,1.78,0,0,1,39,27.66Z"/><path class="cls-8" d="M41.31,13.82l-19-1.51A1.79,1.79,0,0,0,20.4,14h0L43,15.74h0A1.78,1.78,0,0,0,41.31,13.82Z"/><circle class="cls-9" cx="84.56" cy="49.41" r="2.84"/><circle class="cls-9" cx="96.03" cy="51.35" r="2.84"/><circle class="cls-9" cx="107.49" cy="53.3" r="2.84"/><rect class="cls-9" x="50.57" y="-12.66" width="2.14" height="41.72" rx="1.07" transform="matrix(0.04, -1, 1, 0.04, 41.61, 59.52)"/><rect class="cls-9" x="77.46" y="4.61" width="2.14" height="9.09" rx="1.07" transform="translate(66.59 87.31) rotate(-87.97)"/><rect class="cls-9" x="23.74" y="2.7" width="2.14" height="9.09" rx="1.07" transform="translate(16.69 31.78) rotate(-87.97)"/><circle class="cls-8" cx="103.23" cy="13.35" r="4.87"/><circle class="cls-9" cx="103.23" cy="13.35" r="3.44"/><path class="cls-9" d="M64.59,50.2,61,49.15l.81-4.77a1.88,1.88,0,0,1,2.16-1.54h0A1.88,1.88,0,0,1,65.47,45Z"/><path class="cls-9" d="M55.13,47.44l-3.62-1.06.78-4.6a1.87,1.87,0,0,1,2.16-1.53h0A1.86,1.86,0,0,1,56,42.41Z"/><path class="cls-9" d="M45.67,44.67l-3.62-1.06.82-4.8A1.86,1.86,0,0,1,45,37.28h0a1.87,1.87,0,0,1,1.53,2.15Z"/><path class="cls-9" d="M36.21,41.9l-3.62-1,.76-4.46a1.86,1.86,0,0,1,2.16-1.53h0A1.86,1.86,0,0,1,37,37Z"/><path class="cls-9" d="M26.75,39.14l-3.61-1.06L23.83,34A1.86,1.86,0,0,1,26,32.48h0a1.87,1.87,0,0,1,1.53,2.15Z"/><path class="cls-4" d="M88,39.28l4.2.71a.69.69,0,0,1,.57.8h0a.69.69,0,0,1-.8.57l-4.2-.71Z"/><path class="cls-4" d="M88.52,35.91l4.2.72a.69.69,0,0,1,.57.8h0a.69.69,0,0,1-.8.57l-4.2-.71Z"/><path class="cls-4" d="M89.09,32.55l4.21.72a.69.69,0,0,1,.56.8h0a.69.69,0,0,1-.8.57l-4.2-.72Z"/><path class="cls-4" d="M89.66,29.19l4.21.72a.7.7,0,0,1,.57.8h0a.71.71,0,0,1-.81.57l-4.2-.72Z"/><path class="cls-4" d="M90.23,25.83l4.21.71a.71.71,0,0,1,.57.81h0a.72.72,0,0,1-.81.57L90,27.2Z"/><path class="cls-4" d="M90.81,22.47l4.2.71a.7.7,0,0,1,.57.8h0a.7.7,0,0,1-.81.57l-4.2-.71Z"/><path class="cls-4" d="M91.38,19.11l4.2.71a.69.69,0,0,1,.57.8h0a.7.7,0,0,1-.8.57l-4.21-.71Z"/><path class="cls-4" d="M92,15.75l4.2.71a.69.69,0,0,1,.57.8h0a.7.7,0,0,1-.8.57l-4.21-.71Z"/></g></g></svg>