<svg xmlns="http://www.w3.org/2000/svg" viewBox="0 0 563.36 307.91"><defs><style>.cls-1{fill:#78bbcf;}.cls-2{fill:#f2f9fd;}.cls-3{fill:#96ae56;}.cls-4{fill:#b2ce65;}.cls-5{fill:none;stroke:#5e5c5c;stroke-miterlimit:10;}</style></defs><g id="レイヤー_2" data-name="レイヤー 2"><g id="スタンプラリー説明"><g id="説明文"><rect class="cls-1" y="63.08" width="563.36" height="244.83" rx="9.97"/><rect class="cls-2" y="46.42" width="563.36" height="244.83" rx="9.97"/><circle class="cls-3" cx="281.68" cy="28.6" r="7.82"/><path class="cls-2" d="M254.43,27.24V28.8a11,11,0,0,0,11,11h0a11,11,0,0,0,11-11V27.24A5.24,5.24,0,0,1,281.68,22h0a5.25,5.25,0,0,1,5.24,5.24V52h22V27.24A27.24,27.24,0,0,0,281.68,0h0A27.25,27.25,0,0,0,254.43,27.24Z"/><circle class="cls-4" cx="281.68" cy="26.01" r="7.82"/><line class="cls-5" x1="37.85" y1="96.16" x2="525.51" y2="96.16"/><line class="cls-5" x1="37.85" y1="134.83" x2="525.51" y2="134.83"/><line class="cls-5" x1="37.85" y1="173.5" x2="525.51" y2="173.5"/><line class="cls-5" x1="37.85" y1="212.17" x2="525.51" y2="212.17"/><line class="cls-5" x1="37.85" y1="250.84" x2="525.51" y2="250.84"/></g></g></g></svg>