<svg xmlns="http://www.w3.org/2000/svg" viewBox="0 0 67.06 77.68"><defs><style>.cls-1{fill:#78bccf;}.cls-2{fill:#f3fafe;}.cls-3{fill:#b3ce65;}.cls-4{fill:#fff;}</style></defs><g id="レイヤー_2" data-name="レイヤー 2"><g id="スタンプラリー"><circle class="cls-1" cx="33.53" cy="44.15" r="33.53"/><circle class="cls-2" cx="33.53" cy="33.53" r="33.53"/><path class="cls-3" d="M42.45,21h0a4.37,4.37,0,0,0-4.37-4.36H29A4.37,4.37,0,0,0,24.61,21H18.09a4.74,4.74,0,0,0-4.74,4.74V41.41a4.74,4.74,0,0,0,4.74,4.74H49a4.74,4.74,0,0,0,4.74-4.74V25.74A4.74,4.74,0,0,0,49,21Z"/><circle class="cls-4" cx="33.53" cy="33.53" r="8.24"/><circle class="cls-3" cx="33.53" cy="33.53" r="6.1"/></g></g></svg>