<svg xmlns="http://www.w3.org/2000/svg" viewBox="0 0 440.8 180.67"><defs><style>.cls-1{fill:#e2b2c9;}.cls-2{fill:#78bccf;}.cls-3{fill:#f3fafe;}.cls-4{fill:#f3c0d8;}.cls-5{fill:#dfbd56;}.cls-6{fill:#f8d25f;}</style></defs><g id="レイヤー_2" data-name="レイヤー 2"><g id="スタンプラリー"><circle class="cls-1" cx="64.79" cy="24.88" r="6.8"/><rect class="cls-2" y="51.09" width="129.59" height="129.59" rx="8.62"/><rect class="cls-3" y="40.39" width="129.59" height="129.59" rx="8.62"/><path class="cls-3" d="M41.09,23.71v1.35a9.56,9.56,0,0,0,9.57,9.57h0a9.56,9.56,0,0,0,9.57-9.57V23.71a4.56,4.56,0,0,1,4.56-4.56h0a4.56,4.56,0,0,1,4.56,4.56V45.27H88.5V23.71A23.7,23.7,0,0,0,64.79,0h0A23.7,23.7,0,0,0,41.09,23.71Z"/><circle class="cls-4" cx="64.79" cy="22.64" r="6.8"/><rect class="cls-2" x="155.61" y="51.09" width="129.59" height="129.59" rx="8.62"/><rect class="cls-3" x="155.61" y="40.39" width="129.59" height="129.59" rx="8.62"/><circle class="cls-5" cx="220.4" cy="24.88" r="6.8"/><path class="cls-3" d="M196.7,23.71v1.35a9.56,9.56,0,0,0,9.57,9.57h0a9.56,9.56,0,0,0,9.57-9.57V23.71a4.56,4.56,0,0,1,4.56-4.56h0A4.56,4.56,0,0,1,225,23.71V45.27h19.15V23.71A23.7,23.7,0,0,0,220.4,0h0A23.7,23.7,0,0,0,196.7,23.71Z"/><circle class="cls-6" cx="220.4" cy="22.64" r="6.8"/><rect class="cls-2" x="311.22" y="51.09" width="129.59" height="129.59" rx="8.62"/><rect class="cls-3" x="311.22" y="40.39" width="129.59" height="129.59" rx="8.62"/><circle class="cls-1" cx="376.01" cy="24.88" r="6.8"/><path class="cls-3" d="M352.31,23.71v1.35a9.56,9.56,0,0,0,9.57,9.57h0a9.56,9.56,0,0,0,9.57-9.57V23.71A4.56,4.56,0,0,1,376,19.15h0a4.56,4.56,0,0,1,4.56,4.56V45.27h19.15V23.71A23.71,23.71,0,0,0,376,0h0A23.7,23.7,0,0,0,352.31,23.71Z"/><circle class="cls-4" cx="376.01" cy="22.64" r="6.8"/></g></g></svg>