<svg xmlns="http://www.w3.org/2000/svg" xmlns:xlink="http://www.w3.org/1999/xlink" viewBox="0 0 154.02 132.83"><defs><style>.cls-1,.cls-4{fill:none;}.cls-2{fill:#deeee9;}.cls-3{fill:url(#新規パターンスウォッチ_3);}.cls-4{stroke-width:8px;stroke:url(#新規パターンスウォッチ_3);}.cls-5{clip-path:url(#clip-path);}.cls-6{fill:#78bccf;}.cls-7{fill:#5b9fb3;}.cls-8{fill:#5da6bc;}.cls-9{fill:#dde3e7;}.cls-10{fill:#edaecb;}.cls-11{fill:#b3ce65;}.cls-12{fill:#97af56;}.cls-13{fill:#f8d25f;}.cls-14{fill:#eec55a;}</style><pattern id="新規パターンスウォッチ_3" data-name="新規パターンスウォッチ 3" width="30.78" height="26.28" patternTransform="translate(-57.86 -18.35) rotate(-7.14) scale(0.84)" patternUnits="userSpaceOnUse" viewBox="0 0 30.78 26.28"><rect class="cls-1" width="30.78" height="26.28"/><rect class="cls-2" width="30.78" height="26.28"/></pattern><clipPath id="clip-path"><rect class="cls-1" x="35.89" y="58.83" width="89.8" height="56.11" transform="translate(-10.18 10.72) rotate(-7.14)"/></clipPath></defs><g id="レイヤー_2" data-name="レイヤー 2"><g id="スタンプラリー"><polygon class="cls-3" points="146.65 57.32 128.27 59.62 126.29 43.89 143.62 45.83 146.65 57.32"/><polygon class="cls-3" points="80.61 13.86 64.17 15.92 63.97 14.29 80.41 12.22 80.61 13.86"/><polygon class="cls-3" points="29.17 105.86 9.66 108.3 7.78 93.26 25.28 85.22 29.17 105.86"/><path class="cls-4" d="M128.47,109.89,39.55,121a4.16,4.16,0,0,1-4.65-3.62L23.75,28.5a4.18,4.18,0,0,1,3.62-4.66L116.29,12.7A4.17,4.17,0,0,1,121,16.32l11.14,88.91A4.17,4.17,0,0,1,128.47,109.89Z"/><g class="cls-5"><circle class="cls-4" cx="33.91" cy="65.54" r="1.04"/><circle class="cls-4" cx="38.4" cy="64.98" r="1.04"/><circle class="cls-4" cx="42.89" cy="64.42" r="1.04"/><circle class="cls-4" cx="47.38" cy="63.85" r="1.04"/><circle class="cls-4" cx="51.87" cy="63.29" r="1.04"/><circle class="cls-4" cx="56.35" cy="62.73" r="1.04"/><circle class="cls-4" cx="60.84" cy="62.17" r="1.04"/><circle class="cls-4" cx="65.33" cy="61.6" r="1.04"/><circle class="cls-4" cx="69.82" cy="61.04" r="1.04"/><circle class="cls-4" cx="74.31" cy="60.48" r="1.04"/><circle class="cls-4" cx="78.8" cy="59.92" r="1.04"/><circle class="cls-4" cx="83.29" cy="59.35" r="1.04"/><circle class="cls-4" cx="87.77" cy="58.79" r="1.04"/><circle class="cls-4" cx="92.26" cy="58.23" r="1.04"/><circle class="cls-4" cx="96.75" cy="57.67" r="1.04"/><circle class="cls-4" cx="101.24" cy="57.1" r="1.04"/><circle class="cls-4" cx="105.73" cy="56.54" r="1.04"/><circle class="cls-4" cx="110.22" cy="55.98" r="1.04"/><circle class="cls-4" cx="114.71" cy="55.42" r="1.04"/><circle class="cls-4" cx="119.19" cy="54.85" r="1.04"/><circle class="cls-4" cx="34.65" cy="71.46" r="1.04"/><circle class="cls-4" cx="39.14" cy="70.9" r="1.04"/><circle class="cls-4" cx="43.63" cy="70.33" r="1.04"/><circle class="cls-4" cx="48.12" cy="69.77" r="1.04"/><circle class="cls-4" cx="52.61" cy="69.21" r="1.04"/><circle class="cls-4" cx="57.1" cy="68.65" r="1.04"/><circle class="cls-4" cx="61.58" cy="68.08" r="1.04"/><circle class="cls-4" cx="66.07" cy="67.52" r="1.04"/><circle class="cls-4" cx="70.56" cy="66.96" r="1.04"/><circle class="cls-4" cx="75.05" cy="66.4" r="1.04"/><circle class="cls-4" cx="79.54" cy="65.83" r="1.04"/><circle class="cls-4" cx="84.03" cy="65.27" r="1.04"/><circle class="cls-4" cx="88.52" cy="64.71" r="1.04"/><circle class="cls-4" cx="93" cy="64.15" r="1.04"/><circle class="cls-4" cx="97.49" cy="63.58" r="1.04"/><circle class="cls-4" cx="101.98" cy="63.02" r="1.04"/><circle class="cls-4" cx="106.47" cy="62.46" r="1.04"/><circle class="cls-4" cx="110.96" cy="61.9" r="1.04"/><circle class="cls-4" cx="115.45" cy="61.33" r="1.04"/><circle class="cls-4" cx="119.94" cy="60.77" r="1.04"/><circle class="cls-4" cx="35.4" cy="77.38" r="1.04"/><circle class="cls-4" cx="39.88" cy="76.81" r="1.04"/><circle class="cls-4" cx="44.37" cy="76.25" r="1.04"/><circle class="cls-4" cx="48.86" cy="75.69" r="1.04"/><circle class="cls-4" cx="53.35" cy="75.13" r="1.04"/><circle class="cls-4" cx="57.84" cy="74.56" r="1.04"/><circle class="cls-4" cx="62.33" cy="74" r="1.04"/><circle class="cls-4" cx="66.81" cy="73.44" r="1.04"/><circle class="cls-4" cx="71.3" cy="72.88" r="1.04"/><circle class="cls-4" cx="75.79" cy="72.31" r="1.04"/><circle class="cls-4" cx="80.28" cy="71.75" r="1.04"/><circle class="cls-4" cx="84.77" cy="71.19" r="1.04"/><circle class="cls-4" cx="89.26" cy="70.63" r="1.04"/><circle class="cls-4" cx="93.75" cy="70.06" r="1.04"/><circle class="cls-4" cx="98.23" cy="69.5" r="1.04"/><circle class="cls-4" cx="102.72" cy="68.94" r="1.04"/><circle class="cls-4" cx="107.21" cy="68.38" r="1.04"/><circle class="cls-4" cx="111.7" cy="67.81" r="1.04"/><circle class="cls-4" cx="116.19" cy="67.25" r="1.04"/><circle class="cls-4" cx="120.68" cy="66.69" r="1.04"/><circle class="cls-4" cx="36.14" cy="83.29" r="1.04"/><circle class="cls-4" cx="40.63" cy="82.73" r="1.04"/><circle class="cls-4" cx="45.11" cy="82.17" r="1.04"/><circle class="cls-4" cx="49.6" cy="81.61" r="1.04"/><circle class="cls-4" cx="54.09" cy="81.04" r="1.04"/><circle class="cls-4" cx="58.58" cy="80.48" r="1.04"/><circle class="cls-4" cx="63.07" cy="79.92" r="1.04"/><circle class="cls-4" cx="67.56" cy="79.36" r="1.04"/><circle class="cls-4" cx="72.04" cy="78.79" r="1.04"/><circle class="cls-4" cx="76.53" cy="78.23" r="1.04"/><circle class="cls-4" cx="81.02" cy="77.67" r="1.04"/><circle class="cls-4" cx="85.51" cy="77.11" r="1.04"/><circle class="cls-4" cx="90" cy="76.54" r="1.04"/><circle class="cls-4" cx="94.49" cy="75.98" r="1.04"/><circle class="cls-4" cx="98.98" cy="75.42" r="1.04"/><circle class="cls-4" cx="103.46" cy="74.86" r="1.04"/><circle class="cls-4" cx="107.95" cy="74.29" r="1.04"/><circle class="cls-4" cx="112.44" cy="73.73" r="1.04"/><circle class="cls-4" cx="116.93" cy="73.17" r="1.04"/><circle class="cls-4" cx="121.42" cy="72.61" r="1.04"/><circle class="cls-4" cx="36.88" cy="89.21" r="1.04"/><circle class="cls-4" cx="41.37" cy="88.65" r="1.04"/><circle class="cls-4" cx="45.86" cy="88.09" r="1.04"/><circle class="cls-4" cx="50.34" cy="87.52" r="1.04"/><circle class="cls-4" cx="54.83" cy="86.96" r="1.04"/><circle class="cls-4" cx="59.32" cy="86.4" r="1.04"/><circle class="cls-4" cx="63.81" cy="85.84" r="1.04"/><circle class="cls-4" cx="68.3" cy="85.27" r="1.04"/><circle class="cls-4" cx="72.79" cy="84.71" r="1.04"/><circle class="cls-4" cx="77.28" cy="84.15" r="1.04"/><circle class="cls-4" cx="81.76" cy="83.59" r="1.04"/><circle class="cls-4" cx="86.25" cy="83.02" r="1.04"/><circle class="cls-4" cx="90.74" cy="82.46" r="1.04"/><circle class="cls-4" cx="95.23" cy="81.9" r="1.04"/><circle class="cls-4" cx="99.72" cy="81.34" r="1.04"/><circle class="cls-4" cx="104.21" cy="80.77" r="1.04"/><circle class="cls-4" cx="108.69" cy="80.21" r="1.04"/><circle class="cls-4" cx="113.18" cy="79.65" r="1.04"/><circle class="cls-4" cx="117.67" cy="79.09" r="1.04"/><circle class="cls-4" cx="122.16" cy="78.52" r="1.04"/><circle class="cls-4" cx="37.62" cy="95.13" r="1.04"/><circle class="cls-4" cx="42.11" cy="94.57" r="1.04"/><circle class="cls-4" cx="46.6" cy="94" r="1.04"/><circle class="cls-4" cx="51.09" cy="93.44" r="1.04"/><circle class="cls-4" cx="55.57" cy="92.88" r="1.04"/><circle class="cls-4" cx="60.06" cy="92.32" r="1.04"/><circle class="cls-4" cx="64.55" cy="91.75" r="1.04"/><circle class="cls-4" cx="69.04" cy="91.19" r="1.04"/><circle class="cls-4" cx="73.53" cy="90.63" r="1.04"/><circle class="cls-4" cx="78.02" cy="90.07" r="1.04"/><circle class="cls-4" cx="82.51" cy="89.5" r="1.04"/><circle class="cls-4" cx="86.99" cy="88.94" r="1.04"/><circle class="cls-4" cx="91.48" cy="88.38" r="1.04"/><circle class="cls-4" cx="95.97" cy="87.82" r="1.04"/><circle class="cls-4" cx="100.46" cy="87.25" r="1.04"/><circle class="cls-4" cx="104.95" cy="86.69" r="1.04"/><circle class="cls-4" cx="109.44" cy="86.13" r="1.04"/><circle class="cls-4" cx="113.92" cy="85.57" r="1.04"/><circle class="cls-4" cx="118.41" cy="85" r="1.04"/><circle class="cls-4" cx="122.9" cy="84.44" r="1.04"/><circle class="cls-4" cx="38.36" cy="101.05" r="1.04"/><circle class="cls-4" cx="42.85" cy="100.48" r="1.04"/><circle class="cls-4" cx="47.34" cy="99.92" r="1.04"/><circle class="cls-4" cx="51.83" cy="99.36" r="1.04"/><circle class="cls-4" cx="56.32" cy="98.8" r="1.04"/><circle class="cls-4" cx="60.8" cy="98.23" r="1.04"/><circle class="cls-4" cx="65.29" cy="97.67" r="1.04"/><circle class="cls-4" cx="69.78" cy="97.11" r="1.04"/><circle class="cls-4" cx="74.27" cy="96.55" r="1.04"/><circle class="cls-4" cx="78.76" cy="95.98" r="1.04"/><circle class="cls-4" cx="83.25" cy="95.42" r="1.04"/><circle class="cls-4" cx="87.74" cy="94.86" r="1.04"/><circle class="cls-4" cx="92.22" cy="94.3" r="1.04"/><circle class="cls-4" cx="96.71" cy="93.73" r="1.04"/><circle class="cls-4" cx="101.2" cy="93.17" r="1.04"/><circle class="cls-4" cx="105.69" cy="92.61" r="1.04"/><circle class="cls-4" cx="110.18" cy="92.05" r="1.04"/><circle class="cls-4" cx="114.67" cy="91.48" r="1.04"/><circle class="cls-4" cx="119.15" cy="90.92" r="1.04"/><circle class="cls-4" cx="123.64" cy="90.36" r="1.04"/><circle class="cls-4" cx="39.1" cy="106.96" r="1.04"/><circle class="cls-4" cx="43.59" cy="106.4" r="1.04"/><circle class="cls-4" cx="48.08" cy="105.84" r="1.04"/><circle class="cls-4" cx="52.57" cy="105.27" r="1.04"/><circle class="cls-4" cx="57.06" cy="104.71" r="1.04"/><circle class="cls-4" cx="61.55" cy="104.15" r="1.04"/><circle class="cls-4" cx="66.03" cy="103.59" r="1.04"/><circle class="cls-4" cx="70.52" cy="103.02" r="1.04"/><circle class="cls-4" cx="75.01" cy="102.46" r="1.04"/><circle class="cls-4" cx="79.5" cy="101.9" r="1.04"/><circle class="cls-4" cx="83.99" cy="101.34" r="1.04"/><circle class="cls-4" cx="88.48" cy="100.77" r="1.04"/><circle class="cls-4" cx="92.97" cy="100.21" r="1.04"/><circle class="cls-4" cx="97.45" cy="99.65" r="1.04"/><circle class="cls-4" cx="101.94" cy="99.09" r="1.04"/><circle class="cls-4" cx="106.43" cy="98.53" r="1.04"/><circle class="cls-4" cx="110.92" cy="97.96" r="1.04"/><circle class="cls-4" cx="115.41" cy="97.4" r="1.04"/><circle class="cls-4" cx="119.9" cy="96.84" r="1.04"/><circle class="cls-4" cx="124.38" cy="96.28" r="1.04"/><circle class="cls-4" cx="39.84" cy="112.88" r="1.04"/><circle class="cls-4" cx="44.33" cy="112.32" r="1.04"/><circle class="cls-4" cx="48.82" cy="111.75" r="1.04"/><circle class="cls-4" cx="53.31" cy="111.19" r="1.04"/><circle class="cls-4" cx="57.8" cy="110.63" r="1.04"/><circle class="cls-4" cx="62.29" cy="110.07" r="1.04"/><circle class="cls-4" cx="66.78" cy="109.5" r="1.04"/><circle class="cls-4" cx="71.26" cy="108.94" r="1.04"/><circle class="cls-4" cx="75.75" cy="108.38" r="1.04"/><circle class="cls-4" cx="80.24" cy="107.82" r="1.04"/><circle class="cls-4" cx="84.73" cy="107.25" r="1.04"/><circle class="cls-4" cx="89.22" cy="106.69" r="1.04"/><circle class="cls-4" cx="93.71" cy="106.13" r="1.04"/><circle class="cls-4" cx="98.2" cy="105.57" r="1.04"/><circle class="cls-4" cx="102.68" cy="105" r="1.04"/><circle class="cls-4" cx="107.17" cy="104.44" r="1.04"/><circle class="cls-4" cx="111.66" cy="103.88" r="1.04"/><circle class="cls-4" cx="116.15" cy="103.32" r="1.04"/><circle class="cls-4" cx="120.64" cy="102.75" r="1.04"/><circle class="cls-4" cx="125.13" cy="102.19" r="1.04"/><circle class="cls-4" cx="40.59" cy="118.8" r="1.04"/><circle class="cls-4" cx="45.07" cy="118.23" r="1.04"/><circle class="cls-4" cx="49.56" cy="117.67" r="1.04"/><circle class="cls-4" cx="54.05" cy="117.11" r="1.04"/><circle class="cls-4" cx="58.54" cy="116.55" r="1.04"/><circle class="cls-4" cx="63.03" cy="115.98" r="1.04"/><circle class="cls-4" cx="67.52" cy="115.42" r="1.04"/><circle class="cls-4" cx="72.01" cy="114.86" r="1.04"/><circle class="cls-4" cx="76.49" cy="114.3" r="1.04"/><circle class="cls-4" cx="80.98" cy="113.73" r="1.04"/><circle class="cls-4" cx="85.47" cy="113.17" r="1.04"/><circle class="cls-4" cx="89.96" cy="112.61" r="1.04"/><circle class="cls-4" cx="94.45" cy="112.05" r="1.04"/><circle class="cls-4" cx="98.94" cy="111.48" r="1.04"/><circle class="cls-4" cx="103.43" cy="110.92" r="1.04"/><circle class="cls-4" cx="107.91" cy="110.36" r="1.04"/><circle class="cls-4" cx="112.4" cy="109.8" r="1.04"/><circle class="cls-4" cx="116.89" cy="109.23" r="1.04"/><circle class="cls-4" cx="121.38" cy="108.67" r="1.04"/><circle class="cls-4" cx="125.87" cy="108.11" r="1.04"/></g><path class="cls-4" d="M55.72,15.59,57.8,32.15l5.78-.73-2.1-16.71a2.8,2.8,0,0,1,2.44-3.13L77.84,9.83A2.81,2.81,0,0,1,81,12.27L83.08,29l5.78-.73L86.78,11.7A8.79,8.79,0,0,0,77,4.07L63.35,5.78A8.78,8.78,0,0,0,55.72,15.59Z"/><polygon class="cls-4" points="125.38 51.68 28.18 63.86 23.6 27.25 120.79 15.07 125.38 51.68"/><path class="cls-4" d="M129.2,115.69,40.28,126.83a7.09,7.09,0,0,1-7.92-6.16L21.21,31.76a7.12,7.12,0,0,1,6.16-7.93l88.92-11.14a7.1,7.1,0,0,1,7.92,6.16l11.15,88.91A7.12,7.12,0,0,1,129.2,115.69Zm-101.1-86A1.25,1.25,0,0,0,27,31l11.14,88.91A1.24,1.24,0,0,0,39.55,121l88.92-11.14a1.25,1.25,0,0,0,1.08-1.39L118.41,19.58A1.25,1.25,0,0,0,117,18.5Z"/><path class="cls-4" d="M127.09,41.85h0l-1.71-13.6-2.89.37,1.34,10.7A2.92,2.92,0,0,0,127.09,41.85Z"/><path class="cls-4" d="M131.27,98.72l2.9-.37-1.71-13.59h0A2.91,2.91,0,0,0,129.93,88Z"/><path class="cls-4" d="M119.77,116.86l-.36-2.89-10.71,1.34a2.92,2.92,0,0,0-2.53,3.26h0Z"/><path class="cls-4" d="M63.27,123.94h0A2.91,2.91,0,0,0,60,121.41l-10.71,1.34.36,2.9Z"/><path class="cls-4" d="M29.48,97.66h0l1.71,13.6,2.89-.36-1.34-10.7A2.92,2.92,0,0,0,29.48,97.66Z"/><path class="cls-4" d="M25.3,40.8l-2.9.36,1.71,13.6h0a2.92,2.92,0,0,0,2.53-3.26Z"/><path class="cls-4" d="M36.78,22.66l.37,2.9,10.7-1.35A2.91,2.91,0,0,0,50.38,21h0Z"/><path class="cls-4" d="M93.28,15.58h0a2.92,2.92,0,0,0,3.26,2.53l10.7-1.34-.36-2.89Z"/><path class="cls-4" d="M106.85,13.82l.74,5.89L117,18.54a1.25,1.25,0,0,1,1.4,1.09L119.58,29l5.91-.74a1.82,1.82,0,0,0,1.57-2l-1-7.65a9,9,0,0,0-10-7.8l-7.65,1A1.81,1.81,0,0,0,106.85,13.82Z"/><path class="cls-4" d="M134.26,98.37l-5.9.74,1.18,9.41a1.25,1.25,0,0,1-1.09,1.4L119,111.1l.74,5.91a1.81,1.81,0,0,0,2,1.57l7.65-1a9,9,0,0,0,7.79-10l-1-7.65A1.82,1.82,0,0,0,134.26,98.37Z"/><path class="cls-4" d="M22.32,41.23l5.9-.74L27,31.07a1.26,1.26,0,0,1,1.09-1.4l9.41-1.18-.74-5.9a1.81,1.81,0,0,0-2-1.57l-7.65,1a9,9,0,0,0-7.8,10l1,7.64A1.82,1.82,0,0,0,22.32,41.23Z"/><path class="cls-4" d="M49.73,125.78l-.74-5.9-9.41,1.18a1.25,1.25,0,0,1-1.4-1.09L37,110.56l-5.91.74a1.81,1.81,0,0,0-1.57,2l1,7.65a9,9,0,0,0,10,7.79l7.65-1A1.8,1.8,0,0,0,49.73,125.78Z"/><circle class="cls-4" cx="41.41" cy="45.69" r="4.45"/><circle class="cls-4" cx="55.58" cy="43.91" r="4.45"/><circle class="cls-4" cx="69.76" cy="42.13" r="4.45"/><circle class="cls-4" cx="83.93" cy="40.36" r="4.45"/><polygon class="cls-4" points="99.95 24.33 27.33 33.43 27.2 32.34 99.82 23.24 99.95 24.33"/><polygon class="cls-4" points="118.7 21.98 104.94 23.7 104.8 22.61 118.56 20.89 118.7 21.98"/><polygon class="cls-4" points="41.97 45.16 40.74 45.32 40.19 40.9 41.41 40.74 41.97 45.16"/><polygon class="cls-4" points="56.14 43.39 54.91 43.54 54.36 39.12 55.59 38.97 56.14 43.39"/><polygon class="cls-4" points="70.31 41.61 69.09 41.76 68.53 37.34 69.76 37.19 70.31 41.61"/><polygon class="cls-4" points="84.49 39.83 83.26 39.99 82.71 35.57 83.93 35.41 84.49 39.83"/><polygon class="cls-4" points="38.59 58.99 30.66 59.99 30.29 57.07 38.22 56.07 38.59 58.99"/><polygon class="cls-4" points="52.76 57.22 47.43 57.89 47.06 54.97 52.4 54.3 52.76 57.22"/><polygon class="cls-4" points="66.94 55.44 61.6 56.11 61.23 53.19 66.57 52.52 66.94 55.44"/><polygon class="cls-4" points="81.11 53.66 75.78 54.33 75.41 51.41 80.74 50.74 81.11 53.66"/><polygon class="cls-4" points="122.03 48.54 89.95 52.56 89.58 49.64 121.66 45.62 122.03 48.54"/><polygon class="cls-4" points="113.25 41.17 108.39 41.78 107.28 32.94 112.14 32.33 113.25 41.17"/><circle class="cls-4" cx="94.68" cy="39.01" r="1.88"/><polygon class="cls-4" points="112.27 40.23 109.15 40.62 108.31 33.84 111.42 33.45 112.27 40.23"/><circle class="cls-4" cx="101.76" cy="38.12" r="1.88"/><path class="cls-4" d="M53.37,110a143.39,143.39,0,0,1-14.63,1.06c-7.94.17-18.22-.07-27.31-3.53l-.69-.26c-2.19-.8-4.91-1.81-6.1-4.22C2.13,98,7.54,94,11.12,91.35c.64-.48,1.25-.93,1.76-1.34L14,89.08C17.87,86,21.84,82.8,24.55,78.71a.84.84,0,1,1,1.39.93c-2.85,4.3-6.92,7.58-10.86,10.75l-1.15.92c-.53.43-1.15.89-1.82,1.38-4.3,3.17-7.72,6.09-6,9.67.88,1.8,3.16,2.64,5.17,3.39l.7.26c8.82,3.35,18.89,3.59,26.68,3.41,16-.35,30.55-3.19,42.19-8.22,12.25-5.29,19.29-12.44,20.93-21.28.18-1,.3-2,.42-3a38.4,38.4,0,0,1,.67-4.19,13.1,13.1,0,0,1,.93-2.7c4.58-9.42,16.53-10.32,26.12-11,1.42-.11,2.78-.21,4.06-.34,1-.09,2-.15,3.09-.21,3.38-.18,6.86-.38,9.56-1.87a2.94,2.94,0,0,0,1.63-1.84,3.39,3.39,0,0,0-.82-2.58c-6.74-9.1-20.65-11.7-32-13l-.93-.1c-6.09-.68-13.67-1.52-19.28.63a.84.84,0,0,1-.6-1.56c6-2.3,13.8-1.43,20.06-.73l.93.1c11.71,1.29,26.06,4,33.19,13.62a4.92,4.92,0,0,1,1.11,3.93,4.49,4.49,0,0,1-2.46,2.94c-3,1.68-6.88,1.9-10.27,2.08-1.07.06-2.07.12-3,.21-1.29.13-2.66.23-4.09.34-9.17.68-20.58,1.53-24.74,10.09a11.2,11.2,0,0,0-.81,2.36,33.88,33.88,0,0,0-.64,4c-.12,1-.25,2.07-.44,3.11-1.75,9.41-9.12,17-21.91,22.51A104.31,104.31,0,0,1,53.37,110Z"/><path class="cls-4" d="M67.68,70.73A29.14,29.14,0,0,1,53.86,69c-4.27-1.6-9.1-3.42-13.89-2.46a19.58,19.58,0,0,0-11.62,8,.84.84,0,0,1-1.35-1,21.25,21.25,0,0,1,12.64-8.61c5.25-1,10.33.85,14.81,2.53a26.26,26.26,0,0,0,23.29-2,.83.83,0,1,1,.89,1.41A27,27,0,0,1,67.68,70.73Z"/><path class="cls-4" d="M62.73,86.37a22.78,22.78,0,0,1-10.77-1c-3.28-1.22-5.83-3.57-8.3-5.84-.65-.61-1.3-1.21-2-1.78-4.18-3.64-8.37-4.3-12.45-2a.84.84,0,1,1-.83-1.45c4.77-2.71,9.6-2,14.38,2.17.67.59,1.33,1.2,2,1.82,2.35,2.16,4.77,4.4,7.74,5.51,7,2.59,16.63,0,23.38-3.29A.84.84,0,0,1,77,81a.83.83,0,0,1-.39,1.11A46.93,46.93,0,0,1,62.73,86.37Z"/><polygon class="cls-4" points="25.92 80.4 23.82 79.02 26.84 72.92 30.33 75.23 25.92 80.4"/><polygon class="cls-4" points="76.49 78.12 77.1 78.81 79.19 76.97 78.58 76.28 76.49 78.12"/><path class="cls-4" d="M75.36,77.74l.73.83,3-2.63-.73-.83A1.61,1.61,0,0,0,76.07,75l-.56.5A1.6,1.6,0,0,0,75.36,77.74Z"/><polygon class="cls-4" points="74.5 80.52 75.77 83.03 79.2 81.29 77.94 78.78 74.5 80.52"/><circle class="cls-4" cx="79.7" cy="79.46" r="2.7"/><circle class="cls-4" cx="79.7" cy="79.46" r="1.91"/><rect class="cls-6" x="28.95" y="17.89" width="97.95" height="97.95" rx="4.17" transform="translate(-7.71 10.21) rotate(-7.14)"/><g class="cls-5"><circle class="cls-7" cx="33.91" cy="65.54" r="1.04"/><circle class="cls-7" cx="38.4" cy="64.98" r="1.04"/><circle class="cls-7" cx="42.89" cy="64.42" r="1.04"/><circle class="cls-7" cx="47.38" cy="63.85" r="1.04"/><circle class="cls-7" cx="51.87" cy="63.29" r="1.04"/><circle class="cls-7" cx="56.35" cy="62.73" r="1.04"/><circle class="cls-7" cx="60.84" cy="62.17" r="1.04"/><circle class="cls-7" cx="65.33" cy="61.6" r="1.04"/><circle class="cls-7" cx="69.82" cy="61.04" r="1.04"/><circle class="cls-7" cx="74.31" cy="60.48" r="1.04"/><circle class="cls-7" cx="78.8" cy="59.92" r="1.04"/><circle class="cls-7" cx="83.29" cy="59.35" r="1.04"/><circle class="cls-7" cx="87.77" cy="58.79" r="1.04"/><circle class="cls-7" cx="92.26" cy="58.23" r="1.04"/><circle class="cls-7" cx="96.75" cy="57.67" r="1.04"/><circle class="cls-7" cx="101.24" cy="57.1" r="1.04"/><circle class="cls-7" cx="105.73" cy="56.54" r="1.04"/><circle class="cls-7" cx="110.22" cy="55.98" r="1.04"/><circle class="cls-7" cx="114.71" cy="55.42" r="1.04"/><circle class="cls-7" cx="119.19" cy="54.85" r="1.04"/><circle class="cls-7" cx="34.65" cy="71.46" r="1.04"/><circle class="cls-7" cx="39.14" cy="70.9" r="1.04"/><circle class="cls-7" cx="43.63" cy="70.33" r="1.04"/><circle class="cls-7" cx="48.12" cy="69.77" r="1.04"/><circle class="cls-7" cx="52.61" cy="69.21" r="1.04"/><circle class="cls-7" cx="57.1" cy="68.65" r="1.04"/><circle class="cls-7" cx="61.58" cy="68.08" r="1.04"/><circle class="cls-7" cx="66.07" cy="67.52" r="1.04"/><circle class="cls-7" cx="70.56" cy="66.96" r="1.04"/><circle class="cls-7" cx="75.05" cy="66.4" r="1.04"/><circle class="cls-7" cx="79.54" cy="65.83" r="1.04"/><circle class="cls-7" cx="84.03" cy="65.27" r="1.04"/><circle class="cls-7" cx="88.52" cy="64.71" r="1.04"/><circle class="cls-7" cx="93" cy="64.15" r="1.04"/><circle class="cls-7" cx="97.49" cy="63.58" r="1.04"/><circle class="cls-7" cx="101.98" cy="63.02" r="1.04"/><circle class="cls-7" cx="106.47" cy="62.46" r="1.04"/><circle class="cls-7" cx="110.96" cy="61.9" r="1.04"/><circle class="cls-7" cx="115.45" cy="61.33" r="1.04"/><circle class="cls-7" cx="119.94" cy="60.77" r="1.04"/><circle class="cls-7" cx="35.4" cy="77.38" r="1.04"/><circle class="cls-7" cx="39.88" cy="76.81" r="1.04"/><circle class="cls-7" cx="44.37" cy="76.25" r="1.04"/><circle class="cls-7" cx="48.86" cy="75.69" r="1.04"/><circle class="cls-7" cx="53.35" cy="75.13" r="1.04"/><circle class="cls-7" cx="57.84" cy="74.56" r="1.04"/><circle class="cls-7" cx="62.33" cy="74" r="1.04"/><circle class="cls-7" cx="66.81" cy="73.44" r="1.04"/><circle class="cls-7" cx="71.3" cy="72.88" r="1.04"/><circle class="cls-7" cx="75.79" cy="72.31" r="1.04"/><circle class="cls-7" cx="80.28" cy="71.75" r="1.04"/><circle class="cls-7" cx="84.77" cy="71.19" r="1.04"/><circle class="cls-7" cx="89.26" cy="70.63" r="1.04"/><circle class="cls-7" cx="93.75" cy="70.06" r="1.04"/><circle class="cls-7" cx="98.23" cy="69.5" r="1.04"/><circle class="cls-7" cx="102.72" cy="68.94" r="1.04"/><circle class="cls-7" cx="107.21" cy="68.38" r="1.04"/><circle class="cls-7" cx="111.7" cy="67.81" r="1.04"/><circle class="cls-7" cx="116.19" cy="67.25" r="1.04"/><circle class="cls-7" cx="120.68" cy="66.69" r="1.04"/><circle class="cls-7" cx="36.14" cy="83.29" r="1.04"/><circle class="cls-7" cx="40.63" cy="82.73" r="1.04"/><circle class="cls-7" cx="45.11" cy="82.17" r="1.04"/><circle class="cls-7" cx="49.6" cy="81.61" r="1.04"/><circle class="cls-7" cx="54.09" cy="81.04" r="1.04"/><circle class="cls-7" cx="58.58" cy="80.48" r="1.04"/><circle class="cls-7" cx="63.07" cy="79.92" r="1.04"/><circle class="cls-7" cx="67.56" cy="79.36" r="1.04"/><circle class="cls-7" cx="72.04" cy="78.79" r="1.04"/><circle class="cls-7" cx="76.53" cy="78.23" r="1.04"/><circle class="cls-7" cx="81.02" cy="77.67" r="1.04"/><circle class="cls-7" cx="85.51" cy="77.11" r="1.04"/><circle class="cls-7" cx="90" cy="76.54" r="1.04"/><circle class="cls-7" cx="94.49" cy="75.98" r="1.04"/><circle class="cls-7" cx="98.98" cy="75.42" r="1.04"/><circle class="cls-7" cx="103.46" cy="74.86" r="1.04"/><circle class="cls-7" cx="107.95" cy="74.29" r="1.04"/><circle class="cls-7" cx="112.44" cy="73.73" r="1.04"/><circle class="cls-7" cx="116.93" cy="73.17" r="1.04"/><circle class="cls-7" cx="121.42" cy="72.61" r="1.04"/><circle class="cls-7" cx="36.88" cy="89.21" r="1.04"/><circle class="cls-7" cx="41.37" cy="88.65" r="1.04"/><circle class="cls-7" cx="45.86" cy="88.09" r="1.04"/><circle class="cls-7" cx="50.34" cy="87.52" r="1.04"/><circle class="cls-7" cx="54.83" cy="86.96" r="1.04"/><circle class="cls-7" cx="59.32" cy="86.4" r="1.04"/><circle class="cls-7" cx="63.81" cy="85.84" r="1.04"/><circle class="cls-7" cx="68.3" cy="85.27" r="1.04"/><circle class="cls-7" cx="72.79" cy="84.71" r="1.04"/><circle class="cls-7" cx="77.28" cy="84.15" r="1.04"/><circle class="cls-7" cx="81.76" cy="83.59" r="1.04"/><circle class="cls-7" cx="86.25" cy="83.02" r="1.04"/><circle class="cls-7" cx="90.74" cy="82.46" r="1.04"/><circle class="cls-7" cx="95.23" cy="81.9" r="1.04"/><circle class="cls-7" cx="99.72" cy="81.34" r="1.04"/><circle class="cls-7" cx="104.21" cy="80.77" r="1.04"/><circle class="cls-7" cx="108.69" cy="80.21" r="1.04"/><circle class="cls-7" cx="113.18" cy="79.65" r="1.04"/><circle class="cls-7" cx="117.67" cy="79.09" r="1.04"/><circle class="cls-7" cx="122.16" cy="78.52" r="1.04"/><circle class="cls-7" cx="37.62" cy="95.13" r="1.04"/><circle class="cls-7" cx="42.11" cy="94.57" r="1.04"/><circle class="cls-7" cx="46.6" cy="94" r="1.04"/><circle class="cls-7" cx="51.09" cy="93.44" r="1.04"/><circle class="cls-7" cx="55.57" cy="92.88" r="1.04"/><circle class="cls-7" cx="60.06" cy="92.32" r="1.04"/><circle class="cls-7" cx="64.55" cy="91.75" r="1.04"/><circle class="cls-7" cx="69.04" cy="91.19" r="1.04"/><circle class="cls-7" cx="73.53" cy="90.63" r="1.04"/><circle class="cls-7" cx="78.02" cy="90.07" r="1.04"/><circle class="cls-7" cx="82.51" cy="89.5" r="1.04"/><circle class="cls-7" cx="86.99" cy="88.94" r="1.04"/><circle class="cls-7" cx="91.48" cy="88.38" r="1.04"/><circle class="cls-7" cx="95.97" cy="87.82" r="1.04"/><circle class="cls-7" cx="100.46" cy="87.25" r="1.04"/><circle class="cls-7" cx="104.95" cy="86.69" r="1.04"/><circle class="cls-7" cx="109.44" cy="86.13" r="1.04"/><circle class="cls-7" cx="113.92" cy="85.57" r="1.04"/><circle class="cls-7" cx="118.41" cy="85" r="1.04"/><circle class="cls-7" cx="122.9" cy="84.44" r="1.04"/><circle class="cls-7" cx="38.36" cy="101.05" r="1.04"/><circle class="cls-7" cx="42.85" cy="100.48" r="1.04"/><circle class="cls-7" cx="47.34" cy="99.92" r="1.04"/><circle class="cls-7" cx="51.83" cy="99.36" r="1.04"/><circle class="cls-7" cx="56.32" cy="98.8" r="1.04"/><circle class="cls-7" cx="60.8" cy="98.23" r="1.04"/><circle class="cls-7" cx="65.29" cy="97.67" r="1.04"/><circle class="cls-7" cx="69.78" cy="97.11" r="1.04"/><circle class="cls-7" cx="74.27" cy="96.55" r="1.04"/><circle class="cls-7" cx="78.76" cy="95.98" r="1.04"/><circle class="cls-7" cx="83.25" cy="95.42" r="1.04"/><circle class="cls-7" cx="87.74" cy="94.86" r="1.04"/><circle class="cls-7" cx="92.22" cy="94.3" r="1.04"/><circle class="cls-7" cx="96.71" cy="93.73" r="1.04"/><circle class="cls-7" cx="101.2" cy="93.17" r="1.04"/><circle class="cls-7" cx="105.69" cy="92.61" r="1.04"/><circle class="cls-7" cx="110.18" cy="92.05" r="1.04"/><circle class="cls-7" cx="114.67" cy="91.48" r="1.04"/><circle class="cls-7" cx="119.15" cy="90.92" r="1.04"/><circle class="cls-7" cx="123.64" cy="90.36" r="1.04"/><circle class="cls-7" cx="39.1" cy="106.96" r="1.04"/><circle class="cls-7" cx="43.59" cy="106.4" r="1.04"/><circle class="cls-7" cx="48.08" cy="105.84" r="1.04"/><circle class="cls-7" cx="52.57" cy="105.27" r="1.04"/><circle class="cls-7" cx="57.06" cy="104.71" r="1.04"/><circle class="cls-7" cx="61.55" cy="104.15" r="1.04"/><circle class="cls-7" cx="66.03" cy="103.59" r="1.04"/><circle class="cls-7" cx="70.52" cy="103.02" r="1.04"/><circle class="cls-7" cx="75.01" cy="102.46" r="1.04"/><circle class="cls-7" cx="79.5" cy="101.9" r="1.04"/><circle class="cls-7" cx="83.99" cy="101.34" r="1.04"/><circle class="cls-7" cx="88.48" cy="100.77" r="1.04"/><circle class="cls-7" cx="92.97" cy="100.21" r="1.04"/><circle class="cls-7" cx="97.45" cy="99.65" r="1.04"/><circle class="cls-7" cx="101.94" cy="99.09" r="1.04"/><circle class="cls-7" cx="106.43" cy="98.53" r="1.04"/><circle class="cls-7" cx="110.92" cy="97.96" r="1.04"/><circle class="cls-7" cx="115.41" cy="97.4" r="1.04"/><circle class="cls-7" cx="119.9" cy="96.84" r="1.04"/><circle class="cls-7" cx="124.38" cy="96.28" r="1.04"/><circle class="cls-7" cx="39.84" cy="112.88" r="1.04"/><circle class="cls-7" cx="44.33" cy="112.32" r="1.04"/><circle class="cls-7" cx="48.82" cy="111.75" r="1.04"/><circle class="cls-7" cx="53.31" cy="111.19" r="1.04"/><circle class="cls-7" cx="57.8" cy="110.63" r="1.04"/><circle class="cls-7" cx="62.29" cy="110.07" r="1.04"/><circle class="cls-7" cx="66.78" cy="109.5" r="1.04"/><circle class="cls-7" cx="71.26" cy="108.94" r="1.04"/><circle class="cls-7" cx="75.75" cy="108.38" r="1.04"/><circle class="cls-7" cx="80.24" cy="107.82" r="1.04"/><circle class="cls-7" cx="84.73" cy="107.25" r="1.04"/><circle class="cls-7" cx="89.22" cy="106.69" r="1.04"/><circle class="cls-7" cx="93.71" cy="106.13" r="1.04"/><circle class="cls-7" cx="98.2" cy="105.57" r="1.04"/><circle class="cls-7" cx="102.68" cy="105" r="1.04"/><circle class="cls-7" cx="107.17" cy="104.44" r="1.04"/><circle class="cls-7" cx="111.66" cy="103.88" r="1.04"/><circle class="cls-7" cx="116.15" cy="103.32" r="1.04"/><circle class="cls-7" cx="120.64" cy="102.75" r="1.04"/><circle class="cls-7" cx="125.13" cy="102.19" r="1.04"/><circle class="cls-7" cx="40.59" cy="118.8" r="1.04"/><circle class="cls-7" cx="45.07" cy="118.23" r="1.04"/><circle class="cls-7" cx="49.56" cy="117.67" r="1.04"/><circle class="cls-7" cx="54.05" cy="117.11" r="1.04"/><circle class="cls-7" cx="58.54" cy="116.55" r="1.04"/><circle class="cls-7" cx="63.03" cy="115.98" r="1.04"/><circle class="cls-7" cx="67.52" cy="115.42" r="1.04"/><circle class="cls-7" cx="72.01" cy="114.86" r="1.04"/><circle class="cls-7" cx="76.49" cy="114.3" r="1.04"/><circle class="cls-7" cx="80.98" cy="113.73" r="1.04"/><circle class="cls-7" cx="85.47" cy="113.17" r="1.04"/><circle class="cls-7" cx="89.96" cy="112.61" r="1.04"/><circle class="cls-7" cx="94.45" cy="112.05" r="1.04"/><circle class="cls-7" cx="98.94" cy="111.48" r="1.04"/><circle class="cls-7" cx="103.43" cy="110.92" r="1.04"/><circle class="cls-7" cx="107.91" cy="110.36" r="1.04"/><circle class="cls-7" cx="112.4" cy="109.8" r="1.04"/><circle class="cls-7" cx="116.89" cy="109.23" r="1.04"/><circle class="cls-7" cx="121.38" cy="108.67" r="1.04"/><circle class="cls-7" cx="125.87" cy="108.11" r="1.04"/></g><path class="cls-8" d="M55.72,15.59,57.8,32.15l5.78-.73-2.1-16.71a2.8,2.8,0,0,1,2.44-3.13L77.84,9.83A2.81,2.81,0,0,1,81,12.27L83.08,29l5.78-.73L86.78,11.7A8.79,8.79,0,0,0,77,4.07L63.35,5.78A8.78,8.78,0,0,0,55.72,15.59Z"/><rect class="cls-9" x="25.51" y="21.02" width="97.95" height="36.89" transform="translate(-4.33 9.57) rotate(-7.14)"/><path class="cls-8" d="M129.2,115.69,40.28,126.83a7.09,7.09,0,0,1-7.92-6.16L21.21,31.76a7.12,7.12,0,0,1,6.16-7.93l88.92-11.14a7.1,7.1,0,0,1,7.92,6.16l11.15,88.91A7.12,7.12,0,0,1,129.2,115.69Zm-101.1-86A1.25,1.25,0,0,0,27,31l11.14,88.91A1.24,1.24,0,0,0,39.55,121l88.92-11.14a1.25,1.25,0,0,0,1.08-1.39L118.41,19.58A1.25,1.25,0,0,0,117,18.5Z"/><path class="cls-6" d="M127.09,41.85h0l-1.71-13.6-2.89.37,1.34,10.7A2.92,2.92,0,0,0,127.09,41.85Z"/><path class="cls-6" d="M131.27,98.72l2.9-.37-1.71-13.59h0A2.91,2.91,0,0,0,129.93,88Z"/><path class="cls-6" d="M119.77,116.86l-.36-2.89-10.71,1.34a2.92,2.92,0,0,0-2.53,3.26h0Z"/><path class="cls-6" d="M63.27,123.94h0A2.91,2.91,0,0,0,60,121.41l-10.71,1.34.36,2.9Z"/><path class="cls-6" d="M29.48,97.66h0l1.71,13.6,2.89-.36-1.34-10.7A2.92,2.92,0,0,0,29.48,97.66Z"/><path class="cls-6" d="M25.3,40.8l-2.9.36,1.71,13.6h0a2.92,2.92,0,0,0,2.53-3.26Z"/><path class="cls-6" d="M36.78,22.66l.37,2.9,10.7-1.35A2.91,2.91,0,0,0,50.38,21h0Z"/><path class="cls-6" d="M93.28,15.58h0a2.92,2.92,0,0,0,3.26,2.53l10.7-1.34-.36-2.89Z"/><path class="cls-10" d="M106.85,13.82l.74,5.89L117,18.54a1.25,1.25,0,0,1,1.4,1.09L119.58,29l5.91-.74a1.82,1.82,0,0,0,1.57-2l-1-7.65a9,9,0,0,0-10-7.8l-7.65,1A1.81,1.81,0,0,0,106.85,13.82Z"/><path class="cls-10" d="M134.26,98.37l-5.9.74,1.18,9.41a1.25,1.25,0,0,1-1.09,1.4L119,111.1l.74,5.91a1.81,1.81,0,0,0,2,1.57l7.65-1a9,9,0,0,0,7.79-10l-1-7.65A1.82,1.82,0,0,0,134.26,98.37Z"/><path class="cls-10" d="M22.32,41.23l5.9-.74L27,31.07a1.26,1.26,0,0,1,1.09-1.4l9.41-1.18-.74-5.9a1.81,1.81,0,0,0-2-1.57l-7.65,1a9,9,0,0,0-7.8,10l1,7.64A1.82,1.82,0,0,0,22.32,41.23Z"/><path class="cls-10" d="M49.73,125.78l-.74-5.9-9.41,1.18a1.25,1.25,0,0,1-1.4-1.09L37,110.56l-5.91.74a1.81,1.81,0,0,0-1.57,2l1,7.65a9,9,0,0,0,10,7.79l7.65-1A1.8,1.8,0,0,0,49.73,125.78Z"/><circle class="cls-11" cx="41.41" cy="45.69" r="4.45"/><circle class="cls-11" cx="55.58" cy="43.91" r="4.45"/><circle class="cls-11" cx="69.76" cy="42.13" r="4.45"/><circle class="cls-11" cx="83.93" cy="40.36" r="4.45"/><rect class="cls-12" x="26.98" y="27.79" width="73.19" height="1.1" transform="translate(-3.03 8.13) rotate(-7.14)"/><rect class="cls-12" x="104.82" y="21.75" width="13.87" height="1.1" transform="translate(-1.91 14.07) rotate(-7.14)"/><rect class="cls-12" x="40.46" y="40.8" width="1.24" height="4.45" transform="translate(-5.03 5.44) rotate(-7.14)"/><rect class="cls-12" x="54.63" y="39.03" width="1.24" height="4.45" transform="translate(-4.7 7.19) rotate(-7.14)"/><rect class="cls-12" x="68.81" y="37.25" width="1.24" height="4.45" transform="translate(-4.37 8.94) rotate(-7.14)"/><rect class="cls-12" x="82.98" y="35.47" width="1.24" height="4.45" transform="translate(-4.04 10.69) rotate(-7.14)"/><rect class="cls-12" x="30.45" y="56.56" width="7.99" height="2.94" transform="translate(-6.95 4.73) rotate(-7.14)"/><rect class="cls-12" x="47.22" y="54.62" width="5.38" height="2.94" transform="translate(-6.59 6.64) rotate(-7.14)"/><rect class="cls-12" x="61.4" y="52.84" width="5.38" height="2.94" transform="translate(-6.26 8.39) rotate(-7.14)"/><rect class="cls-12" x="75.57" y="51.07" width="5.38" height="2.94" transform="translate(-5.93 10.14) rotate(-7.14)"/><rect class="cls-12" x="89.64" y="47.62" width="32.33" height="2.94" transform="translate(-5.28 13.54) rotate(-7.14)"/><rect class="cls-11" x="107.82" y="32.6" width="4.89" height="8.91" transform="translate(-3.75 14) rotate(-7.14)"/><circle class="cls-11" cx="94.68" cy="39.01" r="1.88"/><rect class="cls-12" x="108.72" y="33.62" width="3.14" height="6.83" transform="translate(-3.75 14) rotate(-7.14)"/><circle class="cls-11" cx="101.76" cy="38.12" r="1.88"/><path class="cls-13" d="M53.37,110a143.39,143.39,0,0,1-14.63,1.06c-7.94.17-18.22-.07-27.31-3.53l-.69-.26c-2.19-.8-4.91-1.81-6.1-4.22C2.13,98,7.54,94,11.12,91.35c.64-.48,1.25-.93,1.76-1.34L14,89.08C17.87,86,21.84,82.8,24.55,78.71a.84.84,0,1,1,1.39.93c-2.85,4.3-6.92,7.58-10.86,10.75l-1.15.92c-.53.43-1.15.89-1.82,1.38-4.3,3.17-7.72,6.09-6,9.67.88,1.8,3.16,2.64,5.17,3.39l.7.26c8.82,3.35,18.89,3.59,26.68,3.41,16-.35,30.55-3.19,42.19-8.22,12.25-5.29,19.29-12.44,20.93-21.28.18-1,.3-2,.42-3a38.4,38.4,0,0,1,.67-4.19,13.1,13.1,0,0,1,.93-2.7c4.58-9.42,16.53-10.32,26.12-11,1.42-.11,2.78-.21,4.06-.34,1-.09,2-.15,3.09-.21,3.38-.18,6.86-.38,9.56-1.87a2.94,2.94,0,0,0,1.63-1.84,3.39,3.39,0,0,0-.82-2.58c-6.74-9.1-20.65-11.7-32-13l-.93-.1c-6.09-.68-13.67-1.52-19.28.63a.84.84,0,0,1-.6-1.56c6-2.3,13.8-1.43,20.06-.73l.93.1c11.71,1.29,26.06,4,33.19,13.62a4.92,4.92,0,0,1,1.11,3.93,4.49,4.49,0,0,1-2.46,2.94c-3,1.68-6.88,1.9-10.27,2.08-1.07.06-2.07.12-3,.21-1.29.13-2.66.23-4.09.34-9.17.68-20.58,1.53-24.74,10.09a11.2,11.2,0,0,0-.81,2.36,33.88,33.88,0,0,0-.64,4c-.12,1-.25,2.07-.44,3.11-1.75,9.41-9.12,17-21.91,22.51A104.31,104.31,0,0,1,53.37,110Z"/><path class="cls-13" d="M67.68,70.73A29.14,29.14,0,0,1,53.86,69c-4.27-1.6-9.1-3.42-13.89-2.46a19.58,19.58,0,0,0-11.62,8,.84.84,0,0,1-1.35-1,21.25,21.25,0,0,1,12.64-8.61c5.25-1,10.33.85,14.81,2.53a26.26,26.26,0,0,0,23.29-2,.83.83,0,1,1,.89,1.41A27,27,0,0,1,67.68,70.73Z"/><path class="cls-13" d="M62.73,86.37a22.78,22.78,0,0,1-10.77-1c-3.28-1.22-5.83-3.57-8.3-5.84-.65-.61-1.3-1.21-2-1.78-4.18-3.64-8.37-4.3-12.45-2a.84.84,0,1,1-.83-1.45c4.77-2.71,9.6-2,14.38,2.17.67.59,1.33,1.2,2,1.82,2.35,2.16,4.77,4.4,7.74,5.51,7,2.59,16.63,0,23.38-3.29A.84.84,0,0,1,77,81a.83.83,0,0,1-.39,1.11A46.93,46.93,0,0,1,62.73,86.37Z"/><polygon class="cls-14" points="25.92 80.4 23.82 79.02 26.84 72.92 30.33 75.23 25.92 80.4"/><rect class="cls-14" x="76.45" y="77.09" width="2.78" height="0.92" transform="translate(-31.84 70.93) rotate(-41.44)"/><path class="cls-13" d="M75.36,77.74l.73.83,3-2.63-.73-.83A1.61,1.61,0,0,0,76.07,75l-.56.5A1.6,1.6,0,0,0,75.36,77.74Z"/><rect class="cls-13" x="74.92" y="79.5" width="3.85" height="2.8" transform="translate(-28.25 43.41) rotate(-26.84)"/><circle class="cls-13" cx="79.7" cy="79.46" r="2.7"/><circle class="cls-14" cx="79.7" cy="79.46" r="1.91"/><rect class="cls-14" x="82.14" y="64.66" width="0.92" height="2.78" transform="translate(114.33 -34.84) rotate(68.81)"/><path class="cls-13" d="M81.88,65.69H83a1.61,1.61,0,0,1,1.61,1.61v.76A1.61,1.61,0,0,1,83,69.66H81.88a0,0,0,0,1,0,0v-4A0,0,0,0,1,81.88,65.69Z" transform="translate(116.12 -34.44) rotate(68.74)"/><rect class="cls-13" x="77.76" y="63.45" width="2.8" height="3.85" transform="translate(85.91 -37.07) rotate(54.21)"/><circle class="cls-13" cx="81.75" cy="63.51" r="2.7"/><circle class="cls-14" cx="81.75" cy="63.51" r="1.91"/></g></g></svg>