<svg xmlns="http://www.w3.org/2000/svg" xmlns:xlink="http://www.w3.org/1999/xlink" viewBox="0 0 115.31 136.4"><defs><style>.cls-1,.cls-3{fill:none;}.cls-2{fill:#deeee9;}.cls-3{stroke-width:8px;stroke:url(#新規パターンスウォッチ_3);}.cls-4{fill:#dfbd56;}.cls-5{fill:#f8d25f;}.cls-6{fill:#edaecb;}.cls-7{fill:#5da6bc;}.cls-8{fill:#f3c0d8;}</style><pattern id="新規パターンスウォッチ_3" data-name="新規パターンスウォッチ 3" width="30.78" height="26.28" patternTransform="translate(6.05 -19.32)" patternUnits="userSpaceOnUse" viewBox="0 0 30.78 26.28"><rect class="cls-1" width="30.78" height="26.28"/><rect class="cls-2" width="30.78" height="26.28"/></pattern></defs><g id="レイヤー_2" data-name="レイヤー 2"><g id="スタンプラリー"><path class="cls-3" d="M81.68,113.22l-4.61,1.71L38.37,11,38,6.38a1.26,1.26,0,0,1,2.28-.85L43,9.31Z"/><path class="cls-3" d="M39.24,5a1.2,1.2,0,0,1,1,.53L43,9.31l38.7,103.91-4.61,1.71L38.37,11,38,6.38A1.26,1.26,0,0,1,39.24,5m0-1h0a2.28,2.28,0,0,0-1.7.75A2.23,2.23,0,0,0,37,6.47l.41,4.64v.14l0,.13,38.71,103.9.35.94.93-.35L82,114.15l.94-.34-.35-.94L43.91,9l0-.13-.08-.1L41.06,4.94A2.24,2.24,0,0,0,39.24,4Z"/><polygon class="cls-3" points="77.1 100.95 74.78 108.81 77.07 114.93 79.39 107.08 77.1 100.95"/><path class="cls-3" d="M77.1,101l2.3,6.13-2.33,7.85-2.29-6.12L77.1,101M77,97.81l-.85,2.86-2.32,7.86-.09.32.11.31,2.3,6.12,1,2.8.84-2.86,2.32-7.86.1-.32-.12-.31L78,100.6,77,97.81Z"/><polygon class="cls-3" points="72.13 87.68 69.81 95.54 72.1 101.66 74.42 93.81 72.13 87.68"/><path class="cls-3" d="M72.13,87.68l2.29,6.13-2.32,7.85-2.29-6.12,2.32-7.86M72,84.53l-.85,2.87-2.32,7.85-.1.33.12.31,2.3,6.12,1,2.8.85-2.86,2.32-7.86.1-.32-.12-.31-2.29-6.13-1-2.8Z"/><polygon class="cls-3" points="67.16 74.41 64.83 82.27 67.13 88.39 69.45 80.54 67.16 74.41"/><path class="cls-3" d="M67.16,74.41l2.29,6.13-2.32,7.85-2.29-6.12,2.32-7.86M67,71.26l-.84,2.87L63.88,82l-.1.32.12.32,2.29,6.12,1,2.8.85-2.86,2.32-7.86.1-.32-.12-.31-2.3-6.13-1-2.8Z"/><polygon class="cls-3" points="62.28 61.11 59.95 68.96 62.25 75.09 64.57 67.23 62.28 61.11"/><path class="cls-3" d="M62.28,61.11l2.29,6.12-2.32,7.86L60,69l2.32-7.85M62.16,58l-.84,2.86L59,68.68l-.1.32.12.31,2.29,6.13,1,2.8.85-2.87,2.32-7.85.1-.33-.12-.31-2.3-6.12L62.16,58Z"/><polygon class="cls-3" points="57.3 47.84 54.98 55.69 57.28 61.81 59.6 53.96 57.3 47.84"/><polygon class="cls-3" points="52.42 34.53 50.1 42.38 52.4 48.51 54.72 40.66 52.42 34.53"/><polygon class="cls-3" points="47.53 21.48 45.21 29.33 47.51 35.46 49.83 27.6 47.53 21.48"/><path class="cls-3" d="M37.31,20.38A56.33,56.33,0,0,0,12.65,91.25c.47,1.13,4.09,12.55,2.41,23.69-.84,5.62,6.57,4.5,4.51-2-4.4-13.78-1.09-19.6-.31-20.35a35.73,35.73,0,0,1,20.8-10.08,3.93,3.93,0,0,0,2.54-1.32c6.6-7.54,16.74-10.43,20.54-11.29a4.13,4.13,0,0,0,2.37-1.52c2.37-3.15,9.61-11.33,21.11-11.93a4,4,0,0,0,2.87-1.42A36.72,36.72,0,0,1,108.33,43.3a4.07,4.07,0,0,0,2.22-6.3A56.32,56.32,0,0,0,37.31,20.38Z"/><path class="cls-3" d="M83.83,112.45,87,121a3,3,0,0,0,3.84,1.77h0a3,3,0,0,0,1.77-3.84l-1.52-4.13a4.71,4.71,0,0,1,2.8-6h0a4.71,4.71,0,0,1,6,2.8l1.52,4.13a12.41,12.41,0,0,1-7.37,15.94h0a12.42,12.42,0,0,1-15.94-7.37L75,115.7Z"/><path class="cls-3" d="M40.89,10.39A56.31,56.31,0,0,0,5.62,76.62a18.21,18.21,0,0,0,2.53,4.93c4.65,5.37,2.14,19.2,5.91,16,5.56-4.8-5-11.61,2.8-19.33,4.51-4.44,7.42-6.43,17.19-6a4,4,0,0,0,2.71-.92c7.69-6.44,18.15-7.74,22-8a4,4,0,0,0,2.58-1.14c2.83-2.75,11.24-9.72,22.69-8.54a4,4,0,0,0,3.06-1,36.84,36.84,0,0,1,20.42-8.72,4.06,4.06,0,0,0,3.16-5.88A56.32,56.32,0,0,0,40.89,10.39Z"/><path class="cls-3" d="M101.38,24.11a10.61,10.61,0,0,1-2.94.52,1.17,1.17,0,0,0-.78.35,12.2,12.2,0,0,1-6.4,3,1.25,1.25,0,0,0-.75.41,8.81,8.81,0,0,1-6.58,3.18,1.22,1.22,0,0,0-.89.37,11.12,11.12,0,0,1-5.9,3.18A1.2,1.2,0,0,0,76.35,37c1.14,1.53,9.37-.3,17.27-4a45.37,45.37,0,0,0,10-6.27"/><path class="cls-3" d="M24.4,65.23c7.89-3.74,12.83-8.17,13.24-10.39a1.07,1.07,0,0,0-2-.54,9.49,9.49,0,0,1-6.45,2.63,1.18,1.18,0,0,0-.79.35,12.12,12.12,0,0,1-6.4,3,1.25,1.25,0,0,0-.74.41,8.82,8.82,0,0,1-6.59,3.18,1.21,1.21,0,0,0-.89.38,11.13,11.13,0,0,1-5.9,3.17,1.2,1.2,0,0,0-.79,1.85C8.27,70.8,16.5,69,24.4,65.23Z"/><path class="cls-3" d="M43.22,38.91c7.9-3.74,12.83-8.16,13.25-10.39a1.07,1.07,0,0,0-2-.53,9.57,9.57,0,0,1-6.46,2.63,1.18,1.18,0,0,0-.79.35,12.17,12.17,0,0,1-6.4,3,1.2,1.2,0,0,0-.74.41,8.86,8.86,0,0,1-6.58,3.18,1.22,1.22,0,0,0-.9.37,11.1,11.1,0,0,1-5.89,3.17A1.21,1.21,0,0,0,26,43C27.09,44.48,35.32,42.65,43.22,38.91Z"/><path class="cls-3" d="M27.29,17.85a8.07,8.07,0,0,1-3.19,2S18.46,24.6,15.45,29c-.11.17.37-.17.56-.26C23.9,25,28.84,20.61,29.25,18.39A1.07,1.07,0,0,0,27.29,17.85Z"/><path class="cls-3" d="M65.57,7.23A8.22,8.22,0,0,1,60.43,9a1.19,1.19,0,0,0-.89.38,11.16,11.16,0,0,1-5.9,3.17,1.2,1.2,0,0,0-.79,1.85c1.14,1.53,9.37-.3,17.27-4,1.26-.6,2.25-1.15,3.54-1.84A45.65,45.65,0,0,0,65.57,7.23Z"/><path class="cls-4" d="M81.68,113.22l-4.61,1.71L38.37,11,38,6.38a1.26,1.26,0,0,1,2.28-.85L43,9.31Z"/><polygon class="cls-5" points="77.1 100.95 74.78 108.81 77.07 114.93 79.39 107.08 77.1 100.95"/><polygon class="cls-5" points="72.13 87.68 69.81 95.54 72.1 101.66 74.42 93.81 72.13 87.68"/><polygon class="cls-5" points="67.16 74.41 64.83 82.27 67.13 88.39 69.45 80.54 67.16 74.41"/><polygon class="cls-5" points="62.28 61.11 59.95 68.96 62.25 75.09 64.57 67.23 62.28 61.11"/><polygon class="cls-6" points="57.3 47.84 54.98 55.69 57.28 61.81 59.6 53.96 57.3 47.84"/><polygon class="cls-6" points="52.42 34.53 50.1 42.38 52.4 48.51 54.72 40.66 52.42 34.53"/><polygon class="cls-6" points="47.53 21.48 45.21 29.33 47.51 35.46 49.83 27.6 47.53 21.48"/><path class="cls-6" d="M37.31,20.38A56.33,56.33,0,0,0,12.65,91.25c.47,1.13,4.09,12.55,2.41,23.69-.84,5.62,6.57,4.5,4.51-2-4.4-13.78-1.09-19.6-.31-20.35a35.73,35.73,0,0,1,20.8-10.08,3.93,3.93,0,0,0,2.54-1.32c6.6-7.54,16.74-10.43,20.54-11.29a4.13,4.13,0,0,0,2.37-1.52c2.37-3.15,9.61-11.33,21.11-11.93a4,4,0,0,0,2.87-1.42A36.72,36.72,0,0,1,108.33,43.3a4.07,4.07,0,0,0,2.22-6.3A56.32,56.32,0,0,0,37.31,20.38Z"/><path class="cls-7" d="M83.83,112.45,87,121a3,3,0,0,0,3.84,1.77h0a3,3,0,0,0,1.77-3.84l-1.52-4.13a4.71,4.71,0,0,1,2.8-6h0a4.71,4.71,0,0,1,6,2.8l1.52,4.13a12.41,12.41,0,0,1-7.37,15.94h0a12.42,12.42,0,0,1-15.94-7.37L75,115.7Z"/><path class="cls-8" d="M40.89,10.39A56.31,56.31,0,0,0,5.62,76.62a18.21,18.21,0,0,0,2.53,4.93c4.65,5.37,2.14,19.2,5.91,16,5.56-4.8-5-11.61,2.8-19.33,4.51-4.44,7.42-6.43,17.19-6a4,4,0,0,0,2.71-.92c7.69-6.44,18.15-7.74,22-8a4,4,0,0,0,2.58-1.14c2.83-2.75,11.24-9.72,22.69-8.54a4,4,0,0,0,3.06-1,36.84,36.84,0,0,1,20.42-8.72,4.06,4.06,0,0,0,3.16-5.88A56.32,56.32,0,0,0,40.89,10.39Z"/><path class="cls-6" d="M101.38,24.11a10.61,10.61,0,0,1-2.94.52,1.17,1.17,0,0,0-.78.35,12.2,12.2,0,0,1-6.4,3,1.25,1.25,0,0,0-.75.41,8.81,8.81,0,0,1-6.58,3.18,1.22,1.22,0,0,0-.89.37,11.12,11.12,0,0,1-5.9,3.18A1.2,1.2,0,0,0,76.35,37c1.14,1.53,9.37-.3,17.27-4a45.37,45.37,0,0,0,10-6.27"/><path class="cls-6" d="M24.4,65.23c7.89-3.74,12.83-8.17,13.24-10.39a1.07,1.07,0,0,0-2-.54,9.49,9.49,0,0,1-6.45,2.63,1.18,1.18,0,0,0-.79.35,12.12,12.12,0,0,1-6.4,3,1.25,1.25,0,0,0-.74.41,8.82,8.82,0,0,1-6.59,3.18,1.21,1.21,0,0,0-.89.38,11.13,11.13,0,0,1-5.9,3.17,1.2,1.2,0,0,0-.79,1.85C8.27,70.8,16.5,69,24.4,65.23Z"/><path class="cls-6" d="M43.22,38.91c7.9-3.74,12.83-8.16,13.25-10.39a1.07,1.07,0,0,0-2-.53,9.57,9.57,0,0,1-6.46,2.63,1.18,1.18,0,0,0-.79.35,12.17,12.17,0,0,1-6.4,3,1.2,1.2,0,0,0-.74.41,8.86,8.86,0,0,1-6.58,3.18,1.22,1.22,0,0,0-.9.37,11.1,11.1,0,0,1-5.89,3.17A1.21,1.21,0,0,0,26,43C27.09,44.48,35.32,42.65,43.22,38.91Z"/><path class="cls-6" d="M27.29,17.85a8.07,8.07,0,0,1-3.19,2S18.46,24.6,15.45,29c-.11.17.37-.17.56-.26C23.9,25,28.84,20.61,29.25,18.39A1.07,1.07,0,0,0,27.29,17.85Z"/><path class="cls-6" d="M65.57,7.23A8.22,8.22,0,0,1,60.43,9a1.19,1.19,0,0,0-.89.38,11.16,11.16,0,0,1-5.9,3.17,1.2,1.2,0,0,0-.79,1.85c1.14,1.53,9.37-.3,17.27-4,1.26-.6,2.25-1.15,3.54-1.84A45.65,45.65,0,0,0,65.57,7.23Z"/></g></g></svg>