<?xml version="1.0" encoding="UTF-8"?><svg id="_レイヤー_2" xmlns="http://www.w3.org/2000/svg" viewBox="0 0 457.34 114.93"><defs><style>.cls-1{fill:#f6f6f6;}.cls-2{fill:#666464;}.cls-3{fill:#f3f8f9;}.cls-4{fill:#75b6c1;}</style></defs><g id="_レイヤー_2-2"><g><polygon class="cls-1" points="366.18 101.76 448.56 114.93 457.34 72.13 374.96 58.96 366.18 101.76"/><path class="cls-4" d="M422.78,85.08l-59.96-12.27,3.28,28.95s29.76-7.76,56.68-16.68Z"/><g><polygon class="cls-1" points="91.16 101.55 8.78 114.72 0 71.92 82.39 58.75 91.16 101.55"/><path class="cls-4" d="M32.89,83.81l58.28,17.47v-29.1s-30.48,5.11-58.28,11.63Z"/><path class="cls-3" d="M422.38,85.33c-128.55-30.33-260.25-30.71-388.98-1.19-6.02-19.43-12.05-38.86-18.07-58.3C155.95-7.4,300.38-7.78,441.19,24.65c-6.27,20.23-12.54,40.45-18.81,60.68Z"/></g></g></g><g id="_レイヤー_3"><g><path class="cls-2" d="M163.94,28.27l-.6-10.52,37.99-2.17,.6,10.52-37.99,2.17Zm31.61,10.61c-.25,7.33-3.5,13.07-15.75,13.77l-13.46,.77-.66-11.62,11.78-.67c3.77-.22,4.82-1.07,4.97-2.93l-18.49,1.06-.52-9.01,39.29-2.24,.6,10.44-7.76,.44Z"/><path class="cls-2" d="M207.58,38.59l-.03-12.52,35.99-.09,.03,12.52-35.99,.09Z"/><path class="cls-2" d="M270.18,46.16l-1.8-.09,1.12,6.32-12.29-.6-3.24-17.99,15.44,.76c2.81,.14,4.72-1.07,4.87-4.01l.09-1.85-25.59-1.26,.58-11.75,38.47,1.89-.59,12.04c-.51,10.32-8.15,16.97-17.04,16.53Z"/></g></g></svg>