<?xml version="1.0" encoding="UTF-8"?><svg id="_レイヤー_2" xmlns="http://www.w3.org/2000/svg" viewBox="0 0 457.67 163.99"><defs><style>.cls-1{fill:#f6f6f6;}.cls-2{fill:#666464;font-family:VDL-LogoJrBlack-Black, 'VDL LogoJrBlack-Black-83pv-RKSJ-H';font-size:42px;}.cls-3{fill:#f3f8f9;}.cls-4{fill:#75b6c1;}</style></defs><g id="_レイヤー_2-2"><g><polygon class="cls-1" points="366.18 101.76 448.56 114.93 457.34 72.13 374.96 58.96 366.18 101.76"/><path class="cls-4" d="M422.78,85.08l-59.96-12.27,3.28,28.95s29.76-7.76,56.68-16.68Z"/><g><polygon class="cls-1" points="91.16 101.55 8.78 114.72 0 71.92 82.39 58.75 91.16 101.55"/><path class="cls-4" d="M32.89,83.81l58.28,17.47v-29.1s-30.48,5.11-58.28,11.63Z"/><path class="cls-3" d="M422.38,85.33c-128.55-30.33-260.25-30.71-388.98-1.19-6.02-19.43-12.05-38.86-18.07-58.3C155.95-7.4,300.38-7.78,441.19,24.65c-6.27,20.23-12.54,40.45-18.81,60.68Z"/></g></g></g><g id="_レイヤー_3"><text class="cls-2" transform="translate(166.26 50.87) rotate(-3.27)"><tspan x="0" y="0">テ</tspan></text><text class="cls-2" transform="translate(207.8 48.5) rotate(-.15)"><tspan x="0" y="0">ー</tspan></text><text class="cls-2" transform="translate(249.41 48.38) rotate(2.82)"><tspan x="0" y="0">マ</tspan></text></g></svg>