<?xml version="1.0" encoding="UTF-8"?><svg id="_レイヤー_2" xmlns="http://www.w3.org/2000/svg" viewBox="0 0 441.55 227.14"><defs><style>.cls-1{fill:#76b4c6;}.cls-2{fill:#f6f6f6;}.cls-3{fill:#eecc63;}.cls-4{fill:#e9c0d3;}.cls-5{fill:#666464;font-family:VDL-LogoJrBlack-Black, 'VDL LogoJrBlack-Black-83pv-RKSJ-H';font-size:43.92px;}</style></defs><g id="_レイヤー_2-2"><rect class="cls-1" x="14.3" y="16.7" width="412.97" height="210.44" rx="15.58" ry="15.58"/><rect class="cls-2" x="14.3" y="6.25" width="412.97" height="210.44" rx="15.58" ry="15.58"/></g><g id="_レイヤー_3"><text class="cls-5" transform="translate(85.06 127.29)"><tspan x="0" y="0">＃名電青春祭</tspan></text></g><g id="_レイヤー_4"><g><path class="cls-4" d="M31.72,68.36c6.65-10.4,12.97-21,18.94-31.79-15.21,2.4-30.38,4.32-45.71,5.82,8.55,9.03,17.49,17.68,26.77,25.97Z"/><path class="cls-3" d="M79.26,60.58c5.33-10.9,10.32-21.97,14.94-33.19-14.45,3.5-28.9,6.54-43.53,9.17,9.19,8.4,18.74,16.4,28.59,24.02Z"/><path class="cls-4" d="M124.51,49.4c3.99-11.3,7.62-22.74,10.85-34.28-13.63,4.52-27.29,8.58-41.17,12.27,9.8,7.75,19.92,15.08,30.31,22.01Z"/><path class="cls-3" d="M167.29,35.05C169.91,23.45,172.16,11.75,174,0c-12.68,5.59-25.59,10.47-38.64,15.12,10.36,7.07,21.02,13.72,31.93,19.93Z"/></g><g><path class="cls-4" d="M409.83,68.36c-6.65-10.4-12.97-21-18.94-31.79,15.21,2.4,30.38,4.32,45.71,5.82-8.55,9.03-17.49,17.68-26.77,25.97Z"/><path class="cls-3" d="M362.29,60.58c-5.33-10.9-10.32-21.97-14.94-33.19,14.45,3.5,28.9,6.54,43.53,9.17-9.19,8.4-18.74,16.4-28.59,24.02Z"/><path class="cls-4" d="M317.04,49.4c-3.99-11.3-7.62-22.74-10.85-34.28,13.63,4.52,27.29,8.58,41.17,12.27-9.8,7.75-19.92,15.08-30.31,22.01Z"/><path class="cls-3" d="M274.26,35.05C271.63,23.45,269.39,11.75,267.55,0c12.68,5.59,25.59,10.47,38.64,15.12-10.36,7.07-21.02,13.72-31.93,19.93Z"/></g></g></svg>