<?xml version="1.0" encoding="UTF-8"?><svg id="_レイヤー_2" xmlns="http://www.w3.org/2000/svg" viewBox="0 0 441.55 216.69"><defs><style>.cls-1{fill:#f6f6f6;}.cls-2{fill:#666464;}.cls-3{fill:#eecc63;}.cls-4{fill:#e9c0d3;}</style></defs><g id="_レイヤー_2-2"><rect class="cls-1" x="14.3" y="6.25" width="412.97" height="210.44" rx="15.58" ry="15.58"/></g><g id="_レイヤー_3"><g><path class="cls-2" d="M119.58,108.23l-.75,4.39h4.7v11.29h-6.63l-1.14,6.94h-9.71l1.19-6.94h-4.92l-1.19,6.94h-9.75l1.19-6.94h-4.13v-11.29h6.02l.75-4.39h-5.49v-11.37h7.38l1.01-6.1h9.84l-1.05,6.1h4.83l1.01-6.1h9.84l-1.05,6.1h3.34v11.37h-5.27Zm-14.62,0l-.7,4.39h4.83l.75-4.39h-4.87Z"/><path class="cls-2" d="M134.73,130.8v-8.04c-1.41,.35-2.81,.7-4.3,.92v-12.65c2.28-.22,4.57-.66,6.81-1.23l-2.24-3.25c-1.27,.26-2.5,.53-3.73,.66v-12.12c4.35-.7,7.47-2.63,8.91-4.7h28.76v10.41c-1.23,2.11-3.65,4.87-7.07,7.82h9.49v22.18h-36.62Zm12.95-29.86c-1.27,.88-2.63,1.67-4.04,2.42h3.65l1.41,1.93c2.42-1.41,4.35-2.85,5.58-4.35h-6.59Zm10.41,17.3h-10.36v2.2h10.36v-2.2Z"/><path class="cls-2" d="M207.15,131.06h-12.12c-2.85,0-4.79-1.05-5.71-2.64h-13.7v-17.3h2.94v-.75h-4.3v-11.33h14.05v-.79h-13.48v-7.55h39.96v7.55h-13.39v.79h14.05v11.33h-4.17v.75h2.77v10.06c.62-.22,1.14-.44,1.45-.7v8.87c-1.45,.88-4.52,1.71-8.34,1.71Zm-18.62-25.78h-4.22v.79h3.34v2.28h-3.34v.83h3.34v1.93h.88v-5.84Zm.83,10.41h-2.37v1.32h2.37v-1.32Zm0,4.92h-2.37v1.32h2.37v-1.32Zm13.22-4.92h-2.11v1.32h2.11v-1.32Zm0,4.92h-2.11v1.32h2.11v-1.32Zm2.81-12.25h-3.34v-2.28h3.34v-.79h-4.13v5.84h.79v-1.93h3.34v-.83Z"/><path class="cls-2" d="M218.18,106.78v-5.31h14.36v-.83h-13.53v-3.51h13.53v-.75h-14.36v-5.31h14.36v-.92h12.47v.92h14.23v5.31h-14.23v.75h13.44v3.51h-13.44v.83h14.23v5.31h-41.06Zm34.52,24.33h-9.79v-3.69h-11.99v3.69h-11.55v-23.54h38.73v17.74c0,2.68-1.23,5.8-5.4,5.8Zm-6.1-15.9h-15.68v.97h15.68v-.97Zm0,5.84h-15.68v1.01h15.68v-1.01Z"/><path class="cls-2" d="M299.3,124.83v5.97h-33.29v-6.15c-1.05,.57-2.28,1.14-3.78,1.71v-13.48c1.19-.22,2.33-.79,3.42-1.58h-3.42v-6.32h9c.13-.22,.26-.48,.39-.75h-8.39v-3.82h10.14c.13-.22,.22-.48,.31-.79h-11.46v-8.74h13.13v-.79h11.77v.79h16.21v8.74h-18.09c-.09,.31-.13,.57-.22,.79h17.04v3.82h-7.64c.09,.26,.18,.48,.31,.75h8.61v6.32h-3.56c1.14,.92,2.33,1.58,3.56,1.76v13.44c-1.36-.4-2.77-1.01-4.04-1.67Zm-11.02-6.76h-11.29v1.01h11.29v-1.01Zm0,4.92h-11.29v.97h11.29v-.97Zm-1.14-10.93h-7.77c-.22,.35-.48,.7-.7,1.01h9.09c-.22-.31-.44-.66-.62-1.01Zm-2.85-7.82h-1.27c-.09,.44-.22,.88-.31,1.27h2.15c-.18-.35-.4-.75-.57-1.27Z"/><path class="cls-2" d="M316.73,130.49h-11.02c1.14-2.24,1.89-6.46,1.89-8.43h10.36c-.31,3.91-.57,6.59-1.23,8.43Zm29.12-14.58v5.4h-11.68v2.99c0,4.22-2.11,6.68-7.11,6.68h-8.3v-8.52h2.81c.4,0,.79-.18,.79-.66v-.48h-15.06v-4.74c-.35,.09-.75,.18-1.14,.22v-11.73c.66-.09,1.23-.22,1.8-.35l-.79-1.45c-.31,.13-.66,.22-1.01,.31v-9.35c2.24-.44,4.87-2.37,5.75-4.08h11.64c-.04,.22-.13,.4-.22,.57h9.92c.09,1.76,.53,3.29,1.14,4.65v-4.65h12.38v8.48l-2.2,4.13c.79,.31,1.58,.57,2.37,.83v11.99c-.35-.04-.75-.18-1.1-.22Zm-33.33-15.28c-.35,.26-.75,.53-1.19,.75l1.01,1.62c.44-.22,.83-.48,1.23-.75l-1.05-1.62Zm22.18,8.74v1.27h-16.64v-1.19c-.92,.7-1.89,1.32-2.9,1.89h22.97c-1.19-.57-2.33-1.23-3.42-1.98Zm-18.62-11.99l1.1,1.67c.4-.53,.79-1.1,1.1-1.67h-2.2Zm10.28,3.03c-.35,.61-.75,1.27-1.19,1.89h2.37c-.44-.62-.83-1.23-1.19-1.89Zm10.5,30.08l-1.67-8.43h10.5l1.62,8.43h-10.45Zm-.7-32.54c.53,.61,1.1,1.19,1.71,1.67l.92-1.67h-2.63Z"/></g></g><g id="_レイヤー_4"><g><path class="cls-4" d="M31.72,68.36c6.65-10.4,12.97-21,18.94-31.79-15.21,2.4-30.38,4.32-45.71,5.82,8.55,9.03,17.49,17.68,26.77,25.97Z"/><path class="cls-3" d="M79.26,60.58c5.33-10.9,10.32-21.97,14.94-33.19-14.45,3.5-28.9,6.54-43.53,9.17,9.19,8.4,18.74,16.4,28.59,24.02Z"/><path class="cls-4" d="M124.51,49.4c3.99-11.3,7.62-22.74,10.85-34.28-13.63,4.52-27.29,8.58-41.17,12.27,9.8,7.75,19.92,15.08,30.31,22.01Z"/><path class="cls-3" d="M167.29,35.05C169.91,23.45,172.16,11.75,174,0c-12.68,5.59-25.59,10.47-38.64,15.12,10.36,7.07,21.02,13.72,31.93,19.93Z"/></g><g><path class="cls-4" d="M409.83,68.36c-6.65-10.4-12.97-21-18.94-31.79,15.21,2.4,30.38,4.32,45.71,5.82-8.55,9.03-17.49,17.68-26.77,25.97Z"/><path class="cls-3" d="M362.29,60.58c-5.33-10.9-10.32-21.97-14.94-33.19,14.45,3.5,28.9,6.54,43.53,9.17-9.19,8.4-18.74,16.4-28.59,24.02Z"/><path class="cls-4" d="M317.04,49.4c-3.99-11.3-7.62-22.74-10.85-34.28,13.63,4.52,27.29,8.58,41.17,12.27-9.8,7.75-19.92,15.08-30.31,22.01Z"/><path class="cls-3" d="M274.26,35.05C271.63,23.45,269.39,11.75,267.55,0c12.68,5.59,25.59,10.47,38.64,15.12-10.36,7.07-21.02,13.72-31.93,19.93Z"/></g></g></svg>