<svg xmlns="http://www.w3.org/2000/svg" viewBox="0 0 96.2 3516.8"><defs><style>.cls-1{fill:#666464;}</style></defs><g id="レイヤー_2" data-name="レイヤー 2"><g id="レイヤー_2-2" data-name="レイヤー 2"><path class="cls-1" d="M14.31,609.24H3.64v-4.85h9.77a1,1,0,0,0,1.07-1.1v-.12a14.22,14.22,0,0,1-2.17.16H8.83c-4.45,0-6-2.27-6-4.81v-.59c0-2.61,1.41-5.31,6-5.31h4.88c4.36,0,6.48,2.23,6.48,5.49v5.63C20.19,606.66,18.35,609.24,14.31,609.24Zm.17-10.84a.64.64,0,0,0-.66-.71H9.17a.61.61,0,0,0-.66.63v.13c0,.45.32.59.66.59h4.65c.49,0,.66-.28.66-.54Z"/><path class="cls-1" d="M27.72,600.23v-5h5.46v5Zm0,7.28v-5h5.46v5Z"/><path class="cls-1" d="M50.6,608H40.51v-4.68h8.88c.39,0,.51-.14.51-.43v-.2c0-.2-.13-.41-.51-.41H40.57V599h8.7a.4.4,0,0,0,.46-.41v-.13a.41.41,0,0,0-.47-.45H40.64v-4.64h9.88c3.38,0,4.91,1.37,4.91,3.83v1.19a3,3,0,0,1-.89,2.16A3,3,0,0,1,55.73,603v1C55.73,607.51,53.79,608,50.6,608Z"/><path class="cls-1" d="M66.05,608.19H64c-5.05,0-6.54-1.39-6.54-6.23v-2.45c0-5.06,1.57-6.35,6.48-6.35h2.17c4.86,0,6.46,1.29,6.46,6.35V602C72.6,606.8,71.09,608.19,66.05,608.19Zm1.4-8.68c0-1.29-.51-1.65-1.31-1.65H64c-.95,0-1.36.37-1.36,1.65V602c0,1.19.34,1.51,1.42,1.51h2c.92,0,1.4-.52,1.4-1.51Z"/><path class="cls-1" d="M13.61,458.05H2.94v-4.84h9.77a1,1,0,0,0,1.07-1.1V452a15.5,15.5,0,0,1-2.17.16H8.13c-4.45,0-6-2.27-6-4.81v-.59c0-2.61,1.41-5.32,6-5.32H13c4.36,0,6.48,2.24,6.48,5.5v5.63C19.49,455.48,17.66,458.05,13.61,458.05Zm.17-10.84a.64.64,0,0,0-.66-.7H8.48a.61.61,0,0,0-.67.63v.13c0,.45.32.59.67.59h4.64c.49,0,.66-.29.66-.54Z"/><path class="cls-1" d="M27,449.05v-5h5.46v5Zm0,7.27v-4.95h5.46v4.95Z"/><path class="cls-1" d="M46.82,458.05V447.47a.4.4,0,0,0-.45-.42H41.89v-5.33H49a3.48,3.48,0,0,1,3.82,3.6v12.73Z"/><path class="cls-1" d="M70.62,458.05H59.47v-5.29H70c.45,0,.58-.2.58-.47v-.11c0-.32-.21-.46-.58-.46H61.67c-1.61,0-2.2-.78-2.2-2.24v-7.76H75.68v4.9H65.05v.5c0,.2.15.27.37.27h5.2c4.51,0,5.78,1.77,5.78,4.78v.93C76.4,456.5,74.83,458.05,70.62,458.05Z"/><path class="cls-1" d="M4.93,755.11V744.52c0-.27-.17-.41-.45-.41H0v-5.33H7.1a3.48,3.48,0,0,1,3.82,3.6v12.73Z"/><path class="cls-1" d="M26.94,755.33H24.31c-5.61,0-7.27-1.59-7.27-7v-2.7c0-5.62,1.74-7.1,7.19-7.1H27c5.4,0,7.18,1.48,7.18,7.1v2.7C34.21,753.74,32.53,755.33,26.94,755.33Zm1.54-9.65c0-1.46-.56-1.86-1.45-1.86h-2.8c-1,0-1.51.4-1.51,1.86v2.7c0,1.33.4,1.65,1.59,1.65h2.63c1,0,1.54-.54,1.54-1.65Z"/><path class="cls-1" d="M41.8,746.11v-5h5.46v5Zm0,7.27v-5h5.46v5Z"/><path class="cls-1" d="M64.71,755.33H62.09c-5.61,0-7.28-1.59-7.28-7v-2.7c0-5.62,1.74-7.1,7.2-7.1h2.8c5.4,0,7.18,1.48,7.18,7.1v2.7C72,753.74,70.3,755.33,64.71,755.33Zm1.55-9.65c0-1.46-.56-1.86-1.45-1.86H62c-1,0-1.51.4-1.51,1.86v2.7c0,1.33.4,1.65,1.59,1.65h2.62c1,0,1.55-.54,1.55-1.65Z"/><path class="cls-1" d="M83.6,755.33H81c-5.61,0-7.28-1.59-7.28-7v-2.7c0-5.62,1.74-7.1,7.2-7.1h2.8c5.4,0,7.18,1.48,7.18,7.1v2.7C90.88,753.74,89.19,755.33,83.6,755.33Zm1.55-9.65c0-1.46-.57-1.86-1.45-1.86H80.9c-1,0-1.51.4-1.51,1.86v2.7c0,1.33.4,1.65,1.59,1.65H83.6c1,0,1.55-.54,1.55-1.65Z"/><path class="cls-1" d="M7.59,906.79V896.2c0-.27-.17-.41-.45-.41H2.66v-5.33H9.77a3.48,3.48,0,0,1,3.81,3.6v12.73Z"/><path class="cls-1" d="M29.6,907H27c-5.61,0-7.27-1.59-7.27-7v-2.7c0-5.62,1.74-7.1,7.2-7.1h2.79c5.41,0,7.18,1.48,7.18,7.1v2.7C36.87,905.42,35.19,907,29.6,907Zm1.55-9.65c0-1.46-.57-1.86-1.46-1.86H26.9c-1,0-1.51.4-1.51,1.86v2.7c0,1.33.39,1.65,1.58,1.65H29.6c1,0,1.55-.54,1.55-1.65Z"/><path class="cls-1" d="M44.46,897.79v-5h5.46v5Zm0,7.27v-4.95h5.46v4.95Z"/><path class="cls-1" d="M64.26,906.79V896.2c0-.27-.17-.41-.45-.41H59.33v-5.33h7.1a3.48,3.48,0,0,1,3.82,3.6v12.73Z"/><path class="cls-1" d="M88.06,906.79H76.91V901.5H87.44c.45,0,.58-.2.58-.47v-.11c0-.32-.21-.47-.58-.47H79.11c-1.61,0-2.2-.77-2.2-2.23v-7.76H93.12v4.9H82.49v.5c0,.2.15.27.37.27h5.2c4.51,0,5.78,1.77,5.78,4.77v.94C93.84,905.24,92.27,906.79,88.06,906.79Z"/><path class="cls-1" d="M7.59,1056.87v-10.59c0-.27-.17-.41-.45-.41H2.66v-5.33H9.77a3.47,3.47,0,0,1,3.81,3.6v12.73Z"/><path class="cls-1" d="M29.6,1057.08H27c-5.61,0-7.27-1.58-7.27-6.95v-2.7c0-5.62,1.74-7.09,7.2-7.09h2.79c5.41,0,7.18,1.47,7.18,7.09v2.7C36.87,1055.5,35.19,1057.08,29.6,1057.08Zm1.55-9.65c0-1.46-.57-1.85-1.46-1.85H26.9c-1,0-1.51.39-1.51,1.85v2.7c0,1.34.39,1.66,1.58,1.66H29.6c1,0,1.55-.54,1.55-1.66Z"/><path class="cls-1" d="M44.46,1047.86v-5h5.46v5Zm0,7.28v-5h5.46v5Z"/><path class="cls-1" d="M69,1056.87H57.78v-5.21H68.23c.45,0,.58-.16.58-.48V1051c0-.23-.15-.47-.58-.47H57.84v-3.63H68.11a.48.48,0,0,0,.51-.53v-.1a.48.48,0,0,0-.54-.53H57.91v-5.16h11c3.76,0,5.48,1.51,5.48,4.26v1.34a3.4,3.4,0,0,1-1,2.41,3.26,3.26,0,0,1,1.33,2.7v1.12C74.71,1056.29,72.53,1056.87,69,1056.87Z"/><path class="cls-1" d="M86.27,1057.08H83.64c-5.61,0-7.27-1.58-7.27-6.95v-2.7c0-5.62,1.73-7.09,7.19-7.09h2.8c5.4,0,7.18,1.47,7.18,7.09v2.7C93.54,1055.5,91.86,1057.08,86.27,1057.08Zm1.54-9.65c0-1.46-.56-1.85-1.45-1.85h-2.8c-1,0-1.51.39-1.51,1.85v2.7c0,1.34.4,1.66,1.59,1.66h2.63c1,0,1.54-.54,1.54-1.66Z"/><path class="cls-1" d="M7.59,1204.54V1194a.4.4,0,0,0-.45-.42H2.66v-5.33H9.77a3.48,3.48,0,0,1,3.81,3.6v12.73Z"/><path class="cls-1" d="M29.6,1204.76H27c-5.61,0-7.27-1.58-7.27-7v-2.7c0-5.62,1.74-7.1,7.2-7.1h2.79c5.41,0,7.18,1.48,7.18,7.1v2.7C36.87,1203.18,35.19,1204.76,29.6,1204.76Zm1.55-9.65c0-1.46-.57-1.86-1.46-1.86H26.9c-1,0-1.51.4-1.51,1.86v2.7c0,1.33.39,1.66,1.58,1.66H29.6c1,0,1.55-.54,1.55-1.66Z"/><path class="cls-1" d="M44.46,1195.54v-5h5.46v5Zm0,7.28v-5h5.46v5Z"/><path class="cls-1" d="M72.44,1202.31v2.23H66.79v-2.23H63.35c-4.61,0-5.8-1.64-5.8-5.49v-8.61H63.2v8c0,.55.15.79.83.79h2.76v-8.81h5.65V1197h2.28v5.29Z"/><path class="cls-1" d="M88.06,1204.54H76.91v-5.29H87.44c.45,0,.58-.2.58-.47v-.11c0-.32-.21-.46-.58-.46H79.11c-1.61,0-2.2-.78-2.2-2.24v-7.76H93.12v4.9H82.49v.5c0,.2.15.27.37.27h5.2c4.51,0,5.78,1.77,5.78,4.78v.93C93.84,1203,92.27,1204.54,88.06,1204.54Z"/><path class="cls-1" d="M9.74,1354.92v-10.59c0-.27-.17-.41-.45-.41H4.81v-5.33h7.1a3.48,3.48,0,0,1,3.82,3.6v12.73Z"/><path class="cls-1" d="M28.63,1354.92v-10.59c0-.27-.17-.41-.45-.41H23.7v-5.33h7.1a3.48,3.48,0,0,1,3.82,3.6v12.73Z"/><path class="cls-1" d="M46.61,1345.92v-5h5.46v5Zm0,7.27v-5h5.46v5Z"/><path class="cls-1" d="M69.52,1355.14H66.9c-5.61,0-7.28-1.59-7.28-7v-2.7c0-5.62,1.74-7.1,7.2-7.1h2.8c5.4,0,7.18,1.48,7.18,7.1v2.7C76.8,1353.55,75.11,1355.14,69.52,1355.14Zm1.55-9.65c0-1.46-.56-1.86-1.45-1.86h-2.8c-1,0-1.51.4-1.51,1.86v2.7c0,1.33.4,1.65,1.59,1.65h2.62c1,0,1.55-.54,1.55-1.65Z"/><path class="cls-1" d="M88.41,1355.14H85.79c-5.61,0-7.28-1.59-7.28-7v-2.7c0-5.62,1.74-7.1,7.2-7.1h2.8c5.4,0,7.17,1.48,7.17,7.1v2.7C95.68,1353.55,94,1355.14,88.41,1355.14Zm1.55-9.65c0-1.46-.57-1.86-1.45-1.86h-2.8c-1,0-1.51.4-1.51,1.86v2.7c0,1.33.4,1.65,1.59,1.65h2.62c1,0,1.55-.54,1.55-1.65Z"/><path class="cls-1" d="M9,1435.52v-10.59a.4.4,0,0,0-.45-.42H4.11v-5.33h7.1a3.49,3.49,0,0,1,3.82,3.61v12.73Z"/><path class="cls-1" d="M27.93,1435.52v-10.59a.4.4,0,0,0-.45-.42H23v-5.33h7.1a3.49,3.49,0,0,1,3.82,3.61v12.73Z"/><path class="cls-1" d="M45.91,1426.51v-5h5.46v5Zm0,7.28v-5h5.46v5Z"/><path class="cls-1" d="M73.89,1433.28v2.24H68.24v-2.24H64.8c-4.61,0-5.8-1.64-5.8-5.49v-8.61h5.65v8c0,.55.15.79.83.79h2.76v-8.81h5.65V1428h2.28v5.29Z"/><path class="cls-1" d="M89.51,1435.52H78.36v-5.3H88.88c.46,0,.59-.2.59-.47v-.1c0-.33-.21-.47-.59-.47H80.55c-1.6,0-2.19-.78-2.19-2.23v-7.77H94.57v4.9H83.94v.51c0,.19.15.27.37.27h5.2c4.51,0,5.78,1.76,5.78,4.77v.93C95.29,1434,93.72,1435.52,89.51,1435.52Z"/><path class="cls-1" d="M7.59,1773.31v-10.59c0-.27-.17-.41-.45-.41H2.66V1757H9.77a3.48,3.48,0,0,1,3.81,3.6v12.73Z"/><path class="cls-1" d="M30.58,1767.37H25.76v.74H36.55v5.2H20v-10h10.3c.54,0,.75-.23.75-.54v-.09c0-.34-.26-.52-.75-.52H20V1757H30.58c4.61,0,6.41,2,6.41,5.35v.34C37,1765.14,35.64,1767.37,30.58,1767.37Z"/><path class="cls-1" d="M44.46,1764.31v-5h5.46v5Zm0,7.27v-4.95h5.46v4.95Z"/><path class="cls-1" d="M64.26,1773.31v-10.59c0-.27-.17-.41-.45-.41H59.33V1757h7.1a3.48,3.48,0,0,1,3.82,3.6v12.73Z"/><path class="cls-1" d="M88.06,1773.31H76.91V1768H87.44c.45,0,.58-.2.58-.47v-.11c0-.32-.21-.47-.58-.47H79.11c-1.61,0-2.2-.77-2.2-2.23V1757H93.12v4.9H82.49v.5c0,.2.15.27.37.27h5.2c4.51,0,5.78,1.77,5.78,4.77v.94C93.84,1771.76,92.27,1773.31,88.06,1773.31Z"/><path class="cls-1" d="M10.26,1966.43v-10.59c0-.27-.17-.41-.46-.41H5.33v-5.33h7.1a3.47,3.47,0,0,1,3.81,3.6v12.73Z"/><path class="cls-1" d="M33.24,1960.49H28.43v.74H39.21v5.2H22.7v-10H33c.55,0,.75-.24.75-.54v-.09c0-.34-.26-.52-.75-.52H22.7v-5.17H33.24c4.61,0,6.41,2,6.41,5.35v.34C39.65,1958.25,38.31,1960.49,33.24,1960.49Z"/><path class="cls-1" d="M47.13,1957.43v-5h5.46v5Zm0,7.27v-5h5.46v5Z"/><path class="cls-1" d="M71.64,1966.43H60.44v-5.2H70.89c.45,0,.58-.17.58-.49v-.22c0-.23-.15-.47-.58-.47H60.5v-3.63H70.78a.49.49,0,0,0,.51-.52v-.11c0-.33-.17-.52-.55-.52H60.57v-5.17h11c3.76,0,5.48,1.51,5.48,4.27v1.33a3.41,3.41,0,0,1-1,2.41,3.29,3.29,0,0,1,1.32,2.7v1.12C77.37,1965.85,75.2,1966.43,71.64,1966.43Z"/><path class="cls-1" d="M88.93,1966.64H86.3c-5.61,0-7.27-1.58-7.27-7V1957c0-5.61,1.74-7.09,7.2-7.09H89c5.4,0,7.18,1.48,7.18,7.09v2.7C96.2,1965.06,94.52,1966.64,88.93,1966.64Zm1.55-9.65c0-1.45-.57-1.85-1.46-1.85H86.23c-1,0-1.52.4-1.52,1.85v2.7c0,1.34.4,1.66,1.59,1.66h2.63c1,0,1.55-.54,1.55-1.66Z"/><path class="cls-1" d="M10.26,2158.72v-10.59c0-.27-.17-.42-.46-.42H5.33v-5.33h7.1a3.48,3.48,0,0,1,3.81,3.61v12.73Z"/><path class="cls-1" d="M33.24,2152.77H28.43v.74H39.21v5.21H22.7v-10H33c.55,0,.75-.24.75-.54v-.1c0-.34-.26-.52-.75-.52H22.7v-5.17H33.24c4.61,0,6.41,2,6.41,5.35v.34C39.65,2150.54,38.31,2152.77,33.24,2152.77Z"/><path class="cls-1" d="M47.13,2149.71v-5h5.46v5Zm0,7.28V2152h5.46V2157Z"/><path class="cls-1" d="M71.83,2158.72H60.69v-5.3H71.21c.45,0,.59-.2.59-.47v-.1c0-.33-.21-.47-.59-.47H62.88c-1.61,0-2.19-.78-2.19-2.23v-7.77H76.9v4.9H66.26v.51c0,.19.15.27.38.27h5.19c4.52,0,5.78,1.76,5.78,4.77v.93C77.61,2157.17,76.05,2158.72,71.83,2158.72Z"/><path class="cls-1" d="M88.93,2158.93H86.3c-5.61,0-7.27-1.58-7.27-6.95v-2.7c0-5.62,1.74-7.09,7.2-7.09H89c5.41,0,7.18,1.47,7.18,7.09v2.7C96.2,2157.35,94.52,2158.93,88.93,2158.93Zm1.55-9.65c0-1.46-.57-1.85-1.46-1.85H86.23c-1,0-1.51.39-1.51,1.85v2.7c0,1.33.39,1.66,1.58,1.66h2.63c1,0,1.55-.54,1.55-1.66Z"/><path class="cls-1" d="M9,2350.8v-10.59c0-.27-.17-.41-.45-.41H4.11v-5.33h7.1a3.48,3.48,0,0,1,3.82,3.6v12.73Z"/><path class="cls-1" d="M32.65,2350.8H21.45v-5.21H31.9c.45,0,.58-.16.58-.48v-.22c0-.23-.15-.47-.58-.47H21.51v-3.63H31.78a.48.48,0,0,0,.51-.53v-.1a.48.48,0,0,0-.54-.53H21.58v-5.16h11c3.76,0,5.48,1.51,5.48,4.26v1.34a3.38,3.38,0,0,1-1,2.41,3.26,3.26,0,0,1,1.33,2.7v1.12C38.38,2350.22,36.2,2350.8,32.65,2350.8Z"/><path class="cls-1" d="M45.91,2341.79v-5h5.46v5Zm0,7.28v-5h5.46v5Z"/><path class="cls-1" d="M65.71,2350.8v-10.59c0-.27-.17-.41-.46-.41H60.78v-5.33h7.1a3.48,3.48,0,0,1,3.82,3.6v12.73Z"/><path class="cls-1" d="M87.71,2351H85.09c-5.61,0-7.28-1.58-7.28-7v-2.7c0-5.61,1.74-7.09,7.2-7.09h2.8c5.4,0,7.18,1.48,7.18,7.09v2.7C95,2349.43,93.3,2351,87.71,2351Zm1.55-9.65c0-1.46-.56-1.85-1.45-1.85H85c-1,0-1.51.39-1.51,1.85v2.7c0,1.34.4,1.66,1.59,1.66h2.62c1,0,1.55-.54,1.55-1.66Z"/><path class="cls-1" d="M9.74,2548.39V2537.8a.4.4,0,0,0-.45-.42H4.81v-5.33h7.1a3.49,3.49,0,0,1,3.82,3.61v12.73Z"/><path class="cls-1" d="M33.35,2548.39H22.15v-5.21H32.6c.45,0,.58-.16.58-.48v-.22c0-.23-.15-.47-.58-.47H22.21v-3.63H32.48a.49.49,0,0,0,.51-.53v-.11a.48.48,0,0,0-.55-.52H22.28v-5.17h11c3.76,0,5.47,1.52,5.47,4.27v1.33a3.39,3.39,0,0,1-1,2.42,3.26,3.26,0,0,1,1.33,2.7v1.11C39.08,2547.81,36.9,2548.39,33.35,2548.39Z"/><path class="cls-1" d="M46.61,2539.38v-5h5.46v5Zm0,7.28v-4.95h5.46v4.95Z"/><path class="cls-1" d="M71.13,2548.39H59.93v-5.21H70.37c.46,0,.59-.16.59-.48v-.22c0-.23-.15-.47-.59-.47H60v-3.63H70.26a.49.49,0,0,0,.51-.53v-.11a.48.48,0,0,0-.55-.52H60.06v-5.17H71c3.76,0,5.48,1.52,5.48,4.27v1.33a3.44,3.44,0,0,1-1,2.42,3.25,3.25,0,0,1,1.32,2.7v1.11C76.85,2547.81,74.68,2548.39,71.13,2548.39Z"/><path class="cls-1" d="M88.41,2548.6H85.79c-5.61,0-7.28-1.58-7.28-6.95V2539c0-5.62,1.74-7.09,7.2-7.09h2.8c5.4,0,7.17,1.47,7.17,7.09v2.7C95.68,2547,94,2548.6,88.41,2548.6ZM90,2539c0-1.46-.57-1.85-1.45-1.85h-2.8c-1,0-1.51.39-1.51,1.85v2.7c0,1.33.4,1.66,1.59,1.66h2.62c1,0,1.55-.54,1.55-1.66Z"/><path class="cls-1" d="M10.26,2741.5v-10.58c0-.27-.17-.42-.46-.42H5.33v-5.33h7.1a3.48,3.48,0,0,1,3.81,3.6v12.73Z"/><path class="cls-1" d="M33.87,2741.5H22.67v-5.2H33.11c.46,0,.59-.16.59-.49v-.21c0-.24-.15-.47-.59-.47H22.72v-3.64H33a.49.49,0,0,0,.51-.52v-.11a.48.48,0,0,0-.55-.52H22.8v-5.17h11c3.76,0,5.48,1.52,5.48,4.27v1.33a3.44,3.44,0,0,1-1,2.42,3.28,3.28,0,0,1,1.32,2.7V2737C39.59,2740.93,37.42,2741.5,33.87,2741.5Z"/><path class="cls-1" d="M47.13,2732.5v-5h5.46v5Zm0,7.28v-5h5.46v5Z"/><path class="cls-1" d="M71.83,2741.5H60.69v-5.29H71.21c.45,0,.59-.2.59-.47v-.11c0-.32-.21-.46-.59-.46H62.88c-1.61,0-2.19-.78-2.19-2.24v-7.76H76.9v4.9H66.26v.5c0,.2.15.27.38.27h5.19c4.52,0,5.78,1.77,5.78,4.78v.93C77.61,2740,76.05,2741.5,71.83,2741.5Z"/><path class="cls-1" d="M88.93,2741.72H86.3c-5.61,0-7.27-1.58-7.27-6.95v-2.7c0-5.62,1.74-7.1,7.2-7.1H89c5.41,0,7.18,1.48,7.18,7.1v2.7C96.2,2740.14,94.52,2741.72,88.93,2741.72Zm1.55-9.65c0-1.46-.57-1.86-1.46-1.86H86.23c-1,0-1.51.4-1.51,1.86v2.7c0,1.33.39,1.66,1.58,1.66h2.63c1,0,1.55-.54,1.55-1.66Z"/><path class="cls-1" d="M10.26,2935.92v-10.58c0-.27-.17-.42-.46-.42H5.33v-5.33h7.1a3.48,3.48,0,0,1,3.81,3.6v12.73Z"/><path class="cls-1" d="M37.32,2933.69v2.23H31.68v-2.23H28.24c-4.61,0-5.8-1.64-5.8-5.49v-8.61h5.65v8c0,.56.15.8.83.8h2.76v-8.81h5.64v8.81h2.29v5.29Z"/><path class="cls-1" d="M47.13,2926.92v-5h5.46v5Zm0,7.27v-5h5.46v5Z"/><path class="cls-1" d="M75.1,2933.69v2.23H69.45v-2.23H66c-4.61,0-5.8-1.64-5.8-5.49v-8.61h5.64v8c0,.56.16.8.84.8h2.75v-8.81H75.1v8.81h2.29v5.29Z"/><path class="cls-1" d="M88.93,2936.14H86.3c-5.61,0-7.27-1.59-7.27-6.95v-2.7c0-5.62,1.74-7.1,7.2-7.1H89c5.41,0,7.18,1.48,7.18,7.1v2.7C96.2,2934.55,94.52,2936.14,88.93,2936.14Zm1.55-9.65c0-1.46-.57-1.86-1.46-1.86H86.23c-1,0-1.51.4-1.51,1.86v2.7c0,1.33.39,1.66,1.58,1.66h2.63c1,0,1.55-.55,1.55-1.66Z"/><path class="cls-1" d="M9.74,3129v-10.58a.39.39,0,0,0-.45-.42H4.81v-5.33h7.1a3.48,3.48,0,0,1,3.82,3.6V3129Z"/><path class="cls-1" d="M33.54,3129H22.4v-5.29H32.92c.45,0,.58-.2.58-.47v-.11c0-.32-.21-.47-.58-.47H24.59c-1.61,0-2.19-.77-2.19-2.23v-7.76H38.6v4.9H28v.5c0,.2.15.27.38.27h5.19c4.52,0,5.78,1.77,5.78,4.77v.94C39.32,3127.49,37.75,3129,33.54,3129Z"/><path class="cls-1" d="M46.61,3120v-5h5.46v5Zm0,7.27v-4.95h5.46v4.95Z"/><path class="cls-1" d="M69.52,3129.26H66.9c-5.61,0-7.28-1.59-7.28-7v-2.7c0-5.62,1.74-7.1,7.2-7.1h2.8c5.4,0,7.18,1.48,7.18,7.1v2.7C76.8,3127.67,75.11,3129.26,69.52,3129.26Zm1.55-9.65c0-1.46-.56-1.86-1.45-1.86h-2.8c-1,0-1.51.4-1.51,1.86v2.7c0,1.33.4,1.65,1.59,1.65h2.62c1,0,1.55-.54,1.55-1.65Z"/><path class="cls-1" d="M90.21,3129H79.06v-5.29H89.58c.46,0,.59-.2.59-.47v-.11c0-.32-.21-.47-.59-.47H81.25c-1.6,0-2.19-.77-2.19-2.23v-7.76H95.27v4.9H84.63v.5c0,.2.16.27.38.27h5.2c4.51,0,5.78,1.77,5.78,4.77v.94C96,3127.49,94.42,3129,90.21,3129Z"/><path class="cls-1" d="M10.26,3323.46v-10.59c0-.27-.17-.41-.46-.41H5.33v-5.33h7.1a3.48,3.48,0,0,1,3.81,3.6v12.73Z"/><path class="cls-1" d="M34.06,3323.46H22.91v-5.29H33.43c.46,0,.59-.2.59-.47v-.11c0-.32-.21-.47-.59-.47H25.1c-1.6,0-2.19-.77-2.19-2.23v-7.76H39.12v4.9H28.48v.5c0,.2.16.27.38.27h5.2c4.51,0,5.78,1.77,5.78,4.77v.94C39.84,3321.91,38.27,3323.46,34.06,3323.46Z"/><path class="cls-1" d="M47.13,3314.46v-5h5.46v5Zm0,7.27v-4.95h5.46v4.95Z"/><path class="cls-1" d="M71.65,3323.46H60.44v-5.2H70.89c.45,0,.59-.16.59-.49v-.21c0-.24-.16-.47-.59-.47H60.5v-3.64H70.78a.49.49,0,0,0,.51-.52v-.11a.48.48,0,0,0-.55-.52H60.58v-5.17h11c3.76,0,5.48,1.51,5.48,4.27v1.33a3.4,3.4,0,0,1-1,2.41,3.29,3.29,0,0,1,1.32,2.7V3319C77.37,3322.88,75.2,3323.46,71.65,3323.46Z"/><path class="cls-1" d="M88.93,3323.68H86.3c-5.61,0-7.27-1.59-7.27-6.95V3314c0-5.62,1.74-7.1,7.2-7.1H89c5.41,0,7.18,1.48,7.18,7.1v2.7C96.2,3322.09,94.52,3323.68,88.93,3323.68Zm1.55-9.65c0-1.46-.57-1.86-1.46-1.86H86.23c-1,0-1.51.4-1.51,1.86v2.7c0,1.33.39,1.65,1.58,1.65h2.63c1,0,1.55-.54,1.55-1.65Z"/><path class="cls-1" d="M9.74,3516.58V3506c0-.27-.17-.41-.45-.41H4.81v-5.33h7.1a3.48,3.48,0,0,1,3.82,3.6v12.73Z"/><path class="cls-1" d="M33.54,3516.58H22.39v-5.29H32.92c.45,0,.58-.2.58-.47v-.11c0-.32-.21-.47-.58-.47H24.59c-1.61,0-2.2-.77-2.2-2.23v-7.76H38.6v4.9H28v.5c0,.2.15.27.38.27h5.19c4.51,0,5.78,1.77,5.78,4.77v.94C39.32,3515,37.75,3516.58,33.54,3516.58Z"/><path class="cls-1" d="M46.61,3507.58v-5h5.46v5Zm0,7.27v-4.95h5.46v4.95Z"/><path class="cls-1" d="M71.32,3516.58H60.17v-5.29H70.69c.46,0,.59-.2.59-.47v-.11c0-.32-.21-.47-.59-.47H62.36c-1.6,0-2.19-.77-2.19-2.23v-7.76H76.38v4.9H65.74v.5c0,.2.16.27.38.27h5.2c4.51,0,5.78,1.77,5.78,4.77v.94C77.1,3515,75.53,3516.58,71.32,3516.58Z"/><path class="cls-1" d="M88.41,3516.8H85.79c-5.61,0-7.28-1.59-7.28-7v-2.7c0-5.62,1.74-7.1,7.2-7.1h2.8c5.4,0,7.17,1.48,7.17,7.1v2.7C95.68,3515.21,94,3516.8,88.41,3516.8Zm1.55-9.65c0-1.46-.57-1.86-1.45-1.86h-2.8c-1,0-1.51.4-1.51,1.86v2.7c0,1.33.4,1.65,1.59,1.65h2.62c1,0,1.55-.54,1.55-1.65Z"/></g><g id="レイヤー_3" data-name="レイヤー 3"><path class="cls-1" d="M12.61,16.65H7.55c-5.44,0-6.1-2.35-6.1-4.95V11A3.39,3.39,0,0,1,2.68,8.25a3.22,3.22,0,0,1-.87-2.33V4.84C1.81,1.13,3.22,0,7.46,0h5.23c5.1,0,5.76,2.16,5.76,4.84V5.92a3.1,3.1,0,0,1-.91,2.29A3.41,3.41,0,0,1,18.87,11v.72C18.87,14.91,17.47,16.65,12.61,16.65Zm.4-5.72c0-.2-.17-.49-.72-.49H8c-.43,0-.68.18-.68.49v.23c0,.26.19.54.68.54h4.31c.57,0,.72-.27.72-.54Zm-.19-5.47A.5.5,0,0,0,12.25,5H8.08c-.45,0-.64.25-.64.51v.23c0,.25.2.43.64.43h4.17c.36,0,.57-.23.57-.43Z"/><path class="cls-1" d="M26.29,7.53v-5h5.46v5Zm0,7.27v-5h5.46v5Z"/><path class="cls-1" d="M50.81,16.53H39.6v-5.2H50.05c.45,0,.59-.17.59-.49v-.22c0-.23-.16-.47-.59-.47H39.66V6.52H49.94A.49.49,0,0,0,50.45,6V5.89c0-.33-.17-.52-.55-.52H39.74V.2h11c3.76,0,5.48,1.51,5.48,4.27V5.8a3.41,3.41,0,0,1-1,2.41,3.28,3.28,0,0,1,1.32,2.7V12C56.53,16,54.36,16.53,50.81,16.53Z"/><path class="cls-1" d="M68.09,16.75H65.46c-5.61,0-7.27-1.59-7.27-7V7.09c0-5.61,1.74-7.09,7.2-7.09h2.79c5.41,0,7.18,1.48,7.18,7.09v2.7C75.36,15.16,73.68,16.75,68.09,16.75Zm1.55-9.66c0-1.45-.57-1.85-1.46-1.85H65.39c-1,0-1.51.4-1.51,1.85v2.7c0,1.34.39,1.66,1.58,1.66h2.63c1,0,1.55-.54,1.55-1.66Z"/><path class="cls-1" d="M12.61,158.16H7.55c-5.44,0-6.1-2.36-6.1-4.95v-.72a3.41,3.41,0,0,1,1.23-2.74,3.2,3.2,0,0,1-.87-2.32v-1.08c0-3.71,1.41-4.85,5.65-4.85h5.23c5.1,0,5.76,2.17,5.76,4.85v1.08a3.08,3.08,0,0,1-.91,2.28,3.44,3.44,0,0,1,1.33,2.78v.72C18.87,156.41,17.47,158.16,12.61,158.16Zm.4-5.73c0-.19-.17-.48-.72-.48H8c-.43,0-.68.18-.68.48v.24c0,.25.19.54.68.54h4.31c.57,0,.72-.27.72-.54ZM12.82,147c0-.31-.21-.5-.57-.5H8.08c-.45,0-.64.25-.64.5v.23c0,.26.2.44.64.44h4.17a.52.52,0,0,0,.57-.44Z"/><path class="cls-1" d="M26.29,149v-5h5.46v5Zm0,7.27v-5h5.46v5Z"/><path class="cls-1" d="M54.26,155.8V158H48.61V155.8H45.18c-4.61,0-5.8-1.64-5.8-5.49V141.7H45v8c0,.56.16.8.84.8h2.75V141.7h5.65v8.81h2.29v5.29Z"/><path class="cls-1" d="M69.88,158H58.74v-5.29H69.26c.45,0,.59-.2.59-.47v-.11c0-.32-.21-.46-.59-.46H60.93c-1.61,0-2.19-.78-2.19-2.24V141.7H75v4.9H64.31v.5c0,.2.15.27.38.27h5.19c4.52,0,5.78,1.77,5.78,4.78v.93C75.66,156.48,74.1,158,69.88,158Z"/><path class="cls-1" d="M12.88,310.17H2.2v-4.84H12a1,1,0,0,0,1.08-1.1v-.13a14.35,14.35,0,0,1-2.18.16H7.4c-4.46,0-6-2.27-6-4.8v-.6c0-2.61,1.42-5.31,6-5.31h4.87c4.37,0,6.48,2.23,6.48,5.49v5.64C18.75,307.59,16.92,310.17,12.88,310.17Zm.17-10.84a.64.64,0,0,0-.66-.7H7.74a.61.61,0,0,0-.66.63v.12c0,.45.32.6.66.6h4.65c.49,0,.66-.29.66-.54Z"/><path class="cls-1" d="M26.29,301.17v-5h5.46v5Zm0,7.27v-4.95h5.46v4.95Z"/><path class="cls-1" d="M49.2,310.38H46.57c-5.61,0-7.27-1.58-7.27-6.95v-2.7c0-5.61,1.74-7.09,7.2-7.09h2.79c5.41,0,7.18,1.48,7.18,7.09v2.7C56.47,308.8,54.79,310.38,49.2,310.38Zm1.55-9.65c0-1.45-.57-1.85-1.46-1.85H46.5c-1,0-1.51.4-1.51,1.85v2.7c0,1.34.39,1.66,1.58,1.66H49.2c1,0,1.55-.54,1.55-1.66Z"/><path class="cls-1" d="M68.09,310.38H65.46c-5.61,0-7.27-1.58-7.27-6.95v-2.7c0-5.61,1.74-7.09,7.2-7.09h2.79c5.41,0,7.18,1.48,7.18,7.09v2.7C75.36,308.8,73.68,310.38,68.09,310.38Zm1.55-9.65c0-1.45-.57-1.85-1.46-1.85H65.39c-1,0-1.51.4-1.51,1.85v2.7c0,1.34.39,1.66,1.58,1.66h2.63c1,0,1.55-.54,1.55-1.66Z"/></g></g></svg>