<?xml version="1.0" encoding="UTF-8"?><svg id="_レイヤー_2" xmlns="http://www.w3.org/2000/svg" viewBox="0 0 99.77 3521.2"><defs><style>.cls-1{fill:#666464;font-family:VDL-LogoJrBlack-Black-90ms-RKSJ-H, VDL-LogoJrBlack;font-size:18px;}</style></defs><g id="_レイヤー_2-2"><text class="cls-1" transform="translate(4.81 608.55) scale(1.05 1)"><tspan x="0" y="0">９：30</tspan></text><text class="cls-1" transform="translate(4.11 457.36) scale(1.05 1)"><tspan x="0" y="0">９：１５</tspan></text><text class="cls-1" transform="translate(0 754.42) scale(1.05 1)"><tspan x="0" y="0">１０：００</tspan></text><text class="cls-1" transform="translate(2.66 906.1) scale(1.05 1)"><tspan x="0" y="0">１０：１５</tspan></text><text class="cls-1" transform="translate(2.66 1056.18) scale(1.05 1)"><tspan x="0" y="0">１０：３０</tspan></text><text class="cls-1" transform="translate(2.66 1203.86) scale(1.05 1)"><tspan x="0" y="0">１０：４５</tspan></text><text class="cls-1" transform="translate(4.81 1354.23) scale(1.05 1)"><tspan x="0" y="0">１１：００</tspan></text><text class="cls-1" transform="translate(4.11 1434.83) scale(1.05 1)"><tspan x="0" y="0">１１：４５</tspan></text><text class="cls-1" transform="translate(2.66 1772.62) scale(1.05 1)"><tspan x="0" y="0">１２：１５</tspan></text><text class="cls-1" transform="translate(5.33 1965.74) scale(1.05 1)"><tspan x="0" y="0">１２：３０</tspan></text><text class="cls-1" transform="translate(5.33 2158.03) scale(1.05 1)"><tspan x="0" y="0">１２：５０</tspan></text><text class="cls-1" transform="translate(4.11 2350.11) scale(1.05 1)"><tspan x="0" y="0">１３：１０</tspan></text><text class="cls-1" transform="translate(4.81 2547.7) scale(1.05 1)"><tspan x="0" y="0">１３：３０</tspan></text><text class="cls-1" transform="translate(5.33 2740.82) scale(1.05 1)"><tspan x="0" y="0">１３：５０</tspan></text><text class="cls-1" transform="translate(5.33 2935.23) scale(1.05 1)"><tspan x="0" y="0">１４：４０</tspan></text><text class="cls-1" transform="translate(4.81 3128.35) scale(1.05 1)"><tspan x="0" y="0">１５：０５</tspan></text><text class="cls-1" transform="translate(5.33 3322.77) scale(1.05 1)"><tspan x="0" y="0">１５：３０</tspan></text><text class="cls-1" transform="translate(4.81 3515.89) scale(1.05 1)"><tspan x="0" y="0">１５：５０</tspan></text></g><g id="_レイヤー_3"><text class="cls-1" transform="translate(3.38 15.84) scale(1.05 1)"><tspan x="0" y="0">８：３０</tspan></text><text class="cls-1" transform="translate(3.37 157.34) scale(1.05 1)"><tspan x="0" y="0">８：４５</tspan></text><text class="cls-1" transform="translate(3.38 309.48) scale(1.05 1)"><tspan x="0" y="0">９：００</tspan></text></g></svg>