<?xml version="1.0" encoding="UTF-8"?><svg id="_レイヤー_2" xmlns="http://www.w3.org/2000/svg" viewBox="0 0 511.81 113.02"><defs><style>.cls-1{fill:#656464;}</style></defs><g id="_メイン"><g id="_名電祭"><g><path class="cls-1" d="M111.27,76.81h-12.17v-3.74c0-1.74-.16-2.85-.47-3.33-.31-.48-.83-.72-1.56-.72-.79,0-1.38,.32-1.79,.97s-.61,1.62-.61,2.93c0,1.68,.23,2.95,.68,3.8,.43,.85,1.67,1.88,3.7,3.08,5.84,3.46,9.51,6.31,11.02,8.53s2.27,5.8,2.27,10.74c0,3.59-.42,6.24-1.26,7.94s-2.47,3.13-4.87,4.28c-2.41,1.15-5.21,1.73-8.41,1.73-3.51,0-6.5-.67-8.98-1.99-2.48-1.33-4.11-3.02-4.87-5.08-.77-2.06-1.15-4.97-1.15-8.75v-3.3h12.18v6.13c0,1.89,.17,3.1,.51,3.64,.34,.54,.95,.81,1.82,.81s1.52-.34,1.95-1.03c.42-.68,.64-1.7,.64-3.05,0-2.97-.4-4.91-1.21-5.82-.83-.91-2.87-2.44-6.13-4.58-3.26-2.16-5.42-3.72-6.48-4.7-1.06-.98-1.94-2.32-2.63-4.05-.7-1.72-1.04-3.92-1.04-6.6,0-3.86,.49-6.68,1.48-8.47,.99-1.78,2.58-3.18,4.78-4.19,2.2-1.01,4.86-1.51,7.97-1.51,3.41,0,6.31,.55,8.7,1.65,2.4,1.1,3.99,2.49,4.76,4.16,.78,1.67,1.17,4.51,1.17,8.52v1.99Z"/><path class="cls-1" d="M147.08,83.5h-13.11v-8.76c0-2.55-.14-4.14-.42-4.77-.28-.63-.9-.95-1.85-.95-1.08,0-1.76,.38-2.06,1.15-.29,.77-.44,2.43-.44,4.98v23.42c0,2.45,.15,4.05,.44,4.79s.94,1.12,1.96,1.12,1.61-.37,1.91-1.12,.45-2.51,.45-5.27v-6.34h13.11v1.96c0,5.22-.37,8.92-1.11,11.1s-2.37,4.1-4.89,5.74c-2.52,1.64-5.63,2.46-9.33,2.46s-7.01-.7-9.5-2.09c-2.49-1.39-4.14-3.32-4.95-5.78-.81-2.46-1.21-6.16-1.21-11.1v-14.73c0-3.63,.12-6.36,.37-8.17s.99-3.57,2.23-5.25c1.24-1.68,2.95-3.01,5.14-3.97,2.19-.96,4.71-1.45,7.55-1.45,3.86,0,7.05,.75,9.56,2.24s4.16,3.35,4.95,5.58c.79,2.23,1.18,5.69,1.18,10.4v4.79Z"/><path class="cls-1" d="M181.92,61.55v50.41h-13.11v-21.17h-3.92v21.17h-13.11V61.55h13.11v18.03h3.92v-18.03h13.11Z"/><path class="cls-1" d="M217.14,91.07c0,5.07-.12,8.65-.36,10.76-.24,2.11-.99,4.03-2.24,5.78-1.26,1.74-2.95,3.08-5.09,4.02-2.14,.93-4.63,1.4-7.47,1.4s-5.12-.44-7.27-1.32-3.88-2.21-5.18-3.97c-1.31-1.76-2.09-3.68-2.33-5.76s-.37-5.71-.37-10.9v-8.62c0-5.06,.12-8.65,.36-10.76,.24-2.11,.99-4.03,2.24-5.77,1.26-1.74,2.95-3.08,5.09-4.02,2.14-.93,4.63-1.4,7.47-1.4s5.12,.44,7.27,1.32c2.15,.88,3.88,2.21,5.18,3.97,1.31,1.76,2.09,3.68,2.33,5.76,.25,2.08,.37,5.71,.37,10.9v8.62Zm-13.11-16.56c0-2.35-.13-3.85-.39-4.5-.26-.65-.79-.98-1.6-.98-.69,0-1.21,.26-1.57,.79-.36,.53-.55,2.09-.55,4.69v23.54c0,2.93,.12,4.73,.36,5.42,.24,.69,.79,1.03,1.67,1.03s1.46-.39,1.71-1.18c.25-.79,.37-2.67,.37-5.64v-23.16Z"/><path class="cls-1" d="M251.98,91.07c0,5.07-.12,8.65-.36,10.76-.24,2.11-.99,4.03-2.24,5.78-1.26,1.74-2.95,3.08-5.09,4.02-2.14,.93-4.63,1.4-7.47,1.4s-5.12-.44-7.27-1.32-3.88-2.21-5.18-3.97c-1.31-1.76-2.09-3.68-2.33-5.76s-.37-5.71-.37-10.9v-8.62c0-5.06,.12-8.65,.36-10.76,.24-2.11,.99-4.03,2.24-5.77,1.26-1.74,2.95-3.08,5.09-4.02,2.14-.93,4.63-1.4,7.47-1.4s5.12,.44,7.27,1.32c2.15,.88,3.88,2.21,5.18,3.97,1.31,1.76,2.09,3.68,2.33,5.76,.25,2.08,.37,5.71,.37,10.9v8.62Zm-13.11-16.56c0-2.35-.13-3.85-.39-4.5-.26-.65-.79-.98-1.6-.98-.69,0-1.21,.26-1.57,.79-.36,.53-.55,2.09-.55,4.69v23.54c0,2.93,.12,4.73,.36,5.42,.24,.69,.79,1.03,1.67,1.03s1.46-.39,1.71-1.18c.25-.79,.37-2.67,.37-5.64v-23.16Z"/><path class="cls-1" d="M269.98,61.55v40.32h7.97v10.09h-21.08V61.55h13.11Z"/><path class="cls-1" d="M292.36,61.55h22.2v10.09h-9.09v9.56h8.09v9.59h-8.09v21.17h-13.11V61.55Z"/><path class="cls-1" d="M317.74,61.55h21.86v10.09h-8.75v9.56h8.19v9.59h-8.19v11.08h9.62v10.09h-22.73V61.55Z"/><path class="cls-1" d="M372.01,76.81h-12.17v-3.74c0-1.74-.16-2.85-.47-3.33-.31-.48-.83-.72-1.56-.72-.79,0-1.38,.32-1.79,.97s-.61,1.62-.61,2.93c0,1.68,.23,2.95,.68,3.8,.43,.85,1.67,1.88,3.7,3.08,5.84,3.46,9.51,6.31,11.02,8.53s2.27,5.8,2.27,10.74c0,3.59-.42,6.24-1.26,7.94s-2.47,3.13-4.87,4.28c-2.41,1.15-5.21,1.73-8.41,1.73-3.51,0-6.5-.67-8.98-1.99-2.48-1.33-4.11-3.02-4.87-5.08-.77-2.06-1.15-4.97-1.15-8.75v-3.3h12.18v6.13c0,1.89,.17,3.1,.51,3.64,.34,.54,.95,.81,1.82,.81s1.52-.34,1.95-1.03c.42-.68,.64-1.7,.64-3.05,0-2.97-.4-4.91-1.21-5.82-.83-.91-2.87-2.44-6.13-4.58-3.26-2.16-5.42-3.72-6.48-4.7-1.06-.98-1.94-2.32-2.63-4.05-.7-1.72-1.04-3.92-1.04-6.6,0-3.86,.49-6.68,1.48-8.47,.99-1.78,2.58-3.18,4.78-4.19,2.2-1.01,4.86-1.51,7.97-1.51,3.41,0,6.31,.55,8.7,1.65,2.4,1.1,3.99,2.49,4.76,4.16,.78,1.67,1.17,4.51,1.17,8.52v1.99Z"/><path class="cls-1" d="M403.61,61.55v10.09h-7.78v40.32h-13.11v-40.32h-7.75v-10.09h28.65Z"/><path class="cls-1" d="M419.71,61.55v50.41h-13.11V61.55h13.11Z"/><path class="cls-1" d="M456.14,61.55l-6.67,50.41h-19.91l-7.57-50.41h13.82c1.61,13.89,2.75,25.64,3.44,35.25,.68-9.72,1.4-18.34,2.16-25.87l.91-9.37h13.83Z"/><path class="cls-1" d="M481.01,61.55l7.5,50.41h-13.4l-.7-9.06h-4.69l-.79,9.06h-13.55l6.69-50.41h18.95Zm-6.95,32.41c-.66-5.71-1.33-12.77-2-21.17-1.34,9.65-2.17,16.71-2.52,21.17h4.51Z"/><path class="cls-1" d="M503.84,61.55v40.32h7.97v10.09h-21.08V61.55h13.11Z"/></g><g><path class="cls-1" d="M25.63,1.06l7.5,50.41h-13.4l-.7-9.06h-4.69l-.79,9.06H0L6.69,1.06H25.63Zm-6.95,32.41c-.66-5.71-1.33-12.77-2-21.17-1.34,9.65-2.17,16.71-2.52,21.17h4.51Z"/><path class="cls-1" d="M48.46,1.06V51.47h-13.11V1.06h13.11Z"/><path class="cls-1" d="M80.13,1.06V11.15h-7.78V51.47h-13.11V11.15h-7.75V1.06h28.65Z"/><path class="cls-1" d="M134.81,1.06V51.47h-11.46l-.02-34.03-4.56,34.03h-8.13l-4.81-33.25-.02,33.25h-11.46V1.06h16.96c.5,3.03,1.02,6.6,1.56,10.72l1.86,12.82,3.01-23.54h17.06Z"/><path class="cls-1" d="M140.07,1.06h21.86V11.15h-8.75v9.56h8.19v9.59h-8.19v11.08h9.62v10.09h-22.73V1.06Z"/><path class="cls-1" d="M179.67,1.06V51.47h-13.11V1.06h13.11Z"/><path class="cls-1" d="M184.94,1.06h9.81c6.33,0,10.61,.29,12.84,.87,2.23,.58,3.93,1.54,5.09,2.86,1.16,1.33,1.89,2.81,2.18,4.44,.29,1.63,.44,4.83,.44,9.61v17.65c0,4.53-.21,7.55-.64,9.08-.43,1.53-1.17,2.72-2.23,3.58-1.06,.86-2.37,1.46-3.92,1.81-1.56,.34-3.9,.51-7.04,.51h-16.53V1.06Zm13.11,8.62V42.84c1.89,0,3.05-.38,3.49-1.14,.44-.76,.65-2.82,.65-6.18V15.94c0-2.28-.07-3.75-.22-4.39-.15-.64-.48-1.12-1-1.42-.52-.3-1.49-.45-2.93-.45Z"/><path class="cls-1" d="M220.18,1.06h21.86V11.15h-8.75v9.56h8.19v9.59h-8.19v11.08h9.62v10.09h-22.73V1.06Z"/><path class="cls-1" d="M275.95,1.06V51.47h-11.49l-6.82-22.92v22.92h-10.96V1.06h10.96l7.35,22.7V1.06h10.96Z"/><path class="cls-1" d="M322.59,1.06V51.47h-13.11V30.3h-3.92v21.17h-13.11V1.06h13.11V19.09h3.92V1.06h13.11Z"/><path class="cls-1" d="M335.85,41.19v10.28h-9.5v-10.28h9.5Z"/><path class="cls-1" d="M367.4,16.32h-12.17v-3.74c0-1.74-.16-2.85-.47-3.33s-.83-.72-1.56-.72c-.79,0-1.39,.32-1.79,.97s-.61,1.62-.61,2.93c0,1.68,.23,2.95,.68,3.8,.43,.85,1.67,1.88,3.7,3.08,5.84,3.46,9.51,6.31,11.03,8.53,1.51,2.22,2.27,5.8,2.27,10.74,0,3.59-.42,6.24-1.26,7.94-.84,1.7-2.47,3.13-4.87,4.28-2.41,1.15-5.21,1.73-8.41,1.73-3.51,0-6.5-.66-8.98-1.99-2.48-1.33-4.11-3.02-4.87-5.08-.77-2.06-1.15-4.97-1.15-8.75v-3.3h12.17v6.13c0,1.89,.17,3.1,.51,3.64,.34,.54,.95,.81,1.82,.81s1.52-.34,1.95-1.03c.42-.68,.64-1.7,.64-3.05,0-2.97-.4-4.91-1.21-5.82-.83-.91-2.87-2.44-6.13-4.58-3.26-2.16-5.42-3.73-6.48-4.7-1.06-.98-1.94-2.32-2.63-4.05-.7-1.72-1.04-3.92-1.04-6.6,0-3.86,.49-6.68,1.48-8.47,.99-1.78,2.58-3.18,4.78-4.19,2.2-1.01,4.86-1.51,7.97-1.51,3.4,0,6.31,.55,8.7,1.65s3.99,2.49,4.76,4.16c.78,1.67,1.17,4.51,1.17,8.52v1.99Z"/><path class="cls-1" d="M380.6,41.19v10.28h-9.5v-10.28h9.5Z"/></g></g></g></svg>