<svg xmlns="http://www.w3.org/2000/svg" viewBox="0 0 736.72 848.63"><defs><style>.cls-1{fill:#eb6519;}.cls-2{fill:#f7c5af;}.cls-3{fill:#f7d15f;}.cls-4,.cls-8{fill:#f2f9fd;}.cls-5{fill:#f2bfd7;}.cls-6{fill:#f3ed66;}.cls-7{fill:#f1d654;}.cls-8{stroke:#b2ce65;stroke-miterlimit:10;stroke-width:20px;}.cls-9{fill:#b2ce65;}.cls-10{fill:#ef8871;}.cls-11{fill:#656464;}</style></defs><g id="レイヤー_2" data-name="レイヤー 2"><g id="メイン"><g id="旗"><rect class="cls-1" x="611.37" y="66.92" width="148.65" height="53.51" transform="translate(786.05 -591.07) rotate(90.56)"/><path class="cls-2" d="M651.44,218.49l2.85.65,2-203.59a1.81,1.81,0,0,0-1.79-1.82h0a1.8,1.8,0,0,0-1.82,1.79"/><rect class="cls-1" x="648.56" y="22.46" width="14.43" height="7.63" transform="matrix(-0.01, 1, -1, -0.01, 688.44, -629.22)"/><rect class="cls-1" x="647.25" y="156.67" width="14.43" height="7.63" transform="translate(821.32 -492.39) rotate(90.56)"/><rect class="cls-1" x="647.91" y="89.56" width="14.43" height="7.63" transform="matrix(-0.01, 1, -1, -0.01, 754.88, -560.8)"/><rect class="cls-1" x="647.58" y="123.12" width="14.43" height="7.63" transform="matrix(-0.01, 1, -1, -0.01, 788.1, -526.6)"/><rect class="cls-1" x="648.23" y="56.01" width="14.43" height="7.63" transform="matrix(-0.01, 1, -1, -0.01, 721.66, -595.01)"/></g><g id="吹き出し"><circle class="cls-3" cx="612.34" cy="187.05" r="118.89"/><path class="cls-4" d="M612.34,70.66a116.4,116.4,0,1,1-116.4,116.39A116.39,116.39,0,0,1,612.34,70.66m0-5a121.38,121.38,0,1,0,85.84,35.55,120.63,120.63,0,0,0-85.84-35.55Z"/><circle class="cls-5" cx="364.63" cy="743.65" r="102.48"/><path class="cls-4" d="M364.63,643.68a100,100,0,1,1-100,100,100,100,0,0,1,100-100m0-5a105,105,0,1,0,105,105,105.09,105.09,0,0,0-105-105Z"/><circle class="cls-6" cx="215.4" cy="522.8" r="21.9"/><path class="cls-4" d="M215.4,503.41A19.4,19.4,0,1,1,196,522.8a19.39,19.39,0,0,1,19.39-19.39m0-5a24.4,24.4,0,1,0,24.4,24.39,24.42,24.42,0,0,0-24.4-24.39Z"/><path class="cls-7" d="M376.57,185.08a24.89,24.89,0,1,1,24.88-24.89A24.92,24.92,0,0,1,376.57,185.08Z"/><path class="cls-4" d="M376.57,137.81a22.39,22.39,0,1,1-22.39,22.38,22.38,22.38,0,0,1,22.39-22.38m0-5A27.39,27.39,0,1,0,404,160.19a27.42,27.42,0,0,0-27.38-27.38Z"/><path class="cls-5" d="M100.5,505.91a98,98,0,1,1,96.94-112.29l32.78,5.91a2.5,2.5,0,0,1,.07,4.91l-31.86,6.7a98,98,0,0,1-97.93,94.77Z"/><path class="cls-4" d="M100.5,312.4a95.5,95.5,0,0,1,94.71,83.36L229.77,402,196,409.1a95.49,95.49,0,1,1-95.48-96.7m0-5A100.5,100.5,0,1,0,200.85,413.19l30-6.31a5,5,0,0,0-.14-9.81l-31-5.59A100.64,100.64,0,0,0,100.5,307.4Z"/><path class="cls-6" d="M260.07,151.48a74.84,74.84,0,0,1-84.3-74.19A74.79,74.79,0,1,1,276.05,147.6l2.62,42.67Z"/><path class="cls-4" d="M250.56,5a72.29,72.29,0,0,1,22.88,140.86l1.95,31.79-13.85-28.9a73.61,73.61,0,0,1-11,.83A72.29,72.29,0,1,1,250.56,5m0-5a77.29,77.29,0,1,0,8,154.16l12.29,25.65L282,202.89l-1.57-25.55-1.72-28.05A77.29,77.29,0,0,0,250.56,0Z"/><path class="cls-7" d="M212.85,192.94a55.36,55.36,0,1,1,11-11.74l26.77,31.21Z"/><path class="cls-4" d="M178.27,96.6a53,53,0,0,1,42.4,84.74l19.72,23L212.53,190A53,53,0,1,1,178.27,96.6m0-5a58,58,0,1,0,34.85,104.29l25,12.88,22.75,11.73-16.67-19.43L227,181a57.45,57.45,0,0,0,9.26-31.44,58,58,0,0,0-58-58Z"/><path class="cls-7" d="M645.17,673a66.66,66.66,0,0,1-65.71-77.93l-28.75-18.94a2.5,2.5,0,0,1,1.37-4.59,2.63,2.63,0,0,1,.49,0l32.24,6.42a66.67,66.67,0,1,1,60.36,95Z"/><path class="cls-4" d="M645.17,542.2a64.18,64.18,0,1,1-62.95,51.73l-30.14-19.85,34.19,6.81a64.17,64.17,0,0,1,58.9-38.69m0-5a69.16,69.16,0,0,0-61.76,38l-30.35-6a4.66,4.66,0,0,0-1-.1,5,5,0,0,0-2.75,9.18l27.41,18a69.16,69.16,0,1,0,68.43-59.11Z"/><path class="cls-6" d="M554.89,798.38a33.08,33.08,0,0,1-28-50.7L514.1,725.07a2.51,2.51,0,0,1,.56-3.13,2.46,2.46,0,0,1,1.62-.6,2.53,2.53,0,0,1,1.56.54l19.42,15.41a33.09,33.09,0,1,1,17.63,61.09Z"/><path class="cls-4" d="M516.28,723.84l20.86,16.55a30.54,30.54,0,1,1-7.33,7.39l-13.53-23.94m0-5a5,5,0,0,0-4.35,7.46L524,747.64a35.6,35.6,0,1,0,13.48-13.38l-18.07-14.33a5,5,0,0,0-3.11-1.09Z"/><path class="cls-3" d="M123.72,680.67a57.06,57.06,0,1,1,37-100.45l28.64-13.31a2.47,2.47,0,0,1,1.05-.24,2.5,2.5,0,0,1,1.83,4.21l-20.49,22a57.05,57.05,0,0,1-48.06,87.79Z"/><path class="cls-4" d="M123.72,569.06a54.38,54.38,0,0,1,36.6,14.11l30.13-14L168.6,592.62a54.54,54.54,0,1,1-44.88-23.56m0-5a59.56,59.56,0,1,0,51.19,29.13l19.19-20.61a5,5,0,0,0-3.66-8.41,4.9,4.9,0,0,0-2.1.47l-27.21,12.64a59.44,59.44,0,0,0-37.41-13.22Z"/><path class="cls-5" d="M697.4,523.81a36.81,36.81,0,0,1-35.85-28.41l-33.09-7.33a2.5,2.5,0,0,1,.12-4.91l33.23-5.63a36.82,36.82,0,1,1,35.59,46.28Z"/><path class="cls-4" d="M697.4,452.67a34.32,34.32,0,1,1-33.74,40.64L629,485.63l34.85-5.91a34.34,34.34,0,0,1,33.55-27.05m0-5a39.35,39.35,0,0,0-37.56,27.66l-31.67,5.37a5,5,0,0,0-.25,9.81l31.59,7a39.32,39.32,0,1,0,37.89-49.84Z"/><path class="cls-5" d="M428.22,140.48a2.49,2.49,0,0,1-2.39-2.09l-3.5-21a31.59,31.59,0,1,1,13.23-.38l-4.83,21.51a2.49,2.49,0,0,1-2.44,1.95Z"/><path class="cls-4" d="M428.05,57.23a29.09,29.09,0,0,1,5.42,57.68L428.29,138,424.5,115.2a29.09,29.09,0,0,1,3.55-58m0-5a34.1,34.1,0,0,0-7.9,67.27l3.21,19.3a5,5,0,0,0,4.79,4.18h.15a5,5,0,0,0,4.87-3.9l4.5-20a34.1,34.1,0,0,0-9.62-66.81Z"/></g><g id="スマホ"><rect class="cls-8" x="229.77" y="170.81" width="286.51" height="507.36" rx="31.42"/><circle class="cls-9" cx="376.57" cy="618.76" r="29.27"/><rect class="cls-9" x="313.22" y="166.93" width="119.62" height="37.85" rx="9.91"/><polygon class="cls-10" points="324.14 491.08 376.26 438.96 428.38 491.08 324.14 491.08"/><path class="cls-10" d="M354.89,503.2v12.94h-10v51.71H328.09V516.14h-9.94V503.2Z"/><path class="cls-10" d="M387.78,503.2l9.61,64.65H380.21l-.9-11.62h-6l-1,11.62H354.91l8.57-64.65Zm-8.91,41.57q-1.28-11-2.56-27.15-2.58,18.57-3.23,27.15Z"/><path class="cls-10" d="M400.24,503.2h16.93a39.79,39.79,0,0,1,10.57,1.08,11.82,11.82,0,0,1,5.55,3.12,10.72,10.72,0,0,1,2.51,4.93,44.07,44.07,0,0,1,.66,9v5.63c0,4.13-.43,7.13-1.28,9a8.69,8.69,0,0,1-4.69,4.36,22.19,22.19,0,0,1-8.92,1.52h-4.51v26H400.24Zm16.82,11.06v16.45c.47,0,.89,0,1.23,0a3.89,3.89,0,0,0,3.22-1.13q.9-1.14.9-4.74v-5.31c0-2.2-.35-3.64-1-4.31S419.24,514.26,417.06,514.26Z"/></g><g id="日時"><path class="cls-11" d="M562.64,168.76H531.77v-15h26.49c2.34,0,3.14-1.73,3.14-3.4v-.12a39.85,39.85,0,0,1-4.63.31H546.59c-13.15,0-17.6-6.92-17.6-15.19v-1.85c0-8.46,4.14-16,17.6-16h14.32c12.84,0,19,6.85,19,16.91v17.48C579.93,160.8,574.55,168.76,562.64,168.76Zm-1.24-33.71a1.72,1.72,0,0,0-1.91-1.91H549.3c-1.48,0-1.91.86-1.91,1.6v.68a1.75,1.75,0,0,0,1.91,1.92h10.19a1.71,1.71,0,0,0,1.91-1.79Z"/><path class="cls-11" d="M584.43,168.51V150.05h18.21v18.46Z"/><path class="cls-11" d="M620.05,168.76V138a1.21,1.21,0,0,0-1.36-1.35H607.33V118.51H628.2c7,0,11.23,4.5,11.23,11.11v39.14Z"/><path class="cls-11" d="M677.64,169.75H663.32c-12.78,0-19-6.79-19-16.86V135.42c0-8.95,5.31-16.91,17.22-16.91H693v15.06H666a3,3,0,0,0-3.21,3.33v.19a39,39,0,0,1,4.63-.25h10.18c13.15,0,17.6,6.79,17.6,15.13v1.79C695.24,162.28,691.1,169.75,677.64,169.75Zm-.8-18a1.82,1.82,0,0,0-2-1.85H664.74a1.74,1.74,0,0,0-1.91,1.79v.56a1.74,1.74,0,0,0,1.91,1.91h10.12c1.55,0,2-.93,2-1.61Z"/><path class="cls-11" d="M545.9,201.06v-3.13h-5v3.13h-7.25V188.39c0-6.3,1.45-8.47,8.16-8.47h2.83c6.71,0,8.49,2.17,8.49,8.47v12.67Zm0-12.67c0-1.32-.2-1.7-1.37-1.7h-2.32c-1.14,0-1.34.38-1.34,1.7v2.93h5Z"/><path class="cls-11" d="M571.59,201.06V189c0-1.52-.18-2.08-1.6-2.13v14.24h-5.42V186.82c-1.3.1-1.58.79-1.58,2.13v12.11h-7V188.29c0-6,2.57-8.11,8.7-8.11h5.52c6.21,0,8.47,1.78,8.47,8.11v12.77Z"/><path class="cls-11" d="M602.8,201.24h-6.11c-6.58,0-7.4-3-7.4-6.28V194a4.47,4.47,0,0,1,1.48-3.48,4.35,4.35,0,0,1-1-3v-1.35c0-4.68,1.73-6.15,6.85-6.15h6.33c6.18,0,7,2.77,7,6.15v1.35a4.16,4.16,0,0,1-1.09,2.95,4.47,4.47,0,0,1,1.58,3.51V195C610.38,199,608.7,201.24,602.8,201.24Zm.12-7.28c0-.25-.2-.63-.83-.63h-4.53c-.51,0-.82.25-.82.63v.31a.74.74,0,0,0,.82.69h4.53c.66,0,.83-.36.83-.69Zm-.22-7a.6.6,0,0,0-.69-.62h-4.32c-.56,0-.77.31-.77.62v.33c0,.33.26.53.77.53H602a.62.62,0,0,0,.69-.53Z"/><path class="cls-11" d="M612,190.81v-7.63h7.51v7.63ZM612,201v-7.61h7.51V201Z"/><path class="cls-11" d="M634.72,201.09H621.13v-6.62h12c.53,0,.69-.2.69-.61v-.28c0-.28-.18-.58-.69-.58H621.21v-4.68h11.73a.56.56,0,0,0,.61-.59v-.17a.57.57,0,0,0-.64-.64h-11.6v-6.56h13.31c4.55,0,6.61,1.93,6.61,5.41v1.68a4.4,4.4,0,0,1-1.2,3.06,4.28,4.28,0,0,1,1.61,3.43v1.42C641.64,200.38,639,201.09,634.72,201.09Z"/><path class="cls-11" d="M655.52,201.34H652.8c-6.79,0-8.8-2-8.8-8.8v-3.46c0-7.15,2.11-9,8.72-9h2.93c6.54,0,8.7,1.83,8.7,9v3.46C664.35,199.38,662.31,201.34,655.52,201.34Zm1.88-12.26c0-1.83-.68-2.34-1.75-2.34h-2.93c-1.27,0-1.83.54-1.83,2.34v3.46c0,1.68.46,2.14,1.91,2.14h2.72c1.25,0,1.88-.74,1.88-2.14Z"/><path class="cls-11" d="M602.26,222.29c-2.13,0-4-2.27-5.67-2.27a6.47,6.47,0,0,0-4,1.68v-7.22a6,6,0,0,1,4-1.35c2.45,0,4.25,2.26,5.73,2.26a6.78,6.78,0,0,0,4.14-1.72v7.24A6.61,6.61,0,0,1,602.26,222.29Z"/><path class="cls-11" d="M564,250.83h-5.62v4.25h-7.56V234.32H564c4.2,0,7,2,7,7.56v1.65C571.06,247.88,568.92,250.83,564,250.83Zm-.51-8.32c0-1.24-.41-1.39-1.52-1.39h-3.59V244h3.59c1.09,0,1.52-.3,1.52-1.22Z"/><path class="cls-11" d="M589.75,255.08V243c0-1.52-.18-2.08-1.6-2.13v14.24h-5.42V240.84c-1.3.1-1.58.79-1.58,2.13v12.11h-7V242.31c0-6.05,2.57-8.11,8.7-8.11h5.52c6.21,0,8.47,1.78,8.47,8.11v12.77Z"/><path class="cls-11" d="M613,255.08V242.41a.5.5,0,0,0-.56-.56h-4.68v-7.47h8.6A4.31,4.31,0,0,1,621,239v16.13Z"/><path class="cls-11" d="M636.12,247.53h-5.24v1h12.46v6.59H623.07V242.36h12c.68,0,.94-.28.94-.68v-.11c0-.43-.33-.63-.94-.63h-12v-6.56h13c5.54,0,7.75,2.49,7.75,6.76v.46C643.87,244.73,642.22,247.53,636.12,247.53Z"/><path class="cls-11" d="M645.73,244.83V237.2h7.5v7.63Zm0,10.15v-7.61h7.5V255Z"/><path class="cls-11" d="M667,255.36H664.3c-6.8,0-8.81-2-8.81-8.8V243.1c0-7.15,2.12-9,8.73-9h2.92c6.54,0,8.7,1.83,8.7,9v3.46C675.84,253.4,673.81,255.36,667,255.36Zm1.88-12.26c0-1.83-.69-2.34-1.76-2.34h-2.92c-1.27,0-1.83.53-1.83,2.34v3.46c0,1.68.46,2.14,1.91,2.14H667c1.24,0,1.88-.74,1.88-2.14Z"/><path class="cls-11" d="M690.21,255.36h-2.72c-6.79,0-8.8-2-8.8-8.8V243.1c0-7.15,2.11-9,8.72-9h2.93c6.54,0,8.7,1.83,8.7,9v3.46C699,253.4,697,255.36,690.21,255.36Zm1.88-12.26c0-1.83-.68-2.34-1.75-2.34h-2.93c-1.27,0-1.83.53-1.83,2.34v3.46c0,1.68.46,2.14,1.91,2.14h2.72c1.25,0,1.88-.74,1.88-2.14Z"/></g></g></g></svg>