<?xml version="1.0" encoding="UTF-8"?><svg id="_レイヤー_2" xmlns="http://www.w3.org/2000/svg" viewBox="0 0 736.72 848.63"><defs><style>.cls-1{stroke:#b2ce65;stroke-miterlimit:10;stroke-width:20px;}.cls-1,.cls-2{fill:#f2f9fd;}.cls-3{fill:#f2bfd7;}.cls-4{fill:#f7c5af;}.cls-5{fill:#f3ed66;}.cls-6{fill:#eb6519;}.cls-7{fill:#b2ce65;}.cls-8{fill:#f1d654;}.cls-9{fill:#ef8871;}.cls-10{fill:#f7d15f;}</style></defs><g id="_メイン"><g id="_旗"><rect class="cls-6" x="611.37" y="66.92" width="148.65" height="53.51" transform="translate(786.05 -591.07) rotate(90.56)"/><path class="cls-4" d="M651.44,218.49l2.85,.65,1.98-203.59c0-1-.79-1.82-1.79-1.82h0c-1,0-1.82,.79-1.82,1.79"/><rect class="cls-6" x="648.56" y="22.46" width="14.43" height="7.63" transform="translate(688.44 -629.22) rotate(90.56)"/><rect class="cls-6" x="648.23" y="56.01" width="14.43" height="7.63" transform="translate(721.66 -595.01) rotate(90.56)"/></g><g id="_吹き出し"><g><circle class="cls-10" cx="612.34" cy="187.05" r="118.89"/><path class="cls-2" d="M612.34,70.66c64.28,0,116.39,52.11,116.39,116.39s-52.11,116.39-116.39,116.39-116.39-52.11-116.39-116.39,52.11-116.39,116.39-116.39m0-5c-32.43,0-62.91,12.63-85.84,35.56-22.93,22.93-35.56,53.41-35.56,85.84s12.63,62.91,35.56,85.84c22.93,22.93,53.41,35.56,85.84,35.56s62.91-12.63,85.84-35.56c22.93-22.93,35.56-53.41,35.56-85.84s-12.63-62.91-35.56-85.84c-22.93-22.93-53.41-35.56-85.84-35.56h0Z"/></g><g><circle class="cls-3" cx="364.63" cy="743.65" r="102.48"/><path class="cls-2" d="M364.63,643.68c55.22,0,99.98,44.76,99.98,99.98s-44.76,99.98-99.98,99.98-99.98-44.76-99.98-99.98,44.76-99.98,99.98-99.98m0-5c-57.89,0-104.98,47.09-104.98,104.98s47.09,104.98,104.98,104.98,104.98-47.09,104.98-104.98-47.09-104.98-104.98-104.98h0Z"/></g><g><circle class="cls-5" cx="215.4" cy="522.8" r="21.9"/><path class="cls-2" d="M215.4,503.41c10.71,0,19.4,8.69,19.4,19.4s-8.69,19.4-19.4,19.4-19.4-8.69-19.4-19.4,8.69-19.4,19.4-19.4m0-5c-13.45,0-24.4,10.95-24.4,24.4s10.95,24.4,24.4,24.4,24.4-10.95,24.4-24.4-10.95-24.4-24.4-24.4h0Z"/></g><g><path class="cls-8" d="M376.57,185.08c-13.72,0-24.88-11.16-24.88-24.88s11.16-24.88,24.88-24.88,24.88,11.16,24.88,24.88-11.16,24.88-24.88,24.88Z"/><path class="cls-2" d="M376.57,137.81c12.36,0,22.38,10.02,22.38,22.38s-10.02,22.38-22.38,22.38-22.38-10.02-22.38-22.38,10.02-22.38,22.38-22.38m0-5c-15.1,0-27.38,12.28-27.38,27.38s12.28,27.38,27.38,27.38,27.38-12.28,27.38-27.38-12.28-27.38-27.38-27.38h0Z"/></g><g><path class="cls-3" d="M100.5,505.91c-54.04,0-98-43.96-98-98s43.96-98,98-98c48.6,0,89.95,35.86,96.94,83.72l32.77,5.91c1.18,.21,2.04,1.23,2.06,2.42,.02,1.2-.81,2.24-1.98,2.48l-31.86,6.71c-.82,25.16-11.08,48.7-29.05,66.46-18.46,18.25-42.92,28.3-68.88,28.3Z"/><path class="cls-2" d="M100.5,312.4c48.63,0,88.74,36.35,94.71,83.36l34.56,6.23-33.8,7.11c-.65,52.19-43.13,94.3-95.47,94.3S5,460.65,5,407.9s42.76-95.5,95.5-95.5m0-5C45.09,307.4,0,352.49,0,407.9s45.09,100.5,100.5,100.5c26.62,0,51.71-10.31,70.64-29.03,17.95-17.75,28.41-41.13,29.71-66.19l29.96-6.31c2.34-.49,4-2.57,3.97-4.97s-1.76-4.42-4.11-4.85l-31.02-5.59c-7.92-48.19-49.9-84.08-99.14-84.08h0Z"/></g><g><path class="cls-5" d="M260.07,151.48c-3.15,.4-6.34,.6-9.51,.6-41.24,0-74.79-33.55-74.79-74.79S209.32,2.5,250.56,2.5s74.79,33.55,74.79,74.79c0,31.59-19.73,59.6-49.29,70.31l2.62,42.67-18.6-38.79Z"/><path class="cls-2" d="M250.56,5c39.92,0,72.29,32.36,72.29,72.29,0,31.92-20.7,58.99-49.4,68.57l1.95,31.79-13.86-28.9c-3.58,.55-7.25,.83-10.98,.83-39.92,0-72.29-32.36-72.29-72.29S210.63,5,250.56,5m0-5c-42.62,0-77.29,34.67-77.29,77.29s34.67,77.29,77.29,77.29c2.68,0,5.37-.14,8.03-.41l12.3,25.65,11.07,23.08-1.57-25.55-1.72-28.06c29.58-11.52,49.18-39.98,49.18-72C327.85,34.67,293.17,0,250.56,0h0Z"/></g><g><path class="cls-8" d="M212.85,192.94c-9.8,7.82-22.02,12.11-34.58,12.11-30.59,0-55.47-24.89-55.47-55.47s24.89-55.47,55.47-55.47,55.47,24.89,55.47,55.47c0,11.43-3.41,22.32-9.89,31.62l26.77,31.21-37.77-19.47Z"/><path class="cls-2" d="M178.27,96.6c29.26,0,52.97,23.72,52.97,52.97,0,11.91-3.93,22.91-10.57,31.76l19.72,22.99-27.86-14.36c-9.24,7.85-21.19,12.59-34.26,12.59-29.26,0-52.97-23.72-52.97-52.97s23.72-52.97,52.97-52.97m0-5c-31.97,0-57.97,26.01-57.97,57.97s26.01,57.97,57.97,57.97c12.59,0,24.84-4.12,34.85-11.66l24.97,12.88,22.75,11.73-16.66-19.43-17.2-20.05c6.07-9.36,9.26-20.15,9.26-31.44,0-31.97-26.01-57.97-57.97-57.97h0Z"/></g><g><path class="cls-8" d="M645.17,673.04c-36.76,0-66.67-29.91-66.67-66.67,0-3.75,.32-7.53,.96-11.26l-28.75-18.94c-1-.66-1.39-1.93-.94-3.04,.39-.95,1.31-1.55,2.31-1.55,.16,0,.33,.02,.49,.05l32.24,6.42c10.97-23.36,34.44-38.35,60.36-38.35,36.76,0,66.67,29.91,66.67,66.67s-29.91,66.67-66.67,66.67Z"/><path class="cls-2" d="M645.17,542.2c35.44,0,64.17,28.73,64.17,64.17s-28.73,64.17-64.17,64.17-64.17-28.73-64.17-64.17c0-4.26,.42-8.41,1.22-12.44l-30.13-19.85,34.19,6.81c9.86-22.76,32.51-38.69,58.9-38.69m0-5c-26.23,0-50.05,14.79-61.76,38.02l-30.34-6.04c-.33-.07-.66-.1-.98-.1-1.99,0-3.84,1.2-4.62,3.1-.91,2.21-.12,4.76,1.88,6.07l27.4,18.05c-.49,3.34-.74,6.71-.74,10.06,0,38.14,31.03,69.17,69.17,69.17s69.17-31.03,69.17-69.17-31.03-69.17-69.17-69.17h0Z"/></g><g><path class="cls-5" d="M554.89,798.38c-18.25,0-33.09-14.84-33.09-33.09,0-6.28,1.75-12.34,5.08-17.61l-12.77-22.61c-.59-1.04-.36-2.35,.55-3.13,.47-.4,1.05-.6,1.62-.6,.55,0,1.1,.18,1.55,.54l19.42,15.41c5.28-3.34,11.34-5.09,17.63-5.09,18.25,0,33.09,14.84,33.09,33.09s-14.84,33.09-33.09,33.09Z"/><path class="cls-2" d="M516.28,723.84l20.85,16.54c5.01-3.57,11.13-5.69,17.75-5.69,16.89,0,30.59,13.7,30.59,30.59s-13.7,30.59-30.59,30.59-30.59-13.7-30.59-30.59c0-6.51,2.04-12.55,5.51-17.51l-13.53-23.94m0-5c-1.16,0-2.32,.4-3.25,1.2-1.82,1.55-2.28,4.18-1.1,6.26l12.06,21.34c-3.08,5.36-4.69,11.41-4.69,17.65,0,19.62,15.97,35.59,35.59,35.59s35.59-15.97,35.59-35.59-15.97-35.59-35.59-35.59c-6.17,0-12.12,1.57-17.43,4.56l-18.07-14.34c-.91-.72-2.01-1.08-3.11-1.08h0Z"/></g><g><path class="cls-10" d="M123.72,680.67c-31.46,0-57.05-25.59-57.05-57.05s25.59-57.05,57.05-57.05c13.62,0,26.71,4.84,37.03,13.65l28.65-13.31c.34-.16,.7-.23,1.05-.23,.78,0,1.54,.37,2.02,1.03,.7,.97,.62,2.3-.19,3.17l-20.5,22c5.89,9.18,8.99,19.77,8.99,30.73,0,31.46-25.59,57.05-57.05,57.05Z"/><path class="cls-2" d="M123.72,569.06c14.09,0,26.93,5.34,36.6,14.11l30.12-14-21.84,23.45c6.09,8.8,9.67,19.48,9.67,30.99,0,30.13-24.42,54.55-54.55,54.55s-54.55-24.42-54.55-54.55,24.42-54.55,54.55-54.55m0-5c-32.84,0-59.55,26.71-59.55,59.55s26.71,59.55,59.55,59.55,59.55-26.71,59.55-59.55c0-10.8-2.88-21.23-8.36-30.43l19.2-20.61c1.63-1.75,1.79-4.41,.39-6.35-.97-1.33-2.49-2.06-4.05-2.06-.71,0-1.43,.15-2.1,.47l-27.21,12.64c-10.57-8.55-23.73-13.22-37.41-13.22h0Z"/></g><g><path class="cls-3" d="M697.4,523.81c-17.17,0-31.99-11.85-35.85-28.41l-33.09-7.33c-1.17-.26-1.99-1.31-1.96-2.5,.03-1.2,.9-2.2,2.08-2.4l33.22-5.63c4.24-15.95,18.94-27.36,35.59-27.36,20.3,0,36.82,16.52,36.82,36.82s-16.52,36.82-36.82,36.82Z"/><path class="cls-2" d="M697.4,452.67c18.96,0,34.32,15.37,34.32,34.32s-15.37,34.32-34.32,34.32c-16.8,0-30.77-12.07-33.73-28.01l-34.66-7.68,34.85-5.9c3.33-15.46,17.08-27.05,33.54-27.05m0-5c-9.04,0-17.87,3.15-24.86,8.86-5.99,4.89-10.42,11.48-12.7,18.81l-31.68,5.36c-2.36,.4-4.1,2.41-4.16,4.8-.06,2.39,1.58,4.49,3.92,5.01l31.59,7c4.66,16.88,20.09,28.81,37.89,28.81,21.68,0,39.32-17.64,39.32-39.32s-17.64-39.32-39.32-39.32h0Z"/></g><g><path class="cls-3" d="M428.22,140.48c-1.2-.03-2.2-.91-2.4-2.09l-3.5-20.99c-14.88-2.72-25.88-15.76-25.88-31.07,0-17.42,14.18-31.6,31.6-31.6s31.6,14.18,31.6,31.6c0,14.62-10.03,27.27-24.09,30.69l-4.83,21.51c-.26,1.14-1.27,1.95-2.44,1.95-.02,0-.05,0-.07,0Z"/><path class="cls-2" d="M428.05,57.23c16.07,0,29.1,13.03,29.1,29.1,0,14.22-10.2,26.04-23.67,28.59l-5.18,23.07-3.79-22.78c-14.4-1.75-25.55-14.01-25.55-28.88,0-16.07,13.03-29.1,29.1-29.1m0-5c-18.8,0-34.1,15.3-34.1,34.1,0,15.93,11.02,29.58,26.2,33.17l3.22,19.31c.39,2.36,2.4,4.11,4.79,4.18,.05,0,.09,0,.14,0,2.33,0,4.36-1.62,4.88-3.91l4.5-20.04c14.37-4.21,24.48-17.47,24.48-32.71,0-18.8-15.3-34.1-34.1-34.1h0Z"/></g></g><g id="_スマホ"><rect class="cls-1" x="229.77" y="170.81" width="286.51" height="507.36" rx="31.42" ry="31.42"/><circle class="cls-7" cx="376.57" cy="618.76" r="29.27"/><rect class="cls-7" x="313.22" y="166.93" width="119.62" height="37.85" rx="9.91" ry="9.91"/><g><polygon class="cls-9" points="324.14 491.08 376.26 438.96 428.38 491.08 324.14 491.08"/><g><path class="cls-9" d="M354.89,503.2v12.94h-9.98v51.71h-16.81v-51.71h-9.94v-12.94h36.74Z"/><path class="cls-9" d="M387.78,503.2l9.61,64.65h-17.18l-.9-11.62h-6.01l-1.01,11.62h-17.38l8.58-64.65h24.3Zm-8.91,41.57c-.85-7.32-1.7-16.37-2.56-27.15-1.71,12.38-2.79,21.43-3.23,27.15h5.79Z"/><path class="cls-9" d="M400.24,503.2h16.93c4.58,0,8.1,.36,10.56,1.08,2.46,.72,4.31,1.76,5.55,3.11,1.24,1.36,2.08,3,2.52,4.93,.44,1.93,.66,4.92,.66,8.96v5.63c0,4.13-.43,7.13-1.28,9.02-.85,1.89-2.42,3.34-4.69,4.35-2.28,1.01-5.25,1.52-8.92,1.52h-4.51v26.03h-16.81v-64.65Zm16.81,11.06v16.45c.48,.03,.89,.04,1.24,.04,1.54,0,2.62-.38,3.21-1.14,.6-.76,.9-2.34,.9-4.73v-5.31c0-2.21-.35-3.65-1.04-4.31-.69-.66-2.13-1-4.31-1Z"/></g></g></g></g></svg>