<?xml version="1.0" encoding="UTF-8"?><svg id="_レイヤー_2" xmlns="http://www.w3.org/2000/svg" viewBox="0 0 1920 1080.41"><defs><style>.cls-1{fill:#fff;}.cls-2{fill:#78bbcf;}.cls-3{fill:#bbe1e7;}.cls-4{fill:#7fc6db;}.cls-5{fill:#edebf5;}.cls-6{fill:#41aee4;}.cls-7{fill:#83cde3;}.cls-8{fill:#f2f9fd;}</style></defs><g id="_メイン"><rect id="_背景" class="cls-3" x="0" width="1920" height="1080.41"/><g id="_右上雲"><g><path class="cls-2" d="M963.81,325.92h956.19v59.26H963.81c-16.35,0-29.63-13.28-29.63-29.63h0c0-16.35,13.28-29.63,29.63-29.63Z"/><path class="cls-2" d="M991.9,88.89h324.24v59.26h-324.24c-16.35,0-29.63-13.28-29.63-29.63h0c0-16.35,13.28-29.63,29.63-29.63Z"/><path class="cls-2" d="M887.84,207.4h352.34v59.26h-352.34c-16.35,0-29.63-13.28-29.63-29.63h0c0-16.35,13.28-29.63,29.63-29.63Z"/></g><g><path class="cls-8" d="M991.9,59.26h928.1v59.26H991.9c-16.35,0-29.63-13.28-29.63-29.63h0c0-16.35,13.28-29.63,29.63-29.63Z"/><path class="cls-8" d="M887.84,177.77H1920v59.26H887.84c-16.35,0-29.63-13.28-29.63-29.63h0c0-16.35,13.28-29.63,29.63-29.63Z"/><path class="cls-8" d="M963.81,296.29h956.19v59.26H963.81c-16.35,0-29.63-13.28-29.63-29.63h0c0-16.35,13.28-29.63,29.63-29.63Z"/><path class="cls-1" d="M1043.94,0c16.36,0,29.63,13.27,29.63,29.63h0c0,16.36-13.27,29.63-29.63,29.63h272.21V0h-272.21Z"/><path class="cls-8" d="M1073.56,118.52v.46c13.89,2.45,24.45,14.57,24.45,29.17s-10.56,26.72-24.45,29.17v.46h846.44v-59.26h-846.44Z"/><path class="cls-8" d="M1007.68,237.03c16.36,0,29.63,13.27,29.63,29.63h0c0,16.36-13.27,29.63-29.63,29.63h912.32v-59.26H1007.68Z"/></g></g><g id="_左下雲"><g><path class="cls-2" d="M29.63,926.71H753.51v59.26H29.63C13.28,985.97,0,972.69,0,956.34H0C0,939.99,13.28,926.71,29.63,926.71Z" transform="translate(753.51 1912.68) rotate(180)"/><path class="cls-2" d="M581.84,689.68h143.57v59.26h-143.57c-16.35,0-29.63-13.28-29.63-29.63h0c0-16.35,13.28-29.63,29.63-29.63Z" transform="translate(1277.62 1438.62) rotate(180)"/><path class="cls-2" d="M581.84,808.2h247.63v59.26h-247.63c-16.35,0-29.63-13.28-29.63-29.63h0c0-16.35,13.28-29.63,29.63-29.63Z" transform="translate(1381.69 1675.65) rotate(-180)"/><path class="cls-2" d="M581.84,577.49h102.74v59.26h-102.74c-16.35,0-29.63-13.28-29.63-29.63h0c0-16.35,13.28-29.63,29.63-29.63Z" transform="translate(1236.79 1214.23) rotate(-180)"/></g><g><path class="cls-8" d="M29.63,660.05H725.41v59.26H29.63C13.28,719.31,0,706.03,0,689.68H0C0,673.33,13.28,660.05,29.63,660.05Z" transform="translate(725.41 1379.36) rotate(-180)"/><path class="cls-8" d="M29.63,778.57H829.48v59.26H29.63C13.28,837.83,0,824.55,0,808.2H0C0,791.84,13.28,778.57,29.63,778.57Z" transform="translate(829.48 1616.39) rotate(-180)"/><path class="cls-8" d="M29.63,897.08H753.51v59.26H29.63C13.28,956.34,0,943.07,0,926.71H0C0,910.36,13.28,897.08,29.63,897.08Z" transform="translate(753.51 1853.43) rotate(-180)"/><path class="cls-8" d="M643.75,600.79c-16.36,0-29.63,13.27-29.63,29.63h0c0,16.36,13.27,29.63,29.63,29.63H0v-59.26H643.75Z"/><path class="cls-8" d="M614.12,719.31v.46c-13.89,2.45-24.45,14.57-24.45,29.17,0,14.6,10.56,26.72,24.45,29.17v.46H0v-59.26H614.12Z"/><path class="cls-8" d="M680,837.83c-16.36,0-29.63,13.27-29.63,29.63h0c0,16.36,13.27,29.63,29.63,29.63H0v-59.26H680Z"/><path class="cls-8" d="M29.63,541.53H684.58v59.26H29.63C13.28,600.79,0,587.52,0,571.16H0C0,554.81,13.28,541.53,29.63,541.53Z" transform="translate(684.58 1142.33) rotate(180)"/></g></g><g id="_切り口雲"><polygon class="cls-6" points="957.22 1080.41 0 1080.41 0 705.22 957.22 1080.41"/><polygon class="cls-5" points="852.07 1080.41 1920 1080.41 1920 660.49 852.07 1080.41"/><polygon class="cls-4" points="1042.76 1080.41 1920 1080.41 1920 514.83 1042.76 1080.41"/><polygon class="cls-1" points="1016.84 1080.41 0 1080.41 0 871.4 1016.84 1080.41"/><polygon class="cls-6" points="765.35 0 1920 0 1920 266.66 765.35 0"/><polygon class="cls-7" points="1920 385.18 1058.3 0 1920 0 1920 385.18"/><polygon class="cls-5" points="1105.36 0 0 0 0 247.27 1105.36 0"/><polygon class="cls-1" points="1224.22 0 0 0 0 120.72 1224.22 0"/></g></g></svg>