<svg xmlns="http://www.w3.org/2000/svg" viewBox="0 0 736.72 848.63"><defs><style>.cls-1{fill:#f7d15f;}.cls-2,.cls-6{fill:#f2f9fd;}.cls-3{fill:#f2bfd7;}.cls-4{fill:#f3ed66;}.cls-5{fill:#f1d654;}.cls-6{stroke:#b2ce65;stroke-miterlimit:10;stroke-width:20px;}.cls-7{fill:#b2ce65;}</style></defs><g id="レイヤー_2" data-name="レイヤー 2"><g id="メイン"><g id="吹き出し"><circle class="cls-1" cx="612.34" cy="187.05" r="118.89"/><path class="cls-2" d="M612.34,70.66a116.4,116.4,0,1,1-116.4,116.39A116.39,116.39,0,0,1,612.34,70.66m0-5a121.38,121.38,0,1,0,85.84,35.55,120.63,120.63,0,0,0-85.84-35.55Z"/><circle class="cls-3" cx="364.63" cy="743.65" r="102.48"/><path class="cls-2" d="M364.63,643.68a100,100,0,1,1-100,100,100,100,0,0,1,100-100m0-5a105,105,0,1,0,105,105,105.09,105.09,0,0,0-105-105Z"/><circle class="cls-4" cx="215.4" cy="522.8" r="21.9"/><path class="cls-2" d="M215.4,503.41A19.4,19.4,0,1,1,196,522.8a19.39,19.39,0,0,1,19.39-19.39m0-5a24.4,24.4,0,1,0,24.4,24.39,24.42,24.42,0,0,0-24.4-24.39Z"/><path class="cls-5" d="M376.57,185.08a24.89,24.89,0,1,1,24.88-24.89A24.92,24.92,0,0,1,376.57,185.08Z"/><path class="cls-2" d="M376.57,137.81a22.39,22.39,0,1,1-22.39,22.38,22.38,22.38,0,0,1,22.39-22.38m0-5A27.39,27.39,0,1,0,404,160.19a27.42,27.42,0,0,0-27.38-27.38Z"/><path class="cls-3" d="M100.5,505.91a98,98,0,1,1,96.94-112.29l32.78,5.91a2.5,2.5,0,0,1,.07,4.91l-31.86,6.7a98,98,0,0,1-97.93,94.77Z"/><path class="cls-2" d="M100.5,312.4a95.5,95.5,0,0,1,94.71,83.36L229.77,402,196,409.1a95.49,95.49,0,1,1-95.48-96.7m0-5A100.5,100.5,0,1,0,200.85,413.19l30-6.31a5,5,0,0,0-.14-9.81l-31-5.59A100.64,100.64,0,0,0,100.5,307.4Z"/><path class="cls-4" d="M260.07,151.48a74.84,74.84,0,0,1-84.3-74.19A74.79,74.79,0,1,1,276.05,147.6l2.62,42.67Z"/><path class="cls-2" d="M250.56,5a72.29,72.29,0,0,1,22.88,140.86l1.95,31.79-13.85-28.9a73.61,73.61,0,0,1-11,.83A72.29,72.29,0,1,1,250.56,5m0-5a77.29,77.29,0,1,0,8,154.16l12.29,25.65L282,202.89l-1.57-25.55-1.72-28.05A77.29,77.29,0,0,0,250.56,0Z"/><path class="cls-5" d="M212.85,192.94a55.36,55.36,0,1,1,11-11.74l26.77,31.21Z"/><path class="cls-2" d="M178.27,96.6a53,53,0,0,1,42.4,84.74l19.72,23L212.53,190A53,53,0,1,1,178.27,96.6m0-5a58,58,0,1,0,34.85,104.29l25,12.88,22.75,11.73-16.67-19.43L227,181a57.45,57.45,0,0,0,9.26-31.44,58,58,0,0,0-58-58Z"/><path class="cls-5" d="M645.17,673a66.66,66.66,0,0,1-65.71-77.93l-28.75-18.94a2.5,2.5,0,0,1,1.37-4.59,2.63,2.63,0,0,1,.49,0l32.24,6.42a66.67,66.67,0,1,1,60.36,95Z"/><path class="cls-2" d="M645.17,542.2a64.18,64.18,0,1,1-62.95,51.73l-30.14-19.85,34.19,6.81a64.17,64.17,0,0,1,58.9-38.69m0-5a69.16,69.16,0,0,0-61.76,38l-30.35-6a4.66,4.66,0,0,0-1-.1,5,5,0,0,0-2.75,9.18l27.41,18a69.16,69.16,0,1,0,68.43-59.11Z"/><path class="cls-4" d="M554.89,798.38a33.08,33.08,0,0,1-28-50.7L514.1,725.07a2.51,2.51,0,0,1,.56-3.13,2.46,2.46,0,0,1,1.62-.6,2.53,2.53,0,0,1,1.56.54l19.42,15.41a33.09,33.09,0,1,1,17.63,61.09Z"/><path class="cls-2" d="M516.28,723.84l20.86,16.55a30.54,30.54,0,1,1-7.33,7.39l-13.53-23.94m0-5a5,5,0,0,0-4.35,7.46L524,747.64a35.6,35.6,0,1,0,13.48-13.38l-18.07-14.33a5,5,0,0,0-3.11-1.09Z"/><path class="cls-1" d="M123.72,680.67a57.06,57.06,0,1,1,37-100.45l28.64-13.31a2.47,2.47,0,0,1,1.05-.24,2.5,2.5,0,0,1,1.83,4.21l-20.49,22a57.05,57.05,0,0,1-48.06,87.79Z"/><path class="cls-2" d="M123.72,569.06a54.38,54.38,0,0,1,36.6,14.11l30.13-14L168.6,592.62a54.54,54.54,0,1,1-44.88-23.56m0-5a59.56,59.56,0,1,0,51.19,29.13l19.19-20.61a5,5,0,0,0-3.66-8.41,4.9,4.9,0,0,0-2.1.47l-27.21,12.64a59.44,59.44,0,0,0-37.41-13.22Z"/><path class="cls-3" d="M697.4,523.81a36.81,36.81,0,0,1-35.85-28.41l-33.09-7.33a2.5,2.5,0,0,1,.12-4.91l33.23-5.63a36.82,36.82,0,1,1,35.59,46.28Z"/><path class="cls-2" d="M697.4,452.67a34.32,34.32,0,1,1-33.74,40.64L629,485.63l34.85-5.91a34.34,34.34,0,0,1,33.55-27.05m0-5a39.35,39.35,0,0,0-37.56,27.66l-31.67,5.37a5,5,0,0,0-.25,9.81l31.59,7a39.32,39.32,0,1,0,37.89-49.84Z"/><path class="cls-3" d="M428.22,140.48a2.49,2.49,0,0,1-2.39-2.09l-3.5-21a31.59,31.59,0,1,1,13.23-.38l-4.83,21.51a2.49,2.49,0,0,1-2.44,1.95Z"/><path class="cls-2" d="M428.05,57.23a29.09,29.09,0,0,1,5.42,57.68L428.29,138,424.5,115.2a29.09,29.09,0,0,1,3.55-58m0-5a34.1,34.1,0,0,0-7.9,67.27l3.21,19.3a5,5,0,0,0,4.79,4.18h.15a5,5,0,0,0,4.87-3.9l4.5-20a34.1,34.1,0,0,0-9.62-66.81Z"/></g><g id="スマホ"><rect class="cls-6" x="229.77" y="170.81" width="286.51" height="507.36" rx="31.42"/><circle class="cls-7" cx="376.57" cy="618.76" r="29.27"/><rect class="cls-7" x="313.22" y="166.93" width="119.62" height="37.85" rx="9.91"/></g></g></g></svg>