<svg xmlns="http://www.w3.org/2000/svg" xmlns:xlink="http://www.w3.org/1999/xlink" viewBox="0 0 1920 1080.41"><defs><style>.cls-1{fill:none;}.cls-2{clip-path:url(#clip-path);}.cls-3{fill:#bbe1e7;}.cls-4{fill:#78bbcf;}.cls-5{fill:#f2f9fd;}.cls-6{fill:#fff;}.cls-7{fill:#41aee4;}.cls-8{fill:#edebf5;}.cls-9{fill:#7fc6db;}.cls-10{fill:#83cde3;}</style><clipPath id="clip-path" transform="translate(36.8 0.26)"><rect class="cls-1" width="1801.23" height="1080.15"/></clipPath></defs><g id="レイヤー_2" data-name="レイヤー 2"><g id="前夕祭"><g class="cls-2"><rect id="背景" class="cls-3" width="1920" height="1080.41"/><g id="右上雲"><path class="cls-4" d="M1883.2,384.92H927a29.63,29.63,0,0,1,0-59.26H1883.2Z" transform="translate(36.8 0.26)"/><path class="cls-4" d="M1279.34,147.88H955.11a29.63,29.63,0,1,1,0-59.25h324.23Z" transform="translate(36.8 0.26)"/><path class="cls-4" d="M1203.38,266.4H851a29.63,29.63,0,0,1,0-59.26h352.34Z" transform="translate(36.8 0.26)"/><path class="cls-5" d="M1883.2,118.25H955.11a29.63,29.63,0,1,1,0-59.25H1883.2Z" transform="translate(36.8 0.26)"/><path class="cls-5" d="M1883.2,236.77H851a29.63,29.63,0,0,1,0-59.26H1883.2Z" transform="translate(36.8 0.26)"/><path class="cls-5" d="M1883.2,355.29H927A29.63,29.63,0,1,1,927,296H1883.2Z" transform="translate(36.8 0.26)"/><path class="cls-6" d="M1007.14-.26c39,.67,38.93,58.6,0,59.26h272.2V-.26Z" transform="translate(36.8 0.26)"/><path class="cls-5" d="M1036.77,118.25v.47c32,5.12,32,53.21,0,58.33v.46H1883.2V118.25Z" transform="translate(36.8 0.26)"/><path class="cls-5" d="M970.89,236.77c39,.67,38.93,58.6,0,59.26H1883.2V236.77Z" transform="translate(36.8 0.26)"/></g><g id="左下雲"><path class="cls-4" d="M-36.8,985.71H687.09a29.63,29.63,0,0,0,0-59.26H-36.8Z" transform="translate(36.8 0.26)"/><path class="cls-4" d="M515.42,748.68H659a29.63,29.63,0,0,0,0-59.26H515.42Z" transform="translate(36.8 0.26)"/><path class="cls-4" d="M515.42,867.19H763.05a29.63,29.63,0,0,0,0-59.26H515.42Z" transform="translate(36.8 0.26)"/><path class="cls-4" d="M515.42,636.48H618.16a29.63,29.63,0,0,0,0-59.26H515.42Z" transform="translate(36.8 0.26)"/><path class="cls-5" d="M-36.8,719.05H659a29.63,29.63,0,1,0,0-59.26H-36.8Z" transform="translate(36.8 0.26)"/><path class="cls-5" d="M-36.8,837.56H763.05a29.63,29.63,0,1,0,0-59.25H-36.8Z" transform="translate(36.8 0.26)"/><path class="cls-5" d="M-36.8,956.08H687.09a29.63,29.63,0,0,0,0-59.26H-36.8Z" transform="translate(36.8 0.26)"/><path class="cls-5" d="M607,600.53c-39,.67-38.94,58.6,0,59.26H-36.8V600.53Z" transform="translate(36.8 0.26)"/><path class="cls-5" d="M577.33,719.05v.46c-32,5.13-32,53.21,0,58.34v.46H-36.8V719.05Z" transform="translate(36.8 0.26)"/><path class="cls-5" d="M643.21,837.56c-39,.67-38.93,58.6,0,59.26h-680V837.56Z" transform="translate(36.8 0.26)"/><path class="cls-5" d="M-36.8,600.53h655a29.63,29.63,0,0,0,0-59.26h-655Z" transform="translate(36.8 0.26)"/></g><g id="切り口雲"><polygon class="cls-7" points="957.22 1080.41 0 1080.41 0 705.22 957.22 1080.41"/><polygon class="cls-8" points="852.07 1080.41 1920 1080.41 1920 660.49 852.07 1080.41"/><polygon class="cls-9" points="1042.76 1080.41 1920 1080.41 1920 514.83 1042.76 1080.41"/><polygon class="cls-6" points="1016.84 1080.41 0 1080.41 0 871.4 1016.84 1080.41"/><polygon class="cls-7" points="765.35 0 1920 0 1920 266.66 765.35 0"/><polygon class="cls-10" points="1920 385.18 1058.3 0 1920 0 1920 385.18"/><polygon class="cls-8" points="1105.36 0 0 0 0 247.27 1105.36 0"/><polygon class="cls-6" points="1224.22 0 0 0 0 120.72 1224.22 0"/></g></g></g></g></svg>