<svg xmlns="http://www.w3.org/2000/svg" viewBox="0 0 537 110.28"><defs><style>.cls-1{fill:#f3f9f8;}.cls-2{fill:#33a2dc;}.cls-3{fill:none;stroke:#33a2dc;stroke-linecap:round;stroke-miterlimit:10;stroke-width:3px;}</style></defs><g id="レイヤー_2" data-name="レイヤー 2"><g id="メイン"><g id="_名電青春祭" data-name="#名電青春祭"><path class="cls-1" d="M0,0H498.74A38.27,38.27,0,0,1,537,38.27v72a0,0,0,0,1,0,0H38.27A38.27,38.27,0,0,1,0,72V0A0,0,0,0,1,0,0Z"/><path class="cls-2" d="M51.89,81.88h-5l2.37-18.81H41.91V58.49H50l1.88-15H44V39h8.42l2.37-18.32h4.91L57.37,39h9.49l2.37-18.32h4.82L71.76,39h7.36v4.58h-8l-1.88,15h7.85V63H68.57L66.2,81.88H61.29L63.67,63H54.26Zm3-23.39H64.4l1.8-15H56.72Z"/><path class="cls-2" d="M160.9,53.91V89h-5.65V85.56H120v3.27h-5.4v-27a99.25,99.25,0,0,1-21.1,9.65,18.65,18.65,0,0,0-3.1-4.82,93.38,93.38,0,0,0,31.15-16.28,84.21,84.21,0,0,0-13.24-11.53l4.08-3.35a81,81,0,0,1,13.5,11.2,70,70,0,0,0,15.94-20.52h-26a91.86,91.86,0,0,1-21,17.74,17.23,17.23,0,0,0-3.92-4.17c13.33-7.6,22.89-18.31,27.72-27.15L126,13.84c-.16.66-.74,1.06-1.8,1.06a68.51,68.51,0,0,1-4.33,6.3H145l1-.33L150,23a2.54,2.54,0,0,1-1.06.74c-4.91,11.93-13.25,22.16-23.06,30.17ZM120,80.49h35.24V59H120Z"/><path class="cls-2" d="M207.75,49.9V30.44h-26.9V42.38h-5v-16h31.89V20.87H180.52V16.46h60.35v4.41H213.15v5.48H245.7v16h-5.24V30.44H213.15V49.9Zm5.07,30.26c0,2.78,1.07,3.35,6.38,3.35h19.06c4.49,0,5.23-1.47,5.72-10.06a15.43,15.43,0,0,0,4.82,1.88C248,85.47,246.19,88,238.58,88H219c-8.83,0-11.37-1.47-11.37-7.93V77.22H188.21v4.33h-5.32V52.77H239V77.22H212.82Zm-29-32.63V43.85h19.47v3.68Zm1.64-12.18h17.74V39H185.43Zm22.16,21.59H188.21V63h19.38ZM188.21,73.05h19.38V66.83H188.21ZM233.51,63V56.94H212.82V63ZM212.82,73.05h20.69V66.83H212.82Zm5-37.7H236V39H217.81Zm0,12.18V43.85H238v3.68Z"/><path class="cls-2" d="M295.09,40.09h34.1v4.5H255.76v-4.5h33.77V34H264.34V29.71h25.19V23.82H260.58V19.4h28.95V12.7l7.2.49c-.09.57-.58,1-1.64,1.14V19.4h29.52v4.42H295.09v5.89H320.2V34H295.09ZM316.51,50V82.94c0,6-3,6-16.59,6A21.65,21.65,0,0,0,298,84.41c3,.08,5.81.17,7.94.17,4.49,0,5,0,5-1.64V75.33h-37V89h-5.4V50ZM311,54.32h-37v6.3h37Zm-37,16.93h37V64.7h-37Z"/><path class="cls-2" d="M411.21,48.68H392.08a50,50,0,0,0,21.09,16,20.5,20.5,0,0,0-3.76,4.58,51.55,51.55,0,0,1-13.74-9V88.5h-5.56V85.88H359.2v3h-5.39V60.7a67.65,67.65,0,0,1-14.4,10.06,13.8,13.8,0,0,0-3.6-4.26,58.86,58.86,0,0,0,21.68-17.82H337.37V43.93h23.3a68.61,68.61,0,0,0,3.85-7.27h-19.3V32.08h21.1a70.5,70.5,0,0,0,2.12-7H342V20.38h27.47a59.9,59.9,0,0,0,1-7.6l7.11.57c-.16.74-.74,1.23-1.88,1.31-.16,1.88-.41,3.76-.74,5.72h32.22V25h-33.2c-.57,2.38-1.22,4.67-2,7h31.89v4.58h-19a56.31,56.31,0,0,0,3.92,7.27h22.49Zm-20.28,6.87a63.34,63.34,0,0,1-5.23-6.87H363.86a58,58,0,0,1-5.15,6.87Zm-.82,12.67V60.13H359.2v8.09ZM359.2,81.3h30.91V72.55H359.2Zm23.55-37.37a75.54,75.54,0,0,1-3.43-7.27h-9.08c-1.06,2.45-2.21,4.9-3.51,7.27Z"/><path class="cls-2" d="M488.41,18l4.17,2.54a2.84,2.84,0,0,1-1.15.73A76.62,76.62,0,0,1,476.55,40.5a48.93,48.93,0,0,0,19,11.37,22.06,22.06,0,0,0-3.6,4.66,52.44,52.44,0,0,1-18.4-11.45v4.25H440.73V44.67a62.4,62.4,0,0,1-20.11,13.25,16.54,16.54,0,0,0-3-4.42,52.81,52.81,0,0,0,16.76-9.73,87,87,0,0,0-9.15-6.38l3-2.7a84.66,84.66,0,0,1,9.24,6.14,50.63,50.63,0,0,0,4.74-5.48,88.21,88.21,0,0,0-9.56-5.56l2.61-2.87A93.91,93.91,0,0,1,444.58,32a51.3,51.3,0,0,0,4.58-9.24H435a68.11,68.11,0,0,1-14.23,14.56A14,14,0,0,0,417,33.79,57.18,57.18,0,0,0,435.09,12.7l6.46,1c-.08.65-.57,1-1.55,1.06-.66,1.14-1.31,2.37-2.05,3.6h13.82l.9-.25,3.44,1.56a1.45,1.45,0,0,1-.74.81,56.54,56.54,0,0,1-14.31,23.88h31.73C465.35,36.82,460,27,456.6,15.07L461.5,14a59.88,59.88,0,0,0,11.7,23,63.13,63.13,0,0,0,10.87-14H466.66V18.26h20.77ZM442,70.26a1.73,1.73,0,0,1-1.8.74A57.75,57.75,0,0,1,423.8,86.78a21.87,21.87,0,0,0-4.25-3.43,49.71,49.71,0,0,0,15.87-15.29ZM488.65,64H458.81V82.69c0,6.14-2.79,6.3-16.61,6.3a17.38,17.38,0,0,0-2-5.07c3.19.08,6.05.17,8.18.17,4.5,0,4.91-.09,4.91-1.48V64H424.7V58.9h63.95ZM487.1,87.44c-3.52-4.58-11-11.61-17.26-16.52l4.5-2.7c6.22,4.66,13.82,11.45,17.42,16.11Z"/><line class="cls-3" x1="503.7" y1="101.76" x2="35.37" y2="101.76"/></g></g></g></svg>