<svg xmlns="http://www.w3.org/2000/svg" viewBox="0 0 255.67 589.97"><defs><style>.cls-1{fill:#75b4c6;}.cls-2{fill:#fff;}.cls-3,.cls-4{fill:none;stroke-miterlimit:10;}.cls-3{stroke:#fff;stroke-width:30px;}.cls-4{stroke:#edbdd4;stroke-width:30.33px;opacity:0.25;}.cls-5{fill:#666464;}</style></defs><g id="レイヤー_2" data-name="レイヤー 2"><g id="レイヤー_2-2" data-name="レイヤー 2"><circle class="cls-1" cx="127.84" cy="140.68" r="127.84"/><circle class="cls-2" cx="127.84" cy="127.84" r="127.84"/><line class="cls-3" x1="126.57" y1="244.47" x2="126.57" y2="589.97"/><circle class="cls-4" cx="127.84" cy="127.84" r="112.64"/><path class="cls-5" d="M77.43,108.52H73.57v-2.43c-.78,1.45-2.32,2.3-4.58,2.43v-3.7a1.26,1.26,0,0,0,1-.62H69v-.9l-.33.08v3a2.09,2.09,0,0,1-2,2.18H64.48v-4.13h.11a.32.32,0,0,0,.32-.32v-.27c-.21,0-.42,0-.62,0V99.53c.2,0,.41,0,.62,0V98.34h-.62v-4.1h.62v-.62h3.57v.62h.61v4.1h-.61V99a5.34,5.34,0,0,0,.88-.3V95.52a2.16,2.16,0,0,0,.83-1.93h3.86a4.93,4.93,0,0,1-.06.75h.7l.26-.75h3.71l-.23.75h.84V96H78.16v.24H79v1.4h-.88V98H79v1.41h-.88v.24h1.11v1.71H70V99.88a5.19,5.19,0,0,1-.59.24v1.49H78.9l-.14,1.12h.52v3.84A1.74,1.74,0,0,1,77.43,108.52ZM74.45,96h-1v.41h1Zm0,1.63h-1v.4h1Zm0,1.65h-1v.38h1Zm.82,5.74h-.85l.09-.67h-.38a5.3,5.3,0,0,1-.29,1.11H75c.11,0,.23-.07.23-.18Z"/><path class="cls-5" d="M94.56,97.28v2.41H81.09V97.28h-.68V94.07h.68V93.6h4.13v.47H86V93.6h3.69v.47h.75V93.6h4.14v.47h.69v3.21Zm-.06,6.89v2.08c0,1.23-.62,1.79-1.87,1.79H90.72v-1.47h-.54v2H85.46v-2H85V108H81.23v-3.87h-.82V99.91H95.25v4.26Zm-9-1.09h-1v.45h1ZM86,96.82h-.76v.53H86Zm4.44,0h-.75v.53h.75Zm.78,6.26h-1v.45h1Z"/><path class="cls-5" d="M108.32,108.52H103.9a2.26,2.26,0,0,1-2.08-1h-5v-6.31H97.9V101H96.33V96.85h5.13v-.29H96.54V93.81h14.57v2.75h-4.88v.29h5.12V101h-1.52v.27h1v3.67a1.67,1.67,0,0,0,.52-.26v3.24A6.41,6.41,0,0,1,108.32,108.52Zm-6.78-9.4H100v.29h1.22v.84H100v.3h1.22v.7h.32Zm.3,3.8H101v.48h.87Zm0,1.79H101v.48h.87Zm4.82-1.79h-.77v.48h.77Zm0,1.79h-.77v.48h.77Zm1-4.46h-1.21v-.84h1.21v-.29h-1.5v2.13h.29v-.7h1.21Z"/><path class="cls-5" d="M112.3,99V95.76h7V99Zm.35-3.44V93.62H119v1.89Zm0,5.49V99.24H119V101Zm0,2.08v-1.81H119v1.81Zm0,5.44v-5.15H119v5.15Zm3.51-2.85h-.61v.58h.61Zm9.28-3.86v.29H127v6.32h-7.69V102.1H121v-.29h-1.66V98H121v-.35h-1.66V93.83c4.5,0,6.67,0,7.71-.36v3.85a7.29,7.29,0,0,1-1.6.25V98h1.83v3.82Zm-1.84,3h-.78v.64h.78Z"/><path class="cls-5" d="M138.37,108.31h-.93V104.5c-.45,2.87-2.06,3.81-4.26,3.81-2.54,0-4.67-1.63-4.67-5.17v-3a5.65,5.65,0,0,1,6-6.08H137a5.78,5.78,0,0,1,6.12,6v2.63C143.11,106.28,141.33,108.31,138.37,108.31Zm-4.45-9.39a1.36,1.36,0,0,0-1.23,1.5v2.26c0,.59.27.72.57.72a.64.64,0,0,0,.66-.72Zm4.83,1.55a1.35,1.35,0,0,0-1.18-1.55v4.35h.21c.6,0,1-.24,1-1.06Z"/><path class="cls-5" d="M156.45,97.64v.27h2.69v5.22H156.4a8.36,8.36,0,0,1-.21,1.15c.85,0,1.86,0,3.09,0v4.23a18.29,18.29,0,0,1-5.94-.82,10.53,10.53,0,0,1-4.24.82V104.6l.44,0a8.12,8.12,0,0,1-.45-1.17h2.69l.09-.27h-2.7V97.91H152v-.27h-2.81v-1.4a12.28,12.28,0,0,1-.79,3.25h.45v9h-3.54v-5a9,9,0,0,1-.94.64V98.24c.85-.7,1.36-2.36,1.36-4.62h3.6v.32H152V93.6h4.47v.34h2.87v3.7Zm-3.52,2.48h-.67v.78h.67Zm3.14,0h-.68v.78h.68Z"/><path class="cls-5" d="M172.27,108.49h-2V104.9h.47a.14.14,0,0,0,.14-.16v-.2h-1.07v4h-4.18v-4h-.91c-.55,2.57-2.05,3.85-4.35,4v-5.84c.35-.27.52-.64.52-1.55V93.81H175v11.51C175,107.62,173.91,108.49,172.27,108.49ZM166,97.11H165v.75H166Zm0,3.71H165v.74H166Zm4.86-3.71h-1.07v.75h1.07Zm0,3.71h-1.07v.74h1.07Z"/><path class="cls-5" d="M189.68,98.85v1.62h1.51V105h-1.33c-.05,2.35-1.22,3.3-3.71,3.3h-1.29a3.11,3.11,0,0,1-3-1.76v1.68h-1.42c-2.72,0-3.91-1.2-3.91-3.71V94.07H181v9.2c0,.43.09.56.48.58a3.45,3.45,0,0,1,3.7-3.38h0V98.85h-3.61V94.66h3.61v-.59h4.5v.59h1.52v4.19Zm-3.57,4.74h-.67a.48.48,0,0,0-.51.48c0,.38.19.58.54.58h.13a.52.52,0,0,0,.51-.56Z"/><path class="cls-5" d="M54.45,133.74v.09a2.36,2.36,0,0,1-2.62,2.66H44.34V134h5.58c.32,0,.45-.13.48-.27h-10V130.5h10v-.27H40.83l.82-3.27h-1.3v-5.15H55.28V127H53.84v.81H45.65l-.07.25h8.87v2.48h.83v3.24Zm-3.23-8.47h-5l-.06.27h5.09Z"/><path class="cls-5" d="M66.16,125.25v.27h4.42v6.81H57.05v-6.81h4.44v-.27H56.43V122h5.06v-.37h4.67V122h5v3.28Zm4.07,10.65.22.59H66l-.21-.59H62.1a4,4,0,0,1-.31.59H57.18a4.35,4.35,0,0,0,.4-.59H56.43v-3.32H71.2v3.32Zm-4-8.55h-5v.35h5Zm0,1.36h-5v.38h5Zm0,1.39h-5v.35h5Z"/><path class="cls-5" d="M86,132a10.3,10.3,0,0,0,1.26,0v4.6a11.37,11.37,0,0,1-5.51-1.41,15.4,15.4,0,0,1-5.37,1.39v-3a8.32,8.32,0,0,1-4,2.95v-5.51c1.64-.81,2.24-2.59,2.4-5.18H72.72V121.7H86.47v3.22l-1,1.57h1.83v3.28A8.5,8.5,0,0,1,86,132Zm-8.18-.86-.4.85c.3,0,.59-.08.88-.15A5.43,5.43,0,0,1,77.86,131.13Zm1.21-5.25a17.6,17.6,0,0,1-.25,2h1.37a9.06,9.06,0,0,0,.71,1.62v-3l.33-.61ZM81.26,130a4.78,4.78,0,0,0,.52.58,5.32,5.32,0,0,0,.73-.58Z"/><path class="cls-5" d="M101.94,126.05v4.37c0,3.81-2.16,6-6,6-4,0-5.92-1.63-5.92-6v-3c0-.35-.12-.53-.56-.53h-1v-4.76h2.08c3,0,4,1.56,4,4.21v4.09c0,.88.46,1.32,1.39,1.32a1.27,1.27,0,0,0,1.42-1.32v-8.13h1.72v-.4h4.24v1.84h-2.9v.51h2.9v1.81Z"/><path class="cls-5" d="M116.64,136.52h-2v-2.27a4.16,4.16,0,0,1-2.53,2.33v-.65c-.69.32-2.53.59-7.71.59v-3.28h1.95V133h-1.95v-1.72h1.95V131h-1.79v-4h1.79v-.29h-1.95V125h1.95v-.28h-1.79v-3c5.09,0,6.73,0,7.61-.24v1.31h.52v-1.18h4.45v1.18h2v10.52C119.11,135.5,118.24,136.52,116.64,136.52Zm-9.15-8.35h-.71v.32h.71Zm0,1.1h-.71v.35h.71Zm2.51-1.1h-.69v.32H110Zm0,1.1h-.69v.35H110Zm2.14-4.88a8,8,0,0,1-1.77.22v.27h1.77Zm0,2.61v-.29h-1.77V127h1.81v3.73c.33-.23.48-1,.48-3.73Zm-.06,4h-1.71v.27h1.71Zm0,1.89h-1.71v.35a5.1,5.1,0,0,0,1.71-.22Zm3.75-5.87h-.28a30.87,30.87,0,0,1-.32,5.12h.36a.22.22,0,0,0,.24-.24Z"/><path class="cls-5" d="M129.84,125.62v.4h1.33v6.47h-6.71V126h1.33v-.4h-5.44v-3.83h14.93v3.83Zm-9.27,10.71V126h3.52v6.84h7.45V126h3.52v10.31Zm6.5-8.15h-.54v.61h.54Zm0,1.7h-.54v.59h.54Zm2-1.7h-.56v.61h.56Zm0,1.7h-.56v.59h.56Z"/><path class="cls-5" d="M146.37,136.31h-.93V132.5c-.45,2.87-2.06,3.81-4.26,3.81-2.54,0-4.67-1.63-4.67-5.17v-3a5.65,5.65,0,0,1,6-6.08H145a5.78,5.78,0,0,1,6.12,6v2.63C151.11,134.28,149.33,136.31,146.37,136.31Zm-4.45-9.39a1.36,1.36,0,0,0-1.23,1.5v2.26c0,.59.27.72.57.72a.64.64,0,0,0,.66-.72Zm4.83,1.55a1.35,1.35,0,0,0-1.18-1.55v4.35h.21c.6,0,1-.24,1-1.06Z"/><path class="cls-5" d="M162.9,129.94v6.64h-2.55v-.4a20.67,20.67,0,0,1-3.44.18V133h.43v-2.56h-.25v.38a2.7,2.7,0,0,1-.43.11v3.43a2.22,2.22,0,0,1-2.17,2.19h-2v-4.13h.21c.15,0,.21-.06.21-.24v-.49c-.21,0-.42,0-.61.06v-4.18c.19,0,.4-.05.61-.06V126.1h-.61v-3.74h.61v-.74h3.75v.74h.43v3.74h-.43v.51a4.29,4.29,0,0,0,.43-.16v.64H167.3v2.85Zm-5.54-3.12v-5.09h9.73v5.09Zm3,3h-.51v.49h.51Zm0,1.77h-.51v.47h.51Zm0,1.75h-.51v.49c.19,0,.35,0,.51,0Zm3-10.12h-2.13v.29h2.13Zm0,1.73h-2.13v.3h2.13Zm1.87,10.89a3,3,0,0,1-2.08.71v-3.12h.26a7.25,7.25,0,0,1-.28-.87h1.57a1.28,1.28,0,0,0,.15-.25h-1.7v-2.12h4.13v1.67a7.32,7.32,0,0,1-.29,1.33h.37v3.4A3.51,3.51,0,0,1,165.17,135.87Z"/><path class="cls-5" d="M170.67,136.26h-2.43a21.18,21.18,0,0,0,.25-2.91h2.29A28.92,28.92,0,0,1,170.67,136.26Zm-2.29-6.38v-3.17h2.74v-.37h-2.55V121.7H177v4.64h-2.37v.37h2.51v3.17Zm6.23,3.18v3.41H171v-3.41h-2.39v-2.89H177v2.89Zm-1.33-9.9h-1v.36h1Zm0,1.36h-1v.38h1Zm0,6.88h-1v.43h1Zm1.65,4.86-.19-2.91h2.38l.29,2.91Zm2.53-9.09v-4.45l5.82-1.25v4.45Zm0,4.79v-4.48l5.82-1.27v4.45Zm0,4.66v-4.33l5.82-1.32v4.4Z"/><path class="cls-5" d="M184.37,136.7v-4.41c.24-.06.46-.14.68-.2v-10.5h4.15v8.7a14.58,14.58,0,0,0,2.22-1.42v4.83A26.88,26.88,0,0,1,184.37,136.7Zm6-8.12-.8-5.58h3.89l.75,5.58Zm5.84,5.56a9.14,9.14,0,0,1-4.51,2.51v-4.79a4.52,4.52,0,0,0,3-4.56v-5.71h4.18v5.65a10.67,10.67,0,0,1-.53,3.37l1,.72v5.32Z"/><path class="cls-5" d="M214.39,132.84v3.68H210.1v-5.59a9.09,9.09,0,0,1-.88-.62V127c-.16,6.09-3.06,9.13-8.85,9.61v-4.26a5.93,5.93,0,0,0,1.53-.3l-.57-1.51a5.83,5.83,0,0,1-1,.35v-5.65c.7-.43.91-1.71.91-3.63h4.1c0,.21,0,.43,0,.64h3.87V125a7.76,7.76,0,0,0,.87.7v-4.06h4.29v6.23a8.21,8.21,0,0,0,1,.25v5A5.67,5.67,0,0,1,214.39,132.84Zm-9.16-6.39h-.61a6.57,6.57,0,0,1-.93,1.92h.74l.42,1a7.92,7.92,0,0,0,.38-2.31Z"/><path class="cls-5" d="M90.07,161.62v2.88H85.65v-2.88H80.41v-3.13H95.22v3.13ZM94.92,156v2.25H80.72V156a1.1,1.1,0,0,1-.29.09V152.9a2,2,0,0,0,1.06-.45H80.43v-2.59h1.44v-.27h4.18v.27h1.58v2.59h-1l1,.5v3H88V152.8a2.7,2.7,0,0,0,1.08-.35H88v-2.59h1.56v-.27h4.18v.27H95.2v2.59H94a2.59,2.59,0,0,0,1.16.45v3.15Zm-10.28,8.46H80.48a4.26,4.26,0,0,0,.77-2.52h3.93A6.57,6.57,0,0,1,84.64,164.42Zm1-9.38v.61H82.24v-.53a5.06,5.06,0,0,1-1.44.81h6.67Zm7.67.08v.53H89.91v-.56a6,6,0,0,1-1.56.84h6.5A6.38,6.38,0,0,1,93.35,155.12Zm-2.28,9.3-.64-2.52h4.1l.74,2.52Z"/><path class="cls-5" d="M96.35,164.31v-4.37h.83v-8.61h4.44v8.61h.94V149.65H107V153h4v4.4h-4v2.54h4.27v4.37Z"/><path class="cls-5" d="M122.85,157h-3.76c-.91,0-1.59.43-1.59,1.33s.64,1.36,1.59,1.36h8v4.53h-8.67c-3.94,0-5.88-2.24-5.88-5.89a5.67,5.67,0,0,1,2.43-4.84v-3.29h4.63v2.33h2.51a.52.52,0,0,0,.56-.57v-.71h4.66v1.24C127.33,155.93,125.68,157,122.85,157Z"/><path class="cls-5" d="M136.91,164.23h-2.27c-3.71,0-5.63-2.37-5.63-5.73v-8.37h4.51v8.21a1.16,1.16,0,0,0,1.06,1.27h2.22a1.13,1.13,0,0,0,1.07-1.22v-1.62h4.69v1.78C142.56,161.93,140.63,164.23,136.91,164.23Z"/><path class="cls-5" d="M155.2,163.53v-1.94c0-.35-.09-.56-.45-.59,0,2.1-.81,3.31-3.31,3.31h-3.78c-2.38,0-3.31-1.45-3.31-3.41s1.38-3.13,3.6-3.13h2.67v-.53H145v-3.11h5.63v-.57H145v-3.14h5.63v-.53h4.5v.53h3.43v3.14h-3.43v.57h3.43v3.11h-3.43v.53h.39c2.48,0,3.77,1.39,3.77,3.63v2.13Zm-4.58-3.28h-2.11a.33.33,0,0,0-.35.35.32.32,0,0,0,.35.32h1.73c.3,0,.38-.1.38-.3Z"/><path class="cls-5" d="M173.2,154.44v10h-4.66v-.73h-3.23a4.06,4.06,0,0,1-4.37-4.39c0-2.3,1.28-4.19,4.37-4.19h3.23v-.67h-8v-4.07h8V150h4.66v.4h2.07v4.07Zm-4.66,4.06H165.7c-.45,0-.63.18-.63.48s.23.5.63.5h2.84Z"/></g></g></svg>