<svg xmlns="http://www.w3.org/2000/svg" viewBox="0 0 272.71 802.55"><defs><style>.cls-1,.cls-4{fill:#75b4c6;}.cls-2{fill:#fff;}.cls-3{fill:none;stroke:#fff;stroke-miterlimit:10;stroke-width:30px;}.cls-4{opacity:0.25;}.cls-5{fill:#aec764;opacity:0.5;}.cls-6{fill:#666464;}</style></defs><g id="レイヤー_2" data-name="レイヤー 2"><g id="レイヤー_2-2" data-name="レイヤー 2"><rect class="cls-1" y="319.85" width="272.71" height="152.19" rx="16.95"/><circle class="cls-1" cx="136.36" cy="139.68" r="127.84"/><circle class="cls-2" cx="136.36" cy="127.84" r="127.84"/><rect class="cls-2" y="310.9" width="272.71" height="152.19" rx="16.95"/><line class="cls-3" x1="136.36" y1="219.54" x2="136.36" y2="802.55"/><circle class="cls-4" cx="136.36" cy="127.84" r="112.74"/><rect class="cls-5" x="8.52" y="322.02" width="255.67" height="129.96" rx="12"/><path class="cls-6" d="M36,127.65a14.67,14.67,0,0,1-7.28,1.47v-4.31a12.33,12.33,0,0,0,3.47-.22,12.79,12.79,0,0,1-2.59-5H34a7.19,7.19,0,0,0,2,3.13,5.92,5.92,0,0,0,2-3.65H28.68V115h5v-.64H38V115h5.19v4.13h-1a10.55,10.55,0,0,1-2.39,5.49,12.84,12.84,0,0,0,3.42.21v4.31A14.55,14.55,0,0,1,36,127.65Z"/><path class="cls-6" d="M48.19,120.19h1v9h-4v-5.33a10.23,10.23,0,0,1-1.42,1v-5.72a7.38,7.38,0,0,0,1.71-4.86h4.25A15.42,15.42,0,0,1,48.19,120.19Zm7.2,9H52.87c-1.93,0-2.81-.91-2.81-2.85V114.3H54.3v2.16l4-1.51v4.64l-4,1.56v3.2c0,.3.14.53.57.53h.83a3.61,3.61,0,0,0,2.56-.79v4.61C57.7,129.05,57.2,129.23,55.39,129.23Z"/><path class="cls-6" d="M62.47,129H58.55a8.78,8.78,0,0,0,.67-3.08h3.69A13.37,13.37,0,0,1,62.47,129Zm10.36-5.32v2H68.67v1.09c0,1.53-.75,2.43-2.53,2.43h-3v-3.1h1c.14,0,.28-.07.28-.24v-.18H59.11v-1.73l-.4.08v-4.27a6,6,0,0,0,.64-.13l-.29-.53a1.79,1.79,0,0,1-.35.11v-3.41a3.36,3.36,0,0,0,2-1.48h4.14a.44.44,0,0,1-.08.2h3.54a4.72,4.72,0,0,0,.4,1.7v-1.7h4.41v3.09l-.78,1.51q.42.16.84.3v4.37C73.1,123.76,73,123.71,72.83,123.69ZM61,118.12a2.17,2.17,0,0,1-.42.27l.36.6a4.08,4.08,0,0,0,.44-.28Zm7.89,3.19v.46H62.94v-.43a10.27,10.27,0,0,1-1,.69h8.17A10,10,0,0,1,68.86,121.31Zm-6.62-4.37.39.6a5.58,5.58,0,0,0,.39-.6Zm3.65,1.1a5.53,5.53,0,0,1-.42.69h.84A7.92,7.92,0,0,1,65.89,118Zm3.74,11-.6-3.08h3.74l.58,3.08Zm-.25-11.87a3.52,3.52,0,0,0,.61.61l.32-.61Z"/><path class="cls-6" d="M87.16,117.53h.78V129H73.77v-3.81H83.85v-.51H74.18v-2.87h9.67v-.49H73.77v-3.81h.7a17,17,0,0,0-.76-3h3.94a17.88,17.88,0,0,1,.76,3h.33v-3.19h4.05v3.19h.29l1-3h4.18Z"/><path class="cls-6" d="M89,129V114.55h13.9V129Zm9.46-10.48h-5V120h5Zm0,5.09h-5v1.47h5Z"/><path class="cls-6" d="M116.7,119.55v1.61h1.47v4.56h-1.3c-.05,2.36-1.19,3.3-3.62,3.3H112a3,3,0,0,1-2.89-1.76v1.68h-1.4c-2.65,0-3.81-1.2-3.81-3.71V114.76h4.28V124c0,.44.1.56.47.58a3.4,3.4,0,0,1,3.61-3.38h0v-1.61h-3.53v-4.2h3.53v-.59h4.39v.59h1.48v4.2Zm-3.49,4.73h-.65a.47.47,0,0,0-.5.48c0,.39.19.58.53.58h.12a.52.52,0,0,0,.5-.56Z"/><path class="cls-6" d="M123.69,128.88h-4V124.3h4.08c4,0,4.8-1.55,4.8-3.41v-1.31h-4.15a6.22,6.22,0,0,1-5.34,3V117.8a2.39,2.39,0,0,0,2.22-2.37v-.35h11.84v5.81C133.09,125,131.48,128.88,123.69,128.88Z"/><path class="cls-6" d="M141.36,128.83H135v-4.39h6.85c1.12,0,1.47-.28,1.47-.84v-.29h-9.54V119.5h14.33v3.33C148.11,126.22,146.66,128.83,141.36,128.83ZM134,118.89v-3.84H147.8v3.84Z"/><path class="cls-6" d="M156.8,127a15.13,15.13,0,0,1-8,2v-4.7c6.17,0,7.91-3.13,7.91-4.44v-.33h-7.41v-4.26h12.22v3.52a9.73,9.73,0,0,1-1.38,4.9,8.14,8.14,0,0,0,3.07.51v4.66C159.71,128.8,158.57,128.24,156.8,127Z"/><path class="cls-6" d="M176.37,119.21V128H171.6v-8.8h-4V115h12.52v4.26Z"/><path class="cls-6" d="M198.22,121.66c-.5,4.1-2.28,7.14-9.35,7.14h-4.2v-4.32h3.67c3.85,0,5-1.09,5.44-3.91.67-3.89,2.33-5.27,5.11-5.36v5.12C198.44,120.44,198.34,120.68,198.22,121.66ZM184.86,119v-3.81h6.42V119Zm0,4.4v-3.79h6.42v3.79Z"/><path class="cls-6" d="M207.7,127.08h-1.42V123.4h1.42c1.11,0,1.32-.27,1.32-1.13V122h-3.38l.22,6.93h-3.53l-.25-6.93h-1.19v-3.6H202v-.84h3.55l0,.84h7.11v2.92C212.63,125.52,211.55,127.08,207.7,127.08Z"/><path class="cls-6" d="M217.27,128.94h-2.36v-4.53h2.36c3.45,0,5.84-.57,6.81-2.45h-3.93l-.08-1.68c0-.62-.27-.81-.63-.81h-.06a.44.44,0,0,1,0,.17l.12,2.32h-4v-1.68c0-.59-.24-.81-.63-.81h-.22v-4.6h.56c2.29,0,3.5,1.31,4,3.43v-3.43h.56c2.74,0,3.91,1.94,4.17,4.77l.21,2.21a5.06,5.06,0,0,0,.42-2.19v-5H229v5C229,125.87,224.69,128.94,217.27,128.94Z"/><path class="cls-6" d="M236.68,119.23V120h6.56v3.31h-2.4v.82h-4.53v-.82h-1.74a.62.62,0,0,0-.58.64c0,.39.14.68.58.68h8.7V129h-8.86c-3.26,0-4.75-1.75-4.75-4.5a4.1,4.1,0,0,1,2.5-4v-1.21h-2.54v-4h2.54v-.54h4.52v.54h7.16v4Z"/><path class="cls-6" d="M81.48,149.61a3.16,3.16,0,0,1-.18.27h7.14V157H75.14v-2.15a8,8,0,0,1-.78.22v-4.69a3.46,3.46,0,0,0,2.09-.78H74.36v-2.34h5.12V147H74.83v-1.67h4.65v-.26H74.36v-2.4H76.3c0-.11-.1-.24-.16-.36H80.4a2.13,2.13,0,0,1,.15.36H82.9l.11-.36h4.27l-.09.36h1.73v2.4h-5v.26h4.57V147H83.87v.28h5v2.34ZM84,152H79.67v.37H84Zm0,1.36H79.67v.32H84Zm0,1.27H79.67V155H84Z"/><path class="cls-6" d="M101.61,157.18h-2V153.6h.45a.15.15,0,0,0,.14-.16v-.21h-1v4H95.13v-4h-.89c-.53,2.57-2,3.86-4.25,4.05v-5.84c.34-.28.51-.65.51-1.56V142.5h13.75V154C104.25,156.32,103.21,157.18,101.61,157.18ZM95.5,145.8h-1v.75h1Zm0,3.71h-1v.74h1Zm4.75-3.71h-1v.75h1Zm0,3.71h-1v.74h1Z"/><path class="cls-6" d="M114,156.93h-2.22c-3.63,0-5.5-2.37-5.5-5.73v-8.38h4.41V151a1.14,1.14,0,0,0,1,1.27h2.17a1.13,1.13,0,0,0,1.05-1.22v-1.61h4.57v1.77C119.47,154.62,117.58,156.93,114,156.93Z"/><path class="cls-6" d="M130.93,147.59c-2.56,0-3.53,1.62-3.53,3.16,0,1,.7,1.5,1.91,1.5h5.54V157H129.2c-4.52,0-6.39-2.28-6.39-5.89a5.77,5.77,0,0,1,1.21-3.48H121.4V143h14.17v4.57Z"/><path class="cls-6" d="M145.82,157.18v-.27c0-.24-.21-.55-.87-.82l-4.7-1.9c-2.18-.88-3-1.84-3-3.88v-1c0-1.88.59-2.95,3-3.88l4.78-1.84a1.09,1.09,0,0,0,.79-1H151c-.17,2.46-1.34,3.87-3.91,4.9l-4.79,1.92c-.25.09-.35.19-.35.33v.1c0,.16.1.29.35.35l4.79,1.92c2.9,1.16,4,2.5,4,4.82v.24Z"/><path class="cls-6" d="M164.25,146.71v.71h-6.53l-.36,9.51h-4.3l.36-9.51h-.84v-4.37h1v-.48h4.3v.48h5.45v-.48h3.8v1.82h-2.88v.51h2.88v1.81ZM162.19,157c-2.94,0-4.19-1.68-4.19-4.72,0-2.55,1.47-4.25,4.38-4.25h4.4v3.4h-3.7c-.24,0-.36.17-.36.45s.08.46.36.46h3.7V157Z"/><path class="cls-6" d="M180.55,147.75v4.09h-7.28c-.42,0-.64.22-.64.48s.23.49.64.49h8.25V157H172c-2.63,0-3.91-2-3.91-4.25,0-2.45,1.38-4.35,4-4.35H176v-.66h-7.75v-4.19H176v-.75h4.53v.75h2v4.19Z"/><path class="cls-6" d="M193.82,156.48v-8.61c0-.37-.11-.44-.25-.44s-.2.18-.23.32L192.23,153c-.57,2.64-1.52,4-4.08,4s-4.24-1.49-4.24-4.4v-9.21h4.28v8.57c0,.4.08.46.21.46s.28-.06.37-.56l1-4.82c.52-2.53,1.61-4,4.16-4a4.05,4.05,0,0,1,4.26,4.41v9Z"/><path class="cls-6" d="M63.42,342v6.64H60.87v-.4a20.67,20.67,0,0,1-3.44.18V345h.43v-2.56h-.25v.39a4,4,0,0,1-.44.11v3.42a2.22,2.22,0,0,1-2.16,2.2H53v-4.13h.21c.14,0,.21-.07.21-.24v-.5l-.61.06v-4.17l.61-.07v-1.37h-.61v-3.75h.61v-.74h3.74v.74h.44v3.75h-.44v.51l.44-.16v.64H67.82V342Zm-5.54-3.12v-5.09h9.73v5.09Zm3,3h-.51v.5h.51Zm0,1.78h-.51v.46h.51Zm0,1.74h-.51v.5l.51,0Zm3-10.11H61.69v.28h2.13Zm0,1.73H61.69v.3h2.13Zm1.87,10.88a3,3,0,0,1-2.08.72V345.5l.26,0a7.13,7.13,0,0,1-.28-.86h1.57a1.1,1.1,0,0,0,.15-.26h-1.7v-2.11h4.13v1.66a7.14,7.14,0,0,1-.29,1.33l.37,0v3.39A3.51,3.51,0,0,1,65.69,347.9Z"/><path class="cls-6" d="M71.19,348.3H68.76a21.18,21.18,0,0,0,.25-2.91H71.3A29.05,29.05,0,0,1,71.19,348.3Zm-2.29-6.39v-3.17h2.74v-.36H69.09v-4.65h8.44v4.65H75.16v.36h2.51v3.17Zm6.23,3.19v3.41H71.48V345.1H69.09v-2.9h8.44v2.9Zm-1.33-9.91h-1v.37h1Zm0,1.36h-1v.39h1Zm0,6.88h-1v.44h1Zm1.65,4.87-.19-2.91h2.38l.29,2.91ZM78,339.21v-4.45l5.82-1.25V338ZM78,344v-4.48l5.82-1.26v4.45Zm0,4.66v-4.32L83.8,343v4.4Z"/><path class="cls-6" d="M93.43,348.27H91.16c-3.71,0-5.63-2.37-5.63-5.73v-8.37H90v8.21a1.15,1.15,0,0,0,1.06,1.26h2.22a1.13,1.13,0,0,0,1.07-1.21v-1.62h4.69v1.78C99.08,346,97.15,348.27,93.43,348.27Z"/><path class="cls-6" d="M106.23,338.76l-.37,9.51h-4.4l.37-9.51H101v-4.37h1l0-.48h4.4l0,.48h9.4v4.37Zm4.58,9.54c-3,0-4.29-1.68-4.29-4.72,0-2.55,1.5-4.24,4.48-4.24h4.51v3.39h-3.79c-.24,0-.37.18-.37.45s.08.46.37.46h3.79v4.66Z"/><path class="cls-6" d="M131,345.77v.1a2.36,2.36,0,0,1-2.62,2.65h-7.5V346h5.59c.32,0,.45-.13.48-.27h-10v-3.23h10v-.27h-9.57l.82-3.27h-1.3v-5.15H131.8V339h-1.44v.8h-8.19l-.07.26H131v2.48h.83v3.23Zm-3.23-8.47h-5l-.06.28h5.09Z"/><path class="cls-6" d="M142.68,337.29v.27h4.42v6.8H133.57v-6.8H138v-.27H133V334H138v-.37h4.67V334h5v3.28Zm4.07,10.64.22.59h-4.45l-.21-.59h-3.7a3,3,0,0,1-.3.59H133.7a3.8,3.8,0,0,0,.4-.59H133v-3.31h14.77v3.31Zm-4-8.55h-4.95v.36h4.95Zm0,1.36h-4.95v.39h4.95Zm0,1.4h-4.95v.35h4.95Z"/><path class="cls-6" d="M158.23,345.58H155V341h3.31c.48,0,.66-.21.66-.61s-.22-.49-.66-.49h-3.95l.37,8.4h-4.39l-.36-8.4h-1v-4.37h.75l-.08-1.49H154l.08,1.49h2.59V334H161v1.87c2.18.66,2.86,2.24,2.86,4.59C163.83,344,162,345.58,158.23,345.58Z"/><path class="cls-6" d="M177.16,348.56h-2v-2.28a4.2,4.2,0,0,1-2.53,2.34V348c-.69.32-2.53.6-7.72.6v-3.28h2V345h-2v-1.71h2V343h-1.79v-4h1.79v-.29h-2V337h2v-.29h-1.79v-2.94c5.08,0,6.73,0,7.61-.24v1.31h.52v-1.19h4.45v1.19h2v10.51C179.63,347.53,178.76,348.56,177.16,348.56ZM168,340.2h-.71v.32H168Zm0,1.11h-.71v.35H168Zm2.51-1.11h-.69v.32h.69Zm0,1.11h-.69v.35h.69Zm2.14-4.89a7.85,7.85,0,0,1-1.77.23v.27h1.77Zm0,2.61v-.29h-1.77V339h1.81v3.73c.33-.22.48-1,.48-3.73Zm-.06,4h-1.71v.27h1.71Zm0,1.89h-1.71v.35a5.27,5.27,0,0,0,1.71-.23Zm3.75-5.88h-.28a30.87,30.87,0,0,1-.32,5.12h.36a.22.22,0,0,0,.24-.24Z"/><path class="cls-6" d="M190.36,337.66v.4h1.33v6.46H185v-6.46h1.33v-.4h-5.44v-3.83H195.8v3.83Zm-9.27,10.7v-10.3h3.52v6.83h7.45v-6.83h3.52v10.3Zm6.5-8.14h-.54v.6h.54Zm0,1.69h-.54v.6h.54Zm2-1.69h-.56v.6h.56Zm0,1.69h-.56v.6h.56Z"/><path class="cls-6" d="M204.31,338.57v.78H211v3.32h-2.46v.81h-4.64v-.81h-1.78a.61.61,0,0,0-.59.64c0,.38.14.67.59.67h8.92v4.32H202c-3.34,0-4.86-1.74-4.86-4.5a4.09,4.09,0,0,1,2.56-4v-1.21h-2.61v-4h2.61V334h4.62v.55h7.33v4Z"/><path class="cls-6" d="M214.39,348.56l-.19-1.12c-.11-.63-.31-.9-.79-.9h-.17v-4.39h.64c2.53,0,4.3,1.73,4.8,4.57l.32,1.84Z"/><path class="cls-6" d="M19.67,375.34H11.25v-4h7.44c.24,0,.32-.1.32-.3v-.05c0-.23-.11-.31-.32-.31H15.5c-3.23,0-4.51-1.32-4.51-3.84v-.46c0-2.92,1.68-4,4.55-4h7.57v4.15H16.37c-.26,0-.37.13-.37.3v.07c0,.19.08.35.37.35h3.55c2.66,0,4,1.44,4,3.36v.83C24,373.48,22.79,375.34,19.67,375.34Z"/><path class="cls-6" d="M33.12,375.5c-2.06,0-3.15-1.41-3.84-3.25l-1.54-4.11c0-.15-.08-.2-.12-.2s-.1.07-.1.21v7.21H23.1v-9.19c0-2.63,1.55-4,3.72-4a3.55,3.55,0,0,1,3.63,2.71l1.6,4.62c0,.18.06.23.16.23s.13,0,.13-.23v-7.21h4.43v9.14C36.77,374.27,35.38,375.5,33.12,375.5Z"/><path class="cls-6" d="M44.56,375.34H36.14v-4h7.44c.24,0,.32-.1.32-.3v-.05c0-.23-.11-.31-.32-.31H40.4c-3.23,0-4.51-1.32-4.51-3.84v-.46c0-2.92,1.68-4,4.54-4H48v4.15H41.26c-.25,0-.36.13-.36.3v.07a.31.31,0,0,0,.36.35h3.56c2.65,0,4,1.44,4,3.36v.83C48.87,373.48,47.68,375.34,44.56,375.34Z"/><path class="cls-6" d="M49.84,376.51a15,15,0,0,1,0-14.79h4.64a13.88,13.88,0,0,0-2.19,7.38,13.69,13.69,0,0,0,2.19,7.41Z"/><path class="cls-6" d="M58.91,375.36c-3.46,0-5.17-1.69-5.17-4.84v-8.23h4.91V370a1.07,1.07,0,0,0,1.21,1.11h6.38v4.29Z"/><path class="cls-6" d="M66,375.36V362.29h4.93v13.07Z"/><path class="cls-6" d="M80.8,375.5c-2.06,0-3.15-1.41-3.84-3.25l-1.54-4.11c0-.15-.08-.2-.12-.2s-.1.07-.1.21v7.21H70.78v-9.19c0-2.63,1.55-4,3.71-4a3.56,3.56,0,0,1,3.64,2.71l1.6,4.62c0,.18.06.23.16.23s.13,0,.13-.23v-7.21h4.43v9.14C84.45,374.27,83.06,375.5,80.8,375.5Z"/><path class="cls-6" d="M88.72,375.36c-3.81,0-4.92-2-4.92-5v-2.48c0-3.31.71-5.62,5-5.62h7.52v4.13H89.62a.86.86,0,0,0-1,.88h7.1v3.08H88.59c0,.59.13.88,1,.88h6.67v4.1Z"/><path class="cls-6" d="M100.26,371.55V367h4.8v4.6Z"/><path class="cls-6" d="M117.6,366.55v8.81h-4.88v-8.81h-4.08v-4.26h12.82v4.26Z"/><path class="cls-6" d="M129.87,375.37h-6a3.53,3.53,0,0,1-3.89-3.74v-5.91h4.24v4.82c0,.61.29.77.9.77h.09v-5.59h3.32v5.59h.12c.61,0,.9-.16.9-.77v-4.82h4.24v5.91A3.53,3.53,0,0,1,129.87,375.37Z"/><path class="cls-6" d="M132.83,365.91v-3.62h4.59v3.62Zm0,9.46v-8.72h4.59v8.72Z"/><path class="cls-6" d="M142.83,369.91v.77c0,.43.06.51.58.51h4.4v4.18H141.9c-2.65,0-3.6-1.25-3.6-3.15v-2.31h-2V365.7h2v-1.82h4.53v1.82H148v4.21Z"/><path class="cls-6" d="M152.72,369.91v.77c0,.43.06.51.58.51h4.4v4.18h-5.91c-2.66,0-3.6-1.25-3.6-3.15v-2.31h-2V365.7h2v-1.82h4.53v1.82h5.2v4.21Z"/><path class="cls-6" d="M165.47,371.58h-4.9c0,.32.18.56.69.56h6.92v3.23H159.9c-2.46,0-3.49-1.1-3.49-3.71v-3a2.9,2.9,0,0,1,3.22-3h5.67c2.09,0,3.13,1.12,3.13,2.86V369C168.43,370.62,167.76,371.58,165.47,371.58Zm-1.34-2.77c0-.19-.15-.35-.42-.35h-2.46a.61.61,0,0,0-.69.62v.15h3.15c.24,0,.42-.1.42-.34Z"/><path class="cls-6" d="M173.17,370a1.32,1.32,0,0,0-1.46,1.3v4.11h-4.59v-4.21c0-3.84,2.3-5.46,5-5.46h5.08V370Z"/><path class="cls-6" d="M193.92,365.4v.53h.4v2.24h-4.77v.29h5.08v2.37h-1.41v.27h1.23v3.33H193.2c-.13,1.37-.86,2.11-2.48,2.11h-3.46v-2.11h-1.33l.77,2.14H182l-.74-2.14H180V371.1h8.72v-.27h-8.91v-2.37h5.07v-.29h-4.77v-2.24h3.09v-.75h-.37l-.11.44h-3.09c.24-1.13.54-3.31.61-4h4.58l0,.37H187v2.42c.26-1.12.48-2.39.53-2.79H192l-.06.37h2.72v3.41Zm-7.57-.61v.51h.47l.14-.51Zm4,.26H190l-.11.57h-.32v.31h.8Z"/><path class="cls-6" d="M197.57,376.83h-4.26a15.15,15.15,0,0,0,2.13-7.73,15.4,15.4,0,0,0-2.13-7.72h4.26a16.65,16.65,0,0,1,0,15.45Z"/><path class="cls-6" d="M214.05,366.57v.78h6.72v3.32H218.3v.81h-4.64v-.81h-1.77a.62.62,0,0,0-.6.64c0,.38.15.67.6.67h8.91v4.32h-9.07c-3.35,0-4.87-1.74-4.87-4.5a4.11,4.11,0,0,1,2.56-4v-1.21h-2.61v-4h2.61V362h4.63v.55h7.33v4Z"/><path class="cls-6" d="M232,376.52h-2v-3.58h.46a.16.16,0,0,0,.15-.16v-.21H229.5v4h-4.17v-4h-.92c-.54,2.58-2,3.86-4.35,4.05v-5.84c.35-.27.53-.64.53-1.55v-7.38h14.08v11.5C234.67,375.66,233.6,376.52,232,376.52Zm-6.26-11.38h-1v.76h1Zm0,3.72h-1v.73h1Zm4.87-3.72H229.5v.76h1.08Zm0,3.72H229.5v.73h1.08Z"/><path class="cls-6" d="M243.81,375.82v-8.61c0-.37-.11-.43-.26-.43s-.21.17-.24.32l-1.13,5.23c-.58,2.64-1.56,4-4.18,4s-4.34-1.49-4.34-4.4v-9.21h4.39v8.57c0,.4.08.46.2.46s.29-.06.39-.56l1-4.82c.53-2.52,1.65-4,4.26-4a4.11,4.11,0,0,1,4.37,4.42v9Z"/><path class="cls-6" d="M256.86,366.94c-2.62,0-3.61,1.61-3.61,3.15,0,1,.72,1.5,1.95,1.5h5.68v4.71h-5.79c-4.63,0-6.55-2.27-6.55-5.89a5.63,5.63,0,0,1,1.25-3.47H247.1v-4.58h14.52v4.58Z"/><path class="cls-6" d="M20.38,394.1a13.35,13.35,0,0,1-.72,2.1H21v8.34H16.49v-4.1a13.47,13.47,0,0,1-5.16,2.64v-5.17a6.36,6.36,0,0,0,4.39-3.81H11.33v-4.29H26.15v4.29Zm1,6v-4.88l4.77,2.66v5Z"/><path class="cls-6" d="M41.16,400.65v1.41c0,1.52-.77,2.5-2.16,2.5H36.36V401h.82c.11,0,.14-.09.14-.2v-.18h-3.9V401H35.7l.52,3.33H33.56l-.4-2.78-.37.14v2.85H28.93v-2c-.62.08-1.29.13-2,.18v-4.36a18.31,18.31,0,0,0,2.1-.14v-2.48h-.23a5.11,5.11,0,0,1-.22,1.18H26.53a33.59,33.59,0,0,0,.45-7h2.24c0,.48,0,1.11,0,1.78h.32v-2.08h3.28v2.08h.63v1.7h2.19v-.36H33.74v-3.12h1.87v-.3h4.08v.3h1.89v3.12H39.69v.36h2.19v3.1h-.72v.39h.72v3.74Zm-3.84-4.13h-4v-.78h-.56v1.68a4.29,4.29,0,0,0,.56-.26v-.25h4Z"/><path class="cls-6" d="M56.86,394.82v2.58h-4.1v.38h3.75v2.47H52.76v.35h4.71v3.83H49.86a7.25,7.25,0,0,1-4.29-1.15,5.73,5.73,0,0,1-2.91,1.31V400c.82-.18,1.17-1,1.17-2.21h4a8.88,8.88,0,0,1-.31,2.37,1.5,1.5,0,0,0,.72.33V397.4H43.33v-2.58h-.64v-4.67h5.14v-.5h4.61v.5H57.5v4.67Zm-3.43-1.05H46.77v.38h6.66Z"/><path class="cls-6" d="M58.37,404.56v-4.1a39,39,0,0,0,5-.26l-.32-.41a17.15,17.15,0,0,1-3.54.36v-2.78a8.56,8.56,0,0,0,3.55-.71c-1.36.21-2.93.39-4.74.53v-3.28c.69,0,1.33,0,1.91,0l-.51-.51c-.35,0-.74.05-1.14.05v-3.09c.85,0,2.61-.26,2.82-.6H71.91v3.38a7.73,7.73,0,0,1-1.77,1.39h3.1v6C70.17,403.31,67,404.56,58.37,404.56Zm5.19-11.9a7.26,7.26,0,0,1-1.09.31h1.66l.5.51a5.63,5.63,0,0,0,2.27-.82Zm3.17,5.53a6.55,6.55,0,0,1-.58.4h.72l.53.7a10.08,10.08,0,0,0,2.13-1.1Z"/><path class="cls-6" d="M85.45,403.11A7,7,0,0,1,82,404.62v-4.31h-.53l-.14.48.38.08v3.72l-2.72-.9a10.65,10.65,0,0,1-5,.93v-3.51a8,8,0,0,0,1,0l-.51-.3a3.7,3.7,0,0,0,.32-.52H74v-3h0v-2.93a2.65,2.65,0,0,0,1.33-.44H74v-3.37h.35c0-.29-.07-.6-.13-.93h2c0,.32.08.62.11.93h.35v-.93h2.88v.93h.31l.11-.93H82l-.13.93h.29v2.61a11.37,11.37,0,0,0,.4-3.54h4v.59h2.39v4.45H88.7a17,17,0,0,1-.82,4.71,4.6,4.6,0,0,0,1.06.17v5.06A7.22,7.22,0,0,1,85.45,403.11Zm-3.76-6-1.79-.93v.57H76.21v-.64a5,5,0,0,1-1.69,1.21h1.55a2.81,2.81,0,0,0,.08-.31H80l-.13.31h1.86Zm-3.62,2.57a1.44,1.44,0,0,1-.13.31l.59.17a1.66,1.66,0,0,0,.29-.48Zm3.62-5.73H80.23l1.46.6Zm.62,4.55a.92.92,0,0,1-.24.13V400a4.35,4.35,0,0,0,.75-.21A13.13,13.13,0,0,1,82.31,398.49Zm2.84-3.81a7.85,7.85,0,0,1-.84,1.82H85a3.27,3.27,0,0,0,.12.9,9.72,9.72,0,0,0,.35-2.72Z"/><path class="cls-6" d="M99.69,404.35h-.93v-3.81c-.45,2.86-2.06,3.81-4.26,3.81-2.54,0-4.67-1.63-4.67-5.17v-3c0-4.12,2.78-6.09,6-6.09h2.49a5.78,5.78,0,0,1,6.12,6v2.62C104.43,402.32,102.65,404.35,99.69,404.35ZM95.24,395A1.38,1.38,0,0,0,94,396.46v2.25c0,.6.27.72.57.72a.64.64,0,0,0,.66-.72Zm4.83,1.55A1.35,1.35,0,0,0,98.89,395v4.36h.21c.6,0,1-.24,1-1.06Z"/><path class="cls-6" d="M113,400.22a12.92,12.92,0,0,1-7.62,4.34v-5.35c3-.45,5-2.29,5-5.36v-4.16h4.84v3.81a5.42,5.42,0,0,0,5.09,5.71v5.35A10.59,10.59,0,0,1,113,400.22Z"/><path class="cls-6" d="M132.52,400.94V397c0-.39-.18-.6-.64-.61v4.3c0,2.13-.75,3.54-3.23,3.54h-2v-4.5h.58c.35,0,.54-.12.54-.57V397a.41.41,0,0,0-.46-.47h-.92l-.49,7.7h-4.23l.51-7.7h-1.08v-4.69h1.39l.11-1.77h4.21l-.11,1.77h.51c3.2,0,4.31,1.14,4.59,3.4v-3H136v1.82h-.64a6,6,0,0,1,.81,3.56v3.28Zm-.74-9.17v-1.83H136v1.83Z"/><path class="cls-6" d="M140.74,397.19v7.35l-3.76,0V389.85H144v7.34Zm.37-4.94h-.64v.7h.64Zm0,2.38h-.64v.71h.64Zm5.65,9.93h-1.25a1.52,1.52,0,0,1-1.49-1.62V402h-.11c-.17,1.49-.91,2.47-2.88,2.58v-2.27c.32,0,.51-.07.62-.31H141v-3.9h.39a2.48,2.48,0,0,0-.31-.66h2.76a6.47,6.47,0,0,1,.21.66h.32l.12-.66h2.76l-.15.66h.27V402h-1v.15a.19.19,0,0,0,.18.21h.35a.86.86,0,0,0,.55-.18v2.13A1.11,1.11,0,0,1,146.76,404.56Zm-2.22-4.74h-.68v.53h.68Zm3.15,4.72v-7.35h-3.3v-7.34h7.06v14.67Zm.27-12.29h-.64v.7H148Zm0,2.38h-.64v.71H148Z"/><path class="cls-6" d="M165.55,404.54h-3.73a1.89,1.89,0,0,1-1.94-2.16v-.95h-.16c-.61,2.05-1.78,3.11-7.32,3.11v-2.72c1.62,0,2.68-.05,3.09-.39h-2.73v-5.58H167v5.58h-3.13v.05c0,.15.06.23.24.23h1.53a4,4,0,0,0,1.75-.28v2.79A4.1,4.1,0,0,1,165.55,404.54Zm-4.89-9v-2.34h-.25v.44h-1.07v.28h1.07v1.62h-7.92v-5.92h7.92v1.55h-1.07v.29h1.07v.58a7.19,7.19,0,0,0,.43-2.42h4.07a3.1,3.1,0,0,1,0,.43h2.45v2.72h-3a1.8,1.8,0,0,1-.14.31h3.17v2.46ZM156.82,391h-.64v.45h.64Zm.51,1.42h-1.15v.37h1.15Zm-.51,1.21h-.64v.44h.64Zm5.57,3.53h-5v.42h5Zm0,1.19h-5v.4h5Zm0,1.21h-5V400h5Z"/><path class="cls-6" d="M180.3,394.22v.72H178c-2.63,0-3.63,1.61-3.63,3.15,0,1,.73,1.5,2,1.5H182v4.71h-5.81c-4.64,0-6.56-2.27-6.56-5.89a5.64,5.64,0,0,1,1.26-3.47h-2.69v-4.58h10.84v-.27H183v1.82H180.3v.51H183v1.8Z"/><path class="cls-6" d="M196.19,398.15l0,1.12h-6.66c-.34,0-.48.16-.48.37s.18.37.48.37H198v4.26h-9.27c-2.71,0-4.27-1.52-4.27-3.83a4.18,4.18,0,0,1,.51-2.09h-1.17v-3.43h7.63v-.58h-7.62v-3.68h7.52l0-.62H196l0,.62h2.7v3.68h-2.61l0,.58h2.59v3.23Z"/><path class="cls-6" d="M207.46,404.3h-3.39c-2.77,0-4.42-1.55-4.42-4v-.61a3.61,3.61,0,0,1,3.83-3.6h.3v-1.46h-3.87V390.1h8.74v2.77c4.06.15,5.6,2.16,5.6,5.36v.61C214.25,401.8,212.59,404.3,207.46,404.3Zm-3-4.53a.58.58,0,0,0-.51-.64h-.14a.58.58,0,0,0-.63.59.63.63,0,0,0,.71.63h.57Zm3.38-2.82h-1a4.15,4.15,0,0,1,1.18,2.71h0c.8,0,1.11-.53,1.11-1.39A1.17,1.17,0,0,0,207.83,397Z"/><path class="cls-6" d="M216.36,404.52v-1.8a8.73,8.73,0,0,1-1.25.68v-4.62a4.05,4.05,0,0,0,1.25-.67v-2.28l-1.25-.4v-4.21l1.25.4v-1.93h4v14.83Zm9-3.87a7.48,7.48,0,0,1-4.72,3.94v-5.06a3.87,3.87,0,0,0,2-2.79h-2v-4.4h2.4v-2.69h4.26v2.69h2.77v4.4h-2.37a3.82,3.82,0,0,0,2.37,2.69v5.16A7.67,7.67,0,0,1,225.38,400.65Zm2.52-8.58-.37-2.42h2.08l.43,2.42Z"/><path class="cls-6" d="M243.88,404.51h-1.37c-1.14,0-2-.82-2-2.47v-3h-.3c-.35,3.05-1.79,5.1-5.17,5.6v-3.71a19.63,19.63,0,0,1-.43,3.55h-4.08a41.52,41.52,0,0,0,.64-6.16h4c0,.21,0,1-.08,1.87.7-.19,1.13-.21,1.34-1.15h-.83v-9.29h9.78V399H244.3v.89a.34.34,0,0,0,.3.37h.27a1.1,1.1,0,0,0,.87-.35V404A2.93,2.93,0,0,1,243.88,404.51Zm-13.08-11v-3.84l4.36.51V394Zm0,4.06v-3.81l4.36.5v3.84Zm10.3-3.71h-1.24V395h1.24Z"/><path class="cls-6" d="M246.77,404.25V390.17h4.15v14.08Zm11.35-5.71-2.08.78c-.18.07-.29.16-.29.31s.11.22.37.22h5.24v4.27h-5.94c-2.66,0-4.07-1.4-4.07-4.32,0-1.73.67-3,3.68-4.06l1.67-.58c.2-.11.27-.18.27-.35s-.07-.24-.3-.24h-5.06v-4.21h5.84c2.64,0,4.16,1.14,4.16,4.09C261.61,396.84,260.46,397.66,258.12,398.54Z"/><path class="cls-6" d="M53.72,422.47v10H49.06v-.74H45.83a4.05,4.05,0,0,1-4.37-4.38c0-2.31,1.28-4.2,4.37-4.2h3.23v-.67h-8v-4.06h8V418h4.66v.4h2.07v4.06Zm-4.66,4.07H46.21c-.44,0-.62.17-.62.48s.22.49.62.49h2.85Z"/><path class="cls-6" d="M64.9,432.3H61.51c-2.77,0-4.42-1.55-4.42-4v-.61a3.61,3.61,0,0,1,3.83-3.6h.3v-1.46H57.35V418.1h8.74v2.77c4.06.15,5.6,2.16,5.6,5.36v.61C71.69,429.8,70,432.3,64.9,432.3Zm-3-4.53a.58.58,0,0,0-.51-.64h-.14a.58.58,0,0,0-.63.59.63.63,0,0,0,.71.63h.57ZM65.27,425h-1a4.15,4.15,0,0,1,1.18,2.71h0c.8,0,1.11-.53,1.11-1.39A1.17,1.17,0,0,0,65.27,425Z"/><path class="cls-6" d="M77.53,432.3c-3.27,0-4.44-1.58-4.44-4.79,0-2.7,2-4.13,4.66-4.13h4.56c.31,0,.48-.11.48-.46a.43.43,0,0,0-.48-.38h-8.5v-4.41h8.65c3.37,0,4.91,1.62,4.91,4.92,0,2.67-1.73,4-5,4H78.21c-.43,0-.6.24-.6.46s.17.47.6.47h9.24v4.32Z"/><path class="cls-6" d="M99.37,425.07H95.61c-.92,0-1.59.43-1.59,1.32s.64,1.36,1.59,1.36h8v4.53H94.94c-3.94,0-5.88-2.24-5.88-5.89a5.65,5.65,0,0,1,2.43-4.83v-3.3h4.63v2.34h2.51a.53.53,0,0,0,.56-.58v-.7h4.66v1.23C103.85,424,102.2,425.07,99.37,425.07Z"/><path class="cls-6" d="M118.2,422.89v1.61h1.51v4.57h-1.33c0,2.35-1.22,3.29-3.72,3.29h-1.28a3.11,3.11,0,0,1-3-1.76v1.68H109c-2.72,0-3.91-1.2-3.91-3.71V418.1h4.39v9.21c0,.43.09.56.48.57a3.45,3.45,0,0,1,3.7-3.38h0v-1.61h-3.61v-4.2h3.61v-.59h4.5v.59h1.52v4.2Zm-3.57,4.74H114a.47.47,0,0,0-.51.48c0,.38.19.57.54.57h.13a.52.52,0,0,0,.51-.56Z"/><path class="cls-6" d="M120.88,427.42V422H135.8v5.4Z"/><path class="cls-6" d="M148.7,432.54h-2.58v-2.83a6,6,0,0,1-3.38,2.81v-5.68c.63-.3,1-1.07,1.06-4.74H143V425l-1.51.16v2.11a.11.11,0,0,0,.1.11h.08a1.3,1.3,0,0,0,.78-.19v4.59a3.85,3.85,0,0,1-1.6.29h-1.55a1.81,1.81,0,0,1-1.92-2v-4.49l-.5,0V421l.5,0v-3.36h4.11v3l1.47-.12v-2.77h8.63v11.92C151.61,432,150.38,432.54,148.7,432.54Zm-1-10.44h-.31a23.52,23.52,0,0,1-.7,6.12h.72c.16,0,.29-.11.29-.35Z"/><path class="cls-6" d="M162.58,429.66v2.88h-4.41v-2.88h-5.24v-3.14h14.81v3.14Zm4.85-5.67v2.26H153.24V424a1.63,1.63,0,0,1-.29.1v-3.15a2.09,2.09,0,0,0,1.06-.45H153v-2.6h1.44v-.27h4.18v.27h1.58v2.6h-1l1,.49v3h.35v-3.12a3.05,3.05,0,0,0,1.08-.35H160.5v-2.6h1.56v-.27h4.17v.27h1.49v2.6h-1.17a2.67,2.67,0,0,0,1.17.45v3.15Zm-10.27,8.47H153a4.27,4.27,0,0,0,.77-2.53h3.93A6.62,6.62,0,0,1,157.16,432.46Zm1-9.38v.61h-3.44v-.53a4.81,4.81,0,0,1-1.44.8H160Zm7.67.08v.53h-3.45v-.56a6,6,0,0,1-1.55.83h6.5A6.35,6.35,0,0,1,165.87,423.16Zm-2.28,9.3-.64-2.53h4.1l.74,2.53Z"/><path class="cls-6" d="M168.87,432.35V428h.83v-8.61h4.43V428h1V417.69h4.45V421h4v4.4h-4V428h4.27v4.37Z"/><path class="cls-6" d="M193.43,432.27h-2.27c-3.71,0-5.63-2.37-5.63-5.73v-8.37H190v8.21a1.15,1.15,0,0,0,1.06,1.26h2.22a1.13,1.13,0,0,0,1.07-1.21v-1.62h4.69v1.78C199.08,430,197.15,432.27,193.43,432.27Z"/><path class="cls-6" d="M211.72,431.56v-1.93c0-.35-.09-.56-.45-.6,0,2.1-.81,3.32-3.31,3.32h-3.78c-2.38,0-3.31-1.46-3.31-3.41,0-2.1,1.38-3.14,3.6-3.14h2.67v-.53h-5.63v-3.1h5.63v-.58h-5.63v-3.14h5.63v-.52h4.5v.52h3.43v3.14h-3.43v.58h3.43v3.1h-3.43v.53H212c2.48,0,3.77,1.39,3.77,3.63v2.13Zm-4.58-3.28H205a.33.33,0,0,0-.35.35.32.32,0,0,0,.35.32h1.73c.3,0,.38-.09.38-.3Z"/><path class="cls-6" d="M229.72,422.47v10h-4.66v-.74h-3.23a4.05,4.05,0,0,1-4.37-4.38c0-2.31,1.28-4.2,4.37-4.2h3.23v-.67h-8v-4.06h8V418h4.66v.4h2.07v4.06Zm-4.66,4.07h-2.85c-.44,0-.62.17-.62.48s.22.49.62.49h2.85Z"/></g></g></svg>