<svg xmlns="http://www.w3.org/2000/svg" viewBox="0 0 320.23 624.07"><defs><style>.cls-1{fill:#75b4c6;}.cls-2,.cls-4,.cls-6{fill:none;stroke-miterlimit:10;}.cls-2{stroke:#75b4c6;stroke-width:25px;}.cls-3{fill:#fff;}.cls-4{stroke:#fff;stroke-width:30px;}.cls-5{opacity:0.25;}.cls-6{stroke:#edbdd4;stroke-width:30.33px;}.cls-7{fill:#ebe669;opacity:0.5;}.cls-8{fill:#666464;}</style></defs><g id="レイヤー_2" data-name="レイヤー 2"><g id="レイヤー_2-2" data-name="レイヤー 2"><rect class="cls-1" x="31.44" y="380.87" width="288.79" height="78.85" rx="17.27"/><circle class="cls-1" cx="174.35" cy="140.43" r="127.84"/><path class="cls-2" d="M174.2,201.12V413.74c0,23.93,1.18,48.1-3.12,71.77-4,22.14-12.21,43.73-25.52,62q-2.79,3.82-5.86,7.43C109,591,61.25,606,15.52,610.48c-4.74.47-10.8,1.09-15.52,1.09"/><rect class="cls-3" x="32.24" y="372.48" width="287.21" height="78.42" rx="17.18"/><circle class="cls-3" cx="174.35" cy="127.84" r="127.84"/><path class="cls-4" d="M174.2,187.45V400.07c0,23.93,1.18,48.1-3.12,71.77-4,22.14-12.21,43.73-25.52,62q-2.79,3.82-5.86,7.43C109,577.35,61.25,592.34,15.52,596.81c-4.74.47-11.3,1.09-15.52,1.09"/><g class="cls-5"><circle class="cls-6" cx="174.35" cy="127.84" r="112.64"/><line class="cls-6" x1="99.49" y1="43.68" x2="246.83" y2="214.05"/></g><rect class="cls-7" x="40.32" y="380.77" width="271.05" height="61.85" rx="12"/><path class="cls-8" d="M129.13,110.94c.27,0,.55.08.8.11v4.13c-.2,0-.43-.07-.65-.11v3.73h-1.46l-.06.27h2.17v3.41H115v-3.41h2.06a2.14,2.14,0,0,1-.06-.27h-1.28V115l-.72.09v-4h.49l-.32-.68h3.09l.13.28a2.61,2.61,0,0,0,1-.58h-3.93v-2.51h8.66a1.93,1.93,0,0,0,.43.84l.59-.94h3.63l-1.07,1.68H130Zm-3,3.07v.27h-6.75V114a10.55,10.55,0,0,1-1.56.59h9.56A12.67,12.67,0,0,1,126.09,114Zm-1.23,2.4h-4.69v.45h4.69Zm-3.62,2.39a2.33,2.33,0,0,1,.08.38h2.39l.08-.38Zm1.35-7.57a6,6,0,0,1-.55.72h1.2A6.22,6.22,0,0,1,122.59,111.23Z"/><path class="cls-8" d="M140,112.14v.78l5.86,1.55v4.77L140,117.56v4.92h-4.48V112.14H131v-4.37H146v4.37Z"/><path class="cls-8" d="M157.18,121.15a9.79,9.79,0,0,1-4.51,1.41v-4.12l-.76-.88v4.92h-3.84V119.2a9.49,9.49,0,0,1-1,.94v-5.52a3,3,0,0,0,1-2.31h-1V108.2h1v-.64h3.84v.64h.64v4.11h-.64v.45l.84.82c.33-.1.57-.42.65-1h7.8a1,1,0,0,0,.73.91v4.4a6.05,6.05,0,0,1-1.21-.46l-.32.59a10,10,0,0,0,1.55.19v4.34A9.9,9.9,0,0,1,157.18,121.15Zm-4.35-8.84V108.2h2v-.66h4.55v.66H162v4.11Zm1,5.16a4.68,4.68,0,0,1-.89.33v.39c.41-.07.8-.15,1.15-.24C154,117.79,153.91,117.63,153.83,117.47Zm3.48-4.85a7.47,7.47,0,0,1-1,2.45h.48a5.18,5.18,0,0,0,.4.86,3.3,3.3,0,0,0,.43-.86h.61A7,7,0,0,1,157.31,112.62Z"/><path class="cls-8" d="M172.92,120.33v2.18h-4.7v-2.18h-5.11V108.79h5.11v-1.25h4.7v1.25h5v11.54Zm-4.53-7.17h-1V116h1Zm5.27,0h-.91V116h.91Z"/><path class="cls-8" d="M192.33,112.81v1.62h1.51V119h-1.33c0,2.35-1.22,3.3-3.72,3.3h-1.28a3.11,3.11,0,0,1-3-1.76v1.68h-1.42c-2.72,0-3.91-1.2-3.91-3.72V108h4.39v9.21c0,.43.1.56.48.57a3.44,3.44,0,0,1,3.7-3.37h0v-1.62h-3.61v-4.19h3.61V108h4.5v.6h1.52v4.19Zm-3.57,4.74h-.67a.47.47,0,0,0-.51.48c0,.38.19.57.54.57h.13a.52.52,0,0,0,.51-.56Z"/><path class="cls-8" d="M207.68,122.48h-4v-3.43h-.25v1.15c0,1.43-.64,2-1.86,2h-.16v.29H197.9v-4.23h-.36v3.94h-2.32v-7.6h2.66v-.26h-2.75v-2.21h-.4a18.69,18.69,0,0,0,.3-4.54h2.58v.57h.27v-.57h3.39v.57h1.36v3.12h-1.36v.29h1.38v2.77h-1.38v.26h1.65v-6.82h3v10.34H206a.15.15,0,0,0,.14-.15V107.58h3.76v12.48A2.19,2.19,0,0,1,207.68,122.48Zm-9.8-11.21h-.59c0,.18,0,.32,0,.47h.64Zm3.22,7h-.47v.64h.31c.13,0,.16-.06.16-.11Z"/><path class="cls-8" d="M215.34,122.45h-1.89V119.6a5.34,5.34,0,0,1-2.55,2.85v-5.11a1.48,1.48,0,0,0,.39-1.18v-8.5h6.16v12.45C217.45,121.69,216.91,122.45,215.34,122.45Zm-.69-4.6h-.71c0,.29-.11.56-.17.82h.64c.14,0,.24-.13.24-.31Zm0-6.69h-.58V112h.58Zm0,3.36h-.58v.9h.58Zm8.8,6.92a6,6,0,0,1-2.35,1.12v-3.78l.38-.14a7.42,7.42,0,0,1-.48-2.2h2.05c0-.08,0-.17,0-.28h-2.27v6.3h-3.09v-14.8h8.19v3.58a1.77,1.77,0,0,1-1,1.83h1v4.46a6,6,0,0,1-.4,1.17l.4.08v3.76A4.63,4.63,0,0,1,223.45,121.44Zm-.88-10.74h-1.18v2.37h.37v-2h.65c.11,0,.16-.08.16-.18Z"/><path class="cls-8" d="M234.44,112.49v.78h6.72v3.32H238.7v.81h-4.64v-.81h-1.78a.61.61,0,0,0-.59.64c0,.38.14.67.59.67h8.92v4.32h-9.08c-3.34,0-4.86-1.74-4.86-4.5a4.07,4.07,0,0,1,2.56-4v-1.22h-2.61v-4h2.61v-.55h4.62v.55h7.33v4Z"/><path class="cls-8" d="M122.31,142.87a2,2,0,0,1-.19.28h7.32v7.12H115.82v-2.15c-.26.08-.52.16-.8.23v-4.69a3.6,3.6,0,0,0,2.14-.79H115v-2.33h5.25v-.29H115.5v-1.66h4.77v-.26H115v-2.4h2l-.16-.37h4.37a2.48,2.48,0,0,1,.14.37h2.42l.11-.37h4.37l-.09.37h1.77v2.4h-5.17v.26h4.68v1.66h-4.68v.29h5.17v2.33Zm2.58,2.36h-4.43v.37h4.43Zm0,1.36h-4.43v.32h4.43Zm0,1.26h-4.43v.37h4.43Z"/><path class="cls-8" d="M142.92,150.45h-2v-3.59h.47a.14.14,0,0,0,.14-.16v-.21h-1.07v4h-4.18v-4h-.91c-.55,2.58-2.05,3.86-4.35,4V144.7c.35-.27.52-.64.52-1.55v-7.38h14.09v11.51C145.63,149.58,144.56,150.45,142.92,150.45Zm-6.25-11.38h-1v.75h1Zm0,3.71h-1v.73h1Zm4.86-3.71h-1.07v.75h1.07Zm0,3.71h-1.07v.73h1.07Z"/><path class="cls-8" d="M155.56,150.19h-2.27c-3.71,0-5.63-2.37-5.63-5.73v-8.37h4.51v8.21a1.15,1.15,0,0,0,1.06,1.26h2.22a1.12,1.12,0,0,0,1.07-1.21v-1.62h4.69v1.78C161.21,147.88,159.28,150.19,155.56,150.19Z"/><path class="cls-8" d="M172.94,140.86c-2.63,0-3.62,1.61-3.62,3.15,0,1,.72,1.51,2,1.51H177v4.7h-5.8c-4.62,0-6.54-2.27-6.54-5.89a5.62,5.62,0,0,1,1.24-3.47h-2.68v-4.58h14.51v4.58Z"/><path class="cls-8" d="M188.19,150.45v-.28c0-.24-.23-.54-.9-.81l-4.82-1.91c-2.22-.88-3.07-1.84-3.07-3.87v-1c0-1.87.61-2.94,3.07-3.87l4.9-1.84a1.12,1.12,0,0,0,.82-1h5.28c-.18,2.47-1.38,3.88-4,4.9l-4.92,1.92c-.25.1-.35.19-.35.34v.09c0,.17.1.29.35.36l4.92,1.92c3,1.15,4.08,2.49,4.08,4.82v.24Z"/><path class="cls-8" d="M207.05,140v.7h-6.69l-.37,9.51h-4.4l.37-9.51h-.86v-4.37h1l0-.48h4.4l0,.48h5.59v-.48H210v1.83h-2.95v.51H210V140Zm-2.11,10.24c-3,0-4.29-1.68-4.29-4.72,0-2.55,1.5-4.24,4.48-4.24h4.52v3.39h-3.8c-.24,0-.37.18-.37.45s.08.46.37.46h3.8v4.66Z"/><path class="cls-8" d="M223.74,141v4.08h-7.46c-.43,0-.66.22-.66.48s.24.5.66.5h8.45v4.19H215c-2.69,0-4-2-4-4.24,0-2.45,1.41-4.36,4.1-4.36h4V141h-7.94v-4.2h7.94v-.75h4.64v.75h2V141Z"/><path class="cls-8" d="M237.32,149.74v-8.61c0-.37-.11-.43-.25-.43s-.21.17-.24.32l-1.14,5.23c-.58,2.64-1.55,4-4.18,4s-4.33-1.49-4.33-4.4v-9.2h4.38v8.56c0,.4.08.46.21.46s.29-.06.38-.56l1-4.81c.52-2.53,1.64-4,4.25-4a4.11,4.11,0,0,1,4.37,4.42v9Z"/><path class="cls-8" d="M55.28,419a9.5,9.5,0,0,1-4.35,1.36v-4l-.72-.85v4.73H46.5v-3.16a7.35,7.35,0,0,1-1,.91v-5.32a2.85,2.85,0,0,0,.95-2.22H45.5v-4h1v-.61h3.71v.61h.61v4h-.61v.43l.8.79c.32-.1.55-.4.63-1h7.51a1,1,0,0,0,.71.88v4.24a5.9,5.9,0,0,1-1.17-.45c-.09.19-.2.37-.31.58a8.44,8.44,0,0,0,1.5.18v4.18A9.48,9.48,0,0,1,55.28,419Zm-4.19-8.51v-4h2v-.63h4.38v.63h2.44v4Zm1,5a5.23,5.23,0,0,1-.87.32v.37a9.82,9.82,0,0,0,1.11-.23C52.23,415.78,52.13,415.63,52.06,415.48Zm3.34-4.68a7,7,0,0,1-.92,2.36h.46a4.84,4.84,0,0,0,.39.83,3.06,3.06,0,0,0,.41-.83h.59A6.8,6.8,0,0,1,55.4,410.8Z"/><path class="cls-8" d="M73,420.56H69.54v-4h.7a6.48,6.48,0,0,1-1.93-1.76A6.2,6.2,0,0,1,65.55,417v-4.86a1.78,1.78,0,0,0,.84-1.4H65.17v9.85H61V406.7h5.09v-1h4.34v1h5.12v11.22A2.34,2.34,0,0,1,73,420.56Zm-1.67-9.85H70a2.22,2.22,0,0,0,1,1.36v4.49H71c.31,0,.32-.13.32-.32Z"/><path class="cls-8" d="M83.47,410.6v.78h6.69v3.3H87.71v.81H83.09v-.81H81.32a.61.61,0,0,0-.59.63c0,.39.14.67.59.67H90.2v4.31h-9c-3.33,0-4.85-1.74-4.85-4.48a4.08,4.08,0,0,1,2.55-4V410.6H76.27v-4h2.59v-.54h4.61v.54h7.3v4Z"/><path class="cls-8" d="M104.88,415.29a7.66,7.66,0,0,0,1.64.64v4.82a12.66,12.66,0,0,1-4.42-2.34v1.14a41.34,41.34,0,0,1-10.23,1.1V416.7c.71,0,1.39,0,2.1,0v-1.23a16.83,16.83,0,0,1-2.42,1.37V412a5.82,5.82,0,0,0,2.08-1.44H91.55v-4.12h5.32v-.7h4.3v.7h5.35v4.12H98.31A13.27,13.27,0,0,1,97,412.62h1.08v3.73c.64-.08,1.26-.19,1.9-.32a10.52,10.52,0,0,1-1.71-5.11h4a7.35,7.35,0,0,0,.2,1.23l.54-1.21h3.75Z"/><path class="cls-8" d="M121.13,417.11h.4v3.48a8.25,8.25,0,0,1-5-1.53v1.23a79.81,79.81,0,0,1-8.5.32v-1.39c-.43.06-.89.11-1.4.16v-3.24a8.3,8.3,0,0,0,2.66-.25h-2.66v-3.22h5.07v-.29H109v-.46a9.32,9.32,0,0,1-2.38.35v-3.2a7.62,7.62,0,0,0,2.36-.27l-2.36-.31v-2.71l2.38.32v-.41h4v6.36h.3v-2.68h1.81v-.27h-1.81V406h1.81v-.32h4.24V406h2.09v3.09h-2.09v.27h1.76v3h-4.75v.29h5.08v3.22h-3.47a3,3,0,0,0,.48.54l.16-.26h3ZM111,417.9a8.92,8.92,0,0,1-1.35.46c.41,0,.87,0,1.35,0Zm3.73-1v1a5.79,5.79,0,0,0,.61,0A9.43,9.43,0,0,1,114.71,416.86Z"/><path class="cls-8" d="M131.92,420.33H131v-3.79c-.44,2.85-2.05,3.79-4.24,3.79-2.53,0-4.65-1.62-4.65-5.14v-3c0-4.1,2.77-6.06,6-6.06h2.49a5.75,5.75,0,0,1,6.08,6v2.61C136.63,418.31,134.87,420.33,131.92,420.33ZM127.49,411a1.37,1.37,0,0,0-1.23,1.5v2.24c0,.59.27.72.57.72a.64.64,0,0,0,.66-.72Zm4.81,1.54a1.35,1.35,0,0,0-1.18-1.54v4.33h.21c.6,0,1-.24,1-1.05Z"/><path class="cls-8" d="M148,419.55v-1.93c0-.35-.1-.55-.45-.58,0,2.08-.81,3.29-3.3,3.29h-3.76c-2.37,0-3.3-1.45-3.3-3.39s1.37-3.12,3.59-3.12h2.66v-.53h-5.61V410.2h5.61v-.58h-5.61V406.5h5.61V406H148v.53h3.41v3.12H148v.58h3.41v3.09H148v.53h.38c2.47,0,3.76,1.38,3.76,3.61v2.12Zm-4.56-3.26h-2.1a.33.33,0,0,0-.35.35.32.32,0,0,0,.35.32h1.72c.3,0,.38-.1.38-.31Z"/><path class="cls-8" d="M163.33,419.55v-1.93c0-.35-.09-.55-.44-.58,0,2.08-.82,3.29-3.3,3.29h-3.76c-2.38,0-3.3-1.45-3.3-3.39s1.37-3.12,3.58-3.12h2.67v-.53h-5.61V410.2h5.61v-.58h-5.61V406.5h5.61V406h4.47v.53h3.41v3.12h-3.41v.58h3.41v3.09h-3.41v.53h.39c2.47,0,3.76,1.38,3.76,3.61v2.12Zm-4.55-3.26h-2.11a.33.33,0,0,0-.35.35.32.32,0,0,0,.35.32h1.72c.31,0,.39-.1.39-.31Z"/><path class="cls-8" d="M168,420.29V406.05H182.6v14.24Zm10.84-10.71h-7.11v7.36h7.11Zm-6.59,6.83v-6.29h6v6.29Zm3.51-3.79h-1v1.32h1Z"/><path class="cls-8" d="M193.57,420.19h-10v-4.25H193c.32,0,.43-.15.43-.53s-.1-.48-.43-.48h-9.09v-4.24h4.79v.74h4.16v-.72a.48.48,0,0,0-.53-.53h-8.42v-4h8.64c4.27,0,5,2.62,5,4.2v1.06h-3.08c2.27.29,3.64,1.79,3.64,4.39C198,418.69,196.33,420.19,193.57,420.19Z"/><path class="cls-8" d="M212.47,416.64c-.08,2.26-1.42,3.74-4.1,3.74h-.3a3.94,3.94,0,0,1-4.18-4.16v-.41a3.76,3.76,0,0,1,4-3.87v-.4c0-.16,0-.32,0-.48h-4.19l-.3,9.18h-4.27l.3-9.18h-.84V406.8h1v-.7h4.29v.7H208v3.32c.37-2.39,1.76-3.73,4.75-3.73h.56v4.41H213c-.56,0-.75.31-.75.85v.54h1v4.45Zm-4.08-1.34h-.78a.5.5,0,0,0-.53.49V416a.47.47,0,0,0,.53.5h.15c.39,0,.63-.28.63-.74Z"/><path class="cls-8" d="M224,419.81v-8.58c0-.36-.11-.43-.25-.43s-.21.18-.24.32l-1.13,5.21c-.58,2.63-1.55,4-4.16,4s-4.32-1.49-4.32-4.39v-9.16h4.37v8.53c0,.39.07.46.2.46s.29-.07.38-.56l1-4.8c.53-2.51,1.64-4,4.24-4a4.1,4.1,0,0,1,4.35,4.4v9Z"/><path class="cls-8" d="M242,410.23V411h-2.29c-2.62,0-3.63,1.62-3.63,3.16,0,1,.73,1.5,2,1.5h5.69v4.71H238c-4.64,0-6.56-2.28-6.56-5.89a5.64,5.64,0,0,1,1.27-3.48H230v-4.57H240.8v-.28h3.89v1.83H242v.51h2.67v1.79Z"/><path class="cls-8" d="M253.44,420.51v-.27c0-.24-.22-.54-.89-.81l-4.8-1.9c-2.22-.88-3.06-1.83-3.06-3.86v-1c0-1.87.6-2.93,3.06-3.86l4.88-1.83a1.11,1.11,0,0,0,.81-1h5.26c-.18,2.45-1.37,3.86-4,4.88l-4.89,1.91c-.25.1-.35.19-.35.33v.1c0,.16.1.29.35.35l4.89,1.91c3,1.15,4.07,2.49,4.07,4.8v.24Z"/><path class="cls-8" d="M271.59,410.09v.7h-6.67l-.36,9.46h-4.39l.37-9.46h-.86v-4.35h1l0-.48h4.38l0,.48h5.56V406h3.88v1.82h-2.93v.51h2.93v1.8Zm-2.11,10.2c-3,0-4.27-1.68-4.27-4.71,0-2.53,1.5-4.22,4.46-4.22h4.5v3.38h-3.78c-.24,0-.37.18-.37.45s.08.46.37.46h3.78v4.64Z"/><path class="cls-8" d="M287.56,411.12v4.07h-7.42c-.43,0-.66.22-.66.47s.24.5.66.5h8.41v4.17h-9.69c-2.68,0-4-2-4-4.22,0-2.44,1.4-4.33,4.08-4.33h4v-.66H275V407h7.9v-.75h4.62V407h2v4.17Z"/><path class="cls-8" d="M301.55,419.84v-8.61c0-.37-.11-.44-.25-.44s-.21.18-.24.32l-1.14,5.24c-.57,2.64-1.55,4-4.18,4s-4.33-1.49-4.33-4.4v-9.21h4.38v8.57c0,.4.08.46.21.46s.29-.06.39-.56l1-4.82c.53-2.53,1.65-4,4.26-4a4.1,4.1,0,0,1,4.36,4.41v9Z"/></g></g></svg>