<svg xmlns="http://www.w3.org/2000/svg" viewBox="0 0 272.71 839.69"><defs><style>.cls-1,.cls-4{fill:#75b4c6;}.cls-2{fill:#fff;}.cls-3{fill:none;stroke:#fff;stroke-miterlimit:10;stroke-width:30px;}.cls-4{opacity:0.25;}.cls-5{fill:#aec764;opacity:0.5;}.cls-6{fill:#666464;}</style></defs><g id="レイヤー_2" data-name="レイヤー 2"><g id="レイヤー_2-2" data-name="レイヤー 2"><rect class="cls-1" y="340.1" width="272.71" height="152.19" rx="16.95"/><circle class="cls-1" cx="136.4" cy="139.68" r="127.84"/><circle class="cls-2" cx="136.4" cy="127.84" r="127.84"/><rect class="cls-2" y="331.16" width="272.71" height="152.19" rx="16.95"/><line class="cls-3" x1="134.92" y1="202.95" x2="134.92" y2="839.69"/><circle class="cls-4" cx="136.4" cy="127.84" r="112.74"/><rect class="cls-5" x="8.52" y="342.27" width="255.67" height="129.96" rx="12"/><path class="cls-6" d="M36,127.65a14.73,14.73,0,0,1-7.29,1.47v-4.31a12.31,12.31,0,0,0,3.47-.22,12.79,12.79,0,0,1-2.59-5h4.47a7.29,7.29,0,0,0,2,3.13,5.92,5.92,0,0,0,2-3.65H28.72V115h5v-.64h4.37V115h5.19v4.13h-1a10.55,10.55,0,0,1-2.39,5.49,12.89,12.89,0,0,0,3.42.21v4.31A14.49,14.49,0,0,1,36,127.65Z"/><path class="cls-6" d="M48.23,120.19h1v9h-4v-5.33a11,11,0,0,1-1.43,1v-5.72a7.38,7.38,0,0,0,1.71-4.86H49.7A15.24,15.24,0,0,1,48.23,120.19Zm7.2,9H52.92c-1.94,0-2.82-.91-2.82-2.85V114.3h4.24v2.16L58.29,115v4.64l-3.95,1.56v3.2c0,.3.14.53.58.53h.82a3.65,3.65,0,0,0,2.57-.79v4.61C57.74,129.05,57.24,129.23,55.43,129.23Z"/><path class="cls-6" d="M62.51,129H58.59a8.78,8.78,0,0,0,.67-3.08H63A13.37,13.37,0,0,1,62.51,129Zm10.36-5.32v2H68.72v1.09c0,1.53-.75,2.43-2.54,2.43h-3v-3.1h1c.14,0,.28-.07.28-.24v-.18H59.15v-1.73l-.4.08v-4.27a6,6,0,0,0,.64-.13l-.28-.53a2.15,2.15,0,0,1-.36.11v-3.41a3.36,3.36,0,0,0,2-1.48h4.14a.59.59,0,0,1-.07.2h3.53a4.94,4.94,0,0,0,.4,1.7v-1.7H73.2v3.09l-.78,1.51q.42.16.84.3v4.37C73.14,123.76,73,123.71,72.87,123.69ZM61,118.12a2.17,2.17,0,0,1-.42.27l.36.6a3.29,3.29,0,0,0,.44-.28Zm7.89,3.19v.46H63v-.43a10.27,10.27,0,0,1-1,.69h8.17A10,10,0,0,1,68.9,121.31Zm-6.62-4.37.39.6a5.58,5.58,0,0,0,.39-.6Zm3.65,1.1a5.53,5.53,0,0,1-.42.69h.85A6.12,6.12,0,0,1,65.93,118Zm3.74,11-.59-3.08h3.73l.58,3.08Zm-.25-11.87a3.91,3.91,0,0,0,.61.61l.33-.61Z"/><path class="cls-6" d="M87.2,117.53H88V129H73.81v-3.81H83.89v-.51H74.22v-2.87h9.67v-.49H73.81v-3.81h.71a16.93,16.93,0,0,0-.77-3h3.94a17,17,0,0,1,.76,3h.33v-3.19h4v3.19h.3l1-3h4.17Z"/><path class="cls-6" d="M89.07,129V114.55H103V129Zm9.45-10.48h-5V120h5Zm0,5.09h-5v1.47h5Z"/><path class="cls-6" d="M116.74,119.55v1.61h1.47v4.56h-1.3c0,2.36-1.18,3.3-3.62,3.3H112a3,3,0,0,1-2.89-1.76v1.68h-1.39c-2.66,0-3.82-1.2-3.82-3.71V114.76h4.29V124c0,.44.09.56.46.58a3.4,3.4,0,0,1,3.61-3.38h0v-1.61h-3.53v-4.2h3.53v-.59h4.39v.59h1.49v4.2Zm-3.48,4.73h-.66a.47.47,0,0,0-.5.48c0,.39.19.58.53.58h.13a.52.52,0,0,0,.5-.56Z"/><path class="cls-6" d="M123.73,128.88h-4V124.3h4.08c4,0,4.8-1.55,4.8-3.41v-1.31h-4.14a6.24,6.24,0,0,1-5.35,3V117.8a2.38,2.38,0,0,0,2.22-2.37v-.35h11.85v5.81C133.14,125,131.53,128.88,123.73,128.88Z"/><path class="cls-6" d="M141.4,128.83H135v-4.39h6.85c1.12,0,1.47-.28,1.47-.84v-.29h-9.53V119.5h14.32v3.33C148.15,126.22,146.7,128.83,141.4,128.83Zm-7.34-9.94v-3.84h13.78v3.84Z"/><path class="cls-6" d="M156.85,127a15.19,15.19,0,0,1-8,2v-4.7c6.17,0,7.91-3.13,7.91-4.44v-.33h-7.41v-4.26h12.22v3.52a9.73,9.73,0,0,1-1.38,4.9,8.17,8.17,0,0,0,3.07.51v4.66C159.75,128.8,158.61,128.24,156.85,127Z"/><path class="cls-6" d="M176.41,119.21V128h-4.76v-8.8h-4V115h12.52v4.26Z"/><path class="cls-6" d="M198.26,121.66c-.5,4.1-2.28,7.14-9.34,7.14h-4.21v-4.32h3.67c3.85,0,5-1.09,5.44-3.91.67-3.89,2.33-5.27,5.11-5.36v5.12C198.48,120.44,198.38,120.68,198.26,121.66ZM184.9,119v-3.81h6.42V119Zm0,4.4v-3.79h6.42v3.79Z"/><path class="cls-6" d="M207.75,127.08h-1.43V123.4h1.43c1.11,0,1.31-.27,1.31-1.13V122h-3.38l.22,6.93h-3.53l-.25-6.93h-1.19v-3.6H202l0-.84h3.55l0,.84h7.11v2.92C212.67,125.52,211.59,127.08,207.75,127.08Z"/><path class="cls-6" d="M217.31,128.94H215v-4.53h2.36c3.46,0,5.85-.57,6.81-2.45h-3.93l-.08-1.68c0-.62-.27-.81-.63-.81h-.06a.44.44,0,0,1,0,.17l.12,2.32h-4v-1.68c0-.59-.24-.81-.63-.81h-.22v-4.6h.57c2.28,0,3.5,1.31,4,3.43v-3.43h.56c2.74,0,3.91,1.94,4.17,4.77l.21,2.21a5.06,5.06,0,0,0,.42-2.19v-5h4.44v5C229.05,125.87,224.73,128.94,217.31,128.94Z"/><path class="cls-6" d="M236.72,119.23V120h6.56v3.31h-2.4v.82h-4.53v-.82h-1.74a.62.62,0,0,0-.58.64c0,.39.15.68.58.68h8.71V129h-8.86c-3.27,0-4.75-1.75-4.75-4.5a4.08,4.08,0,0,1,2.5-4v-1.21h-2.55v-4h2.55v-.54h4.51v.54h7.16v4Z"/><path class="cls-6" d="M81.52,149.61a3.16,3.16,0,0,1-.18.27h7.14V157H75.18v-2.15a8,8,0,0,1-.78.22v-4.69a3.46,3.46,0,0,0,2.09-.78H74.4v-2.34h5.12V147H74.87v-1.67h4.65v-.26H74.4v-2.4h1.94c0-.11-.1-.24-.16-.36h4.27a2,2,0,0,1,.14.36H83l.11-.36h4.26l-.09.36H89v2.4h-5v.26h4.56V147H83.92v.28h5v2.34ZM84,152H79.71v.37H84Zm0,1.36H79.71v.32H84Zm0,1.27H79.71V155H84Z"/><path class="cls-6" d="M101.65,157.18h-2V153.6h.45a.15.15,0,0,0,.14-.16v-.21h-1v4H95.17v-4h-.89c-.53,2.57-2,3.86-4.25,4.05v-5.84c.34-.28.51-.65.51-1.56V142.5h13.75V154C104.29,156.32,103.25,157.18,101.65,157.18ZM95.54,145.8h-1v.75h1Zm0,3.71h-1v.74h1Zm4.75-3.71h-1v.75h1Zm0,3.71h-1v.74h1Z"/><path class="cls-6" d="M114,156.93h-2.22c-3.62,0-5.5-2.37-5.5-5.73v-8.38h4.41V151a1.15,1.15,0,0,0,1,1.27h2.17a1.13,1.13,0,0,0,1-1.22v-1.61h4.58v1.77C119.52,154.62,117.63,156.93,114,156.93Z"/><path class="cls-6" d="M131,147.59c-2.56,0-3.53,1.62-3.53,3.16,0,1,.7,1.5,1.91,1.5h5.54V157h-5.65c-4.52,0-6.39-2.28-6.39-5.89a5.72,5.72,0,0,1,1.22-3.48h-2.63V143h14.17v4.57Z"/><path class="cls-6" d="M145.87,157.18v-.27c0-.24-.22-.55-.88-.82l-4.7-1.9c-2.17-.88-3-1.84-3-3.88v-1c0-1.88.59-2.95,3-3.88l4.78-1.84a1.11,1.11,0,0,0,.8-1H151c-.17,2.46-1.34,3.87-3.9,4.9l-4.8,1.92c-.25.09-.34.19-.34.33v.1c0,.16.09.29.34.35l4.8,1.92c2.89,1.16,4,2.5,4,4.82v.24Z"/><path class="cls-6" d="M164.29,146.71v.71h-6.53l-.36,9.51h-4.3l.36-9.51h-.84v-4.37h1l0-.48h4.29v.48h5.45v-.48h3.8v1.82h-2.88v.51h2.88v1.81ZM162.23,157c-2.94,0-4.19-1.68-4.19-4.72,0-2.55,1.47-4.25,4.38-4.25h4.4v3.4h-3.7c-.23,0-.36.17-.36.45s.08.46.36.46h3.7V157Z"/><path class="cls-6" d="M180.59,147.75v4.09h-7.28c-.42,0-.64.22-.64.48s.23.49.64.49h8.25V157h-9.5c-2.62,0-3.91-2-3.91-4.25,0-2.45,1.38-4.35,4-4.35h3.91v-.66h-7.75v-4.19h7.75v-.75h4.53v.75h2v4.19Z"/><path class="cls-6" d="M193.86,156.48v-8.61c0-.37-.11-.44-.25-.44s-.2.18-.23.32L192.27,153c-.57,2.64-1.52,4-4.08,4s-4.24-1.49-4.24-4.4v-9.21h4.29v8.57c0,.4.07.46.2.46s.28-.06.37-.56l1-4.82c.52-2.53,1.61-4,4.16-4a4.05,4.05,0,0,1,4.26,4.41v9Z"/><path class="cls-6" d="M63.42,362.24v6.64H60.87v-.4a21,21,0,0,1-3.44.17v-3.39h.43V362.7h-.25v.38a4,4,0,0,1-.44.12v3.42A2.22,2.22,0,0,1,55,368.81H53v-4.13h.21c.14,0,.21-.06.21-.24V364c-.21,0-.42.05-.61.06v-4.18l.61-.06v-1.38h-.61v-3.74h.61v-.74h3.74v.74h.44v3.74h-.44v.52l.44-.16v.64H67.82v2.85Zm-5.54-3.13V354h9.73v5.09Zm3,3h-.51v.5h.51Zm0,1.78h-.51v.46h.51Zm0,1.74h-.51v.5l.51,0Zm3-10.12H61.69v.29h2.13Zm0,1.73H61.69v.31h2.13Zm1.87,10.89a3,3,0,0,1-2.08.72v-3.12l.26,0a7.13,7.13,0,0,1-.28-.86h1.57a1.1,1.1,0,0,0,.15-.26h-1.7v-2.11h4.13v1.66a7.14,7.14,0,0,1-.29,1.33l.37,0v3.39A3.51,3.51,0,0,1,65.69,368.16Z"/><path class="cls-6" d="M71.19,368.56H68.76a21.46,21.46,0,0,0,.25-2.92H71.3A29.14,29.14,0,0,1,71.19,368.56Zm-2.29-6.39V359h2.74v-.37H69.09V354h8.44v4.64H75.16V359h2.51v3.17Zm6.23,3.19v3.41H71.48v-3.41H69.09v-2.9h8.44v2.9Zm-1.33-9.91h-1v.37h1Zm0,1.36h-1v.38h1Zm0,6.88h-1v.43h1Zm1.65,4.87-.19-2.92h2.38l.29,2.92ZM78,359.47V355l5.82-1.25v4.45Zm0,4.78v-4.48l5.82-1.26V363Zm0,4.66v-4.32l5.82-1.33v4.4Z"/><path class="cls-6" d="M93.43,368.53H91.16c-3.71,0-5.63-2.37-5.63-5.73v-8.38H90v8.22a1.15,1.15,0,0,0,1.06,1.26h2.22a1.13,1.13,0,0,0,1.07-1.22v-1.61h4.69v1.77C99.08,366.22,97.15,368.53,93.43,368.53Z"/><path class="cls-6" d="M106.23,359l-.37,9.51h-4.4l.37-9.51H101v-4.37h1l0-.48h4.4l0,.48h9.4V359Zm4.58,9.54c-3,0-4.29-1.68-4.29-4.72,0-2.55,1.5-4.25,4.48-4.25h4.51V363h-3.79c-.24,0-.37.17-.37.45s.08.46.37.46h3.79v4.66Z"/><path class="cls-6" d="M131,366v.09a2.36,2.36,0,0,1-2.62,2.66h-7.5V366.3h5.59c.32,0,.45-.13.48-.27h-10V362.8h10v-.28h-9.57l.82-3.26h-1.3V354.1H131.8v5.16h-1.44v.8h-8.19l-.07.25H131v2.49h.83V366Zm-3.23-8.47h-5l-.06.27h5.09Z"/><path class="cls-6" d="M142.68,357.55v.27h4.42v6.8H133.57v-6.8H138v-.27H133v-3.29H138v-.36h4.67v.36h5v3.29Zm4.07,10.64.22.59h-4.45l-.21-.59h-3.7a3.24,3.24,0,0,1-.3.59H133.7a3.8,3.8,0,0,0,.4-.59H133v-3.31h14.77v3.31Zm-4-8.55h-4.95V360h4.95Zm0,1.36h-4.95v.39h4.95Zm0,1.4h-4.95v.35h4.95Z"/><path class="cls-6" d="M158.23,365.84H155v-4.63h3.31c.48,0,.66-.21.66-.61s-.22-.49-.66-.49h-3.95l.37,8.4h-4.39l-.36-8.4h-1v-4.37h.75l-.08-1.49H154l.08,1.49h2.59v-1.52H161v1.87c2.18.65,2.86,2.24,2.86,4.59C163.83,364.2,162,365.84,158.23,365.84Z"/><path class="cls-6" d="M177.16,368.81h-2v-2.27a4.2,4.2,0,0,1-2.53,2.34v-.66c-.69.32-2.53.59-7.72.59v-3.28h2v-.27h-2v-1.71h2v-.27h-1.79v-4h1.79V359h-2v-1.74h2V357h-1.79v-3c5.08,0,6.73,0,7.61-.24v1.32h.52v-1.19h4.45v1.19h2v10.51C179.63,367.79,178.76,368.81,177.16,368.81ZM168,360.46h-.71v.32H168Zm0,1.1h-.71v.35H168Zm2.51-1.1h-.69v.32h.69Zm0,1.1h-.69v.35h.69Zm2.14-4.88a7.85,7.85,0,0,1-1.77.23v.27h1.77Zm0,2.61V359h-1.77v.29h1.81V363c.33-.22.48-1,.48-3.73Zm-.06,4h-1.71v.27h1.71Zm0,1.88h-1.71v.36a5.27,5.27,0,0,0,1.71-.23Zm3.75-5.87h-.28a30.87,30.87,0,0,1-.32,5.12h.36a.22.22,0,0,0,.24-.24Z"/><path class="cls-6" d="M190.36,357.91v.4h1.33v6.47H185v-6.47h1.33v-.4h-5.44v-3.82H195.8v3.82Zm-9.27,10.71V358.31h3.52v6.84h7.45v-6.84h3.52v10.31Zm6.5-8.15h-.54v.61h.54Zm0,1.7h-.54v.59h.54Zm2-1.7h-.56v.61h.56Zm0,1.7h-.56v.59h.56Z"/><path class="cls-6" d="M204.31,358.83v.78H211v3.31h-2.46v.82h-4.64v-.82h-1.78a.62.62,0,0,0-.59.64c0,.39.14.68.59.68h8.92v4.32H202c-3.34,0-4.86-1.75-4.86-4.5a4.09,4.09,0,0,1,2.56-4v-1.21h-2.61v-4h2.61v-.54h4.62v.54h7.33v4Z"/><path class="cls-6" d="M214.39,368.81l-.19-1.12c-.11-.62-.31-.89-.79-.89h-.17v-4.39h.64c2.53,0,4.3,1.73,4.8,4.56l.32,1.84Z"/><path class="cls-6" d="M19.67,395.6H11.25v-4.05h7.44c.24,0,.32-.1.32-.31v0c0-.23-.11-.31-.32-.31H15.5c-3.23,0-4.51-1.33-4.51-3.84v-.46c0-2.92,1.68-4,4.55-4h7.57v4.15H16.37c-.26,0-.37.13-.37.3v.07c0,.19.08.35.37.35h3.55c2.66,0,4,1.44,4,3.36v.83C24,393.74,22.79,395.6,19.67,395.6Z"/><path class="cls-6" d="M33.12,395.76c-2.06,0-3.15-1.41-3.84-3.25l-1.54-4.12c0-.14-.08-.19-.12-.19s-.1.07-.1.21v7.2H23.1v-9.18c0-2.63,1.55-4,3.72-4a3.55,3.55,0,0,1,3.63,2.71l1.6,4.62c0,.18.06.23.16.23s.13,0,.13-.23v-7.22h4.43v9.14C36.77,394.53,35.38,395.76,33.12,395.76Z"/><path class="cls-6" d="M44.56,395.6H36.14v-4.05h7.44c.24,0,.32-.1.32-.31v0c0-.23-.11-.31-.32-.31H40.4c-3.23,0-4.51-1.33-4.51-3.84v-.46c0-2.92,1.68-4,4.54-4H48v4.15H41.26c-.25,0-.36.13-.36.3v.07a.31.31,0,0,0,.36.35h3.56c2.65,0,4,1.44,4,3.36v.83C48.87,393.74,47.68,395.6,44.56,395.6Z"/><path class="cls-6" d="M49.84,396.77a15,15,0,0,1,0-14.79h4.64a13.86,13.86,0,0,0-2.19,7.38,13.71,13.71,0,0,0,2.19,7.41Z"/><path class="cls-6" d="M58.91,395.61c-3.46,0-5.17-1.68-5.17-4.83v-8.23h4.91v7.67a1.06,1.06,0,0,0,1.21,1.1h6.38v4.29Z"/><path class="cls-6" d="M66,395.61V382.55h4.93v13.06Z"/><path class="cls-6" d="M80.8,395.76c-2.06,0-3.15-1.41-3.84-3.25l-1.54-4.12c0-.14-.08-.19-.12-.19s-.1.07-.1.21v7.2H70.78v-9.18c0-2.63,1.55-4,3.71-4a3.56,3.56,0,0,1,3.64,2.71l1.6,4.62c0,.18.06.23.16.23s.13,0,.13-.23v-7.22h4.43v9.14C84.45,394.53,83.06,395.76,80.8,395.76Z"/><path class="cls-6" d="M88.72,395.61c-3.81,0-4.92-2-4.92-5v-2.48c0-3.31.71-5.62,5-5.62h7.52v4.13H89.62a.86.86,0,0,0-1,.88h7.1v3.08H88.59c0,.59.13.88,1,.88h6.67v4.09Z"/><path class="cls-6" d="M100.26,391.8v-4.59h4.8v4.59Z"/><path class="cls-6" d="M117.6,386.81v8.8h-4.88v-8.8h-4.08v-4.26h12.82v4.26Z"/><path class="cls-6" d="M129.87,395.63h-6a3.54,3.54,0,0,1-3.89-3.75V386h4.24v4.82c0,.6.29.76.9.76h.09V386h3.32v5.58h.12c.61,0,.9-.16.9-.76V386h4.24v5.9A3.53,3.53,0,0,1,129.87,395.63Z"/><path class="cls-6" d="M132.83,386.17v-3.62h4.59v3.62Zm0,9.46v-8.72h4.59v8.72Z"/><path class="cls-6" d="M142.83,390.17v.77c0,.43.06.51.58.51h4.4v4.18H141.9c-2.65,0-3.6-1.25-3.6-3.15v-2.31h-2V386h2v-1.82h4.53V386H148v4.21Z"/><path class="cls-6" d="M152.72,390.17v.77c0,.43.06.51.58.51h4.4v4.18h-5.91c-2.66,0-3.6-1.25-3.6-3.15v-2.31h-2V386h2v-1.82h4.53V386h5.2v4.21Z"/><path class="cls-6" d="M165.47,391.84h-4.9c0,.32.18.56.69.56h6.92v3.23H159.9c-2.46,0-3.49-1.1-3.49-3.71v-3.05a2.9,2.9,0,0,1,3.22-3h5.67c2.09,0,3.13,1.12,3.13,2.86v.52C168.43,390.88,167.76,391.84,165.47,391.84Zm-1.34-2.77a.37.37,0,0,0-.42-.36h-2.46a.62.62,0,0,0-.69.63v.14h3.15c.24,0,.42-.09.42-.33Z"/><path class="cls-6" d="M173.17,390.22a1.32,1.32,0,0,0-1.46,1.3v4.11h-4.59v-4.21c0-3.84,2.3-5.46,5-5.46h5.08v4.26Z"/><path class="cls-6" d="M193.92,385.66v.53h.4v2.24h-4.77v.28h5.08v2.37h-1.41v.28h1.23v3.33H193.2c-.13,1.37-.86,2.11-2.48,2.11h-3.46v-2.11h-1.33l.77,2.14H182l-.74-2.14H180v-3.33h8.72v-.28h-8.91v-2.37h5.07v-.28h-4.77v-2.24h3.09v-.76h-.37l-.11.45h-3.09c.24-1.14.54-3.31.61-4h4.58l0,.37H187v2.41c.26-1.12.48-2.38.53-2.78H192l-.06.37h2.72v3.41Zm-7.57-.61v.51h.47l.14-.51Zm4,.26H190l-.11.57h-.32v.31h.8Z"/><path class="cls-6" d="M197.57,397.09h-4.26a15.15,15.15,0,0,0,2.13-7.73,15.4,15.4,0,0,0-2.13-7.72h4.26a16.65,16.65,0,0,1,0,15.45Z"/><path class="cls-6" d="M214.05,386.83v.78h6.72v3.31H218.3v.82h-4.64v-.82h-1.77a.63.63,0,0,0-.6.64c0,.39.15.68.6.68h8.91v4.32h-9.07c-3.35,0-4.87-1.75-4.87-4.5a4.1,4.1,0,0,1,2.56-4v-1.21h-2.61v-4h2.61v-.54h4.63v.54h7.33v4Z"/><path class="cls-6" d="M232,396.78h-2V393.2h.46a.16.16,0,0,0,.15-.16v-.21H229.5v4h-4.17v-4h-.92c-.54,2.58-2,3.86-4.35,4.05V391c.35-.28.53-.64.53-1.56V382.1h14.08v11.51C234.67,395.92,233.6,396.78,232,396.78Zm-6.26-11.38h-1v.75h1Zm0,3.72h-1v.73h1Zm4.87-3.72H229.5v.75h1.08Zm0,3.72H229.5v.73h1.08Z"/><path class="cls-6" d="M243.81,396.08v-8.61c0-.37-.11-.44-.26-.44s-.21.18-.24.32l-1.13,5.24c-.58,2.64-1.56,4-4.18,4s-4.34-1.49-4.34-4.4V383h4.39v8.57c0,.4.08.46.2.46s.29-.06.39-.56l1-4.82c.53-2.53,1.65-4,4.26-4a4.1,4.1,0,0,1,4.37,4.41v9.05Z"/><path class="cls-6" d="M256.86,387.19c-2.62,0-3.61,1.62-3.61,3.16,0,1,.72,1.5,1.95,1.5h5.68v4.71h-5.79c-4.63,0-6.55-2.28-6.55-5.89a5.68,5.68,0,0,1,1.25-3.48H247.1v-4.57h14.52v4.57Z"/><path class="cls-6" d="M20.38,414.36a13.35,13.35,0,0,1-.72,2.1H21v8.34H16.49v-4.1a13.47,13.47,0,0,1-5.16,2.64v-5.17a6.39,6.39,0,0,0,4.39-3.81H11.33v-4.29H26.15v4.29Zm1,6.05v-4.88l4.77,2.66v5Z"/><path class="cls-6" d="M41.16,420.91v1.41c0,1.52-.77,2.49-2.16,2.49H36.36v-3.52h.82c.11,0,.14-.09.14-.21v-.17h-3.9v.38H35.7l.52,3.33H33.56l-.4-2.78-.37.14v2.85H28.93v-2c-.62.08-1.29.13-2,.17v-4.35a18.31,18.31,0,0,0,2.1-.14V416h-.23a5.11,5.11,0,0,1-.22,1.19H26.53a33.64,33.64,0,0,0,.45-7h2.24c0,.48,0,1.1,0,1.78h.32V409.9h3.28V412h.63v1.69h2.19v-.35H33.74V410.2h1.87v-.3h4.08v.3h1.89v3.12H39.69v.35h2.19v3.11h-.72v.38h.72v3.75Zm-3.84-4.13h-4V416h-.56v1.68a4.37,4.37,0,0,0,.56-.25v-.26h4Z"/><path class="cls-6" d="M56.86,415.08v2.58h-4.1V418h3.75v2.47H52.76v.35h4.71v3.83H49.86a7.2,7.2,0,0,1-4.29-1.16,5.74,5.74,0,0,1-2.91,1.32v-4.61c.82-.18,1.17-1,1.17-2.21h4a8.88,8.88,0,0,1-.31,2.37,1.5,1.5,0,0,0,.72.33v-3.07H43.33v-2.58h-.64v-4.67h5.14v-.5h4.61v.5H57.5v4.67ZM53.43,414H46.77v.38h6.66Z"/><path class="cls-6" d="M58.37,424.81v-4.09a39,39,0,0,0,5-.26l-.32-.42a16.51,16.51,0,0,1-3.54.37v-2.78a8.73,8.73,0,0,0,3.55-.71c-1.36.21-2.93.39-4.74.53v-3.28c.69,0,1.33,0,1.91,0l-.51-.51c-.35,0-.74,0-1.14,0v-3.09c.85,0,2.61-.25,2.82-.59H71.91v3.38a7.73,7.73,0,0,1-1.77,1.39h3.1v6C70.17,423.57,67,424.81,58.37,424.81Zm5.19-11.89a7.26,7.26,0,0,1-1.09.31h1.66l.5.51a5.79,5.79,0,0,0,2.27-.82Zm3.17,5.52a4,4,0,0,1-.58.4h.72l.53.71a9.65,9.65,0,0,0,2.13-1.11Z"/><path class="cls-6" d="M85.45,423.37A7.05,7.05,0,0,1,82,424.88v-4.31h-.53l-.14.48.38.08v3.72L79,424a10.78,10.78,0,0,1-5,.93v-3.51c.35,0,.67,0,1,0l-.51-.31a3,3,0,0,0,.32-.51H74v-3h0v-2.93a2.56,2.56,0,0,0,1.33-.43H74v-3.38h.35c0-.28-.07-.59-.13-.92h2c0,.32.08.62.11.92h.35v-.92h2.88v.92h.31l.11-.92H82l-.13.92h.29v2.61a11.25,11.25,0,0,0,.4-3.53h4v.59h2.39v4.45H88.7a16.82,16.82,0,0,1-.82,4.7,4.61,4.61,0,0,0,1.06.18v5.06A7.22,7.22,0,0,1,85.45,423.37Zm-3.76-6-1.79-.93V417H76.21v-.64a5,5,0,0,1-1.69,1.2h1.55a2.17,2.17,0,0,0,.08-.3H80l-.13.3h1.86Zm-3.62,2.57a1.69,1.69,0,0,1-.13.31l.59.17a1.66,1.66,0,0,0,.29-.48Zm3.62-5.73H80.23l1.46.59Zm.62,4.55a1.36,1.36,0,0,1-.24.13v1.32a3.59,3.59,0,0,0,.75-.2C82.62,419.58,82.46,419.16,82.31,418.75Zm2.84-3.81a8,8,0,0,1-.84,1.82H85a3.32,3.32,0,0,0,.12.9,9.77,9.77,0,0,0,.35-2.72Z"/><path class="cls-6" d="M99.69,424.61h-.93V420.8c-.45,2.86-2.06,3.81-4.26,3.81-2.54,0-4.67-1.64-4.67-5.17v-3.05a5.65,5.65,0,0,1,6-6.08h2.49a5.78,5.78,0,0,1,6.12,6V419C104.43,422.57,102.65,424.61,99.69,424.61Zm-4.45-9.4a1.36,1.36,0,0,0-1.23,1.5V419c0,.59.27.72.57.72a.64.64,0,0,0,.66-.72Zm4.83,1.55a1.35,1.35,0,0,0-1.18-1.55v4.35h.21c.6,0,1-.24,1-1.05Z"/><path class="cls-6" d="M113,420.48a12.86,12.86,0,0,1-7.62,4.33v-5.34c3-.45,5-2.29,5-5.36v-4.17h4.84v3.81a5.44,5.44,0,0,0,5.09,5.72v5.34A10.58,10.58,0,0,1,113,420.48Z"/><path class="cls-6" d="M132.52,421.2v-3.92c0-.39-.18-.6-.64-.61V421c0,2.13-.75,3.54-3.23,3.54h-2V420h.58c.35,0,.54-.13.54-.57v-2.16a.41.41,0,0,0-.46-.47h-.92l-.49,7.7h-4.23l.51-7.7h-1.08v-4.69h1.39l.11-1.78h4.21l-.11,1.78h.51c3.2,0,4.31,1.14,4.59,3.39v-3H136v1.82h-.64a6,6,0,0,1,.81,3.55v3.29Zm-.74-9.18V410.2H136V412Z"/><path class="cls-6" d="M140.74,417.45v7.35l-3.76,0V410.1H144v7.35Zm.37-4.95h-.64v.71h.64Zm0,2.39h-.64v.7h.64Zm5.65,9.92h-1.25A1.51,1.51,0,0,1,144,423.2v-.9h-.11c-.17,1.49-.91,2.47-2.88,2.58v-2.27c.32,0,.51-.07.62-.31H141v-3.9h.39a2.48,2.48,0,0,0-.31-.66h2.76a6.47,6.47,0,0,1,.21.66h.32l.12-.66h2.76l-.15.66h.27v3.9h-1v.15a.18.18,0,0,0,.18.2h.35a.86.86,0,0,0,.55-.17v2.13A1.17,1.17,0,0,1,146.76,424.81Zm-2.22-4.73h-.68v.52h.68Zm3.15,4.72v-7.35h-3.3V410.1h7.06v14.68Zm.27-12.3h-.64v.71H148Zm0,2.39h-.64v.7H148Z"/><path class="cls-6" d="M165.55,424.8h-3.73a1.89,1.89,0,0,1-1.94-2.16v-.95h-.16c-.61,2.05-1.78,3.11-7.32,3.11v-2.72c1.62,0,2.68-.05,3.09-.39h-2.73v-5.58H167v5.58h-3.13v.05c0,.14.06.22.24.22h1.53a4,4,0,0,0,1.75-.27v2.79A4.1,4.1,0,0,1,165.55,424.8Zm-4.89-9v-2.34h-.25v.43h-1.07v.29h1.07v1.62h-7.92V409.9h7.92v1.55h-1.07v.29h1.07v.57a7.14,7.14,0,0,0,.43-2.41h4.07a3.17,3.17,0,0,1,0,.43h2.45v2.72h-3a1.68,1.68,0,0,1-.14.3h3.17v2.47Zm-3.84-4.53h-.64v.45h.64Zm.51,1.42h-1.15v.37h1.15Zm-.51,1.2h-.64v.45h.64Zm5.57,3.54h-5v.42h5Zm0,1.19h-5v.4h5Zm0,1.21h-5v.42h5Z"/><path class="cls-6" d="M180.3,414.47v.72H178c-2.63,0-3.63,1.62-3.63,3.16,0,1,.73,1.5,2,1.5H182v4.71h-5.81c-4.64,0-6.56-2.28-6.56-5.89a5.69,5.69,0,0,1,1.26-3.48h-2.69v-4.57h10.84v-.28H183v1.83H180.3v.51H183v1.79Z"/><path class="cls-6" d="M196.19,418.41l0,1.12h-6.66c-.34,0-.48.16-.48.37s.18.37.48.37H198v4.26h-9.27c-2.71,0-4.27-1.53-4.27-3.83a4.24,4.24,0,0,1,.51-2.1h-1.17v-3.42h7.63v-.58h-7.62v-3.68h7.52l0-.62H196l0,.62h2.7v3.68h-2.61l0,.58h2.59v3.23Z"/><path class="cls-6" d="M207.46,424.56h-3.39c-2.77,0-4.42-1.56-4.42-4V420a3.61,3.61,0,0,1,3.83-3.6h.3v-1.46h-3.87v-4.53h8.74v2.77c4.06.14,5.6,2.16,5.6,5.36v.61C214.25,422.06,212.59,424.56,207.46,424.56Zm-3-4.53a.58.58,0,0,0-.51-.64h-.14a.58.58,0,0,0-.63.59c0,.35.24.62.71.62h.57Zm3.38-2.82h-1a4.15,4.15,0,0,1,1.18,2.71h0c.8,0,1.11-.53,1.11-1.4A1.16,1.16,0,0,0,207.83,417.21Z"/><path class="cls-6" d="M216.36,424.78V423a8.77,8.77,0,0,1-1.25.69V419a3.9,3.9,0,0,0,1.25-.68v-2.27l-1.25-.4v-4.21l1.25.4v-1.94h4v14.84Zm9-3.87a7.51,7.51,0,0,1-4.72,3.94v-5.06a3.87,3.87,0,0,0,2-2.79h-2v-4.4h2.4v-2.69h4.26v2.69h2.77V417h-2.37a3.82,3.82,0,0,0,2.37,2.69v5.16A7.67,7.67,0,0,1,225.38,420.91Zm2.52-8.58-.37-2.42h2.08l.43,2.42Z"/><path class="cls-6" d="M243.88,424.77h-1.37c-1.14,0-2-.82-2-2.47v-3h-.3c-.35,3.05-1.79,5.1-5.17,5.6v-3.72a19.64,19.64,0,0,1-.43,3.56h-4.08a41.52,41.52,0,0,0,.64-6.16h4c0,.2,0,1-.08,1.87.7-.19,1.13-.21,1.34-1.15h-.83V410h9.78v9.29H244.3v.89a.35.35,0,0,0,.3.37h.27a1.1,1.1,0,0,0,.87-.35v4.11A3,3,0,0,1,243.88,424.77Zm-13.08-11v-3.84l4.36.52v3.82Zm0,4.07V414l4.36.5v3.84Zm10.3-3.71h-1.24v1.1h1.24Z"/><path class="cls-6" d="M246.77,424.51V410.42h4.15v14.09Zm11.35-5.71-2.08.78c-.18.06-.29.16-.29.3s.11.23.37.23h5.24v4.27h-5.94c-2.66,0-4.07-1.41-4.07-4.32,0-1.73.67-3,3.68-4.07l1.67-.57c.2-.11.27-.18.27-.35s-.07-.24-.3-.24h-5.06v-4.21h5.84c2.64,0,4.16,1.14,4.16,4.08C261.61,417.1,260.46,417.91,258.12,418.8Z"/><path class="cls-6" d="M53.72,442.73v10H49.06V452H45.83a4.05,4.05,0,0,1-4.37-4.38c0-2.31,1.28-4.2,4.37-4.2h3.23v-.67h-8v-4.07h8v-.4h4.66v.4h2.07v4.07Zm-4.66,4.07H46.21c-.44,0-.62.17-.62.48s.22.49.62.49h2.85Z"/><path class="cls-6" d="M64.9,452.56H61.51c-2.77,0-4.42-1.56-4.42-4V448a3.61,3.61,0,0,1,3.83-3.6h.3v-1.46H57.35v-4.53h8.74v2.77c4.06.14,5.6,2.16,5.6,5.36v.61C71.69,450.06,70,452.56,64.9,452.56Zm-3-4.53a.58.58,0,0,0-.51-.64h-.14a.58.58,0,0,0-.63.59c0,.35.24.62.71.62h.57Zm3.38-2.82h-1a4.15,4.15,0,0,1,1.18,2.71h0c.8,0,1.11-.53,1.11-1.4A1.16,1.16,0,0,0,65.27,445.21Z"/><path class="cls-6" d="M77.53,452.56c-3.27,0-4.44-1.59-4.44-4.79,0-2.7,2-4.13,4.66-4.13h4.56c.31,0,.48-.11.48-.46a.44.44,0,0,0-.48-.39h-8.5v-4.4h8.65c3.37,0,4.91,1.62,4.91,4.92,0,2.67-1.73,4-5,4H78.21c-.43,0-.6.24-.6.46s.17.47.6.47h9.24v4.32Z"/><path class="cls-6" d="M99.37,445.32H95.61c-.92,0-1.59.43-1.59,1.33s.64,1.36,1.59,1.36h8v4.53H94.94c-3.94,0-5.88-2.24-5.88-5.89a5.65,5.65,0,0,1,2.43-4.83v-3.3h4.63v2.34h2.51a.53.53,0,0,0,.56-.58v-.7h4.66v1.23C103.85,444.22,102.2,445.32,99.37,445.32Z"/><path class="cls-6" d="M118.2,443.15v1.61h1.51v4.56h-1.33c0,2.36-1.22,3.3-3.72,3.3h-1.28a3.11,3.11,0,0,1-3-1.76v1.68H109c-2.72,0-3.91-1.2-3.91-3.71V438.36h4.39v9.2c0,.44.09.56.48.58a3.45,3.45,0,0,1,3.7-3.38h0v-1.61h-3.61V439h3.61v-.59h4.5V439h1.52v4.2Zm-3.57,4.73H114a.48.48,0,0,0-.51.48c0,.39.19.58.54.58h.13a.52.52,0,0,0,.51-.56Z"/><path class="cls-6" d="M120.88,447.68v-5.4H135.8v5.4Z"/><path class="cls-6" d="M148.7,452.8h-2.58V450a6.05,6.05,0,0,1-3.38,2.82V447.1c.63-.3,1-1.07,1.06-4.74H143v2.92l-1.51.16v2.11a.11.11,0,0,0,.1.11h.08a1.3,1.3,0,0,0,.78-.19v4.59a4,4,0,0,1-1.6.29h-1.55a1.81,1.81,0,0,1-1.92-2v-4.5l-.5.05v-4.59l.5,0V437.9h4.11v3l1.47-.13V438h8.63V449.9C151.61,452.25,150.38,452.8,148.7,452.8Zm-1-10.44h-.31a23.52,23.52,0,0,1-.7,6.12h.72c.16,0,.29-.12.29-.36Z"/><path class="cls-6" d="M162.58,449.92v2.88h-4.41v-2.88h-5.24v-3.14h14.81v3.14Zm4.85-5.67v2.26H153.24v-2.26a1.63,1.63,0,0,1-.29.1v-3.16a1.93,1.93,0,0,0,1.06-.45H153v-2.59h1.44v-.27h4.18v.27h1.58v2.59h-1l1,.5v3h.35V441.1a2.87,2.87,0,0,0,1.08-.36H160.5v-2.59h1.56v-.27h4.17v.27h1.49v2.59h-1.17a2.45,2.45,0,0,0,1.17.45v3.16Zm-10.27,8.47H153a4.27,4.27,0,0,0,.77-2.53h3.93A6.62,6.62,0,0,1,157.16,452.72Zm1-9.38V444h-3.44v-.53a5,5,0,0,1-1.44.8H160Zm7.67.08V444h-3.45v-.56a6,6,0,0,1-1.55.83h6.5A6.74,6.74,0,0,1,165.87,443.42Zm-2.28,9.3-.64-2.53h4.1l.74,2.53Z"/><path class="cls-6" d="M168.87,452.61v-4.37h.83v-8.62h4.43v8.62h1v-10.3h4.45v3.35h4v4.4h-4v2.55h4.27v4.37Z"/><path class="cls-6" d="M193.43,452.53h-2.27c-3.71,0-5.63-2.37-5.63-5.73v-8.38H190v8.22a1.15,1.15,0,0,0,1.06,1.26h2.22a1.13,1.13,0,0,0,1.07-1.22v-1.61h4.69v1.77C199.08,450.22,197.15,452.53,193.43,452.53Z"/><path class="cls-6" d="M211.72,451.82v-1.94c0-.35-.09-.56-.45-.59,0,2.1-.81,3.32-3.31,3.32h-3.78c-2.38,0-3.31-1.46-3.31-3.41s1.38-3.14,3.6-3.14h2.67v-.53h-5.63v-3.1h5.63v-.58h-5.63v-3.14h5.63v-.53h4.5v.53h3.43v3.14h-3.43v.58h3.43v3.1h-3.43v.53H212c2.48,0,3.77,1.39,3.77,3.63v2.13Zm-4.58-3.28H205a.33.33,0,0,0-.35.35.32.32,0,0,0,.35.32h1.73c.3,0,.38-.09.38-.3Z"/><path class="cls-6" d="M229.72,442.73v10h-4.66V452h-3.23a4.05,4.05,0,0,1-4.37-4.38c0-2.31,1.28-4.2,4.37-4.2h3.23v-.67h-8v-4.07h8v-.4h4.66v.4h2.07v4.07Zm-4.66,4.07h-2.85c-.44,0-.62.17-.62.48s.22.49.62.49h2.85Z"/></g></g></svg>