<?xml version="1.0" encoding="UTF-8"?><svg id="_レイヤー_2" xmlns="http://www.w3.org/2000/svg" viewBox="0 0 628.1 1683.78"><defs><style>.cls-1{fill:#fff;}.cls-2{fill:#ebe669;}.cls-2,.cls-3,.cls-4,.cls-5,.cls-6,.cls-7{opacity:.5;}.cls-8{fill:#666464;}.cls-9,.cls-10,.cls-11,.cls-12,.cls-4,.cls-6,.cls-13,.cls-7{fill:none;stroke-miterlimit:10;}.cls-9,.cls-11{stroke-width:30.33px;}.cls-9,.cls-11,.cls-12{stroke:#edbdd4;}.cls-3{fill:#aec764;}.cls-10{stroke-width:30px;}.cls-10,.cls-4,.cls-6{stroke:#fff;}.cls-11,.cls-14,.cls-12,.cls-15{opacity:.25;}.cls-14,.cls-5,.cls-16{fill:#75b4c6;}.cls-12{stroke-width:30.67px;}.cls-4{stroke-width:39.6px;}.cls-6,.cls-7{stroke-width:35px;}.cls-13{stroke:#75b4c6;stroke-width:25px;}.cls-7{stroke:#e9d057;}</style></defs><g id="_レイヤー_2-2"><g><g><line class="cls-7" x1="311.97" x2="311.97" y2="410.31"/><line class="cls-7" x1="311.97" y1="686.12" x2="311.97" y2="841.89"/><line class="cls-6" x1="61.24" x2="61.24" y2="841.89"/><line class="cls-6" x1="558.05" x2="558.05" y2="841.89"/><line class="cls-4" x1="199.37" y1="434.91" x2="199.37" y2="661.94"/><line class="cls-4" x1="272.24" y1="434.91" x2="272.24" y2="661.94"/><line class="cls-4" x1="126.5" y1="434.91" x2="126.5" y2="661.94"/><line class="cls-4" x1="417.99" y1="434.91" x2="417.99" y2="661.94"/><line class="cls-4" x1="490.86" y1="434.91" x2="490.86" y2="661.94"/><line class="cls-4" x1="345.11" y1="434.91" x2="345.11" y2="661.94"/><line class="cls-6" x1="525.8" y1="392.45" x2="344.23" y2="392.45"/><line class="cls-6" x1="277.39" y1="704.3" x2="95.82" y2="704.3"/></g><line class="cls-7" x1="312.01" y1="841.89" x2="312.01" y2="1252.2"/><line class="cls-6" x1="61.27" y1="841.89" x2="61.27" y2="1683.78"/><line class="cls-6" x1="558.09" y1="841.89" x2="558.09" y2="1683.78"/><line class="cls-4" x1="199.41" y1="1276.8" x2="199.41" y2="1503.83"/><line class="cls-4" x1="272.28" y1="1276.8" x2="272.28" y2="1503.83"/><line class="cls-4" x1="126.53" y1="1276.8" x2="126.53" y2="1503.83"/><line class="cls-4" x1="418.02" y1="1276.8" x2="418.02" y2="1503.83"/><line class="cls-4" x1="490.9" y1="1276.8" x2="490.9" y2="1503.83"/><line class="cls-4" x1="345.15" y1="1276.8" x2="345.15" y2="1503.83"/><line class="cls-6" x1="525.84" y1="1234.34" x2="344.26" y2="1234.34"/><g><rect class="cls-16" x="31.44" y="456.52" width="288.79" height="78.85" rx="17.27" ry="17.27"/><circle class="cls-16" cx="174.35" cy="216.08" r="127.84"/><path class="cls-13" d="M174.2,276.77v40.66c0,29.3,0,58.61,0,87.91v84.05c0,23.93,1.18,48.1-3.12,71.76-4.02,22.14-12.21,43.73-25.52,61.99-1.86,2.55-3.81,5.03-5.86,7.43-30.75,36.08-78.45,51.08-124.19,55.55-4.73,.46-10.8,1.09-15.52,1.09"/><rect class="cls-1" x="32.24" y="448.13" width="287.21" height="78.42" rx="17.18" ry="17.18"/><circle class="cls-1" cx="174.35" cy="203.49" r="127.84"/><path class="cls-10" d="M174.2,263.1v40.66c0,29.3,0,58.61,0,87.91,0,28.02,0,56.03,0,84.05,0,23.93,1.18,48.1-3.12,71.76-4.02,22.14-12.21,43.73-25.52,61.99-1.86,2.55-3.81,5.03-5.86,7.43-30.75,36.08-78.45,51.08-124.19,55.55-4.73,.46-11.3,1.09-15.52,1.09"/><g class="cls-15"><circle class="cls-9" cx="174.35" cy="203.49" r="112.64"/><line class="cls-9" x1="99.49" y1="119.33" x2="246.83" y2="289.7"/></g><rect class="cls-2" x="40.32" y="456.42" width="271.05" height="61.85" rx="12" ry="12"/><g><path class="cls-8" d="M129.13,186.59c.27,.05,.54,.08,.8,.11v4.13c-.21-.02-.43-.06-.66-.11v3.73h-1.46l-.06,.27h2.18v3.41h-14.92v-3.41h2.06c-.02-.08-.05-.18-.06-.27h-1.28v-3.78c-.22,.03-.46,.06-.72,.1v-3.95c.18,0,.34-.02,.5-.02l-.32-.67h3.09l.13,.27c.42-.14,.74-.34,.98-.58h-3.94v-2.51h8.66c.06,.29,.21,.58,.43,.85l.59-.94h3.63l-1.07,1.68h2.35l-.91,1.7Zm-3.04,3.07v.27h-6.75v-.34c-.46,.22-.99,.43-1.55,.59h9.56c-.43-.14-.85-.34-1.25-.53Zm-1.23,2.4h-4.69v.45h4.69v-.45Zm-3.62,2.39c.03,.13,.06,.26,.08,.38h2.38l.08-.38h-2.54Zm1.34-7.57c-.16,.24-.34,.5-.54,.72h1.2c-.24-.22-.46-.46-.66-.72Z"/><path class="cls-8" d="M140.01,187.79v.78l5.86,1.55v4.77l-5.86-1.68v4.91h-4.48v-10.34h-4.5v-4.37h14.92v4.37h-5.94Z"/><path class="cls-8" d="M157.18,196.8c-1.26,.77-2.77,1.3-4.51,1.41v-4.11l-.75-.88v4.91h-3.84v-3.28c-.32,.34-.67,.66-1.06,.94v-5.52c.67-.59,.91-1.23,.99-2.31h-.98v-4.11h1.04v-.64h3.84v.64h.64v4.11h-.64v.45l.83,.82c.34-.1,.58-.42,.66-.99h7.79c.08,.5,.37,.85,.74,.91v4.4c-.43-.11-.83-.27-1.22-.46-.1,.19-.21,.38-.32,.59,.46,.1,.99,.18,1.55,.19v4.34c-1.9-.1-3.47-.61-4.77-1.41Zm-4.35-8.84v-4.11h2.05v-.66h4.55v.66h2.53v4.11h-9.12Zm1.01,5.15c-.27,.13-.58,.26-.9,.34v.38c.42-.06,.8-.14,1.15-.24-.08-.16-.18-.32-.26-.48Zm3.47-4.85c-.13,.72-.45,1.62-.96,2.45h.48c.11,.3,.24,.59,.4,.86,.19-.27,.34-.56,.43-.86h.61c-.53-.83-.83-1.73-.96-2.45Z"/><path class="cls-8" d="M172.92,195.98v2.18h-4.71v-2.18h-5.11v-11.54h5.11v-1.25h4.71v1.25h5.01v11.54h-5.01Zm-4.53-7.17h-.99v2.87h.99v-2.87Zm5.27,0h-.91v2.87h.91v-2.87Z"/><path class="cls-8" d="M192.33,188.46v1.62h1.5v4.56h-1.33c-.05,2.35-1.22,3.3-3.71,3.3h-1.28c-1.39,0-2.4-.64-2.96-1.76v1.68h-1.42c-2.72,0-3.91-1.2-3.91-3.71v-10.47h4.39v9.2c0,.43,.1,.56,.48,.58,.13-2.21,1.73-3.38,3.7-3.38h.05v-1.62h-3.62v-4.19h3.62v-.59h4.5v.59h1.52v4.19h-1.52Zm-3.57,4.74h-.67c-.27,0-.51,.18-.51,.48,0,.38,.19,.58,.54,.58h.13c.29,0,.51-.24,.51-.56v-.5Z"/><path class="cls-8" d="M207.68,198.13h-4.03v-3.43h-.26v1.15c0,1.42-.64,1.98-1.86,1.98h-.16v.29h-3.47v-4.23h-.35v3.94h-2.32v-7.6h2.66v-.26h-2.75v-2.21h-.4c.26-.7,.34-2.66,.3-4.55h2.58v.58h.27v-.58h3.39v.58h1.36v3.12h-1.36v.29h1.38v2.77h-1.38v.26h1.65v-6.82h2.98v10.34h.13c.08,0,.14-.06,.14-.14v-10.39h3.76v12.48c0,1.44-.85,2.42-2.26,2.42Zm-9.8-11.2h-.59c-.02,.18-.03,.32-.05,.46h.64v-.46Zm3.22,6.98h-.46v.64h.3c.13,0,.16-.06,.16-.11v-.53Z"/><path class="cls-8" d="M215.34,198.1h-1.89v-2.85c-.46,1.17-1.26,2.19-2.55,2.85v-5.11c.19-.16,.38-.53,.38-1.18v-8.5h6.16v12.45c0,1.58-.54,2.34-2.11,2.34Zm-.69-4.59h-.7c-.05,.29-.11,.56-.18,.82h.64c.14,0,.24-.13,.24-.3v-.51Zm0-6.69h-.58v.86h.58v-.86Zm0,3.36h-.58v.9h.58v-.9Zm8.8,6.91c-.62,.5-1.39,.9-2.35,1.12v-3.78c.14-.05,.27-.1,.38-.14-.27-.72-.45-1.46-.48-2.19h2.05c.02-.08,.03-.18,.05-.29h-2.27v6.31h-3.09v-14.81h8.2v3.59c0,.9-.29,1.5-.99,1.82h.99v4.47c-.06,.3-.21,.7-.4,1.17,.13,.03,.27,.06,.4,.08v3.76c-.93-.1-1.76-.51-2.48-1.1Zm-.88-10.74h-1.18v2.37h.37v-2h.66c.11,0,.16-.08,.16-.18v-.19Z"/><path class="cls-8" d="M234.44,188.14v.78h6.72v3.31h-2.46v.82h-4.64v-.82h-1.78c-.37,0-.59,.34-.59,.64,0,.38,.14,.67,.59,.67h8.92v4.32h-9.08c-3.35,0-4.87-1.74-4.87-4.5,0-1.9,.93-3.35,2.56-4.02v-1.22h-2.61v-4h2.61v-.54h4.63v.54h7.33v4h-7.33Z"/><path class="cls-8" d="M122.31,218.52c-.06,.1-.13,.19-.19,.27h7.31v7.12h-13.62v-2.15c-.26,.08-.51,.16-.8,.22v-4.69c.98-.13,1.66-.32,2.14-.78h-2.14v-2.34h5.25v-.29h-4.77v-1.66h4.77v-.26h-5.25v-2.4h1.98c-.05-.11-.1-.24-.16-.37h4.37c.06,.13,.11,.26,.14,.37h2.42l.11-.37h4.37l-.1,.37h1.78v2.4h-5.17v.26h4.67v1.66h-4.67v.29h5.17v2.34h-7.62Zm2.58,2.35h-4.43v.37h4.43v-.37Zm0,1.36h-4.43v.32h4.43v-.32Zm0,1.26h-4.43v.37h4.43v-.37Z"/><path class="cls-8" d="M142.92,226.1h-2v-3.59h.46c.08,0,.14-.06,.14-.16v-.21h-1.07v3.97h-4.18v-3.97h-.91c-.54,2.58-2.05,3.86-4.35,4.05v-5.84c.35-.27,.53-.64,.53-1.55v-7.38h14.09v11.51c0,2.3-1.07,3.17-2.71,3.17Zm-6.26-11.38h-1.04v.75h1.04v-.75Zm0,3.71h-1.04v.74h1.04v-.74Zm4.87-3.71h-1.07v.75h1.07v-.75Zm0,3.71h-1.07v.74h1.07v-.74Z"/><path class="cls-8" d="M155.56,225.84h-2.27c-3.71,0-5.63-2.37-5.63-5.73v-8.37h4.51v8.21c0,.7,.45,1.26,1.06,1.26h2.23c.61,0,1.07-.53,1.07-1.22v-1.62h4.69v1.78c0,3.38-1.94,5.68-5.65,5.68Z"/><path class="cls-8" d="M172.94,216.51c-2.62,0-3.62,1.62-3.62,3.15,0,1.02,.72,1.5,1.95,1.5h5.68v4.71h-5.79c-4.63,0-6.55-2.27-6.55-5.89,0-1.33,.5-2.5,1.25-3.47h-2.69v-4.58h14.52v4.58h-4.75Z"/><path class="cls-8" d="M188.19,226.1v-.27c0-.24-.22-.54-.9-.82l-4.82-1.9c-2.23-.88-3.07-1.84-3.07-3.87v-1.01c0-1.87,.61-2.94,3.07-3.87l4.9-1.84c.61-.22,.82-.67,.82-.99h5.28c-.18,2.46-1.38,3.87-4,4.9l-4.91,1.92c-.26,.1-.35,.19-.35,.34v.1c0,.16,.1,.29,.35,.35l4.91,1.92c2.96,1.15,4.08,2.5,4.08,4.82v.24h-5.36Z"/><path class="cls-8" d="M207.05,215.63v.7h-6.69l-.37,9.51h-4.4l.37-9.51h-.86v-4.37h1.02l.02-.48h4.4l-.02,.48h5.59v-.48h3.89v1.82h-2.95v.51h2.95v1.81h-2.95Zm-2.11,10.24c-3.01,0-4.29-1.68-4.29-4.72,0-2.54,1.5-4.24,4.48-4.24h4.51v3.39h-3.79c-.24,0-.37,.18-.37,.45,0,.29,.08,.46,.37,.46h3.79v4.66h-4.71Z"/><path class="cls-8" d="M223.74,216.67v4.08h-7.46c-.43,0-.66,.22-.66,.48,0,.34,.24,.5,.66,.5h8.45v4.19h-9.73c-2.69,0-4-2.02-4-4.24,0-2.45,1.41-4.35,4.1-4.35h4v-.66h-7.94v-4.19h7.94v-.75h4.64v.75h2.05v4.19h-2.05Z"/><path class="cls-8" d="M237.32,225.39v-8.61c0-.37-.11-.43-.26-.43-.13,0-.21,.18-.24,.32l-1.14,5.23c-.58,2.64-1.55,3.97-4.18,3.97s-4.34-1.49-4.34-4.4v-9.2h4.39v8.56c0,.4,.08,.46,.21,.46,.14,0,.29-.06,.38-.56l.99-4.82c.53-2.53,1.65-3.99,4.26-3.99,2.82,0,4.37,1.89,4.37,4.42v9.04h-4.45Z"/></g><g><path class="cls-8" d="M55.28,494.67c-1.22,.74-2.67,1.25-4.35,1.36v-3.96l-.73-.85v4.74h-3.7v-3.16c-.31,.32-.65,.63-1.02,.91v-5.32c.65-.57,.88-1.19,.96-2.22h-.94v-3.96h1v-.62h3.7v.62h.62v3.96h-.62v.43l.8,.79c.32-.09,.56-.4,.63-.96h7.51c.08,.48,.35,.82,.71,.88v4.24c-.42-.11-.8-.26-1.17-.45-.09,.18-.2,.37-.31,.57,.45,.09,.96,.17,1.5,.18v4.18c-1.84-.09-3.35-.59-4.6-1.36Zm-4.2-8.51v-3.96h1.97v-.63h4.38v.63h2.44v3.96h-8.79Zm.97,4.97c-.26,.12-.56,.25-.86,.32v.37c.4-.06,.77-.14,1.11-.23-.08-.15-.17-.31-.25-.46Zm3.35-4.67c-.12,.69-.43,1.56-.93,2.36h.46c.11,.29,.23,.57,.39,.83,.19-.26,.32-.54,.42-.83h.59c-.51-.8-.8-1.67-.93-2.36Z"/><path class="cls-8" d="M73.03,496.21h-3.49v-4h.7c-.75-.45-1.41-1.04-1.94-1.76-.72,1.01-1.66,1.74-2.75,2.18v-4.87c.45-.27,.69-.61,.83-1.39h-1.22v9.84h-4.13v-13.86h5.09v-1.01h4.34v1.01h5.12v11.22c0,1.58-.77,2.64-2.56,2.64Zm-1.66-9.84h-1.39c.21,.74,.54,1.01,1.02,1.36v4.48h.05c.3,0,.32-.13,.32-.32v-5.52Z"/><path class="cls-8" d="M83.47,486.25v.78h6.69v3.3h-2.45v.81h-4.62v-.81h-1.77c-.37,0-.59,.33-.59,.64,0,.38,.14,.67,.59,.67h8.88v4.3h-9.04c-3.33,0-4.85-1.74-4.85-4.48,0-1.9,.92-3.33,2.55-4v-1.21h-2.6v-3.98h2.6v-.54h4.61v.54h7.3v3.98h-7.3Z"/><path class="cls-8" d="M104.88,490.94c.5,.27,1.04,.48,1.63,.64v4.82c-1.74-.53-3.22-1.34-4.42-2.34v1.14c-2.8,.77-6.59,1.1-10.23,1.1v-3.95c.7,0,1.39,0,2.1-.03v-1.23c-.83,.56-1.65,1.02-2.42,1.38v-4.87c.83-.37,1.54-.82,2.08-1.44h-2.08v-4.11h5.31v-.7h4.31v.7h5.35v4.11h-8.21c-.38,.78-.83,1.49-1.31,2.11h1.07v3.73c.64-.08,1.26-.19,1.9-.32-1.01-1.52-1.58-3.27-1.71-5.11h3.99c.03,.45,.1,.85,.19,1.23l.54-1.22h3.75l-1.84,4.35Z"/><path class="cls-8" d="M121.13,492.76h.4v3.47c-2.14-.03-3.76-.62-4.97-1.53v1.23c-1.99,.35-7.89,.32-8.49,.32v-1.39c-.43,.06-.89,.11-1.4,.16v-3.24c1.07,.05,1.98-.05,2.66-.26h-2.66v-3.22h5.07v-.29h-2.69v-.46c-.69,.21-1.48,.32-2.37,.35v-3.2c.8,0,1.56-.02,2.36-.27l-2.36-.3v-2.71l2.37,.32v-.41h4.05v6.36h.3v-2.68h1.82v-.27h-1.82v-3.09h1.82v-.32h4.24v.32h2.09v3.09h-2.09v.27h1.75v3.01h-4.75v.29h5.08v3.22h-3.47c.13,.19,.29,.37,.48,.54l.16-.26h3.01l-.57,.94Zm-10.15,.78c-.41,.19-.88,.33-1.35,.46,.41,0,.88,0,1.35-.02v-.45Zm3.73-1.04v.97c.22,0,.41-.02,.61-.03-.22-.3-.41-.62-.61-.94Z"/><path class="cls-8" d="M131.92,495.98h-.92v-3.79c-.45,2.85-2.06,3.79-4.24,3.79-2.53,0-4.65-1.63-4.65-5.15v-3.03c0-4.1,2.77-6.06,5.96-6.06h2.49c3.71,0,6.09,2.53,6.09,6.01v2.61c0,3.59-1.77,5.61-4.72,5.61Zm-4.43-9.36c-.78,.14-1.23,.62-1.23,1.5v2.25c0,.59,.27,.72,.57,.72,.38,0,.65-.25,.65-.72v-3.75Zm4.81,1.55c0-.8-.26-1.35-1.18-1.55v4.34h.21c.61,0,.97-.24,.97-1.05v-1.74Z"/><path class="cls-8" d="M148.04,495.2v-1.93c0-.35-.1-.56-.45-.59,0,2.09-.81,3.3-3.3,3.3h-3.76c-2.37,0-3.3-1.45-3.3-3.39,0-2.09,1.37-3.12,3.59-3.12h2.66v-.53h-5.61v-3.09h5.61v-.57h-5.61v-3.12h5.61v-.53h4.48v.53h3.41v3.12h-3.41v.57h3.41v3.09h-3.41v.53h.38c2.47,0,3.76,1.39,3.76,3.62v2.12h-4.06Zm-4.56-3.27h-2.1c-.25,0-.35,.19-.35,.35,0,.18,.13,.32,.35,.32h1.72c.3,0,.38-.1,.38-.3v-.37Z"/><path class="cls-8" d="M163.33,495.2v-1.93c0-.35-.1-.56-.45-.59,0,2.09-.81,3.3-3.3,3.3h-3.76c-2.37,0-3.3-1.45-3.3-3.39,0-2.09,1.37-3.12,3.59-3.12h2.66v-.53h-5.61v-3.09h5.61v-.57h-5.61v-3.12h5.61v-.53h4.48v.53h3.41v3.12h-3.41v.57h3.41v3.09h-3.41v.53h.38c2.47,0,3.76,1.39,3.76,3.62v2.12h-4.06Zm-4.56-3.27h-2.1c-.25,0-.35,.19-.35,.35,0,.18,.13,.32,.35,.32h1.72c.3,0,.38-.1,.38-.3v-.37Z"/><path class="cls-8" d="M168.03,495.94v-14.23h14.57v14.23h-14.57Zm10.84-10.71h-7.11v7.36h7.11v-7.36Zm-6.58,6.84v-6.3h6.04v6.3h-6.04Zm3.51-3.79h-.96v1.32h.96v-1.32Z"/><path class="cls-8" d="M193.57,495.84h-10.02v-4.26h9.4c.32,0,.43-.14,.43-.53,0-.29-.1-.48-.43-.48h-9.08v-4.24h4.78v.73h4.16v-.72c0-.32-.18-.53-.53-.53h-8.41v-3.97h8.64c4.27,0,4.96,2.61,4.96,4.19v1.07h-3.08c2.26,.29,3.63,1.78,3.63,4.38,0,2.84-1.69,4.34-4.45,4.34Z"/><path class="cls-8" d="M212.47,492.29c-.08,2.26-1.42,3.75-4.1,3.75h-.3c-2.33,0-4.18-1.5-4.18-4.16v-.41c0-2.41,1.72-3.84,4.02-3.87v-.4c0-.16,.02-.32,.02-.48h-4.19l-.3,9.18h-4.27l.3-9.18h-.84v-4.26h.97l.02-.7h4.29l-.02,.7h4.13v3.31c.37-2.39,1.75-3.73,4.75-3.73h.56v4.41h-.27c-.56,0-.75,.3-.75,.84v.54h1.02v4.45h-.84Zm-4.08-1.34h-.78c-.33,0-.53,.26-.53,.49v.16c0,.33,.22,.49,.53,.49h.16c.38,0,.62-.27,.62-.73v-.41Z"/><path class="cls-8" d="M223.98,495.46v-8.57c0-.37-.11-.43-.26-.43-.13,0-.21,.18-.24,.32l-1.13,5.21c-.57,2.63-1.55,3.95-4.16,3.95s-4.32-1.48-4.32-4.38v-9.16h4.37v8.53c0,.4,.08,.46,.21,.46,.14,0,.29-.06,.38-.56l.99-4.8c.53-2.52,1.64-3.97,4.24-3.97,2.8,0,4.35,1.88,4.35,4.4v9h-4.43Z"/><path class="cls-8" d="M242.02,485.88v.72h-2.29c-2.62,0-3.63,1.62-3.63,3.15,0,1.02,.74,1.5,1.97,1.5h5.7v4.71h-5.81c-4.64,0-6.56-2.27-6.56-5.89,0-1.33,.51-2.5,1.26-3.47h-2.69v-4.58h10.84v-.27h3.89v1.82h-2.67v.51h2.67v1.79h-2.67Z"/><path class="cls-8" d="M253.44,496.16v-.27c0-.24-.22-.54-.89-.81l-4.8-1.9c-2.22-.88-3.06-1.83-3.06-3.86v-1c0-1.86,.61-2.93,3.06-3.86l4.88-1.83c.61-.22,.81-.67,.81-.99h5.26c-.18,2.45-1.37,3.86-3.98,4.88l-4.89,1.91c-.25,.1-.35,.19-.35,.33v.1c0,.16,.1,.29,.35,.35l4.89,1.91c2.95,1.15,4.06,2.49,4.06,4.8v.24h-5.34Z"/><path class="cls-8" d="M271.59,485.74v.7h-6.66l-.37,9.47h-4.38l.37-9.47h-.86v-4.35h1.02l.02-.48h4.38l-.02,.48h5.56v-.48h3.87v1.82h-2.93v.51h2.93v1.8h-2.93Zm-2.1,10.2c-3,0-4.27-1.67-4.27-4.7,0-2.53,1.5-4.22,4.46-4.22h4.49v3.38h-3.78c-.24,0-.37,.18-.37,.45,0,.29,.08,.46,.37,.46h3.78v4.64h-4.69Z"/><path class="cls-8" d="M287.56,486.77v4.06h-7.43c-.43,0-.65,.22-.65,.48,0,.33,.24,.49,.65,.49h8.41v4.18h-9.69c-2.68,0-3.98-2.01-3.98-4.22,0-2.44,1.4-4.34,4.08-4.34h3.98v-.65h-7.9v-4.18h7.9v-.75h4.62v.75h2.04v4.18h-2.04Z"/><path class="cls-8" d="M301.55,495.49v-8.61c0-.37-.11-.43-.26-.43-.13,0-.21,.18-.24,.32l-1.14,5.23c-.58,2.64-1.55,3.97-4.18,3.97s-4.34-1.49-4.34-4.4v-9.2h4.39v8.56c0,.4,.08,.46,.21,.46,.14,0,.29-.06,.38-.56l.99-4.82c.53-2.53,1.65-3.99,4.26-3.99,2.82,0,4.37,1.89,4.37,4.42v9.04h-4.45Z"/></g></g><g><rect class="cls-16" x="293.66" y="606.22" width="321.65" height="111.73" rx="15.77" ry="15.77"/><path class="cls-16" d="M467.46,567.05l117.14-202.89c5.77-9.99-1.44-22.47-12.98-22.47h-234.27c-11.53,0-18.74,12.49-12.98,22.47l117.14,202.89c5.77,9.99,20.18,9.99,25.95,0Z"/><path class="cls-13" d="M452.01,528.2c0,13.55,0,27.11,0,40.66,0,29.3,0,58.61,0,87.91,0,28.02,0,56.03,0,84.05,0,23.93-1.18,48.1,3.12,71.76,4.02,22.14,12.21,43.73,25.52,61.99,1.86,2.55,3.81,5.03,5.86,7.43,30.75,36.08,78.45,51.08,124.19,55.55,4.73,.46,10.84,.73,15.48,.73"/><rect class="cls-1" x="293.66" y="596.68" width="321.65" height="111.73" rx="15.77" ry="15.77"/><path class="cls-10" d="M454.27,456.82c0,13.55,.15,83.98,.15,97.53,0,29.3,0,58.61,0,87.91,0,28.02,0,56.03,0,84.05,0,23.93-1.18,48.1,3.12,71.76,4.02,22.14,12.21,43.73,25.52,61.99,1.86,2.55,3.81,5.03,5.86,7.43,30.75,36.08,78.45,51.08,124.19,55.55,4.73,.46,8.27,.35,13.07,.35"/><path class="cls-1" d="M467.46,548.94l117.14-202.89c5.77-9.99-1.44-22.47-12.98-22.47h-234.27c-11.53,0-18.74,12.49-12.98,22.47l117.14,202.89c5.77,9.99,20.18,9.99,25.95,0Z"/><path class="cls-12" d="M455.54,539.93l115.29-199.7c.47-.81-.12-1.82-1.05-1.82h-230.59c-.93,0-1.52,1.01-1.05,1.82l115.29,199.7c.47,.81,1.64,.81,2.1,0Z"/><rect class="cls-5" x="303.3" y="606.87" width="302.37" height="91.35" rx="12" ry="12"/><g><path class="cls-8" d="M373.44,378.97c.05,.35,.08,.74,.08,1.14,0,2.69-1.73,3.81-5.04,3.81h-4.13c-.43,0-.61,.24-.61,.46,0,.24,.18,.46,.61,.46h9.25v4.32h-9.96c-3.25,0-4.43-1.58-4.43-4.79,0-2.71,1.97-3.95,4.67-3.95h4.58c.3,0,.48-.11,.48-.45,0-.24-.24-.4-.48-.4h-8.53v-4.39h8.66c.43,0,.82,.02,1.17,.06v-.45h4.26v1.84h-3.2v.5h3.2v1.82h-.58Z"/><path class="cls-8" d="M389.28,383.87v.9c0,2.32-1.31,4.4-4.43,4.4h-1.55v-4.23h.83c.69,0,.93-.34,.94-1.07h-2.02v1.18c0,2.71-1.26,4.08-3.91,4.08s-4.16-1.36-4.16-4.07v-1.28c0-2.59,1.3-3.91,3.73-4.03v-.67h-2.72v-4.13h7.06v4.79h2.02v-3.91h4.21v3.91h.66v4.13h-.66Zm-10-.16c-.66,.02-1.04,.16-1.04,.62v.32c0,.24,.08,.48,.46,.48,.45,0,.58-.26,.58-.48v-.94Z"/><path class="cls-8" d="M404.33,379.76v1.62h1.5v4.56h-1.33c-.05,2.35-1.22,3.3-3.71,3.3h-1.28c-1.39,0-2.4-.64-2.96-1.76v1.68h-1.42c-2.72,0-3.91-1.2-3.91-3.71v-10.47h4.39v9.2c0,.43,.1,.56,.48,.58,.13-2.21,1.73-3.38,3.7-3.38h.05v-1.62h-3.62v-4.19h3.62v-.59h4.5v.59h1.52v4.19h-1.52Zm-3.57,4.74h-.67c-.27,0-.51,.18-.51,.48,0,.38,.19,.58,.54,.58h.13c.29,0,.51-.24,.51-.56v-.5Z"/><path class="cls-8" d="M420.3,388.95h-.53v.48h-3.25v-.03h-2.13l-.06-.43c-1.02,.29-2.32,.43-4.34,.43v-2.47c-.66,1.2-1.63,2.13-2.96,2.62v-6.1c.19-.06,.34-.29,.34-.69v-7.81h5.36v-.43h4.19v.43h4.93v3.41h-10.85v.54h1.04v-.29h3.07v.29h1.14v6.55h-2.61v.8c.1-.03,.18-.05,.26-.08l-.08-.42h2.27l.43,2.39v-9.49h5.28v2.91c0,.43-.1,1.07-.24,1.6,.26,.59,.42,1.58,.42,2.5,0,2.38-.48,3.28-1.68,3.28Zm-9.59-3.92c-.1,.42-.22,.82-.37,1.18h.37v-1.18Zm3.22-3.84h-.75v.4h.75v-.4Zm0,1.58h-.75v.42h.75v-.42Zm5.39,1.04c.18-.93,.22-1.89,.22-2.06h-.37v3.84h.21c.13,0,.18-.1,.18-.22,0-.85-.1-1.09-.24-1.55Z"/><path class="cls-8" d="M432.01,379.09v.78l5.86,1.55v4.77l-5.86-1.68v4.91h-4.48v-10.34h-4.5v-4.37h14.92v4.37h-5.94Z"/><path class="cls-8" d="M453.12,385.51c-.08,2.27-1.42,3.76-4.11,3.76h-.3c-2.34,0-4.19-1.5-4.19-4.18v-.42c0-2.42,1.73-3.86,4.03-3.89v-.4c0-.16,.02-.32,.02-.48h-4.21l-.3,9.22h-4.29l.3-9.22h-.85v-4.27h.98l.02-.7h4.31l-.02,.7h4.15v3.33c.37-2.4,1.76-3.75,4.77-3.75h.56v4.43h-.27c-.56,0-.75,.3-.75,.85v.54h1.02v4.47h-.85Zm-4.1-1.34h-.78c-.34,0-.53,.26-.53,.5v.16c0,.34,.22,.5,.53,.5h.16c.38,0,.62-.27,.62-.74v-.42Z"/><path class="cls-8" d="M469.33,379.09v.64c0,1.63-.82,2.83-3.92,2.83h-3.67c-.91,0-1.58,.18-1.58,1.07s.64,.99,1.58,.99h8v4.53h-8.67c-3.94,0-5.88-1.86-5.88-5.52,0-2.13,.91-3.76,2.43-4.67v-3.83h4.62v2.98h3.6v-.85h4.24v1.83h-.77Zm-3.47-2.35v-1.82h4.24v1.82h-4.24Z"/><path class="cls-8" d="M471.31,389.12v-14.09h4.15v14.09h-4.15Zm11.35-5.71l-2.08,.78c-.18,.06-.29,.16-.29,.3,0,.18,.11,.22,.37,.22h5.23v4.27h-5.94c-2.66,0-4.07-1.41-4.07-4.32,0-1.73,.67-3.03,3.68-4.07l1.67-.58c.21-.11,.27-.18,.27-.35,0-.11-.06-.24-.3-.24l-5.06,.02v-4.21h5.84c2.64,0,4.16,1.14,4.16,4.08,0,2.39-1.15,3.2-3.49,4.08Z"/><path class="cls-8" d="M501.12,380.1v.93h-2.02v.24h2.83v3.15h-9.68v-.42c-.19,.06-.42,.11-.64,.16v3.09c0,1.23-1.02,2.18-2.03,2.18h-2.45v-4.15h.42c.19,0,.32-.13,.32-.3v-.3c-.32,.02-.64,.03-.93,.03v-4.32c.3-.02,.61-.02,.93-.03v-1.14h-.93v-4.02h.93v-.67h3.75v.67h.74v.74c.96-.08,1.95-.74,2.26-1.38h4.85c.54,.66,1.75,1.36,2.51,1.39v4.31c-.27-.02-.56-.08-.85-.16Zm-8.88-.88h-.62v.67c.24-.06,.45-.13,.62-.21v-.46Zm2.82,1.81h-2.03v-.91c-.22,.06-.45,.1-.67,.13v1.02h2.71v-.24Zm-2.54,8.4v-4.72h9.16v4.72h-9.16Zm3.5-10.93c-.19,.14-.42,.27-.62,.38h.62v-.38Zm1.71,8.4h-1.3v.4h1.3v-.4Zm-.66-9.25c-.19,.18-.38,.35-.58,.5h1.18c-.21-.14-.42-.32-.61-.5Zm1.07,.85v.38h.66c-.21-.11-.43-.24-.66-.38Z"/><path class="cls-8" d="M512.94,379.81c-2.62,0-3.62,1.62-3.62,3.15,0,1.02,.72,1.5,1.95,1.5h5.68v4.71h-5.79c-4.63,0-6.55-2.27-6.55-5.89,0-1.33,.5-2.5,1.25-3.47h-2.69v-4.58h14.52v4.58h-4.75Z"/><path class="cls-8" d="M531.85,379.44v9.89h-4.66v-.74h-3.23c-3.09,0-4.37-2.08-4.37-4.39s1.28-4.19,4.37-4.19h3.23v-.67h-7.99v-4.07h7.99v-.4h4.66v.4h2.15v1.84h-2.15v.5h2.15v1.82h-2.15Zm-4.66,3.97h-2.85c-.45,0-.62,.18-.62,.48,0,.34,.22,.5,.62,.5h2.85v-.98Z"/><path class="cls-8" d="M535.31,389.12v-14.09h4.15v14.09h-4.15Zm11.35-5.71l-2.08,.78c-.18,.06-.29,.16-.29,.3,0,.18,.11,.22,.37,.22h5.23v4.27h-5.94c-2.66,0-4.07-1.41-4.07-4.32,0-1.73,.67-3.03,3.68-4.07l1.67-.58c.21-.11,.27-.18,.27-.35,0-.11-.06-.24-.3-.24l-5.06,.02v-4.21h5.84c2.64,0,4.16,1.14,4.16,4.08,0,2.39-1.15,3.2-3.49,4.08Z"/><path class="cls-8" d="M410.3,412.34h-3.52c.24-2.06,.43-4.48,.43-8.02h3.44c0,3.25-.13,6-.35,8.02Zm9.35,3.07v1.5c-.91,.43-1.79,.48-2.61,.48h-2.67c-1.1,0-2.16-.29-2.83-1.18-1.38,.61-2.8,1.01-4.19,1.18v-4.13c1.14-.13,2.32-.45,3.46-.96v-9.3h3.59l-.05-.38h3.51l.19,1.66c.13-.43,.22-.88,.3-1.33h3.63c-.29,1.82-.86,3.52-1.65,5.06h1.06l.59,7.4h-2.32Zm-4.47-6.83l-.45-5.01-.05-.02v6.18c.38-.37,.74-.75,1.07-1.15h-.58Zm2.58,3.17c-.53,.58-1.09,1.12-1.67,1.62h.85c.35,0,.64-.02,.93-.06l-.11-1.55Z"/><path class="cls-8" d="M435.85,407.44v9.89h-4.66v-.74h-3.23c-3.09,0-4.37-2.08-4.37-4.39s1.28-4.19,4.37-4.19h3.23v-.67h-7.99v-4.07h7.99v-.4h4.66v.4h2.15v1.84h-2.15v.5h2.15v1.82h-2.15Zm-4.66,3.97h-2.85c-.45,0-.62,.18-.62,.48,0,.34,.22,.5,.62,.5h2.85v-.98Z"/><path class="cls-8" d="M453.44,406.97c.05,.35,.08,.74,.08,1.14,0,2.69-1.73,3.81-5.04,3.81h-4.13c-.43,0-.61,.24-.61,.46,0,.24,.18,.46,.61,.46h9.25v4.32h-9.96c-3.25,0-4.43-1.58-4.43-4.79,0-2.71,1.97-3.95,4.67-3.95h4.58c.3,0,.48-.11,.48-.45,0-.24-.24-.4-.48-.4h-8.53v-4.39h8.66c.43,0,.82,.02,1.17,.06v-.45h4.26v1.84h-3.2v.5h3.2v1.82h-.58Z"/><path class="cls-8" d="M469.28,411.87v.9c0,2.32-1.31,4.4-4.43,4.4h-1.55v-4.23h.83c.69,0,.93-.34,.94-1.07h-2.02v1.18c0,2.71-1.26,4.08-3.91,4.08s-4.16-1.36-4.16-4.07v-1.28c0-2.59,1.3-3.91,3.73-4.03v-.67h-2.72v-4.13h7.06v4.79h2.02v-3.91h4.21v3.91h.66v4.13h-.66Zm-10-.16c-.66,.02-1.04,.16-1.04,.62v.32c0,.24,.08,.48,.46,.48,.45,0,.58-.26,.58-.48v-.94Z"/><path class="cls-8" d="M485.2,406.05v.78h-3.55v-.85h-.35l-.13,.82h-3.15c.08-.22,.16-.53,.24-.88h-.61v.91h-1.06v.72h.91v3.91h-.91v.11l.91,.7v4.58l-.91-.86v1.46h-4.42v-.96c-.37,.29-.75,.56-1.15,.78v-5.03c.54-.13,.85-.43,1.01-.78h-1.01v-3.91h1.15v-.8h2.27v-.83h-.37l-.11,.59h-3.09c.27-1.28,.53-3.35,.59-4.02h4.59l-.05,.38h2.35v2.56c.22-1.15,.43-2.54,.5-2.95h4.43l-.08,.4h2.74v3.15h-.75Zm-7.39,11.4v-10.34h7.92v10.34h-7.92Zm4.37-7.86h-.82v.62h.82v-.62Zm0,2.4h-.82v.64h.82v-.64Zm0,2.35h-.82v.7h.82v-.7Z"/><path class="cls-8" d="M487.31,417.12v-14.09h4.15v14.09h-4.15Zm11.35-5.71l-2.08,.78c-.18,.06-.29,.16-.29,.3,0,.18,.11,.22,.37,.22h5.23v4.27h-5.94c-2.66,0-4.07-1.41-4.07-4.32,0-1.73,.67-3.03,3.68-4.07l1.67-.58c.21-.11,.27-.18,.27-.35,0-.11-.06-.24-.3-.24l-5.06,.02v-4.21h5.84c2.64,0,4.16,1.14,4.16,4.08,0,2.39-1.15,3.2-3.49,4.08Z"/><path class="cls-8" d="M415.78,436.1v.93h-2.02v.24h2.83v3.15h-9.68v-.42c-.19,.06-.42,.11-.64,.16v3.09c0,1.23-1.02,2.18-2.03,2.18h-2.45v-4.15h.42c.19,0,.32-.13,.32-.3v-.3c-.32,.02-.64,.03-.93,.03v-4.32c.3-.02,.61-.02,.93-.03v-1.14h-.93v-4.02h.93v-.67h3.75v.67h.74v.74c.96-.08,1.95-.74,2.26-1.38h4.85c.54,.66,1.75,1.36,2.51,1.39v4.31c-.27-.02-.56-.08-.85-.16Zm-8.88-.88h-.62v.67c.24-.06,.45-.13,.62-.21v-.46Zm2.82,1.81h-2.03v-.91c-.22,.06-.45,.1-.67,.13v1.02h2.71v-.24Zm-2.54,8.4v-4.72h9.16v4.72h-9.16Zm3.5-10.93c-.19,.14-.42,.27-.62,.38h.62v-.38Zm1.71,8.4h-1.3v.4h1.3v-.4Zm-.66-9.25c-.19,.18-.38,.35-.58,.5h1.18c-.21-.14-.42-.32-.61-.5Zm1.07,.85v.38h.66c-.21-.11-.43-.24-.66-.38Z"/><path class="cls-8" d="M427.6,435.81c-2.62,0-3.62,1.62-3.62,3.15,0,1.02,.72,1.5,1.95,1.5h5.68v4.71h-5.79c-4.63,0-6.55-2.27-6.55-5.89,0-1.33,.5-2.5,1.25-3.47h-2.69v-4.58h14.52v4.58h-4.75Z"/><path class="cls-8" d="M443.6,435.81c-2.62,0-3.62,1.62-3.62,3.15,0,1.02,.72,1.5,1.95,1.5h5.68v4.71h-5.79c-4.63,0-6.55-2.27-6.55-5.89,0-1.33,.5-2.5,1.25-3.47h-2.69v-4.58h14.52v4.58h-4.75Z"/><path class="cls-8" d="M458.85,445.39v-.27c0-.24-.22-.54-.9-.82l-4.82-1.9c-2.22-.88-3.07-1.84-3.07-3.87v-1.01c0-1.87,.61-2.95,3.07-3.87l4.9-1.84c.61-.22,.82-.67,.82-.99h5.28c-.18,2.46-1.38,3.87-4,4.9l-4.91,1.92c-.26,.1-.35,.19-.35,.34v.1c0,.16,.1,.29,.35,.35l4.91,1.92c2.96,1.15,4.08,2.5,4.08,4.82v.24h-5.36Z"/><path class="cls-8" d="M477.72,434.93v.7h-6.69l-.37,9.51h-4.4l.37-9.51h-.86v-4.37h1.02l.02-.48h4.4l-.02,.48h5.59v-.48h3.89v1.82h-2.95v.51h2.95v1.81h-2.95Zm-2.11,10.24c-3.01,0-4.29-1.68-4.29-4.72,0-2.54,1.5-4.24,4.48-4.24h4.51v3.39h-3.79c-.24,0-.37,.18-.37,.45,0,.29,.08,.46,.37,.46h3.79v4.66h-4.71Z"/><path class="cls-8" d="M494.41,435.97v4.08h-7.46c-.43,0-.66,.22-.66,.48,0,.34,.24,.5,.66,.5h8.45v4.19h-9.73c-2.69,0-4-2.02-4-4.24,0-2.45,1.41-4.35,4.1-4.35h4v-.66h-7.94v-4.19h7.94v-.75h4.64v.75h2.05v4.19h-2.05Z"/><path class="cls-8" d="M507.99,444.69v-8.61c0-.37-.11-.43-.26-.43-.13,0-.21,.18-.24,.32l-1.14,5.23c-.58,2.64-1.55,3.97-4.18,3.97s-4.34-1.49-4.34-4.4v-9.2h4.39v8.56c0,.4,.08,.46,.21,.46,.14,0,.29-.06,.38-.56l.99-4.82c.53-2.53,1.65-3.99,4.26-3.99,2.82,0,4.37,1.89,4.37,4.42v9.04h-4.45Z"/></g><g><path class="cls-8" d="M444.6,612.23h.9v7.9h-3.76v-4.66c-.39,.31-.84,.6-1.32,.87v-5c1.12-1.02,1.53-2.8,1.59-4.26h3.96c-.16,1.99-.57,3.68-1.37,5.15Zm6.71,7.91h-2.34c-1.81,0-2.62-.8-2.62-2.49v-10.58h3.94v1.89l3.68-1.32v4.06l-3.68,1.36v2.8c0,.27,.13,.46,.54,.46h.77c.98,0,1.73-.15,2.39-.69v4.03c-.52,.31-.99,.46-2.68,.46Z"/><path class="cls-8" d="M461.11,610.98h-1.15v.24h1.27v3.4h-1.21l.74,.76v4.3l-.8-.99v1.42h-3.41v-1.04c-.5,.43-1.02,.74-1.54,.88v-4.47c.52-.08,1.05-.41,1.35-.85h-1.35v-3.4h1.54v-.24h-1.33c0-.88-.25-2.93-.42-3.49h1.67c.12,.46,.22,1.39,.31,2.19v-2.59h2.94v3.29s.26-2.89,.26-2.89h1.43l-.31,3.49Zm2.36,9.06v-1.82c-.68,1.12-1.6,1.72-2.46,2v-5.42c.39-.13,.47-.64,.47-1.3v-6.01h1.92s0-.42,0-.42h4v.43h1.14v3.49h-4.03v1.06h.26v-.83h3.12v.83h.5v3.47h-.5v1.05h.66v3.46h-5.07Zm1.3-4.51h-.39c-.04,.38-.12,.73-.2,1.05h.6v-1.05Z"/><path class="cls-8" d="M304.81,644.59c-1.21-2-1.78-4.3-1.78-6.49s.55-4.45,1.76-6.46h4.22c-1.38,2.13-1.99,4.36-1.99,6.46,0,1.79,.41,4.06,1.99,6.49h-4.21Z"/><path class="cls-8" d="M311.99,644.43v-3.95c.47,0,.64-.24,.64-.78v-1.88h3.6v1.77c0,3.42-.99,4.75-4.24,4.85Zm12.84-8.64v1.18h-4.12v7.41h-4.09v-7.41h-4.48v-3.81h4.48v-1.26h4.09v1.26h1.28v-1.08h3.54v1.6h-3.1v.55h3.1v1.57h-.7Zm-3.7,3.8v-1.77h3.61v1.88c0,.55,.16,.78,.64,.78v3.95c-3.25-.1-4.25-1.43-4.25-4.85Z"/><path class="cls-8" d="M335.42,640.05c-.23,2.44-1.47,4.29-5.72,4.29h-4.69v-3.88h4.09c1.32,0,1.7-.27,1.79-.88h-6.42v-3.01h13.65v3.49h-2.71Zm-.42-4.3v.17h-10.23v-3.52h9.75v-.36h3.55v1.61h-3.07v.52h3.07v1.58h-3.07Z"/><path class="cls-8" d="M348.3,637.81c-1.06,0-1.6,.17-2.05,.36v6.33h-3.49v-4.51l-.42,.22c-.63,.34-1.69,.66-3.49,.66h-.71v-3.31h.87c.97,0,1.27-.15,1.98-.5l3.97-1.98c.83-.41,1.49-.57,2.65-.57h1.73v3.29h-1.03Z"/><path class="cls-8" d="M361.22,635.2c-.48,0-.87-.07-1.19-.22,.01,.04,.04,.08,.04,.13l1.53,4.86c.06,.2,.22,.35,.58,.35h.77v4.08h-1.76c-2.12,0-2.98-1.36-3.43-2.87l-1.3-4.3c-.19-.63-.57-.95-1.14-.95h-.47c-.47,0-.8,.39-.84,1.13l-.28,4.27h-4.19l.39-5.59c.16-2.21,1.66-3.95,4.06-3.95h1.5c1.8,0,2.94,.56,3.67,1.34,0-.06-.01-.11-.01-.18,0-1.3,.68-1.91,2.07-1.91s2.05,.6,2.05,1.91-.7,1.9-2.05,1.9Zm0-2.41c-.35,0-.51,.13-.51,.46,0,.39,.16,.5,.51,.5s.48-.11,.48-.5c0-.34-.16-.46-.48-.46Z"/><path class="cls-8" d="M374.34,636.13c-1.31,0-1.98,.21-2.52,.46v7.91h-4.25v-5.65l-.52,.28c-.76,.41-2.07,.81-4.25,.81h-.79v-4.1h.96c1.19,0,1.54-.2,2.43-.64l4.86-2.47c1.02-.52,1.8-.71,3.23-.71h2.12v4.1h-1.28Z"/><path class="cls-8" d="M387.35,637.67c-.65,4.64-3.39,6.6-8.66,6.6h-4.02v-3.95h3.51c3.81,0,4.54-1.09,4.92-2.94,.7-3.35,1.54-4.64,4.89-5.01v4.5c-.44,.11-.58,.41-.64,.81Zm-12.63-1.23v-3.91h6.03v3.91h-6.03Z"/><path class="cls-8" d="M397.98,640.79c-2.27,0-4.15-.24-5.62-.73v4.23h-4.47v-12.33h4.47v2.91c0,1.33,2.27,1.79,5.62,1.79h1.82v4.12h-1.82Z"/><path class="cls-8" d="M408.07,642.03h-2.98v-4.05h3.01c.44,0,.6-.18,.6-.53,0-.25-.2-.43-.6-.43h-3.6l.33,7.35h-3.99l-.33-7.35h-.86v-3.82h.68l-.07-1.3h3.99l.07,1.3h2.36v-1.33h3.87v1.64c1.98,.57,2.61,1.96,2.61,4.02,0,3.08-1.64,4.51-5.09,4.51Z"/><path class="cls-8" d="M415.24,644.42h-2.37v-4.06h2.5c4.08,0,5.58-.88,5.58-3.35v-.7h-8.62v-3.87h12.93v4.43c0,5.27-3.9,7.55-10.01,7.55Z"/><path class="cls-8" d="M426.06,644.21v-3.14h3.62v-1.61c0-1.13-.06-1.43-.54-1.55h-2.98v-3.11h10.29v3.11h-3.57c.26,.36,.29,.8,.29,1.32v1.85h3.35v3.14h-10.47Z"/><path class="cls-8" d="M449.48,636.13c-1.31,0-1.98,.21-2.52,.46v7.91h-4.25v-5.65l-.52,.28c-.76,.41-2.07,.81-4.25,.81h-.79v-4.1h.96c1.19,0,1.54-.2,2.43-.64l4.86-2.47c1.02-.52,1.8-.71,3.23-.71h2.12v4.1h-1.28Z"/><path class="cls-8" d="M457.2,642.68c-1.8,1.02-4.22,1.71-7.44,1.71v-4.12c5.75,0,7.37-2.73,7.37-3.88v-.29h-6.9v-3.73h11.38v3.08c0,1.33-.38,2.86-1.28,4.29,.84,.32,1.76,.45,2.85,.45v4.08c-3.28,0-4.34-.49-5.98-1.58Z"/><path class="cls-8" d="M473.94,635.2c-.48,0-.87-.07-1.19-.22,.01,.04,.04,.08,.04,.13l1.53,4.86c.06,.2,.22,.35,.58,.35h.77v4.08h-1.76c-2.12,0-2.98-1.36-3.43-2.87l-1.3-4.3c-.19-.63-.57-.95-1.14-.95h-.47c-.47,0-.8,.39-.84,1.13l-.28,4.27h-4.19l.39-5.59c.16-2.21,1.66-3.95,4.06-3.95h1.5c1.8,0,2.94,.56,3.67,1.34,0-.06-.01-.11-.01-.18,0-1.3,.68-1.91,2.07-1.91s2.05,.6,2.05,1.91-.7,1.9-2.05,1.9Zm0-2.41c-.35,0-.51,.13-.51,.46,0,.39,.16,.5,.51,.5s.48-.11,.48-.5c0-.34-.16-.46-.48-.46Z"/><path class="cls-8" d="M487.06,636.13c-1.31,0-1.98,.21-2.52,.46v7.91h-4.25v-5.65l-.52,.28c-.76,.41-2.07,.81-4.25,.81h-.79v-4.1h.96c1.19,0,1.54-.2,2.43-.64l4.86-2.47c1.02-.52,1.8-.71,3.23-.71h2.12v4.1h-1.28Z"/><path class="cls-8" d="M500.06,637.67c-.65,4.64-3.39,6.6-8.66,6.6h-4.02v-3.95h3.51c3.81,0,4.54-1.09,4.92-2.94,.7-3.35,1.54-4.64,4.89-5.01v4.5c-.44,.11-.58,.41-.64,.81Zm-12.63-1.23v-3.91h6.03v3.91h-6.03Z"/><path class="cls-8" d="M510.69,640.79c-2.27,0-4.15-.24-5.62-.73v4.23h-4.47v-12.33h4.47v2.91c0,1.33,2.27,1.79,5.62,1.79h1.82v4.12h-1.82Z"/><path class="cls-8" d="M519.04,635.89v.69h6.11v2.9h-2.24v.71h-4.22v-.71h-1.62c-.33,0-.54,.29-.54,.56,0,.34,.13,.59,.54,.59h8.11v3.78h-8.25c-3.04,0-4.42-1.53-4.42-3.94,0-1.67,.84-2.93,2.33-3.52v-1.06h-2.37v-3.5h2.37v-.48h4.21v.48h6.67v3.5h-6.67Z"/><path class="cls-8" d="M535.65,636.09v.25h-8.05v-.27c-.83,.18-1.75,.31-2.79,.43v-3.81c2.11,0,3.65-.45,4.41-1.11h4.76c.76,.66,2.3,1.11,4.41,1.11v3.81c-1-.13-1.91-.25-2.74-.42Zm-10.66,8.46v-5.08h6.8l.41-.34h-6.9v-2.55h12.53v2.17l-.7,.71h1.03v5.08h-13.17Zm9.13-2.69h-5.08v.35h5.08v-.35Zm-2.52-7.9c-.2,.14-.41,.27-.63,.39h1.25c-.22-.13-.42-.25-.63-.39Z"/><path class="cls-8" d="M550.69,636.34c-.25,0-.36,.13-.36,.36v4.89c0,1.79-1.02,2.87-3.16,2.87h-3.74c-2.27,0-3.1-.31-3.29-1.19-2.08-.06-2.81-1.09-2.81-3.18v-.87c0-1.69,.77-2.93,2.97-2.93v-.35h-2.81v-3.57h2.81v-.55h4.22v.55h2.04v2.23c.32-1.75,1.41-2.23,3.92-2.23h.5v3.96h-.28Zm-9.46,2.59h-.38c-.38,0-.5,.18-.5,.39v.24c0,.32,.09,.46,.5,.46h.38v-1.09Zm5.23-2.97h0s-1.94-.01-1.94-.01v4.06c0,.31,.15,.45,.47,.45h1.05c.31,0,.42-.2,.42-.45v-4.05Z"/><path class="cls-8" d="M549.85,640.13v-4.72h13.57v4.72h-13.57Z"/><path class="cls-8" d="M573.12,644.62h-2.34v-2.48c-.63,1.12-1.6,1.92-3.07,2.47v-4.97c.57-.27,.89-.94,.96-4.15h-.71v2.55l-1.37,.14v1.85c0,.06,.04,.1,.09,.1h.07c.32,0,.45-.03,.71-.17v4.02c-.23,.17-1.05,.25-1.46,.25h-1.41c-.93,0-1.75-.52-1.75-1.76v-3.94l-.45,.04v-4.02l.45-.03v-2.94h3.74v2.61l1.34-.11v-2.42h7.85v10.44c0,2.06-1.12,2.54-2.65,2.54Zm-.87-9.13h-.28c-.04,2.17-.19,3.94-.64,5.35h.66c.15,0,.26-.1,.26-.31v-5.04Z"/><path class="cls-8" d="M584,644.45h-.84v-3.33c-.41,2.51-1.88,3.33-3.87,3.33-2.31,0-4.25-1.43-4.25-4.52v-2.66c0-3.6,2.53-5.32,5.44-5.32h2.27c3.39,0,5.56,2.23,5.56,5.28v2.3c0,3.15-1.62,4.93-4.31,4.93Zm-4.05-8.22c-.71,.13-1.12,.55-1.12,1.32v1.98c0,.52,.25,.63,.52,.63,.35,0,.6-.22,.6-.63v-3.29Zm4.4,1.36c0-.7-.23-1.19-1.08-1.36v3.81h.19c.55,0,.89-.21,.89-.92v-1.53Z"/><path class="cls-8" d="M598.15,644.62l-.42-.85h-.51c-.16,.35-.33,.67-.48,.85h-3v.11l-2.75-1.19c-.77,.7-1.94,1.06-3.55,1.15v-3.11c.64-.01,1.05-.1,1.29-.34h-1.29v-5.17c.32-.06,.57-.17,.73-.34h-.73v-2.69h.29c-.01-.48-.09-1.01-.22-1.47h1.65c.09,.41,.16,.91,.19,1.47h.12v-1.46h2.31v1.46h.2l.15-1.47h1.5l-.13,1.47h.23v-1.37h7.26v3.11h-1.97l-.09,.24h1.96v8.74h-.35l.44,.85h-2.84Zm-8.94-6.91c-.45,.41-1.02,.71-1.67,.88h1.56v-.41h.12v-.48Zm2.81,.06v.42h.2v.41h1.5l-1.7-.83Zm1.72-2.98v.95h-1.34l1.34,.46v5.04h-1.54l1.54,.48v2.72c.16-.18,.32-.42,.47-.67h-.22v-8.74h1.46l.1-.24h-1.81Zm4.08,2.37h-.74v.48h.74v-.48Zm0,1.9h-.74v.52h.74v-.52Zm0,1.93h-.74v.52h.74v-.52Z"/><path class="cls-8" d="M603.94,644.87h-3.87c1.56-2.55,1.94-4.96,1.94-6.77,0-2.26-.61-4.54-1.94-6.75h3.87c1.18,2.1,1.73,4.5,1.73,6.75s-.55,4.66-1.73,6.77Z"/><path class="cls-8" d="M337.13,666.12h.36v3.05c-1.95-.03-3.44-.55-4.54-1.34v1.08c-1.82,.31-7.21,.28-7.76,.28v-1.22c-.39,.06-.81,.1-1.28,.14v-2.84c.98,.04,1.81-.04,2.43-.22h-2.43v-2.83h4.63v-.25h-2.46v-.41c-.63,.18-1.35,.28-2.17,.31v-2.82c.73,0,1.43-.01,2.15-.24l-2.15-.27v-2.38l2.17,.28v-.36h3.7v5.59h.28v-2.35h1.66v-.24h-1.66v-2.72h1.66v-.28h3.87v.28h1.91v2.72h-1.91v.24h1.6v2.65h-4.34v.25h4.64v2.83h-3.17c.12,.17,.26,.32,.44,.48l.15-.22h2.75l-.52,.83Zm-9.27,.69c-.38,.17-.8,.29-1.24,.41,.38,0,.8,0,1.24-.01v-.39Zm3.41-.91v.85c.2,0,.38-.01,.55-.03-.2-.27-.38-.55-.55-.83Z"/><path class="cls-8" d="M349.94,659.83v.59h2.04v6.65c0,1.29-.55,1.83-1.83,1.83h-.61v.27h-2.66v-5.66h-.25v5.38h-2.1v-7.52h-.26v4.38h-3v.53c.12-.01,.23-.03,.35-.04l-.04-.25h2.37l.63,3.21h-2.49l-.04-.32c-.41,.15-.95,.25-1.53,.25h-2.08v-2.82h.32v-6.5c-.1,.03-.2,.07-.32,.08v-3.15c.73,0,1.27-.46,1.41-.67h3.44c.1,.21,.7,.67,1.35,.67v1.62c.17-.81,.32-1.64,.36-2.3h3.13c0,.15-.01,.32-.03,.48h3.97v3.28h-2.12Zm-9.71-.57c-.25,.13-.52,.25-.82,.35h.82v-.35Zm1.24-.81c-.26,.22-.55,.43-.89,.62h1.76c-.32-.18-.61-.39-.87-.62Zm.33,3.01h-.54v.39h.54v-.39Zm0,1.93h-.54v.41h.54v-.41Zm.89-4.13v.35h.87c-.32-.1-.6-.22-.87-.35Zm1.57,.56v.97c.07-.27,.15-.57,.23-.91-.07-.01-.15-.03-.23-.06Zm2.81,.01h-.26c-.06,.21-.1,.41-.15,.59h.41v-.59Zm2.71,3.68h-.25v2.75h.19s.06-.01,.06-.06v-2.69Z"/><path class="cls-8" d="M353.02,668.99v-6.37h6.55v6.37h-6.55Zm.87-6.78v-5.95h11.83v5.95h-11.83Zm2.82,3.18h-.83v.81h.83v-.81Zm4.8-6.46h-3.42v.62h3.42v-.62Zm-1.48,10.06v-6.37h6.57v6.37h-6.57Zm3.7-3.6h-.83v.81h.83v-.81Z"/><path class="cls-8" d="M380.49,659.37v.46h.36v1.96h-4.34v.25h4.62v2.07h-1.28v.24h1.12v2.91h-1.14c-.12,1.2-.79,1.85-2.26,1.85h-3.14v-1.85h-1.21l.7,1.88h-4.28l-.67-1.88h-1.19v-2.91h7.93v-.24h-8.11v-2.07h4.61v-.25h-4.34v-1.96h2.81v-.66h-.33l-.1,.39h-2.81c.22-.99,.5-2.9,.55-3.5h4.16l-.03,.32h2.1v2.12c.23-.98,.44-2.09,.48-2.44h4.03l-.06,.32h2.48v2.98h-.67Zm-6.89-.53v.45h.42c.04-.13,.09-.28,.13-.45h-.55Zm3.64,.22h-.33l-.1,.5h-.29v.27h.73v-.77Z"/><path class="cls-8" d="M383.53,669.13l-.17-.98c-.1-.55-.28-.78-.71-.78h-.16v-3.84h.58c2.3,0,3.92,1.51,4.37,3.99l.29,1.61h-4.19Z"/><path class="cls-8" d="M405.96,667.97c-1.15,.67-2.52,1.13-4.1,1.23v-3.6l-.68-.77v4.3h-3.49v-2.87c-.29,.29-.61,.57-.96,.83v-4.83c.61-.52,.83-1.08,.9-2.02h-.89v-3.6h.95v-.56h3.49v.56h.58v3.6h-.58v.39l.76,.71c.31-.08,.52-.36,.6-.87h7.09c.07,.43,.33,.74,.67,.8v3.85c-.39-.1-.76-.24-1.11-.41-.09,.17-.19,.34-.29,.52,.42,.08,.9,.15,1.41,.17v3.8c-1.73-.08-3.16-.53-4.34-1.23Zm-3.96-7.73v-3.6h1.86v-.57h4.13v.57h2.3v3.6h-8.3Zm.92,4.51c-.25,.11-.52,.22-.82,.29v.34c.38-.06,.73-.13,1.05-.21-.07-.14-.16-.28-.23-.42Zm3.16-4.24c-.12,.63-.41,1.41-.87,2.14h.44c.1,.27,.22,.52,.36,.76,.17-.24,.31-.49,.39-.76h.55c-.48-.73-.76-1.51-.87-2.14Z"/><path class="cls-8" d="M422.36,669.12h-3.17v-3.5h.64c-.68-.39-1.28-.91-1.76-1.54-.66,.88-1.51,1.53-2.5,1.9v-4.26c.41-.24,.63-.53,.76-1.22h-1.11v8.61h-3.76v-12.13h4.63v-.88h3.95v.88h4.66v9.82c0,1.39-.7,2.31-2.33,2.31Zm-1.51-8.61h-1.27c.19,.64,.5,.88,.93,1.19v3.92h.04c.28,0,.29-.11,.29-.28v-4.83Z"/><path class="cls-8" d="M436.95,660.08v.63h-2.08c-2.39,0-3.3,1.41-3.3,2.76,0,.9,.67,1.32,1.79,1.32h5.18v4.12h-5.28c-4.22,0-5.97-1.99-5.97-5.15,0-1.16,.47-2.19,1.15-3.04h-2.45v-4.01h9.86v-.24h3.54v1.6h-2.43v.45h2.43v1.57h-2.43Z"/><path class="cls-8" d="M449.23,666.6v2.52h-4.02v-2.52h-4.76v-2.75h13.46v2.75h-4.69Zm4.41-4.96v1.98h-12.91v-1.98c-.07,.03-.16,.07-.26,.08v-2.76c.39-.04,.71-.2,.96-.39h-.96v-2.27h1.31v-.24h3.8v.24h1.44v2.27h-.89l.89,.43v2.61h.32v-2.73c.36-.04,.7-.15,.98-.31h-.98v-2.27h1.41v-.24h3.8v.24h1.35v2.27h-1.06c.31,.21,.7,.35,1.06,.39v2.76c-.09-.03-.17-.06-.26-.08Zm-9.35,7.41h-3.79c.44-.52,.7-1.4,.7-2.21h3.58c0,.56-.2,1.77-.5,2.21Zm.95-8.21v.53h-3.13v-.46c-.38,.29-.82,.53-1.31,.7h6.07l-1.63-.77Zm6.97,.07v.46h-3.13v-.49c-.41,.29-.89,.55-1.41,.73h5.91c-.5-.18-.95-.41-1.37-.7Zm-2.07,8.14l-.58-2.21h3.73l.67,2.21h-3.81Z"/><path class="cls-8" d="M454.96,668.95v-3.82h.76v-7.54h4.03v7.54h.86v-9.01h4.05v2.93h3.64v3.85h-3.64v2.23h3.89v3.82h-13.58Z"/><path class="cls-8" d="M481.11,660.85v3.57h-6.78c-.39,0-.6,.2-.6,.42,0,.29,.22,.43,.6,.43h7.69v3.67h-8.85c-2.45,0-3.64-1.76-3.64-3.71,0-2.14,1.28-3.81,3.73-3.81h3.64v-.57h-7.22v-3.67h7.22v-.66h4.22v.66h1.86v3.67h-1.86Z"/><path class="cls-8" d="M495.9,668.68c-2.88,0-3.58-.74-3.58-3.46v-3.25c0-.24-.04-.35-.28-.35-.28,0-.67,.43-1.73,1.3l-1.09,.9v5.06h-3.96v-1.85h-1.02v-4.05h1.02v-1.37h-1.02v-3.89h1.02v-1.33h3.96v2.37c2.05-1.48,3.03-1.85,4.05-1.85,2.5,0,3.17,1.22,3.17,3.56v3.74c0,.41,.1,.53,.6,.53h.76v3.95h-1.89Z"/><path class="cls-8" d="M507.68,660.71c-2.39,0-3.29,1.41-3.29,2.76,0,.9,.66,1.32,1.78,1.32h5.17v4.12h-5.27c-4.21,0-5.95-1.99-5.95-5.15,0-1.16,.45-2.19,1.13-3.04h-2.45v-4.01h13.2v4.01h-4.32Z"/><path class="cls-8" d="M522.6,668.49v-7.54c0-.32-.1-.38-.23-.38-.12,0-.19,.15-.22,.28l-1.03,4.58c-.52,2.31-1.41,3.47-3.8,3.47s-3.95-1.3-3.95-3.85v-8.05h3.99v7.49c0,.35,.07,.41,.19,.41,.13,0,.26-.06,.35-.49l.9-4.22c.48-2.21,1.5-3.49,3.87-3.49,2.56,0,3.97,1.65,3.97,3.87v7.91h-4.05Z"/><path class="cls-8" d="M535.08,668.91h-3.09c-2.52,0-4.02-1.36-4.02-3.5v-.53c0-1.95,1.62-3.15,3.48-3.15h.28v-1.27h-3.52v-3.96h7.95v2.42c3.7,.13,5.09,1.89,5.09,4.69v.53c0,2.59-1.51,4.78-6.17,4.78Zm-2.74-3.96c0-.35-.25-.56-.47-.56h-.13c-.33,0-.57,.21-.57,.52s.22,.55,.64,.55h.52v-.5Zm3.07-2.47h-.93c.64,.59,1,1.44,1.08,2.37h.03c.73,0,1-.46,1-1.22,0-.63-.28-1.15-1.18-1.15Z"/><path class="cls-8" d="M554.54,663.99v2.4c0,1.75-.74,2.7-2.87,2.7h-2.68v-3.59h1.47c.16,0,.2-.07,.2-.21v-1.3h-3.39v5.13h-3.67v-3.17c-.39,.18-.82,.34-1.27,.45v-4.22c.63-.11,1.11-.49,1.46-.99-.45,.25-.95,.43-1.44,.55v-4.02c.61-.13,1.08-.63,1.08-1.62h3.89c-.13,1.11-.55,2.13-1.17,3h1.4v-2.86h8.05v3.66h-7.55c-.03,.13-.06,.25-.09,.38h7.92v3.73h-1.34Zm-7.29-1.61c-.26,.56-.58,1.06-.96,1.51h.96v-1.51Z"/><path class="cls-8" d="M567.16,669.2h-1.51v-3.33h.6c.19,0,.25-.1,.25-.25v-.27h-8.04c-.2,.14-.42,.27-.64,.38h2.17c.01,.95-.06,2.65-.16,3.47h-2.93c.17-.67,.29-2.21,.31-3.15-.1,.06-.19,.11-.31,.15v-4.22c1-.42,1.98-1.34,2.74-2.48h-2.62v-2.98h.51l-.09-.45h2.81l.09,.45h.63c.04-.14,.07-.31,.09-.46h3.92c-.01,.17-.06,.32-.09,.46h5.09v2.76l-.32,.63h.61v2.12l-.26,.52h.49v3.32c0,2.41-1.28,3.33-3.33,3.33Zm-6.73-.15l-.33-3.32h1.51l.33,3.32h-1.51Zm1.62-6.86c-.1,.13-.2,.25-.32,.36h4.66l.19-.36h-4.53Zm.15,6.86l-.33-3.32h1.51l.33,3.32h-1.51Zm1.6-9.54c-.07,.14-.15,.28-.22,.41h2.02l.29-.41h-2.1Zm.16,9.54l-.33-3.32h1.56l.33,3.32h-1.56Z"/><path class="cls-8" d="M583.58,660.67v1.41h1.37v3.99h-1.21c-.04,2.06-1.11,2.89-3.38,2.89h-1.17c-1.27,0-2.18-.56-2.69-1.54v1.47h-1.29c-2.47,0-3.55-1.05-3.55-3.25v-9.16h3.99v8.05c0,.38,.09,.49,.44,.5,.12-1.93,1.57-2.96,3.36-2.96h.04v-1.41h-3.29v-3.67h3.29v-.52h4.09v.52h1.38v3.67h-1.38Zm-3.25,4.15h-.61c-.25,0-.47,.15-.47,.42,0,.34,.17,.5,.5,.5h.12c.26,0,.47-.21,.47-.49v-.43Z"/><path class="cls-8" d="M399.14,689.13v-4.72h13.57v4.72h-13.57Z"/><path class="cls-8" d="M424.45,693.62h-2.34v-2.48c-.63,1.12-1.6,1.92-3.07,2.47v-4.97c.57-.27,.89-.94,.96-4.15h-.71v2.55l-1.37,.14v1.85c0,.06,.04,.1,.09,.1h.07c.32,0,.45-.03,.71-.17v4.02c-.23,.17-1.05,.25-1.46,.25h-1.41c-.93,0-1.75-.52-1.75-1.76v-3.94l-.45,.04v-4.02l.45-.03v-2.94h3.74v2.61l1.34-.11v-2.42h7.85v10.44c0,2.06-1.12,2.54-2.65,2.54Zm-.87-9.13h-.28c-.04,2.17-.19,3.94-.64,5.35h.66c.15,0,.26-.1,.26-.31v-5.04Z"/><path class="cls-8" d="M437.09,691.1v2.52h-4.02v-2.52h-4.76v-2.75h13.46v2.75h-4.69Zm4.41-4.96v1.98h-12.91v-1.98c-.07,.03-.16,.07-.26,.08v-2.76c.39-.04,.71-.2,.96-.39h-.96v-2.27h1.31v-.24h3.8v.24h1.44v2.27h-.89l.89,.43v2.61h.32v-2.73c.36-.04,.7-.15,.98-.31h-.98v-2.27h1.41v-.24h3.8v.24h1.35v2.27h-1.06c.31,.21,.7,.35,1.06,.39v2.76c-.09-.03-.17-.06-.26-.08Zm-9.35,7.41h-3.79c.44-.52,.7-1.4,.7-2.21h3.58c0,.56-.2,1.77-.5,2.21Zm.95-8.21v.53h-3.13v-.46c-.38,.29-.82,.53-1.31,.7h6.07l-1.63-.77Zm6.97,.07v.46h-3.13v-.49c-.41,.29-.89,.55-1.41,.73h5.91c-.5-.18-.95-.41-1.37-.7Zm-2.07,8.14l-.58-2.21h3.73l.67,2.21h-3.81Z"/><path class="cls-8" d="M442.82,693.45v-3.82h.76v-7.54h4.03v7.54h.86v-9.01h4.05v2.93h3.64v3.85h-3.64v2.23h3.89v3.82h-13.58Z"/><path class="cls-8" d="M466.93,687.08h-3.42c-.83,0-1.44,.38-1.44,1.16s.58,1.19,1.44,1.19h7.28v3.96h-7.89c-3.58,0-5.34-1.96-5.34-5.15,0-1.85,.84-3.35,2.21-4.23v-2.89h4.21v2.05h2.29c.33,0,.51-.21,.51-.5v-.62h4.24v1.08c0,2.98-1.5,3.95-4.08,3.95Z"/><path class="cls-8" d="M479.73,693.38h-2.07c-3.38,0-5.12-2.07-5.12-5.01v-7.33h4.11v7.19c0,.62,.41,1.11,.96,1.11h2.02c.55,0,.97-.46,.97-1.06v-1.42h4.27v1.56c0,2.96-1.76,4.97-5.14,4.97Z"/><path class="cls-8" d="M496.37,692.76v-1.7c0-.31-.09-.49-.41-.52,0,1.83-.74,2.9-3.01,2.9h-3.43c-2.17,0-3.01-1.27-3.01-2.98,0-1.83,1.25-2.75,3.28-2.75h2.43v-.46h-5.12v-2.72h5.12v-.5h-5.12v-2.75h5.12v-.46h4.09v.46h3.12v2.75h-3.12v.5h3.12v2.72h-3.12v.46h.35c2.26,0,3.44,1.22,3.44,3.18v1.86h-3.71Zm-4.16-2.87h-1.92c-.23,0-.32,.17-.32,.31,0,.15,.12,.28,.32,.28h1.57c.28,0,.35-.08,.35-.27v-.32Z"/><path class="cls-8" d="M512.76,684.81v8.74h-4.24v-.64h-2.94c-2.81,0-3.97-1.82-3.97-3.84s1.16-3.67,3.97-3.67h2.94v-.59h-7.25v-3.56h7.25v-.35h4.24v.35h1.88v3.56h-1.88Zm-4.24,3.56h-2.59c-.41,0-.57,.15-.57,.42,0,.29,.2,.43,.57,.43h2.59v-.85Z"/></g></g><g><circle class="cls-16" cx="472.22" cy="1118.61" r="127.84"/><circle class="cls-1" cx="472.22" cy="1105.77" r="127.84"/><line class="cls-10" x1="470.96" y1="1222.4" x2="470.96" y2="1598.13"/><circle class="cls-11" cx="472.22" cy="1105.77" r="112.64"/><g><path class="cls-8" d="M421.81,1086.45h-3.86v-2.43c-.78,1.46-2.32,2.3-4.58,2.43v-3.7c.42-.06,.78-.22,1.01-.62h-1.01v-.9c-.11,.03-.21,.05-.34,.08v2.96c0,1.23-.91,2.18-2,2.18h-2.18v-4.13h.11c.18,0,.32-.14,.32-.32v-.27c-.21,.02-.42,.02-.62,.02v-4.29c.21,0,.42,0,.62-.02v-1.17h-.62v-4.1h.62v-.62h3.57v.62h.61v4.1h-.61v.7c.32-.1,.61-.18,.88-.3v-3.22c.37-.18,.83-.88,.83-1.94h3.86c0,.24-.02,.5-.06,.75h.7l.26-.75h3.71l-.22,.75h.83v1.7h-1.1v.24h.88v1.41h-.88v.29h.88v1.41h-.88v.24h1.1v1.71h-9.32v-1.46c-.19,.1-.38,.18-.59,.24v1.49h9.54l-.14,1.12h.53v3.84c0,1.15-.61,1.95-1.86,1.95Zm-2.98-12.49h-.96v.42h.96v-.42Zm0,1.63h-.96v.4h.96v-.4Zm0,1.65h-.96v.38h.96v-.38Zm.82,5.75h-.85l.1-.67h-.38c-.06,.4-.16,.77-.29,1.1h1.2c.11,0,.22-.06,.22-.18v-.26Z"/><path class="cls-8" d="M438.95,1075.22v2.4h-13.48v-2.4h-.67v-3.22h.67v-.46h4.13v.46h.77v-.46h3.68v.46h.75v-.46h4.15v.46h.69v3.22h-.69Zm-.06,6.88v2.08c0,1.23-.62,1.79-1.87,1.79h-1.9v-1.47h-.54v2.03h-4.72v-2.03h-.45v1.47h-3.78v-3.87h-.82v-4.26h14.84v4.26h-.75Zm-9.04-1.09h-1.02v.45h1.02v-.45Zm.53-6.26h-.77v.53h.77v-.53Zm4.43,0h-.75v.53h.75v-.53Zm.79,6.26h-1.02v.45h1.02v-.45Z"/><path class="cls-8" d="M452.71,1086.45h-4.42c-1.04,0-1.75-.38-2.08-.96h-4.99v-6.31h1.07v-.27h-1.57v-4.13h5.12v-.29h-4.91v-2.75h14.57v2.75h-4.88v.29h5.12v4.13h-1.52v.27h1.01v3.67c.22-.08,.42-.16,.53-.26v3.23c-.53,.32-1.65,.62-3.04,.62Zm-6.79-9.4h-1.54v.29h1.22v.83h-1.22v.3h1.22v.7h.32v-2.13Zm.3,3.79h-.86v.48h.86v-.48Zm0,1.79h-.86v.48h.86v-.48Zm4.82-1.79h-.77v.48h.77v-.48Zm0,1.79h-.77v.48h.77v-.48Zm1.02-4.47h-1.22v-.83h1.22v-.29h-1.5v2.13h.29v-.7h1.22v-.3Z"/><path class="cls-8" d="M456.69,1076.88v-3.19h7.03v3.19h-7.03Zm.35-3.44v-1.89h6.39v1.89h-6.39Zm0,5.49v-1.76h6.39v1.76h-6.39Zm0,2.08v-1.81h6.39v1.81h-6.39Zm0,5.44v-5.15h6.39v5.15h-6.39Zm3.5-2.85h-.61v.58h.61v-.58Zm9.28-3.86v.29h1.58v6.32h-7.68v-6.32h1.65v-.29h-1.66v-3.83h1.66v-.35h-1.66v-3.81c4.5,0,6.67,.02,7.71-.35v3.84c-.32,.11-.85,.19-1.6,.26v.42h1.83v3.83h-1.83Zm-1.84,3.04h-.78v.64h.78v-.64Z"/><path class="cls-8" d="M482.76,1086.24h-.93v-3.81c-.45,2.86-2.06,3.81-4.26,3.81-2.54,0-4.67-1.63-4.67-5.17v-3.04c0-4.11,2.79-6.08,5.99-6.08h2.5c3.73,0,6.12,2.54,6.12,6.03v2.62c0,3.6-1.78,5.63-4.74,5.63Zm-4.45-9.4c-.78,.14-1.23,.62-1.23,1.5v2.26c0,.59,.27,.72,.58,.72,.38,0,.66-.26,.66-.72v-3.76Zm4.83,1.55c0-.8-.26-1.36-1.18-1.55v4.35h.21c.61,0,.98-.24,.98-1.06v-1.75Z"/><path class="cls-8" d="M500.84,1075.57v.27h2.69v5.22h-2.74c-.05,.4-.11,.78-.21,1.15,.85,.02,1.86,.03,3.09,.02v4.23c-2.46,0-4.42-.29-5.94-.82-1.09,.5-2.48,.78-4.24,.82v-3.92c.16-.02,.3-.02,.43-.03-.18-.37-.32-.75-.45-1.17h2.69c.03-.08,.06-.18,.1-.27h-2.71v-5.22h2.82v-.27h-2.82v-1.39c-.13,1.18-.4,2.27-.78,3.25h.45v9.03h-3.54v-5.04c-.29,.22-.59,.43-.95,.64v-5.87c.85-.7,1.36-2.37,1.36-4.63h3.6v.32h2.67v-.34h4.47v.34h2.87v3.7h-2.87Zm-3.52,2.48h-.67v.78h.67v-.78Zm3.14,0h-.67v.78h.67v-.78Z"/><path class="cls-8" d="M516.66,1086.42h-2v-3.59h.46c.08,0,.14-.06,.14-.16v-.21h-1.07v3.97h-4.18v-3.97h-.91c-.54,2.58-2.05,3.86-4.35,4.05v-5.84c.35-.27,.53-.64,.53-1.55v-7.38h14.09v11.51c0,2.31-1.07,3.17-2.71,3.17Zm-6.26-11.38h-1.04v.75h1.04v-.75Zm0,3.71h-1.04v.74h1.04v-.74Zm4.87-3.71h-1.07v.75h1.07v-.75Zm0,3.71h-1.07v.74h1.07v-.74Z"/><path class="cls-8" d="M534.07,1076.79v1.62h1.5v4.56h-1.33c-.05,2.35-1.22,3.3-3.71,3.3h-1.28c-1.39,0-2.4-.64-2.96-1.76v1.68h-1.42c-2.72,0-3.91-1.2-3.91-3.71v-10.47h4.39v9.2c0,.43,.1,.56,.48,.58,.13-2.21,1.73-3.38,3.7-3.38h.05v-1.62h-3.62v-4.19h3.62v-.59h4.5v.59h1.52v4.19h-1.52Zm-3.57,4.74h-.67c-.27,0-.51,.18-.51,.48,0,.38,.19,.58,.54,.58h.13c.29,0,.51-.24,.51-.56v-.5Z"/><path class="cls-8" d="M398.84,1111.67v.1c0,1.42-.62,2.66-2.62,2.66h-7.49v-2.48h5.59c.32,0,.45-.13,.48-.27h-9.99v-3.23h9.99v-.27h-9.57l.82-3.27h-1.3v-5.15h14.93v5.15h-1.44v.8h-8.2l-.06,.26h8.87v2.48h.83v3.23h-.83Zm-3.23-8.47h-5.03l-.06,.27h5.09v-.27Z"/><path class="cls-8" d="M410.55,1103.18v.27h4.42v6.8h-13.53v-6.8h4.43v-.27h-5.06v-3.28h5.06v-.37h4.67v.37h5.04v3.28h-5.04Zm4.07,10.64l.22,.59h-4.45l-.21-.59h-3.7c-.1,.22-.19,.43-.3,.59h-4.61c.14-.16,.27-.38,.4-.59h-1.15v-3.31h14.77v3.31h-.98Zm-3.97-8.55h-4.95v.35h4.95v-.35Zm0,1.36h-4.95v.38h4.95v-.38Zm0,1.39h-4.95v.35h4.95v-.35Z"/><path class="cls-8" d="M430.42,1109.92c.4,.03,.82,.05,1.26,.03v4.59c-2.24-.13-3.79-.42-5.51-1.41-1.54,.72-3.33,1.23-5.38,1.39v-2.98c-1.02,1.34-2.34,2.38-4,2.95v-5.51c1.63-.82,2.24-2.59,2.4-5.19h-2.1v-4.18h13.75v3.22l-.98,1.57h1.83v3.28c-.27,.77-.72,1.5-1.28,2.22Zm-8.18-.86c-.13,.29-.26,.56-.4,.85,.3-.05,.59-.08,.88-.14-.18-.22-.34-.46-.48-.7Zm1.22-5.25c-.05,.67-.13,1.31-.26,1.95h1.38c.21,.62,.43,1.15,.7,1.62v-2.96l.34-.61h-2.16Zm2.19,4.08c.16,.21,.32,.4,.51,.58,.27-.18,.51-.37,.74-.58h-1.25Z"/><path class="cls-8" d="M446.33,1103.98v4.37c0,3.81-2.16,5.99-5.97,5.99s-5.92-1.63-5.92-5.99v-3.01c0-.35-.11-.53-.56-.53h-1.04v-4.77h2.08c3.06,0,4.05,1.57,4.05,4.21v4.1c0,.88,.46,1.31,1.39,1.31,.82,0,1.42-.43,1.42-1.31v-8.13h1.71v-.4h4.24v1.84h-2.9v.51h2.9v1.81h-1.41Z"/><path class="cls-8" d="M461.03,1114.45h-2.03v-2.27c-.54,1.2-1.36,1.91-2.53,2.34v-.66c-.69,.32-2.53,.59-7.71,.59v-3.28h1.95v-.27h-1.95v-1.71h1.95v-.27h-1.79v-3.99h1.79v-.29h-1.95v-1.74h1.95v-.29h-1.79v-2.95c5.09,0,6.74-.03,7.62-.24v1.31h.51v-1.18h4.45v1.18h2v10.52c0,2.18-.86,3.2-2.47,3.2Zm-9.16-8.36h-.7v.32h.7v-.32Zm0,1.1h-.7v.35h.7v-.35Zm2.51-1.1h-.69v.32h.69v-.32Zm0,1.1h-.69v.35h.69v-.35Zm2.15-4.88c-.4,.11-.83,.18-1.78,.22v.27h1.78v-.5Zm0,2.61v-.29h-1.78v.29h1.81v3.73c.34-.22,.48-.99,.48-3.73h-.51Zm-.06,3.99h-1.71v.27h1.71v-.27Zm0,1.89h-1.71v.35c.96-.05,1.62-.13,1.71-.22v-.13Zm3.75-5.88h-.27c0,2.13-.1,3.81-.32,5.12h.35c.14,0,.24-.08,.24-.24v-4.88Z"/><path class="cls-8" d="M474.23,1103.55v.4h1.33v6.47h-6.71v-6.47h1.33v-.4h-5.44v-3.83h14.93v3.83h-5.44Zm-9.27,10.71v-10.31h3.52v6.83h7.44v-6.83h3.52v10.31h-14.49Zm6.5-8.15h-.54v.61h.54v-.61Zm0,1.7h-.54v.59h.54v-.59Zm2.03-1.7h-.56v.61h.56v-.61Zm0,1.7h-.56v.59h.56v-.59Z"/><path class="cls-8" d="M490.76,1114.24h-.93v-3.81c-.45,2.86-2.06,3.81-4.26,3.81-2.54,0-4.67-1.63-4.67-5.17v-3.04c0-4.11,2.79-6.08,5.99-6.08h2.5c3.73,0,6.12,2.54,6.12,6.03v2.62c0,3.6-1.78,5.63-4.74,5.63Zm-4.45-9.4c-.78,.14-1.23,.62-1.23,1.5v2.26c0,.59,.27,.72,.58,.72,.38,0,.66-.26,.66-.72v-3.76Zm4.83,1.55c0-.8-.26-1.36-1.18-1.55v4.35h.21c.61,0,.98-.24,.98-1.06v-1.75Z"/><path class="cls-8" d="M507.29,1107.87v6.64h-2.54v-.4c-.7,.13-1.73,.18-3.44,.18v-3.39h.43v-2.56h-.26v.38c-.13,.05-.27,.08-.43,.11v3.43c0,1.25-1.07,2.19-2.16,2.19h-2v-4.13h.21c.14,0,.21-.06,.21-.24v-.5c-.21,.02-.42,.05-.61,.06v-4.18c.19-.02,.4-.05,.61-.06v-1.38h-.61v-3.75h.61v-.74h3.75v.74h.43v3.75h-.43v.51c.16-.05,.3-.11,.43-.16v.64h10.21v2.85h-4.4Zm-5.54-3.12v-5.09h9.73v5.09h-9.73Zm2.99,3.03h-.51v.5h.51v-.5Zm0,1.78h-.51v.46h.51v-.46Zm0,1.75h-.51v.5c.19-.02,.35-.02,.51-.03v-.46Zm2.95-10.12h-2.13v.29h2.13v-.29Zm0,1.73h-2.13v.3h2.13v-.3Zm1.87,10.88c-.62,.5-1.33,.77-2.08,.72v-3.12c.1,0,.18-.02,.26-.02-.11-.3-.21-.59-.27-.86h1.57c.06-.08,.1-.16,.14-.26h-1.7v-2.11h4.13v1.66c-.05,.46-.16,.9-.29,1.33,.11,0,.24,.02,.37,.02v3.39c-.8,0-1.52-.29-2.13-.75Z"/><path class="cls-8" d="M515.06,1114.2h-2.43c.14-.54,.26-2.43,.26-2.91h2.29c.02,.96-.05,2.38-.11,2.91Zm-2.29-6.39v-3.17h2.74v-.37h-2.54v-4.64h8.44v4.64h-2.37v.37h2.51v3.17h-8.77Zm6.23,3.19v3.41h-3.65v-3.41h-2.38v-2.9h8.44v2.9h-2.4Zm-1.33-9.91h-.98v.37h.98v-.37Zm0,1.36h-.98v.38h.98v-.38Zm0,6.88h-.98v.43h.98v-.43Zm1.65,4.87l-.19-2.91h2.39l.29,2.91h-2.48Zm2.53-9.09v-4.45l5.83-1.25v4.45l-5.83,1.25Zm0,4.79v-4.48l5.83-1.26v4.45l-5.83,1.3Zm0,4.66v-4.32l5.83-1.33v4.4l-5.83,1.25Z"/><path class="cls-8" d="M528.75,1114.63v-4.4c.24-.06,.46-.14,.69-.21v-10.5h4.15v8.71c.82-.43,1.57-.91,2.22-1.42v4.83c-2,1.23-3.97,2.08-7.06,2.99Zm6-8.12l-.8-5.59h3.89l.75,5.59h-3.84Zm5.84,5.55c-1.15,1.18-2.67,2.08-4.51,2.51v-4.79c1.97-.83,2.99-2.29,2.99-4.56v-5.71h4.18v5.65c0,1.18-.18,2.32-.53,3.38l.96,.72v5.31l-3.09-2.51Z"/><path class="cls-8" d="M558.77,1110.77v3.68h-4.29v-5.59c-.35-.22-.66-.45-.88-.62v-3.3c-.16,6.08-3.06,9.12-8.85,9.6v-4.26c.4,0,.98-.13,1.54-.3l-.58-1.5c-.3,.14-.64,.27-.96,.35v-5.65c.7-.43,.91-1.71,.91-3.63h4.1c0,.21,0,.43-.02,.64h3.87v2.72c.22,.22,.53,.46,.86,.7v-4.07h4.29v6.23c.35,.11,.69,.21,.98,.26v4.95c-.3-.03-.62-.11-.98-.21Zm-9.16-6.39h-.61c-.21,.69-.53,1.34-.93,1.92h.74l.42,.99c.24-.74,.38-1.6,.38-2.3v-.61Z"/><path class="cls-8" d="M434.45,1139.56v2.88h-4.42v-2.88h-5.23v-3.14h14.81v3.14h-5.15Zm4.85-5.67v2.26h-14.2v-2.26c-.08,.03-.18,.08-.29,.1v-3.15c.43-.05,.78-.22,1.06-.45h-1.06v-2.59h1.44v-.27h4.18v.27h1.58v2.59h-.98l.98,.5v2.98h.35v-3.12c.4-.05,.77-.18,1.07-.35h-1.07v-2.59h1.55v-.27h4.18v.27h1.49v2.59h-1.17c.34,.24,.77,.4,1.17,.45v3.15c-.1-.03-.19-.06-.29-.1Zm-10.28,8.47h-4.16c.48-.59,.77-1.6,.77-2.53h3.94c0,.64-.22,2.02-.54,2.53Zm1.04-9.38v.61h-3.44v-.53c-.42,.34-.9,.61-1.44,.8h6.67l-1.79-.88Zm7.67,.08v.53h-3.44v-.56c-.45,.34-.98,.62-1.55,.83h6.5c-.54-.21-1.04-.46-1.5-.8Zm-2.27,9.3l-.64-2.53h4.1l.74,2.53h-4.19Z"/><path class="cls-8" d="M440.74,1142.24v-4.37h.83v-8.61h4.43v8.61h.94v-10.29h4.45v3.34h4v4.4h-4v2.54h4.27v4.37h-14.93Z"/><path class="cls-8" d="M467.24,1134.96h-3.76c-.91,0-1.58,.43-1.58,1.33s.64,1.36,1.58,1.36h8v4.53h-8.67c-3.94,0-5.88-2.24-5.88-5.89,0-2.11,.93-3.83,2.43-4.83v-3.3h4.62v2.34h2.51c.37,0,.56-.24,.56-.58v-.7h4.66v1.23c0,3.41-1.65,4.51-4.48,4.51Z"/><path class="cls-8" d="M481.3,1142.16h-2.27c-3.71,0-5.63-2.37-5.63-5.73v-8.37h4.51v8.21c0,.7,.45,1.26,1.06,1.26h2.23c.61,0,1.07-.53,1.07-1.22v-1.62h4.69v1.78c0,3.38-1.94,5.68-5.65,5.68Z"/><path class="cls-8" d="M499.59,1141.46v-1.94c0-.35-.1-.56-.45-.59,0,2.1-.82,3.31-3.31,3.31h-3.78c-2.38,0-3.31-1.46-3.31-3.41,0-2.1,1.38-3.14,3.6-3.14h2.67v-.53h-5.63v-3.11h5.63v-.58h-5.63v-3.14h5.63v-.53h4.5v.53h3.43v3.14h-3.43v.58h3.43v3.11h-3.43v.53h.38c2.48,0,3.78,1.39,3.78,3.63v2.13h-4.08Zm-4.58-3.28h-2.11c-.26,0-.35,.19-.35,.35,0,.18,.13,.32,.35,.32h1.73c.3,0,.38-.1,.38-.3v-.37Z"/><path class="cls-8" d="M517.59,1132.37v9.99h-4.66v-.74h-3.23c-3.09,0-4.37-2.08-4.37-4.39s1.28-4.19,4.37-4.19h3.23v-.67h-7.97v-4.07h7.97v-.4h4.66v.4h2.07v4.07h-2.07Zm-4.66,4.07h-2.85c-.45,0-.62,.18-.62,.48,0,.34,.22,.5,.62,.5h2.85v-.98Z"/></g></g><g><rect class="cls-16" x="31.47" y="1098.55" width="272.71" height="152.19" rx="16.95" ry="16.95"/><circle class="cls-16" cx="167.87" cy="898.12" r="127.84"/><circle class="cls-1" cx="167.87" cy="886.28" r="127.84"/><rect class="cls-1" x="31.47" y="1089.6" width="272.71" height="152.19" rx="16.95" ry="16.95"/><line class="cls-10" x1="166.39" y1="961.4" x2="166.39" y2="1598.13"/><circle class="cls-14" cx="167.87" cy="886.28" r="112.74"/><rect class="cls-3" x="39.99" y="1100.72" width="255.67" height="129.96" rx="12" ry="12"/><g><path class="cls-8" d="M67.47,886.09c-2.12,1.06-4.62,1.62-7.28,1.47v-4.31c1.22,.08,2.39,.02,3.47-.22-1.25-1.47-2.12-3.19-2.59-4.96h4.47c.39,1.2,1.05,2.27,1.98,3.14,1.08-.93,1.8-2.16,2.03-3.65h-9.36v-4.13h4.98v-.64h4.38v.64h5.19v4.13h-1.03c-.25,2.08-1.11,3.94-2.39,5.49,1.02,.21,2.16,.29,3.42,.21v4.31c-2.8,.13-5.23-.45-7.27-1.47Z"/><path class="cls-8" d="M79.69,878.63h.97v9.03h-4.03v-5.33c-.42,.35-.91,.69-1.42,.99v-5.71c1.2-1.17,1.64-3.2,1.7-4.87h4.25c-.17,2.27-.61,4.21-1.47,5.89Zm7.2,9.04h-2.52c-1.94,0-2.81-.91-2.81-2.85v-12.08h4.23v2.16l3.95-1.5v4.64l-3.95,1.55v3.2c0,.3,.14,.53,.58,.53h.83c1.05,0,1.86-.18,2.56-.78v4.61c-.56,.35-1.06,.53-2.88,.53Z"/><path class="cls-8" d="M93.98,887.45h-3.92c.41-.82,.67-2.35,.67-3.07h3.69c-.11,1.42-.2,2.4-.44,3.07Zm10.36-5.31v1.97h-4.16v1.09c0,1.54-.75,2.43-2.53,2.43h-2.95v-3.11h1c.14,0,.28-.06,.28-.24v-.18h-5.36v-1.73c-.12,.03-.27,.06-.41,.08v-4.27c.23-.03,.44-.08,.64-.13l-.28-.53c-.11,.05-.23,.08-.36,.11v-3.41c.8-.16,1.73-.86,2.05-1.49h4.14c-.02,.08-.05,.14-.08,.21h3.53c.03,.64,.19,1.2,.41,1.7v-1.7h4.41v3.09l-.78,1.5c.28,.11,.56,.21,.84,.3v4.37c-.12-.02-.27-.06-.39-.08Zm-11.86-5.57c-.12,.1-.27,.19-.42,.27l.36,.59c.16-.08,.3-.18,.44-.27l-.38-.59Zm7.89,3.19v.46h-5.92v-.43c-.33,.26-.67,.48-1.03,.69h8.17c-.42-.21-.83-.45-1.22-.72Zm-6.62-4.37l.39,.61c.14-.19,.28-.4,.39-.61h-.78Zm3.66,1.1c-.12,.22-.27,.46-.42,.69h.84c-.16-.22-.3-.45-.42-.69Zm3.73,10.96l-.59-3.07h3.73l.58,3.07h-3.72Zm-.25-11.86c.19,.22,.39,.43,.61,.61l.33-.61h-.94Z"/><path class="cls-8" d="M118.67,875.97h.78v11.49h-14.17v-3.81h10.08v-.51h-9.67v-2.87h9.67v-.5h-10.08v-3.81h.7c-.19-1.17-.5-2.32-.77-3.03h3.94c.22,.58,.56,1.76,.77,3.03h.33v-3.19h4.05v3.19h.3l1.03-3.03h4.17l-1.12,3.03Z"/><path class="cls-8" d="M120.53,887.43v-14.44h13.89v14.44h-13.89Zm9.45-10.48h-5.02v1.5h5.02v-1.5Zm0,5.09h-5.02v1.47h5.02v-1.47Z"/><path class="cls-8" d="M148.21,877.99v1.62h1.47v4.56h-1.3c-.05,2.35-1.19,3.3-3.62,3.3h-1.25c-1.36,0-2.34-.64-2.89-1.76v1.68h-1.39c-2.66,0-3.81-1.2-3.81-3.71v-10.47h4.28v9.2c0,.43,.09,.56,.47,.58,.12-2.21,1.69-3.38,3.61-3.38h.05v-1.62h-3.53v-4.19h3.53v-.59h4.39v.59h1.48v4.19h-1.48Zm-3.48,4.74h-.66c-.27,0-.5,.18-.5,.48,0,.38,.19,.58,.53,.58h.12c.28,0,.5-.24,.5-.56v-.5Z"/><path class="cls-8" d="M155.2,887.32h-4.05v-4.58h4.08c4.02,0,4.8-1.55,4.8-3.41v-1.31h-4.14c-.83,1.28-2.5,2.98-5.34,2.98v-4.75c1.2,0,2.22-1.17,2.22-2.37v-.35h11.84v5.81c0,4.1-1.61,7.99-9.41,7.99Z"/><path class="cls-8" d="M172.87,887.27h-6.36v-4.39h6.84c1.12,0,1.47-.29,1.47-.85v-.29h-9.53v-3.81h14.33v3.33c0,3.39-1.45,6-6.75,6Zm-7.34-9.94v-3.84h13.78v3.84h-13.78Z"/><path class="cls-8" d="M188.31,885.43c-1.94,1.17-4.53,1.95-7.98,1.95v-4.71c6.17,0,7.91-3.12,7.91-4.43v-.34h-7.41v-4.26h12.22v3.52c0,1.52-.41,3.27-1.38,4.9,.91,.37,1.89,.51,3.06,.51v4.66c-3.52,0-4.66-.56-6.42-1.81Z"/><path class="cls-8" d="M207.88,877.65v8.8h-4.77v-8.8h-3.98v-4.26h12.52v4.26h-3.77Z"/><path class="cls-8" d="M229.73,880.1c-.5,4.1-2.28,7.14-9.34,7.14h-4.2v-4.32h3.67c3.84,0,4.95-1.09,5.44-3.91,.67-3.89,2.33-5.27,5.11-5.36v5.12c-.45,.11-.55,.35-.67,1.33Zm-13.36-2.69v-3.81h6.42v3.81h-6.42Zm0,4.4v-3.79h6.42v3.79h-6.42Z"/><path class="cls-8" d="M239.21,885.53h-1.42v-3.68h1.42c1.11,0,1.31-.27,1.31-1.14v-.32h-3.38l.22,6.93h-3.53l-.25-6.93h-1.19v-3.6h1.06l-.02-.83h3.55l.03,.83h7.11v2.93c0,4.24-1.08,5.81-4.92,5.81Z"/><path class="cls-8" d="M248.78,887.38h-2.36v-4.53h2.36c3.45,0,5.84-.58,6.81-2.45h-3.94l-.08-1.68c-.03-.62-.27-.82-.62-.82h-.06s.02,.11,.02,.18l.12,2.32h-4.02v-1.68c0-.59-.23-.82-.62-.82h-.22v-4.59h.56c2.28,0,3.5,1.31,3.98,3.42v-3.42h.56c2.73,0,3.91,1.94,4.17,4.77l.2,2.21c.28-.59,.42-1.31,.42-2.19v-5.03h4.44v5.03c0,6.21-4.31,9.28-11.73,9.28Z"/><path class="cls-8" d="M268.19,877.67v.78h6.56v3.31h-2.41v.82h-4.53v-.82h-1.73c-.36,0-.58,.34-.58,.64,0,.38,.14,.67,.58,.67h8.7v4.32h-8.86c-3.27,0-4.75-1.75-4.75-4.5,0-1.91,.91-3.35,2.5-4.02v-1.22h-2.55v-4h2.55v-.54h4.52v.54h7.16v4h-7.16Z"/><path class="cls-8" d="M112.99,908.05c-.06,.1-.12,.19-.19,.27h7.14v7.12h-13.3v-2.15c-.25,.08-.5,.16-.78,.22v-4.69c.95-.13,1.62-.32,2.09-.78h-2.09v-2.34h5.12v-.29h-4.66v-1.66h4.66v-.26h-5.12v-2.4h1.94c-.05-.11-.09-.24-.16-.37h4.27c.06,.13,.11,.26,.14,.37h2.36l.11-.37h4.27l-.09,.37h1.73v2.4h-5.05v.26h4.56v1.66h-4.56v.29h5.05v2.34h-7.44Zm2.52,2.35h-4.33v.37h4.33v-.37Zm0,1.36h-4.33v.32h4.33v-.32Zm0,1.26h-4.33v.37h4.33v-.37Z"/><path class="cls-8" d="M133.12,915.62h-1.95v-3.58h.45c.08,0,.14-.06,.14-.16v-.21h-1.05v3.97h-4.08v-3.97h-.89c-.53,2.58-2,3.86-4.25,4.05v-5.84c.34-.27,.52-.64,.52-1.55v-7.38h13.75v11.51c0,2.3-1.05,3.17-2.64,3.17Zm-6.11-11.38h-1.02v.75h1.02v-.75Zm0,3.71h-1.02v.74h1.02v-.74Zm4.75-3.71h-1.05v.75h1.05v-.75Zm0,3.71h-1.05v.74h1.05v-.74Z"/><path class="cls-8" d="M145.47,915.37h-2.22c-3.62,0-5.5-2.37-5.5-5.73v-8.37h4.41v8.21c0,.7,.44,1.26,1.03,1.26h2.17c.59,0,1.05-.53,1.05-1.22v-1.62h4.58v1.78c0,3.38-1.89,5.68-5.52,5.68Z"/><path class="cls-8" d="M162.44,906.04c-2.56,0-3.53,1.62-3.53,3.15,0,1.02,.7,1.5,1.91,1.5h5.55v4.71h-5.66c-4.52,0-6.39-2.27-6.39-5.89,0-1.33,.48-2.5,1.22-3.47h-2.62v-4.58h14.17v4.58h-4.64Z"/><path class="cls-8" d="M177.33,915.62v-.27c0-.24-.22-.54-.88-.82l-4.7-1.9c-2.17-.88-3-1.84-3-3.87v-1.01c0-1.87,.59-2.95,3-3.87l4.78-1.84c.59-.22,.8-.67,.8-.99h5.16c-.17,2.46-1.34,3.87-3.91,4.9l-4.8,1.92c-.25,.1-.34,.19-.34,.34v.1c0,.16,.09,.29,.34,.35l4.8,1.92c2.89,1.15,3.98,2.5,3.98,4.82v.24h-5.23Z"/><path class="cls-8" d="M195.76,905.16v.7h-6.53l-.36,9.51h-4.3l.36-9.51h-.84v-4.37h1l.02-.48h4.3l-.02,.48h5.45v-.48h3.8v1.83h-2.88v.51h2.88v1.81h-2.88Zm-2.06,10.24c-2.94,0-4.19-1.68-4.19-4.72,0-2.54,1.47-4.24,4.38-4.24h4.41v3.39h-3.7c-.23,0-.36,.18-.36,.45,0,.29,.08,.46,.36,.46h3.7v4.66h-4.59Z"/><path class="cls-8" d="M212.06,906.2v4.08h-7.28c-.42,0-.64,.22-.64,.48,0,.34,.23,.5,.64,.5h8.25v4.19h-9.5c-2.62,0-3.91-2.02-3.91-4.24,0-2.45,1.38-4.35,4-4.35h3.91v-.66h-7.75v-4.19h7.75v-.75h4.53v.75h2v4.19h-2Z"/><path class="cls-8" d="M225.33,914.92v-8.61c0-.37-.11-.43-.25-.43-.12,0-.2,.18-.23,.32l-1.11,5.23c-.56,2.64-1.52,3.97-4.08,3.97s-4.23-1.49-4.23-4.4v-9.2h4.28v8.56c0,.4,.08,.46,.2,.46,.14,0,.28-.06,.38-.56l.97-4.82c.52-2.53,1.61-3.99,4.16-3.99,2.75,0,4.27,1.89,4.27,4.42v9.04h-4.34Z"/></g><g><path class="cls-8" d="M94.88,1120.68v6.64h-2.54v-.4c-.7,.13-1.73,.18-3.44,.18v-3.39h.43v-2.56h-.26v.38c-.13,.05-.27,.08-.43,.11v3.43c0,1.25-1.07,2.19-2.16,2.19h-2v-4.13h.21c.14,0,.21-.06,.21-.24v-.5c-.21,.02-.42,.05-.61,.06v-4.18c.19-.02,.4-.05,.61-.06v-1.38h-.61v-3.75h.61v-.74h3.75v.74h.43v3.75h-.43v.51c.16-.05,.3-.11,.43-.16v.64h10.21v2.85h-4.4Zm-5.54-3.12v-5.09h9.73v5.09h-9.73Zm2.99,3.03h-.51v.5h.51v-.5Zm0,1.78h-.51v.46h.51v-.46Zm0,1.75h-.51v.5c.19-.02,.35-.02,.51-.03v-.46Zm2.94-10.12h-2.13v.29h2.13v-.29Zm0,1.73h-2.13v.3h2.13v-.3Zm1.87,10.88c-.62,.5-1.33,.77-2.08,.72v-3.12c.1,0,.18-.02,.26-.02-.11-.3-.21-.59-.27-.86h1.57c.06-.08,.1-.16,.14-.26h-1.7v-2.11h4.13v1.66c-.05,.46-.16,.9-.29,1.33,.11,0,.24,.02,.37,.02v3.39c-.8,0-1.52-.29-2.13-.75Z"/><path class="cls-8" d="M102.66,1127h-2.43c.14-.54,.26-2.43,.26-2.91h2.29c.02,.96-.05,2.38-.11,2.91Zm-2.29-6.39v-3.17h2.74v-.37h-2.54v-4.64h8.44v4.64h-2.37v.37h2.51v3.17h-8.77Zm6.23,3.19v3.41h-3.65v-3.41h-2.38v-2.9h8.44v2.9h-2.4Zm-1.33-9.91h-.98v.37h.98v-.37Zm0,1.36h-.98v.38h.98v-.38Zm0,6.88h-.98v.43h.98v-.43Zm1.65,4.87l-.19-2.91h2.38l.29,2.91h-2.48Zm2.53-9.09v-4.45l5.83-1.25v4.45l-5.83,1.25Zm0,4.79v-4.48l5.83-1.26v4.45l-5.83,1.3Zm0,4.66v-4.32l5.83-1.33v4.4l-5.83,1.25Z"/><path class="cls-8" d="M124.9,1126.97h-2.27c-3.71,0-5.63-2.37-5.63-5.73v-8.37h4.51v8.21c0,.7,.45,1.26,1.06,1.26h2.23c.61,0,1.07-.53,1.07-1.22v-1.62h4.69v1.78c0,3.38-1.94,5.68-5.65,5.68Z"/><path class="cls-8" d="M137.7,1117.46l-.37,9.51h-4.4l.37-9.51h-.86v-4.37h1.02l.02-.48h4.4l-.02,.48h9.4v4.37h-9.56Zm4.58,9.54c-3.01,0-4.29-1.68-4.29-4.72,0-2.54,1.5-4.24,4.48-4.24h4.51v3.39h-3.79c-.24,0-.37,.18-.37,.45,0,.29,.08,.46,.37,.46h3.79v4.66h-4.71Z"/><path class="cls-8" d="M162.44,1124.47v.1c0,1.42-.62,2.66-2.62,2.66h-7.49v-2.48h5.59c.32,0,.45-.13,.48-.27h-9.99v-3.23h9.99v-.27h-9.57l.82-3.27h-1.3v-5.15h14.93v5.15h-1.44v.8h-8.2l-.06,.26h8.87v2.48h.83v3.23h-.83Zm-3.23-8.47h-5.03l-.06,.27h5.09v-.27Z"/><path class="cls-8" d="M174.15,1115.99v.27h4.42v6.8h-13.53v-6.8h4.43v-.27h-5.06v-3.28h5.06v-.37h4.67v.37h5.04v3.28h-5.04Zm4.07,10.64l.22,.59h-4.45l-.21-.59h-3.7c-.1,.22-.19,.43-.3,.59h-4.61c.14-.16,.27-.38,.4-.59h-1.15v-3.31h14.77v3.31h-.98Zm-3.97-8.55h-4.95v.35h4.95v-.35Zm0,1.36h-4.95v.38h4.95v-.38Zm0,1.39h-4.95v.35h4.95v-.35Z"/><path class="cls-8" d="M189.7,1124.28h-3.28v-4.63h3.31c.48,0,.66-.21,.66-.61,0-.29-.22-.5-.66-.5h-3.95l.37,8.4h-4.39l-.37-8.4h-.94v-4.37h.75l-.08-1.49h4.39l.08,1.49h2.59v-1.52h4.26v1.87c2.18,.66,2.86,2.24,2.86,4.59,0,3.52-1.81,5.15-5.6,5.15Z"/><path class="cls-8" d="M208.63,1127.26h-2.03v-2.27c-.54,1.2-1.36,1.91-2.53,2.34v-.66c-.69,.32-2.53,.59-7.71,.59v-3.28h1.95v-.27h-1.95v-1.71h1.95v-.27h-1.79v-3.99h1.79v-.29h-1.95v-1.74h1.95v-.29h-1.79v-2.95c5.09,0,6.74-.03,7.62-.24v1.31h.51v-1.18h4.45v1.18h2v10.52c0,2.18-.86,3.2-2.46,3.2Zm-9.16-8.36h-.7v.32h.7v-.32Zm0,1.1h-.7v.35h.7v-.35Zm2.51-1.1h-.69v.32h.69v-.32Zm0,1.1h-.69v.35h.69v-.35Zm2.14-4.88c-.4,.11-.83,.18-1.78,.22v.27h1.78v-.5Zm0,2.61v-.29h-1.78v.29h1.81v3.73c.34-.22,.48-.99,.48-3.73h-.51Zm-.06,3.99h-1.71v.27h1.71v-.27Zm0,1.89h-1.71v.35c.96-.05,1.62-.13,1.71-.22v-.13Zm3.75-5.88h-.27c0,2.13-.1,3.81-.32,5.12h.35c.14,0,.24-.08,.24-.24v-4.88Z"/><path class="cls-8" d="M221.83,1116.36v.4h1.33v6.47h-6.71v-6.47h1.33v-.4h-5.44v-3.83h14.93v3.83h-5.44Zm-9.27,10.71v-10.31h3.52v6.83h7.44v-6.83h3.52v10.31h-14.49Zm6.5-8.15h-.54v.61h.54v-.61Zm0,1.7h-.54v.59h.54v-.59Zm2.03-1.7h-.56v.61h.56v-.61Zm0,1.7h-.56v.59h.56v-.59Z"/><path class="cls-8" d="M235.78,1117.27v.78h6.72v3.31h-2.46v.82h-4.64v-.82h-1.78c-.37,0-.59,.34-.59,.64,0,.38,.14,.67,.59,.67h8.92v4.32h-9.08c-3.35,0-4.87-1.74-4.87-4.5,0-1.91,.93-3.35,2.56-4.02v-1.22h-2.61v-4h2.61v-.54h4.63v.54h7.33v4h-7.33Z"/><path class="cls-8" d="M245.86,1127.26l-.19-1.12c-.11-.62-.3-.9-.78-.9h-.18v-4.39h.64c2.53,0,4.31,1.73,4.8,4.56l.32,1.84h-4.61Z"/><path class="cls-8" d="M51.13,1154.04h-8.42v-4.05h7.44c.24,0,.32-.1,.32-.3v-.05c0-.22-.11-.3-.32-.3h-3.19c-3.23,0-4.51-1.33-4.51-3.84v-.46c0-2.91,1.68-4.03,4.55-4.03h7.57v4.15h-6.74c-.26,0-.37,.13-.37,.3v.06c0,.19,.08,.35,.37,.35h3.55c2.66,0,4.05,1.44,4.05,3.36v.83c0,2.13-1.18,3.99-4.31,3.99Z"/><path class="cls-8" d="M64.59,1154.2c-2.06,0-3.15-1.41-3.84-3.25l-1.54-4.11c-.03-.14-.08-.19-.13-.19-.06,0-.1,.06-.1,.21v7.2h-4.42v-9.19c0-2.62,1.55-3.95,3.71-3.95,2.3,0,3.19,1.41,3.63,2.71l1.6,4.62c.03,.18,.06,.22,.16,.22,.06,0,.13-.05,.13-.22v-7.22h4.43v9.14c0,2.8-1.39,4.03-3.65,4.03Z"/><path class="cls-8" d="M76.03,1154.04h-8.42v-4.05h7.44c.24,0,.32-.1,.32-.3v-.05c0-.22-.11-.3-.32-.3h-3.19c-3.23,0-4.51-1.33-4.51-3.84v-.46c0-2.91,1.68-4.03,4.55-4.03h7.57v4.15h-6.74c-.26,0-.37,.13-.37,.3v.06c0,.19,.08,.35,.37,.35h3.55c2.66,0,4.05,1.44,4.05,3.36v.83c0,2.13-1.18,3.99-4.31,3.99Z"/><path class="cls-8" d="M81.3,1155.21c-1.33-2.29-1.95-4.91-1.95-7.41s.61-5.09,1.94-7.38h4.64c-1.52,2.43-2.19,4.98-2.19,7.38,0,2.05,.45,4.64,2.19,7.41h-4.63Z"/><path class="cls-8" d="M90.38,1154.06c-3.46,0-5.17-1.68-5.17-4.83v-8.23h4.91v7.67c0,.64,.4,1.1,1.2,1.1h6.39v4.29h-7.33Z"/><path class="cls-8" d="M97.48,1154.06v-13.06h4.93v13.06h-4.93Z"/><path class="cls-8" d="M112.27,1154.2c-2.06,0-3.15-1.41-3.84-3.25l-1.54-4.11c-.03-.14-.08-.19-.13-.19-.06,0-.1,.06-.1,.21v7.2h-4.42v-9.19c0-2.62,1.55-3.95,3.71-3.95,2.3,0,3.19,1.41,3.63,2.71l1.6,4.62c.03,.18,.06,.22,.16,.22,.06,0,.13-.05,.13-.22v-7.22h4.43v9.14c0,2.8-1.39,4.03-3.65,4.03Z"/><path class="cls-8" d="M120.19,1154.06c-3.81,0-4.91-2.02-4.91-4.96v-2.48c0-3.31,.7-5.62,4.96-5.62h7.52v4.13h-6.67c-.61,0-.91,.21-1.01,.88h7.11v3.07h-7.12c0,.59,.13,.88,1.02,.88h6.67v4.1h-7.57Z"/><path class="cls-8" d="M131.72,1150.25v-4.59h4.8v4.59h-4.8Z"/><path class="cls-8" d="M149.07,1145.25v8.8h-4.88v-8.8h-4.08v-4.26h12.82v4.26h-3.86Z"/><path class="cls-8" d="M161.34,1154.07h-6.03c-2.46,0-3.89-1.49-3.89-3.75v-5.91h4.24v4.82c0,.61,.29,.77,.9,.77h.1v-5.59h3.31v5.59h.13c.61,0,.9-.16,.9-.77v-4.82h4.24v5.91c0,2.26-1.41,3.75-3.89,3.75Z"/><path class="cls-8" d="M164.29,1144.61v-3.62h4.59v3.62h-4.59Zm0,9.46v-8.72h4.59v8.72h-4.59Z"/><path class="cls-8" d="M174.3,1148.61v.77c0,.43,.06,.51,.58,.51h4.4v4.18h-5.91c-2.66,0-3.6-1.25-3.6-3.15v-2.31h-2v-4.21h2v-1.83h4.53v1.83h5.2v4.21h-5.2Z"/><path class="cls-8" d="M184.19,1148.61v.77c0,.43,.06,.51,.58,.51h4.4v4.18h-5.91c-2.66,0-3.6-1.25-3.6-3.15v-2.31h-2v-4.21h2v-1.83h4.53v1.83h5.2v4.21h-5.2Z"/><path class="cls-8" d="M196.94,1150.28h-4.9c.03,.32,.18,.56,.69,.56h6.92v3.23h-8.28c-2.46,0-3.49-1.1-3.49-3.71v-3.04c0-1.47,.93-2.98,3.22-2.98h5.67c2.1,0,3.14,1.12,3.14,2.87v.51c0,1.6-.67,2.56-2.96,2.56Zm-1.34-2.77c0-.19-.14-.35-.42-.35h-2.46c-.42,0-.69,.24-.69,.62v.14h3.15c.24,0,.42-.1,.42-.34v-.08Z"/><path class="cls-8" d="M204.63,1148.66c-.99,0-1.46,.66-1.46,1.3v4.11h-4.59v-4.21c0-3.84,2.31-5.46,5.03-5.46h5.07v4.26h-4.05Z"/><path class="cls-8" d="M225.39,1144.1v.53h.4v2.24h-4.77v.29h5.07v2.37h-1.41v.27h1.23v3.33h-1.25c-.13,1.38-.86,2.11-2.48,2.11h-3.46v-2.11h-1.33l.77,2.14h-4.71l-.74-2.14h-1.31v-3.33h8.72v-.27h-8.92v-2.37h5.07v-.29h-4.77v-2.24h3.09v-.75h-.37l-.11,.45h-3.09c.24-1.14,.54-3.31,.61-4h4.58l-.03,.37h2.3v2.42c.26-1.12,.48-2.38,.53-2.79h4.43l-.06,.37h2.72v3.41h-.74Zm-7.57-.61v.51h.46c.05-.14,.1-.32,.14-.51h-.61Zm4,.26h-.37l-.11,.58h-.32v.3h.8v-.88Z"/><path class="cls-8" d="M229.03,1155.53h-4.26c1.71-2.91,2.13-5.67,2.13-7.73,0-2.58-.67-5.19-2.13-7.72h4.26c1.3,2.4,1.9,5.14,1.9,7.72s-.61,5.33-1.9,7.73Z"/><path class="cls-8" d="M245.51,1145.27v.78h6.72v3.31h-2.46v.82h-4.64v-.82h-1.78c-.37,0-.59,.34-.59,.64,0,.38,.14,.67,.59,.67h8.92v4.32h-9.08c-3.35,0-4.87-1.74-4.87-4.5,0-1.91,.93-3.35,2.56-4.02v-1.22h-2.61v-4h2.61v-.54h4.63v.54h7.33v4h-7.33Z"/><path class="cls-8" d="M263.44,1155.22h-2v-3.59h.46c.08,0,.14-.06,.14-.16v-.21h-1.07v3.97h-4.18v-3.97h-.91c-.54,2.58-2.05,3.86-4.35,4.05v-5.84c.35-.27,.53-.64,.53-1.55v-7.38h14.09v11.51c0,2.31-1.07,3.17-2.71,3.17Zm-6.26-11.38h-1.04v.75h1.04v-.75Zm0,3.71h-1.04v.74h1.04v-.74Zm4.87-3.71h-1.07v.75h1.07v-.75Zm0,3.71h-1.07v.74h1.07v-.74Z"/><path class="cls-8" d="M275.27,1154.52v-8.61c0-.37-.11-.43-.26-.43-.13,0-.21,.18-.24,.32l-1.14,5.23c-.58,2.64-1.55,3.97-4.18,3.97s-4.34-1.49-4.34-4.4v-9.2h4.39v8.56c0,.4,.08,.46,.21,.46,.14,0,.29-.06,.38-.56l.99-4.82c.53-2.53,1.65-3.99,4.26-3.99,2.82,0,4.37,1.89,4.37,4.42v9.04h-4.45Z"/><path class="cls-8" d="M288.33,1145.64c-2.62,0-3.62,1.62-3.62,3.15,0,1.02,.72,1.5,1.95,1.5h5.68v4.71h-5.79c-4.63,0-6.55-2.27-6.55-5.89,0-1.33,.5-2.5,1.25-3.47h-2.69v-4.58h14.52v4.58h-4.75Z"/><path class="cls-8" d="M51.84,1172.8c-.18,.72-.42,1.41-.72,2.1h1.33v8.34h-4.5v-4.1c-1.38,1.15-3.09,2.08-5.15,2.64v-5.17c2.24-.66,3.73-2.06,4.39-3.81h-4.39v-4.29h14.82v4.29h-5.78Zm1.01,6.05v-4.88l4.77,2.66v4.99l-4.77-2.77Z"/><path class="cls-8" d="M72.63,1179.35v1.41c0,1.52-.77,2.5-2.16,2.5h-2.64v-3.52h.82c.11,0,.14-.1,.14-.21v-.18h-3.91v.38h2.29l.51,3.33h-2.66l-.4-2.79c-.13,.05-.24,.1-.37,.14v2.85h-3.86v-2.03c-.62,.08-1.3,.13-1.98,.18v-4.35c.62,0,1.34-.05,2.1-.14v-2.48h-.22c-.06,.58-.14,.99-.22,1.18h-2.06c.48-1.71,.45-5.15,.45-6.98h2.24c0,.48-.02,1.1-.03,1.78h.32v-2.08h3.28v2.08h.62v1.7h2.19v-.35h-1.87v-3.12h1.87v-.3h4.08v.3h1.89v3.12h-1.89v.35h2.19v3.11h-.72v.38h.72v3.75h-.72Zm-3.84-4.13h-3.97v-.79h-.56v1.68c.22-.08,.4-.18,.56-.26v-.26h3.97v-.38Z"/><path class="cls-8" d="M88.33,1173.52v2.58h-4.1v.38h3.75v2.47h-3.75v.35h4.71v3.83h-7.6c-1.23,0-2.95-.16-4.29-1.15-.72,.64-1.68,1.1-2.91,1.31v-4.61c.82-.18,1.17-1.02,1.17-2.21h3.97c0,.72-.08,1.55-.3,2.37,.18,.16,.42,.27,.72,.34v-3.07h-4.88v-2.58h-.64v-4.67h5.14v-.5h4.61v.5h5.06v4.67h-.64Zm-3.43-1.06h-6.66v.38h6.66v-.38Z"/><path class="cls-8" d="M89.84,1183.26v-4.1c1.98,0,3.63-.08,4.99-.26l-.32-.42c-1.17,.26-2.38,.37-3.54,.37v-2.79c1.22,0,2.51-.22,3.55-.7-1.36,.21-2.93,.38-4.74,.53v-3.28c.69,0,1.33-.02,1.9-.03l-.51-.51c-.35,.02-.74,.05-1.14,.05v-3.09c.85,0,2.61-.26,2.82-.59h10.52v3.38c-.48,.5-1.06,.98-1.78,1.39h3.11v6.02c-3.07,2.79-6.27,4.03-14.87,4.03Zm5.19-11.89c-.34,.13-.7,.22-1.09,.3h1.66l.5,.51c1.14-.22,1.84-.5,2.27-.82h-3.35Zm3.17,5.52c-.18,.14-.37,.27-.58,.4h.72l.53,.7c.85-.32,1.52-.69,2.13-1.1h-2.8Z"/><path class="cls-8" d="M116.92,1181.82c-.91,.75-2.05,1.28-3.44,1.5v-4.31h-.53c-.05,.18-.1,.34-.14,.48l.38,.08v3.71l-2.72-.9c-1.18,.62-2.79,.93-4.99,.93v-3.5c.35,.02,.67,.03,.98,.02l-.51-.3c.1-.13,.21-.3,.32-.51h-.78v-3.01h.02v-2.93c.56-.05,.99-.19,1.33-.43h-1.34v-3.38h.35c-.03-.29-.06-.59-.13-.93h1.97c.05,.32,.08,.62,.11,.93h.35v-.93h2.88v.93h.3l.11-.93h2.05l-.13,.93h.29v2.61c.22-.62,.4-1.71,.4-3.54h3.99v.59h2.39v4.45h-.24c-.08,1.73-.34,3.31-.82,4.71,.34,.1,.69,.16,1.06,.18v5.06c-1.34-.18-2.51-.75-3.49-1.5Zm-3.76-6.02l-1.79-.93v.58h-3.68v-.64c-.48,.51-1.06,.93-1.7,1.2h1.55c.03-.1,.06-.19,.08-.3h3.81l-.13,.3h1.86v-.21Zm-3.62,2.58c-.03,.11-.08,.21-.13,.3l.59,.18c.13-.14,.21-.3,.29-.48h-.75Zm3.62-5.73h-1.46l1.46,.59v-.59Zm.62,4.55c-.08,.05-.14,.1-.24,.13v1.33c.27-.05,.51-.11,.75-.21-.21-.42-.37-.83-.51-1.25Zm2.83-3.81c-.22,.69-.5,1.3-.83,1.82h.72c0,.35,.05,.64,.11,.9,.22-.7,.34-1.57,.35-2.72h-.35Z"/><path class="cls-8" d="M131.16,1183.05h-.93v-3.81c-.45,2.86-2.06,3.81-4.26,3.81-2.54,0-4.67-1.63-4.67-5.17v-3.04c0-4.11,2.79-6.08,5.99-6.08h2.5c3.73,0,6.11,2.54,6.11,6.03v2.62c0,3.6-1.78,5.63-4.74,5.63Zm-4.45-9.4c-.78,.14-1.23,.62-1.23,1.5v2.26c0,.59,.27,.72,.58,.72,.38,0,.66-.26,.66-.72v-3.76Zm4.83,1.55c0-.8-.26-1.36-1.18-1.55v4.35h.21c.61,0,.98-.24,.98-1.06v-1.75Z"/><path class="cls-8" d="M144.42,1178.92c-1.9,2.3-4.75,3.84-7.62,4.34v-5.35c2.98-.45,5.04-2.29,5.04-5.36v-4.16h4.83v3.81c0,3.28,2.11,5.41,5.09,5.71v5.35c-3.19-.4-5.7-2.07-7.35-4.34Z"/><path class="cls-8" d="M163.99,1179.64v-3.92c0-.38-.18-.59-.64-.61v4.31c0,2.13-.75,3.54-3.23,3.54h-2.02v-4.5h.58c.35,0,.54-.13,.54-.58v-2.16c0-.37-.21-.46-.46-.46h-.91l-.5,7.7h-4.23l.51-7.7h-1.09v-4.69h1.39l.11-1.78h4.21l-.11,1.78h.51c3.2,0,4.31,1.14,4.59,3.39v-2.98h4.24v1.83h-.64c.62,.85,.82,2.06,.82,3.55v3.28h-3.68Zm-.74-9.17v-1.82h4.24v1.82h-4.24Z"/><path class="cls-8" d="M172.21,1175.89v7.35l-3.76-.02v-14.68h7.06v7.35h-3.3Zm.37-4.95h-.64v.7h.64v-.7Zm0,2.38h-.64v.71h.64v-.71Zm5.65,9.92h-1.25c-.93,0-1.49-.77-1.49-1.62v-.9h-.11c-.18,1.49-.91,2.46-2.88,2.58v-2.27c.32,0,.51-.06,.62-.3h-.64v-3.91h.38c-.08-.22-.16-.45-.3-.66h2.75c.08,.19,.14,.42,.21,.66h.32l.13-.66h2.75l-.14,.66h.27v3.91h-1.04v.14c0,.13,.08,.21,.18,.21h.35c.22,0,.35-.05,.54-.18v2.13c-.14,.13-.43,.21-.66,.21Zm-2.23-4.74h-.67v.53h.67v-.53Zm3.15,4.72v-7.35h-3.3v-7.35h7.06v14.68l-3.76,.02Zm.27-12.29h-.64v.7h.64v-.7Zm0,2.38h-.64v.71h.64v-.71Z"/><path class="cls-8" d="M197.01,1183.24h-3.73c-1.14,0-1.94-.72-1.94-2.16v-.94h-.16c-.61,2.05-1.78,3.11-7.31,3.11v-2.72c1.62,0,2.67-.05,3.09-.38h-2.74v-5.59h14.2v5.59h-3.14v.05c0,.14,.06,.22,.24,.22h1.54c.58,0,1.22-.02,1.74-.27v2.79c-.42,.22-1.07,.32-1.79,.32Zm-4.88-8.98v-2.34h-.26v.43h-1.07v.29h1.07v1.62h-7.92v-5.92h7.92v1.55h-1.07v.29h1.07v.58c.34-.87,.43-1.81,.43-2.42h4.07c0,.14,0,.29-.02,.43h2.45v2.72h-3.03c-.05,.11-.1,.22-.14,.3h3.17v2.46h-6.67Zm-3.84-4.53h-.64v.45h.64v-.45Zm.51,1.42h-1.15v.37h1.15v-.37Zm-.51,1.2h-.64v.45h.64v-.45Zm5.57,3.54h-5.04v.42h5.04v-.42Zm0,1.18h-5.04v.4h5.04v-.4Zm0,1.22h-5.04v.42h5.04v-.42Z"/><path class="cls-8" d="M211.76,1172.92v.72h-2.29c-2.62,0-3.63,1.62-3.63,3.15,0,1.02,.74,1.5,1.97,1.5h5.7v4.71h-5.81c-4.64,0-6.56-2.27-6.56-5.89,0-1.33,.51-2.5,1.26-3.47h-2.69v-4.58h10.84v-.27h3.89v1.83h-2.67v.51h2.67v1.79h-2.67Z"/><path class="cls-8" d="M227.65,1176.85l.03,1.12h-6.66c-.34,0-.48,.16-.48,.37,0,.24,.18,.37,.48,.37h8.47v4.26h-9.27c-2.71,0-4.27-1.52-4.27-3.83,0-.78,.18-1.5,.51-2.1h-1.17v-3.43h7.64l-.02-.58h-7.62v-3.68h7.52l-.03-.62h4.63l.03,.62h2.71v3.68h-2.61l.02,.58h2.59v3.23h-2.5Z"/><path class="cls-8" d="M238.93,1183h-3.39c-2.77,0-4.42-1.55-4.42-4v-.61c0-2.22,1.78-3.6,3.83-3.6h.3v-1.46h-3.87v-4.53h8.74v2.77c4.07,.14,5.6,2.16,5.6,5.36v.61c0,2.96-1.66,5.46-6.79,5.46Zm-3.01-4.53c0-.4-.27-.64-.51-.64h-.14c-.37,0-.62,.24-.62,.59s.24,.62,.7,.62h.58v-.58Zm3.38-2.82h-1.02c.7,.67,1.1,1.65,1.18,2.71h.03c.8,0,1.1-.53,1.1-1.39,0-.72-.3-1.31-1.3-1.31Z"/><path class="cls-8" d="M247.82,1183.22v-1.81c-.38,.27-.78,.46-1.25,.69v-4.62c.42-.13,.78-.32,1.25-.67v-2.27l-1.25-.4v-4.21l1.25,.4v-1.94h4.02v14.84h-4.02Zm9.03-3.87c-1.1,1.99-2.69,3.46-4.72,3.94v-5.06c1.06-.53,1.7-1.41,2.03-2.79h-2.03v-4.4h2.4v-2.69h4.26v2.69h2.77v4.4h-2.37c.45,1.47,1.22,2.21,2.37,2.69v5.15c-2.14-.61-3.67-2.02-4.71-3.94Zm2.51-8.58l-.37-2.42h2.08l.43,2.42h-2.15Z"/><path class="cls-8" d="M275.35,1183.21h-1.38c-1.14,0-2-.82-2-2.46v-3.03h-.3c-.35,3.06-1.79,5.11-5.17,5.6v-3.71c-.08,1.38-.22,2.88-.43,3.55h-4.08c.42-1.44,.64-5.73,.64-6.16h4c0,.21-.02,.96-.08,1.87,.7-.19,1.14-.21,1.34-1.15h-.83v-9.28h9.78v9.28h-1.07v.9c0,.19,.13,.37,.3,.37h.27c.35,0,.7-.13,.86-.35v4.11c-.4,.35-1.14,.46-1.86,.46Zm-13.08-10.98v-3.84l4.35,.51v3.83l-4.35-.5Zm0,4.07v-3.81l4.35,.5v3.84l-4.35-.53Zm10.29-3.71h-1.23v1.1h1.23v-1.1Z"/><path class="cls-8" d="M278.24,1182.95v-14.09h4.15v14.09h-4.15Zm11.35-5.71l-2.08,.78c-.18,.06-.29,.16-.29,.3,0,.18,.11,.22,.37,.22h5.23v4.27h-5.94c-2.66,0-4.07-1.41-4.07-4.32,0-1.73,.67-3.03,3.68-4.07l1.66-.58c.21-.11,.27-.18,.27-.35,0-.11-.06-.24-.3-.24l-5.06,.02v-4.21h5.84c2.64,0,4.16,1.14,4.16,4.08,0,2.38-1.15,3.2-3.49,4.08Z"/><path class="cls-8" d="M85.19,1201.17v9.99h-4.66v-.74h-3.23c-3.09,0-4.37-2.08-4.37-4.39s1.28-4.19,4.37-4.19h3.23v-.67h-7.97v-4.07h7.97v-.4h4.66v.4h2.06v4.07h-2.06Zm-4.66,4.07h-2.85c-.45,0-.62,.18-.62,.48,0,.34,.22,.5,.62,.5h2.85v-.98Z"/><path class="cls-8" d="M96.37,1211h-3.39c-2.77,0-4.42-1.55-4.42-4v-.61c0-2.22,1.78-3.6,3.83-3.6h.3v-1.46h-3.87v-4.53h8.74v2.77c4.07,.14,5.6,2.16,5.6,5.36v.61c0,2.96-1.66,5.46-6.79,5.46Zm-3.01-4.53c0-.4-.27-.64-.51-.64h-.14c-.37,0-.62,.24-.62,.59s.24,.62,.7,.62h.58v-.58Zm3.38-2.82h-1.02c.7,.67,1.1,1.65,1.18,2.71h.03c.8,0,1.1-.53,1.1-1.39,0-.72-.3-1.31-1.3-1.31Z"/><path class="cls-8" d="M108.99,1211c-3.27,0-4.43-1.58-4.43-4.79,0-2.71,1.95-4.13,4.66-4.13h4.56c.3,0,.48-.11,.48-.46,0-.22-.22-.38-.48-.38h-8.5v-4.4h8.64c3.38,0,4.91,1.62,4.91,4.91,0,2.67-1.73,4-5.04,4h-4.11c-.43,0-.61,.24-.61,.46,0,.24,.18,.46,.61,.46h9.24v4.32h-9.92Z"/><path class="cls-8" d="M130.84,1203.77h-3.76c-.91,0-1.58,.43-1.58,1.33s.64,1.36,1.58,1.36h8v4.53h-8.68c-3.94,0-5.87-2.24-5.87-5.89,0-2.11,.93-3.83,2.43-4.83v-3.3h4.63v2.34h2.51c.37,0,.56-.24,.56-.58v-.7h4.66v1.23c0,3.41-1.65,4.51-4.48,4.51Z"/><path class="cls-8" d="M149.67,1201.59v1.62h1.5v4.56h-1.33c-.05,2.35-1.22,3.3-3.71,3.3h-1.28c-1.39,0-2.4-.64-2.96-1.76v1.68h-1.42c-2.72,0-3.91-1.2-3.91-3.71v-10.47h4.39v9.2c0,.43,.1,.56,.48,.58,.13-2.21,1.73-3.38,3.7-3.38h.05v-1.62h-3.62v-4.19h3.62v-.59h4.5v.59h1.52v4.19h-1.52Zm-3.57,4.74h-.67c-.27,0-.51,.18-.51,.48,0,.38,.19,.58,.54,.58h.13c.29,0,.51-.24,.51-.56v-.5Z"/><path class="cls-8" d="M152.35,1206.12v-5.39h14.92v5.39h-14.92Z"/><path class="cls-8" d="M180.16,1211.24h-2.58v-2.83c-.69,1.28-1.76,2.19-3.38,2.82v-5.68c.62-.3,.98-1.07,1.06-4.74h-.78v2.91l-1.5,.16v2.11c0,.06,.05,.11,.1,.11h.08c.35,0,.5-.03,.78-.19v4.59c-.26,.19-1.15,.29-1.6,.29h-1.55c-1.02,0-1.92-.59-1.92-2.02v-4.5l-.5,.05v-4.59l.5-.03v-3.36h4.11v2.98l1.47-.13v-2.77h8.63v11.92c0,2.35-1.23,2.9-2.91,2.9Zm-.96-10.44h-.3c-.05,2.48-.21,4.5-.7,6.11h.72c.16,0,.29-.11,.29-.35v-5.76Z"/><path class="cls-8" d="M194.05,1208.36v2.88h-4.42v-2.88h-5.23v-3.14h14.81v3.14h-5.15Zm4.85-5.67v2.26h-14.2v-2.26c-.08,.03-.18,.08-.29,.1v-3.15c.43-.05,.78-.22,1.06-.45h-1.06v-2.59h1.44v-.27h4.18v.27h1.58v2.59h-.98l.98,.5v2.98h.35v-3.12c.4-.05,.77-.18,1.07-.35h-1.07v-2.59h1.55v-.27h4.18v.27h1.49v2.59h-1.17c.34,.24,.77,.4,1.17,.45v3.15c-.1-.03-.19-.06-.29-.1Zm-10.28,8.47h-4.16c.48-.59,.77-1.6,.77-2.53h3.94c0,.64-.22,2.02-.54,2.53Zm1.04-9.38v.61h-3.44v-.53c-.42,.34-.9,.61-1.44,.8h6.67l-1.79-.88Zm7.67,.08v.53h-3.44v-.56c-.45,.34-.98,.62-1.55,.83h6.5c-.54-.21-1.04-.46-1.5-.8Zm-2.27,9.3l-.64-2.53h4.1l.74,2.53h-4.19Z"/><path class="cls-8" d="M200.34,1211.05v-4.37h.83v-8.61h4.43v8.61h.94v-10.29h4.45v3.34h4v4.4h-4v2.54h4.27v4.37h-14.93Z"/><path class="cls-8" d="M224.9,1210.97h-2.27c-3.71,0-5.63-2.37-5.63-5.73v-8.37h4.51v8.21c0,.7,.45,1.26,1.06,1.26h2.23c.61,0,1.07-.53,1.07-1.22v-1.62h4.69v1.78c0,3.38-1.94,5.68-5.65,5.68Z"/><path class="cls-8" d="M243.19,1210.26v-1.94c0-.35-.1-.56-.45-.59,0,2.1-.82,3.31-3.31,3.31h-3.78c-2.39,0-3.31-1.46-3.31-3.41,0-2.1,1.38-3.14,3.6-3.14h2.67v-.53h-5.63v-3.11h5.63v-.58h-5.63v-3.14h5.63v-.53h4.5v.53h3.43v3.14h-3.43v.58h3.43v3.11h-3.43v.53h.38c2.48,0,3.78,1.39,3.78,3.63v2.13h-4.08Zm-4.58-3.28h-2.11c-.26,0-.35,.19-.35,.35,0,.18,.13,.32,.35,.32h1.73c.3,0,.38-.1,.38-.3v-.37Z"/><path class="cls-8" d="M261.19,1201.17v9.99h-4.66v-.74h-3.23c-3.09,0-4.37-2.08-4.37-4.39s1.28-4.19,4.37-4.19h3.23v-.67h-7.97v-4.07h7.97v-.4h4.66v.4h2.06v4.07h-2.06Zm-4.66,4.07h-2.85c-.45,0-.62,.18-.62,.48,0,.34,.22,.5,.62,.5h2.85v-.98Z"/></g></g></g></g></svg>