<?xml version="1.0" encoding="UTF-8"?><svg id="_レイヤー_2" xmlns="http://www.w3.org/2000/svg" xmlns:xlink="http://www.w3.org/1999/xlink" viewBox="0 0 137.41 164.13"><defs><style>.cls-1{fill:#f2bfd7;}.cls-2{fill:#5ca6bb;}.cls-3{stroke:url(#_新規パターンスウォッチ_3);stroke-width:8px;}.cls-3,.cls-4{fill:none;}.cls-5{fill:#edaecb;}.cls-6{fill:#dfbc56;}.cls-7{fill:#deeee8;}.cls-8{fill:#f7d15f;}</style><pattern id="_新規パターンスウォッチ_3" x="0" y="0" width="30.78" height="26.28" patternTransform="translate(-1301.65 970.59) scale(1.28)" patternUnits="userSpaceOnUse" viewBox="0 0 30.78 26.28"><g><rect class="cls-4" width="30.78" height="26.28"/><rect class="cls-7" width="30.78" height="26.28"/></g></pattern></defs><g id="_スタンプラリー"><g id="_傘"><g><g><g><path class="cls-3" d="M99.47,139.57l-5.9,2.2L44.01,8.72l-.52-5.95c-.14-1.64,1.96-2.42,2.93-1.09l3.5,4.84,49.56,133.05Z"/><path class="cls-3" d="M45.12,1c.47,0,.95,.21,1.29,.68l3.5,4.84,49.56,133.05-5.9,2.2L44.01,8.72l-.52-5.95c-.09-1.06,.76-1.77,1.63-1.77m0-1h0c-.75,0-1.47,.31-1.97,.86-.49,.54-.73,1.24-.66,1.99l.52,5.95v.13s.06,.13,.06,.13l49.56,133.05,.35,.94,.94-.35,5.9-2.2,.94-.35-.35-.94L50.85,6.17l-.05-.13-.08-.11-3.5-4.84c-.5-.69-1.27-1.09-2.1-1.09h0Z"/></g><g><polygon class="cls-3" points="93.6 123.87 90.63 133.92 93.57 141.77 96.54 131.71 93.6 123.87"/><path class="cls-3" d="M93.6,123.87l2.94,7.84-2.97,10.06-2.94-7.84,2.97-10.06m-.11-3.15l-.85,2.87-2.97,10.06-.09,.32,.12,.31,2.94,7.84,1.05,2.8,.85-2.87,2.97-10.06,.09-.32-.12-.31-2.94-7.84-1.05-2.8h0Z"/></g><g><polygon class="cls-3" points="87.24 106.87 84.26 116.93 87.2 124.77 90.17 114.72 87.24 106.87"/><path class="cls-3" d="M87.24,106.87l2.94,7.84-2.97,10.06-2.94-7.84,2.97-10.06m-.11-3.15l-.85,2.87-2.97,10.06-.09,.32,.12,.31,2.94,7.84,1.05,2.8,.85-2.87,2.97-10.06,.09-.32-.12-.31-2.94-7.84-1.05-2.8h0Z"/></g><g><polygon class="cls-3" points="80.87 89.88 77.9 99.94 80.84 107.78 83.81 97.72 80.87 89.88"/><path class="cls-3" d="M80.87,89.88l2.94,7.84-2.97,10.06-2.94-7.84,2.97-10.06m-.11-3.15l-.85,2.87-2.97,10.06-.09,.32,.12,.31,2.94,7.84,1.05,2.8,.85-2.87,2.97-10.06,.09-.32-.12-.31-2.94-7.84-1.05-2.8h0Z"/></g><g><polygon class="cls-3" points="74.62 72.84 71.65 82.9 74.59 90.74 77.56 80.69 74.62 72.84"/><path class="cls-3" d="M74.62,72.84l2.94,7.84-2.97,10.06-2.94-7.84,2.97-10.06m-.11-3.15l-.85,2.87-2.97,10.06-.09,.32,.12,.31,2.94,7.84,1.05,2.8,.85-2.87,2.97-10.06,.09-.32-.12-.31-2.94-7.84-1.05-2.8h0Z"/></g><polygon class="cls-3" points="68.25 55.85 65.28 65.91 68.22 73.75 71.19 63.69 68.25 55.85"/><polygon class="cls-3" points="62.01 38.81 59.03 48.87 61.97 56.71 64.94 46.65 62.01 38.81"/><polygon class="cls-3" points="55.75 22.1 52.77 32.16 55.71 40 58.68 29.94 55.75 22.1"/></g><path class="cls-3" d="M42.66,20.7C10.23,38.7-2.89,78,11.07,111.44c.61,1.45,5.23,16.06,3.09,30.33-1.08,7.2,8.41,5.76,5.77-2.53-5.63-17.65-1.4-25.1-.4-26.07,5.14-4.94,14.18-11.58,26.64-12.9,1.26-.13,2.42-.75,3.25-1.7,8.46-9.66,21.44-13.36,26.3-14.45,1.21-.27,2.28-.96,3.03-1.95,3.04-4.03,12.31-14.51,27.03-15.27,1.43-.07,2.76-.73,3.68-1.83,7.76-9.27,17.59-13.31,24.12-15.05,3.51-.93,4.94-5.1,2.85-8.07C115.46,12.37,75.11,2.68,42.66,20.7Z"/><path class="cls-3" d="M102.22,138.58l4.03,10.96c.73,1.98,2.93,3,4.91,2.27h0c1.98-.73,3-2.93,2.27-4.91l-1.95-5.29c-1.15-3.13,.45-6.6,3.58-7.75h0c3.13-1.15,6.6,.45,7.75,3.58l1.95,5.29c3.03,8.24-1.19,17.38-9.44,20.42h0c-8.24,3.03-17.38-1.19-20.42-9.44l-4.03-10.96,11.34-4.17Z"/><path class="cls-3" d="M47.23,7.9C12.43,20.7-6.58,57.52,2.08,92.71c.29,1.19,2.05,4.95,3.23,6.31,5.96,6.87,2.74,24.58,7.57,20.42,7.13-6.14-6.45-14.86,3.59-24.75,5.78-5.69,9.5-8.23,22.02-7.62,1.26,.06,2.5-.37,3.47-1.18,9.84-8.24,23.23-9.9,28.21-10.24,1.24-.08,2.4-.6,3.3-1.46,3.62-3.52,14.39-12.44,29.06-10.93,1.42,.15,2.84-.3,3.92-1.24,9.1-7.97,19.42-10.45,26.15-11.16,3.61-.38,5.67-4.28,4.05-7.53C120.44,10.86,82.07-4.92,47.23,7.9Z"/><path class="cls-3" d="M124.7,25.47c-1.17,.39-2.35,.61-3.76,.67-.38,.02-.74,.18-1.01,.45-2.73,2.74-6.71,3.6-8.19,3.84-.37,.06-.71,.24-.95,.53-.99,1.15-3.99,4.13-8.43,4.07-.43,0-.85,.17-1.14,.48-2.52,2.64-5.55,3.66-7.55,4.06-1.07,.21-1.67,1.49-1.01,2.37,1.46,1.96,11.99-.39,22.11-5.18,5.52-2.62,9.91-5.49,12.85-8.03"/><path class="cls-3" d="M26.12,78.12c10.11-4.79,16.43-10.45,16.96-13.3,.16-.85-1.33-2-2.51-.69-1.44,1.6-4.49,3.21-8.27,3.37-.38,.02-.74,.18-1.01,.45-2.73,2.74-6.71,3.6-8.19,3.84-.37,.06-.71,.24-.95,.53-.99,1.15-3.99,4.13-8.43,4.07-.43,0-.85,.17-1.14,.48-2.52,2.64-5.55,3.66-7.55,4.06-1.07,.21-1.67,1.49-1.01,2.37,1.46,1.96,11.99-.39,22.11-5.18Z"/><path class="cls-3" d="M50.22,44.42c10.11-4.79,16.43-10.45,16.96-13.3,.16-.85-1.33-2-2.51-.69-1.44,1.6-4.49,3.21-8.27,3.37-.38,.02-.74,.18-1.01,.45-2.73,2.74-6.71,3.6-8.19,3.84-.37,.06-.71,.24-.95,.53-.99,1.15-3.99,4.13-8.43,4.07-.43,0-.85,.17-1.14,.48-2.52,2.64-5.55,3.66-7.55,4.06-1.07,.21-1.67,1.49-1.01,2.37,1.46,1.96,11.99-.39,22.11-5.18Z"/><path class="cls-3" d="M29.82,17.46c-.85,.95-2.28,1.9-4.08,2.55,0,0-7.22,6.09-11.07,11.76-.15,.21,.47-.22,.71-.33,10.11-4.79,16.43-10.45,16.96-13.3,.16-.85-1.33-2-2.51-.69Z"/><path class="cls-3" d="M78.84,3.85c-1.51,1.17-3.75,2.36-6.58,2.33-.43,0-.85,.17-1.14,.48-2.52,2.64-5.55,3.66-7.55,4.06-1.07,.21-1.67,1.49-1.01,2.37,1.46,1.96,11.99-.39,22.11-5.18,1.61-.76,2.89-1.46,4.54-2.35-4.58-1.32-10.36-1.71-10.36-1.71Z"/></g><g><g><path class="cls-6" d="M99.47,139.57l-5.9,2.2L44.01,8.72l-.52-5.95c-.14-1.64,1.96-2.42,2.93-1.09l3.5,4.84,49.56,133.05Z"/><polygon class="cls-8" points="93.6 123.87 90.63 133.92 93.57 141.77 96.54 131.71 93.6 123.87"/><polygon class="cls-8" points="87.24 106.87 84.26 116.93 87.2 124.77 90.17 114.72 87.24 106.87"/><polygon class="cls-8" points="80.87 89.88 77.9 99.94 80.84 107.78 83.81 97.72 80.87 89.88"/><polygon class="cls-8" points="74.62 72.84 71.65 82.9 74.59 90.74 77.56 80.69 74.62 72.84"/><polygon class="cls-5" points="68.25 55.85 65.28 65.91 68.22 73.75 71.19 63.69 68.25 55.85"/><polygon class="cls-5" points="62.01 38.81 59.03 48.87 61.97 56.71 64.94 46.65 62.01 38.81"/><polygon class="cls-5" points="55.75 22.1 52.77 32.16 55.71 40 58.68 29.94 55.75 22.1"/></g><path class="cls-5" d="M42.66,20.7C10.23,38.7-2.89,78,11.07,111.44c.61,1.45,5.23,16.06,3.09,30.33-1.08,7.2,8.41,5.76,5.77-2.53-5.63-17.65-1.4-25.1-.4-26.07,5.14-4.94,14.18-11.58,26.64-12.9,1.26-.13,2.42-.75,3.25-1.7,8.46-9.66,21.44-13.36,26.3-14.45,1.21-.27,2.28-.96,3.03-1.95,3.04-4.03,12.31-14.51,27.03-15.27,1.43-.07,2.76-.73,3.68-1.83,7.76-9.27,17.59-13.31,24.12-15.05,3.51-.93,4.94-5.1,2.85-8.07C115.46,12.37,75.11,2.68,42.66,20.7Z"/><path class="cls-2" d="M102.22,138.58l4.03,10.96c.73,1.98,2.93,3,4.91,2.27h0c1.98-.73,3-2.93,2.27-4.91l-1.95-5.29c-1.15-3.13,.45-6.6,3.58-7.75h0c3.13-1.15,6.6,.45,7.75,3.58l1.95,5.29c3.03,8.24-1.19,17.38-9.44,20.42h0c-8.24,3.03-17.38-1.19-20.42-9.44l-4.03-10.96,11.34-4.17Z"/><path class="cls-1" d="M47.23,7.9C12.43,20.7-6.58,57.52,2.08,92.71c.29,1.19,2.05,4.95,3.23,6.31,5.96,6.87,2.74,24.58,7.57,20.42,7.13-6.14-6.45-14.86,3.59-24.75,5.78-5.69,9.5-8.23,22.02-7.62,1.26,.06,2.5-.37,3.47-1.18,9.84-8.24,23.23-9.9,28.21-10.24,1.24-.08,2.4-.6,3.3-1.46,3.62-3.52,14.39-12.44,29.06-10.93,1.42,.15,2.84-.3,3.92-1.24,9.1-7.97,19.42-10.45,26.15-11.16,3.61-.38,5.67-4.28,4.05-7.53C120.44,10.86,82.07-4.92,47.23,7.9Z"/><path class="cls-5" d="M124.7,25.47c-1.17,.39-2.35,.61-3.76,.67-.38,.02-.74,.18-1.01,.45-2.73,2.74-6.71,3.6-8.19,3.84-.37,.06-.71,.24-.95,.53-.99,1.15-3.99,4.13-8.43,4.07-.43,0-.85,.17-1.14,.48-2.52,2.64-5.55,3.66-7.55,4.06-1.07,.21-1.67,1.49-1.01,2.37,1.46,1.96,11.99-.39,22.11-5.18,5.52-2.62,9.91-5.49,12.85-8.03"/><path class="cls-5" d="M26.12,78.12c10.11-4.79,16.43-10.45,16.96-13.3,.16-.85-1.33-2-2.51-.69-1.44,1.6-4.49,3.21-8.27,3.37-.38,.02-.74,.18-1.01,.45-2.73,2.74-6.71,3.6-8.19,3.84-.37,.06-.71,.24-.95,.53-.99,1.15-3.99,4.13-8.43,4.07-.43,0-.85,.17-1.14,.48-2.52,2.64-5.55,3.66-7.55,4.06-1.07,.21-1.67,1.49-1.01,2.37,1.46,1.96,11.99-.39,22.11-5.18Z"/><path class="cls-5" d="M50.22,44.42c10.11-4.79,16.43-10.45,16.96-13.3,.16-.85-1.33-2-2.51-.69-1.44,1.6-4.49,3.21-8.27,3.37-.38,.02-.74,.18-1.01,.45-2.73,2.74-6.71,3.6-8.19,3.84-.37,.06-.71,.24-.95,.53-.99,1.15-3.99,4.13-8.43,4.07-.43,0-.85,.17-1.14,.48-2.52,2.64-5.55,3.66-7.55,4.06-1.07,.21-1.67,1.49-1.01,2.37,1.46,1.96,11.99-.39,22.11-5.18Z"/><path class="cls-5" d="M29.82,17.46c-.85,.95-2.28,1.9-4.08,2.55,0,0-7.22,6.09-11.07,11.76-.15,.21,.47-.22,.71-.33,10.11-4.79,16.43-10.45,16.96-13.3,.16-.85-1.33-2-2.51-.69Z"/><path class="cls-5" d="M78.84,3.85c-1.51,1.17-3.75,2.36-6.58,2.33-.43,0-.85,.17-1.14,.48-2.52,2.64-5.55,3.66-7.55,4.06-1.07,.21-1.67,1.49-1.01,2.37,1.46,1.96,11.99-.39,22.11-5.18,1.61-.76,2.89-1.46,4.54-2.35-4.58-1.32-10.36-1.71-10.36-1.71Z"/></g></g></g></svg>