<svg xmlns="http://www.w3.org/2000/svg" viewBox="0 0 738.72 850.63"><defs><style>.cls-1{fill:#f2bd47;}.cls-2{fill:#e4eaee;}.cls-3{fill:#f2d52d;}.cls-4{fill:#e95646;}.cls-5{fill:#f2f9fd;stroke:#448a45;stroke-miterlimit:10;stroke-width:20px;}.cls-6{fill:#448a45;}.cls-7{fill:#f6cf5e;}</style></defs><g id="レイヤー_2" data-name="レイヤー 2"><g id="前夕祭"><circle class="cls-1" cx="613.34" cy="188.05" r="119.39"/><path class="cls-2" d="M613.34,71.66a116.4,116.4,0,1,1-116.4,116.39A116.39,116.39,0,0,1,613.34,71.66m0-6a122.4,122.4,0,1,0,86.54,35.85,121.6,121.6,0,0,0-86.54-35.85Z"/><circle class="cls-3" cx="365.63" cy="744.66" r="102.98"/><path class="cls-2" d="M365.63,644.68a100,100,0,1,1-100,100,100,100,0,0,1,100-100m0-6a106,106,0,1,0,106,106,106.1,106.1,0,0,0-106-106Z"/><path class="cls-4" d="M216.4,546.2a22.4,22.4,0,1,1,22.4-22.4A22.41,22.41,0,0,1,216.4,546.2Z"/><path class="cls-2" d="M216.4,504.41A19.4,19.4,0,1,1,197,523.8a19.39,19.39,0,0,1,19.39-19.39m0-6a25.4,25.4,0,1,0,25.4,25.39,25.42,25.42,0,0,0-25.4-25.39Z"/><path class="cls-1" d="M377.57,186.58A25.39,25.39,0,1,1,403,161.19,25.42,25.42,0,0,1,377.57,186.58Z"/><path class="cls-2" d="M377.57,138.81a22.39,22.39,0,1,1-22.39,22.38,22.38,22.38,0,0,1,22.39-22.38m0-6A28.39,28.39,0,1,0,406,161.19a28.42,28.42,0,0,0-28.38-28.38Z"/><path class="cls-3" d="M101.5,507.41a98.51,98.51,0,1,1,97.38-113.22L231.3,400a3,3,0,0,1,.09,5.88l-31.47,6.63a98.51,98.51,0,0,1-98.42,94.86Z"/><path class="cls-2" d="M101.5,313.4a95.5,95.5,0,0,1,94.71,83.36L230.77,403,197,410.1a95.49,95.49,0,1,1-95.48-96.7m0-6A101.5,101.5,0,1,0,202.8,415L232,408.86a6,6,0,0,0-.17-11.78l-30.33-5.46a101.64,101.64,0,0,0-100-84.22Z"/><path class="cls-4" d="M276.39,181.65a3,3,0,0,1-2.7-1.7L260.78,153a76.7,76.7,0,0,1-9.22.56,75.31,75.31,0,1,1,26-4.64l1.82,29.53a3,3,0,0,1-2.24,3.08A2.89,2.89,0,0,1,276.39,181.65Z"/><path class="cls-2" d="M251.56,6a72.29,72.29,0,0,1,22.88,140.86l1.95,31.79-13.85-28.9a73.61,73.61,0,0,1-11,.83A72.29,72.29,0,1,1,251.56,6m0-6a78.29,78.29,0,1,0,0,156.58c2.47,0,5-.12,7.43-.35l12,25a6,6,0,0,0,11.4-3L280.7,151A78.29,78.29,0,0,0,251.56,0Z"/><path class="cls-1" d="M241.39,208.33A3,3,0,0,1,240,208l-26.1-13.46a55.84,55.84,0,1,1,11.57-12.36l18.18,21.2a3,3,0,0,1-2.27,5Z"/><path class="cls-2" d="M179.27,97.6a53,53,0,0,1,42.4,84.74l19.72,23L213.53,191A53,53,0,1,1,179.27,97.6m0-6a59,59,0,1,0,34.95,106.47l24.42,12.59a6,6,0,0,0,7.3-9.24l-16.71-19.49a58.45,58.45,0,0,0,9-31.35,59,59,0,0,0-59-59Z"/><path class="cls-1" d="M646.17,674.54A67.25,67.25,0,0,1,579,607.37a68.08,68.08,0,0,1,.91-11l-28.48-18.76a3,3,0,0,1,1.65-5.51,3,3,0,0,1,.59.06l31.85,6.35a67.17,67.17,0,1,1,60.65,96Z"/><path class="cls-2" d="M646.17,543.2a64.18,64.18,0,1,1-62.95,51.73l-30.14-19.85,34.19,6.81a64.17,64.17,0,0,1,58.9-38.69m0-6a70.14,70.14,0,0,0-62.31,37.9l-29.6-5.9a6,6,0,0,0-4.48,10.89l26.88,17.71a70.16,70.16,0,1,0,69.51-60.6Z"/><path class="cls-4" d="M555.89,799.88a33.58,33.58,0,0,1-28.59-51.21l-12.63-22.35a3,3,0,0,1,2.61-4.48,3,3,0,0,1,1.87.65l19.14,15.19a33.59,33.59,0,1,1,17.6,62.2Z"/><path class="cls-2" d="M517.28,724.84l20.86,16.55a30.54,30.54,0,1,1-7.33,7.39l-13.53-23.94m0-6a6,6,0,0,0-5.22,8.95l11.78,20.85a36.56,36.56,0,1,0,14.72-14.58L521,720.14a6,6,0,0,0-3.73-1.3Z"/><path class="cls-1" d="M124.72,682.17a57.56,57.56,0,1,1,37.11-101.54l28.35-13.18a3,3,0,0,1,3.46,4.77l-20.23,21.72a57.55,57.55,0,0,1-48.69,88.23Z"/><path class="cls-2" d="M124.72,570.06a54.38,54.38,0,0,1,36.6,14.11l30.13-14L169.6,593.62a54.54,54.54,0,1,1-44.88-23.56m0-6a60.56,60.56,0,1,0,52.43,30.27l18.69-20.07a6,6,0,0,0-4.4-10.09,5.92,5.92,0,0,0-2.52.56l-26.65,12.38a60.43,60.43,0,0,0-37.55-13.05Z"/><path class="cls-3" d="M698.4,525.31a37.3,37.3,0,0,1-36.26-28.49l-32.79-7.27a3,3,0,0,1,.15-5.88l32.91-5.58a37.32,37.32,0,1,1,36,47.22Z"/><path class="cls-2" d="M698.4,453.67a34.32,34.32,0,1,1-33.74,40.64L630,486.63l34.85-5.91a34.34,34.34,0,0,1,33.55-27.05m0-6a40.32,40.32,0,0,0-38.32,27.78L629,480.71a6,6,0,0,0-.3,11.77l31,6.87a40.32,40.32,0,1,0,38.69-51.68Z"/><path class="cls-3" d="M429.21,142a3,3,0,0,1-2.88-2.5l-3.43-20.65a32.1,32.1,0,1,1,14.08-.4l-4.76,21.21a3,3,0,0,1-2.93,2.34Z"/><path class="cls-2" d="M429.05,58.23a29.09,29.09,0,0,1,5.42,57.68L429.29,139,425.5,116.2a29.09,29.09,0,0,1,3.55-58m0-6a35.1,35.1,0,0,0-8.78,69.08L423.38,140a6,6,0,0,0,5.75,5h.17a6,6,0,0,0,5.85-4.68l4.37-19.47a35.1,35.1,0,0,0-10.47-68.6Z"/><rect class="cls-5" x="230.77" y="171.81" width="286.51" height="507.36" rx="31.42"/><circle class="cls-6" cx="377.57" cy="619.76" r="29.27"/><rect class="cls-6" x="314.22" y="167.93" width="119.62" height="37.85" rx="9.91"/><polygon class="cls-7" points="325.14 492.08 377.26 439.96 429.38 492.08 325.14 492.08"/><path class="cls-7" d="M355.89,504.2v12.94h-10v51.71H329.09V517.14h-9.94V504.2Z"/><path class="cls-7" d="M388.78,504.2l9.61,64.65H381.21l-.9-11.62h-6l-1,11.62H355.91l8.57-64.65Zm-8.91,41.57q-1.28-11-2.56-27.15-2.58,18.57-3.23,27.15Z"/><path class="cls-7" d="M401.24,504.2h16.93a39.79,39.79,0,0,1,10.57,1.08,11.82,11.82,0,0,1,5.55,3.12,10.72,10.72,0,0,1,2.51,4.93,44.07,44.07,0,0,1,.66,9v5.63c0,4.13-.43,7.13-1.28,9a8.69,8.69,0,0,1-4.69,4.36,22.19,22.19,0,0,1-8.92,1.52h-4.51v26H401.24Zm16.82,11.06v16.45c.47,0,.89,0,1.23,0a3.89,3.89,0,0,0,3.22-1.13q.9-1.14.9-4.74v-5.31c0-2.2-.35-3.64-1-4.31S420.24,515.26,418.06,515.26Z"/></g></g></svg>