<?xml version="1.0" encoding="UTF-8"?><svg id="_レイヤー_2" xmlns="http://www.w3.org/2000/svg" viewBox="0 0 378.22 78.17"><defs><style>.cls-1{fill:#3e3a39;}</style></defs><g id="_前夕祭"><g id="_前夕祭-2"><g><path class="cls-1" d="M0,.73H15.11V7.7h-6.05v6.61h5.66v6.63h-5.66v7.66h6.65v6.97H0V.73Z"/><path class="cls-1" d="M39.86,.73l-4.61,34.84h-13.76L16.25,.73h9.56c1.11,9.6,1.9,17.72,2.38,24.36,.47-6.71,.96-12.68,1.49-17.88l.63-6.48h9.56Z"/><path class="cls-1" d="M41.39,.73h15.11V7.7h-6.05v6.61h5.66v6.63h-5.66v7.66h6.65v6.97h-15.71V.73Z"/><path class="cls-1" d="M67.47,.73h15.35V7.7h-6.28v6.61h5.6v6.63h-5.6v14.64h-9.06V.73Z"/><path class="cls-1" d="M85.01,.73h15.11V7.7h-6.05v6.61h5.66v6.63h-5.66v7.66h6.65v6.97h-15.71V.73Z"/><path class="cls-1" d="M122.52,11.28h-8.41v-2.58c0-1.21-.11-1.97-.32-2.3-.21-.33-.57-.5-1.08-.5-.55,0-.96,.22-1.24,.67-.28,.44-.42,1.12-.42,2.02,0,1.16,.16,2.04,.47,2.63,.3,.59,1.15,1.3,2.56,2.13,4.03,2.39,6.57,4.36,7.62,5.89,1.05,1.54,1.57,4.01,1.57,7.42,0,2.48-.29,4.31-.87,5.49-.58,1.18-1.7,2.16-3.37,2.96-1.66,.8-3.6,1.19-5.81,1.19-2.43,0-4.49-.46-6.21-1.38-1.71-.92-2.84-2.09-3.37-3.51-.53-1.42-.8-3.44-.8-6.05v-2.28h8.42v4.24c0,1.31,.12,2.14,.35,2.52s.66,.56,1.26,.56,1.05-.24,1.34-.71,.44-1.18,.44-2.11c0-2.05-.28-3.39-.84-4.02-.57-.63-1.99-1.69-4.24-3.16-2.25-1.49-3.75-2.58-4.48-3.25-.73-.67-1.34-1.61-1.82-2.8-.48-1.19-.72-2.71-.72-4.56,0-2.67,.34-4.62,1.02-5.85,.68-1.23,1.78-2.2,3.3-2.89,1.52-.7,3.36-1.04,5.51-1.04,2.35,0,4.36,.38,6.02,1.14,1.66,.76,2.75,1.72,3.29,2.87,.54,1.16,.81,3.12,.81,5.89v1.38Z"/><path class="cls-1" d="M144.37,.73V7.7h-5.38v27.87h-9.06V7.7h-5.36V.73h19.8Z"/><path class="cls-1" d="M155.49,.73V35.58h-9.06V.73h9.06Z"/><path class="cls-1" d="M180.67,.73l-4.61,34.84h-13.76L157.07,.73h9.56c1.11,9.6,1.9,17.72,2.38,24.36,.47-6.71,.96-12.68,1.49-17.88l.63-6.48h9.56Z"/><path class="cls-1" d="M197.87,.73l5.18,34.84h-9.26l-.49-6.26h-3.24l-.54,6.26h-9.37L184.77,.73h13.1Zm-4.8,22.4c-.46-3.95-.92-8.82-1.38-14.63-.92,6.67-1.5,11.55-1.74,14.63h3.12Z"/><path class="cls-1" d="M213.65,.73V28.6h5.51v6.97h-14.57V.73h9.06Z"/></g><g><path class="cls-1" d="M57.56,77.77h-18.42v-8.95h15.8c1.4,0,1.88-1.03,1.88-2.03v-.07c-.92,.11-1.84,.18-2.76,.18h-6.08c-7.85,0-10.5-4.13-10.5-9.06v-1.11c0-5.05,2.47-9.54,10.5-9.54h8.55c7.66,0,11.34,4.09,11.34,10.09v10.42c0,5.3-3.2,10.05-10.31,10.05Zm-.74-20.11c0-.63-.29-1.14-1.14-1.14h-6.08c-.88,0-1.14,.52-1.14,.96v.4c0,.85,.55,1.14,1.14,1.14h6.08c.85,0,1.14-.55,1.14-1.07v-.29Z"/><path class="cls-1" d="M70.57,77.62v-11.01h10.87v11.01h-10.87Z"/><path class="cls-1" d="M91.82,77.77v-18.34c0-.55-.29-.81-.81-.81h-6.78v-10.83h12.45c4.16,0,6.7,2.69,6.7,6.63v23.35h-11.57Z"/><path class="cls-1" d="M125.7,78.03h-8.84c-9.54,0-10.72-4.38-10.72-9.1v-1.33c0-2.03,.7-3.76,2.14-5.05-1.11-1.25-1.51-2.76-1.51-4.31v-1.95c0-6.78,2.5-8.91,9.91-8.91h9.17c8.95,0,10.13,4.02,10.13,8.91v1.95c0,1.51-.41,3.02-1.58,4.27,1.55,1.33,2.28,3.09,2.28,5.08v1.33c0,5.89-2.43,9.1-10.98,9.1Zm.18-10.53c0-.37-.29-.92-1.22-.92h-6.56c-.74,0-1.18,.37-1.18,.92v.44c0,.4,.33,1,1.18,1h6.56c.96,0,1.22-.52,1.22-1v-.44Zm-.33-10.09c0-.52-.33-.88-.99-.88h-6.26c-.81,0-1.1,.44-1.1,.88v.48c0,.48,.37,.77,1.1,.77h6.26c.66,0,.99-.44,.99-.77v-.48Z"/><path class="cls-1" d="M171.71,71.62h-8.14v6.15h-10.94v-30.06h19.15c6.08,0,10.2,2.95,10.2,10.94v2.39c0,6.3-3.09,10.57-10.28,10.57Zm-.74-12.04c0-1.8-.59-2.03-2.21-2.03h-5.19v4.13h5.19c1.58,0,2.21-.44,2.21-1.77v-.33Z"/><path class="cls-1" d="M209.05,77.77v-17.53c0-2.21-.26-3.02-2.32-3.09v20.63h-7.85v-20.63c-1.88,.15-2.28,1.14-2.28,3.09v17.53h-10.17v-18.49c0-8.77,3.72-11.75,12.6-11.75h7.99c8.99,0,12.27,2.58,12.27,11.75v18.49h-10.24Z"/><path class="cls-1" d="M230.42,77.77v-18.34c0-.55-.29-.81-.81-.81h-6.78v-10.83h12.45c4.16,0,6.7,2.69,6.7,6.63v23.35h-11.57Z"/><path class="cls-1" d="M264.52,77.81h-19.6v-9.76h17.42c.77,0,.99-.29,.99-.85v-.22c0-.55-.3-.85-.99-.85h-13.59c-2.8,0-3.83-1.36-3.83-4.09v-14.25h28.44v8.99h-17.61v.92c0,.37,.26,.52,.66,.52h8.1c7.85,0,10.09,3.24,10.09,8.77v1.73c0,6.26-2.73,9.1-10.09,9.1Z"/><path class="cls-1" d="M277.16,62.93v-11.05h10.87v11.05h-10.87Zm0,14.7v-11.01h10.87v11.01h-10.87Z"/><path class="cls-1" d="M307.99,78.17h-3.94c-9.83,0-12.74-2.84-12.74-12.75v-5.01c0-10.35,3.06-13,12.63-13h4.24c9.47,0,12.6,2.65,12.6,13v5.01c0,9.91-2.95,12.75-12.78,12.75Zm2.73-17.75c0-2.65-.99-3.39-2.54-3.39h-4.24c-1.84,0-2.65,.77-2.65,3.39v5.01c0,2.43,.66,3.09,2.76,3.09h3.94c1.8,0,2.73-1.07,2.73-3.09v-5.01Z"/><path class="cls-1" d="M341.58,78.17h-3.94c-9.84,0-12.74-2.84-12.74-12.75v-5.01c0-10.35,3.06-13,12.63-13h4.24c9.47,0,12.6,2.65,12.6,13v5.01c0,9.91-2.95,12.75-12.78,12.75Zm2.73-17.75c0-2.65-.99-3.39-2.54-3.39h-4.24c-1.84,0-2.65,.77-2.65,3.39v5.01c0,2.43,.66,3.09,2.76,3.09h3.94c1.8,0,2.73-1.07,2.73-3.09v-5.01Z"/><path class="cls-1" d="M372.18,68.67c-3.09,0-5.82-3.28-8.21-3.28s-4.57,1.36-5.78,2.43v-10.46c2.17-1.58,3.68-1.95,5.75-1.95,3.54,0,6.15,3.28,8.29,3.28,2.32,0,4.79-1.36,6-2.51v10.5c-2.03,1.47-3.87,1.99-6.04,1.99Z"/></g></g></g></svg>