<svg xmlns="http://www.w3.org/2000/svg" xmlns:xlink="http://www.w3.org/1999/xlink" viewBox="0 0 1920 1080.41"><defs><style>.cls-1{fill:none;}.cls-2{clip-path:url(#clip-path);}.cls-3{fill:#335eaa;}.cls-4{fill:#153268;}.cls-5{fill:#e3eaee;}.cls-6{fill:#fff;}.cls-7{fill:#8baedb;}.cls-8{fill:#a8a7ae;}.cls-9{fill:#004a6f;}.cls-10{fill:#dbdcdc;}</style><clipPath id="clip-path" transform="translate(3.9 0.21)"><rect class="cls-1" width="1866.21" height="1080.21"/></clipPath></defs><g id="レイヤー_2" data-name="レイヤー 2"><g id="前夕祭"><g class="cls-2"><rect class="cls-3" width="1920" height="1080.41"/><path class="cls-4" d="M963.81,325.92H1920a0,0,0,0,1,0,0v59.26a0,0,0,0,1,0,0H963.81a29.63,29.63,0,0,1-29.63-29.63v0A29.63,29.63,0,0,1,963.81,325.92Z"/><path class="cls-4" d="M991.9,88.89h324.24a0,0,0,0,1,0,0v59.26a0,0,0,0,1,0,0H991.9a29.63,29.63,0,0,1-29.63-29.63v0A29.63,29.63,0,0,1,991.9,88.89Z"/><path class="cls-4" d="M887.84,207.4h352.34a0,0,0,0,1,0,0v59.26a0,0,0,0,1,0,0H887.84A29.63,29.63,0,0,1,858.21,237v0A29.63,29.63,0,0,1,887.84,207.4Z"/><path class="cls-5" d="M991.9,59.26H1920a0,0,0,0,1,0,0v59.26a0,0,0,0,1,0,0H991.9a29.63,29.63,0,0,1-29.63-29.63v0A29.63,29.63,0,0,1,991.9,59.26Z"/><path class="cls-5" d="M887.84,177.77H1920a0,0,0,0,1,0,0V237a0,0,0,0,1,0,0H887.84a29.63,29.63,0,0,1-29.63-29.63v0a29.63,29.63,0,0,1,29.63-29.63Z"/><path class="cls-5" d="M963.81,296.29H1920a0,0,0,0,1,0,0v59.26a0,0,0,0,1,0,0H963.81a29.63,29.63,0,0,1-29.63-29.63v0A29.63,29.63,0,0,1,963.81,296.29Z"/><path class="cls-6" d="M1040-.21a29.64,29.64,0,0,1,29.63,29.63h0A29.63,29.63,0,0,1,1040,59.05h272.2V-.21Z" transform="translate(3.9 0.21)"/><path class="cls-5" d="M1069.67,118.31v.46a29.63,29.63,0,0,1,0,58.34v.46H1916.1V118.31Z" transform="translate(3.9 0.21)"/><path class="cls-5" d="M1003.78,236.83a29.62,29.62,0,0,1,29.63,29.63h0a29.62,29.62,0,0,1-29.63,29.62H1916.1V236.83Z" transform="translate(3.9 0.21)"/><path class="cls-4" d="M25.73,926.51H749.61a0,0,0,0,1,0,0v59.26a0,0,0,0,1,0,0H25.73A29.63,29.63,0,0,1-3.9,956.14v0a29.63,29.63,0,0,1,29.63-29.63Z" transform="translate(749.61 1912.48) rotate(-180)"/><path class="cls-4" d="M577.94,689.47H721.51a0,0,0,0,1,0,0v59.26a0,0,0,0,1,0,0H577.94a29.63,29.63,0,0,1-29.63-29.63v0A29.63,29.63,0,0,1,577.94,689.47Z" transform="translate(1273.73 1438.41) rotate(-180)"/><path class="cls-4" d="M577.94,808H825.58a0,0,0,0,1,0,0v59.26a0,0,0,0,1,0,0H577.94a29.63,29.63,0,0,1-29.63-29.63v0A29.63,29.63,0,0,1,577.94,808Z" transform="translate(1377.79 1675.44) rotate(-180)"/><path class="cls-4" d="M577.94,577.28H680.68a0,0,0,0,1,0,0v59.26a0,0,0,0,1,0,0H577.94a29.63,29.63,0,0,1-29.63-29.63v0A29.63,29.63,0,0,1,577.94,577.28Z" transform="translate(1232.9 1214.02) rotate(180)"/><path class="cls-5" d="M25.73,659.84H721.51a0,0,0,0,1,0,0V719.1a0,0,0,0,1,0,0H25.73A29.63,29.63,0,0,1-3.9,689.47v0a29.63,29.63,0,0,1,29.63-29.63Z" transform="translate(721.51 1379.15) rotate(180)"/><path class="cls-5" d="M25.73,778.36H825.58a0,0,0,0,1,0,0v59.26a0,0,0,0,1,0,0H25.73A29.63,29.63,0,0,1-3.9,808v0a29.63,29.63,0,0,1,29.63-29.63Z" transform="translate(825.58 1616.19) rotate(-180)"/><path class="cls-5" d="M25.73,896.88H749.61a0,0,0,0,1,0,0v59.26a0,0,0,0,1,0,0H25.73A29.63,29.63,0,0,1-3.9,926.51v0a29.63,29.63,0,0,1,29.63-29.63Z" transform="translate(749.61 1853.22) rotate(-180)"/><path class="cls-5" d="M639.85,600.59a29.63,29.63,0,0,0-29.63,29.62h0a29.63,29.63,0,0,0,29.63,29.63H-3.9V600.59Z" transform="translate(3.9 0.21)"/><path class="cls-5" d="M610.22,719.1v.46a29.63,29.63,0,0,0,0,58.34v.46H-3.9V719.1Z" transform="translate(3.9 0.21)"/><path class="cls-5" d="M676.11,837.62a29.62,29.62,0,0,0-29.63,29.63h0a29.63,29.63,0,0,0,29.63,29.63H-3.9V837.62Z" transform="translate(3.9 0.21)"/><path class="cls-5" d="M25.73,541.33h655a0,0,0,0,1,0,0v59.26a0,0,0,0,1,0,0h-655A29.63,29.63,0,0,1-3.9,571v0a29.63,29.63,0,0,1,29.63-29.63Z" transform="translate(680.68 1142.12) rotate(180)"/><polygon class="cls-7" points="957.22 1080.41 0 1080.41 0 705.22 957.22 1080.41"/><polygon class="cls-8" points="852.07 1080.41 1920 1080.41 1920 660.49 852.07 1080.41"/><polygon class="cls-9" points="1042.76 1080.41 1920 1080.41 1920 514.83 1042.76 1080.41"/><polygon class="cls-10" points="1016.84 1080.41 0 1080.41 0 871.4 1016.84 1080.41"/><polygon class="cls-7" points="765.35 0 1920 0 1920 266.66 765.35 0"/><polygon class="cls-9" points="1920 385.18 1058.3 0 1920 0 1920 385.18"/><polygon class="cls-8" points="1105.36 0 0 0 0 247.27 1105.36 0"/><polygon class="cls-10" points="1224.22 0 0 0 0 120.72 1224.22 0"/></g></g></g></svg>