<svg xmlns="http://www.w3.org/2000/svg" viewBox="0 0 738.72 964.13"><defs><style>.cls-1{fill:#f2bd47;}.cls-2{fill:#e4eaee;}.cls-3{fill:#f2d52d;}.cls-4{fill:#e95646;}.cls-5{fill:#f2f9fd;stroke:#448a45;stroke-miterlimit:10;stroke-width:20px;}.cls-6{fill:#448a45;}.cls-7{fill:#f6cf5e;}.cls-8{fill:#eb6519;}.cls-9{fill:#f7c5af;}.cls-10{fill:#3e3a39;}</style></defs><g id="レイヤー_2" data-name="レイヤー 2"><g id="前夕祭"><g id="吹き出し"><circle class="cls-1" cx="613.34" cy="188.05" r="119.39"/><path class="cls-2" d="M613.34,71.66a116.4,116.4,0,1,1-116.4,116.39A116.39,116.39,0,0,1,613.34,71.66m0-6a122.4,122.4,0,1,0,86.54,35.85,121.6,121.6,0,0,0-86.54-35.85Z"/><circle class="cls-3" cx="365.63" cy="744.66" r="102.98"/><path class="cls-2" d="M365.63,644.68a100,100,0,1,1-100,100,100,100,0,0,1,100-100m0-6a106,106,0,1,0,106,106,106.1,106.1,0,0,0-106-106Z"/><path class="cls-4" d="M216.4,546.2a22.4,22.4,0,1,1,22.4-22.4A22.41,22.41,0,0,1,216.4,546.2Z"/><path class="cls-2" d="M216.4,504.41A19.4,19.4,0,1,1,197,523.8a19.39,19.39,0,0,1,19.39-19.39m0-6a25.4,25.4,0,1,0,25.4,25.39,25.42,25.42,0,0,0-25.4-25.39Z"/><path class="cls-1" d="M377.57,186.58A25.39,25.39,0,1,1,403,161.19,25.42,25.42,0,0,1,377.57,186.58Z"/><path class="cls-2" d="M377.57,138.81a22.39,22.39,0,1,1-22.39,22.38,22.38,22.38,0,0,1,22.39-22.38m0-6A28.39,28.39,0,1,0,406,161.19a28.42,28.42,0,0,0-28.38-28.38Z"/><path class="cls-3" d="M101.5,507.41a98.51,98.51,0,1,1,97.38-113.22L231.3,400a3,3,0,0,1,.09,5.88l-31.47,6.63a98.51,98.51,0,0,1-98.42,94.86Z"/><path class="cls-2" d="M101.5,313.4a95.5,95.5,0,0,1,94.71,83.36L230.77,403,197,410.1a95.49,95.49,0,1,1-95.48-96.7m0-6A101.5,101.5,0,1,0,202.8,415L232,408.86a6,6,0,0,0-.17-11.78l-30.33-5.46a101.64,101.64,0,0,0-100-84.22Z"/><path class="cls-4" d="M276.39,181.65a3,3,0,0,1-2.7-1.7L260.78,153a76.83,76.83,0,0,1-9.22.56,75.31,75.31,0,1,1,26-4.64l1.82,29.53a3,3,0,0,1-2.24,3.08A2.89,2.89,0,0,1,276.39,181.65Z"/><path class="cls-2" d="M251.56,6a72.29,72.29,0,0,1,22.88,140.86l1.95,31.79-13.85-28.9a73.61,73.61,0,0,1-11,.83A72.29,72.29,0,1,1,251.56,6m0-6a78.29,78.29,0,1,0,0,156.58c2.47,0,5-.12,7.43-.35l12,25a6,6,0,0,0,11.4-3L280.7,151A78.29,78.29,0,0,0,251.56,0Z"/><path class="cls-1" d="M241.39,208.33A3,3,0,0,1,240,208l-26.1-13.46a55.84,55.84,0,1,1,11.57-12.36l18.18,21.2a3,3,0,0,1-2.27,5Z"/><path class="cls-2" d="M179.27,97.6a53,53,0,0,1,42.4,84.74l19.72,23L213.53,191A53,53,0,1,1,179.27,97.6m0-6a59,59,0,1,0,34.95,106.47l24.42,12.59a6,6,0,0,0,7.3-9.24l-16.71-19.49a58.45,58.45,0,0,0,9-31.35,59,59,0,0,0-59-59Z"/><path class="cls-1" d="M646.17,674.54A67.25,67.25,0,0,1,579,607.37a68.08,68.08,0,0,1,.91-11l-28.48-18.76a3,3,0,0,1,1.65-5.51,3,3,0,0,1,.59.06l31.85,6.35a67.17,67.17,0,1,1,60.65,96Z"/><path class="cls-2" d="M646.17,543.2a64.18,64.18,0,1,1-62.95,51.73l-30.14-19.85,34.19,6.81a64.17,64.17,0,0,1,58.9-38.69m0-6a70.14,70.14,0,0,0-62.31,37.9l-29.6-5.9a6,6,0,0,0-4.48,10.89l26.88,17.71a70.16,70.16,0,1,0,69.51-60.6Z"/><path class="cls-4" d="M555.89,799.88a33.58,33.58,0,0,1-28.59-51.21l-12.63-22.35a3,3,0,0,1,2.61-4.48,3,3,0,0,1,1.87.65l19.14,15.19a33.59,33.59,0,1,1,17.6,62.2Z"/><path class="cls-2" d="M517.28,724.84l20.86,16.55a30.54,30.54,0,1,1-7.33,7.39l-13.53-23.94m0-6a6,6,0,0,0-5.22,8.95l11.78,20.85a36.56,36.56,0,1,0,14.72-14.58L521,720.14a6,6,0,0,0-3.73-1.3Z"/><path class="cls-1" d="M124.72,682.17a57.56,57.56,0,1,1,37.11-101.54l28.35-13.18a3,3,0,0,1,3.46,4.77l-20.23,21.72a57.55,57.55,0,0,1-48.69,88.23Z"/><path class="cls-2" d="M124.72,570.06a54.38,54.38,0,0,1,36.6,14.11l30.13-14L169.6,593.62a54.54,54.54,0,1,1-44.88-23.56m0-6a60.56,60.56,0,1,0,52.43,30.27l18.69-20.07a6,6,0,0,0-4.4-10.09,5.92,5.92,0,0,0-2.52.56l-26.65,12.38a60.43,60.43,0,0,0-37.55-13.05Z"/><path class="cls-3" d="M698.4,525.31a37.3,37.3,0,0,1-36.26-28.49l-32.79-7.27a3,3,0,0,1,.15-5.88l32.91-5.58a37.32,37.32,0,1,1,36,47.22Z"/><path class="cls-2" d="M698.4,453.67a34.32,34.32,0,1,1-33.74,40.64L630,486.63l34.85-5.91a34.34,34.34,0,0,1,33.55-27.05m0-6a40.32,40.32,0,0,0-38.32,27.78L629,480.71a6,6,0,0,0-.3,11.77l31,6.87a40.32,40.32,0,1,0,38.69-51.68Z"/><path class="cls-3" d="M429.21,142a3,3,0,0,1-2.88-2.5l-3.43-20.65a32.1,32.1,0,1,1,14.08-.4l-4.76,21.21a3,3,0,0,1-2.93,2.34Z"/><path class="cls-2" d="M429.05,58.23a29.09,29.09,0,0,1,5.42,57.68L429.29,139,425.5,116.2a29.09,29.09,0,0,1,3.55-58m0-6a35.1,35.1,0,0,0-8.78,69.08L423.38,140a6,6,0,0,0,5.75,5h.17a6,6,0,0,0,5.85-4.68l4.37-19.47a35.1,35.1,0,0,0-10.47-68.6Z"/></g><g id="スマホ"><rect class="cls-5" x="230.77" y="171.81" width="286.51" height="507.36" rx="31.42"/><circle class="cls-6" cx="377.57" cy="619.76" r="29.27"/><rect class="cls-6" x="314.22" y="167.93" width="119.62" height="37.85" rx="9.91"/><polygon class="cls-7" points="325.14 492.08 377.26 439.96 429.38 492.08 325.14 492.08"/><path class="cls-7" d="M355.89,504.2v12.94h-10v51.71H329.09V517.14h-9.94V504.2Z"/><path class="cls-7" d="M388.78,504.2l9.61,64.65H381.21l-.9-11.62h-6l-1,11.62H355.91l8.57-64.65Zm-8.91,41.57q-1.28-11-2.56-27.15-2.58,18.57-3.23,27.15Z"/><path class="cls-7" d="M401.24,504.2h16.93a39.79,39.79,0,0,1,10.57,1.08,11.82,11.82,0,0,1,5.55,3.12,10.72,10.72,0,0,1,2.51,4.93,44.07,44.07,0,0,1,.66,9v5.63c0,4.13-.43,7.13-1.28,9a8.69,8.69,0,0,1-4.69,4.36,22.19,22.19,0,0,1-8.92,1.52h-4.51v26H401.24Zm16.82,11.06v16.45c.47,0,.89,0,1.23,0a3.89,3.89,0,0,0,3.22-1.13c.6-.76.9-2.34.9-4.73v-5.32c0-2.2-.35-3.64-1-4.31S420.24,515.26,418.06,515.26Z"/></g><g id="旗"><rect class="cls-8" x="388.83" y="385.96" width="365.77" height="131.68" transform="translate(1084.97 -65.45) rotate(96.46)"/><path class="cls-9" d="M597.4,964.13h-8.95l78.6-694.27a4.45,4.45,0,0,1,4.92-3.92h0a4.45,4.45,0,0,1,3.92,4.92"/><rect class="cls-8" x="647.28" y="286.79" width="35.51" height="18.78" transform="translate(1034.16 -331.32) rotate(96.46)"/><rect class="cls-8" x="610.13" y="614.96" width="35.51" height="18.78" transform="translate(1318.91 70.69) rotate(96.46)"/><rect class="cls-8" x="628.71" y="450.88" width="35.51" height="18.78" transform="translate(1176.53 -130.31) rotate(96.46)"/><rect class="cls-8" x="619.42" y="532.92" width="35.51" height="18.78" transform="translate(1247.72 -29.81) rotate(96.46)"/><rect class="cls-8" x="638" y="368.83" width="35.51" height="18.78" transform="translate(1105.35 -230.81) rotate(96.46)"/><path class="cls-10" d="M559.31,391.55l1.2-10.61-4.14-.47-1.21,10.61-21.63-2.45,7.1-62.66,46.8,5.29-7.1,62.67Zm-20.93-68.3,2.78-24.56,10.61,1.2a26.74,26.74,0,0,0-.93-4.4l26.17,3a25.45,25.45,0,0,1,.64,4.37l20.31,2.3,1.29-4.15,26.58,3-1.28,4.15,10.91,1.24-2.78,24.56Zm24,40.71-4.14-.47-.46,4L562,368Zm1.89-16.68-4.14-.47-.39,3.44,4.14.47Zm43.61,49.78-16.78-1.9,1.73-15.27-8.39-.95,5.36-47.4,17.09,1.93-4.23,37.3.3,0a2,2,0,0,0,2.38-2l4-35.07,21.53,2.43-5,44.07C624.39,393.6,619.35,398.35,607.93,397.06Z"/><path class="cls-10" d="M519.64,489.64l3.22-28.41A83.7,83.7,0,0,0,553.92,459L545,448.18a75.06,75.06,0,0,1-21.31,5.58l3.47-30.63c14.53-2.65,26-13.64,27.46-24.63l32,3.62a48.47,48.47,0,0,1-2.64,7.07l39.62,4.49-3.12,27.59C605,474.53,566.64,495,519.64,489.64Zm47.17-55.88a66.44,66.44,0,0,1-9.89,7.79l17.69,2,3.47,3.77a50,50,0,0,0,10.57-11.09Z"/><path class="cls-10" d="M532.81,592.17l-25.37-2.87c3.21-4.86,6-14.37,6.54-18.92l23.85,2.7C536.11,582,534.8,588.1,532.81,592.17Zm70.81-26-1.41,12.43-26.88-3-.78,6.87c-1.1,9.71-6.59,14.82-18.12,13.51l-19.1-2.16,2.22-19.61,6.47.73c.91.11,1.86-.2,2-1.31l.13-1.11-34.67-3.92,1.23-10.92a20.65,20.65,0,0,1-2.68.21l3.05-27a41.65,41.65,0,0,0,4.24-.34L517.87,527a16.34,16.34,0,0,1-2.41.44l2.44-21.53c5.27-.42,11.84-4.18,14.3-7.9l26.79,3a5.45,5.45,0,0,1-.65,1.25l22.84,2.59a29.4,29.4,0,0,0,1.41,11l1.22-10.71,28.5,3.22-2.21,19.51L604,536.86c1.74.91,3.49,1.73,5.24,2.54L606.09,567C605.29,566.8,604.42,566.39,603.62,566.2Zm-72.74-43.86a17.2,17.2,0,0,1-2.92,1.41l1.9,4a27,27,0,0,0,3-1.39Zm48.77,25.89-.33,2.93L541,546.83l.31-2.73a57.68,57.68,0,0,1-7.16,3.59l52.86,6A61.75,61.75,0,0,1,579.65,548.23Zm-39.73-32.44,2.09,4.13a31,31,0,0,0,3-3.56Zm22.86,9.65c-1,1.32-2,2.74-3.22,4l5.46.62A39.84,39.84,0,0,1,562.78,525.44Zm16.32,72-1.64-19.84,24.15,2.74,1.55,19.83ZM586,522.33a27.79,27.79,0,0,0,3.51,4.29L592,523Z"/></g><g id="日時"><path class="cls-10" d="M564.42,170H533.55V155H560c2.35,0,3.15-1.73,3.15-3.39v-.13a38,38,0,0,1-4.63.31H548.37c-13.15,0-17.59-6.91-17.59-15.18v-1.86c0-8.45,4.13-16,17.59-16h14.32c12.85,0,19,6.86,19,16.92v17.47C581.71,162.05,576.34,170,564.42,170Zm-1.23-33.7a1.73,1.73,0,0,0-1.92-1.92H551.09c-1.48,0-1.92.87-1.92,1.61v.68a1.75,1.75,0,0,0,1.92,1.91h10.18a1.72,1.72,0,0,0,1.92-1.79Z"/><path class="cls-10" d="M586.21,169.77V151.31h18.21v18.46Z"/><path class="cls-10" d="M621.83,170V139.27a1.21,1.21,0,0,0-1.36-1.36H609.11V119.76H630c7,0,11.24,4.51,11.24,11.11V170Z"/><path class="cls-10" d="M679,170.08H646.15V153.72h29.2c1.3,0,1.67-.5,1.67-1.42v-.37c0-.93-.5-1.42-1.67-1.42H652.57c-4.69,0-6.42-2.29-6.42-6.86V119.76h47.66v15.07H664.3v1.54c0,.62.43.86,1.11.86H679c13.15,0,16.92,5.44,16.92,14.7v2.9C695.91,165.32,691.34,170.08,679,170.08Z"/><path class="cls-10" d="M548.81,198.07h-5.63v4.25h-7.55V181.56h13.23c4.19,0,7,2,7,7.56v1.65C555.9,195.12,553.77,198.07,548.81,198.07Zm-.51-8.32c0-1.25-.41-1.4-1.53-1.4h-3.59v2.85h3.59c1.09,0,1.53-.3,1.53-1.22Z"/><path class="cls-10" d="M574.6,202.32V190.21c0-1.53-.18-2.09-1.61-2.14v14.25h-5.41V188.07c-1.3.1-1.58.79-1.58,2.14v12.11h-7V189.55c0-6.06,2.57-8.12,8.7-8.12h5.52c6.2,0,8.47,1.78,8.47,8.12v12.77Z"/><path class="cls-10" d="M597.82,202.32V189.65a.5.5,0,0,0-.56-.56h-4.68v-7.48h8.59a4.31,4.31,0,0,1,4.63,4.58v16.13Z"/><path class="cls-10" d="M621,194.76h-5.24v1h12.46v6.59H607.91V189.6h12c.69,0,.94-.28.94-.69v-.1c0-.43-.33-.64-.94-.64h-12v-6.56H621c5.55,0,7.76,2.49,7.76,6.77v.46C628.72,192,627.07,194.76,621,194.76Z"/><path class="cls-10" d="M630.57,192.07v-7.63h7.51v7.63Zm0,10.14v-7.6h7.51v7.6Z"/><path class="cls-10" d="M651.86,202.6h-2.72c-6.79,0-8.8-2-8.8-8.8v-3.46c0-7.15,2.11-9,8.72-9H652c6.54,0,8.7,1.83,8.7,9v3.46C660.69,200.64,658.65,202.6,651.86,202.6Zm1.88-12.26c0-1.84-.68-2.34-1.75-2.34h-2.93c-1.27,0-1.83.53-1.83,2.34v3.46c0,1.67.46,2.13,1.91,2.13h2.72c1.25,0,1.88-.74,1.88-2.13Z"/><path class="cls-10" d="M675.06,202.6h-2.72c-6.8,0-8.81-2-8.81-8.8v-3.46c0-7.15,2.12-9,8.73-9h2.92c6.54,0,8.7,1.83,8.7,9v3.46C683.88,200.64,681.85,202.6,675.06,202.6Zm1.88-12.26c0-1.84-.69-2.34-1.76-2.34h-2.92c-1.27,0-1.83.53-1.83,2.34v3.46c0,1.67.46,2.13,1.91,2.13h2.72c1.24,0,1.88-.74,1.88-2.13Z"/><path class="cls-10" d="M604.05,223.54c-2.14,0-4-2.26-5.68-2.26a6.5,6.5,0,0,0-4,1.68v-7.23a6,6,0,0,1,4-1.34c2.44,0,4.25,2.26,5.72,2.26a6.76,6.76,0,0,0,4.15-1.73v7.25A6.6,6.6,0,0,1,604.05,223.54Z"/><path class="cls-10" d="M565.74,252.09h-5.62v4.25h-7.55V235.58H565.8c4.19,0,7,2,7,7.55v1.66C572.84,249.14,570.7,252.09,565.74,252.09Zm-.5-8.32c0-1.25-.41-1.4-1.53-1.4h-3.59v2.85h3.59c1.09,0,1.53-.31,1.53-1.22Z"/><path class="cls-10" d="M591.53,256.34V244.23c0-1.53-.17-2.09-1.6-2.14v14.25h-5.42V242.09c-1.29.1-1.57.79-1.57,2.14v12.11h-7V243.57c0-6.06,2.57-8.12,8.7-8.12h5.52c6.2,0,8.47,1.78,8.47,8.12v12.77Z"/><path class="cls-10" d="M614.75,256.34V243.67a.5.5,0,0,0-.56-.56h-4.68v-7.48h8.6a4.31,4.31,0,0,1,4.63,4.58v16.13Z"/><path class="cls-10" d="M638.48,256.74h-5.9c-5.26,0-7.81-2.8-7.81-6.94v-7.2c0-3.69,2.19-7,7.1-7h12.92v6.21H633.7a1.25,1.25,0,0,0-1.32,1.37v.08a15.85,15.85,0,0,1,1.91-.11h4.19c5.42,0,7.25,2.8,7.25,6.24v.73C645.73,253.67,644,256.74,638.48,256.74Zm-.33-7.4a.74.74,0,0,0-.81-.76h-4.17a.71.71,0,0,0-.79.74v.22a.72.72,0,0,0,.79.79h4.17c.64,0,.81-.38.81-.66Z"/><path class="cls-10" d="M647.51,246.09v-7.64H655v7.64Zm0,10.14v-7.6H655v7.6Z"/><path class="cls-10" d="M668.8,256.62h-2.72c-6.79,0-8.8-2-8.8-8.81v-3.46c0-7.14,2.11-9,8.72-9h2.93c6.54,0,8.7,1.83,8.7,9v3.46C677.63,254.66,675.59,256.62,668.8,256.62Zm1.88-12.27c0-1.83-.68-2.34-1.75-2.34H666c-1.27,0-1.83.54-1.83,2.34v3.46c0,1.68.46,2.14,1.91,2.14h2.72c1.25,0,1.88-.74,1.88-2.14Z"/><path class="cls-10" d="M692,256.62h-2.73c-6.79,0-8.8-2-8.8-8.81v-3.46c0-7.14,2.11-9,8.73-9h2.92c6.54,0,8.7,1.83,8.7,9v3.46C700.82,254.66,698.79,256.62,692,256.62Zm1.88-12.27c0-1.83-.69-2.34-1.76-2.34H689.2c-1.27,0-1.83.54-1.83,2.34v3.46c0,1.68.45,2.14,1.9,2.14H692c1.24,0,1.88-.74,1.88-2.14Z"/></g></g></g></svg>