<?xml version="1.0" encoding="UTF-8"?><svg id="_レイヤー_2" xmlns="http://www.w3.org/2000/svg" viewBox="0 0 925.74 94.64"><defs><style>.cls-1{fill:#1c9ad5;}.cls-2{fill:#3e3a39;}</style></defs><g id="_前夕祭"><g id="_2022"><polygon class="cls-1" points="0 0 41.01 47.32 0 94.64 925.74 94.64 925.74 0 0 0"/><g><path class="cls-2" d="M111.44,54.3h-13.13v2.42h31.24v16.51h-50.82v-31.88h30.03c1.72,0,2.36-.7,2.36-1.72v-.25c0-1.08-.83-1.59-2.36-1.59h-30.03V21.34h32.71c13.9,0,19.45,6.25,19.45,16.96v1.15c0,7.84-4.14,14.86-19.45,14.86Z"/><path class="cls-2" d="M165.9,73.94h-6.82c-17.02,0-22.06-4.91-22.06-22.06v-8.67c0-17.92,5.29-22.51,21.87-22.51h7.33c16.39,0,21.81,4.59,21.81,22.51v8.67c0,17.15-5.1,22.06-22.12,22.06Zm4.72-30.73c0-4.59-1.72-5.87-4.4-5.87h-7.33c-3.19,0-4.59,1.34-4.59,5.87v8.67c0,4.21,1.15,5.36,4.78,5.36h6.82c3.12,0,4.72-1.85,4.72-5.36v-8.67Z"/><path class="cls-2" d="M226.79,54.3h-13.13v2.42h31.24v16.51h-50.82v-31.88h30.03c1.72,0,2.36-.7,2.36-1.72v-.25c0-1.08-.83-1.59-2.36-1.59h-30.03V21.34h32.71c13.9,0,19.45,6.25,19.45,16.96v1.15c0,7.84-4.14,14.86-19.45,14.86Z"/><path class="cls-2" d="M283.99,54.3h-13.13v2.42h31.24v16.51h-50.82v-31.88h30.03c1.72,0,2.36-.7,2.36-1.72v-.25c0-1.08-.83-1.59-2.36-1.59h-30.03V21.34h32.71c13.9,0,19.45,6.25,19.45,16.96v1.15c0,7.84-4.14,14.86-19.45,14.86Z"/></g></g></g></svg>