<?xml version="1.0" encoding="UTF-8"?><svg id="_レイヤー_2" xmlns="http://www.w3.org/2000/svg" viewBox="0 0 738.72 850.63"><defs><style>.cls-1{fill:#f2d52d;}.cls-2{fill:#e95646;}.cls-3{fill:#448a45;}.cls-4{fill:#3e3a39;}.cls-5{fill:#f2bd47;}.cls-6{fill:#f6cf5e;}.cls-7{fill:#f2f9fd;stroke:#448a45;stroke-miterlimit:10;stroke-width:20px;}.cls-8{fill:#e4eaee;}</style></defs><g id="_前夕祭"><g id="_吹き出し"><g><circle class="cls-5" cx="613.34" cy="188.05" r="119.39"/><path class="cls-8" d="M613.34,71.66c64.28,0,116.39,52.11,116.39,116.39s-52.11,116.39-116.39,116.39-116.39-52.11-116.39-116.39,52.11-116.39,116.39-116.39m0-6c-32.69,0-63.43,12.73-86.55,35.85-23.12,23.12-35.85,53.85-35.85,86.55s12.73,63.43,35.85,86.55,53.85,35.85,86.55,35.85,63.43-12.73,86.55-35.85,35.85-53.85,35.85-86.55-12.73-63.43-35.85-86.55c-23.12-23.12-53.85-35.85-86.55-35.85h0Z"/></g><g><circle class="cls-1" cx="365.63" cy="744.66" r="102.98"/><path class="cls-8" d="M365.63,644.68c55.22,0,99.98,44.76,99.98,99.98s-44.76,99.98-99.98,99.98-99.98-44.76-99.98-99.98,44.76-99.98,99.98-99.98m0-6c-58.44,0-105.98,47.54-105.98,105.98s47.54,105.98,105.98,105.98,105.98-47.54,105.98-105.98-47.54-105.98-105.98-105.98h0Z"/></g><g><path class="cls-2" d="M216.4,546.2c-12.35,0-22.4-10.05-22.4-22.4s10.05-22.4,22.4-22.4,22.4,10.05,22.4,22.4-10.05,22.4-22.4,22.4Z"/><path class="cls-8" d="M216.4,504.41c10.71,0,19.4,8.69,19.4,19.4s-8.69,19.4-19.4,19.4-19.4-8.69-19.4-19.4,8.69-19.4,19.4-19.4m0-6c-14.01,0-25.4,11.39-25.4,25.4s11.39,25.4,25.4,25.4,25.4-11.39,25.4-25.4-11.39-25.4-25.4-25.4h0Z"/></g><g><path class="cls-5" d="M377.57,186.58c-14,0-25.38-11.39-25.38-25.38s11.39-25.38,25.38-25.38,25.38,11.39,25.38,25.38-11.39,25.38-25.38,25.38Z"/><path class="cls-8" d="M377.57,138.81c12.36,0,22.38,10.02,22.38,22.38s-10.02,22.38-22.38,22.38-22.38-10.02-22.38-22.38,10.02-22.38,22.38-22.38m0-6c-15.65,0-28.38,12.73-28.38,28.38s12.73,28.38,28.38,28.38,28.38-12.73,28.38-28.38-12.73-28.38-28.38-28.38h0Z"/></g><g><path class="cls-1" d="M101.5,507.41c-54.31,0-98.5-44.19-98.5-98.5s44.19-98.5,98.5-98.5c48.72,0,90.2,35.87,97.38,83.79l32.42,5.85c1.41,.25,2.45,1.47,2.47,2.91,.02,1.43-.98,2.68-2.38,2.98l-31.47,6.62c-.91,25.15-11.22,48.65-29.18,66.41-18.55,18.34-43.14,28.45-69.23,28.45Z"/><path class="cls-8" d="M101.5,313.4c48.63,0,88.74,36.35,94.71,83.36l34.56,6.23-33.8,7.11c-.65,52.19-43.13,94.3-95.47,94.3S6,461.65,6,408.9s42.76-95.5,95.5-95.5m0-6C45.53,307.4,0,352.93,0,408.9s45.53,101.5,101.5,101.5c26.89,0,52.22-10.41,71.34-29.31,17.95-17.75,28.48-41.06,29.96-66.08l29.21-6.15c2.81-.59,4.81-3.09,4.76-5.96-.04-2.87-2.11-5.31-4.93-5.82l-30.33-5.47c-8.29-48.31-50.52-84.22-100.01-84.22h0Z"/></g><g><path class="cls-2" d="M276.39,181.65c-1.13,0-2.2-.64-2.7-1.7l-12.91-26.93c-3.05,.37-6.14,.56-9.22,.56-41.51,0-75.29-33.77-75.29-75.29S210.04,3,251.56,3s75.29,33.77,75.29,75.29c0,31.67-19.71,59.78-49.27,70.65l1.81,29.53c.09,1.43-.85,2.73-2.24,3.09-.25,.06-.5,.1-.75,.1Z"/><path class="cls-8" d="M251.56,6c39.92,0,72.29,32.36,72.29,72.29,0,31.92-20.7,58.99-49.4,68.57l1.95,31.79-13.86-28.9c-3.58,.55-7.25,.83-10.98,.83-39.92,0-72.29-32.36-72.29-72.29S211.63,6,251.56,6m0-6c-43.17,0-78.29,35.12-78.29,78.29s35.12,78.29,78.29,78.29c2.48,0,4.96-.12,7.43-.35l11.99,25.01c1.02,2.12,3.15,3.41,5.41,3.41,.5,0,1.01-.06,1.51-.19,2.78-.72,4.66-3.31,4.48-6.17l-1.68-27.33c29.58-11.84,49.14-40.48,49.14-72.66C329.85,35.12,294.73,0,251.56,0h0Z"/></g><g><path class="cls-5" d="M241.39,208.33c-.47,0-.94-.11-1.37-.33l-26.1-13.46c-9.85,7.77-22.07,12.02-34.64,12.02-30.86,0-55.97-25.11-55.97-55.97s25.11-55.97,55.97-55.97,55.97,25.11,55.97,55.97c0,11.4-3.37,22.27-9.76,31.59l18.18,21.2c.93,1.09,.97,2.69,.08,3.81-.59,.74-1.46,1.14-2.35,1.14Z"/><path class="cls-8" d="M179.27,97.6c29.26,0,52.97,23.72,52.97,52.97,0,11.91-3.93,22.91-10.57,31.76l19.72,22.99-27.86-14.36c-9.24,7.85-21.19,12.59-34.26,12.59-29.26,0-52.97-23.72-52.97-52.97s23.72-52.97,52.97-52.97m0-6c-32.52,0-58.97,26.46-58.97,58.97s26.46,58.97,58.97,58.97c12.6,0,24.86-4.05,34.95-11.48l24.42,12.59c.87,.45,1.82,.67,2.75,.67,1.79,0,3.54-.8,4.71-2.28,1.78-2.25,1.72-5.45-.15-7.63l-16.71-19.49c5.91-9.38,9.01-20.12,9.01-31.35,0-32.52-26.46-58.97-58.97-58.97h0Z"/></g><g><path class="cls-5" d="M646.17,674.54c-37.04,0-67.17-30.13-67.17-67.17,0-3.67,.31-7.37,.91-11.02l-28.48-18.76c-1.2-.79-1.67-2.32-1.12-3.64,.47-1.14,1.58-1.86,2.77-1.86,.19,0,.39,.02,.59,.06l31.85,6.34c11.12-23.34,34.66-38.28,60.64-38.28,37.04,0,67.17,30.13,67.17,67.17s-30.13,67.17-67.17,67.17Z"/><path class="cls-8" d="M646.17,543.2c35.44,0,64.17,28.73,64.17,64.17s-28.73,64.17-64.17,64.17-64.17-28.73-64.17-64.17c0-4.26,.42-8.41,1.22-12.44l-30.13-19.85,34.19,6.81c9.86-22.76,32.51-38.69,58.9-38.69m0-6c-26.35,0-50.31,14.72-62.31,37.89l-29.6-5.9c-.39-.08-.79-.12-1.17-.12-2.39,0-4.61,1.44-5.55,3.72-1.09,2.66-.15,5.71,2.25,7.29l26.87,17.7c-.44,3.18-.66,6.39-.66,9.57,0,38.69,31.48,70.17,70.17,70.17s70.17-31.48,70.17-70.17-31.48-70.17-70.17-70.17h0Z"/></g><g><path class="cls-2" d="M555.89,799.88c-18.52,0-33.59-15.07-33.59-33.59,0-6.27,1.72-12.33,5-17.63l-12.63-22.35c-.71-1.25-.43-2.82,.66-3.76,.56-.48,1.25-.72,1.95-.72,.66,0,1.32,.22,1.86,.65l19.15,15.19c5.29-3.26,11.33-4.98,17.59-4.98,18.52,0,33.59,15.07,33.59,33.59s-15.07,33.59-33.59,33.59Z"/><path class="cls-8" d="M517.28,724.84l20.85,16.54c5.01-3.57,11.13-5.69,17.75-5.69,16.89,0,30.59,13.7,30.59,30.59s-13.7,30.59-30.59,30.59-30.59-13.7-30.59-30.59c0-6.51,2.04-12.55,5.51-17.51l-13.53-23.94m0-6c-1.39,0-2.78,.48-3.9,1.44-2.18,1.86-2.74,5.01-1.33,7.51l11.78,20.85c-2.98,5.39-4.54,11.42-4.54,17.65,0,20.18,16.41,36.59,36.59,36.59s36.59-16.41,36.59-36.59-16.41-36.59-36.59-36.59c-6.11,0-12.02,1.5-17.33,4.36l-17.55-13.92c-1.09-.87-2.41-1.3-3.73-1.3h0Z"/></g><g><path class="cls-5" d="M124.72,682.17c-31.73,0-57.55-25.82-57.55-57.55s25.82-57.55,57.55-57.55c13.64,0,26.73,4.8,37.11,13.56l28.35-13.18c.41-.19,.84-.28,1.26-.28,.94,0,1.85,.44,2.43,1.24,.84,1.16,.75,2.76-.23,3.81l-20.23,21.72c5.81,9.19,8.86,19.74,8.86,30.67,0,31.73-25.82,57.55-57.55,57.55Z"/><path class="cls-8" d="M124.72,570.06c14.09,0,26.93,5.34,36.6,14.11l30.12-14-21.84,23.45c6.09,8.8,9.67,19.48,9.67,30.99,0,30.13-24.42,54.55-54.55,54.55s-54.55-24.42-54.55-54.55,24.42-54.55,54.55-54.55m0-6c-33.39,0-60.55,27.16-60.55,60.55s27.16,60.55,60.55,60.55,60.55-27.16,60.55-60.55c0-10.72-2.79-21.1-8.12-30.29l18.69-20.06c1.96-2.1,2.15-5.29,.47-7.61-1.16-1.6-2.98-2.48-4.86-2.48-.85,0-1.71,.18-2.53,.56l-26.65,12.38c-10.67-8.44-23.85-13.05-37.55-13.05h0Z"/></g><g><path class="cls-1" d="M698.4,525.31c-17.3,0-32.24-11.87-36.26-28.49l-32.78-7.26c-1.4-.31-2.39-1.57-2.35-3s1.08-2.64,2.5-2.88l32.91-5.57c4.4-16.01,19.22-27.42,35.99-27.42,20.58,0,37.32,16.74,37.32,37.32s-16.74,37.32-37.32,37.32Z"/><path class="cls-8" d="M698.4,453.67c18.96,0,34.32,15.37,34.32,34.32s-15.37,34.32-34.32,34.32c-16.8,0-30.77-12.07-33.73-28.01l-34.66-7.68,34.85-5.9c3.34-15.46,17.08-27.05,33.54-27.05m0-6c-9.27,0-18.32,3.23-25.49,9.08-5.98,4.89-10.44,11.42-12.83,18.7l-31.08,5.26c-2.83,.48-4.92,2.9-5,5.77-.07,2.87,1.9,5.39,4.7,6.01l31,6.87c4.97,17,20.64,28.96,38.69,28.96,22.23,0,40.32-18.09,40.32-40.32s-18.09-40.32-40.32-40.32h0Z"/></g><g><path class="cls-1" d="M429.21,141.98c-1.43-.04-2.64-1.09-2.88-2.51l-3.44-20.65c-14.94-2.9-25.95-16.06-25.95-31.5,0-17.7,14.4-32.1,32.1-32.1s32.1,14.4,32.1,32.1c0,14.75-10.05,27.52-24.17,31.1l-4.76,21.21c-.31,1.37-1.53,2.34-2.93,2.34-.03,0-.06,0-.08,0Z"/><path class="cls-8" d="M429.05,58.23c16.07,0,29.1,13.03,29.1,29.1,0,14.22-10.2,26.04-23.67,28.59l-5.18,23.07-3.79-22.78c-14.4-1.75-25.55-14.01-25.55-28.88,0-16.07,13.03-29.1,29.1-29.1m0-6c-19.35,0-35.1,15.75-35.1,35.1,0,16.17,11.03,30.05,26.32,33.98l3.11,18.66c.47,2.83,2.88,4.93,5.75,5.01,.06,0,.11,0,.17,0,2.8,0,5.24-1.94,5.85-4.69l4.37-19.47c14.49-4.51,24.63-18.01,24.63-33.5,0-19.35-15.75-35.1-35.1-35.1h0Z"/></g></g><g id="_スマホ"><g><rect class="cls-7" x="230.77" y="171.81" width="286.51" height="507.36" rx="31.42" ry="31.42"/><circle class="cls-3" cx="377.57" cy="619.76" r="29.27"/><rect class="cls-3" x="314.22" y="167.93" width="119.62" height="37.85" rx="9.91" ry="9.91"/></g><g><polygon class="cls-6" points="325.14 492.08 377.26 439.96 429.38 492.08 325.14 492.08"/><g><path class="cls-6" d="M355.89,504.2v12.94h-9.98v51.71h-16.81v-51.71h-9.94v-12.94h36.74Z"/><path class="cls-6" d="M388.78,504.2l9.61,64.65h-17.18l-.9-11.62h-6.01l-1.01,11.62h-17.38l8.58-64.65h24.3Zm-8.91,41.57c-.85-7.32-1.7-16.37-2.56-27.15-1.71,12.38-2.79,21.43-3.23,27.15h5.79Z"/><path class="cls-6" d="M401.24,504.2h16.93c4.58,0,8.1,.36,10.56,1.08,2.46,.72,4.31,1.76,5.55,3.11,1.24,1.36,2.08,3,2.52,4.93,.44,1.93,.66,4.92,.66,8.96v5.63c0,4.13-.43,7.13-1.28,9.02-.85,1.89-2.42,3.34-4.69,4.35-2.28,1.01-5.25,1.52-8.92,1.52h-4.51v26.03h-16.81v-64.65Zm16.81,11.06v16.45c.48,.03,.89,.04,1.24,.04,1.54,0,2.62-.38,3.21-1.14,.6-.76,.9-2.34,.9-4.73v-5.31c0-2.21-.35-3.65-1.04-4.31-.69-.66-2.13-1-4.31-1Z"/></g></g></g><g id="_日時"><g><path class="cls-4" d="M564.42,170.01h-30.87v-15h26.49c2.35,0,3.15-1.73,3.15-3.4v-.12c-1.54,.18-3.09,.31-4.63,.31h-10.19c-13.15,0-17.59-6.92-17.59-15.19v-1.85c0-8.46,4.14-15.99,17.59-15.99h14.32c12.84,0,19.02,6.85,19.02,16.92v17.47c0,8.89-5.37,16.85-17.29,16.85Zm-1.23-33.71c0-1.05-.49-1.91-1.91-1.91h-10.19c-1.48,0-1.91,.86-1.91,1.61v.68c0,1.42,.93,1.91,1.91,1.91h10.19c1.42,0,1.91-.93,1.91-1.79v-.49Z"/><path class="cls-4" d="M586.21,169.77v-18.46h18.21v18.46h-18.21Z"/><path class="cls-4" d="M621.83,170.01v-30.75c0-.93-.49-1.36-1.36-1.36h-11.36v-18.15h20.87c6.98,0,11.24,4.51,11.24,11.11v39.14h-19.39Z"/><path class="cls-4" d="M678.99,170.08h-32.84v-16.36h29.2c1.3,0,1.67-.49,1.67-1.42v-.37c0-.93-.49-1.42-1.67-1.42h-22.78c-4.69,0-6.42-2.28-6.42-6.85v-23.89h47.66v15.06h-29.51v1.54c0,.62,.43,.86,1.11,.86h13.58c13.15,0,16.92,5.43,16.92,14.69v2.9c0,10.5-4.57,15.25-16.92,15.25Z"/></g><g><path class="cls-4" d="M548.81,198.07h-5.62v4.25h-7.55v-20.76h13.23c4.2,0,7.05,2.04,7.05,7.55v1.65c0,4.35-2.14,7.3-7.1,7.3Zm-.51-8.32c0-1.25-.41-1.4-1.53-1.4h-3.59v2.85h3.59c1.09,0,1.53-.31,1.53-1.22v-.23Z"/><path class="cls-4" d="M574.6,202.32v-12.11c0-1.53-.18-2.09-1.6-2.14v14.25h-5.42v-14.25c-1.3,.1-1.58,.79-1.58,2.14v12.11h-7.02v-12.77c0-6.05,2.57-8.11,8.7-8.11h5.52c6.21,0,8.47,1.78,8.47,8.11v12.77h-7.07Z"/><path class="cls-4" d="M597.82,202.32v-12.67c0-.38-.2-.56-.56-.56h-4.68v-7.48h8.6c2.87,0,4.63,1.86,4.63,4.58v16.13h-7.99Z"/><path class="cls-4" d="M620.96,194.76h-5.24v.97h12.46v6.59h-20.27v-12.72h11.98c.69,0,.94-.28,.94-.69v-.1c0-.43-.33-.64-.94-.64h-11.98v-6.56h13.05c5.54,0,7.76,2.49,7.76,6.77v.46c0,3.13-1.65,5.93-7.76,5.93Z"/><path class="cls-4" d="M630.57,192.07v-7.63h7.5v7.63h-7.5Zm0,10.15v-7.61h7.5v7.61h-7.5Z"/><path class="cls-4" d="M651.86,202.6h-2.72c-6.79,0-8.8-1.96-8.8-8.8v-3.46c0-7.15,2.11-8.98,8.72-8.98h2.93c6.54,0,8.7,1.83,8.7,8.98v3.46c0,6.84-2.03,8.8-8.83,8.8Zm1.88-12.26c0-1.83-.69-2.34-1.76-2.34h-2.93c-1.27,0-1.83,.53-1.83,2.34v3.46c0,1.68,.46,2.14,1.91,2.14h2.72c1.25,0,1.88-.74,1.88-2.14v-3.46Z"/><path class="cls-4" d="M675.06,202.6h-2.72c-6.79,0-8.8-1.96-8.8-8.8v-3.46c0-7.15,2.11-8.98,8.72-8.98h2.93c6.54,0,8.7,1.83,8.7,8.98v3.46c0,6.84-2.03,8.8-8.83,8.8Zm1.88-12.26c0-1.83-.69-2.34-1.76-2.34h-2.93c-1.27,0-1.83,.53-1.83,2.34v3.46c0,1.68,.46,2.14,1.91,2.14h2.72c1.25,0,1.88-.74,1.88-2.14v-3.46Z"/><path class="cls-4" d="M604.05,223.54c-2.14,0-4.02-2.26-5.67-2.26s-3.15,.94-3.99,1.68v-7.22c1.5-1.09,2.54-1.35,3.97-1.35,2.44,0,4.25,2.26,5.72,2.26,1.6,0,3.31-.94,4.15-1.73v7.25c-1.4,1.02-2.67,1.37-4.17,1.37Z"/><path class="cls-4" d="M565.74,252.09h-5.62v4.25h-7.55v-20.76h13.23c4.2,0,7.05,2.04,7.05,7.55v1.65c0,4.35-2.14,7.3-7.1,7.3Zm-.51-8.32c0-1.25-.41-1.4-1.53-1.4h-3.59v2.85h3.59c1.09,0,1.53-.31,1.53-1.22v-.23Z"/><path class="cls-4" d="M591.53,256.34v-12.11c0-1.53-.18-2.09-1.6-2.14v14.25h-5.42v-14.25c-1.3,.1-1.58,.79-1.58,2.14v12.11h-7.02v-12.77c0-6.05,2.57-8.11,8.7-8.11h5.52c6.21,0,8.47,1.78,8.47,8.11v12.77h-7.07Z"/><path class="cls-4" d="M614.75,256.34v-12.67c0-.38-.2-.56-.56-.56h-4.68v-7.48h8.6c2.87,0,4.63,1.86,4.63,4.58v16.13h-7.99Z"/><path class="cls-4" d="M638.48,256.74h-5.9c-5.27,0-7.81-2.8-7.81-6.94v-7.2c0-3.69,2.19-6.97,7.1-6.97h12.92v6.21h-11.09c-.99,0-1.32,.71-1.32,1.37v.08c.66-.08,1.3-.1,1.91-.1h4.2c5.42,0,7.25,2.8,7.25,6.23v.74c0,3.51-1.7,6.59-7.25,6.59Zm-.33-7.4c0-.51-.38-.76-.81-.76h-4.17c-.58,0-.79,.41-.79,.74v.23c0,.41,.2,.79,.79,.79h4.17c.64,0,.81-.38,.81-.66v-.33Z"/><path class="cls-4" d="M647.51,246.09v-7.63h7.5v7.63h-7.5Zm0,10.15v-7.61h7.5v7.61h-7.5Z"/><path class="cls-4" d="M668.8,256.62h-2.72c-6.79,0-8.8-1.96-8.8-8.8v-3.46c0-7.15,2.11-8.98,8.72-8.98h2.93c6.54,0,8.7,1.83,8.7,8.98v3.46c0,6.84-2.03,8.8-8.83,8.8Zm1.88-12.26c0-1.83-.69-2.34-1.76-2.34h-2.93c-1.27,0-1.83,.53-1.83,2.34v3.46c0,1.68,.46,2.14,1.91,2.14h2.72c1.25,0,1.88-.74,1.88-2.14v-3.46Z"/><path class="cls-4" d="M692,256.62h-2.72c-6.79,0-8.8-1.96-8.8-8.8v-3.46c0-7.15,2.11-8.98,8.72-8.98h2.93c6.54,0,8.7,1.83,8.7,8.98v3.46c0,6.84-2.03,8.8-8.83,8.8Zm1.88-12.26c0-1.83-.69-2.34-1.76-2.34h-2.93c-1.27,0-1.83,.53-1.83,2.34v3.46c0,1.68,.46,2.14,1.91,2.14h2.72c1.25,0,1.88-.74,1.88-2.14v-3.46Z"/></g></g></g></svg>