<svg xmlns="http://www.w3.org/2000/svg" viewBox="0 0 105.64 805.57"><defs><style>.cls-1{fill:none;stroke:#e3e9ed;stroke-linecap:round;stroke-miterlimit:10;stroke-width:2px;}.cls-2{fill:#3d3939;}</style></defs><g id="レイヤー_2" data-name="レイヤー 2"><g id="レイヤー_1-2" data-name="レイヤー 1"><line class="cls-1" x1="104.64" y1="1" x2="104.64" y2="804.57"/><path class="cls-2" d="M4.88,34.24V22.44a.46.46,0,0,0-.52-.52H0V15H8a4,4,0,0,1,4.31,4.27v15Z"/><path class="cls-2" d="M31.42,31.61v2.65H24.33V31.61H20.8c-5.19,0-6.56-1.92-6.56-6.49V15H21.3v9.12c0,.69.19.95.95.95h2.08V15h7.09V25h2.2v6.59Z"/><path class="cls-2" d="M35.25,24.69V17.58h7v7.11Zm0,9.45V27.06h7v7.08Z"/><path class="cls-2" d="M56.48,34.26H43.87V28H55.08c.5,0,.64-.19.64-.54V27.3c0-.36-.19-.55-.64-.55H46.34c-1.8,0-2.47-.88-2.47-2.63V15h18.3v5.78H50.84v.59c0,.24.17.34.43.34h5.21c5.05,0,6.49,2.08,6.49,5.64v1.11C63,32.44,61.22,34.26,56.48,34.26Z"/><path class="cls-2" d="M75.88,34.5H73.35c-6.33,0-8.2-1.83-8.2-8.2V23.08c0-6.66,2-8.37,8.12-8.37H76c6.09,0,8.1,1.71,8.1,8.37V26.3C84.1,32.67,82.21,34.5,75.88,34.5Zm1.75-11.42c0-1.71-.64-2.18-1.63-2.18H73.27c-1.18,0-1.7.5-1.7,2.18V26.3c0,1.56.42,2,1.78,2h2.53c1.16,0,1.75-.69,1.75-2Z"/><path class="cls-2" d="M4.88,230.52v-11.8a.46.46,0,0,0-.52-.52H0v-7H8a4,4,0,0,1,4.31,4.26v15Z"/><path class="cls-2" d="M26.82,230.54H14.21v-6.28H25.42c.5,0,.64-.19.64-.54v-.15c0-.35-.19-.54-.64-.54H16.68c-1.8,0-2.47-.88-2.47-2.63v-9.17h18.3V217H21.18v.59c0,.24.17.33.43.33h5.21c5.05,0,6.49,2.09,6.49,5.64v1.12C33.31,228.72,31.56,230.54,26.82,230.54Z"/><path class="cls-2" d="M34.94,221v-7.11h7V221Zm0,9.45v-7.08h7v7.08Z"/><path class="cls-2" d="M48.59,230.52v-11.8a.46.46,0,0,0-.52-.52H43.71v-7h8A4,4,0,0,1,56,215.49v15Z"/><path class="cls-2" d="M69.13,230.78H66.59c-6.32,0-8.2-1.83-8.2-8.2v-3.22c0-6.66,2-8.37,8.13-8.37h2.73c6.09,0,8.1,1.71,8.1,8.37v3.22C77.35,229,75.46,230.78,69.13,230.78Zm1.75-11.42c0-1.71-.64-2.18-1.63-2.18H66.52c-1.18,0-1.7.49-1.7,2.18v3.22c0,1.56.42,2,1.77,2h2.54c1.16,0,1.75-.69,1.75-2Z"/><path class="cls-2" d="M4.88,434.8V423a.47.47,0,0,0-.52-.52H0v-7H8a4,4,0,0,1,4.31,4.26v15Z"/><path class="cls-2" d="M26.82,434.82H14.21v-6.28H25.42c.5,0,.64-.19.64-.55v-.14c0-.35-.19-.54-.64-.54H16.68c-1.8,0-2.47-.88-2.47-2.63v-9.17h18.3v5.78H21.18v.59c0,.24.17.33.43.33h5.21c5.05,0,6.49,2.09,6.49,5.64V429C33.31,433,31.56,434.82,26.82,434.82Z"/><path class="cls-2" d="M34.94,425.25v-7.11h7v7.11Zm0,9.45v-7.08h7v7.08Z"/><path class="cls-2" d="M56.1,434.82H43.45v-6.16H54.58c.5,0,.64-.19.64-.57v-.26c0-.26-.16-.55-.64-.55H43.52v-4.36H54.44a.52.52,0,0,0,.57-.54v-.17a.53.53,0,0,0-.59-.59H43.61v-6.11H56c4.24,0,6.16,1.8,6.16,5v1.57A4.08,4.08,0,0,1,61.05,425a4,4,0,0,1,1.5,3.2v1.33C62.55,434.16,60.1,434.82,56.1,434.82Z"/><path class="cls-2" d="M75.48,435.06H72.94c-6.32,0-8.2-1.83-8.2-8.2v-3.23c0-6.65,2-8.36,8.13-8.36H75.6c6.09,0,8.1,1.71,8.1,8.36v3.23C83.7,433.23,81.8,435.06,75.48,435.06Zm1.75-11.43c0-1.7-.64-2.18-1.63-2.18H72.87c-1.18,0-1.7.5-1.7,2.18v3.23c0,1.56.42,2,1.77,2h2.54c1.16,0,1.75-.69,1.75-2Z"/><path class="cls-2" d="M4.88,633.07v-11.8a.47.47,0,0,0-.52-.52H0v-7H8a4,4,0,0,1,4.31,4.27v15Z"/><path class="cls-2" d="M26.82,633.1H14.21v-6.28H25.42c.5,0,.64-.19.64-.55v-.14c0-.35-.19-.54-.64-.54H16.68c-1.8,0-2.47-.88-2.47-2.63v-9.18h18.3v5.79H21.18v.59c0,.24.17.33.43.33h5.21c5.05,0,6.49,2.09,6.49,5.64v1.11C33.31,631.27,31.56,633.1,26.82,633.1Z"/><path class="cls-2" d="M34.94,623.52v-7.11h7v7.11Zm0,9.46v-7.09h7V633Z"/><path class="cls-2" d="M56.17,633.1H43.56v-6.28H54.77c.5,0,.64-.19.64-.55v-.14c0-.35-.19-.54-.64-.54H46c-1.8,0-2.47-.88-2.47-2.63v-9.18h18.3v5.79H50.53v.59c0,.24.17.33.43.33h5.21c5,0,6.49,2.09,6.49,5.64v1.11C62.66,631.27,60.91,633.1,56.17,633.1Z"/><path class="cls-2" d="M75.57,633.33H73c-6.33,0-8.2-1.82-8.2-8.19v-3.23c0-6.66,2-8.36,8.13-8.36h2.72c6.09,0,8.11,1.7,8.11,8.36v3.23C83.8,631.51,81.9,633.33,75.57,633.33Zm1.76-11.42c0-1.7-.64-2.18-1.64-2.18H73c-1.19,0-1.71.5-1.71,2.18v3.23c0,1.56.43,2,1.78,2h2.53c1.16,0,1.76-.69,1.76-2Z"/></g></g></svg>