<svg xmlns="http://www.w3.org/2000/svg" viewBox="0 0 392.42 817.11"><defs><style>.cls-1{fill:#e3e9ed;}.cls-2{fill:#f2c2ac;}.cls-3{fill:#df641e;}.cls-4{fill:#e9b849;}.cls-5{fill:#3d3939;}</style></defs><g id="レイヤー_2" data-name="レイヤー 2"><g id="レイヤー_1-2" data-name="レイヤー 1"><path class="cls-1" d="M43.52,13.54H359.4a33,33,0,0,1,33,33V775.85a41.26,41.26,0,0,1-41.26,41.26H51.76A41.26,41.26,0,0,1,10.5,775.85V46.56A33,33,0,0,1,43.52,13.54Z"/><rect class="cls-2" y="3.38" width="283.18" height="3.94" rx="1.97"/><rect class="cls-3" x="16.08" width="24.21" height="10.7"/><rect class="cls-3" x="61.45" width="24.21" height="10.7"/><rect class="cls-3" x="106.82" width="24.21" height="10.7"/><rect class="cls-3" x="152.2" width="24.21" height="10.7"/><rect class="cls-3" x="197.57" width="24.21" height="10.7"/><rect class="cls-3" x="242.95" width="24.21" height="10.7"/><rect class="cls-3" x="4.19" y="10.7" width="274.8" height="51.82"/><rect class="cls-2" y="203.57" width="283.18" height="3.94" rx="1.97"/><rect class="cls-4" x="16.08" y="200.19" width="24.21" height="10.7"/><rect class="cls-4" x="61.45" y="200.19" width="24.21" height="10.7"/><rect class="cls-4" x="106.82" y="200.19" width="24.21" height="10.7"/><rect class="cls-4" x="152.2" y="200.19" width="24.21" height="10.7"/><rect class="cls-4" x="197.57" y="200.19" width="24.21" height="10.7"/><rect class="cls-4" x="242.95" y="200.19" width="24.21" height="10.7"/><rect class="cls-4" x="4.19" y="210.89" width="274.8" height="51.82"/><rect class="cls-2" y="403.76" width="283.18" height="3.94" rx="1.97"/><rect class="cls-3" x="16.08" y="400.38" width="24.21" height="10.7"/><rect class="cls-3" x="61.45" y="400.38" width="24.21" height="10.7"/><rect class="cls-3" x="106.82" y="400.38" width="24.21" height="10.7"/><rect class="cls-3" x="152.2" y="400.38" width="24.21" height="10.7"/><rect class="cls-3" x="197.57" y="400.38" width="24.21" height="10.7"/><rect class="cls-3" x="242.95" y="400.38" width="24.21" height="10.7"/><rect class="cls-3" x="4.19" y="411.08" width="274.8" height="51.82"/><rect class="cls-2" y="603.95" width="283.18" height="3.94" rx="1.97"/><rect class="cls-4" x="16.08" y="600.57" width="24.21" height="10.7"/><rect class="cls-4" x="61.45" y="600.57" width="24.21" height="10.7"/><rect class="cls-4" x="106.82" y="600.57" width="24.21" height="10.7"/><rect class="cls-4" x="152.2" y="600.57" width="24.21" height="10.7"/><rect class="cls-4" x="197.57" y="600.57" width="24.21" height="10.7"/><rect class="cls-4" x="242.95" y="600.57" width="24.21" height="10.7"/><rect class="cls-4" x="4.19" y="611.27" width="274.8" height="51.82"/><path class="cls-5" d="M42,48.62c-3.69,0-5.19-2.63-5.19-6.42V35c0-1-.53-2.32-2.77-2.32-1.81,0-2.92,1-2.92,2.22V46.25H23.72v-11c0-6.64,4.74-10,10.41-10a10.05,10.05,0,0,1,7.4,2.82V26h6.58v3H42.19v.84h5.92v3h-4a13.51,13.51,0,0,1,.23,2.47v5c0,.81.19,1,1,1h2.87v7.27Z"/><path class="cls-5" d="M63.86,48.83H60.12c-6.11,0-9.27-3.9-9.27-9.43V25.63h7.43V39.14A1.89,1.89,0,0,0,60,41.22h3.66a1.86,1.86,0,0,0,1.77-2V36.56h7.72v2.92C73.16,45,70,48.83,63.86,48.83Zm2.68-19.59v-3h6.4v3Zm0,3.84v-3h6.4v3Z"/><path class="cls-5" d="M84.93,33.19l-.61,15.64H77.08l.6-15.64H76.26V26H78l0-.79h7.25l0,.79h15.46v7.19Zm7.53,15.7c-4.95,0-7.06-2.77-7.06-7.77,0-4.19,2.48-7,7.37-7h7.43v5.58H94c-.4,0-.61.29-.61.74s.14.76.61.76h6.24v7.67Z"/><path class="cls-5" d="M120.22,47.86V40.33c0-.93-.53-1.56-1.72-1.56,0,0-.08,0-.1,0l.18,3.18c.24,4.17-1,6.88-8.27,6.88h-1.37c-4.24,0-6.42-2.74-6.42-7V34.64h6.32v1c.79-.32,1.74-.66,2.66-1l-.19-2.5h-6.5V25.6H120v6.56H118l.08,1a22.39,22.39,0,0,1,2.32-.08c4.42,0,6.69,2,6.69,5.77v9Zm-8.3-8a15.31,15.31,0,0,0-3.08,1.32c0,.37-.27.92,1,.92h1.34c.76,0,1.05-.16.89-.92Zm8.8-11.43v-3h6.55v3Zm0,3.87v-3h6.55v3Z"/><path class="cls-5" d="M142,48.89h-5.58c-4.56,0-7.27-2.56-7.27-6.59v-1c0-3.66,2.93-5.93,6.3-5.93h.5V33h-6.38V25.52h14.38v4.56c6.69.24,9.22,3.56,9.22,8.82v1C153.16,44.78,150.42,48.89,142,48.89Zm-5-7.46a1,1,0,0,0-.84-1H136a1,1,0,0,0-1,1,1,1,0,0,0,1.16,1H137Zm5.56-4.63h-1.69a6.78,6.78,0,0,1,2,4.45h.06c1.31,0,1.81-.87,1.81-2.29A1.91,1.91,0,0,0,142.6,36.8Z"/><path class="cls-5" d="M176.26,32.87V49.15h-7.67V47.94h-5.32c-5.08,0-7.19-3.43-7.19-7.22s2.11-6.9,7.19-6.9h5.32V32.71H155.45V26h13.14v-.65h7.67V26h3.53v3h-3.53v.82h3.53v3Zm-7.67,6.53H163.9c-.73,0-1,.29-1,.79s.37.82,1,.82h4.69Z"/><path class="cls-5" d="M41.05,250.7H38.5V246a10.68,10.68,0,0,1-8.82,4.75c-3.93,0-6.4-2.66-6.4-7.56a6.62,6.62,0,0,1,6-7v-1.77H23.85v-6.63h5.46v-.9h7.16v.9H47.24v6.48H36.47v1.87h1.08L38.1,235h6l-.5,1.45c3,.74,4.72,2.92,4.72,6.72C48.3,248.35,45.87,250.7,41.05,250.7Zm-9.9-8.8c-.74,0-1.13.34-1.13.89s.26.82,1,.82a3.85,3.85,0,0,0,2.88-1.71Zm9.43,0a19.77,19.77,0,0,1-1.24,2.69h.74c1.13,0,1.71-.58,1.71-1.4A1.27,1.27,0,0,0,40.58,241.9Z"/><path class="cls-5" d="M67.62,249.27v-3.18c0-.58-.15-.93-.73-1,0,3.45-1.35,5.45-5.45,5.45H55.22c-3.92,0-5.45-2.39-5.45-5.61,0-3.45,2.26-5.16,5.92-5.16h4.4v-.87H50.82v-5.11h9.27v-.94H50.82V227.7h9.27v-.87h7.4v.87h5.64v5.17H67.49v.94h5.64v5.11H67.49v.87h.63c4.09,0,6.22,2.29,6.22,6v3.5Zm-7.53-5.4H56.62a.55.55,0,0,0-.58.58.53.53,0,0,0,.58.53h2.84c.5,0,.63-.16.63-.5Z"/><path class="cls-5" d="M93.38,238.58H87.19c-1.5,0-2.61.71-2.61,2.19S85.64,243,87.19,243h13.17v7.45H86.08c-6.47,0-9.66-3.69-9.66-9.69a9.3,9.3,0,0,1,4-8v-5.42H88v3.84h4.14a.86.86,0,0,0,.92-.95v-1.15h7.66v2C100.75,236.76,98,238.58,93.38,238.58Z"/><path class="cls-5" d="M117.11,250.49H104.36v-7.12h12.77c.79,0,1.08-.36,1.08-.94s-.34-.77-1.08-.77H102.81v-6.79h14.3c6.5,0,9.22,2.82,9.22,7.66C126.33,248,123.3,250.49,117.11,250.49Zm-.92-16v-.08c0-.29-.19-.58-.77-.58H104.33v-6.76h10.72c7,0,9,2.08,9,6.71v.71Z"/><path class="cls-5" d="M39.31,450.24v-8c0-.79-.26-1.13-1.31-1.13v9.17H32.55v-9.17c-.79.05-1.35.4-1.35,1.13v8h-7V439.83c0-3.32,2.48-5.5,6.32-5.5H40c3.82,0,6.32,2.18,6.32,5.5v10.41Z"/><path class="cls-5" d="M49,434.67v-5.95h7.56v5.95Zm0,15.57V435.88h7.56v14.36Z"/><path class="cls-5" d="M60.12,434.67v-5.95h7.56v5.95Zm0,15.57V435.88h7.56v14.36Z"/><path class="cls-5" d="M84.35,450.26H75.81c-3.47,0-5.45-1.47-5.45-5.61V434.36h7.56v7.84c0,.64.29,1.06.87,1.06h2.58c.55,0,.87-.24.87-1.06v-7.84h7.58v10.29C89.82,448.26,87.8,450.26,84.35,450.26Z"/><path class="cls-5" d="M106.68,450.24v-8c0-.79-.27-1.13-1.32-1.13v9.17H99.91v-9.17c-.79.05-1.34.4-1.34,1.13v8h-7V439.83c0-3.32,2.47-5.5,6.32-5.5h9.45c3.82,0,6.32,2.18,6.32,5.5v10.41Z"/><path class="cls-5" d="M25.78,649.8v-7.21H40.84v-1.45H27.15v-5.53H40.84c0-1.13-.16-1.48-1.18-1.48H25.78v-6.79H39.37c7.21,0,9.4,1.84,9.4,8.35V649.8Z"/><path class="cls-5" d="M75.1,637.08c-1.18,7.62-4.29,12.7-16.17,12.7H51.85v-7.11H58c6.48,0,8.5-2.08,9.32-6.72a3.27,3.27,0,0,1,.53-1.45h8.19v.11C75.68,634.87,75.31,635.66,75.1,637.08Zm-22.94-3.47v-6.27H63.75v6.27Zm0,7.24v-6.24H63.75v6.24Zm17.68-11.22v-3h6.4v3Zm0,4v-3h6.4v3Z"/><path class="cls-5" d="M91.72,647h-2.4V640.9h2.4c1.87,0,2.21-.45,2.21-1.87v-.52H88.24l.37,11.4h-6l-.42-11.4h-2v-5.93H82l0-1.37h6l0,1.37h12v4.82C100,644.38,98.2,647,91.72,647Z"/><path class="cls-5" d="M123.67,643.25a28.1,28.1,0,0,1-10.17-1.64v8.22h-8.09V626.66h8.09v5.47c0,2.9,6.5,3.37,10.17,3.37H127v7.75Zm-2.22-13.59v-3h6.4v3Zm0,4v-3h6.4v3Z"/><path class="cls-5" d="M130.51,649.83v-8.19c1.05-.26,1.42-.76,1.42-3.29V626.92h6.8v10.74C138.73,646.38,136.36,649.36,130.51,649.83Zm17.7-14v0c0,5-1,5.9-1.29,5.9h-.32l.13-1.35V626.92h-6.95v22.91h6.56c6.22,0,8.82-4.48,8.82-14Zm6.95-.06v0Z"/><path class="cls-5" d="M166.51,633.37v1.55h6.14v6h-6.14v.4c0,1.31.34,1.71,1.69,1.71h3.63c1.13,0,1.66-.55,1.66-1.71v-6.38h7.24v5.61c0,7.22-3,9.43-8.79,9.43H168c-6.67,0-8.88-3.42-8.88-8.93v-.13H157v-6h2.13v-1.55H157v-6h2.13v-.84h7.4v.84h14.75v6Z"/><path class="cls-5" d="M206.65,633.45v1c0,2.69-1.35,4.66-6.46,4.66h-6c-1.5,0-2.6.29-2.6,1.77s1.05,1.63,2.6,1.63h13.17V650H193.06c-6.48,0-9.67-3.06-9.67-9.09a8.54,8.54,0,0,1,4-7.69v-6.3H195v4.9h5.92v-1.39h7v3Zm-5.72-3.87v-3h7v3Z"/><path class="cls-5" d="M229.87,639.93l.06,1.84H219c-.55,0-.79.27-.79.61s.29.6.79.6H232.9v7H217.65c-4.45,0-7-2.5-7-6.29a6.93,6.93,0,0,1,.85-3.46h-1.93v-5.63H222.1l0-1H209.54V627.6h12.38l0-1h7.61l.05,1H234v6.06h-4.29l0,1H234v5.32Z"/></g></g></svg>