<svg xmlns="http://www.w3.org/2000/svg" viewBox="0 0 149.89 21.05"><defs><style>.cls-1{fill:#e3e9ed;}.cls-2{fill:#3d3939;}.cls-3,.cls-5{fill:none;stroke-miterlimit:10;}.cls-3{stroke:#3d3939;stroke-width:1.68px;}.cls-4{fill:#df641e;}.cls-5{stroke:#c65819;stroke-width:0.34px;}</style></defs><g id="レイヤー_2" data-name="レイヤー 2"><g id="レイヤー_1-2" data-name="レイヤー 1"><rect class="cls-1" width="149.89" height="21.05" rx="10.52"/><path class="cls-2" d="M33.45,13.49a9.31,9.31,0,0,1-4.6,1V12c3.56,0,4.56-1.67,4.56-2.38V9.45H29.14V7.17h7V9.06a5,5,0,0,1-.79,2.63,5.07,5.07,0,0,0,1.77.27v2.5A5.47,5.47,0,0,1,33.45,13.49Z"/><path class="cls-2" d="M44.6,11.87c-.15,1.5-.91,2.63-3.54,2.63H38.17V12.12H40.7c.81,0,1-.16,1.1-.54h-4V9.74h8.45v2.13ZM38,9.34V7.19h8.16V9.34Z"/><path class="cls-2" d="M47.15,11.92V9.36h7.72v2.56Z"/><path class="cls-2" d="M63.92,10.32c-.41,2.48-1.47,4.14-5.54,4.14H56V12.14h2.12c2.21,0,2.91-.68,3.19-2.19a1,1,0,0,1,.18-.47h2.8v0C64.11,9.6,64,9.86,63.92,10.32ZM56.07,9.19v-2h4V9.19Zm0,2.36v-2h4v2Zm6-3.66v-1H64.3v1Zm0,1.3v-1H64.3v1Z"/><path class="cls-2" d="M69.49,13.49a9.31,9.31,0,0,1-4.6,1V12c3.56,0,4.56-1.67,4.56-2.38V9.45H65.18V7.17h7V9.06a5,5,0,0,1-.79,2.63A5.07,5.07,0,0,0,73.2,12v2.5A5.47,5.47,0,0,1,69.49,13.49Z"/><path class="cls-2" d="M81.3,10v.49c0,2.66-1.41,4-4.57,4H74.46V12h2.27c1.46,0,1.85-.65,1.85-1.46V10H76.43a3.34,3.34,0,0,1-2.56,1.4V8.71c.36-.18.52-.39.52-1V7H77v.53h5.09V10Z"/><path class="cls-2" d="M91,10.32c-.41,2.48-1.47,4.14-5.54,4.14H83V12.14h2.12c2.21,0,2.91-.68,3.19-2.19a.88.88,0,0,1,.18-.47h2.8v0C91.14,9.6,91,9.86,91,10.32ZM83.1,9.19v-2h4V9.19Zm0,2.36v-2h4v2Zm6-3.66v-1h2.19v1Zm0,1.3v-1h2.19v1Z"/><path class="cls-2" d="M92.7,14.47v-2h3.92V10.87c0-.16-.1-.29-.33-.29H93.07v-2h3.22c2.2,0,2.52.33,2.52,2.22V12.5h.6v2Z"/><path class="cls-2" d="M101.21,11.92V9.36h7.72v2.56Z"/><path class="cls-2" d="M109.9,14.47V11.81c.36-.09.49-.25.49-1.08V7h2.32v3.5C112.71,13.35,111.9,14.32,109.9,14.47ZM116,9.92h0c0,1.62-.34,1.93-.44,1.93h-.11l0-.44V7h-2.38v7.46h2.25c2.12,0,3-1.45,3-4.55Zm2.37,0v0Z"/><circle class="cls-3" cx="19.03" cy="9.63" r="3.16"/><path class="cls-2" d="M14.14,11.4h1.78a0,0,0,0,1,0,0v3.54a.89.89,0,0,1-.89.89h0a.89.89,0,0,1-.89-.89V11.4a0,0,0,0,1,0,0Z" transform="translate(14.03 -6.64) rotate(45)"/><rect class="cls-2" x="130.33" y="3.5" width="4.83" height="1.12"/><path class="cls-4" d="M135.36,16.87h-5.23a2.39,2.39,0,0,1-2.23-1.56,2.33,2.33,0,0,1-.08-1.2l.2-1.06a2.42,2.42,0,0,0,0-.89l-.18-1a2.48,2.48,0,0,1,0-.86L128,9.18a2.42,2.42,0,0,0,0-.89l-.17-.86a2.31,2.31,0,0,1,.24-1.63,2.37,2.37,0,0,1,2-1.18h5.23a2.32,2.32,0,0,1,2.28,2.87l-.14.7a2.27,2.27,0,0,0,0,.9l.19,1.22a2.26,2.26,0,0,1,0,.86l-.17.89a2.42,2.42,0,0,0,0,.89l.21,1.19a2.26,2.26,0,0,1,0,1A2.38,2.38,0,0,1,135.36,16.87Z"/><rect class="cls-2" x="130.33" y="16.87" width="4.83" height="1.12"/><line class="cls-5" x1="128.05" y1="8.62" x2="137.45" y2="8.62"/><line class="cls-5" x1="128.05" y1="12.63" x2="137.45" y2="12.63"/><line class="cls-5" x1="127.79" y1="10.74" x2="137.71" y2="10.74"/><line class="cls-5" x1="127.79" y1="14.71" x2="137.71" y2="14.71"/><line class="cls-5" x1="127.79" y1="6.9" x2="137.7" y2="6.9"/></g></g></svg>