<svg xmlns="http://www.w3.org/2000/svg" viewBox="0 0 436.45 61.28"><defs><style>.cls-1{fill:#e3e9ed;}.cls-2{fill:#3d3939;}.cls-3,.cls-5{fill:none;stroke-miterlimit:10;}.cls-3{stroke:#3d3939;stroke-width:4.89px;}.cls-4{fill:#df641e;}.cls-5{stroke:#c65819;}</style></defs><g id="レイヤー_2" data-name="レイヤー 2"><g id="レイヤー_1-2" data-name="レイヤー 1"><rect class="cls-1" width="436.45" height="61.28" rx="30.64"/><path class="cls-2" d="M97.41,39.27c-3.25,1.83-7.61,3-13.4,3V35c10.36,0,13.27-4.87,13.27-6.92v-.52H84.85V20.88h20.51v5.5A14.29,14.29,0,0,1,103.05,34a14.13,14.13,0,0,0,5.14.8V42.1C102.29,42.1,100.37,41.22,97.41,39.27Z"/><path class="cls-2" d="M129.86,34.57c-.42,4.35-2.65,7.65-10.31,7.65h-8.42V35.3h7.37c2.36,0,3-.48,3.2-1.58H110.14V28.35h24.57v6.22ZM110.53,27.2V20.93h23.76V27.2Z"/><path class="cls-2" d="M137.29,34.7V27.25h22.48V34.7Z"/><path class="cls-2" d="M186.11,30.05C184.93,37.27,181.83,42.1,170,42.1H163V35.35h6.16c6.45,0,8.47-2,9.29-6.37a3,3,0,0,1,.52-1.38h8.16v.1C186.68,28,186.32,28.7,186.11,30.05Zm-22.85-3.3V20.8H174.8v5.95Zm0,6.87V27.7H174.8v5.92ZM180.86,23V20.13h6.37V23Zm0,3.77V23.93h6.37v2.82Z"/><path class="cls-2" d="M202.35,39.27c-3.26,1.83-7.61,3-13.41,3V35c10.36,0,13.28-4.87,13.28-6.92v-.52H189.78V20.88h20.51v5.5A14.36,14.36,0,0,1,208,34a14.13,14.13,0,0,0,5.14.8V42.1C207.23,42.1,205.31,41.22,202.35,39.27Z"/><path class="cls-2" d="M236.74,29.18V30.6c0,7.75-4.12,11.57-13.33,11.57H216.8v-7.3h6.61c4.25,0,5.41-1.87,5.41-4.24V29.18h-6.27c-1.42,2.17-3.78,3.62-7.45,4.07v-7.9c1.05-.5,1.49-1.12,1.49-2.82v-2.1h7.66V22h14.82v7.2Z"/><path class="cls-2" d="M264.81,30.05c-1.18,7.22-4.28,12.05-16.11,12.05h-7V35.35h6.16c6.45,0,8.48-2,9.29-6.37a3,3,0,0,1,.52-1.38h8.16v.1C265.39,28,265,28.7,264.81,30.05ZM242,26.75V20.8H253.5v5.95Zm0,6.87V27.7H253.5v5.92ZM259.56,23V20.13h6.38V23Zm0,3.77V23.93h6.38v2.82Z"/><path class="cls-2" d="M269.93,42.12V36.4h11.41V31.65c0-.48-.29-.85-1-.85H271V25.08h9.37c6.4,0,7.34,1,7.34,6.44V36.4h1.76v5.72Z"/><path class="cls-2" d="M294.69,34.7V27.25h22.48V34.7Z"/><path class="cls-2" d="M320,42.15V34.37c1.05-.25,1.42-.72,1.42-3.12V20.4h6.76V30.6C328.19,38.87,325.83,41.7,320,42.15Zm17.63-13.27v.05c0,4.69-1,5.59-1.29,5.59H336l.13-1.27V20.4h-6.93V42.15h6.53c6.19,0,8.79-4.25,8.79-13.27Zm6.92-.05v0Z"/><circle class="cls-3" cx="55.4" cy="28.03" r="9.19"/><path class="cls-2" d="M41.18,33.21h5.18a0,0,0,0,1,0,0V43.53a2.59,2.59,0,0,1-2.59,2.59h0a2.59,2.59,0,0,1-2.59-2.59V33.21A0,0,0,0,1,41.18,33.21Z" transform="translate(40.86 -19.33) rotate(45)"/><rect class="cls-2" x="379.49" y="10.19" width="14.08" height="3.26"/><path class="cls-4" d="M394.14,49.11H378.92a7,7,0,0,1-6.51-4.53,6.67,6.67,0,0,1-.23-3.49l.57-3.09a7.51,7.51,0,0,0,0-2.59l-.53-2.88a7.06,7.06,0,0,1,0-2.51l.56-3.28a7.1,7.1,0,0,0,0-2.6l-.5-2.52a6.75,6.75,0,0,1,.7-4.73,6.92,6.92,0,0,1,6-3.45h15.22a6.77,6.77,0,0,1,6.64,8.38l-.43,2a7.27,7.27,0,0,0-.06,2.63l.58,3.53a6.89,6.89,0,0,1,0,2.52l-.5,2.6a7,7,0,0,0,0,2.59l.6,3.46a6.54,6.54,0,0,1-.08,2.82A6.94,6.94,0,0,1,394.14,49.11Z"/><line class="cls-5" x1="372.85" y1="25.09" x2="400.21" y2="25.09"/><line class="cls-5" x1="372.85" y1="36.77" x2="400.21" y2="36.77"/><line class="cls-5" x1="372.1" y1="31.27" x2="400.97" y2="31.27"/><line class="cls-5" x1="372.11" y1="42.83" x2="400.97" y2="42.83"/><line class="cls-5" x1="372.09" y1="20.09" x2="400.96" y2="20.09"/></g></g></svg>