<?xml version="1.0" encoding="UTF-8"?><svg id="_レイヤー_2" xmlns="http://www.w3.org/2000/svg" viewBox="0 0 137.25 39.81"><defs><style>.cls-1{fill:#e2bf57;}.cls-2{fill:#5e5c5c;}.cls-3{fill:#f3f9f8;}</style></defs><g id="map"><g id="_5_6F"><g id="_4F"><rect class="cls-1" x="0" y="8.54" width="137.25" height="31.27" rx="15.63" ry="15.63"/><rect class="cls-3" x="0" y="0" width="137.25" height="31.27" rx="15.63" ry="15.63"/></g><g id="_5_6F-2"><path class="cls-2" d="M44.79,27.59h-15.22v-7.37h13.53c.6,0,.77-.22,.77-.64v-.17c0-.42-.23-.64-.77-.64h-10.56c-2.17,0-2.98-1.03-2.98-3.09V4.92h22.09v6.79h-13.68v.7c0,.28,.2,.39,.51,.39h6.29c6.09,0,7.84,2.45,7.84,6.62v1.31c0,4.73-2.12,6.87-7.84,6.87Z"/><path class="cls-2" d="M61.74,30.49h-5.49c.71-.67,1.6-2.23,1.77-3.45h-3.4v-7.9h8.5v7.9c-.23,1.34-.8,2.73-1.37,3.45Z"/><path class="cls-2" d="M80.54,28.01h-6.64c-5.92,0-8.78-3.06-8.78-7.59v-7.87c0-4.03,2.46-7.62,7.98-7.62h14.53v6.79h-12.47c-1.12,0-1.49,.78-1.49,1.5v.08c.74-.08,1.46-.11,2.15-.11h4.72c6.09,0,8.15,3.06,8.15,6.81v.81c0,3.84-1.92,7.2-8.15,7.2Zm-.37-8.09c0-.56-.43-.83-.92-.83h-4.69c-.66,0-.89,.45-.89,.81v.25c0,.45,.23,.86,.89,.86h4.69c.72,0,.92-.42,.92-.72v-.36Z"/><path class="cls-2" d="M102.09,12.35c-1.75,0-2.09,.58-2.09,2.14v.22h13.08v6.51h-13.08v6.34h-8.53V14.63c0-6.56,2.83-9.76,8.84-9.76h13.45v7.48h-11.67Z"/></g></g></g></svg>