<svg xmlns="http://www.w3.org/2000/svg" viewBox="0 0 137.25 39.81"><defs><style>.cls-1{fill:#78bbcf;}.cls-2{fill:#f3f9f8;}.cls-3{fill:#5e5c5c;}</style></defs><g id="レイヤー_2" data-name="レイヤー 2"><g id="map"><rect class="cls-1" y="8.54" width="137.25" height="31.27" rx="15.63"/><rect class="cls-2" width="137.25" height="31.27" rx="15.63"/><path class="cls-3" d="M62.87,27.29h-15V20H61.07c.59,0,.76-.22.76-.67V19c0-.31-.2-.65-.76-.65H47.91V13.15h13a.61.61,0,0,0,.67-.65v-.2a.62.62,0,0,0-.7-.7H48V4.33H62.76c5,0,7.32,2.14,7.32,6v1.86a4.87,4.87,0,0,1-1.32,3.38,4.74,4.74,0,0,1,1.77,3.8V21C70.53,26.5,67.63,27.29,62.87,27.29Z"/><path class="cls-3" d="M83.72,11.85c-1.72,0-2.06.59-2.06,2.17v.23H94.53v6.59H81.66v6.42H73.27V14.16c0-6.65,2.78-9.88,8.7-9.88H95.21v7.57Z"/></g></g></svg>