<svg xmlns="http://www.w3.org/2000/svg" viewBox="0 0 443.38 249.54"><defs><style>.cls-1,.cls-2,.cls-28,.cls-35,.cls-5,.cls-6{fill:#f3f9f8;}.cls-1,.cls-10,.cls-11,.cls-12,.cls-13,.cls-14,.cls-15,.cls-16,.cls-17,.cls-19,.cls-2,.cls-23,.cls-27,.cls-28,.cls-29,.cls-3,.cls-30,.cls-31,.cls-32,.cls-33,.cls-34,.cls-4,.cls-5,.cls-6,.cls-7,.cls-8,.cls-9{stroke:#5e5c5c;}.cls-1,.cls-10,.cls-11,.cls-23,.cls-28,.cls-32,.cls-33,.cls-5,.cls-6,.cls-9{stroke-linejoin:round;}.cls-3{fill:#b2ce65;}.cls-10,.cls-4{fill:#f2bfd7;}.cls-5{stroke-width:1.07px;}.cls-6{stroke-width:0.88px;}.cls-13,.cls-7{fill:#69bd83;}.cls-8{fill:#b2e0f8;}.cls-19,.cls-9{fill:#76b5de;}.cls-11,.cls-23{fill:#bbe1e7;}.cls-11{stroke-width:0.94px;}.cls-12{fill:#666;}.cls-12,.cls-13,.cls-14,.cls-15,.cls-16,.cls-17{stroke-miterlimit:10;}.cls-14{fill:#ed8182;}.cls-15{fill:#f7ca88;}.cls-16{fill:#f7ea67;}.cls-17{fill:#e3776a;}.cls-18{fill:#8ab7d6;}.cls-20{fill:#4d4e4f;}.cls-21{fill:#daa86e;}.cls-22{fill:#c35f5a;}.cls-23,.cls-32{stroke-width:3px;}.cls-24{fill:#46976c;}.cls-25{fill:#dbcc5c;}.cls-26,.cls-27,.cls-31,.cls-37{fill:#fff;}.cls-28,.cls-29,.cls-30,.cls-31,.cls-33{stroke-width:1px;}.cls-29{fill:#5e5c5c;}.cls-30,.cls-32,.cls-33,.cls-34{fill:none;}.cls-36{fill:#ccc;}.cls-37{font-size:17.69px;font-family:KozGoPr6N-Regular-83pv-RKSJ-H, Kozuka Gothic Pr6N;}.cls-38{fill:#f3fafe;}</style></defs><g id="レイヤー_2" data-name="レイヤー 2"><g id="map"><g id="_3F" data-name="3F"><rect class="cls-1" x="266.07" y="203.28" width="87.73" height="44.76"/><rect class="cls-2" x="353.8" y="203.28" width="88.08" height="44.76"/><rect class="cls-2" x="133.61" y="163.05" width="11.95" height="11.77"/><rect class="cls-1" x="133.61" y="174.82" width="11.95" height="11.77"/><rect class="cls-3" x="162.4" y="163.05" width="17.01" height="23.55"/><rect class="cls-4" x="145.39" y="163.05" width="17.01" height="23.55"/><rect class="cls-5" x="179.41" y="163.05" width="38.95" height="23.55"/><rect class="cls-6" x="306.71" y="163.05" width="40.99" height="23.55"/><polygon class="cls-7" points="426.95 124.77 370.5 124.63 370.5 162.91 426.95 163.05 426.95 124.77"/><polygon class="cls-8" points="426.95 86.63 370.5 86.49 370.5 124.63 426.95 124.77 426.95 86.63"/><rect class="cls-4" x="364.32" y="62.8" width="21.84" height="23.55"/><rect class="cls-9" x="133.61" y="62.94" width="22.02" height="23.55"/><rect class="cls-10" x="155.63" y="62.94" width="17.14" height="23.55"/><rect class="cls-11" x="265.59" y="62.8" width="81.97" height="23.55"/><rect class="cls-8" x="1.5" y="1.5" width="44.04" height="44.76"/><rect class="cls-12" x="45.54" y="1.5" width="44.04" height="44.76"/><rect class="cls-13" x="89.57" y="1.5" width="44.04" height="44.76"/><rect class="cls-13" x="45.54" y="203.28" width="44.04" height="44.76"/><rect class="cls-14" x="89.57" y="203.28" width="44.04" height="44.76"/><rect class="cls-15" x="133.61" y="203.28" width="44.04" height="44.76"/><rect class="cls-16" x="177.65" y="203.28" width="44.04" height="44.76"/><rect class="cls-8" x="133.61" y="1.5" width="44.04" height="44.76"/><rect class="cls-17" x="177.65" y="1.5" width="44.04" height="44.76"/><rect class="cls-15" x="222.58" y="1.5" width="44.04" height="44.76"/><rect class="cls-16" x="265.59" y="1.36" width="44.04" height="44.76"/><rect class="cls-8" x="309.62" y="1.36" width="44.04" height="44.76"/><rect class="cls-12" x="353.66" y="1.36" width="44.04" height="44.76"/><rect class="cls-18" x="141.93" y="15.82" width="28.16" height="16.24" rx="2.07"/><rect class="cls-14" x="397.7" y="1.36" width="44.04" height="44.76"/><rect class="cls-4" x="347.56" y="62.8" width="16.77" height="23.55"/><polygon class="cls-4" points="364.41 186.62 347.64 186.62 347.68 163.05 364.45 163.05 364.41 186.62"/><rect class="cls-19" x="364.44" y="163.05" width="21.84" height="23.58"/><rect class="cls-20" x="361.6" y="15.75" width="28.16" height="16.24" rx="2.07"/><rect class="cls-21" x="229.49" y="15.74" width="28.16" height="16.24" rx="2.07"/><rect class="cls-22" x="185.27" y="15.62" width="28.16" height="16.24" rx="2.07"/><rect class="cls-23" x="108.83" y="86.49" width="261.81" height="76.56"/><rect class="cls-24" x="385.09" y="135.3" width="28.16" height="16.24" rx="2.07"/><rect class="cls-25" x="273.53" y="15.75" width="28.16" height="16.24" rx="2.07"/><rect class="cls-18" x="384.46" y="98.73" width="28.16" height="16.24" rx="2.07"/><rect class="cls-22" x="406.09" y="15.75" width="28.16" height="16.24" rx="2.07"/><rect class="cls-18" x="317.56" y="15.75" width="28.16" height="16.24" rx="2.07"/><rect class="cls-24" x="97.02" y="15.43" width="28.16" height="16.24" rx="2.07"/><rect class="cls-18" x="10.24" y="15.76" width="28.16" height="16.24" rx="2.07"/><path class="cls-26" d="M327,28.31a8.28,8.28,0,0,1-2.76.49c-4.2,0-4.73-3.32-4.73-4.87a4.69,4.69,0,0,1,5-5,5.4,5.4,0,0,1,2.25.41l-.33,1.2a4.54,4.54,0,0,0-1.92-.37c-2,0-3.43,1.26-3.43,3.71s1.33,3.73,3.24,3.73a3.18,3.18,0,0,0,1.29-.2V24.67h-1.67V23.49H327Z"/><path class="cls-26" d="M334.13,28.7h-5.8v-.9l1-1.05c2-2.06,3.13-3.37,3.13-4.8a1.55,1.55,0,0,0-1.65-1.74A3.14,3.14,0,0,0,329,21l-.44-1.05A4.13,4.13,0,0,1,331.1,19a2.61,2.61,0,0,1,2.83,2.77c0,1.75-1.19,3.2-2.85,4.87l-.79.8v0h3.84Z"/><path class="cls-26" d="M342.85,28.31a8.23,8.23,0,0,1-2.76.49c-4.2,0-4.73-3.32-4.73-4.87a4.69,4.69,0,0,1,5-5,5.49,5.49,0,0,1,2.26.41l-.33,1.2a4.6,4.6,0,0,0-1.93-.37c-2,0-3.42,1.26-3.42,3.71s1.33,3.73,3.23,3.73a3.15,3.15,0,0,0,1.29-.2V24.67h-1.67V23.49h3.09Z"/><path class="cls-26" d="M372,28.31a8.45,8.45,0,0,1-2.8.49c-4.25,0-4.79-3.32-4.79-4.87a4.72,4.72,0,0,1,5-5,5.58,5.58,0,0,1,2.29.41l-.33,1.2a4.75,4.75,0,0,0-2-.37c-2,0-3.47,1.26-3.47,3.71s1.35,3.73,3.28,3.73a3.26,3.26,0,0,0,1.31-.2V24.67h-1.7V23.49H372Z"/><path class="cls-26" d="M379.19,28.7H373.3v-.9l1-1.05c2-2.06,3.17-3.37,3.17-4.8a1.56,1.56,0,0,0-1.67-1.74A3.17,3.17,0,0,0,374,21l-.45-1.05a4.23,4.23,0,0,1,2.61-.89A2.63,2.63,0,0,1,379,21.79c0,1.75-1.2,3.2-2.89,4.87l-.79.8v0h3.89Z"/><path class="cls-26" d="M381,28.7V19h5.11v1.23h-3.62v3h3.36v1.21h-3.36V28.7Z"/><path class="cls-26" d="M394.88,147.87a8.45,8.45,0,0,1-2.8.49c-4.25,0-4.79-3.33-4.79-4.87a4.71,4.71,0,0,1,5-5,5.58,5.58,0,0,1,2.29.41l-.33,1.2a4.75,4.75,0,0,0-2-.37c-2,0-3.46,1.25-3.46,3.71s1.35,3.73,3.27,3.73a3.26,3.26,0,0,0,1.31-.2v-2.74h-1.69v-1.17h3.13Z"/><path class="cls-26" d="M402.11,148.26h-5.88v-.9l1-1.05c2-2.06,3.17-3.38,3.17-4.81a1.55,1.55,0,0,0-1.67-1.73,3.11,3.11,0,0,0-1.86.75l-.45-1.05a4.23,4.23,0,0,1,2.61-.89,2.63,2.63,0,0,1,2.86,2.77c0,1.75-1.2,3.2-2.89,4.87l-.79.8v0h3.89Z"/><path class="cls-26" d="M410.24,148a5.58,5.58,0,0,1-2.31.41c-2.74,0-4.58-1.79-4.58-4.87,0-3.29,2.11-5.09,4.83-5.09a4.85,4.85,0,0,1,2.1.38L410,140a4.11,4.11,0,0,0-1.73-.35c-1.9,0-3.31,1.27-3.31,3.78s1.26,3.71,3.29,3.71a4.46,4.46,0,0,0,1.77-.34Z"/><path class="cls-26" d="M416.26,28.31a8.5,8.5,0,0,1-2.8.49c-4.26,0-4.8-3.32-4.8-4.87a4.73,4.73,0,0,1,5-5,5.61,5.61,0,0,1,2.29.41l-.34,1.2a4.66,4.66,0,0,0-1.95-.37c-2,0-3.47,1.26-3.47,3.71s1.35,3.73,3.28,3.73a3.26,3.26,0,0,0,1.31-.2V24.67h-1.7V23.49h3.14Z"/><path class="cls-26" d="M424.26,28.7h-5.89v-.9l1-1.05c2-2.06,3.17-3.37,3.17-4.8a1.56,1.56,0,0,0-1.67-1.74A3.14,3.14,0,0,0,419,21l-.45-1.05a4.23,4.23,0,0,1,2.61-.89,2.63,2.63,0,0,1,2.86,2.77c0,1.75-1.21,3.2-2.89,4.87l-.8.8v0h3.9Z"/><path class="cls-26" d="M431.38,28.7H426V19h5.14v1.23h-3.64v2.8H431v1.21h-3.44v3.21h3.86Z"/><path class="cls-26" d="M394.25,111.29a8.16,8.16,0,0,1-2.8.5c-4.25,0-4.79-3.33-4.79-4.87a4.72,4.72,0,0,1,5-5,5.58,5.58,0,0,1,2.28.4l-.33,1.2a4.69,4.69,0,0,0-1.95-.36c-2,0-3.47,1.25-3.47,3.7s1.35,3.73,3.27,3.73a3,3,0,0,0,1.31-.2v-2.73h-1.69v-1.18h3.13Z"/><path class="cls-26" d="M401.48,111.68H395.6v-.89l1-1.05c2-2.07,3.18-3.38,3.18-4.81a1.55,1.55,0,0,0-1.67-1.73,3.17,3.17,0,0,0-1.87.74l-.45-1a4.22,4.22,0,0,1,2.61-.88,2.64,2.64,0,0,1,2.87,2.77c0,1.74-1.21,3.2-2.89,4.87l-.8.79v0h3.89Z"/><path class="cls-26" d="M403.25,102.13a16.58,16.58,0,0,1,2.51-.2c4.18,0,5.06,2.54,5.06,4.69v0a5.12,5.12,0,0,1-1.42,3.86,5.73,5.73,0,0,1-4,1.27,17.35,17.35,0,0,1-2.13-.11Zm1.49,8.42a9,9,0,0,0,1,0c2.21,0,3.55-1.27,3.55-3.94,0-2.35-1.23-3.56-3.35-3.56a6.11,6.11,0,0,0-1.16.1Z"/><path class="cls-26" d="M239.67,20.28H237V28.7h-1.49V20.28h-2.65V19h6.8Z"/><path class="cls-26" d="M246.22,28.7h-5.89v-.9l1-1.05c2-2.06,3.17-3.37,3.17-4.8a1.56,1.56,0,0,0-1.67-1.74A3.17,3.17,0,0,0,241,21l-.45-1.05a4.23,4.23,0,0,1,2.61-.89A2.63,2.63,0,0,1,246,21.79c0,1.75-1.21,3.2-2.89,4.87l-.8.8v0h3.9Z"/><path class="cls-26" d="M252.17,23.51a2.46,2.46,0,0,1,2,2.42,2.52,2.52,0,0,1-.85,1.95,4.75,4.75,0,0,1-3.35.91,16.41,16.41,0,0,1-1.95-.11V19.15a12.75,12.75,0,0,1,2.3-.2c3,0,3.5,1.44,3.5,2.41a2.27,2.27,0,0,1-1.62,2.12Zm-1.79-.45c1.18,0,1.92-.65,1.92-1.54,0-1.17-1-1.46-1.87-1.46a4.58,4.58,0,0,0-1,.08v2.92Zm-.92,4.55a5.46,5.46,0,0,0,.9.05c1.2,0,2.23-.49,2.23-1.77s-1.12-1.74-2.27-1.74h-.86Z"/><path class="cls-26" d="M107.67,28.31a8.5,8.5,0,0,1-2.8.49c-4.26,0-4.8-3.32-4.8-4.87a4.73,4.73,0,0,1,5-5,5.61,5.61,0,0,1,2.29.41l-.34,1.2a4.66,4.66,0,0,0-2-.37c-2,0-3.47,1.26-3.47,3.71s1.35,3.73,3.28,3.73a3.26,3.26,0,0,0,1.31-.2V24.67h-1.7V23.49h3.14Z"/><path class="cls-26" d="M112.7,23.57a2.4,2.4,0,0,1,2,2.41c0,1.56-1.21,2.86-3.41,2.86a4.67,4.67,0,0,1-2.36-.59l.39-1.13a3.78,3.78,0,0,0,1.91.54,1.73,1.73,0,0,0,1.94-1.73c0-1.23-1-1.8-2.2-1.8h-.65v-1H111c.83,0,1.92-.5,1.92-1.55a1.32,1.32,0,0,0-1.51-1.34,3.31,3.31,0,0,0-1.72.57l-.38-1.05a4.5,4.5,0,0,1,2.43-.7c1.81,0,2.7,1.08,2.7,2.29a2.38,2.38,0,0,1-1.72,2.23Z"/><path class="cls-26" d="M116.67,28.7V19h5.11v1.23h-3.62v3h3.36v1.21h-3.36V28.7Z"/><path class="cls-26" d="M195.28,20.28h-2.66V28.7h-1.49V20.28h-2.64V19h6.79Z"/><path class="cls-26" d="M201.83,28.7H196v-.9l1-1.05c2-2.06,3.18-3.37,3.18-4.8a1.56,1.56,0,0,0-1.67-1.74,3.17,3.17,0,0,0-1.87.75l-.45-1.05a4.23,4.23,0,0,1,2.61-.89,2.64,2.64,0,0,1,2.87,2.77c0,1.75-1.21,3.2-2.9,4.87l-.79.8v0h3.89Z"/><path class="cls-26" d="M210,28.44a5.79,5.79,0,0,1-2.31.4c-2.74,0-4.58-1.78-4.58-4.87,0-3.29,2.11-5.08,4.83-5.08a5,5,0,0,1,2.1.37l-.32,1.21a4.08,4.08,0,0,0-1.72-.36c-1.91,0-3.32,1.27-3.32,3.78s1.26,3.71,3.29,3.71a4.46,4.46,0,0,0,1.77-.34Z"/><path class="cls-26" d="M151.43,28.31a8.45,8.45,0,0,1-2.8.49c-4.25,0-4.79-3.32-4.79-4.87a4.72,4.72,0,0,1,5-5,5.58,5.58,0,0,1,2.29.41l-.33,1.2a4.75,4.75,0,0,0-2-.37c-2,0-3.47,1.26-3.47,3.71s1.35,3.73,3.28,3.73a3.26,3.26,0,0,0,1.31-.2V24.67h-1.7V23.49h3.14Z"/><path class="cls-26" d="M283.16,20.28H280.5V28.7H279V20.28h-2.65V19h6.8Z"/><path class="cls-26" d="M289.71,28.7h-5.89v-.9l1-1.05c2-2.06,3.17-3.37,3.17-4.8a1.56,1.56,0,0,0-1.67-1.74,3.17,3.17,0,0,0-1.86.75L284,19.91a4.23,4.23,0,0,1,2.61-.89,2.63,2.63,0,0,1,2.86,2.77c0,1.75-1.21,3.2-2.89,4.87l-.8.8v0h3.9Z"/><path class="cls-26" d="M298.61,28.7H297l-.89-2.84h-3l-.85,2.84h-1.53l3-9.68h1.83Zm-2.7-4-.77-2.53c-.18-.63-.35-1.32-.49-1.91h0c-.14.59-.29,1.3-.46,1.9l-.78,2.54Z"/><polyline class="cls-1" points="86.18 163.05 45.53 163.05 45.53 186.6 86.18 186.6 86.18 163.05"/><line class="cls-27" x1="58.03" y1="163.05" x2="58.03" y2="186.6"/><line class="cls-27" x1="61.16" y1="163.05" x2="61.16" y2="186.6"/><line class="cls-27" x1="64.29" y1="163.05" x2="64.29" y2="186.6"/><line class="cls-27" x1="67.41" y1="163.05" x2="67.41" y2="186.6"/><line class="cls-27" x1="70.54" y1="163.05" x2="70.54" y2="186.6"/><line class="cls-27" x1="73.67" y1="163.05" x2="73.67" y2="186.6"/><line class="cls-27" x1="76.8" y1="163.05" x2="76.8" y2="186.6"/><line class="cls-27" x1="79.93" y1="163.05" x2="79.93" y2="186.6"/><line class="cls-27" x1="83.06" y1="163.05" x2="83.06" y2="186.6"/><rect class="cls-28" x="45.54" y="63.09" width="40.65" height="23.45"/><line class="cls-29" x1="58.03" y1="63.09" x2="58.03" y2="86.54"/><line class="cls-29" x1="61.16" y1="63.09" x2="61.16" y2="86.54"/><line class="cls-29" x1="64.29" y1="63.09" x2="64.29" y2="86.54"/><line class="cls-29" x1="67.41" y1="63.09" x2="67.41" y2="86.54"/><line class="cls-29" x1="70.54" y1="63.09" x2="70.54" y2="86.54"/><line class="cls-29" x1="73.67" y1="63.09" x2="73.67" y2="86.54"/><line class="cls-29" x1="76.8" y1="63.09" x2="76.8" y2="86.54"/><line class="cls-29" x1="79.93" y1="63.09" x2="79.93" y2="86.54"/><line class="cls-29" x1="83.06" y1="63.09" x2="83.06" y2="86.54"/><polygon class="cls-28" points="426.95 62.8 426.95 86.63 386.16 86.35 386.16 62.77 426.95 62.8"/><line class="cls-30" x1="398.79" y1="62.91" x2="398.79" y2="86.36"/><line class="cls-30" x1="401.92" y1="62.91" x2="401.92" y2="86.36"/><line class="cls-30" x1="405.05" y1="62.91" x2="405.05" y2="86.36"/><line class="cls-30" x1="408.18" y1="62.91" x2="408.18" y2="86.36"/><line class="cls-30" x1="411.31" y1="62.91" x2="411.31" y2="86.36"/><line class="cls-30" x1="414.43" y1="62.91" x2="414.43" y2="86.36"/><line class="cls-30" x1="417.56" y1="62.91" x2="417.56" y2="86.36"/><line class="cls-30" x1="420.69" y1="62.91" x2="420.69" y2="86.36"/><line class="cls-30" x1="423.82" y1="62.91" x2="423.82" y2="86.36"/><polyline class="cls-28" points="426.95 163.1 386.3 163.1 386.3 186.55 426.95 186.55 426.95 163.1"/><line class="cls-31" x1="398.79" y1="163.1" x2="398.79" y2="186.55"/><line class="cls-31" x1="401.92" y1="163.1" x2="401.92" y2="186.55"/><line class="cls-31" x1="405.05" y1="163.1" x2="405.05" y2="186.55"/><line class="cls-31" x1="408.18" y1="163.1" x2="408.18" y2="186.55"/><line class="cls-31" x1="411.31" y1="163.1" x2="411.31" y2="186.55"/><line class="cls-31" x1="414.43" y1="163.1" x2="414.43" y2="186.55"/><line class="cls-31" x1="417.56" y1="163.1" x2="417.56" y2="186.55"/><line class="cls-31" x1="420.69" y1="163.1" x2="420.69" y2="186.55"/><line class="cls-31" x1="423.82" y1="163.1" x2="423.82" y2="186.55"/><polygon class="cls-32" points="1.5 1.5 1.5 63.09 45.53 63.09 45.53 86.49 86.19 86.49 89.58 86.49 89.58 163.05 86.19 163.05 45.53 163.05 45.53 186.6 45.53 248.04 441.88 248.04 441.88 1.5 1.5 1.5"/><line class="cls-30" x1="426.95" y1="74.57" x2="398.72" y2="74.57"/><line class="cls-30" x1="398.72" y1="174.84" x2="426.95" y2="174.84"/><line class="cls-33" x1="58.03" y1="74.82" x2="86.18" y2="74.82"/><line class="cls-34" x1="58.03" y1="174.82" x2="86.18" y2="174.82"/><circle class="cls-35" cx="356.05" cy="171.07" r="2.02"/><path class="cls-35" d="M358.11,180.6H354a.82.82,0,0,1-.82-.95l.75-5.2a.84.84,0,0,1,.82-.71h2.61a.84.84,0,0,1,.82.71l.75,5.2A.82.82,0,0,1,358.11,180.6Z"/><circle class="cls-35" cx="153.85" cy="171.07" r="2.02"/><path class="cls-35" d="M155.91,180.6h-4.12a.83.83,0,0,1-.82-.95l.76-5.2a.83.83,0,0,1,.82-.7h2.6a.82.82,0,0,1,.82.7l.76,5.2A.82.82,0,0,1,155.91,180.6Z"/><circle class="cls-35" cx="164.29" cy="70.36" r="2.02"/><path class="cls-35" d="M166.35,79.89h-4.12a.82.82,0,0,1-.82-1l.75-5.2A.83.83,0,0,1,163,73h2.61a.83.83,0,0,1,.82.7l.76,5.2A.83.83,0,0,1,166.35,79.89Z"/><circle class="cls-35" cx="375.36" cy="171.07" r="2.02"/><rect class="cls-35" x="373.35" y="173.74" width="4.04" height="6.85" rx="0.89"/><circle class="cls-35" cx="375.15" cy="70.56" r="2.02"/><circle class="cls-35" cx="144.34" cy="70.36" r="2.02"/><rect class="cls-35" x="142.32" y="73.04" width="4.04" height="6.85" rx="0.89"/><circle class="cls-35" cx="355.94" cy="70.82" r="2.02"/><path class="cls-35" d="M358,80.35h-4.12a.83.83,0,0,1-.82-.95l.76-5.2a.84.84,0,0,1,.82-.71h2.6a.84.84,0,0,1,.82.71l.76,5.2A.83.83,0,0,1,358,80.35Z"/><path class="cls-26" d="M20.14,28.31a8.45,8.45,0,0,1-2.8.49c-4.25,0-4.79-3.32-4.79-4.87a4.73,4.73,0,0,1,5-5,5.52,5.52,0,0,1,2.28.41l-.33,1.2a4.66,4.66,0,0,0-1.95-.37c-2,0-3.47,1.26-3.47,3.71s1.35,3.73,3.27,3.73a3.29,3.29,0,0,0,1.32-.2V24.67H17V23.49h3.13Z"/><path class="cls-26" d="M25.18,23.57a2.4,2.4,0,0,1,2,2.41c0,1.56-1.21,2.86-3.41,2.86a4.67,4.67,0,0,1-2.36-.59l.38-1.13a3.85,3.85,0,0,0,1.92.54,1.73,1.73,0,0,0,1.94-1.73c0-1.23-1.06-1.8-2.2-1.8h-.66v-1h.63c.84,0,1.93-.5,1.93-1.55a1.33,1.33,0,0,0-1.51-1.34,3.38,3.38,0,0,0-1.73.57l-.37-1.05A4.5,4.5,0,0,1,24.2,19c1.81,0,2.7,1.08,2.7,2.29a2.38,2.38,0,0,1-1.72,2.23Z"/><path class="cls-26" d="M35.9,28.7H34.17l-2.73-4.57-.82,1V28.7H29.14V19h1.48v4.55h0c.23-.38.47-.74.71-1.08L33.9,19h1.81l-3.23,4.13Z"/><path class="cls-35" d="M377.21,80.35h-4.12a.82.82,0,0,1-.82-.95l.76-5.2a.82.82,0,0,1,.81-.71h2.61a.84.84,0,0,1,.82.71l.76,5.2A.83.83,0,0,1,377.21,80.35Z"/><rect class="cls-36" x="279.76" y="214.68" width="58.67" height="21.95" rx="4.22"/><text class="cls-37" transform="translate(283.16 231.62)">将棋部</text><rect class="cls-20" x="53.48" y="15.43" width="28.16" height="16.24" rx="2.07"/><path class="cls-35" d="M377.21,80.09h-4.12a.82.82,0,0,1-.82-1l.76-5.2a.82.82,0,0,1,.81-.71h2.61a.84.84,0,0,1,.82.71l.76,5.2A.83.83,0,0,1,377.21,80.09Z"/><path class="cls-26" d="M64.57,28.31a8.45,8.45,0,0,1-2.8.49c-4.25,0-4.79-3.33-4.79-4.87a4.71,4.71,0,0,1,5-5,5.58,5.58,0,0,1,2.29.41L64,20.53a4.75,4.75,0,0,0-2-.37c-2,0-3.47,1.25-3.47,3.71s1.35,3.73,3.28,3.73a3.26,3.26,0,0,0,1.31-.2V24.66h-1.7V23.49h3.14Z"/><path class="cls-26" d="M69.6,23.56a2.42,2.42,0,0,1,2,2.42c0,1.56-1.21,2.86-3.4,2.86a4.6,4.6,0,0,1-2.37-.6l.39-1.12a3.81,3.81,0,0,0,1.91.54,1.72,1.72,0,0,0,1.94-1.73c0-1.23-1-1.8-2.19-1.8h-.66V23.08h.63c.83,0,1.93-.49,1.93-1.54,0-.75-.49-1.34-1.52-1.34a3.31,3.31,0,0,0-1.72.57l-.37-1.05a4.38,4.38,0,0,1,2.43-.7c1.81,0,2.69,1.08,2.69,2.29a2.38,2.38,0,0,1-1.72,2.23Z"/><path class="cls-26" d="M79.87,28.38a8.45,8.45,0,0,1-2.8.49c-4.25,0-4.79-3.33-4.79-4.87a4.72,4.72,0,0,1,5-5,5.52,5.52,0,0,1,2.28.41l-.33,1.2a4.66,4.66,0,0,0-2-.37c-2,0-3.47,1.25-3.47,3.71s1.35,3.73,3.28,3.73a3.26,3.26,0,0,0,1.31-.2V24.73h-1.7V23.56h3.13Z"/><path class="cls-26" d="M157.64,23.5a2.4,2.4,0,0,1,2,2.41c0,1.56-1.21,2.86-3.41,2.86a4.67,4.67,0,0,1-2.36-.59l.39-1.13a3.78,3.78,0,0,0,1.91.54,1.73,1.73,0,0,0,1.94-1.73c0-1.23-1-1.79-2.2-1.79h-.65V23h.63c.83,0,1.93-.5,1.93-1.55a1.33,1.33,0,0,0-1.52-1.34,3.31,3.31,0,0,0-1.72.57l-.38-1.05a4.5,4.5,0,0,1,2.43-.7c1.81,0,2.7,1.08,2.7,2.29a2.38,2.38,0,0,1-1.72,2.23Z"/><path class="cls-26" d="M167,28.6h-5.36V18.92h5.14v1.23H163.1V23h3.44v1.21H163.1v3.21H167Z"/><rect class="cls-24" x="53.48" y="217.54" width="28.16" height="16.24" rx="2.07"/><rect class="cls-22" x="97.52" y="217.54" width="28.16" height="16.24" rx="2.07"/><rect class="cls-21" x="140.97" y="217.54" width="28.16" height="16.24" rx="2.07"/><rect class="cls-25" x="185.59" y="217.54" width="28.16" height="16.24" rx="2.07"/><path class="cls-26" d="M64,229.53a8.45,8.45,0,0,1-2.8.49c-4.25,0-4.79-3.33-4.79-4.87a4.72,4.72,0,0,1,5-5,5.55,5.55,0,0,1,2.28.4l-.33,1.21a4.51,4.51,0,0,0-2-.37c-2,0-3.47,1.25-3.47,3.71s1.35,3.73,3.27,3.73a3,3,0,0,0,1.31-.21v-2.73H60.89v-1.17H64Z"/><path class="cls-26" d="M71.25,229.92H65.37V229l1-1.05c2.05-2.06,3.18-3.38,3.18-4.81a1.55,1.55,0,0,0-1.67-1.73,3.11,3.11,0,0,0-1.87.75l-.45-1.05a4.23,4.23,0,0,1,2.61-.89A2.64,2.64,0,0,1,71.05,223c0,1.75-1.21,3.2-2.89,4.87l-.8.8v0h3.89Z"/><path class="cls-26" d="M109.41,229.53a8.2,8.2,0,0,1-2.8.49c-4.25,0-4.79-3.32-4.79-4.87a4.72,4.72,0,0,1,5-5,5.58,5.58,0,0,1,2.29.41l-.33,1.2a4.75,4.75,0,0,0-2-.37c-2,0-3.46,1.26-3.46,3.71s1.35,3.73,3.27,3.73a3.26,3.26,0,0,0,1.31-.2v-2.73h-1.69v-1.18h3.13Z"/><path class="cls-26" d="M116.64,229.92h-5.88V229l1-1.06c2-2.06,3.17-3.37,3.17-4.8a1.54,1.54,0,0,0-1.67-1.73,3.16,3.16,0,0,0-1.86.74l-.45-1.05a4.22,4.22,0,0,1,2.61-.88,2.62,2.62,0,0,1,2.86,2.77c0,1.74-1.2,3.2-2.89,4.87l-.79.79v0h3.89Z"/><path class="cls-26" d="M150.67,229.53a8.2,8.2,0,0,1-2.8.49c-4.25,0-4.79-3.32-4.79-4.87a4.73,4.73,0,0,1,5-5,5.61,5.61,0,0,1,2.29.41l-.34,1.2a4.66,4.66,0,0,0-1.95-.37c-2,0-3.47,1.26-3.47,3.71s1.35,3.73,3.28,3.73a3.26,3.26,0,0,0,1.31-.2v-2.73h-1.7v-1.18h3.13Z"/><path class="cls-26" d="M157.9,229.92H152V229l1-1.05c2-2.06,3.17-3.37,3.17-4.8a1.56,1.56,0,0,0-1.67-1.74,3.17,3.17,0,0,0-1.87.75l-.44-1.05a4.19,4.19,0,0,1,2.6-.88A2.63,2.63,0,0,1,157.7,223c0,1.74-1.21,3.2-2.89,4.87l-.8.79v0h3.89Z"/><path class="cls-26" d="M195.47,230.11a8.57,8.57,0,0,1-2.81.49c-4.25,0-4.79-3.33-4.79-4.87a4.72,4.72,0,0,1,5-5,5.63,5.63,0,0,1,2.29.4l-.34,1.21a4.51,4.51,0,0,0-2-.37c-2,0-3.47,1.25-3.47,3.71s1.35,3.73,3.28,3.73a3.05,3.05,0,0,0,1.31-.21v-2.73h-1.7v-1.17h3.14Z"/><path class="cls-26" d="M202.69,230.5h-5.88v-.9l1-1c2-2.06,3.17-3.38,3.17-4.81a1.55,1.55,0,0,0-1.67-1.73,3.08,3.08,0,0,0-1.86.75l-.45-1a4.2,4.2,0,0,1,2.6-.89,2.63,2.63,0,0,1,2.87,2.77c0,1.75-1.21,3.2-2.89,4.87l-.8.8v0h3.89Z"/><path class="cls-26" d="M211.38,230.5h-1.74l-2.72-4.57-.82,1v3.56h-1.48v-9.68h1.48v4.54h0c.24-.38.48-.73.71-1.07l2.53-3.47h1.81L208,224.94Z"/><path class="cls-38" d="M77.89,226.65c0,2.58-1.22,3.38-2.94,3.38a4.32,4.32,0,0,1-1.28-.19l.18-1.23a2.84,2.84,0,0,0,1,.16c1,0,1.59-.44,1.59-2.17v-6.47h1.48Z"/><path class="cls-38" d="M167.11,229.89h-1.48v-4.43h-4v4.43h-1.48v-9.76h1.48v4h4v-4h1.48Z"/></g></g></g></svg>