<?xml version="1.0" encoding="UTF-8"?><svg id="_レイヤー_2" xmlns="http://www.w3.org/2000/svg" viewBox="0 0 442.7 251.1">
<defs><style>
.cls-1,.cls-2,.cls-3,.cls-4,.cls-5,.cls-6,.cls-7,.cls-8,.cls-9,.cls-10,.cls-11,.cls-12,.cls-13,.cls-14,.cls-15{stroke:#5e5c5c;}.cls-1,.cls-2,.cls-3,.cls-4,.cls-5,.cls-6,.cls-7,.cls-8,.cls-10,.cls-12,.cls-13,.cls-14,.cls-15{stroke-linejoin:round;}.cls-1,.cls-16{fill:#f3f9f8;}.cls-2,.cls-9{fill:#f2bfd7;}.cls-3{fill:#f7ea67;}.cls-4{fill:#b2e0f8;}.cls-17{fill:#dbcc5c;}.cls-18{fill:#fef9e4;}.cls-19{fill:#46976c;}.cls-20{fill:#daa86e;}.cls-21{fill:#5e5c5c;}.cls-5,.cls-11{fill:#bbe1e7;}.cls-5,.cls-15{stroke-width:3px;}.cls-22{fill:#f3fafe;}.cls-23{fill:#8ab7d6;}.cls-6{fill:#76b5de;}.cls-7{fill:#666;}.cls-8,.cls-15{fill:none;}.cls-10{fill:#f7ca88;}.cls-24{fill:#4d4e4f;}.cls-12{fill:#e3776a;}.cls-13{fill:#69bd83;}.cls-25{fill:#c35f5a;}.cls-14{fill:#fff;}.cls-15{stroke-linecap:round;}</style>
</defs>
<g id="map"><g>
<polygon class="cls-18" points="1.5 1.5 1.5 63.48 45.47 63.48 45.47 87.03 86.06 87.03 115.67 87.03 115.67 164.07 86.06 164.07 45.47 164.07 45.47 187.77 45.47 249.6 441.2 249.6 441.2 1.5 1.5 1.5"/>
<path class="cls-8" d="M104.15,249.6s0-40.03,30.35-40.62"/>
<path class="cls-8" d="M110.47,249.6s.53-32.33,24.03-32.88"/>
<path class="cls-8" d="M116.75,249.6s-.38-24.39,17.74-25.23"/>
<rect class="cls-1" x="134.49" y="204.55" width="84.62" height="45.04"/>
<rect class="cls-1" x="219.14" y="204.55" width="47.26" height="45.04"/>
<rect class="cls-1" x="265.67" y="204.55" width="87.6" height="45.04"/>
<rect class="cls-1" x="353.26" y="204.55" width="87.94" height="45.04"/>
<rect class="cls-1" x="133.41" y="87.03" width="101.52" height="77.05"/>
<rect class="cls-1" x="133.41" y="164.07" width="11.93" height="11.85"/>
<rect class="cls-1" x="133.41" y="175.92" width="11.93" height="11.85"/>
<rect class="cls-6" x="145.34" y="164.07" width="21.8" height="23.7"/>
<rect class="cls-2" x="167.14" y="164.07" width="16.98" height="23.7"/>
<rect class="cls-1" x="184.12" y="164.07" width="33.9" height="23.7"/>
<rect class="cls-1" x="218.03" y="164.07" width="53.17" height="23.7"/>
<rect class="cls-1" x="271.2" y="164.07" width="53.17" height="23.7"/>
<rect class="cls-1" x="324.37" y="164.07" width="15.64" height="23.7"/>
<rect class="cls-1" x="340.01" y="164.07" width="30.06" height="23.7"/>


<rect class="cls-1" x="370.07" y="164.07" width="15.64" height="23.7"/>
<rect class="cls-3" x="363.91" y="63.33" width="21.8" height="23.7"/>
<rect class="cls-2" x="347.17" y="63.33" width="16.74" height="23.7"/>

<rect class="cls-11" x="309.29" y="63.33" width="37.88" height="23.7"/>

<rect class="cls-6" x="133.41" y="63.33" width="21.98" height="23.7"/>
<rect class="cls-2" x="155.39" y="63.33" width="17.11" height="23.7"/>
<rect class="cls-1" x="172.5" y="63.33" width="92.82" height="23.7"/>



<path class="cls-11" d="M179.59,124.86c0,10.01-5.83,18.13-13.03,18.13s-13.03-8.12-13.03-18.13,5.83-18.13,13.03-18.13,13.03,8.11,13.03,18.13Z"/>


<g><polyline class="cls-1" points="426.3 164.07 385.71 164.07 385.71 187.77 426.3 187.77 426.3 164.07 426.3 175.92"/><line class="cls-14" x1="398.19" y1="164.07" x2="398.19" y2="187.77"/><line class="cls-14" x1="401.31" y1="164.07" x2="401.31" y2="187.77"/><line class="cls-14" x1="404.43" y1="164.07" x2="404.43" y2="187.77"/><line class="cls-14" x1="407.56" y1="164.07" x2="407.56" y2="187.77"/><line class="cls-14" x1="410.68" y1="164.07" x2="410.68" y2="187.77"/><line class="cls-14" x1="413.8" y1="164.07" x2="413.8" y2="187.77"/><line class="cls-14" x1="416.93" y1="164.07" x2="416.93" y2="187.77"/><line class="cls-14" x1="420.05" y1="164.07" x2="420.05" y2="187.77"/><line class="cls-14" x1="423.17" y1="164.07" x2="423.17" y2="187.77"/></g><g><polyline class="cls-1" points="86.06 164.06 45.47 164.06 45.47 187.76 86.06 187.76 86.06 164.06 86.06 175.91"/><line class="cls-14" x1="57.95" y1="164.06" x2="57.95" y2="187.76"/><line class="cls-14" x1="61.07" y1="164.06" x2="61.07" y2="187.76"/><line class="cls-14" x1="64.19" y1="164.06" x2="64.19" y2="187.76"/><line class="cls-14" x1="67.32" y1="164.06" x2="67.32" y2="187.76"/><line class="cls-14" x1="70.44" y1="164.06" x2="70.44" y2="187.76"/><line class="cls-14" x1="73.56" y1="164.06" x2="73.56" y2="187.76"/><line class="cls-14" x1="76.69" y1="164.06" x2="76.69" y2="187.76"/><line class="cls-14" x1="79.81" y1="164.06" x2="79.81" y2="187.76"/><line class="cls-14" x1="82.93" y1="164.06" x2="82.93" y2="187.76"/></g><g><polyline class="cls-1" points="86.06 63.33 45.47 63.33 45.47 87.03 86.06 87.03 86.06 63.33 86.06 75.18"/><line class="cls-14" x1="57.95" y1="63.33" x2="57.95" y2="87.03"/><line class="cls-14" x1="61.07" y1="63.33" x2="61.07" y2="87.03"/><line class="cls-14" x1="64.19" y1="63.33" x2="64.19" y2="87.03"/><line class="cls-14" x1="67.32" y1="63.33" x2="67.32" y2="87.03"/><line class="cls-14" x1="70.44" y1="63.33" x2="70.44" y2="87.03"/><line class="cls-14" x1="73.56" y1="63.33" x2="73.56" y2="87.03"/>


<line class="cls-14" x1="76.69" y1="63.33" x2="76.69" y2="87.03"/><line class="cls-14" x1="79.81" y1="63.33" x2="79.81" y2="87.03"/><line class="cls-14" x1="82.93" y1="63.33" x2="82.93" y2="87.03"/></g><g><polyline class="cls-1" points="426.3 63.33 385.71 63.33 385.71 87.03 426.3 87.03 426.3 63.33 426.3 75.18"/><line class="cls-14" x1="398.19" y1="63.33" x2="398.19" y2="87.03"/><line class="cls-14" x1="401.31" y1="63.33" x2="401.31" y2="87.03"/><line class="cls-14" x1="404.43" y1="63.33" x2="404.43" y2="87.03"/><line class="cls-14" x1="407.56" y1="63.33" x2="407.56" y2="87.03"/><line class="cls-14" x1="410.68" y1="63.33" x2="410.68" y2="87.03"/><line class="cls-14" x1="413.8" y1="63.33" x2="413.8" y2="87.03"/><line class="cls-14" x1="416.93" y1="63.33" x2="416.93" y2="87.03"/><line class="cls-14" x1="420.05" y1="63.33" x2="420.05" y2="87.03"/><line class="cls-14" x1="423.17" y1="63.33" x2="423.17" y2="87.03"/></g>



<line class="cls-8" x1="86.06" y1="175.91" x2="57.95" y2="175.91"/>
<line class="cls-8" x1="86.06" y1="75.18" x2="57.95" y2="75.18"/>
<line class="cls-8" x1="426.3" y1="175.92" x2="398.18" y2="175.92"/>
<line class="cls-8" x1="426.3" y1="75.18" x2="398.19" y2="75.18"/>
<g><circle class="cls-16" cx="156.24" cy="172.17" r="2.02"/>
<rect class="cls-16" x="154.22" y="174.84" width="4.04" height="6.85" rx=".89" ry=".89"/></g><g>
<circle class="cls-16" cx="144.4" cy="71.21" r="2.02"/>
<rect class="cls-16" x="142.39" y="73.89" width="4.04" height="6.85" rx=".89" ry=".89"/></g><circle class="cls-16" cx="374.81" cy="71.41" r="2.02"/>



<g><circle class="cls-16" cx="355.54" cy="71.41" r="2.02"/><path class="cls-16" d="M357.6,80.94h-4.12c-.51,0-.89-.45-.82-.95l.76-5.19c.06-.41,.41-.71,.82-.71h2.6c.41,0,.76,.3,.82,.71l.76,5.19c.07,.5-.31,.95-.82,.95Z"/></g><g><circle class="cls-16" cx="164.4" cy="71.66" r="2.02"/><path class="cls-16" d="M166.46,81.18h-4.12c-.51,0-.89-.45-.82-.95l.76-5.19c.06-.41,.41-.71,.82-.71h2.6c.41,0,.76,.3,.82,.71l.76,5.19c.07,.5-.31,.95-.82,.95Z"/></g><g><circle class="cls-16" cx="175.63" cy="172.17" r="2.02"/><path class="cls-16" d="M177.69,181.69h-4.12c-.51,0-.89-.45-.82-.95l.76-5.19c.06-.41,.41-.71,.82-.71h2.6c.41,0,.76,.3,.82,.71l.76,5.19c.07,.5-.31,.95-.82,.95Z"/></g><g><path class="cls-21" d="M282.88,75.81v.52h-1.77c-.28,1.81-.6,1.93-1.47,1.93-.3,0-.69-.02-1.09-.04-.02-.16-.09-.38-.19-.53,.59,.06,1.15,.07,1.37,.07,.19,0,.3-.02,.39-.1,.17-.15,.31-.54,.44-1.33h-5.12v-.52h5.2l.12-1.05h-3.37l-.07,.29-.57-.06c.25-.84,.57-2.28,.76-3.32l.71,.07c-.02,.07-.07,.1-.17,.11-.05,.25-.11,.54-.17,.85h3.63v.49h-3.74c-.08,.36-.17,.72-.25,1.06h3.4c.1-.02,.12-.02,.12-.02l.32,.07c-.04,.21-.14,1.26-.17,1.5h1.7Zm-6.68-4.24v1.27h-.55v-1.79h7.02v1.79h-.57v-1.27h-5.9Z"/><path class="cls-21" d="M291.09,76.19v.48h-7.41v-.48h7.41Zm-4.43,1s-.09,.05-.16,.06c-.55,.35-1.59,.77-2.42,1.01-.08-.12-.26-.29-.38-.4,.84-.23,1.9-.64,2.42-1l.54,.32Zm.42-4.81v-.59h-3.16v-.48h3.16v-.72l.74,.05c0,.06-.06,.1-.16,.12v.56h3.22v.48h-3.22v.59h2.32v3.3h-5.03v-3.3h2.13Zm2.34,.97v-.58h-3.93v.58h3.93Zm0,.96v-.59h-3.93v.59h3.93Zm0,.98v-.61h-3.93v.61h3.93Zm1.25,2.97c-.58-.3-1.53-.71-2.48-1.04,.2-.2,.29-.28,.36-.35,.94,.31,1.95,.72,2.58,1.01l-.46,.38Z"/><path class="cls-21" d="M294.45,73.76c.19-.43,.41-1.12,.53-1.59l.63,.18s-.07,.07-.17,.08c-.12,.4-.33,1-.52,1.41h1.23v.51h-4.34v-.51h2.9l-.25-.08Zm1.56-2.21v.49h-3.99v-.49h1.71v-.96l.7,.04c0,.06-.06,.1-.16,.12v.81h1.74Zm-3.63,6.7v-3.13h3.26v3.08h-.53v-.42h-2.2v.47h-.53Zm.63-6c.19,.42,.35,.98,.4,1.34l-.49,.12c-.04-.36-.19-.93-.36-1.36l.45-.1Zm2.09,3.36h-2.2v1.67h2.2v-1.67Zm4-4.56l.36,.18s-.04,.07-.07,.08c-.31,.7-.75,1.59-1.2,2.46,.89,.83,1.26,1.45,1.26,2.04,0,1.29-.9,1.29-1.43,1.29-.12,0-.25,0-.38,0,0-.15-.08-.39-.19-.54,.18,.02,.35,.02,.51,.02,.55,0,.95-.02,.95-.78,0-.54-.4-1.11-1.3-1.94,.4-.82,.76-1.59,1.04-2.26h-1.64v6.63h-.53v-7.16h2.53l.11-.02Z"/></g>



<rect class="cls-9" x="363.89" y="63.4" width="21.84" height="23.55"/><circle class="cls-16" cx="374.72" cy="71.16" r="2.02"/><path class="cls-16" d="M376.78,80.69h-4.12c-.51,0-.89-.45-.82-.95l.76-5.19c.06-.41,.41-.71,.82-.71h2.6c.41,0,.76,.3,.82,.71l.76,5.19c.07,.5-.31,.95-.82,.95Z"/>



</g></g>

<g id="G3J"><rect class="cls-7" x="1.5" y="1.5" width="43.97" height="45.04"/><rect class="cls-24" x="10.44" y="16" width="28.16" height="16.24" rx="2.07" ry="2.07"/><g><path class="cls-16" d="M21.29,28.52c-.55,.22-1.63,.5-2.79,.5-4.24,0-4.78-3.35-4.78-4.91,0-3.16,2.09-5.05,5.02-5.05,.96,0,1.79,.17,2.28,.41l-.33,1.21c-.46-.2-1.05-.37-1.95-.37-2.01,0-3.46,1.26-3.46,3.73s1.35,3.76,3.27,3.76c.64,0,1.09-.09,1.31-.2v-2.75h-1.69v-1.19h3.13v4.85Z"/><path class="cls-16" d="M26.31,23.75c1.09,.2,2.02,1.08,2.02,2.43,0,1.57-1.2,2.88-3.4,2.88-1,0-1.9-.29-2.36-.6l.38-1.13c.35,.23,1.12,.55,1.91,.55,1.37,0,1.93-.89,1.93-1.75,0-1.24-1.05-1.81-2.19-1.81h-.65v-1.06h.63c.83,0,1.92-.5,1.92-1.55,0-.75-.49-1.35-1.51-1.35-.68,0-1.35,.32-1.72,.57l-.37-1.06c.49-.36,1.42-.7,2.42-.7,1.81,0,2.69,1.08,2.69,2.31,0,.98-.62,1.83-1.72,2.24v.03Z"/><path class="cls-16" d="M33.51,25.68c0,2.57-1.23,3.38-2.95,3.38-.45,0-.97-.08-1.28-.19l.18-1.22c.24,.09,.58,.15,.97,.15,.99,0,1.59-.43,1.59-2.17v-6.47h1.49v6.52Z"/></g></g>

<g id="G3I"><rect class="cls-3" x="45.47" y="1.5" width="43.97" height="45.04"/><rect class="cls-17" x="53.38" y="16" width="28.16" height="16.24" rx="2.07" ry="2.07"/><g><path class="cls-16" d="M64.89,28.52c-.55,.22-1.63,.5-2.79,.5-4.24,0-4.78-3.35-4.78-4.91,0-3.16,2.09-5.05,5.02-5.05,.96,0,1.79,.17,2.28,.41l-.33,1.21c-.46-.2-1.05-.37-1.95-.37-2.01,0-3.46,1.26-3.46,3.73s1.35,3.76,3.27,3.76c.64,0,1.09-.09,1.31-.2v-2.75h-1.69v-1.19h3.13v4.85Z"/><path class="cls-16" d="M69.92,23.75c1.09,.2,2.02,1.08,2.02,2.43,0,1.57-1.2,2.88-3.4,2.88-1,0-1.9-.29-2.36-.6l.38-1.13c.35,.23,1.12,.55,1.91,.55,1.37,0,1.94-.89,1.94-1.75,0-1.24-1.05-1.81-2.19-1.81h-.65v-1.06h.63c.83,0,1.92-.5,1.92-1.55,0-.75-.49-1.35-1.51-1.35-.68,0-1.35,.32-1.72,.57l-.37-1.06c.49-.36,1.42-.7,2.42-.7,1.81,0,2.69,1.08,2.69,2.31,0,.98-.62,1.83-1.72,2.24v.03Z"/><path class="cls-16" d="M73.88,19.17h1.49v9.75h-1.49v-9.75Z"/></g></g><g><rect class="cls-4" x="89.44" y="1.5" width="43.97" height="45.04"/><rect class="cls-23" x="97.82" y="15.9" width="28.16" height="16.24" rx="2.07" ry="2.07"/><g><path class="cls-16" d="M107.29,28.52c-.55,.22-1.63,.5-2.79,.5-4.24,0-4.78-3.35-4.78-4.91,0-3.16,2.09-5.05,5.02-5.05,.96,0,1.79,.17,2.28,.41l-.33,1.21c-.46-.2-1.05-.37-1.95-.37-2.01,0-3.46,1.26-3.46,3.73s1.35,3.76,3.27,3.76c.64,0,1.09-.09,1.31-.2v-2.75h-1.69v-1.19h3.13v4.85Z"/><path class="cls-16" d="M112.32,23.75c1.09,.2,2.02,1.08,2.02,2.43,0,1.57-1.2,2.88-3.4,2.88-1,0-1.9-.29-2.36-.6l.38-1.13c.35,.23,1.12,.55,1.91,.55,1.37,0,1.94-.89,1.94-1.75,0-1.24-1.05-1.81-2.19-1.81h-.65v-1.06h.63c.83,0,1.92-.5,1.92-1.55,0-.75-.49-1.35-1.51-1.35-.68,0-1.35,.32-1.72,.57l-.37-1.06c.49-.36,1.42-.7,2.42-.7,1.81,0,2.69,1.08,2.69,2.31,0,.98-.62,1.83-1.72,2.24v.03Z"/><path class="cls-16" d="M123.25,28.92h-1.49v-4.43h-4v4.43h-1.49v-9.76h1.49v4.03h4v-4.03h1.49v9.76Z"/></g></g>

<g id="G3D">
<g><rect class="cls-12" x="133.41" y="1.5" width="43.97" height="45.04"/><rect class="cls-25" x="141.21" y="15.9" width="28.16" height="16.24" rx="2.07" ry="2.07"/><path class="cls-16" d="M151.54,28.52c-.55,.22-1.63,.5-2.79,.5-4.24,0-4.78-3.35-4.78-4.91,0-3.16,2.09-5.05,5.02-5.05,.96,0,1.79,.17,2.28,.41l-.33,1.21c-.46-.2-1.05-.37-1.95-.37-2.01,0-3.46,1.26-3.46,3.73s1.35,3.76,3.27,3.76c.64,0,1.09-.09,1.31-.2v-2.75h-1.69v-1.19h3.13v4.85Z"/></g><path class="cls-16" d="M160.17,19.27c.71-.11,1.58-.2,2.5-.2,4.18,0,5.05,2.56,5.05,4.73h0c0,1.78-.55,3.07-1.41,3.9-.88,.85-2.28,1.29-4.01,1.29-.87,0-1.58-.04-2.13-.11v-9.59Zm1.49,8.47c.26,.04,.62,.05,.96,.05,2.2,.01,3.54-1.27,3.54-3.96,0-2.37-1.23-3.59-3.34-3.59-.51,0-.9,.05-1.15,.1v7.4Z"/><path class="cls-16" d="M156.8,23.74c1.09,.2,2.02,1.08,2.02,2.43,0,1.57-1.2,2.88-3.4,2.88-1,0-1.9-.29-2.36-.6l.38-1.13c.35,.23,1.12,.55,1.91,.55,1.37,0,1.94-.89,1.94-1.75,0-1.24-1.05-1.81-2.19-1.81h-.65v-1.06h.63c.83,0,1.92-.5,1.92-1.55,0-.75-.49-1.35-1.51-1.35-.68,0-1.35,.32-1.72,.57l-.37-1.06c.49-.36,1.42-.7,2.42-.7,1.81,0,2.69,1.08,2.69,2.31,0,.98-.62,1.83-1.72,2.24v.03Z"/>
</g>

<g id="G3E">
<g><rect class="cls-3" x="177.38" y="1.5" width="43.97" height="45.04"/><rect class="cls-17" x="185.63" y="16" width="28.16" height="16.24" rx="2.07" ry="2.07"/><g><path class="cls-16" d="M195.96,28.52c-.55,.22-1.63,.5-2.79,.5-4.24,0-4.78-3.35-4.78-4.91,0-3.16,2.09-5.05,5.02-5.05,.96,0,1.79,.17,2.28,.41l-.33,1.21c-.46-.2-1.05-.37-1.95-.37-2.01,0-3.46,1.26-3.46,3.73s1.35,3.76,3.27,3.76c.64,0,1.09-.09,1.31-.2v-2.75h-1.69v-1.19h3.13v4.85Z"/><path class="cls-16" d="M210.29,28.92h-5.34v-9.75h5.13v1.24h-3.64v2.82h3.43v1.22h-3.43v3.24h3.86v1.24Z"/></g></g><path class="cls-16" d="M201.37,23.65c1.09,.2,2.02,1.08,2.02,2.43,0,1.57-1.2,2.88-3.4,2.88-1,0-1.9-.29-2.36-.6l.38-1.13c.35,.23,1.12,.55,1.91,.55,1.37,0,1.94-.89,1.94-1.75,0-1.24-1.05-1.81-2.19-1.81h-.65v-1.06h.63c.83,0,1.92-.5,1.92-1.55,0-.75-.49-1.35-1.51-1.35-.68,0-1.35,.32-1.72,.57l-.37-1.06c.49-.36,1.42-.7,2.42-.7,1.81,0,2.69,1.08,2.69,2.31,0,.98-.62,1.83-1.72,2.24v.03Z"/></g>


<g id="G3B"><rect class="cls-10" x="221.35" y="1.5" width="43.97" height="45.04"/><rect class="cls-20" x="230.18" y="16.21" width="28.16" height="16.24" rx="2.07" ry="2.07"/><path class="cls-16" d="M239.74,28.52c-.55,.22-1.63,.5-2.79,.5-4.24,0-4.78-3.35-4.78-4.91,0-3.16,2.09-5.05,5.02-5.05,.96,0,1.79,.17,2.28,.41l-.33,1.21c-.46-.2-1.05-.37-1.95-.37-2.01,0-3.46,1.26-3.46,3.73s1.35,3.76,3.27,3.76c.64,0,1.09-.09,1.31-.2v-2.75h-1.69v-1.19h3.13v4.85Z"/><path class="cls-16" d="M245.69,23.75c1.09,.2,2.02,1.08,2.02,2.43,0,1.57-1.2,2.88-3.4,2.88-1,0-1.9-.29-2.36-.6l.38-1.13c.35,.23,1.12,.55,1.91,.55,1.37,0,1.94-.89,1.94-1.75,0-1.24-1.05-1.81-2.19-1.81h-.65v-1.06h.63c.83,0,1.92-.5,1.92-1.55,0-.75-.49-1.35-1.51-1.35-.68,0-1.35,.32-1.72,.57l-.37-1.06c.49-.36,1.42-.7,2.42-.7,1.81,0,2.69,1.08,2.69,2.31,0,.98-.62,1.83-1.72,2.24v.03Z"/><path class="cls-16" d="M254.18,23.66c1.03,.25,1.96,1.07,1.96,2.43,0,1.03-.49,1.63-.85,1.96-.65,.62-1.73,.92-3.35,.92-.87,0-1.53-.06-1.95-.11v-9.59c.55-.11,1.42-.2,2.29-.2,2.99,0,3.5,1.45,3.5,2.43,0,.93-.59,1.75-1.62,2.13v.04Zm-1.79-.46c1.18,0,1.92-.65,1.92-1.55,0-1.17-.95-1.47-1.87-1.47-.49,0-.78,.04-.96,.08v2.94h.91Zm-.91,4.59c.22,.04,.51,.05,.9,.05,1.19,0,2.22-.5,2.22-1.78s-1.12-1.76-2.26-1.76h-.86v3.49Z"/></g>


<g id="G3A"><g><rect class="cls-13" x="265.32" y="1.5" width="43.97" height="45.04"/><rect class="cls-19" x="273.93" y="16" width="28.16" height="16.24" rx="2.07" ry="2.07"/><path class="cls-16" d="M283.9,28.52c-.55,.22-1.63,.5-2.79,.5-4.24,0-4.78-3.35-4.78-4.91,0-3.16,2.09-5.05,5.02-5.05,.96,0,1.79,.17,2.28,.41l-.33,1.21c-.46-.2-1.05-.37-1.95-.37-2.01,0-3.46,1.26-3.46,3.73s1.35,3.76,3.27,3.76c.64,0,1.09-.09,1.31-.2v-2.75h-1.69v-1.19h3.13v4.85Z"/></g><path class="cls-16" d="M289.25,23.56c1.09,.2,2.02,1.08,2.02,2.43,0,1.57-1.2,2.88-3.4,2.88-1,0-1.9-.29-2.36-.6l.38-1.13c.35,.23,1.12,.55,1.91,.55,1.37,0,1.94-.89,1.94-1.75,0-1.24-1.05-1.81-2.19-1.81h-.65v-1.06h.63c.83,0,1.92-.5,1.92-1.55,0-.75-.49-1.35-1.51-1.35-.68,0-1.35,.32-1.72,.57l-.37-1.06c.49-.36,1.42-.7,2.42-.7,1.81,0,2.69,1.08,2.69,2.31,0,.98-.62,1.83-1.72,2.24v.03Z"/><path class="cls-16" d="M299.89,28.81h-1.56l-.88-2.87h-3l-.85,2.87h-1.53l3-9.75h1.82l3,9.75Zm-2.69-4l-.77-2.55c-.18-.64-.35-1.33-.49-1.92h-.03c-.14,.6-.29,1.31-.46,1.91l-.78,2.56h2.53Z"/></g>

<g id="T3D"><g><rect class="cls-7" x="309.29" y="1.5" width="43.97" height="45.04"/><rect class="cls-24" x="317.64" y="16.21" width="28.16" height="16.24" rx="2.07" ry="2.07"/></g><path class="cls-16" d="M332.57,23.56c1.09,.2,2.02,1.08,2.02,2.43,0,1.57-1.2,2.88-3.4,2.88-1,0-1.9-.29-2.36-.6l.38-1.13c.35,.23,1.12,.55,1.91,.55,1.37,0,1.94-.89,1.94-1.75,0-1.24-1.05-1.81-2.19-1.81h-.65v-1.06h.63c.83,0,1.92-.5,1.92-1.55,0-.75-.49-1.35-1.51-1.35-.68,0-1.35,.32-1.72,.57l-.37-1.06c.49-.36,1.42-.7,2.42-.7,1.81,0,2.69,1.08,2.69,2.31,0,.98-.62,1.83-1.72,2.24v.03Z"/><path class="cls-16" d="M327.64,20.32h-2.65v8.49h-1.49v-8.49h-2.64v-1.26h6.78v1.26Z"/><path class="cls-16" d="M336.36,19.26c.71-.11,1.58-.2,2.5-.2,4.18,0,5.05,2.56,5.05,4.73h0c0,1.78-.55,3.07-1.41,3.9-.88,.85-2.28,1.29-4.01,1.29-.87,0-1.58-.04-2.13-.11v-9.59Zm1.49,8.47c.26,.04,.62,.05,.96,.05,2.2,.01,3.54-1.27,3.54-3.96,0-2.37-1.23-3.59-3.34-3.59-.51,0-.9,.05-1.15,.1v7.4Z"/></g>

<g id="T3C"><g><rect class="cls-10" x="353.26" y="1.5" width="43.97" height="45.04"/><rect class="cls-20" x="361.17" y="15.9" width="28.16" height="16.24" rx="2.07" ry="2.07"/><g><path class="cls-16" d="M370.85,20.43h-2.65v8.49h-1.49v-8.49h-2.64v-1.26h6.78v1.26Z"/><path class="cls-16" d="M375.66,23.56c1.09,.2,2.02,1.08,2.02,2.43,0,1.57-1.2,2.88-3.4,2.88-1,0-1.9-.29-2.36-.6l.38-1.13c.35,.23,1.12,.55,1.91,.55,1.37,0,1.93-.89,1.93-1.75,0-1.24-1.05-1.81-2.19-1.81h-.65v-1.06h.63c.83,0,1.92-.5,1.92-1.55,0-.75-.49-1.35-1.51-1.35-.68,0-1.35,.32-1.72,.57l-.37-1.06c.49-.36,1.42-.7,2.42-.7,1.81,0,2.69,1.08,2.69,2.31,0,.98-.62,1.83-1.72,2.24v.03Z"/></g></g><path class="cls-22" d="M385.67,28.54c-.41,.2-1.24,.41-2.3,.41-2.73,0-4.56-1.8-4.56-4.91,0-3.31,2.1-5.12,4.81-5.12,1.13,0,1.82,.24,2.09,.38l-.32,1.21c-.41-.19-.99-.36-1.71-.36-1.89,0-3.3,1.27-3.3,3.81,0,2.4,1.25,3.73,3.28,3.73,.67,0,1.34-.14,1.77-.34l.26,1.19Z"/></g>

<g id="T3B"><g><rect class="cls-12" x="397.23" y="1.5" width="43.97" height="45.04"/><rect class="cls-25" x="404.39" y="15.9" width="28.16" height="16.24" rx="2.07" ry="2.07"/><g><path class="cls-16" d="M414.41,20.43h-2.65v8.49h-1.49v-8.49h-2.64v-1.26h6.78v1.26Z"/><path class="cls-16" d="M419.32,23.27c1.09,.2,2.02,1.08,2.02,2.43,0,1.57-1.2,2.88-3.4,2.88-1,0-1.9-.29-2.36-.6l.38-1.13c.35,.23,1.12,.55,1.91,.55,1.37,0,1.93-.89,1.93-1.75,0-1.24-1.05-1.81-2.19-1.81h-.65v-1.06h.63c.83,0,1.92-.5,1.92-1.55,0-.75-.49-1.35-1.51-1.35-.68,0-1.35,.32-1.72,.57l-.37-1.06c.49-.36,1.42-.7,2.42-.7,1.81,0,2.69,1.08,2.69,2.31,0,.98-.62,1.83-1.72,2.24v.03Z"/></g></g><path class="cls-16" d="M427.41,23.28c1.03,.25,1.96,1.07,1.96,2.43,0,1.03-.49,1.63-.85,1.96-.65,.62-1.73,.92-3.35,.92-.87,0-1.53-.06-1.95-.11v-9.59c.55-.11,1.42-.2,2.29-.2,2.99,0,3.5,1.45,3.5,2.43,0,.93-.59,1.75-1.62,2.13v.04Zm-1.79-.46c1.18,0,1.92-.65,1.92-1.55,0-1.17-.95-1.47-1.87-1.47-.49,0-.78,.04-.96,.08v2.94h.91Zm-.91,4.59c.22,.04,.51,.05,.9,.05,1.19,0,2.22-.5,2.22-1.78s-1.12-1.76-2.26-1.76h-.86v3.49Z"/></g>

<g id="T3A"><rect class="cls-13" x="370.07" y="87.03" width="56.22" height="38.52"/><rect class="cls-19" x="383.15" y="98" width="28.16" height="16.24" rx="2.07" ry="2.07"/><path class="cls-16" d="M393.42,102.67h-2.65v8.49h-1.49v-8.49h-2.64v-1.26h6.78v1.26Z"/><path class="cls-16" d="M398.09,105.75c1.09,.2,2.02,1.08,2.02,2.43,0,1.57-1.2,2.88-3.4,2.88-1,0-1.9-.29-2.36-.6l.38-1.13c.35,.23,1.12,.55,1.91,.55,1.37,0,1.93-.89,1.93-1.75,0-1.24-1.05-1.81-2.19-1.81h-.65v-1.06h.63c.83,0,1.92-.5,1.92-1.55,0-.75-.49-1.35-1.51-1.35-.68,0-1.35,.32-1.72,.57l-.37-1.06c.49-.36,1.42-.7,2.42-.7,1.81,0,2.69,1.08,2.69,2.31,0,.98-.62,1.83-1.72,2.24v.03Z"/><path class="cls-16" d="M408.34,111.16h-1.56l-.88-2.87h-3l-.85,2.87h-1.53l3-9.75h1.82l3,9.75Zm-2.69-4l-.77-2.55c-.18-.64-.35-1.33-.49-1.92h-.03c-.14,.6-.29,1.31-.46,1.91l-.78,2.56h2.53Z"/></g>

<g id="J3A"><rect class="cls-12" x="370.07" y="125.55" width="56.22" height="38.53"/><rect class="cls-25" x="384.11" y="136.69" width="28.16" height="16.24" rx="2.07" ry="2.07"/><path class="cls-16" d="M392.15,146.38c0,2.57-1.23,3.38-2.95,3.38-.45,0-.97-.08-1.28-.19l.18-1.22c.24,.09,.58,.15,.97,.15,.99,0,1.59-.43,1.59-2.17v-6.47h1.49v6.52Z"/><path class="cls-16" d="M398.05,144.39c1.09,.2,2.02,1.08,2.02,2.43,0,1.57-1.2,2.88-3.4,2.88-1,0-1.9-.29-2.36-.6l.38-1.13c.35,.23,1.12,.55,1.91,.55,1.37,0,1.93-.89,1.93-1.75,0-1.24-1.05-1.81-2.19-1.81h-.65v-1.06h.63c.83,0,1.92-.5,1.92-1.55,0-.75-.49-1.35-1.51-1.35-.68,0-1.35,.32-1.72,.57l-.37-1.06c.49-.36,1.42-.7,2.42-.7,1.81,0,2.69,1.08,2.69,2.31,0,.98-.62,1.83-1.72,2.24v.03Z"/><path class="cls-16" d="M408.3,149.8h-1.56l-.88-2.87h-3l-.85,2.87h-1.53l3-9.75h1.82l3,9.75Zm-2.69-4l-.77-2.55c-.18-.64-.35-1.33-.49-1.92h-.03c-.14,.6-.29,1.31-.46,1.91l-.78,2.56h2.53Z"/></g>


<polygon class="cls-15" points="1.5 1.5 1.5 63.48 45.47 63.48 45.47 87.03 86.06 87.03 115.67 87.03 115.67 164.07 86.06 164.07 45.47 164.07 45.47 187.77 45.47 249.6 441.2 249.6 441.2 1.5 1.5 1.5"/>
<rect class="cls-5" x="234.93" y="87.03" width="135.14" height="77.05"/>

</svg>