<?xml version="1.0" encoding="UTF-8"?>
<svg id="_レイヤー_2" xmlns="http://www.w3.org/2000/svg" viewBox="0 0 442.16 251.36">
<defs>
<style>
.cls-1{fill:#f2bfd7;}
.cls-1,.cls-2,.cls-3,.cls-4,.cls-5,.cls-6,.cls-7,.cls-8,.cls-9,.cls-10,.cls-11,.cls-12,.cls-13,.cls-14,.cls-15,.cls-16,.cls-17,.cls-18,.cls-19,.cls-20,
.cls-21{stroke:#5e5c5c;}
.cls-1,.cls-2,.cls-3,.cls-4,.cls-5,.cls-6,.cls-7,.cls-8,.cls-9,.cls-10,.cls-11,.cls-12,.cls-13,.cls-14,.cls-15,.cls-16,.cls-17,.cls-19,.cls-20,.cls-22,
.cls-21{stroke-linejoin:round;}
.cls-2,.cls-6,
.cls-12{fill:#bbe1e7;}
.cls-3,
.cls-4{fill:#f7ea67;}
.cls-23{stroke:#fff;stroke-width:.25px;}
.cls-23,
.cls-7{fill:#fff;}
.cls-23,
.cls-18{stroke-miterlimit:10;}
.cls-4,.cls-8,
.cls-20{stroke-width:.95px;}
.cls-5{fill:#b2e0f8;}
.cls-24{fill:#dbcc5c;}
.cls-25{fill:#46976c;}
.cls-6{stroke-width:.94px;}
.cls-26{fill:#daa86e;}
.cls-7,.cls-10,
.cls-15{stroke-width:1px;}
.cls-8,
.cls-11{fill:#666;}
.cls-9{stroke-width:3px;}
.cls-9,.cls-10,
.cls-22{fill:none;}
.cls-27,.cls-15,.cls-20,
.cls-21{fill:#f3fafe;}
.cls-28{fill:#8ab7d6;}
.cls-12{stroke-width:2px;}
.cls-13{fill:#f7ca88;}
.cls-29{fill:#4d4e4f;}
.cls-14{fill:#b2ce65;}
.cls-16{fill:#e3776a;}
.cls-17{fill:#77bde9;}
.cls-18{fill:#fef9e4;}
.cls-19{fill:#69bd83;}
.cls-30{fill:#c35f5a;}
.cls-31{fill:#f3f9f8;}
.cls-32{fill:#9e9e9e;}
.cls-22{stroke:#231815;}
</style>
</defs>
<g id="map">
<g>
<polygon class="cls-18" points="1.5 1.5 1.5 63.55 45.41 63.55 45.41 87.26 85.95 87.12 115.03 87.26 115.03 164.25 85.95 164.25 45.41 164.25 45.41 187.97 45.41 249.86 440.66 249.86 440.66 1.5 1.5 1.5"/>
<g>
<rect class="cls-21" x="133.25" y="164.25" width="11.91" height="11.86"/>
<rect class="cls-21" x="133.25" y="176.1" width="11.91" height="11.86"/>

<rect class="cls-14" x="161.95" y="164.25" width="16.96" height="23.72"/>

<rect class="cls-1" x="144.99" y="164.24" width="16.96" height="23.72"/>
<rect class="cls-22" x="385.24" y="164.25" width="40.54" height="23.72"/>
<polyline class="cls-22" points="425.77 87.12 385.24 87.12 385.24 63.39"/>
<rect class="cls-1" x="363.46" y="63.39" width="21.78" height="23.72"/>
<rect class="cls-17" x="133.25" y="63.39" width="21.96" height="23.72"/>
<rect class="cls-1" x="155.2" y="63.39" width="17.09" height="23.72"/>
<rect class="cls-6" x="172.29" y="63.39" width="81.74" height="23.72"/>
<rect class="cls-6" x="224.47" y="164.24" width="81.75" height="23.72"/>
<rect class="cls-22" x="45.41" y="164.25" width="40.54" height="23.72"/>
<rect class="cls-1" x="346.74" y="63.39" width="16.72" height="23.72"/>
<rect class="cls-17" x="363.46" y="164.24" width="21.78" height="23.72"/>
<rect class="cls-1" x="346.74" y="164.24" width="16.72" height="23.72"/>

<rect class="cls-20" x="123.94" y="204.77" width="21.22" height="45.09"/>
<rect class="cls-20" x="145.16" y="204.77" width="78.35" height="45.09"/>
<rect class="cls-20" x="262.73" y="204.77" width="78.35" height="45.09"/>
<rect class="cls-20" x="341.09" y="204.77" width="21.22" height="45.09"/>
<rect class="cls-20" x="362.31" y="204.77" width="78.35" height="45.09"/>
<rect class="cls-2" x="223.52" y="204.77" width="39.22" height="45.09"/>




<g>
<polyline class="cls-15" points="85.95 164.35 45.41 164.35 45.41 187.97 85.95 187.97 85.95 164.35"/>
<line class="cls-7" x1="57.87" y1="164.35" x2="57.87" y2="187.97"/>
<line class="cls-7" x1="60.99" y1="164.35" x2="60.99" y2="187.97"/>
<line class="cls-7" x1="64.11" y1="164.35" x2="64.11" y2="187.97"/>
<line class="cls-7" x1="67.23" y1="164.35" x2="67.23" y2="187.97"/>
<line class="cls-7" x1="70.35" y1="164.35" x2="70.35" y2="187.97"/>
<line class="cls-7" x1="73.47" y1="164.35" x2="73.47" y2="187.97"/>
<line class="cls-7" x1="76.59" y1="164.35" x2="76.59" y2="187.97"/>
<line class="cls-7" x1="79.71" y1="164.35" x2="79.71" y2="187.97"/>
<line class="cls-7" x1="82.83" y1="164.35" x2="82.83" y2="187.97"/>
</g>
<g>
<rect class="cls-15" x="385.24" y="63.39" width="40.54" height="23.77"/>
<line class="cls-7" x1="397.7" y1="63.55" x2="397.7" y2="87.17"/>
<line class="cls-7" x1="400.82" y1="63.55" x2="400.82" y2="87.17"/>
<line class="cls-7" x1="403.93" y1="63.55" x2="403.93" y2="87.17"/>
<line class="cls-7" x1="407.06" y1="63.55" x2="407.06" y2="87.17"/>
<line class="cls-7" x1="410.18" y1="63.55" x2="410.18" y2="87.17"/>
<line class="cls-7" x1="413.29" y1="63.55" x2="413.29" y2="87.17"/>
<line class="cls-7" x1="416.41" y1="63.55" x2="416.41" y2="87.17"/>
<line class="cls-7" x1="419.53" y1="63.55" x2="419.53" y2="87.17"/>
<line class="cls-7" x1="422.65" y1="63.55" x2="422.65" y2="87.17"/>
</g>
<g>
<polyline class="cls-15" points="425.77 164.35 385.24 164.35 385.24 187.97 425.77 187.97 425.77 164.35"/>
<line class="cls-7" x1="397.7" y1="164.35" x2="397.7" y2="187.97"/>
<line class="cls-7" x1="400.82" y1="164.35" x2="400.82" y2="187.97"/>
<line class="cls-7" x1="403.93" y1="164.35" x2="403.93" y2="187.97"/>
<line class="cls-7" x1="407.06" y1="164.35" x2="407.06" y2="187.97"/>
<line class="cls-7" x1="410.18" y1="164.35" x2="410.18" y2="187.97"/>
<line class="cls-7" x1="413.29" y1="164.35" x2="413.29" y2="187.97"/>
<line class="cls-7" x1="416.41" y1="164.35" x2="416.41" y2="187.97"/>
<line class="cls-7" x1="419.53" y1="164.35" x2="419.53" y2="187.97"/>
<line class="cls-7" x1="422.65" y1="164.35" x2="422.65" y2="187.97"/>
</g>
<g>
<rect class="cls-15" x="45.41" y="63.59" width="40.54" height="23.62"/>
<line class="cls-7" x1="57.87" y1="63.59" x2="57.87" y2="87.21"/>
<line class="cls-7" x1="60.99" y1="63.59" x2="60.99" y2="87.21"/>
<line class="cls-7" x1="64.11" y1="63.59" x2="64.11" y2="87.21"/>
<line class="cls-7" x1="67.23" y1="63.59" x2="67.23" y2="87.21"/>
<line class="cls-7" x1="70.35" y1="63.59" x2="70.35" y2="87.21"/>
<line class="cls-7" x1="73.47" y1="63.59" x2="73.47" y2="87.21"/>
<line class="cls-7" x1="76.59" y1="63.59" x2="76.59" y2="87.21"/>
<line class="cls-7" x1="79.71" y1="63.59" x2="79.71" y2="87.21"/>
<line class="cls-7" x1="82.83" y1="63.59" x2="82.83" y2="87.21"/>
</g>
<rect class="cls-12" x="133.25" y="87.12" width="236.37" height="77.13"/>

<line class="cls-10" x1="57.7" y1="74.94" x2="85.95" y2="74.94"/>
<line class="cls-7" x1="57.7" y1="176.09" x2="85.95" y2="176.09"/>
<line class="cls-10" x1="397.56" y1="177.31" x2="425.63" y2="177.31"/>
<line class="cls-10" x1="397.6" y1="76.41" x2="425.68" y2="76.41"/>

<g>
<circle class="cls-31" cx="144.23" cy="71.41" r="2.02"/>
<rect class="cls-31" x="142.21" y="74.09" width="4.04" height="6.85" rx=".89" ry=".89"/>
</g>
<g>
<circle class="cls-31" cx="374.07" cy="71.23" r="2.02"/>
<rect class="cls-31" x="372.05" y="73.9" width="4.04" height="6.85" rx=".89" ry=".89"/>
</g>
<g>
<circle class="cls-31" cx="373.94" cy="172.41" r="2.02"/>
<rect class="cls-31" x="371.92" y="175.09" width="4.04" height="6.85" rx=".89" ry=".89"/>
</g>
<g>
<circle class="cls-31" cx="354.8" cy="71.53" r="2.02"/>
<path class="cls-31" d="M356.86,81.05h-4.12c-.51,0-.89-.45-.82-.95l.76-5.19c.06-.41,.41-.71,.82-.71h2.6c.41,0,.76,.3,.82,.71l.76,5.19c.07,.5-.31,.95-.82,.95Z"/>
</g>
<g>
<circle class="cls-31" cx="164.08" cy="71.29" r="2.02"/>
<path class="cls-31" d="M166.14,80.82h-4.12c-.51,0-.89-.45-.82-.95l.76-5.19c.06-.41,.41-.71,.82-.71h2.6c.41,0,.76,.3,.82,.71l.76,5.19c.07,.5-.31,.95-.82,.95Z"/>
</g>
<g>
<circle class="cls-31" cx="153.48" cy="172.35" r="2.02"/>
<path class="cls-31" d="M155.54,181.88h-4.12c-.51,0-.89-.45-.82-.95l.76-5.19c.06-.41,.41-.71,.82-.71h2.6c.41,0,.76,.3,.82,.71l.76,5.19c.07,.5-.31,.95-.82,.95Z"/>
</g>
<g>
<circle class="cls-31" cx="354.7" cy="172.14" r="2.02"/>
<path class="cls-31" d="M356.76,181.66h-4.12c-.51,0-.89-.45-.82-.95l.76-5.19c.06-.41,.41-.71,.82-.71h2.6c.41,0,.76,.3,.82,.71l.76,5.19c.07,.5-.31,.95-.82,.95Z"/>
</g>
<g>
<rect class="cls-21" x="133.25" y="1.5" width="43.92" height="45.09"/>
<rect class="cls-32" x="137.52" y="17.02" width="35.38" height="16.24" rx="2.07" ry="2.07"/>
<g>
<path class="cls-23" d="M142.47,20.43c.56,.25,1.16,.55,1.7,.86,.38-.58,.78-1.33,1.08-2.09l.59,.24c-.02,.05-.11,.08-.22,.07-.28,.64-.67,1.39-1.07,2,.46,.29,.94,.61,1.31,.92l-.29,.38c-.33-.29-.78-.62-1.28-.94-.62,.88-1.52,1.78-2.54,2.45-.07-.09-.24-.23-.34-.3,1-.65,1.92-1.54,2.51-2.37-.55-.32-1.13-.63-1.69-.88l.23-.35Z"/>
<path class="cls-23" d="M152.11,20.57s-.02,.05-.05,.08c-.08,1.73-.25,2.81-.48,3.24-.24,.41-.59,.43-.79,.43-.23,0-.66-.05-1.07-.14,.01-.12,0-.3-.02-.43,.45,.1,.91,.15,1.05,.15,.22,0,.34-.05,.46-.28,.18-.37,.33-1.37,.39-2.72h-1.92c-.3,1.43-.89,2.62-1.98,3.44-.07-.08-.23-.19-.34-.26,1.04-.78,1.58-1.81,1.87-3.17h-1.65v-.4h1.74c.07-.43,.11-.81,.14-1.31l.59,.05c0,.07-.06,.1-.15,.11-.04,.44-.07,.77-.13,1.15h1.94l.1-.04,.31,.11Z"/>
<path class="cls-23" d="M158.31,23.31v.41h-4.95v-.41h4.95Zm-.59-3.29v.41h-3.72v-.41h3.72Z"/>
<path class="cls-23" d="M164.11,20.57s-.02,.05-.05,.08c-.08,1.73-.25,2.81-.48,3.24-.24,.41-.59,.43-.79,.43-.23,0-.66-.05-1.07-.14,.01-.12,0-.3-.02-.43,.45,.1,.91,.15,1.05,.15,.22,0,.34-.05,.46-.28,.18-.37,.33-1.37,.39-2.72h-1.92c-.3,1.43-.89,2.62-1.98,3.44-.07-.08-.23-.19-.34-.26,1.04-.78,1.58-1.81,1.87-3.17h-1.65v-.4h1.74c.07-.43,.11-.81,.14-1.31l.59,.05c0,.07-.06,.1-.15,.11-.04,.44-.07,.77-.13,1.15h1.94l.1-.04,.31,.11Z"/>
<path class="cls-23" d="M166.7,20.09c0,.05-.06,.09-.14,.1-.04,1.61-.17,3.08-1.09,4.16-.1-.07-.24-.16-.36-.23,.89-.97,1-2.47,1.02-4.08l.57,.05Zm1.55,3.45c1-.49,1.65-1.36,2-2.41,.09,.08,.27,.18,.37,.23-.43,1.21-1.17,2.1-2.45,2.71-.02,.05-.06,.1-.1,.12l-.31-.4,.07-.09v-4.4l.56,.03c0,.05-.05,.1-.13,.11v4.09Z"/>
<path class="cls-23" d="M146.4,26.7s-.05,.04-.08,.05c-.32,.77-.84,1.43-1.42,1.92-.09-.08-.26-.19-.37-.25,.55-.4,1-.98,1.19-1.49h-4.29v-.41h4.52l.07-.03,.38,.2Zm-2.34,1.09s-.06,.09-.14,.1c-.17,1.42-.66,2.76-1.9,3.48-.08-.07-.24-.21-.35-.28,1.22-.67,1.66-1.92,1.8-3.37l.58,.07Z"/>
<path class="cls-23" d="M147.33,28.45h5.01v.43h-4.78c-.04,.06-.11,.1-.19,.11l-.04-.54Z"/>
<path class="cls-23" d="M153.85,26.88c.23,.44,.49,1.16,.58,1.59l-.4,.13c-.08-.42-.34-1.13-.56-1.6l.39-.13Zm4.49,.07c-.02,.05-.08,.08-.16,.08-.63,2.12-1.61,3.41-3.49,4.23-.06-.08-.2-.25-.29-.33,1.83-.77,2.78-1.98,3.37-4.16l.56,.18Zm-2.59-.41c.14,.5,.29,1.24,.32,1.7l-.43,.07c-.04-.47-.17-1.19-.31-1.7l.42-.07Z"/>
<path class="cls-23" d="M161.01,28.29c.14-.31,.3-.82,.38-1.16l.46,.13s-.05,.05-.13,.06c-.09,.29-.24,.73-.38,1.03h.89v.37h-3.16v-.37h2.11l-.19-.06Zm1.13-1.61v.36h-2.9v-.36h1.25v-.7l.51,.03s-.04,.07-.12,.08v.59h1.27Zm-2.64,4.88v-2.28h2.38v2.24h-.39v-.31h-1.6v.34h-.38Zm.46-4.37c.14,.31,.25,.71,.29,.98l-.35,.08c-.03-.26-.14-.68-.26-.99l.33-.07Zm1.52,2.45h-1.6v1.22h1.6v-1.22Zm2.92-3.32l.26,.13s-.03,.05-.05,.06c-.23,.51-.55,1.16-.88,1.79,.65,.61,.92,1.06,.92,1.49,0,.94-.65,.94-1.04,.94-.09,0-.19,0-.28,0,0-.11-.06-.28-.14-.4,.13,.01,.26,.02,.37,.02,.4,0,.69-.02,.69-.57,0-.39-.29-.81-.95-1.41,.29-.59,.55-1.16,.76-1.64h-1.19v4.83h-.39v-5.21h1.84l.08-.02Z"/>
</g>
</g>
</g>
</g>
</g>

<g id="G1J">
<rect class="cls-13" x="1.5" y="1.5" width="43.91" height="45.09"/>
<rect class="cls-26" x="9.56" y="16.16" width="28.16" height="16.24" rx="2.07" ry="2.07"/>
<path class="cls-27" d="M20.9,28.7c-.55,.22-1.63,.5-2.79,.5-4.24,0-4.78-3.35-4.78-4.91,0-3.16,2.09-5.05,5.02-5.05,.96,0,1.79,.17,2.28,.41l-.33,1.21c-.46-.2-1.05-.37-1.95-.37-2.01,0-3.46,1.26-3.46,3.73s1.34,3.76,3.26,3.76c.64,0,1.09-.09,1.31-.2v-2.75h-1.69v-1.19h3.12v4.85Z"/>
<path class="cls-27" d="M24.91,29.09v-8.24h-.03l-1.63,.89-.33-1.08,2.18-1.16h1.25v9.59h-1.45Z"/>
<path class="cls-27" d="M33.1,25.85c0,2.57-1.23,3.38-2.94,3.38-.45,0-.97-.08-1.28-.19l.18-1.22c.24,.09,.58,.15,.97,.15,.99,0,1.59-.43,1.59-2.17v-6.47h1.48v6.52Z"/>
</g>

<g id="G1I">
<rect class="cls-3" x="45.41" y="1.5" width="43.92" height="45.09"/>
<rect class="cls-24" x="53.29" y="16.09" width="28.16" height="16.24" rx="2.07" ry="2.07"/>
<path class="cls-27" d="M64.78,28.7c-.55,.22-1.63,.5-2.79,.5-4.24,0-4.78-3.35-4.78-4.91,0-3.16,2.09-5.05,5.02-5.05,.96,0,1.79,.17,2.28,.41l-.33,1.21c-.46-.2-1.05-.37-1.95-.37-2.01,0-3.46,1.26-3.46,3.73s1.34,3.76,3.26,3.76c.64,0,1.09-.09,1.31-.2v-2.75h-1.69v-1.19h3.12v4.85Z"/>
<path class="cls-27" d="M68.79,29.09v-8.24h-.03l-1.63,.89-.33-1.08,2.18-1.16h1.25v9.59h-1.45Z"/>
<path class="cls-27" d="M73.76,19.34h1.48v9.75h-1.48v-9.75Z"/>
</g>

<g id="G1H">
<rect class="cls-16" x="89.33" y="1.5" width="43.92" height="45.09"/>
<rect class="cls-30" x="97.21" y="15.93" width="28.16" height="16.24" rx="2.07" ry="2.07"/>
<path class="cls-27" d="M106.85,28.7c-.55,.22-1.63,.5-2.79,.5-4.24,0-4.78-3.35-4.78-4.91,0-3.16,2.09-5.05,5.02-5.05,.96,0,1.79,.17,2.28,.41l-.33,1.21c-.46-.2-1.05-.37-1.95-.37-2.01,0-3.46,1.26-3.46,3.73s1.34,3.76,3.26,3.76c.64,0,1.09-.09,1.31-.2v-2.75h-1.69v-1.19h3.12v4.85Z"/>
<path class="cls-27" d="M110.86,29.09v-8.24h-.03l-1.63,.89-.33-1.08,2.18-1.16h1.25v9.59h-1.45Z"/>
<path class="cls-27" d="M122.79,29.09h-1.48v-4.43h-4v4.43h-1.48v-9.76h1.48v4.03h4v-4.03h1.48v9.76Z"/>
</g>

<g id="T1D">
<rect class="cls-11" x="177.16" y="1.5" width="43.92" height="45.09"/>
<rect class="cls-29" x="185.04" y="16.18" width="28.16" height="16.24" rx="2.07" ry="2.07"/>
<path class="cls-27" d="M194.73,20.61h-2.65v8.49h-1.49v-8.49h-2.64v-1.26h6.77v1.26Z"/>
<path class="cls-27" d="M198.06,29.09v-8.24h-.03l-1.63,.89-.33-1.08,2.18-1.16h1.25v9.59h-1.45Z"/>
<path class="cls-27" d="M203.03,19.47c.7-.11,1.57-.2,2.5-.2,4.17,0,5.04,2.56,5.04,4.73h0c0,1.78-.55,3.07-1.41,3.9-.88,.85-2.28,1.29-4.01,1.29-.87,0-1.58-.04-2.12-.11v-9.59Zm1.48,8.47c.26,.04,.62,.05,.96,.05,2.2,.01,3.53-1.27,3.53-3.96,0-2.37-1.23-3.59-3.34-3.59-.51,0-.9,.05-1.15,.1v7.4Z"/>
</g>

<g id="T1C">
<rect class="cls-5" x="221.08" y="1.5" width="43.92" height="45.09"/>
<rect class="cls-28" x="229.66" y="16.1" width="28.16" height="16.24" rx="2.07" ry="2.07"/>
<path class="cls-27" d="M239.78,20.61h-2.65v8.49h-1.49v-8.49h-2.64v-1.26h6.77v1.26Z"/>
<path class="cls-27" d="M243.11,29.09v-8.24h-.03l-1.63,.89-.33-1.08,2.18-1.16h1.25v9.59h-1.45Z"/>
<path class="cls-27" d="M254.41,28.82c-.41,.2-1.24,.41-2.3,.41-2.73,0-4.56-1.8-4.56-4.91,0-3.31,2.1-5.12,4.81-5.12,1.13,0,1.82,.24,2.09,.38l-.32,1.21c-.41-.19-.99-.36-1.71-.36-1.89,0-3.3,1.27-3.3,3.81,0,2.4,1.25,3.73,3.28,3.73,.67,0,1.34-.14,1.77-.34l.26,1.19Z"/>
</g>

<g id="T1B">
<rect class="cls-3" x="265" y="1.5" width="43.92" height="45.09"/>
<rect class="cls-24" x="272.88" y="16.11" width="28.16" height="16.24" rx="2.07" ry="2.07"/>
<path class="cls-27" d="M283.44,20.61h-2.65v8.49h-1.49v-8.49h-2.64v-1.26h6.77v1.26Z"/>
<path class="cls-27" d="M286.77,29.09v-8.24h-.03l-1.63,.89-.33-1.08,2.18-1.16h1.25v9.59h-1.45Z"/>
<path class="cls-27" d="M295.91,23.87c1.02,.25,1.96,1.07,1.96,2.43,0,1.03-.49,1.63-.84,1.96-.65,.62-1.73,.92-3.34,.92-.87,0-1.52-.06-1.95-.11v-9.59c.55-.11,1.42-.2,2.29-.2,2.98,0,3.5,1.45,3.5,2.43,0,.93-.59,1.75-1.61,2.13v.04Zm-1.79-.46c1.18,0,1.92-.65,1.92-1.55,0-1.17-.95-1.47-1.87-1.47-.49,0-.78,.04-.96,.08v2.94h.91Zm-.91,4.59c.22,.04,.51,.05,.9,.05,1.19,0,2.21-.5,2.21-1.78s-1.11-1.76-2.25-1.76h-.86v3.49Z"/>
</g>

<g id="T1A">
<rect class="cls-13" x="308.91" y="1.5" width="43.92" height="45.09"/>
<rect class="cls-26" x="317.39" y="16.18" width="28.16" height="16.24" rx="2.07" ry="2.07"/>
<path class="cls-27" d="M327.45,20.61h-2.65v8.49h-1.49v-8.49h-2.64v-1.26h6.77v1.26Z"/>
<path class="cls-27" d="M330.78,29.09v-8.24h-.03l-1.63,.89-.33-1.08,2.18-1.16h1.25v9.59h-1.45Z"/>
<path class="cls-27" d="M342.85,29.09h-1.56l-.88-2.87h-3l-.84,2.87h-1.52l3-9.75h1.82l3,9.75Zm-2.69-4l-.77-2.55c-.18-.64-.35-1.33-.49-1.92h-.03c-.14,.6-.29,1.31-.46,1.91l-.78,2.56h2.52Z"/>
</g>

<g id="J1B">
<rect class="cls-19" x="352.83" y="1.5" width="43.92" height="45.09"/>
<rect class="cls-25" x="360.27" y="16.16" width="28.16" height="16.24" rx="2.07" ry="2.07"/>
<path class="cls-27" d="M368.73,25.85c0,2.57-1.23,3.38-2.94,3.38-.45,0-.97-.08-1.28-.19l.18-1.22c.24,.09,.58,.15,.97,.15,.99,0,1.59-.43,1.59-2.17v-6.47h1.48v6.52Z"/>
<path class="cls-27" d="M376.1,29.09h-5.86v-.9l1.01-1.06c2.04-2.08,3.16-3.4,3.16-4.84,0-.93-.45-1.75-1.67-1.75-.74,0-1.41,.4-1.86,.75l-.45-1.06c.59-.48,1.52-.89,2.6-.89,1.98,0,2.85,1.34,2.85,2.79,0,1.76-1.2,3.22-2.88,4.91l-.79,.8v.03h3.88v1.22Z"/>
<path class="cls-27" d="M382.04,23.87c1.02,.25,1.96,1.07,1.96,2.43,0,1.03-.49,1.63-.84,1.96-.65,.62-1.73,.92-3.34,.92-.87,0-1.52-.06-1.95-.11v-9.59c.55-.11,1.42-.2,2.29-.2,2.98,0,3.5,1.45,3.5,2.43,0,.93-.59,1.75-1.61,2.13v.04Zm-1.79-.46c1.18,0,1.92-.65,1.92-1.55,0-1.17-.95-1.47-1.87-1.47-.49,0-.78,.04-.96,.08v2.94h.91Zm-.91,4.59c.22,.04,.51,.05,.9,.05,1.19,0,2.21-.5,2.21-1.78s-1.11-1.76-2.25-1.76h-.86v3.49Z"/>
</g>

<g id="J1A">
<rect class="cls-11" x="396.74" y="1.5" width="43.92" height="45.09"/>
<rect class="cls-29" x="404.62" y="16.39" width="28.16" height="16.24" rx="2.07" ry="2.07"/>
<path class="cls-27" d="M412.64,25.85c0,2.57-1.23,3.38-2.94,3.38-.45,0-.97-.08-1.28-.19l.18-1.22c.24,.09,.58,.15,.97,.15,.99,0,1.59-.43,1.59-2.17v-6.47h1.48v6.52Z"/>
<path class="cls-27" d="M420.02,29.09h-5.86v-.9l1.01-1.06c2.04-2.08,3.16-3.4,3.16-4.84,0-.93-.45-1.75-1.67-1.75-.74,0-1.41,.4-1.86,.75l-.45-1.06c.59-.48,1.52-.89,2.6-.89,1.98,0,2.85,1.34,2.85,2.79,0,1.76-1.2,3.22-2.88,4.91l-.79,.8v.03h3.88v1.22Z"/>
<path class="cls-27" d="M428.89,29.09h-1.56l-.88-2.87h-3l-.84,2.87h-1.52l3-9.75h1.82l3,9.75Zm-2.69-4l-.77-2.55c-.18-.64-.35-1.33-.49-1.92h-.03c-.14,.6-.29,1.31-.46,1.91l-.78,2.56h2.52Z"/>
</g>

<g id="G2B">
<rect class="cls-13" x="369.62" y="87.12" width="56.16" height="38.56"/>
<rect class="cls-26" x="383.53" y="99.72" width="28.16" height="16.24" rx="2.07" ry="2.07"/>
<path class="cls-27" d="M393.94,112.32c-.55,.22-1.63,.5-2.79,.5-4.24,0-4.78-3.35-4.78-4.91,0-3.16,2.09-5.05,5.02-5.05,.96,0,1.79,.17,2.28,.41l-.33,1.21c-.46-.2-1.05-.37-1.95-.37-2.01,0-3.46,1.26-3.46,3.73s1.34,3.76,3.26,3.76c.64,0,1.09-.09,1.31-.2v-2.75h-1.69v-1.19h3.12v4.85Z"/>
<path class="cls-27" d="M401.15,112.72h-5.86v-.9l1.01-1.06c2.04-2.08,3.16-3.4,3.16-4.84,0-.93-.45-1.75-1.67-1.75-.74,0-1.41,.4-1.86,.75l-.45-1.06c.59-.48,1.52-.89,2.6-.89,1.98,0,2.85,1.34,2.85,2.79,0,1.76-1.2,3.22-2.88,4.91l-.79,.8v.03h3.88v1.22Z"/>
<path class="cls-27" d="M407.09,107.49c1.02,.25,1.96,1.07,1.96,2.43,0,1.03-.49,1.63-.84,1.96-.65,.62-1.73,.92-3.34,.92-.87,0-1.52-.06-1.95-.11v-9.59c.55-.11,1.42-.2,2.29-.2,2.98,0,3.5,1.45,3.5,2.43,0,.93-.59,1.75-1.61,2.13v.04Zm-1.79-.46c1.18,0,1.92-.65,1.92-1.55,0-1.17-.95-1.47-1.87-1.47-.49,0-.78,.04-.96,.08v2.94h.91Zm-.91,4.59c.22,.04,.51,.05,.9,.05,1.19,0,2.21-.5,2.21-1.78s-1.11-1.76-2.25-1.76h-.86v3.49Z"/>
</g>

<g id="G2A">
<rect class="cls-4" x="369.62" y="125.68" width="56.16" height="38.57"/>
<rect class="cls-24" x="383.62" y="137.32" width="28.16" height="16.24" rx="2.07" ry="2.07"/>
<path class="cls-27" d="M393.56,149.92c-.55,.22-1.63,.5-2.79,.5-4.24,0-4.78-3.35-4.78-4.91,0-3.16,2.09-5.05,5.02-5.05,.96,0,1.79,.17,2.28,.41l-.33,1.21c-.46-.2-1.05-.37-1.95-.37-2.01,0-3.46,1.26-3.46,3.73s1.34,3.76,3.26,3.76c.64,0,1.09-.09,1.31-.2v-2.75h-1.69v-1.19h3.12v4.85Z"/>
<path class="cls-27" d="M400.77,150.31h-5.86v-.9l1.01-1.06c2.04-2.08,3.16-3.4,3.16-4.84,0-.93-.45-1.75-1.67-1.75-.74,0-1.41,.4-1.86,.75l-.45-1.06c.59-.48,1.52-.89,2.6-.89,1.98,0,2.85,1.34,2.85,2.79,0,1.76-1.2,3.22-2.88,4.91l-.79,.8v.03h3.88v1.22Z"/>
<path class="cls-27" d="M409.65,150.31h-1.56l-.88-2.87h-3l-.84,2.87h-1.52l3-9.75h1.82l3,9.75Zm-2.69-4l-.77-2.55c-.18-.64-.35-1.33-.49-1.92h-.03c-.14,.6-.29,1.31-.46,1.91l-.78,2.56h2.52Z"/>
</g>

<g id="G1G">
<rect class="cls-8" x="45.59" y="204.77" width="78.35" height="45.09"/>
<rect class="cls-29" x="70.35" y="219.76" width="28.16" height="16.24" rx="2.07" ry="2.07"/>
<path class="cls-27" d="M79.89,232.28c-.55,.22-1.63,.5-2.79,.5-4.24,0-4.78-3.35-4.78-4.91,0-3.16,2.09-5.05,5.02-5.05,.96,0,1.79,.17,2.28,.41l-.33,1.21c-.46-.2-1.05-.37-1.95-.37-2.01,0-3.46,1.26-3.46,3.73s1.34,3.76,3.26,3.76c.64,0,1.09-.09,1.31-.2v-2.75h-1.69v-1.19h3.12v4.85Z"/>
<path class="cls-27" d="M83.9,232.67v-8.24h-.03l-1.63,.89-.33-1.08,2.18-1.16h1.25v9.59h-1.45Z"/>
<path class="cls-27" d="M95.91,232.28c-.55,.22-1.63,.5-2.79,.5-4.24,0-4.78-3.35-4.78-4.91,0-3.16,2.09-5.05,5.02-5.05,.96,0,1.79,.17,2.28,.41l-.33,1.21c-.46-.2-1.05-.37-1.95-.37-2.01,0-3.46,1.26-3.46,3.73s1.34,3.76,3.26,3.76c.64,0,1.09-.09,1.31-.2v-2.75h-1.69v-1.19h3.12v4.85Z"/>
</g>


<polygon class="cls-9" points="1.5 1.5 1.5 63.55 45.41 63.55 45.41 87.26 85.95 87.12 115.03 87.26 115.03 164.25 85.95 164.25 45.41 164.25 45.41 187.97 45.41 249.86 440.66 249.86 440.66 1.5 1.5 1.5"/>

</svg>