<svg xmlns="http://www.w3.org/2000/svg" xmlns:xlink="http://www.w3.org/1999/xlink" viewBox="0 0 663.62 317.54"><defs>
<style>
.cls-1,
.cls-11,
.cls-12,
.cls-13,
.cls-14,
.cls-18,
.cls-2{fill:none;}
.cls-2{stroke:#ed0;stroke-width:2px;}
.cls-14,
.cls-2,
.cls-23{stroke-miterlimit:10;}
.cls-3{fill:#f3ed66;}
.cls-12,
.cls-13,
.cls-18,
.cls-19,
.cls-21,
.cls-3{stroke:#5e5c5c;}
.cls-13,
.cls-18,
.cls-3{stroke-linecap:round;}
.cls-12,
.cls-13,
.cls-18,
.cls-21,
.cls-3{stroke-linejoin:round;}
.cls-4{fill:#f7d15f;}
.cls-21,
.cls-5{fill:#f3f9f8;}
.cls-6{fill:#77bde9;}
.cls-7{fill:#fbedcc;}
.cls-8{fill:#f2bfd7;}
.cls-9{fill:#fef9e4;}
.cls-10{fill:#76b5de;}
.cls-11{stroke:#231815;}
.cls-14{stroke-width:1.28px;stroke:url(#新規パターンスウォッチ_2);}
.cls-15{fill:#d2a834;}
.cls-16{fill:#e2cb61;}
.cls-17{fill:#b2ce65;}
.cls-18{stroke-width:3px;}
.cls-19,.cls-23{fill:#fff;}.cls-19{stroke-width:1.25px;}
.cls-20{fill:#f3fafe;}
.cls-22{fill:#cccdce;}
.cls-23{font-size:11.62px;stroke:#fff;stroke-width:0.25px;font-family:KozGoPr6N-Regular-83pv-RKSJ-H, Kozuka Gothic Pr6N;}
</style>
<g id="pta">
<text class="cls-23" transform="translate(336.08 167.52)">PTA</text>
<rect class="cls-22" x="333.61" y="157.29" width="24.89" height="11.62" rx="3.11"/>
</g>
<pattern id="新規パターンスウォッチ_2" data-name="新規パターンスウォッチ 2" width="136" height="183.16" patternTransform="translate(-34.62 -380.31) scale(1.28)" patternUnits="userSpaceOnUse" viewBox="0 0 136 183.16">
<rect class="cls-1" width="136" height="183.16"/>
<line class="cls-2" y2="183.16"/>
<line class="cls-2" x1="17" x2="17" y2="183.16"/>
<line class="cls-2" x1="34" x2="34" y2="183.16"/>
<line class="cls-2" x1="51" x2="51" y2="183.16"/>
<line class="cls-2" x1="68" x2="68" y2="183.16"/>
<line class="cls-2" x1="85" x2="85" y2="183.16"/>
<line class="cls-2" x1="102" x2="102" y2="183.16"/>
<line class="cls-2" x1="119" x2="119" y2="183.16"/>
<line class="cls-2" x1="136" x2="136" y2="183.16"/>
</pattern></defs><g id="レイヤー_2" data-name="レイヤー 2">
<g id="map"><g id="_1F" data-name="1F">
<rect class="cls-3" x="159.21" y="165.59" width="131.08" height="53.99"/>
<polygon class="cls-4" points="662.12 172.46 662.12 315.72 455.88 315.72 455.88 172.46 483.06 172.46 608.84 172.46 662.12 172.46"/>
<rect class="cls-5" x="483.06" y="158.64" width="125.78" height="13.82"/>
<rect class="cls-5" x="450.22" y="76.84" width="30.07" height="27.28"/>
<rect class="cls-5" x="440.96" y="304.53" width="14.89" height="11.51"/>
<rect class="cls-6" x="440.96" y="275.29" width="14.89" height="29.24"/>
<rect class="cls-7" x="440.96" y="259.88" width="14.89" height="15.42"/>
<rect class="cls-8" x="440.96" y="230.64" width="14.89" height="29.24"/>
<rect class="cls-7" x="440.96" y="172.46" width="14.89" height="58.18"/>
<path class="cls-5" d="M426.27,9.87c43.94,24.65,22.13,58.44,22.13,58.44H411.57v38.08H323.23V68.31H301.29C289.42,17.33,382.69-14.56,426.27,9.87Z"/>
<polygon class="cls-5" points="440.96 304.53 440.96 316.04 265.18 316.04 265.18 277.96 265.18 254.31 265.18 230.64 385.5 230.64 385.5 254.31 426.06 254.31 426.06 275.29 440.96 275.29 440.96 304.53"/><polygon class="cls-7" points="440.96 259.88 440.96 275.29 426.06 275.29 426.06 254.31 426.06 230.64 440.96 230.64 440.96 259.88"/><polygon class="cls-9" points="161.33 130.05 161.33 141.37 155.63 141.37 149.93 141.37 149.93 130.05 133.34 130.05 133.34 153.71 133.34 230.64 133.34 242.47 133.34 254.31 145.26 254.31 167.05 254.31 184.33 254.31 224.75 254.31 265.18 254.31 265.18 277.96 219.14 277.96 190.37 277.96 161.94 277.96 133.34 277.96 86.02 277.96 68.65 277.96 68.65 293.28 86.02 293.28 86.02 300.49 65.73 300.49 45.45 300.49 45.45 293.28 62.82 293.28 62.82 277.96 45.45 277.96 45.45 254.31 86.02 254.31 86.02 230.64 86.02 153.71 86.02 130.05 45.45 130.05 1.5 130.05 1.5 106.39 16.54 106.39 71.16 106.39 86.2 106.39 145.27 106.39 212.27 106.39 279.28 106.39 323.23 106.39 411.57 106.39 440.96 106.39 440.96 153.71 426.06 153.71 426.06 130.05 385.5 130.05 385.5 153.71 280.2 153.71 280.2 130.05 262.92 130.05 241.13 130.05 206.77 130.05 172.41 130.05 161.33 130.05"/><rect class="cls-5" x="411.57" y="68.31" width="29.39" height="38.08"/><rect class="cls-5" x="385.5" y="230.64" width="40.57" height="23.67"/><rect class="cls-5" x="385.5" y="130.05" width="40.57" height="23.66"/><polygon class="cls-5" points="323.23 68.31 323.23 106.39 279.28 106.39 279.28 68.31 301.29 68.31 323.23 68.31"/><rect class="cls-8" x="262.92" y="130.05" width="17.28" height="23.66"/><rect class="cls-5" x="212.27" y="68.31" width="67.01" height="38.08"/><polygon class="cls-5" points="265.18 277.96 265.18 316.04 219.14 316.04 219.14 315.95 219.14 277.96 265.18 277.96"/><rect class="cls-5" x="224.75" y="230.64" width="40.43" height="23.67"/><rect class="cls-6" x="241.13" y="130.05" width="21.79" height="23.66"/><rect class="cls-5" x="206.77" y="130.05" width="34.36" height="23.66"/><rect class="cls-5" x="184.33" y="230.64" width="40.43" height="23.67"/><rect class="cls-5" x="190.37" y="277.96" width="28.77" height="37.99"/><rect class="cls-5" x="145.27" y="68.31" width="67" height="38.08"/><rect class="cls-5" x="172.41" y="130.05" width="34.36" height="23.66"/><polygon class="cls-5" points="190.37 277.96 190.37 315.95 161.94 315.95 161.94 315.72 161.94 277.96 190.37 277.96"/><rect class="cls-6" x="167.05" y="230.64" width="17.28" height="23.67"/><polygon class="cls-8" points="172.41 130.05 172.41 153.71 155.63 153.71 155.63 141.37 161.33 141.37 161.33 130.05 172.41 130.05"/><polygon class="cls-8" points="167.05 230.64 167.05 254.31 145.26 254.31 145.26 242.47 145.26 230.64 167.05 230.64"/><rect class="cls-5" x="133.34" y="277.96" width="28.6" height="37.76"/><polygon class="cls-10" points="155.63 141.37 155.63 153.71 133.34 153.71 133.34 130.05 149.93 130.05 149.93 141.37 155.63 141.37"/><rect class="cls-5" x="86.2" y="68.31" width="59.07" height="38.08"/><rect class="cls-5" x="133.34" y="242.47" width="11.92" height="11.84"/><rect class="cls-5" x="133.34" y="230.64" width="11.92" height="11.83"/><polygon class="cls-5" points="133.34 277.96 133.34 315.72 86.02 315.72 86.02 300.49 86.02 293.28 86.02 277.96 133.34 277.96"/><rect class="cls-5" x="71.16" y="68.31" width="15.03" height="38.08"/><rect class="cls-5" x="65.73" y="300.49" width="20.29" height="15.23"/><rect class="cls-5" x="68.65" y="277.96" width="17.37" height="15.32"/><rect class="cls-5" x="45.45" y="230.64" width="40.57" height="23.67"/><rect class="cls-5" x="45.45" y="130.05" width="40.57" height="23.66"/><rect class="cls-5" x="16.54" y="68.31" width="54.63" height="38.08"/><polygon class="cls-5" points="65.73 315.72 65.73 316.04 45.45 316.04 45.45 300.49 65.73 300.49 65.73 315.72"/><rect class="cls-5" x="45.45" y="277.96" width="17.37" height="15.32"/><rect class="cls-5" x="1.5" y="68.31" width="15.03" height="38.08"/><polyline class="cls-11" points="1.5 106.39 1.5 130.05 45.45 130.05"/><path class="cls-11" d="M441,68.31h7.44s21.81-33.79-22.13-58.44c-43.58-24.43-136.85,7.46-125,58.44"/><polyline class="cls-11" points="426.06 153.71 440.96 153.71 440.96 106.39"/><line class="cls-11" x1="280.2" y1="153.71" x2="385.5" y2="153.71"/><line class="cls-11" x1="133.34" y1="230.64" x2="133.34" y2="153.71"/><line class="cls-11" x1="455.88" y1="172.46" x2="455.85" y2="172.46"/><polyline class="cls-11" points="455.85 316.04 662.12 316.04 662.12 315.72"/><line class="cls-11" x1="65.73" y1="316.04" x2="219.14" y2="316.04"/><line class="cls-11" x1="45.45" y1="293.28" x2="45.45" y2="300.49"/><line class="cls-11" x1="45.45" y1="254.31" x2="45.45" y2="277.96"/><line class="cls-11" x1="86.02" y1="153.71" x2="86.02" y2="230.64"/><polyline class="cls-11" points="1.5 106.39 1.5 68.31 16.54 68.31"/><line class="cls-12" x1="16.54" y1="106.39" x2="1.5" y2="106.39"/><line class="cls-11" x1="16.54" y1="68.31" x2="71.16" y2="68.31"/><polyline class="cls-12" points="71.16 106.39 16.54 106.39 16.54 68.31"/><line class="cls-11" x1="71.16" y1="68.31" x2="86.2" y2="68.31"/><polyline class="cls-12" points="86.2 106.39 71.16 106.39 71.16 68.31"/><line class="cls-11" x1="86.2" y1="68.31" x2="145.27" y2="68.31"/><polyline class="cls-12" points="145.27 106.39 86.2 106.39 86.2 68.31"/><line class="cls-11" x1="145.27" y1="68.31" x2="212.27" y2="68.31"/><polyline class="cls-12" points="212.27 106.39 145.27 106.39 145.27 68.31"/><line class="cls-11" x1="212.27" y1="68.31" x2="279.28" y2="68.31"/><polyline class="cls-12" points="279.28 106.39 212.27 106.39 212.27 68.31"/><polyline class="cls-12" points="301.29 68.31 323.23 68.31 323.23 106.39 279.28 106.39 279.28 68.31"/><line class="cls-11" x1="279.28" y1="68.31" x2="301.29" y2="68.31"/><line class="cls-11" x1="440.96" y1="68.31" x2="440.96" y2="106.39"/><polyline class="cls-12" points="440.96 106.39 411.57 106.39 411.57 68.31 440.96 68.31"/><polyline class="cls-12" points="133.34 153.71 133.34 130.05 149.93 130.05"/><line class="cls-11" x1="155.63" y1="153.71" x2="133.34" y2="153.71"/><line class="cls-12" x1="155.63" y1="153.71" x2="155.63" y2="141.37"/><line class="cls-11" x1="172.41" y1="153.71" x2="155.63" y2="153.71"/><line class="cls-12" x1="161.33" y1="130.05" x2="172.41" y2="130.05"/><polyline class="cls-12" points="172.41 153.71 172.41 130.05 206.77 130.05"/><line class="cls-11" x1="206.77" y1="153.71" x2="172.41" y2="153.71"/><polyline class="cls-12" points="206.77 153.71 206.77 130.05 241.13 130.05"/><line class="cls-11" x1="241.13" y1="153.71" x2="206.77" y2="153.71"/><polyline class="cls-12" points="241.13 153.71 241.13 130.05 262.92 130.05"/><line class="cls-11" x1="262.92" y1="153.71" x2="241.13" y2="153.71"/><polyline class="cls-12" points="262.92 153.71 262.92 130.05 280.2 130.05 280.2 153.71"/><line class="cls-11" x1="280.2" y1="153.71" x2="262.92" y2="153.71"/><polyline class="cls-12" points="385.5 153.71 385.5 130.05 426.06 130.05 426.06 153.71"/><line class="cls-11" x1="426.06" y1="153.71" x2="385.5" y2="153.71"/><line class="cls-12" x1="323.23" y1="106.39" x2="411.57" y2="106.39"/><polyline class="cls-13" points="155.63 130.05 161.33 130.05 161.33 141.37 155.63 141.37 149.93 141.37 149.93 130.05"/><line class="cls-11" x1="133.34" y1="230.64" x2="145.26" y2="230.64"/><line class="cls-12" x1="133.34" y1="242.47" x2="133.34" y2="230.64"/><polyline class="cls-12" points="145.26 254.31 133.34 254.31 133.34 242.47 145.26 242.47"/><line class="cls-11" x1="145.26" y1="230.64" x2="167.05" y2="230.64"/><polyline class="cls-12" points="167.05 254.31 145.26 254.31 145.26 242.47 145.26 230.64"/><line class="cls-11" x1="167.05" y1="230.64" x2="184.33" y2="230.64"/><polyline class="cls-12" points="184.33 254.31 167.05 254.31 167.05 230.64"/><line class="cls-11" x1="184.33" y1="230.64" x2="224.75" y2="230.64"/><polyline class="cls-12" points="224.75 254.31 184.33 254.31 184.33 230.64"/><line class="cls-11" x1="224.75" y1="230.64" x2="265.18" y2="230.64"/><polyline class="cls-12" points="265.18 254.31 224.75 254.31 224.75 230.64"/><line class="cls-11" x1="265.18" y1="230.64" x2="385.5" y2="230.64"/><polyline class="cls-12" points="265.18 277.96 265.18 254.31 265.18 230.64"/><line class="cls-11" x1="440.96" y1="316.04" x2="265.18" y2="316.04"/><line class="cls-11" x1="385.5" y1="230.64" x2="426.06" y2="230.64"/><polyline class="cls-12" points="426.06 254.31 385.5 254.31 385.5 230.64"/><line class="cls-11" x1="426.06" y1="230.64" x2="440.96" y2="230.64"/><polyline class="cls-12" points="440.96 275.29 426.06 275.29 426.06 254.31 426.06 230.64"/><line class="cls-12" x1="455.85" y1="230.64" x2="455.85" y2="259.88"/><line class="cls-12" x1="455.85" y1="275.29" x2="455.85" y2="304.53"/><line class="cls-12" x1="440.96" y1="304.53" x2="440.96" y2="275.29"/><polyline class="cls-14" points="455.88 172.46 455.88 315.72 662.12 315.72"/><line class="cls-11" x1="483.06" y1="172.46" x2="455.88" y2="172.46"/><polyline class="cls-11" points="662.12 315.72 662.12 172.46 608.84 172.46"/><polyline class="cls-12" points="86.02 230.64 86.02 254.31 45.45 254.31"/><polyline class="cls-11" points="45.45 254.31 45.45 230.64 86.02 230.64"/><rect class="cls-12" x="45.45" y="130.05" width="40.57" height="23.66"/><line class="cls-12" x1="65.73" y1="316.04" x2="65.73" y2="315.72"/><polyline class="cls-11" points="45.45 300.49 45.45 316.04 65.73 316.04"/><line class="cls-12" x1="65.73" y1="300.49" x2="45.45" y2="300.49"/><polyline class="cls-12" points="86.02 315.72 65.73 315.72 65.73 300.49 86.02 300.49"/><line class="cls-11" x1="45.45" y1="293.28" x2="45.45" y2="277.96"/><polyline class="cls-12" points="45.45 277.96 62.82 277.96 62.82 293.28 45.45 293.28"/><polyline class="cls-12" points="86.02 293.28 68.65 293.28 68.65 277.96 86.02 277.96"/><polyline class="cls-12" points="133.34 315.72 86.02 315.72 86.02 300.49 86.02 293.28 86.02 277.96 133.34 277.96"/><polyline class="cls-12" points="161.94 315.72 133.34 315.72 133.34 277.96 161.94 277.96"/><polyline class="cls-12" points="190.37 315.95 161.94 315.95 161.94 315.72 161.94 277.96 190.37 277.96"/><polyline class="cls-12" points="219.14 315.95 190.37 315.95 190.37 277.96 219.14 277.96"/><polyline class="cls-12" points="219.14 316.04 219.14 315.95 219.14 277.96 265.18 277.96 265.18 316.04"/><line class="cls-11" x1="265.18" y1="316.04" x2="219.14" y2="316.04"/><rect class="cls-12" x="450.22" y="76.84" width="30.07" height="27.28"/><line class="cls-11" x1="483.06" y1="172.46" x2="608.84" y2="172.46"/><polyline class="cls-12" points="608.84 172.46 608.84 158.64 483.06 158.64 483.06 172.46"/><polyline class="cls-12" points="455.85 172.46 455.85 230.64 440.96 230.64"/><polyline class="cls-11" points="440.96 230.64 440.96 172.46 455.85 172.46"/><polyline class="cls-12" points="455.85 316.04 455.85 304.53 440.96 304.53 440.96 316.04"/><line class="cls-11" x1="440.96" y1="316.04" x2="455.85" y2="316.04"/><polyline class="cls-12" points="440.96 275.29 455.85 275.29 455.85 259.88 440.96 259.88"/><rect class="cls-15" x="517.51" y="225.99" width="80.53" height="33.79" rx="3.37"/><rect class="cls-16" x="184.59" y="175.69" width="80.53" height="33.79" rx="3.37"/><rect class="cls-17" x="150.37" y="130.5" width="10.51" height="10.42"/><path class="cls-18" d="M45.45,230.64V316H662.12V172.46H441v58.18H133.34V153.71H441V68.31h7.45s21.8-33.79-22.14-58.43c-43.57-24.43-136.85,7.46-125,58.43H1.5v61.74h44v23.66H86v76.93Z"/><line class="cls-19" x1="426.06" y1="242.47" x2="398.58" y2="242.47"/><line class="cls-19" x1="398.58" y1="230.85" x2="398.58" y2="254.08"/><line class="cls-19" x1="401.64" y1="230.85" x2="401.64" y2="254.08"/><line class="cls-19" x1="404.69" y1="230.85" x2="404.69" y2="254.08"/><line class="cls-19" x1="407.74" y1="230.85" x2="407.74" y2="254.08"/><line class="cls-19" x1="410.8" y1="230.85" x2="410.8" y2="254.08"/><line class="cls-19" x1="413.85" y1="230.85" x2="413.85" y2="254.08"/><line class="cls-19" x1="416.9" y1="230.85" x2="416.9" y2="254.08"/><line class="cls-19" x1="419.95" y1="230.85" x2="419.95" y2="254.08"/><line class="cls-19" x1="423.01" y1="230.85" x2="423.01" y2="254.08"/><line class="cls-19" x1="426.21" y1="141.12" x2="398.73" y2="141.12"/><line class="cls-19" x1="398.74" y1="130.05" x2="398.74" y2="153.27"/><line class="cls-19" x1="401.79" y1="130.05" x2="401.79" y2="153.27"/><line class="cls-19" x1="404.84" y1="130.05" x2="404.84" y2="153.27"/><line class="cls-19" x1="407.89" y1="130.05" x2="407.89" y2="153.27"/><line class="cls-19" x1="410.95" y1="130.05" x2="410.95" y2="153.27"/><line class="cls-19" x1="414" y1="130.05" x2="414" y2="153.27"/><line class="cls-19" x1="417.05" y1="130.05" x2="417.05" y2="153.27"/><line class="cls-19" x1="420.11" y1="130.05" x2="420.11" y2="153.27"/><line class="cls-19" x1="423.16" y1="130.05" x2="423.16" y2="153.27"/><line class="cls-19" x1="86.02" y1="141.85" x2="58.54" y2="141.85"/><line class="cls-19" x1="58.54" y1="130.23" x2="58.54" y2="153.46"/><line class="cls-19" x1="61.59" y1="130.23" x2="61.59" y2="153.46"/><line class="cls-19" x1="64.64" y1="130.23" x2="64.64" y2="153.46"/><line class="cls-19" x1="67.7" y1="130.23" x2="67.7" y2="153.46"/><line class="cls-19" x1="70.75" y1="130.23" x2="70.75" y2="153.46"/><line class="cls-19" x1="73.8" y1="130.23" x2="73.8" y2="153.46"/><line class="cls-19" x1="76.86" y1="130.23" x2="76.86" y2="153.46"/><line class="cls-19" x1="79.91" y1="130.23" x2="79.91" y2="153.46"/><line class="cls-19" x1="82.96" y1="130.23" x2="82.96" y2="153.46"/><line class="cls-19" x1="86.02" y1="243" x2="58.54" y2="243"/><line class="cls-19" x1="58.54" y1="231.39" x2="58.54" y2="254.61"/><line class="cls-19" x1="61.59" y1="231.39" x2="61.59" y2="254.61"/><line class="cls-19" x1="64.64" y1="231.39" x2="64.64" y2="254.61"/><line class="cls-19" x1="67.7" y1="231.39" x2="67.7" y2="254.61"/><line class="cls-19" x1="70.75" y1="231.39" x2="70.75" y2="254.61"/><line class="cls-19" x1="73.8" y1="231.39" x2="73.8" y2="254.61"/><line class="cls-19" x1="76.86" y1="231.39" x2="76.86" y2="254.61"/><line class="cls-19" x1="79.91" y1="231.39" x2="79.91" y2="254.61"/><line class="cls-19" x1="82.96" y1="231.39" x2="82.96" y2="254.61"/><polyline class="cls-18" points="448.4 68.31 480.29 68.61 466.46 32.41"/><polyline class="cls-18" points="490.86 32.41 534.85 142.89 662.12 132.44 662.12 172.46"/><line class="cls-13" x1="440.95" y1="230.64" x2="440.95" y2="259.88"/><circle class="cls-5" cx="252.14" cy="138.13" r="2.02"/><rect class="cls-5" x="250.12" y="140.8" width="4.04" height="6.85" rx="0.89"/><circle class="cls-5" cx="271.56" cy="138.13" r="2.02"/><path class="cls-5" d="M273.62,147.65H269.5a.83.83,0,0,1-.82-.94l.76-5.2a.83.83,0,0,1,.82-.71h2.6a.83.83,0,0,1,.82.71l.76,5.2A.83.83,0,0,1,273.62,147.65Z"/><circle class="cls-5" cx="143.38" cy="138.13" r="2.02"/><rect class="cls-5" x="141.36" y="140.8" width="4.04" height="6.85" rx="0.89"/><circle class="cls-5" cx="165.89" cy="138.13" r="2.02"/><path class="cls-5" d="M168,147.65h-4.12a.82.82,0,0,1-.82-.94l.75-5.2a.83.83,0,0,1,.82-.71h2.61a.83.83,0,0,1,.82.71l.76,5.2A.83.83,0,0,1,168,147.65Z"/><circle class="cls-5" cx="156.24" cy="238.75" r="2.02"/><path class="cls-5" d="M158.3,248.28h-4.12a.83.83,0,0,1-.82-.95l.76-5.2a.83.83,0,0,1,.82-.7h2.6a.83.83,0,0,1,.82.7l.76,5.2A.83.83,0,0,1,158.3,248.28Z"/><circle class="cls-5" cx="448.5" cy="241.82" r="2.02"/><path class="cls-5" d="M450.56,251.35h-4.12a.83.83,0,0,1-.82-.95l.76-5.19a.83.83,0,0,1,.82-.71h2.6a.83.83,0,0,1,.82.71l.76,5.19A.83.83,0,0,1,450.56,251.35Z"/><circle class="cls-5" cx="448.4" cy="286.16" r="2.02"/><rect class="cls-5" x="446.38" y="288.83" width="4.04" height="6.85" rx="0.89"/><circle class="cls-5" cx="176.15" cy="238.75" r="2.02"/><rect class="cls-5" x="174.13" y="241.43" width="4.04" height="6.85" rx="0.89"/><path class="cls-20" d="M199.91,191.47c0,.18-.18.3-.46.32-.53,4.65-1.56,8.35-7.43,10.24a5,5,0,0,0-1-1.33c5.5-1.62,6.42-4.91,6.79-9.42Zm5.64,8.07c0,.76.18.93,1.13.93h3.22c.94,0,1.12-.58,1.22-4a4.11,4.11,0,0,0,1.42.67c-.18,3.78-.59,4.79-2.53,4.79h-3.47c-2,0-2.56-.53-2.56-2.4V191H191.49v-1.47H201v-9l2,.14c0,.16-.14.28-.46.32v8.54h9.71V191h-6.53a1.6,1.6,0,0,0-.21.05Zm-10.66-17.81a25,25,0,0,1,2.93,5.78l-1.5.6a23.51,23.51,0,0,0-2.83-5.85Zm15.86.51a.55.55,0,0,1-.53.23,43.7,43.7,0,0,1-3.08,5.62s-1.29-.58-1.29-.58a37.4,37.4,0,0,0,3-6Z"/><path class="cls-20" d="M226.21,184.77a.6.6,0,0,1-.58.37c-.83,7.16-3.22,13.39-7,13.39-1.93,0-3.68-1.93-3.68-5.57a10.09,10.09,0,0,1,10.35-10.14c6.65,0,9.53,4.21,9.53,8.69,0,5.48-3.17,8.13-8.74,9.42a9.42,9.42,0,0,0-1-1.41c5.29-1,8-3.59,8-7.94,0-3.79-2.44-7.25-7.83-7.25-.23,0-.48,0-.69,0Zm-2.21-.3a8.48,8.48,0,0,0-7.53,8.45c0,2.46,1.06,4,2.17,4C221.42,196.92,223.42,190.78,224,184.47Z"/><path class="cls-20" d="M240.38,184.17v5.53c0,3.59-.25,8.79-2.09,12.35a5.32,5.32,0,0,0-1.29-.87c1.75-3.38,1.88-8.08,1.88-11.48v-6.95h8.86v-2.17l2,.14c0,.16-.14.28-.46.32v1.71h9v1.42Zm6.49,6.93.85.32a.36.36,0,0,1-.14.26,17.52,17.52,0,0,1-2.35,6.67c1.75,1.49,4.17,1.86,7.16,1.88.74,0,5.41,0,6.4,0a4.43,4.43,0,0,0-.56,1.41h-5.91c-3.38,0-6-.46-7.91-2.14a10.23,10.23,0,0,1-3.18,2.55,5.17,5.17,0,0,0-1-1.08,9.57,9.57,0,0,0,3.22-2.51,12.07,12.07,0,0,1-2-4.12l1.18-.44a10.33,10.33,0,0,0,1.58,3.43,14.32,14.32,0,0,0,1.82-4.9h-2.92l-.46.72-1.27-.4c1.09-1.68,2.37-3.82,3.27-5.38h-3.4V186h4.35l.27-.09.94.46a.94.94,0,0,1-.2.27c-.65,1.13-1.68,2.81-2.69,4.47h2.66Zm11.48,1.17h-4.46v4.1h4v1.36h-9.18v-1.36h3.72v-4.1h-4.18v-1.35h4.18v-3.16c-1.17.19-2.37.35-3.49.46a5.78,5.78,0,0,0-.44-1.12,36.36,36.36,0,0,0,7.87-1.68l1.24,1.17a.33.33,0,0,1-.23.07.62.62,0,0,1-.18,0,22.61,22.61,0,0,1-2.9.78.53.53,0,0,1-.39.16v3.34h4.46Z"/><path class="cls-20" d="M544.2,237.31h-5.57a13.58,13.58,0,0,0,6.26,3.71,5.86,5.86,0,0,0-1,1.22,14.77,14.77,0,0,1-4.42-2.37v3H529v-3a16.43,16.43,0,0,1-4.37,2.5,7.08,7.08,0,0,0-1.06-1.06,14.53,14.53,0,0,0,6-4h-5.52V236h6.53a10.13,10.13,0,0,0,.9-1.65c-1.86.11-3.77.18-5.52.2a4.91,4.91,0,0,0-.33-1.22,100.69,100.69,0,0,0,15.08-1.22l1.15,1.2a.33.33,0,0,1-.23.07.63.63,0,0,1-.21,0,69.83,69.83,0,0,1-7.87.9.67.67,0,0,1-.46.14,13.74,13.74,0,0,1-.81,1.63H544.2Zm-1.13,6.88v7.39c0,1.7-.92,1.75-4.41,1.75a7.09,7.09,0,0,0-.53-1.36c.83,0,1.58.05,2.14.05,1.12,0,1.28,0,1.28-.44v-6.1H526.9v7.85h-1.5v-9.14Zm-4.48,7.14h-7.41v1.15h-1.41V247h8.82Zm-.35-12.59a11.69,11.69,0,0,1-1.22-1.43h-5.5a14.29,14.29,0,0,1-1.24,1.43Zm-.23,3.08v-2h-7.55v2Zm-.85,6.22h-6v2.23h6Z"/><path class="cls-20" d="M549.67,242.77a28.72,28.72,0,0,1-2.53,2.9,9.11,9.11,0,0,0-.85-1.31A29.25,29.25,0,0,0,551.7,237l1.73.67a.53.53,0,0,1-.53.21c-.51.94-1.11,1.91-1.75,2.85l.43.14c0,.14-.18.25-.46.27v12.18h-1.45Zm3.3-10.15a.43.43,0,0,1-.51.18,37.09,37.09,0,0,1-5.22,5.18,8.22,8.22,0,0,0-.88-1.13,24.54,24.54,0,0,0,4.9-4.92Zm2.55,15.14a9.08,9.08,0,0,1-2.44,5l-1.17-.9a8,8,0,0,0,2.3-4.48Zm-2.65-13.3h6.54v-2.55l2,.13c0,.17-.14.28-.46.33v2.09h6.88v1.43h-6.88v2.41h5.89v6.35H554V238.3h5.46v-2.41h-6.54Zm4.9,8.88v-3.72h-2.48v3.72Zm.37,7.69c0,.5.16.6,1,.6h2.81c.66,0,.78-.26.85-2.28a4.91,4.91,0,0,0,1.31.55c-.14,2.46-.58,3-2,3H559c-1.8,0-2.23-.39-2.23-1.91v-3.48l1.88.12c0,.16-.14.28-.46.32Zm.32-6a15.1,15.1,0,0,1,3.82,2.35l-1,1A15.39,15.39,0,0,0,557.5,246Zm3.13-1.73v-3.72H559v3.72Zm1.22-3.72v3.72h2.65v-3.72Zm3.91,12.74a15.39,15.39,0,0,0-3.54-4.74l1.22-.62a15,15,0,0,1,3.64,4.65Z"/><path class="cls-20" d="M585.41,234.62h5.06v3.66H589v-2.35h-8.6v2.35h-1.39v-2l-1,.9a24.49,24.49,0,0,0-3.38-3.52,25.36,25.36,0,0,1-3.27,4.46H574v-2.28l1.77.12c0,.16-.14.25-.44.3v1.86h2.81v7.5h-5.59V250c1.08-.23,2.25-.5,3.4-.78a21.31,21.31,0,0,0-1.7-2.12l1.18-.64a20.92,20.92,0,0,1,3.72,5.22l-1.24.74a15.08,15.08,0,0,0-1.15-2.07c-2.39.64-4.86,1.29-6.42,1.68a.39.39,0,0,1-.28.34l-.69-1.68c.51-.09,1.11-.23,1.75-.37V238.37a9.66,9.66,0,0,1-.71.72,4.19,4.19,0,0,0-1.11-1,20.8,20.8,0,0,0,4.61-6.21l1.84.27a.45.45,0,0,1-.44.3,26.69,26.69,0,0,1,3.7,3.64v-1.5h4.86v-2.69l2,.14c0,.16-.16.27-.46.3Zm-8.66,4.72h-4.16v1.89h4.16Zm-4.16,5.06h4.16v-2h-4.16ZM582,244v2h7.71v7.18h-1.45v-1H582v1.1h-1.42V238.17h8.24V244Zm5.37-4.48H582v3.17h5.37Zm.89,7.82H582v3.52h6.26Z"/><rect class="cls-21" x="328.08" y="154.93" width="37.45" height="15.64"/>
</g></g></g></svg>