<?xml version="1.0" encoding="UTF-8"?>
<svg id="_レイヤー_2" xmlns="http://www.w3.org/2000/svg" viewBox="0 0 443.38 249.54">
<defs>
<style>
.cls-1,
.cls-2,
.cls-3,
.cls-4,
.cls-5,
.cls-6,
.cls-7,
.cls-8,
.cls-9,
.cls-10,
.cls-11,
.cls-12,
.cls-13,
.cls-14,
.cls-15,
.cls-16,
.cls-17,
.cls-18,
.cls-19,
.cls-20,
.cls-21,
.cls-22,
.cls-23,
.cls-24,
.cls-25,
.cls-26,
.cls-27{stroke:#5e5c5c;}
.cls-1,
.cls-3,
.cls-4,
.cls-5,
.cls-6,
.cls-8,
.cls-11,
.cls-15,
.cls-16,
.cls-26{stroke-linejoin:round;}
.cls-1,
.cls-5,
.cls-6,
.cls-18,
.cls-28,
.cls-26{fill:#f3f9f8;}
.cls-2,
.cls-29,
.cls-25{fill:#fff;}
.cls-3,
.cls-22{fill:#f2bfd7;}
.cls-30{fill:#dbcc5c;}
.cls-31{fill:#fef9e4;}
.cls-32{fill:#46976c;}
.cls-4{stroke-width:.94px;}
.cls-4,.cls-8{fill:#bbe1e7;}
.cls-33{fill:#daa86e;}
.cls-5,
.cls-16,
.cls-19,
.cls-20,
.cls-25{stroke-width:1px;}
.cls-34,
.cls-20{fill:#5e5c5c;}
.cls-6{stroke-width:1.07px;}
.cls-7{fill:#b2e0f8;}
.cls-8,
.cls-11{stroke-width:3px;}
.cls-9,
.cls-23{fill:#69bd83;}
.cls-10{fill:#666;}
.cls-10,
.cls-12,
.cls-14,
.cls-17,
.cls-23,
.cls-24{stroke-miterlimit:10;}
.cls-11,
.cls-16,
.cls-19,
.cls-21{fill:none;}
.cls-12{fill:#f7ca88;}
.cls-13,
.cls-15{fill:#76b5de;}
.cls-14{fill:#e3776a;}
.cls-35{fill:#8ab7d6;}
.cls-17{fill:#ed8182;}
.cls-36{fill:#4d4e4f;}
.cls-24{fill:#f7ea67;}
.cls-37{fill:#c35f5a;}
.cls-26{stroke-width:.88px;}
.cls-27{fill:#b2ce65;}
</style>
</defs>
<g id="map">
<g id="_3F">
<polygon class="cls-31" points="1.36 1.36 1.36 62.95 45.39 62.95 45.39 86.35 86.05 86.35 89.43 86.35 89.43 162.91 86.05 162.91 45.39 162.91 45.39 186.46 45.39 247.9 441.74 247.9 441.74 1.36 1.36 1.36"/>
<rect class="cls-1" x="266.07" y="203.28" width="87.73" height="44.76"/>
<rect class="cls-18" x="353.8" y="203.28" width="88.08" height="44.76"/>
<rect class="cls-18" x="133.61" y="163.05" width="11.95" height="11.77"/>
<rect class="cls-1" x="133.61" y="174.82" width="11.95" height="11.77"/>
<rect class="cls-27" x="162.4" y="163.05" width="17.01" height="23.55"/>
<rect class="cls-22" x="145.39" y="163.05" width="17.01" height="23.55"/>
<rect class="cls-6" x="179.41" y="163.05" width="38.95" height="23.55"/>
<rect class="cls-26" x="306.71" y="163.05" width="40.99" height="23.55"/>
<polygon class="cls-9" points="426.95 124.77 370.5 124.63 370.5 162.91 426.95 163.05 426.95 124.77"/>
<polygon class="cls-7" points="426.95 86.63 370.5 86.49 370.5 124.63 426.95 124.77 426.95 86.63"/>
<rect class="cls-13" x="364.32" y="62.8" width="21.84" height="23.55"/>
<rect class="cls-15" x="133.61" y="62.94" width="22.02" height="23.55"/>
<rect class="cls-3" x="155.63" y="62.94" width="17.14" height="23.55"/>
<rect class="cls-4" x="265.59" y="62.8" width="81.97" height="23.55"/>
<rect class="cls-7" x="1.5" y="1.5" width="44.04" height="44.76"/>
<rect class="cls-18" x="45.54" y="1.5" width="44.04" height="44.76"/>
<rect class="cls-23" x="89.57" y="1.5" width="44.04" height="44.76"/>
<rect class="cls-18" x="45.54" y="203.28" width="44.04" height="44.76"/>
<rect class="cls-18" x="89.57" y="203.28" width="44.04" height="44.76"/>
<rect class="cls-18" x="133.61" y="203.28" width="44.04" height="44.76"/>
<rect class="cls-1" x="177.65" y="203.28" width="44.04" height="44.76"/>
<rect class="cls-7" x="133.61" y="1.5" width="44.04" height="44.76"/>
<rect class="cls-14" x="177.65" y="1.5" width="44.04" height="44.76"/>
<rect class="cls-12" x="221.55" y="1.36" width="44.04" height="44.76"/>
<rect class="cls-24" x="265.59" y="1.36" width="44.04" height="44.76"/>
<rect class="cls-7" x="309.62" y="1.36" width="44.04" height="44.76"/>
<rect class="cls-10" x="353.66" y="1.36" width="44.04" height="44.76"/>
<rect class="cls-35" x="141.93" y="15.82" width="28.16" height="16.24" rx="2.07" ry="2.07"/>
<rect class="cls-17" x="397.7" y="1.36" width="44.04" height="44.76"/>
<rect class="cls-22" x="347.56" y="62.8" width="16.77" height="23.55"/>
<polygon class="cls-22" points="364.41 186.62 347.64 186.62 347.68 163.05 364.45 163.05 364.41 186.62"/>
<rect class="cls-13" x="364.44" y="163.05" width="21.84" height="23.58"/>
<rect class="cls-36" x="361.6" y="15.75" width="28.16" height="16.24" rx="2.07" ry="2.07"/>
<rect class="cls-33" x="229.49" y="15.74" width="28.16" height="16.24" rx="2.07" ry="2.07"/>
<rect class="cls-37" x="185.27" y="15.62" width="28.16" height="16.24" rx="2.07" ry="2.07"/>
<rect class="cls-8" x="108.83" y="86.49" width="261.81" height="76.56"/>
<rect class="cls-32" x="385.09" y="135.3" width="28.16" height="16.24" rx="2.07" ry="2.07"/>
<rect class="cls-30" x="273.53" y="15.75" width="28.16" height="16.24" rx="2.07" ry="2.07"/>
<rect class="cls-35" x="384.46" y="98.73" width="28.16" height="16.24" rx="2.07" ry="2.07"/>
<rect class="cls-37" x="406.09" y="15.75" width="28.16" height="16.24" rx="2.07" ry="2.07"/>
<rect class="cls-35" x="317.56" y="15.75" width="28.16" height="16.24" rx="2.07" ry="2.07"/>
<rect class="cls-32" x="97.02" y="15.43" width="28.16" height="16.24" rx="2.07" ry="2.07"/>
<rect class="cls-35" x="10.24" y="15.76" width="28.16" height="16.24" rx="2.07" ry="2.07"/>
<g><path class="cls-29" d="M327,28.31c-.54,.21-1.61,.49-2.76,.49-4.2,0-4.73-3.33-4.73-4.87,0-3.14,2.07-5.01,4.97-5.01,.95,0,1.78,.16,2.26,.4l-.33,1.2c-.46-.2-1.04-.37-1.93-.37-1.99,0-3.42,1.25-3.42,3.71s1.33,3.73,3.23,3.73c.63,0,1.08-.09,1.29-.2v-2.73h-1.67v-1.18h3.09v4.82Z"/>
<path class="cls-29" d="M334.13,28.7h-5.81v-.9l1-1.05c2.02-2.06,3.13-3.38,3.13-4.81,0-.92-.44-1.73-1.65-1.73-.74,0-1.39,.39-1.84,.75l-.44-1.05c.58-.48,1.51-.89,2.57-.89,1.96,0,2.83,1.33,2.83,2.77,0,1.75-1.19,3.2-2.85,4.87l-.79,.8v.03h3.84v1.21Z"/>
<path class="cls-29" d="M342.85,28.31c-.54,.21-1.61,.49-2.76,.49-4.2,0-4.73-3.33-4.73-4.87,0-3.14,2.07-5.01,4.97-5.01,.95,0,1.78,.16,2.26,.4l-.33,1.2c-.46-.2-1.04-.37-1.93-.37-1.99,0-3.42,1.25-3.42,3.71s1.33,3.73,3.23,3.73c.63,0,1.08-.09,1.29-.2v-2.73h-1.67v-1.18h3.09v4.82Z"/>
</g>
<g>
<path class="cls-29" d="M371.96,28.31c-.55,.21-1.63,.49-2.8,.49-4.25,0-4.79-3.33-4.79-4.87,0-3.14,2.09-5.01,5.04-5.01,.96,0,1.8,.16,2.29,.4l-.33,1.2c-.46-.2-1.05-.37-1.95-.37-2.02,0-3.47,1.25-3.47,3.71s1.35,3.73,3.28,3.73c.64,0,1.09-.09,1.31-.2v-2.73h-1.7v-1.18h3.13v4.82Z"/>
<path class="cls-29" d="M379.19,28.7h-5.88v-.9l1.02-1.05c2.04-2.06,3.17-3.38,3.17-4.81,0-.92-.45-1.73-1.67-1.73-.75,0-1.41,.39-1.86,.75l-.45-1.05c.59-.48,1.53-.89,2.61-.89,1.99,0,2.87,1.33,2.87,2.77,0,1.75-1.21,3.2-2.89,4.87l-.8,.8v.03h3.89v1.21Z"/>
<path class="cls-29" d="M380.96,28.7v-9.68h5.11v1.23h-3.62v2.98h3.37v1.21h-3.37v4.25h-1.49Z"/>
</g>
<g>
<path class="cls-29" d="M394.88,147.87c-.55,.21-1.63,.49-2.8,.49-4.25,0-4.79-3.33-4.79-4.87,0-3.14,2.09-5.01,5.04-5.01,.96,0,1.8,.16,2.29,.4l-.33,1.2c-.46-.2-1.05-.37-1.95-.37-2.02,0-3.47,1.25-3.47,3.71s1.35,3.73,3.28,3.73c.64,0,1.09-.09,1.31-.2v-2.73h-1.7v-1.18h3.13v4.82Z"/>
<path class="cls-29" d="M402.11,148.26h-5.88v-.9l1.02-1.05c2.04-2.06,3.17-3.38,3.17-4.81,0-.92-.45-1.73-1.67-1.73-.75,0-1.41,.39-1.86,.75l-.45-1.05c.59-.48,1.53-.89,2.61-.89,1.99,0,2.87,1.33,2.87,2.77,0,1.75-1.21,3.2-2.89,4.87l-.8,.8v.03h3.89v1.21Z"/>
<path class="cls-29" d="M410.24,147.99c-.41,.2-1.25,.4-2.31,.4-2.74,0-4.57-1.78-4.57-4.87,0-3.29,2.11-5.08,4.83-5.08,1.13,0,1.82,.24,2.09,.38l-.32,1.2c-.41-.19-.99-.35-1.72-.35-1.9,0-3.31,1.26-3.31,3.78,0,2.38,1.26,3.71,3.29,3.71,.67,0,1.35-.14,1.77-.34l.26,1.18Z"/>
</g>
<g>
<path class="cls-29" d="M416.26,28.31c-.55,.21-1.63,.49-2.8,.49-4.25,0-4.79-3.33-4.79-4.87,0-3.14,2.09-5.01,5.04-5.01,.96,0,1.8,.16,2.29,.4l-.33,1.2c-.46-.2-1.05-.37-1.95-.37-2.02,0-3.47,1.25-3.47,3.71s1.35,3.73,3.28,3.73c.64,0,1.09-.09,1.31-.2v-2.73h-1.7v-1.18h3.13v4.82Z"/>
<path class="cls-29" d="M424.26,28.7h-5.88v-.9l1.02-1.05c2.04-2.06,3.17-3.38,3.17-4.81,0-.92-.45-1.73-1.67-1.73-.75,0-1.41,.39-1.86,.75l-.45-1.05c.59-.48,1.53-.89,2.61-.89,1.99,0,2.87,1.33,2.87,2.77,0,1.75-1.21,3.2-2.89,4.87l-.8,.8v.03h3.89v1.21Z"/>
<path class="cls-29" d="M431.38,28.7h-5.36v-9.68h5.14v1.23h-3.65v2.8h3.44v1.21h-3.44v3.21h3.87v1.23Z"/>
</g>
<g>
<path class="cls-29" d="M394.25,111.29c-.55,.21-1.63,.49-2.8,.49-4.25,0-4.79-3.33-4.79-4.87,0-3.14,2.09-5.01,5.04-5.01,.96,0,1.8,.16,2.29,.4l-.33,1.2c-.46-.2-1.05-.37-1.95-.37-2.02,0-3.47,1.25-3.47,3.71s1.35,3.73,3.28,3.73c.64,0,1.09-.09,1.31-.2v-2.73h-1.7v-1.18h3.13v4.82Z"/>
<path class="cls-29" d="M401.48,111.68h-5.88v-.9l1.02-1.05c2.04-2.06,3.17-3.38,3.17-4.81,0-.92-.45-1.73-1.67-1.73-.75,0-1.41,.39-1.86,.75l-.45-1.05c.59-.48,1.53-.89,2.61-.89,1.99,0,2.87,1.33,2.87,2.77,0,1.75-1.21,3.2-2.89,4.87l-.8,.8v.03h3.89v1.21Z"/>
<path class="cls-29" d="M403.25,102.13c.71-.11,1.58-.2,2.51-.2,4.19,0,5.06,2.54,5.06,4.69h0c0,1.77-.55,3.05-1.41,3.87-.89,.85-2.29,1.28-4.02,1.28-.87,0-1.58-.04-2.13-.11v-9.52Zm1.49,8.41c.26,.04,.62,.05,.96,.05,2.21,.01,3.55-1.27,3.55-3.93,0-2.35-1.23-3.57-3.35-3.57-.51,0-.9,.05-1.16,.1v7.35Z"/>
</g>
<g>
<path class="cls-29" d="M239.67,20.28h-2.66v8.42h-1.49v-8.42h-2.65v-1.25h6.8v1.25Z"/>
<path class="cls-29" d="M246.22,28.7h-5.88v-.9l1.02-1.05c2.04-2.06,3.17-3.38,3.17-4.81,0-.92-.45-1.73-1.67-1.73-.75,0-1.41,.39-1.86,.75l-.45-1.05c.59-.48,1.53-.89,2.61-.89,1.99,0,2.87,1.33,2.87,2.77,0,1.75-1.21,3.2-2.89,4.87l-.8,.8v.03h3.89v1.21Z"/>
<path class="cls-29" d="M252.17,23.51c1.03,.25,1.97,1.06,1.97,2.42,0,1.02-.49,1.62-.85,1.95-.66,.62-1.73,.91-3.35,.91-.87,0-1.53-.06-1.95-.11v-9.52c.55-.11,1.43-.2,2.3-.2,2.99,0,3.51,1.44,3.51,2.42s-.59,1.73-1.62,2.11v.04Zm-1.8-.46c1.18,0,1.93-.65,1.93-1.54,0-1.16-.95-1.45-1.88-1.45-.49,0-.78,.04-.96,.08v2.92h.91Zm-.91,4.55c.22,.04,.51,.05,.9,.05,1.2,0,2.22-.49,2.22-1.77s-1.12-1.75-2.26-1.75h-.86v3.47Z"/>
</g>
<g>
<path class="cls-29" d="M107.67,28.31c-.55,.21-1.63,.49-2.8,.49-4.25,0-4.79-3.33-4.79-4.87,0-3.14,2.09-5.01,5.04-5.01,.96,0,1.8,.16,2.29,.4l-.33,1.2c-.46-.2-1.05-.37-1.95-.37-2.02,0-3.47,1.25-3.47,3.71s1.35,3.73,3.28,3.73c.64,0,1.09-.09,1.31-.2v-2.73h-1.7v-1.18h3.13v4.82Z"/>
<path class="cls-29" d="M112.7,23.57c1.09,.2,2.03,1.08,2.03,2.42,0,1.56-1.21,2.86-3.41,2.86-1,0-1.9-.29-2.36-.59l.38-1.13c.35,.23,1.12,.54,1.92,.54,1.37,0,1.94-.89,1.94-1.73,0-1.23-1.05-1.8-2.2-1.8h-.66v-1.05h.63c.83,0,1.93-.49,1.93-1.54,0-.75-.49-1.34-1.52-1.34-.68,0-1.35,.32-1.72,.57l-.37-1.05c.49-.35,1.43-.7,2.43-.7,1.81,0,2.7,1.08,2.7,2.29,0,.97-.62,1.82-1.72,2.23v.03Z"/>
<path class="cls-29" d="M116.67,28.7v-9.68h5.11v1.23h-3.62v2.98h3.37v1.21h-3.37v4.25h-1.49Z"/>
</g>
<g>
<path class="cls-29" d="M195.28,20.28h-2.66v8.42h-1.49v-8.42h-2.65v-1.25h6.8v1.25Z"/>
<path class="cls-29" d="M201.83,28.7h-5.88v-.9l1.02-1.05c2.04-2.06,3.17-3.38,3.17-4.81,0-.92-.45-1.73-1.67-1.73-.75,0-1.41,.39-1.86,.75l-.45-1.05c.59-.48,1.53-.89,2.61-.89,1.99,0,2.87,1.33,2.87,2.77,0,1.75-1.21,3.2-2.89,4.87l-.8,.8v.03h3.89v1.21Z"/>
<path class="cls-29" d="M209.96,28.44c-.41,.2-1.25,.4-2.31,.4-2.74,0-4.57-1.78-4.57-4.87,0-3.29,2.11-5.08,4.83-5.08,1.13,0,1.82,.24,2.09,.38l-.32,1.2c-.41-.19-.99-.35-1.72-.35-1.9,0-3.31,1.26-3.31,3.78,0,2.38,1.26,3.71,3.29,3.71,.67,0,1.35-.14,1.77-.34l.26,1.18Z"/>
</g>
<g>
<path class="cls-29" d="M151.43,28.31c-.55,.21-1.63,.49-2.8,.49-4.25,0-4.79-3.33-4.79-4.87,0-3.14,2.09-5.01,5.04-5.01,.96,0,1.8,.16,2.29,.4l-.33,1.2c-.46-.2-1.05-.37-1.95-.37-2.02,0-3.47,1.25-3.47,3.71s1.35,3.73,3.28,3.73c.64,0,1.09-.09,1.31-.2v-2.73h-1.7v-1.18h3.13v4.82Z"/>
<path class="cls-29" d="M155.45,28.7v-8.18h-.03l-1.63,.89-.33-1.08,2.18-1.15h1.26v9.52h-1.45Z"/>
<path class="cls-29" d="M167.56,28.7h-1.57l-.89-2.85h-3.01l-.85,2.85h-1.53l3.01-9.68h1.83l3.01,9.68Zm-2.7-3.97l-.77-2.53c-.18-.63-.35-1.32-.49-1.91h-.03c-.14,.59-.3,1.3-.46,1.9l-.78,2.54h2.53Z"/>
</g>
<g>
<path class="cls-29" d="M283.16,20.28h-2.66v8.42h-1.49v-8.42h-2.65v-1.25h6.8v1.25Z"/>
<path class="cls-29" d="M289.71,28.7h-5.88v-.9l1.02-1.05c2.04-2.06,3.17-3.38,3.17-4.81,0-.92-.45-1.73-1.67-1.73-.75,0-1.41,.39-1.86,.75l-.45-1.05c.59-.48,1.53-.89,2.61-.89,1.99,0,2.87,1.33,2.87,2.77,0,1.75-1.21,3.2-2.89,4.87l-.8,.8v.03h3.89v1.21Z"/>
<path class="cls-29" d="M298.61,28.7h-1.57l-.89-2.85h-3.01l-.85,2.85h-1.53l3.01-9.68h1.83l3.01,9.68Zm-2.7-3.97l-.77-2.53c-.18-.63-.35-1.32-.49-1.91h-.03c-.14,.59-.3,1.3-.46,1.9l-.78,2.54h2.53Z"/>
</g>
<g>
<polyline class="cls-1" points="86.18 163.05 45.54 163.05 45.54 186.6 86.18 186.6 86.18 163.05"/>
<line class="cls-2" x1="58.03" y1="163.05" x2="58.03" y2="186.6"/>
<line class="cls-2" x1="61.16" y1="163.05" x2="61.16" y2="186.6"/>
<line class="cls-2" x1="64.29" y1="163.05" x2="64.29" y2="186.6"/>
<line class="cls-2" x1="67.41" y1="163.05" x2="67.41" y2="186.6"/>
<line class="cls-2" x1="70.54" y1="163.05" x2="70.54" y2="186.6"/>
<line class="cls-2" x1="73.67" y1="163.05" x2="73.67" y2="186.6"/>
<line class="cls-2" x1="76.8" y1="163.05" x2="76.8" y2="186.6"/>
<line class="cls-2" x1="83.06" y1="163.05" x2="83.06" y2="186.6"/>
</g>
<g>
<rect class="cls-5" x="45.54" y="63.09" width="40.65" height="23.45"/>
<line class="cls-20" x1="58.03" y1="63.09" x2="58.03" y2="86.54"/>
<line class="cls-20" x1="61.16" y1="63.09" x2="61.16" y2="86.54"/>
<line class="cls-20" x1="64.29" y1="63.09" x2="64.29" y2="86.54"/>
<line class="cls-20" x1="67.41" y1="63.09" x2="67.41" y2="86.54"/>
<line class="cls-20" x1="70.54" y1="63.09" x2="70.54" y2="86.54"/>
<line class="cls-20" x1="73.67" y1="63.09" x2="73.67" y2="86.54"/>
<line class="cls-20" x1="76.8" y1="63.09" x2="76.8" y2="86.54"/>
<line class="cls-20" x1="79.93" y1="63.09" x2="79.93" y2="86.54"/>
<line class="cls-20" x1="83.06" y1="63.09" x2="83.06" y2="86.54"/>
</g>
<g>
<polygon class="cls-5" points="426.95 62.8 426.95 86.63 386.16 86.35 386.16 62.77 426.95 62.8"/>
<line class="cls-19" x1="398.79" y1="62.91" x2="398.79" y2="86.36"/>
<line class="cls-19" x1="401.92" y1="62.91" x2="401.92" y2="86.36"/>
<line class="cls-19" x1="405.05" y1="62.91" x2="405.05" y2="86.36"/>
<line class="cls-19" x1="408.18" y1="62.91" x2="408.18" y2="86.36"/>
<line class="cls-19" x1="411.31" y1="62.91" x2="411.31" y2="86.36"/>
<line class="cls-19" x1="414.43" y1="62.91" x2="414.43" y2="86.36"/>
<line class="cls-19" x1="417.56" y1="62.91" x2="417.56" y2="86.36"/>
<line class="cls-19" x1="420.69" y1="62.91" x2="420.69" y2="86.36"/>
<line class="cls-19" x1="423.82" y1="62.91" x2="423.82" y2="86.36"/>
</g>
<g>
<polyline class="cls-5" points="426.95 163.1 386.3 163.1 386.3 186.55 426.95 186.55 426.95 163.1"/>
<line class="cls-25" x1="398.79" y1="163.1" x2="398.79" y2="186.55"/>
<line class="cls-25" x1="401.92" y1="163.1" x2="401.92" y2="186.55"/>
<line class="cls-25" x1="405.05" y1="163.1" x2="405.05" y2="186.55"/>
<line class="cls-25" x1="408.18" y1="163.1" x2="408.18" y2="186.55"/>
<line class="cls-25" x1="411.31" y1="163.1" x2="411.31" y2="186.55"/>
<line class="cls-25" x1="414.43" y1="163.1" x2="414.43" y2="186.55"/>
<line class="cls-25" x1="417.56" y1="163.1" x2="417.56" y2="186.55"/>
<line class="cls-25" x1="420.69" y1="163.1" x2="420.69" y2="186.55"/>
<line class="cls-25" x1="423.82" y1="163.1" x2="423.82" y2="186.55"/>
</g>
<polygon class="cls-11" points="1.5 1.5 1.5 63.09 45.53 63.09 45.54 86.49 86.19 86.49 89.57 86.49 89.57 163.05 86.19 163.05 45.54 163.05 45.54 186.6 45.54 248.04 441.88 248.04 441.88 1.5 1.5 1.5"/>
<line class="cls-19" x1="426.95" y1="74.57" x2="398.72" y2="74.57"/>
<line class="cls-19" x1="398.72" y1="174.84" x2="426.95" y2="174.84"/>
<line class="cls-16" x1="58.03" y1="74.82" x2="86.18" y2="74.82"/>
<line class="cls-21" x1="58.03" y1="174.82" x2="86.18" y2="174.82"/>
<g>
<circle class="cls-28" cx="356.05" cy="171.07" r="2.02"/>
<path class="cls-28" d="M358.11,180.6h-4.12c-.51,0-.89-.45-.82-.95l.76-5.19c.06-.41,.41-.71,.82-.71h2.6c.41,0,.76,.3,.82,.71l.76,5.19c.07,.5-.31,.95-.82,.95Z"/>
</g>
<g>
<circle class="cls-28" cx="153.85" cy="171.07" r="2.02"/>
<path class="cls-28" d="M155.91,180.6h-4.12c-.51,0-.89-.45-.82-.95l.76-5.19c.06-.41,.41-.71,.82-.71h2.6c.41,0,.76,.3,.82,.71l.76,5.19c.07,.5-.31,.95-.82,.95Z"/>
</g>
<g>
<circle class="cls-28" cx="164.29" cy="70.36" r="2.02"/>
<path class="cls-28" d="M166.35,79.89h-4.12c-.51,0-.89-.45-.82-.95l.76-5.19c.06-.41,.41-.71,.82-.71h2.6c.41,0,.76,.3,.82,.71l.76,5.19c.07,.5-.31,.95-.82,.95Z"/>
</g>
<g>
<circle class="cls-28" cx="375.36" cy="171.07" r="2.02"/><rect class="cls-28" x="373.35" y="173.74" width="4.04" height="6.85" rx=".89" ry=".89"/>
</g>
<g>
<circle class="cls-28" cx="375.15" cy="70.56" r="2.02"/>
<rect class="cls-28" x="373.13" y="73.23" width="4.04" height="6.85" rx=".89" ry=".89"/>
</g>
<g>
<circle class="cls-28" cx="144.34" cy="70.36" r="2.02"/>
<rect class="cls-28" x="142.32" y="73.04" width="4.04" height="6.85" rx=".89" ry=".89"/>
</g>
<g>
<circle class="cls-28" cx="355.94" cy="70.82" r="2.02"/>
<path class="cls-28" d="M358,80.35h-4.12c-.51,0-.89-.45-.82-.95l.76-5.19c.06-.41,.41-.71,.82-.71h2.6c.41,0,.76,.3,.82,.71l.76,5.19c.07,.5-.31,.95-.82,.95Z"/>
</g>
<g>
<path class="cls-29" d="M20.14,28.31c-.55,.21-1.63,.49-2.8,.49-4.25,0-4.79-3.33-4.79-4.87,0-3.14,2.09-5.01,5.04-5.01,.96,0,1.8,.16,2.29,.4l-.33,1.2c-.46-.2-1.05-.37-1.95-.37-2.02,0-3.47,1.25-3.47,3.71s1.35,3.73,3.28,3.73c.64,0,1.09-.09,1.31-.2v-2.73h-1.7v-1.18h3.13v4.82Z"/>
<path class="cls-29" d="M25.18,23.57c1.09,.2,2.03,1.08,2.03,2.42,0,1.56-1.21,2.86-3.41,2.86-1,0-1.9-.29-2.36-.59l.38-1.13c.35,.23,1.12,.54,1.92,.54,1.37,0,1.94-.89,1.94-1.73,0-1.23-1.05-1.8-2.2-1.8h-.66v-1.05h.63c.83,0,1.93-.49,1.93-1.54,0-.75-.49-1.34-1.52-1.34-.68,0-1.35,.32-1.72,.57l-.37-1.05c.49-.35,1.43-.7,2.43-.7,1.81,0,2.7,1.08,2.7,2.29,0,.97-.62,1.82-1.72,2.23v.03Z"/>
<path class="cls-29" d="M35.9,28.7h-1.73l-2.72-4.57-.82,1.01v3.55h-1.48v-9.68h1.48v4.54h.04c.23-.38,.48-.73,.71-1.08l2.53-3.47h1.81l-3.22,4.12,3.42,5.55Z"/>
</g>
<g>
<path class="cls-34" d="M53.47,22.7c.11,.37,.27,.72,.46,1.03,.37-.23,.8-.54,1.08-.78l.34,.31s-.07,.03-.12,.02c-.28,.22-.74,.52-1.12,.73,.4,.55,.93,.97,1.58,1.18-.08,.07-.19,.22-.25,.32-1.14-.42-1.87-1.44-2.27-2.7-.18,.13-.39,.27-.61,.38,.77,.55,1.09,1.26,1.09,1.82,0,.6-.38,.97-.96,.97-.14,0-.32,0-.5-.02,0-.09-.04-.25-.1-.35,.21,.02,.4,.02,.52,.02,.16,0,.29-.01,.41-.11,.16-.1,.24-.31,.24-.56,0-.16-.03-.33-.11-.51-.61,.53-1.57,1.06-2.37,1.32-.04-.09-.12-.23-.2-.32,.84-.23,1.87-.77,2.43-1.31-.07-.12-.16-.23-.26-.34-.48,.36-1.23,.74-1.81,.95-.04-.09-.13-.22-.2-.29,.59-.17,1.36-.53,1.81-.87-.09-.08-.2-.17-.32-.26-.42,.19-.87,.36-1.29,.48-.04-.07-.13-.22-.19-.28,.68-.17,1.46-.47,2.01-.84h-1.32v-.33h3.18v.33h-1.17Zm-2.36-.9v.75h-.36v-1.09h2.12v-.66l.49,.03s-.04,.07-.11,.07v.55h2.15v1.09h-.38v-.75h-3.91Z"/>
<path class="cls-34" d="M56.82,21.67v1.33c0,.87-.06,2.12-.51,2.98-.07-.07-.22-.18-.31-.21,.42-.82,.46-1.95,.46-2.77v-1.68h2.14v-.52l.49,.03s-.03,.07-.11,.08v.41h2.17v.34h-4.33Zm1.57,1.67l.21,.08s-.02,.04-.03,.06c-.11,.67-.3,1.19-.57,1.61,.42,.36,1,.45,1.73,.46,.18,0,1.3,0,1.54,0-.06,.08-.12,.24-.13,.34h-1.43c-.82,0-1.45-.11-1.91-.52-.22,.26-.48,.47-.77,.62-.05-.08-.17-.21-.24-.26,.3-.14,.56-.34,.78-.6-.19-.25-.35-.57-.47-.99l.28-.11c.09,.34,.23,.62,.38,.83,.2-.32,.34-.71,.44-1.18h-.71l-.11,.17-.3-.09c.26-.41,.57-.92,.79-1.3h-.82v-.32h1.05l.07-.02,.23,.11s-.03,.04-.05,.07c-.16,.27-.41,.68-.65,1.08h.71Zm2.77,.27h-1.08v.99h.96v.33h-2.22v-.33h.9v-.99h-1.01v-.33h1.01v-.76c-.28,.04-.57,.08-.84,.11-.02-.08-.07-.19-.11-.27,.67-.08,1.48-.23,1.9-.41l.3,.28s-.03,.02-.06,.02c-.01,0-.03,0-.04,0-.18,.07-.43,.13-.7,.19-.02,.02-.04,.03-.09,.04v.81h1.08v.33Z"/>
<path class="cls-34" d="M63.01,23.14c.17,.16,.71,.73,.82,.87l-.22,.29c-.1-.17-.38-.53-.59-.79v2.46h-.37v-2.6c-.24,.61-.56,1.23-.87,1.59-.04-.1-.13-.25-.19-.33,.36-.41,.76-1.16,.99-1.82h-.91v-.36h.98v-.97c-.29,.08-.59,.15-.88,.21-.02-.07-.07-.19-.12-.27,.68-.15,1.47-.38,1.89-.61l.33,.28s-.03,.02-.11,.02c-.2,.09-.47,.18-.76,.27v1.07h.81v.36h-.81v.34Zm3.81,1.15l-.86,.15v1.53h-.38v-1.46l-1.79,.31-.06-.35,1.85-.32v-3.33l.49,.03s-.04,.07-.11,.08v3.15l.79-.14,.07,.35Zm-2.63-1.59c.38,.22,.85,.56,1.08,.81l-.27,.26c-.22-.26-.67-.6-1.06-.83l.25-.23Zm.19-1.49c.34,.22,.77,.54,.97,.79l-.29,.24c-.19-.24-.6-.58-.95-.81l.27-.22Z"/>
<path class="cls-34" d="M69.16,25.17h-1.17v.49h-.33v-1.91c-.1,.21-.21,.39-.33,.56-.04-.08-.15-.23-.21-.31,.41-.56,.67-1.53,.82-2.55h-.73v-.35h2.16v.35h-1.07c-.07,.46-.17,.92-.29,1.34h1.16v2.38Zm-.34-.34v-1.7h-.83v1.7h.83Zm3.52-1.66v.36h-.69v2.44h-.36v-2.44h-.89c-.04,.88-.25,1.79-1.11,2.46-.07-.06-.2-.17-.29-.22,.81-.61,1.01-1.45,1.04-2.24h-.7v-.36h.71v-1.74h-.54v-.35h2.72v.35h-.59v1.74h.69Zm-1.93,0h.88v-1.74h-.88v1.74Z"/>
<path class="cls-34" d="M76.63,25.4c0,.14,.03,.17,.18,.17h.48c.16,0,.18-.11,.2-.81,.08,.07,.24,.13,.34,.16-.04,.8-.13,.99-.5,.99h-.58c-.39,0-.51-.11-.51-.51v-1.22h-1.22c-.22,.84-.72,1.46-2.05,1.78-.03-.09-.13-.23-.21-.31,1.16-.27,1.64-.77,1.85-1.48h-1.5v-.35h1.59c.04-.24,.07-.51,.09-.79,.38,.03,.44,.03,.49,.04,0,.04-.04,.07-.11,.08-.02,.23-.05,.46-.08,.67h1.53v1.57Zm-1.82-3.5s-.04,.07-.11,.07c-.17,.72-.49,1.25-1.69,1.53-.03-.09-.13-.23-.2-.3,1.09-.22,1.39-.67,1.52-1.35l.48,.06Zm-1.47-.12v.66h-.37v-1h2.14v-.64l.49,.03s-.03,.07-.11,.08v.53h2.16v1h-.38v-.66h-3.92Zm2.41,.04l.48,.03s-.03,.07-.11,.08v.95c0,.12,.04,.15,.27,.15h.82c.16,0,.19-.04,.21-.34,.08,.06,.23,.1,.33,.13-.04,.42-.15,.53-.5,.53h-.89c-.49,0-.61-.09-.61-.47v-1.06Z"/>
<path class="cls-34" d="M80.08,22.94c.13-.29,.28-.76,.36-1.07l.43,.12s-.05,.05-.12,.06c-.08,.27-.22,.67-.35,.95h.83v.34h-2.93v-.34h1.96l-.17-.06Zm1.05-1.49v.33h-2.69v-.33h1.16v-.65l.47,.03s-.04,.07-.11,.08v.54h1.17Zm-2.45,4.52v-2.11h2.2v2.08h-.36v-.28h-1.48v.32h-.36Zm.43-4.04c.13,.28,.23,.66,.27,.91l-.33,.08c-.03-.24-.13-.63-.24-.92l.31-.07Zm1.41,2.27h-1.48v1.13h1.48v-1.13Zm2.7-3.07l.24,.12s-.03,.04-.05,.06c-.21,.47-.51,1.07-.81,1.66,.6,.56,.85,.98,.85,1.38,0,.87-.6,.87-.97,.87-.08,0-.17,0-.26,0,0-.1-.06-.26-.13-.37,.12,.01,.24,.02,.34,.02,.37,0,.64-.02,.64-.53,0-.36-.27-.75-.88-1.31,.27-.55,.51-1.07,.7-1.52h-1.11v4.47h-.36v-4.83h1.71l.07-.02Z"/>
</g>
</g>
</g>
</svg>
