<svg xmlns="http://www.w3.org/2000/svg"  viewBox="0 0 442.7 251.1">
    <style type="text/css">
	.st0{fill:#FEF9E4;}
	.st1{fill:#666666;stroke:#5E5C5C;stroke-linejoin:round;}
	.st2{fill:#4D4E4F;}
	.st3{fill:#F3F9F8;}
	.st4{fill:#F7EA67;stroke:#5E5C5C;stroke-linejoin:round;}
	.st5{fill:#DBCC5C;}
	.st6{fill:#B2E0F8;stroke:#5E5C5C;stroke-linejoin:round;}
	.st7{fill:#8AB7D6;}
	.st8{fill:#69BD83;stroke:#5E5C5C;stroke-linejoin:round;}
	.st9{fill:#46976C;}
	.st10{fill:#E3776A;stroke:#5E5C5C;stroke-linejoin:round;}
	.st11{fill:#C35F5A;}
	.st12{fill:#FFFFFF;stroke:#5E5C5C;stroke-linejoin:round;}
	.st13{fill:#F3F9F8;stroke:#5E5C5C;stroke-linejoin:round;}
	.st14{fill:none;stroke:#5E5C5C;stroke-linejoin:round;}
	.st15{fill:#76B5DE;stroke:#5E5C5C;stroke-linejoin:round;}
	.st16{fill:#F2BFD7;stroke:#5E5C5C;stroke-linejoin:round;}
	.st17{fill:#BBE1E7;stroke:#5E5C5C;}
	.st18{fill:none;stroke:#5E5C5C;stroke-width:3;stroke-linecap:round;stroke-linejoin:round;}
	.st19{fill:#BBE1E7;stroke:#5E5C5C;stroke-width:3;stroke-linejoin:round;}
</style>
    <polygon class="st0" points="1.5,1.5 1.5,63.5 45.5,63.5 45.5,87 86.1,87 115.7,87 115.7,164.1 86.1,164.1 45.5,164.1 45.5,187.8 
	45.5,249.6 441.2,249.6 441.2,1.5 " />

    <g id="g3j">
        <rect x="1.5" y="1.5" class="st1" width="44" height="45" />
        <path class="st2" d="M12.5,16h24c1.1,0,2.1,0.9,2.1,2.1v12.1c0,1.1-0.9,2.1-2.1,2.1h-24c-1.1,0-2.1-0.9-2.1-2.1V18.1
			C10.4,16.9,11.4,16,12.5,16z" />
        <path class="st3" d="M21.3,28.5c-0.5,0.2-1.6,0.5-2.8,0.5c-4.2,0-4.8-3.4-4.8-4.9c0-3.2,2.1-5,5-5c1,0,1.8,0.2,2.3,0.4l-0.3,1.2
			c-0.5-0.2-1-0.4-2-0.4c-2,0-3.5,1.3-3.5,3.7s1.3,3.8,3.3,3.8c0.6,0,1.1-0.1,1.3-0.2v-2.8h-1.7v-1.2h3.1L21.3,28.5L21.3,28.5z" />
        <path class="st3" d="M26.3,23.7c1.1,0.2,2,1.1,2,2.4c0,1.6-1.2,2.9-3.4,2.9c-1,0-1.9-0.3-2.4-0.6l0.4-1.1c0.4,0.2,1.1,0.5,1.9,0.5
			c1.4,0,1.9-0.9,1.9-1.8c0-1.2-1-1.8-2.2-1.8h-0.6v-1.1h0.6c0.8,0,1.9-0.5,1.9-1.5c0-0.8-0.5-1.4-1.5-1.4c-0.7,0-1.4,0.3-1.7,0.6
			l-0.4-1.1c0.5-0.4,1.4-0.7,2.4-0.7c1.8,0,2.7,1.1,2.7,2.3C28,22.5,27.4,23.3,26.3,23.7L26.3,23.7L26.3,23.7z" />
        <path class="st3" d="M33.5,25.7c0,2.6-1.2,3.4-3,3.4c-0.5,0-1-0.1-1.3-0.2l0.2-1.2c0.2,0.1,0.6,0.1,1,0.1c1,0,1.6-0.4,1.6-2.2
			v-6.5h1.5C33.5,19.2,33.5,25.7,33.5,25.7z" />
    </g>
    <g id="g3i">
        <rect x="45.5" y="1.5" class="st4" width="44" height="45" />
        <path class="st5" d="M55.5,16h24c1.1,0,2.1,0.9,2.1,2.1v12.1c0,1.1-0.9,2.1-2.1,2.1h-24c-1.1,0-2.1-0.9-2.1-2.1V18.1
			C53.4,16.9,54.3,16,55.5,16z" />
        <path class="st3" d="M64.9,28.5c-0.6,0.2-1.6,0.5-2.8,0.5c-4.2,0-4.8-3.4-4.8-4.9c0-3.2,2.1-5,5-5c1,0,1.8,0.2,2.3,0.4l-0.3,1.2
			c-0.5-0.2-1-0.4-2-0.4c-2,0-3.5,1.3-3.5,3.7s1.3,3.8,3.3,3.8c0.6,0,1.1-0.1,1.3-0.2v-2.8h-1.7v-1.2h3.1L64.9,28.5L64.9,28.5z" />
        <path class="st3" d="M69.9,23.7c1.1,0.2,2,1.1,2,2.4c0,1.6-1.2,2.9-3.4,2.9c-1,0-1.9-0.3-2.4-0.6l0.4-1.1c0.3,0.2,1.1,0.5,1.9,0.5
			c1.4,0,1.9-0.9,1.9-1.8c0-1.2-1.1-1.8-2.2-1.8h-0.7v-1.1h0.6c0.8,0,1.9-0.5,1.9-1.5c0-0.8-0.5-1.4-1.5-1.4c-0.7,0-1.3,0.3-1.7,0.6
			l-0.4-1.1c0.5-0.4,1.4-0.7,2.4-0.7c1.8,0,2.7,1.1,2.7,2.3C71.6,22.5,71,23.3,69.9,23.7L69.9,23.7L69.9,23.7z" />
        <path class="st3" d="M73.9,19.2h1.5v9.8h-1.5V19.2z" />
    </g>
    <g id="g3h">
        <rect x="89.4" y="1.5" class="st6" width="44" height="45" />
        <path class="st7" d="M99.9,15.9h24c1.1,0,2.1,0.9,2.1,2.1v12.1c0,1.1-0.9,2.1-2.1,2.1h-24c-1.1,0-2.1-0.9-2.1-2.1V18
			C97.8,16.8,98.7,15.9,99.9,15.9z" />
        <path class="st3" d="M107.3,28.5c-0.6,0.2-1.6,0.5-2.8,0.5c-4.2,0-4.8-3.4-4.8-4.9c0-3.2,2.1-5,5-5c1,0,1.8,0.2,2.3,0.4l-0.3,1.2
			c-0.5-0.2-1.1-0.4-1.9-0.4c-2,0-3.5,1.3-3.5,3.7s1.3,3.8,3.3,3.8c0.6,0,1.1-0.1,1.3-0.2v-2.8h-1.7v-1.2h3.1L107.3,28.5L107.3,28.5
			z" />
        <path class="st3" d="M112.3,23.7c1.1,0.2,2,1.1,2,2.4c0,1.6-1.2,2.9-3.4,2.9c-1,0-1.9-0.3-2.4-0.6l0.4-1.1
			c0.3,0.2,1.1,0.5,1.9,0.5c1.4,0,1.9-0.9,1.9-1.8c0-1.2-1.1-1.8-2.2-1.8H110v-1.1h0.6c0.8,0,1.9-0.5,1.9-1.5c0-0.8-0.5-1.4-1.5-1.4
			c-0.7,0-1.3,0.3-1.7,0.6l-0.4-1.1c0.5-0.4,1.4-0.7,2.4-0.7c1.8,0,2.7,1.1,2.7,2.3C114,22.5,113.4,23.3,112.3,23.7L112.3,23.7
			L112.3,23.7z" />
        <path class="st3" d="M123.2,28.9h-1.5v-4.4h-4v4.4h-1.5v-9.8h1.5v4h4v-4h1.5V28.9z" />
    </g>
    <g id="g1f">
        <rect x="133.4" y="1.5" class="st1" width="44" height="45" />
        <path class="st2" d="M143.3,15.9h24c1.1,0,2.1,0.9,2.1,2.1v12.1c0,1.1-0.9,2.1-2.1,2.1h-24c-1.1,0-2.1-0.9-2.1-2.1V18
			C141.2,16.8,142.1,15.9,143.3,15.9z" />
        <path class="st3" d="M151.5,28.5c-0.6,0.2-1.6,0.5-2.8,0.5c-4.2,0-4.8-3.4-4.8-4.9c0-3.2,2.1-5,5-5c1,0,1.8,0.2,2.3,0.4l-0.3,1.2
			c-0.5-0.2-1.1-0.4-1.9-0.4c-2,0-3.5,1.3-3.5,3.7s1.4,3.8,3.3,3.8c0.6,0,1.1-0.1,1.3-0.2v-2.8h-1.7v-1.2h3.1L151.5,28.5L151.5,28.5
			z" />
        <path class="st3" d="M155.6,28.9v-8.2h0l-1.6,0.9l-0.3-1.1l2.2-1.2h1.3v9.6H155.6L155.6,28.9z" />
        <path class="st3" d="M160.5,28.9v-9.8h5.1v1.2H162v3h3.4v1.2H162v4.3H160.5L160.5,28.9z" />
    </g>
    <g id="g1e">
        <rect x="177.4" y="1.5" class="st6" width="44" height="45" />
        <path class="st7" d="M187.7,16h24c1.1,0,2.1,0.9,2.1,2.1v12.1c0,1.1-0.9,2.1-2.1,2.1h-24c-1.1,0-2.1-0.9-2.1-2.1V18.1
			C185.6,16.9,186.6,16,187.7,16z" />
        <path class="st3" d="M196,28.5c-0.6,0.2-1.6,0.5-2.8,0.5c-4.2,0-4.8-3.4-4.8-4.9c0-3.2,2.1-5,5-5c1,0,1.8,0.2,2.3,0.4l-0.3,1.2
			c-0.5-0.2-1.1-0.4-1.9-0.4c-2,0-3.5,1.3-3.5,3.7s1.4,3.8,3.3,3.8c0.6,0,1.1-0.1,1.3-0.2v-2.8h-1.7v-1.2h3.1L196,28.5L196,28.5z" />
        <path class="st3" d="M200,28.9v-8.2h0l-1.6,0.9l-0.3-1.1l2.2-1.2h1.3v9.6H200L200,28.9z" />
        <path class="st3" d="M210.3,28.9h-5.3v-9.8h5.1v1.2h-3.6v2.8h3.4v1.2h-3.4v3.2h3.9L210.3,28.9L210.3,28.9z" />
    </g>
    <g id="g1c">
        <rect x="265.3" y="1.5" class="st8" width="44" height="45" />
        <path class="st9" d="M276,16h24c1.1,0,2.1,0.9,2.1,2.1v12.1c0,1.1-0.9,2.1-2.1,2.1h-24c-1.1,0-2.1-0.9-2.1-2.1V18.1
			C273.9,16.9,274.9,16,276,16z" />
        <path class="st3" d="M283.9,28.5c-0.5,0.2-1.6,0.5-2.8,0.5c-4.2,0-4.8-3.4-4.8-4.9c0-3.2,2.1-5,5-5c1,0,1.8,0.2,2.3,0.4l-0.3,1.2
			c-0.5-0.2-1-0.4-2-0.4c-2,0-3.5,1.3-3.5,3.7s1.4,3.8,3.3,3.8c0.6,0,1.1-0.1,1.3-0.2v-2.8h-1.7v-1.2h3.1L283.9,28.5L283.9,28.5z" />
        <path class="st3" d="M287.9,28.9v-8.2h0l-1.6,0.9l-0.3-1.1l2.2-1.2h1.3v9.6H287.9z" />
        <path class="st3" d="M299.2,28.6c-0.4,0.2-1.2,0.4-2.3,0.4c-2.7,0-4.6-1.8-4.6-4.9c0-3.3,2.1-5.1,4.8-5.1c1.1,0,1.8,0.2,2.1,0.4
			l-0.3,1.2c-0.4-0.2-1-0.4-1.7-0.4c-1.9,0-3.3,1.3-3.3,3.8c0,2.4,1.3,3.7,3.3,3.7c0.7,0,1.4-0.1,1.8-0.3
			C299,27.5,299.2,28.6,299.2,28.6z" />
    </g>
    <g id="t3d">
        <rect x="353.3" y="1.5" class="st1" width="44" height="45" />
        <path class="st2" d="M363.2,15.9h24c1.1,0,2.1,0.9,2.1,2.1v12.1c0,1.1-0.9,2.1-2.1,2.1h-24c-1.1,0-2.1-0.9-2.1-2.1V18
			C361.2,16.8,362.1,15.9,363.2,15.9z" />
        <path class="st3" d="M370.9,20.4h-2.6v8.5h-1.5v-8.5h-2.6v-1.3h6.8V20.4z" />
        <path class="st3" d="M375.2,23.7c1.1,0.2,2,1.1,2,2.4c0,1.6-1.2,2.9-3.4,2.9c-1,0-1.9-0.3-2.4-0.6l0.4-1.1
			c0.4,0.2,1.1,0.5,1.9,0.5c1.4,0,1.9-0.9,1.9-1.8c0-1.2-1-1.8-2.2-1.8h-0.6v-1.1h0.6c0.8,0,1.9-0.5,1.9-1.5c0-0.8-0.5-1.4-1.5-1.4
			c-0.7,0-1.4,0.3-1.7,0.6l-0.4-1.1c0.5-0.4,1.4-0.7,2.4-0.7c1.8,0,2.7,1.1,2.7,2.3C376.9,22.5,376.3,23.3,375.2,23.7L375.2,23.7
			L375.2,23.7z" />
        <path class="st3" d="M379.2,19.3c0.7-0.1,1.6-0.2,2.5-0.2c4.2,0,5,2.6,5,4.7l0,0c0,1.8-0.5,3.1-1.4,3.9c-0.9,0.9-2.3,1.3-4,1.3
			c-0.9,0-1.6,0-2.1-0.1L379.2,19.3L379.2,19.3z M380.6,27.8c0.3,0,0.6,0,1,0c2.2,0,3.5-1.3,3.5-4c0-2.4-1.2-3.6-3.3-3.6
			c-0.5,0-0.9,0-1.1,0.1L380.6,27.8L380.6,27.8z" />
    </g>
    <g id="g1b">
        <rect x="309.3" y="1.5" class="st1" width="44" height="45" />
        <path class="st2" d="M319.7,16.2h24c1.1,0,2.1,0.9,2.1,2.1v12.1c0,1.1-0.9,2.1-2.1,2.1h-24c-1.1,0-2.1-0.9-2.1-2.1V18.3
			C317.6,17.1,318.6,16.2,319.7,16.2z" />
        <path class="st3" d="M328,28.5c-0.5,0.2-1.6,0.5-2.8,0.5c-4.2,0-4.8-3.4-4.8-4.9c0-3.2,2.1-5,5-5c1,0,1.8,0.2,2.3,0.4l-0.3,1.2
			c-0.5-0.2-1-0.4-2-0.4c-2,0-3.5,1.3-3.5,3.7s1.4,3.8,3.3,3.8c0.6,0,1.1-0.1,1.3-0.2v-2.8h-1.7v-1.2h3.1L328,28.5L328,28.5z" />
        <path class="st3" d="M332,28.9v-8.2h0l-1.6,0.9l-0.3-1.1l2.2-1.2h1.3v9.6H332z" />
        <path class="st3" d="M341.1,23.7c1,0.2,2,1.1,2,2.4c0,1-0.5,1.6-0.9,2c-0.6,0.6-1.7,0.9-3.4,0.9c-0.9,0-1.5-0.1-2-0.1v-9.6
			c0.5-0.1,1.4-0.2,2.3-0.2c3,0,3.5,1.5,3.5,2.4C342.7,22.5,342.1,23.3,341.1,23.7L341.1,23.7L341.1,23.7z M339.4,23.2
			c1.2,0,1.9-0.6,1.9-1.5c0-1.2-1-1.5-1.9-1.5c-0.5,0-0.8,0-1,0.1v2.9L339.4,23.2L339.4,23.2z M338.4,27.8c0.2,0,0.5,0,0.9,0
			c1.2,0,2.2-0.5,2.2-1.8s-1.1-1.8-2.3-1.8h-0.9C338.4,24.3,338.4,27.8,338.4,27.8z" />
    </g>
    <g id="g1d">
        <rect x="221.4" y="1.5" class="st10" width="44" height="45" />
        <path class="st11" d="M232.2,16.2h24c1.1,0,2.1,0.9,2.1,2.1v12.1c0,1.1-0.9,2.1-2.1,2.1h-24c-1.1,0-2.1-0.9-2.1-2.1V18.3
			C230.2,17.1,231.1,16.2,232.2,16.2z" />
        <path class="st3" d="M239.7,28.5c-0.6,0.2-1.6,0.5-2.8,0.5c-4.2,0-4.8-3.4-4.8-4.9c0-3.2,2.1-5,5-5c1,0,1.8,0.2,2.3,0.4l-0.3,1.2
			c-0.5-0.2-1.1-0.4-1.9-0.4c-2,0-3.5,1.3-3.5,3.7s1.4,3.8,3.3,3.8c0.6,0,1.1-0.1,1.3-0.2v-2.8h-1.7v-1.2h3.1L239.7,28.5L239.7,28.5
			z" />
        <path class="st3" d="M243.8,28.9v-8.2h0l-1.6,0.9l-0.3-1.1l2.2-1.2h1.3v9.6H243.8L243.8,28.9z" />
        <path class="st3" d="M248.7,19.3c0.7-0.1,1.6-0.2,2.5-0.2c4.2,0,5.1,2.6,5.1,4.7l0,0c0,1.8-0.6,3.1-1.4,3.9
			c-0.9,0.9-2.3,1.3-4,1.3c-0.9,0-1.6,0-2.1-0.1V19.3L248.7,19.3z M250.2,27.8c0.3,0,0.6,0,1,0c2.2,0,3.5-1.3,3.5-4
			c0-2.4-1.2-3.6-3.3-3.6c-0.5,0-0.9,0-1.1,0.1L250.2,27.8L250.2,27.8z" />
    </g>
    <g id="t3a">
        <rect x="397.2" y="1.5" class="st8" width="44" height="45" />
        <path class="st9" d="M406.5,15.9h24c1.1,0,2.1,0.9,2.1,2.1v12.1c0,1.1-0.9,2.1-2.1,2.1h-24c-1.1,0-2.1-0.9-2.1-2.1V18
			C404.4,16.8,405.3,15.9,406.5,15.9z" />
        <path class="st3" d="M414.4,20.4h-2.6v8.5h-1.5v-8.5h-2.6v-1.3h6.8V20.4z" />
        <path class="st3" d="M418.8,23.7c1.1,0.2,2,1.1,2,2.4c0,1.6-1.2,2.9-3.4,2.9c-1,0-1.9-0.3-2.4-0.6l0.4-1.1
			c0.4,0.2,1.1,0.5,1.9,0.5c1.4,0,1.9-0.9,1.9-1.8c0-1.2-1-1.8-2.2-1.8h-0.6v-1.1h0.6c0.8,0,1.9-0.5,1.9-1.5c0-0.8-0.5-1.4-1.5-1.4
			c-0.7,0-1.4,0.3-1.7,0.6l-0.4-1.1c0.5-0.4,1.4-0.7,2.4-0.7c1.8,0,2.7,1.1,2.7,2.3C420.5,22.5,419.8,23.3,418.8,23.7L418.8,23.7
			L418.8,23.7z" />
        <path class="st3" d="M429.8,28.9h-1.6l-0.9-2.9h-3l-0.9,2.9H422l3-9.8h1.8C426.8,19.2,429.8,28.9,429.8,28.9z M427.1,24.9
			l-0.8-2.5c-0.2-0.6-0.4-1.3-0.5-1.9h0c-0.1,0.6-0.3,1.3-0.5,1.9l-0.8,2.6H427.1L427.1,24.9z" />
    </g>
    <g id="mechanical_club">
        <rect x="370.1" y="87" class="st12" width="56.2" height="38.5" />
        <g>
            <path d="M382.3,100.7c0.8,0.6,1.5,1.1,2,1.5l-0.7,0.8c-0.1-0.1-0.4-0.4-1-0.9l-0.7-0.6c-0.4,0.6-0.8,1.1-1.1,1.4
				c-0.3,0.4-0.7,0.7-1.1,1c-0.2,0.2-0.8,0.5-1.7,1.1c-0.2-0.3-0.4-0.6-0.6-0.8c0.5-0.2,1-0.5,1.5-0.8c0.4-0.3,0.8-0.6,1.2-1
				c0.3-0.3,0.7-0.8,1.1-1.4c-0.5-0.3-1.3-0.7-2.3-1.1l0.4-0.8c0.5,0.2,1.2,0.6,2.3,1.1c0.3-0.6,0.4-1,0.5-1.2
				c0.2-0.5,0.4-1.1,0.6-1.7l1,0.3C383.2,98.9,382.8,99.8,382.3,100.7z" />
            <path d="M388.1,100.1h-2.3v-0.9h2.3v-2h1c0,0.9,0,1.6,0,2h3c-0.1,2.3-0.2,3.8-0.3,4.6c0,0.4-0.2,0.7-0.4,0.8
				c-0.2,0.1-0.8,0.2-1.7,0.3c0-0.2-0.1-0.5-0.3-1h1.2c0.1,0,0.1,0,0.2-0.1c0.1-0.1,0.2-0.4,0.2-0.8c0.1-0.6,0.1-1.5,0.2-2.9h-2
				c-0.1,1-0.3,1.7-0.6,2.2c-0.2,0.5-0.6,1.1-1,1.5c-0.5,0.5-1.1,1-1.8,1.3c-0.1-0.1-0.1-0.2-0.1-0.3c0,0-0.1-0.1-0.1-0.1
				c0,0-0.1-0.1-0.1-0.2c0-0.1-0.1-0.1-0.2-0.2c0.7-0.4,1.2-0.8,1.6-1.1c0.3-0.3,0.6-0.7,0.9-1.3C387.9,101.6,388,101,388.1,100.1z" />
            <path d="M393,103.9V103h8v0.9H393z M394,99.5v-0.9h5.8v0.9H394z" />
            <path d="M404.8,100.1h-2.3v-0.9h2.3v-2h1c0,0.9,0,1.6,0,2h3c-0.1,2.3-0.2,3.8-0.3,4.6c0,0.4-0.2,0.7-0.4,0.8
				c-0.2,0.1-0.8,0.2-1.7,0.3c0-0.2-0.1-0.5-0.3-1h1.2c0.1,0,0.1,0,0.2-0.1c0.1-0.1,0.2-0.4,0.2-0.8c0.1-0.6,0.1-1.5,0.2-2.9h-2
				c-0.1,1-0.3,1.7-0.6,2.2c-0.2,0.5-0.6,1.1-1,1.5c-0.5,0.5-1.1,1-1.8,1.3c-0.1-0.1-0.1-0.2-0.1-0.3c0,0-0.1-0.1-0.1-0.1
				c0,0-0.1-0.1-0.1-0.2c0-0.1-0.1-0.1-0.2-0.2c0.7-0.4,1.2-0.8,1.6-1.1c0.3-0.3,0.6-0.7,0.9-1.3C404.5,101.6,404.7,101,404.8,100.1
				z" />
            <path d="M410,105.1c-0.2-0.3-0.4-0.6-0.6-0.8c0.6-0.4,1.1-0.8,1.4-1.3c0.3-0.4,0.5-0.9,0.6-1.6c0.1-0.6,0.1-1.7,0.1-3.4h1
				c0,1.6-0.1,2.5-0.1,2.9c-0.1,0.7-0.2,1.2-0.4,1.7c-0.2,0.4-0.4,0.9-0.8,1.3C410.9,104.5,410.5,104.8,410,105.1z M413.9,104.1
				v-6.6h0.9v5.9c0.7-0.5,1.1-0.9,1.5-1.2c0.3-0.3,0.7-0.8,1.2-1.6c0.4,0.4,0.6,0.6,0.7,0.6c-0.6,0.8-1.2,1.5-1.8,2.1
				c-0.7,0.6-1.4,1.2-2,1.6l-0.6-0.7L413.9,104.1z" />
            <path d="M381.3,108h6.6l0.1-0.1l0.6,0.7c-0.1,0.1-0.3,0.2-0.4,0.4c-0.1,0.1-0.4,0.4-0.9,0.8c-0.3,0.3-0.9,0.8-1.7,1.5l-0.3-0.4
				c-0.1,0.8-0.2,1.5-0.3,2c-0.1,0.4-0.3,0.8-0.6,1.1c-0.2,0.3-0.5,0.6-0.9,0.8c-0.2,0.2-0.7,0.4-1.3,0.7c-0.2-0.3-0.3-0.5-0.3-0.6
				c0,0-0.1-0.2-0.3-0.3c0.6-0.2,1-0.3,1.2-0.5c0.3-0.2,0.5-0.4,0.7-0.6c0.2-0.3,0.3-0.6,0.4-0.9c0.1-0.2,0.1-0.6,0.2-1.1l0-1.5h1
				v0.5c0.7-0.6,1.3-1.2,1.7-1.6h-5.7V108z" />
            <path d="M397,111.8h-7.4v-0.9h7.4V111.8z" />
            <path d="M398,108.9l0.8-0.4l0.7,1.1c0.1,0.2,0.3,0.6,0.6,1.1l-0.9,0.4l-0.6-1.1c0,0-0.1-0.2-0.2-0.3
				C398.4,109.4,398.2,109.2,398,108.9z M399.7,115.5l-0.2-0.5c-0.1-0.1-0.2-0.3-0.4-0.4c1.1-0.3,2-0.7,2.7-1.2
				c0.7-0.5,1.3-1.2,1.7-1.9c0.4-0.8,0.8-1.8,1.1-3.1l1,0.3c-0.3,1.2-0.7,2.2-1,2.9c-0.4,0.8-0.9,1.4-1.3,1.8
				c-0.5,0.5-1.1,0.9-1.7,1.3C401.2,114.9,400.6,115.2,399.7,115.5z M400.4,108.2l0.8-0.3c0.3,0.6,0.7,1.3,1.1,2.2l-0.9,0.3
				l-0.4-0.9C400.9,109.1,400.6,108.7,400.4,108.2z" />
            <path d="M408.6,108.1v-1h0.9v1h1.8v0.7h-1.1l0.6,0.3l-0.6,1.4h1.2v0.8h-5v-0.8h1.1c-0.1-0.5-0.3-0.9-0.5-1.2l0.7-0.3
				c0.3,0.6,0.4,1.1,0.5,1.2l-0.6,0.3h1.7c0.1-0.2,0.2-0.8,0.5-1.7h-3.3v-0.7H408.6z M407.9,115.5h-0.8v-3.6h3.9v3.3h-0.8v-0.4h-2.2
				V115.5z M410.2,114.1v-1.5h-2.2v1.5H410.2z M411.7,107.5h2.5l0.2,0l0.6,0.5l-1.1,2.4c0.8,1,1.1,1.8,1.1,2.5c0,0.5-0.1,0.8-0.4,1
				c-0.3,0.3-0.7,0.4-1.4,0.4c-0.2-0.5-0.3-0.8-0.3-0.8h0.7c0.2,0,0.3,0,0.4-0.1c0.1-0.1,0.1-0.2,0.1-0.3c0-0.6-0.4-1.4-1.2-2.6
				c0.4-1,0.7-1.7,0.9-2.2h-1.4v7.3h-0.8V107.5z" />
        </g>
    </g>
    <g id="picuture_club">
        <rect x="370.1" y="125.5" class="st13" width="56.2" height="38.5" />
        <path d="M388,142.1l0.8,0.1l-0.1,0.8h3.7v0.7h-3.8l-0.1,0.7h3.8l-0.2,1.6h1.6v0.7H392c-0.1,0.7-0.2,1.1-0.3,1.3
			c0,0.1-0.1,0.2-0.3,0.3c-0.2,0.1-0.7,0.2-1.4,0.2c0-0.2-0.1-0.3-0.1-0.4c0-0.1-0.1-0.3-0.2-0.4h1.1c0.1,0,0.2,0,0.2-0.1
			c0,0,0.1-0.3,0.1-0.9h-4.9v-0.7h5l0.1-0.9h-3.1l-0.1,0.3l-0.8-0.1C387.6,144.3,387.8,143.3,388,142.1z M386.4,142.9v-1.7h7v1.6
			h-0.8v-0.9h-5.4v0.9H386.4z" />
        <path d="M394.6,146.9v-0.6h7.6v0.6h-2.6c0.7,0.4,1.6,0.7,2.6,0.9c-0.2,0.3-0.3,0.5-0.4,0.6c-1-0.2-1.9-0.5-2.7-0.9l0.4-0.6h-2.3
			l0.4,0.5c-0.7,0.4-1.6,0.7-2.8,1c-0.2-0.4-0.3-0.7-0.4-0.7c0.6-0.1,1.1-0.2,1.5-0.4c0.3-0.1,0.7-0.2,1-0.5H394.6z M398.1,141.4
			v-0.7h0.7v0.7h3.1v0.7h-3.1v0.5h2.1v3.4h-5v-3.4h2.2v-0.5h-3.2v-0.7H398.1z M400.2,143.6v-0.5h-3.5v0.5H400.2z M400.2,144.5V144
			h-3.5v0.4H400.2z M400.2,145.4V145h-3.5v0.5H400.2z" />
        <path d="M405,141.7v-0.9h0.8v0.9h1.6v0.6h-1l0.6,0.3l-0.5,1.3h1.1v0.7h-4.5v-0.7h1c-0.1-0.5-0.3-0.8-0.4-1.1l0.7-0.3
			c0.2,0.6,0.4,1,0.4,1.1l-0.5,0.3h1.5c0.1-0.2,0.2-0.7,0.4-1.5h-2.9v-0.6H405z M404.4,148.4h-0.8v-3.2h3.5v3h-0.7v-0.3h-2V148.4z
			 M406.4,147.1v-1.3h-2v1.3H406.4z M407.8,141.2h2.3l0.2,0l0.5,0.5l-1,2.2c0.7,0.9,1,1.6,1,2.2c0,0.4-0.1,0.7-0.3,0.9
			c-0.2,0.2-0.7,0.4-1.2,0.4c-0.2-0.5-0.2-0.7-0.3-0.8h0.6c0.2,0,0.3,0,0.4-0.1c0.1-0.1,0.1-0.2,0.1-0.3c0-0.5-0.4-1.3-1.1-2.3
			c0.4-0.9,0.6-1.5,0.8-2h-1.2v6.6h-0.7V141.2z" />
    </g>

    <g>
        <path class="st14" d="M104.2,249.6c0,0,0-40,30.3-40.6" />
        <path class="st14" d="M110.5,249.6c0,0,0.5-32.3,24-32.9" />
        <path class="st14" d="M116.8,249.6c0,0-0.4-24.4,17.7-25.2" />
        <rect x="134.5" y="204.5" class="st13" width="84.6" height="45" />
        <rect x="219.1" y="204.5" class="st13" width="47.3" height="45" />
        <rect x="265.7" y="204.5" class="st13" width="87.6" height="45" />
        <rect x="353.3" y="204.5" class="st13" width="87.9" height="45" />
        <rect x="133.4" y="87" class="st13" width="101.5" height="77.1" />
        <rect x="133.4" y="164.1" class="st13" width="11.9" height="11.9" />
        <rect x="133.4" y="175.9" class="st13" width="11.9" height="11.9" />
        <rect x="145.3" y="164.1" class="st15" width="21.8" height="23.7" />
        <rect x="167.1" y="164.1" class="st16" width="17" height="23.7" />
        <rect x="184.1" y="164.1" class="st13" width="33.9" height="23.7" />
        <rect x="218" y="164.1" class="st13" width="53.2" height="23.7" />
        <rect x="271.2" y="164.1" class="st13" width="53.2" height="23.7" />
        <rect x="324.4" y="164.1" class="st13" width="15.6" height="23.7" />
        <rect x="340" y="164.1" class="st13" width="30.1" height="23.7" />
        <rect x="370.1" y="164.1" class="st13" width="15.6" height="23.7" />
        <rect x="363.9" y="63.3" class="st15" width="21.8" height="23.7" />
        <rect x="347.2" y="63.3" class="st16" width="16.7" height="23.7" />
        <rect x="309.3" y="63.3" class="st17" width="37.9" height="23.7" />
        <rect x="133.4" y="63.3" class="st15" width="22" height="23.7" />
        <rect x="155.4" y="63.3" class="st16" width="17.1" height="23.7" />
        <rect x="172.5" y="63.3" class="st13" width="92.8" height="23.7" />
        <path class="st17" d="M179.6,124.9c0,10-5.8,18.1-13,18.1s-13-8.1-13-18.1s5.8-18.1,13-18.1S179.6,114.8,179.6,124.9z" />
        <polyline class="st13" points="426.3,164.1 385.7,164.1 385.7,187.8 426.3,187.8 426.3,164.1 426.3,175.9 	" />
        <line class="st14" x1="398.2" y1="164.1" x2="398.2" y2="187.8" />
        <line class="st14" x1="401.3" y1="164.1" x2="401.3" y2="187.8" />
        <line class="st14" x1="404.4" y1="164.1" x2="404.4" y2="187.8" />
        <line class="st14" x1="407.6" y1="164.1" x2="407.6" y2="187.8" />
        <line class="st14" x1="410.7" y1="164.1" x2="410.7" y2="187.8" />
        <line class="st14" x1="413.8" y1="164.1" x2="413.8" y2="187.8" />
        <line class="st14" x1="416.9" y1="164.1" x2="416.9" y2="187.8" />
        <line class="st14" x1="420" y1="164.1" x2="420" y2="187.8" />
        <line class="st14" x1="423.2" y1="164.1" x2="423.2" y2="187.8" />
        <polyline class="st13" points="86.1,164.1 45.5,164.1 45.5,187.8 86.1,187.8 86.1,164.1 86.1,175.9 	" />
        <line class="st14" x1="58" y1="164.1" x2="58" y2="187.8" />
        <line class="st14" x1="61.1" y1="164.1" x2="61.1" y2="187.8" />
        <line class="st14" x1="64.2" y1="164.1" x2="64.2" y2="187.8" />
        <line class="st14" x1="67.3" y1="164.1" x2="67.3" y2="187.8" />
        <line class="st14" x1="70.4" y1="164.1" x2="70.4" y2="187.8" />
        <line class="st14" x1="73.6" y1="164.1" x2="73.6" y2="187.8" />
        <line class="st14" x1="76.7" y1="164.1" x2="76.7" y2="187.8" />
        <line class="st14" x1="79.8" y1="164.1" x2="79.8" y2="187.8" />
        <line class="st14" x1="82.9" y1="164.1" x2="82.9" y2="187.8" />
        <polyline class="st13" points="86.1,63.3 45.5,63.3 45.5,87 86.1,87 86.1,63.3 86.1,75.2 	" />
        <line class="st14" x1="58" y1="63.3" x2="58" y2="87" />
        <line class="st14" x1="61.1" y1="63.3" x2="61.1" y2="87" />
        <line class="st14" x1="64.2" y1="63.3" x2="64.2" y2="87" />
        <line class="st14" x1="67.3" y1="63.3" x2="67.3" y2="87" />
        <line class="st14" x1="70.4" y1="63.3" x2="70.4" y2="87" />
        <line class="st14" x1="73.6" y1="63.3" x2="73.6" y2="87" />
        <line class="st14" x1="76.7" y1="63.3" x2="76.7" y2="87" />
        <line class="st14" x1="79.8" y1="63.3" x2="79.8" y2="87" />
        <line class="st14" x1="82.9" y1="63.3" x2="82.9" y2="87" />
        <polyline class="st13" points="426.3,63.3 385.7,63.3 385.7,87 426.3,87 426.3,63.3 426.3,75.2 	" />
        <line class="st14" x1="398.2" y1="63.3" x2="398.2" y2="87" />
        <line class="st14" x1="401.3" y1="63.3" x2="401.3" y2="87" />
        <line class="st14" x1="404.4" y1="63.3" x2="404.4" y2="87" />
        <line class="st14" x1="407.6" y1="63.3" x2="407.6" y2="87" />
        <line class="st14" x1="410.7" y1="63.3" x2="410.7" y2="87" />
        <line class="st14" x1="413.8" y1="63.3" x2="413.8" y2="87" />
        <line class="st14" x1="416.9" y1="63.3" x2="416.9" y2="87" />
        <line class="st14" x1="420" y1="63.3" x2="420" y2="87" />
        <line class="st14" x1="423.2" y1="63.3" x2="423.2" y2="87" />
        <polygon class="st18" points="1.5,1.5 1.5,63.5 45.5,63.5 45.5,87 86.1,87 115.7,87 115.7,164.1 86.1,164.1 45.5,164.1 45.5,187.8 
		45.5,249.6 441.2,249.6 441.2,1.5 	" />
        <line class="st14" x1="86.1" y1="175.9" x2="58" y2="175.9" />
        <line class="st14" x1="86.1" y1="75.2" x2="58" y2="75.2" />
        <line class="st14" x1="426.3" y1="175.9" x2="398.2" y2="175.9" />
        <line class="st14" x1="426.3" y1="75.2" x2="398.2" y2="75.2" />
        <circle class="st3" cx="156.2" cy="172.2" r="2" />
        <path class="st3" d="M155.1,174.8h2.3c0.5,0,0.9,0.4,0.9,0.9v5.1c0,0.5-0.4,0.9-0.9,0.9h-2.3c-0.5,0-0.9-0.4-0.9-0.9v-5.1
		C154.2,175.2,154.6,174.8,155.1,174.8z" />
        <circle class="st3" cx="144.4" cy="71.2" r="2" />
        <path class="st3" d="M143.3,73.9h2.3c0.5,0,0.9,0.4,0.9,0.9v5.1c0,0.5-0.4,0.9-0.9,0.9h-2.3c-0.5,0-0.9-0.4-0.9-0.9v-5.1
		C142.4,74.3,142.8,73.9,143.3,73.9z" />
        <circle class="st3" cx="374.8" cy="71.4" r="2" />
        <path class="st3" d="M373.7,74.1h2.3c0.5,0,0.9,0.4,0.9,0.9V80c0,0.5-0.4,0.9-0.9,0.9h-2.3c-0.5,0-0.9-0.4-0.9-0.9V75
		C372.8,74.5,373.2,74.1,373.7,74.1z" />
        <circle class="st3" cx="355.5" cy="71.4" r="2" />
        <path class="st3" d="M357.6,80.9h-4.1c-0.5,0-0.9-0.4-0.8-0.9l0.8-5.2c0.1-0.4,0.4-0.7,0.8-0.7h2.6c0.4,0,0.8,0.3,0.8,0.7l0.8,5.2
		C358.5,80.5,358.1,80.9,357.6,80.9L357.6,80.9z" />
        <circle class="st3" cx="164.4" cy="71.7" r="2" />
        <path class="st3" d="M166.5,81.2h-4.1c-0.5,0-0.9-0.4-0.8-0.9l0.8-5.2c0.1-0.4,0.4-0.7,0.8-0.7h2.6c0.4,0,0.8,0.3,0.8,0.7l0.8,5.2
		C167.4,80.7,167,81.2,166.5,81.2z" />
        <circle class="st3" cx="175.6" cy="172.2" r="2" />
        <path class="st3" d="M177.7,181.7h-4.1c-0.5,0-0.9-0.4-0.8-0.9l0.8-5.2c0.1-0.4,0.4-0.7,0.8-0.7h2.6c0.4,0,0.8,0.3,0.8,0.7l0.8,5.2
		C178.6,181.2,178.2,181.7,177.7,181.7z" />
        <rect x="234.9" y="87" class="st19" width="135.1" height="77.1" />
    </g>
</svg>