<svg xmlns="http://www.w3.org/2000/svg" viewBox="0 0 442.16 251.36"><defs><style>.cls-1,.cls-12{fill:#666;}.cls-1,.cls-10,.cls-11,.cls-12,.cls-13,.cls-14,.cls-2,.cls-21,.cls-23,.cls-24,.cls-25,.cls-26,.cls-27,.cls-3,.cls-4,.cls-6,.cls-7,.cls-8,.cls-9{stroke:#5e5c5c;}.cls-1,.cls-10,.cls-11,.cls-12,.cls-13,.cls-14,.cls-2,.cls-21,.cls-23,.cls-24,.cls-25,.cls-26,.cls-27,.cls-3,.cls-4,.cls-5,.cls-6,.cls-7,.cls-8,.cls-9{stroke-linejoin:round;}.cls-1,.cls-14,.cls-6{stroke-width:0.95px;}.cls-14,.cls-2,.cls-22,.cls-23{fill:#f3fafe;}.cls-3{fill:#b2ce65;}.cls-4{fill:#f2bfd7;}.cls-26,.cls-27,.cls-5{fill:none;}.cls-5{stroke:#231815;}.cls-10,.cls-6{fill:#f7ea67;}.cls-7{fill:#f7ca88;}.cls-8{fill:#77bde9;}.cls-21,.cls-25,.cls-9{fill:#bbe1e7;}.cls-9{stroke-width:0.94px;}.cls-11{fill:#e3776a;}.cls-13{fill:#69bd83;}.cls-15{fill:#4d4e4f;}.cls-16{fill:#c35f5a;}.cls-17{fill:#dbcc5c;}.cls-18{fill:#daa86e;}.cls-19{fill:#46976c;}.cls-20{fill:#8ab7d6;}.cls-23,.cls-24,.cls-27{stroke-width:1px;}.cls-24,.cls-30{fill:#fff;}.cls-25{stroke-width:2px;}.cls-26{stroke-width:3px;}.cls-28{fill:#f3f9f8;}.cls-29{fill:#9e9e9e;}.cls-30{stroke:#fff;stroke-miterlimit:10;stroke-width:0.25px;}</style></defs><g id="レイヤー_2" data-name="レイヤー 2"><g id="map"><g id="_4F" data-name="4F"><rect class="cls-1" x="45.59" y="204.77" width="78.35" height="45.09"/><rect class="cls-2" x="133.25" y="164.25" width="11.91" height="11.86"/><rect class="cls-2" x="133.25" y="176.1" width="11.91" height="11.86"/><rect class="cls-3" x="161.95" y="164.25" width="16.96" height="23.72"/><rect class="cls-4" x="144.99" y="164.24" width="16.96" height="23.72"/><rect class="cls-5" x="385.24" y="164.25" width="40.54" height="23.72"/><rect class="cls-6" x="369.62" y="125.68" width="56.16" height="38.57"/><rect class="cls-7" x="369.62" y="87.12" width="56.16" height="38.56"/><polyline class="cls-5" points="425.77 87.12 385.24 87.12 385.24 63.39"/><rect class="cls-4" x="363.46" y="63.39" width="21.78" height="23.72"/><rect class="cls-8" x="133.25" y="63.39" width="21.96" height="23.72"/><rect class="cls-4" x="155.2" y="63.39" width="17.09" height="23.72"/><rect class="cls-9" x="172.29" y="63.39" width="81.74" height="23.72"/><rect class="cls-9" x="224.47" y="164.24" width="81.75" height="23.72"/><rect class="cls-5" x="45.41" y="164.25" width="40.54" height="23.72"/><rect class="cls-7" x="1.5" y="1.5" width="43.91" height="45.09"/><rect class="cls-10" x="45.41" y="1.5" width="43.92" height="45.09"/><rect class="cls-11" x="89.33" y="1.5" width="43.92" height="45.09"/><rect class="cls-2" x="133.25" y="1.5" width="43.92" height="45.09"/><rect class="cls-12" x="177.16" y="1.5" width="43.92" height="45.09"/><rect class="cls-10" x="265" y="1.5" width="43.92" height="45.09"/><rect class="cls-7" x="308.91" y="1.5" width="43.92" height="45.09"/><rect class="cls-13" x="352.83" y="1.5" width="43.92" height="45.09"/><rect class="cls-12" x="396.74" y="1.5" width="43.92" height="45.09"/><rect class="cls-4" x="346.74" y="63.39" width="16.72" height="23.72"/><rect class="cls-8" x="363.46" y="164.24" width="21.78" height="23.72"/><rect class="cls-4" x="346.74" y="164.24" width="16.72" height="23.72"/><rect class="cls-14" x="123.94" y="204.77" width="21.22" height="45.09"/><rect class="cls-15" x="404.62" y="16.39" width="28.16" height="16.24" rx="2.07"/><rect class="cls-16" x="97.21" y="15.93" width="28.16" height="16.24" rx="2.07"/><rect class="cls-15" x="185.04" y="16.18" width="28.16" height="16.24" rx="2.07"/><rect class="cls-15" x="185.04" y="16.18" width="28.16" height="16.24" rx="2.07"/><rect class="cls-14" x="145.16" y="204.77" width="78.35" height="45.09"/><rect class="cls-14" x="262.73" y="204.77" width="78.35" height="45.09"/><rect class="cls-14" x="341.09" y="204.77" width="21.22" height="45.09"/><rect class="cls-14" x="362.31" y="204.77" width="78.35" height="45.09"/><rect class="cls-17" x="53.29" y="16.09" width="28.16" height="16.24" rx="2.07"/><rect class="cls-18" x="9.56" y="16.16" width="28.16" height="16.24" rx="2.07"/><rect class="cls-19" x="360.27" y="16.16" width="28.16" height="16.24" rx="2.07"/><rect class="cls-18" x="317.39" y="16.18" width="28.16" height="16.24" rx="2.07"/><rect class="cls-20" x="229.66" y="16.1" width="28.16" height="16.24" rx="2.07"/><rect class="cls-15" x="70.35" y="219.76" width="28.16" height="16.24" rx="2.07"/><rect class="cls-17" x="383.62" y="137.32" width="28.16" height="16.24" rx="2.07"/><rect class="cls-18" x="383.53" y="99.72" width="28.16" height="16.24" rx="2.07"/><rect class="cls-17" x="272.88" y="16.11" width="28.16" height="16.24" rx="2.07"/><rect class="cls-21" x="223.52" y="204.77" width="39.22" height="45.09"/><path class="cls-22" d="M20.9,28.7a8.43,8.43,0,0,1-2.79.49c-4.24,0-4.78-3.35-4.78-4.9a4.73,4.73,0,0,1,5-5.05,5.56,5.56,0,0,1,2.28.41l-.33,1.21a4.66,4.66,0,0,0-1.95-.37c-2,0-3.46,1.26-3.46,3.73S16.24,28,18.16,28a3.26,3.26,0,0,0,1.31-.2V25h-1.7V23.84H20.9Z"/><path class="cls-22" d="M24.91,29.09V20.85h0l-1.62.89-.34-1.08L25.1,19.5h1.25v9.59Z"/><path class="cls-22" d="M33.1,25.85c0,2.58-1.23,3.38-2.94,3.38A4.32,4.32,0,0,1,28.88,29l.18-1.22A2.82,2.82,0,0,0,30,28c1,0,1.59-.43,1.59-2.17V19.33H33.1Z"/><path class="cls-22" d="M64.78,28.7a8.43,8.43,0,0,1-2.79.49c-4.24,0-4.78-3.35-4.78-4.9a4.73,4.73,0,0,1,5-5.05,5.56,5.56,0,0,1,2.28.41l-.33,1.21a4.66,4.66,0,0,0-2-.37c-2,0-3.46,1.26-3.46,3.73S60.12,28,62,28a3.17,3.17,0,0,0,1.3-.2V25H61.65V23.84h3.13Z"/><path class="cls-22" d="M68.79,29.09V20.85h0l-1.62.89-.34-1.08L69,19.5h1.25v9.59Z"/><path class="cls-22" d="M73.76,19.34h1.48v9.75H73.76Z"/><path class="cls-22" d="M106.85,28.7a8.43,8.43,0,0,1-2.79.49c-4.24,0-4.78-3.35-4.78-4.9a4.73,4.73,0,0,1,5-5.05,5.56,5.56,0,0,1,2.28.41l-.33,1.21a4.66,4.66,0,0,0-2-.37c-2,0-3.45,1.26-3.45,3.73S102.19,28,104.11,28a3.26,3.26,0,0,0,1.31-.2V25h-1.69V23.84h3.12Z"/><path class="cls-22" d="M110.86,29.09V20.85h0l-1.62.89-.33-1.08,2.17-1.16h1.26v9.59Z"/><path class="cls-22" d="M122.79,29.09h-1.48V24.66h-4v4.43h-1.48V19.33h1.48v4h4v-4h1.48Z"/><path class="cls-22" d="M194.73,20.61h-2.65v8.48h-1.49V20.61H188V19.34h6.78Z"/><path class="cls-22" d="M198.06,29.09V20.85h0l-1.62.89-.34-1.08,2.18-1.16h1.25v9.59Z"/><path class="cls-22" d="M203,19.47a16.3,16.3,0,0,1,2.49-.2c4.18,0,5,2.56,5,4.72v0a5.23,5.23,0,0,1-1.41,3.88,5.65,5.65,0,0,1-4,1.29,17.17,17.17,0,0,1-2.12-.11Zm1.48,8.47a6.85,6.85,0,0,0,1,.06c2.2,0,3.53-1.28,3.53-4,0-2.37-1.23-3.59-3.34-3.59a6.07,6.07,0,0,0-1.15.1Z"/><path class="cls-22" d="M239.78,20.61h-2.65v8.48h-1.49V20.61H233V19.34h6.77Z"/><path class="cls-22" d="M243.11,29.09V20.85h0l-1.62.89-.34-1.08,2.18-1.16h1.25v9.59Z"/><path class="cls-22" d="M254.41,28.82a5.52,5.52,0,0,1-2.3.41c-2.73,0-4.56-1.8-4.56-4.9,0-3.32,2.1-5.13,4.82-5.13a4.72,4.72,0,0,1,2.08.39l-.32,1.21a4,4,0,0,0-1.71-.36c-1.9,0-3.31,1.27-3.31,3.81S250.37,28,252.39,28a4.46,4.46,0,0,0,1.77-.34Z"/><path class="cls-22" d="M283.44,20.61h-2.65v8.48h-1.48V20.61h-2.64V19.34h6.77Z"/><path class="cls-22" d="M286.77,29.09V20.85h0l-1.63.89-.33-1.08L287,19.5h1.26v9.59Z"/><path class="cls-22" d="M295.91,23.87a2.44,2.44,0,0,1,2,2.43,2.54,2.54,0,0,1-.84,2,4.7,4.7,0,0,1-3.34.92,16.41,16.41,0,0,1-1.95-.11v-9.6a12.71,12.71,0,0,1,2.29-.2c3,0,3.5,1.45,3.5,2.43a2.28,2.28,0,0,1-1.62,2.13Zm-1.79-.46c1.18,0,1.92-.65,1.92-1.56,0-1.17-1-1.46-1.87-1.46a4.54,4.54,0,0,0-1,.08v2.94ZM293.21,28a6.75,6.75,0,0,0,.9.05c1.19,0,2.21-.5,2.21-1.79s-1.11-1.76-2.25-1.76h-.86Z"/><path class="cls-22" d="M327.45,20.61H324.8v8.48h-1.49V20.61h-2.63V19.34h6.77Z"/><path class="cls-22" d="M330.78,29.09V20.85h0l-1.62.89-.33-1.08L331,19.5h1.26v9.59Z"/><path class="cls-22" d="M342.85,29.09h-1.56l-.88-2.87h-3l-.84,2.87H335l3-9.75h1.82Zm-2.69-4-.76-2.55c-.18-.64-.35-1.32-.49-1.92h0c-.14.6-.29,1.31-.46,1.91l-.78,2.56Z"/><path class="cls-22" d="M368.73,25.85c0,2.58-1.23,3.38-3,3.38A4.37,4.37,0,0,1,364.5,29l.18-1.22a2.93,2.93,0,0,0,1,.15c1,0,1.58-.43,1.58-2.17V19.33h1.49Z"/><path class="cls-22" d="M376.1,29.09h-5.86v-.9l1-1.06c2-2.08,3.16-3.4,3.16-4.84a1.56,1.56,0,0,0-1.66-1.75,3.17,3.17,0,0,0-1.86.75l-.45-1.05a4.16,4.16,0,0,1,2.6-.9,2.64,2.64,0,0,1,2.86,2.79c0,1.76-1.21,3.23-2.88,4.91l-.8.8v0h3.88Z"/><path class="cls-22" d="M382,23.87a2.44,2.44,0,0,1,2,2.43,2.54,2.54,0,0,1-.84,2,4.68,4.68,0,0,1-3.34.92,16.41,16.41,0,0,1-1.95-.11v-9.6a12.71,12.71,0,0,1,2.29-.2c3,0,3.5,1.45,3.5,2.43A2.28,2.28,0,0,1,382,23.83Zm-1.79-.46c1.18,0,1.92-.65,1.92-1.56,0-1.17-.95-1.46-1.87-1.46a4.54,4.54,0,0,0-1,.08v2.94ZM379.34,28a6.86,6.86,0,0,0,.9.05c1.19,0,2.21-.5,2.21-1.79s-1.11-1.76-2.25-1.76h-.86Z"/><path class="cls-22" d="M412.64,25.85c0,2.58-1.22,3.38-2.94,3.38a4.32,4.32,0,0,1-1.28-.19l.18-1.22a2.86,2.86,0,0,0,1,.15c1,0,1.59-.43,1.59-2.17V19.33h1.48Z"/><path class="cls-22" d="M420,29.09h-5.86v-.9l1-1.06c2-2.08,3.16-3.4,3.16-4.84a1.56,1.56,0,0,0-1.66-1.75,3.14,3.14,0,0,0-1.86.75l-.45-1.05a4.14,4.14,0,0,1,2.6-.9,2.64,2.64,0,0,1,2.85,2.79c0,1.76-1.2,3.23-2.88,4.91l-.79.8v0H420Z"/><path class="cls-22" d="M428.89,29.09h-1.56l-.88-2.87h-3l-.84,2.87h-1.53l3-9.75h1.82Zm-2.69-4-.76-2.55c-.18-.64-.35-1.32-.49-1.92h0c-.15.6-.3,1.31-.47,1.91l-.78,2.56Z"/><path class="cls-22" d="M393.94,112.32a8.14,8.14,0,0,1-2.79.5c-4.24,0-4.78-3.35-4.78-4.91a4.72,4.72,0,0,1,5-5,5.4,5.4,0,0,1,2.28.41l-.33,1.21a4.51,4.51,0,0,0-1.95-.37c-2,0-3.45,1.26-3.45,3.73s1.34,3.76,3.26,3.76a3.05,3.05,0,0,0,1.31-.21v-2.75h-1.69v-1.18h3.12Z"/><path class="cls-22" d="M401.15,112.72h-5.86v-.91l1-1.06c2-2.07,3.16-3.4,3.16-4.84a1.55,1.55,0,0,0-1.66-1.74,3.08,3.08,0,0,0-1.86.75l-.45-1.06a4.2,4.2,0,0,1,2.6-.89,2.64,2.64,0,0,1,2.85,2.79c0,1.76-1.2,3.22-2.88,4.91l-.79.8v0h3.88Z"/><path class="cls-22" d="M407.09,107.49a2.46,2.46,0,0,1,2,2.44,2.58,2.58,0,0,1-.84,2,4.76,4.76,0,0,1-3.35.92,15.75,15.75,0,0,1-1.94-.12V103.1a11.76,11.76,0,0,1,2.29-.21c3,0,3.49,1.46,3.49,2.44a2.26,2.26,0,0,1-1.61,2.12ZM405.3,107c1.18,0,1.92-.65,1.92-1.55,0-1.17-1-1.47-1.87-1.47a4.46,4.46,0,0,0-1,.08V107Zm-.91,4.59a5.39,5.39,0,0,0,.9,0c1.19,0,2.21-.5,2.21-1.78s-1.11-1.76-2.25-1.76h-.86Z"/><polyline class="cls-23" points="85.95 164.35 45.41 164.35 45.41 187.97 85.95 187.97 85.95 164.35"/><line class="cls-24" x1="57.87" y1="164.35" x2="57.87" y2="187.97"/><line class="cls-24" x1="60.99" y1="164.35" x2="60.99" y2="187.97"/><line class="cls-24" x1="64.11" y1="164.35" x2="64.11" y2="187.97"/><line class="cls-24" x1="67.23" y1="164.35" x2="67.23" y2="187.97"/><line class="cls-24" x1="70.35" y1="164.35" x2="70.35" y2="187.97"/><line class="cls-24" x1="73.47" y1="164.35" x2="73.47" y2="187.97"/><line class="cls-24" x1="76.59" y1="164.35" x2="76.59" y2="187.97"/><line class="cls-24" x1="79.71" y1="164.35" x2="79.71" y2="187.97"/><line class="cls-24" x1="82.83" y1="164.35" x2="82.83" y2="187.97"/><rect class="cls-23" x="385.24" y="63.39" width="40.54" height="23.77"/><line class="cls-24" x1="397.7" y1="63.55" x2="397.7" y2="87.17"/><line class="cls-24" x1="400.82" y1="63.55" x2="400.82" y2="87.17"/><line class="cls-24" x1="403.93" y1="63.55" x2="403.93" y2="87.17"/><line class="cls-24" x1="407.06" y1="63.55" x2="407.06" y2="87.17"/><line class="cls-24" x1="410.18" y1="63.55" x2="410.18" y2="87.17"/><line class="cls-24" x1="413.29" y1="63.55" x2="413.29" y2="87.17"/><line class="cls-24" x1="416.41" y1="63.55" x2="416.41" y2="87.17"/><line class="cls-24" x1="419.53" y1="63.55" x2="419.53" y2="87.17"/><line class="cls-24" x1="422.65" y1="63.55" x2="422.65" y2="87.17"/><polyline class="cls-23" points="425.77 164.35 385.24 164.35 385.24 187.97 425.77 187.97 425.77 164.35"/><line class="cls-24" x1="397.7" y1="164.35" x2="397.7" y2="187.97"/><line class="cls-24" x1="400.82" y1="164.35" x2="400.82" y2="187.97"/><line class="cls-24" x1="403.93" y1="164.35" x2="403.93" y2="187.97"/><line class="cls-24" x1="407.06" y1="164.35" x2="407.06" y2="187.97"/><line class="cls-24" x1="410.18" y1="164.35" x2="410.18" y2="187.97"/><line class="cls-24" x1="413.29" y1="164.35" x2="413.29" y2="187.97"/><line class="cls-24" x1="416.41" y1="164.35" x2="416.41" y2="187.97"/><line class="cls-24" x1="419.53" y1="164.35" x2="419.53" y2="187.97"/><line class="cls-24" x1="422.65" y1="164.35" x2="422.65" y2="187.97"/><rect class="cls-23" x="45.41" y="63.59" width="40.54" height="23.62"/><line class="cls-24" x1="57.87" y1="63.59" x2="57.87" y2="87.21"/><line class="cls-24" x1="60.99" y1="63.59" x2="60.99" y2="87.21"/><line class="cls-24" x1="64.11" y1="63.59" x2="64.11" y2="87.21"/><line class="cls-24" x1="67.23" y1="63.59" x2="67.23" y2="87.21"/><line class="cls-24" x1="70.35" y1="63.59" x2="70.35" y2="87.21"/><line class="cls-24" x1="73.47" y1="63.59" x2="73.47" y2="87.21"/><line class="cls-24" x1="76.59" y1="63.59" x2="76.59" y2="87.21"/><line class="cls-24" x1="79.71" y1="63.59" x2="79.71" y2="87.21"/><line class="cls-24" x1="82.83" y1="63.59" x2="82.83" y2="87.21"/><rect class="cls-25" x="133.25" y="87.12" width="236.37" height="77.13"/><polygon class="cls-26" points="1.5 1.5 1.5 63.55 45.41 63.55 45.41 87.26 85.95 87.12 115.03 87.26 115.03 164.25 85.95 164.25 45.41 164.25 45.41 187.97 45.41 249.86 440.66 249.86 440.66 1.5 1.5 1.5"/><line class="cls-27" x1="57.7" y1="74.94" x2="85.95" y2="74.94"/><line class="cls-24" x1="57.7" y1="176.09" x2="85.95" y2="176.09"/><line class="cls-27" x1="397.56" y1="177.31" x2="425.63" y2="177.31"/><line class="cls-27" x1="397.6" y1="76.41" x2="425.68" y2="76.41"/><path class="cls-22" d="M393.56,149.92a8.38,8.38,0,0,1-2.79.49c-4.24,0-4.77-3.35-4.77-4.9a4.72,4.72,0,0,1,5-5,5.52,5.52,0,0,1,2.28.41l-.33,1.21a4.66,4.66,0,0,0-1.95-.37c-2,0-3.45,1.26-3.45,3.74s1.34,3.75,3.26,3.75a3.26,3.26,0,0,0,1.31-.2v-2.75h-1.69v-1.19h3.12Z"/><path class="cls-22" d="M400.77,150.31h-5.86v-.9l1-1.06c2-2.08,3.16-3.4,3.16-4.84a1.56,1.56,0,0,0-1.66-1.75,3.11,3.11,0,0,0-1.86.76l-.45-1.06a4.16,4.16,0,0,1,2.6-.89,2.63,2.63,0,0,1,2.86,2.79c0,1.75-1.21,3.22-2.88,4.9l-.8.8v0h3.88Z"/><path class="cls-22" d="M409.65,150.31h-1.57l-.88-2.86h-3l-.85,2.86h-1.52l3-9.74h1.82Zm-2.69-4-.77-2.55c-.18-.63-.35-1.32-.49-1.92h0c-.14.6-.3,1.31-.46,1.91l-.78,2.56Z"/><path class="cls-22" d="M79.89,232.28a8.14,8.14,0,0,1-2.79.5c-4.24,0-4.78-3.35-4.78-4.91a4.72,4.72,0,0,1,5-5,5.58,5.58,0,0,1,2.28.4l-.33,1.21a4.66,4.66,0,0,0-2-.37c-2,0-3.45,1.27-3.45,3.74s1.34,3.76,3.26,3.76a3.05,3.05,0,0,0,1.31-.21v-2.75H76.77v-1.19h3.12Z"/><path class="cls-22" d="M83.9,232.67v-8.24h0l-1.62.89-.33-1.08,2.17-1.16h1.26v9.59Z"/><path class="cls-22" d="M95.91,232.28a8.14,8.14,0,0,1-2.79.5c-4.24,0-4.78-3.35-4.78-4.91a4.72,4.72,0,0,1,5-5,5.58,5.58,0,0,1,2.28.4l-.33,1.21a4.66,4.66,0,0,0-2-.37c-2,0-3.45,1.27-3.45,3.74s1.34,3.76,3.26,3.76a3.05,3.05,0,0,0,1.31-.21v-2.75H92.79v-1.19h3.12Z"/><circle class="cls-28" cx="144.23" cy="71.41" r="2.02"/><rect class="cls-28" x="142.21" y="74.09" width="4.04" height="6.85" rx="0.89"/><circle class="cls-28" cx="374.07" cy="71.23" r="2.02"/><rect class="cls-28" x="372.05" y="73.9" width="4.04" height="6.85" rx="0.89"/><circle class="cls-28" cx="373.94" cy="172.41" r="2.02"/><rect class="cls-28" x="371.92" y="175.09" width="4.04" height="6.85" rx="0.89"/><circle class="cls-28" cx="354.8" cy="71.53" r="2.02"/><path class="cls-28" d="M356.86,81.05h-4.12a.83.83,0,0,1-.82-1l.76-5.19a.83.83,0,0,1,.82-.71h2.6a.83.83,0,0,1,.82.71l.76,5.19A.83.83,0,0,1,356.86,81.05Z"/><circle class="cls-28" cx="164.08" cy="71.29" r="2.02"/><path class="cls-28" d="M166.14,80.82H162a.83.83,0,0,1-.82-.95l.76-5.19a.83.83,0,0,1,.82-.71h2.6a.83.83,0,0,1,.82.71l.76,5.19A.83.83,0,0,1,166.14,80.82Z"/><circle class="cls-28" cx="153.48" cy="172.35" r="2.02"/><path class="cls-28" d="M155.54,181.88h-4.12a.83.83,0,0,1-.82-.95l.76-5.19a.83.83,0,0,1,.82-.71h2.61a.83.83,0,0,1,.82.71l.75,5.19A.82.82,0,0,1,155.54,181.88Z"/><circle class="cls-28" cx="354.7" cy="172.14" r="2.02"/><path class="cls-28" d="M356.76,181.66h-4.12a.83.83,0,0,1-.82-.95l.76-5.19a.83.83,0,0,1,.82-.71H356a.82.82,0,0,1,.82.71l.76,5.19A.83.83,0,0,1,356.76,181.66Z"/><rect class="cls-29" x="137.52" y="17.02" width="35.38" height="16.24" rx="2.07"/><path class="cls-30" d="M142.47,20.43a15.06,15.06,0,0,1,1.7.86,11,11,0,0,0,1.08-2.09l.59.24s-.11.08-.22.07a13.27,13.27,0,0,1-1.06,2,11.44,11.44,0,0,1,1.3.93l-.28.37a12.29,12.29,0,0,0-1.28-.93,9.91,9.91,0,0,1-2.54,2.45,2,2,0,0,0-.34-.3,9.7,9.7,0,0,0,2.51-2.37,17,17,0,0,0-1.69-.88Z"/><path class="cls-30" d="M152.11,20.57a.15.15,0,0,1-.05.07,9.69,9.69,0,0,1-.48,3.24.81.81,0,0,1-.79.43,6.61,6.61,0,0,1-1.07-.13,2.1,2.1,0,0,0,0-.43,6.46,6.46,0,0,0,1.05.15.45.45,0,0,0,.46-.28,9.15,9.15,0,0,0,.39-2.72h-1.92a5.44,5.44,0,0,1-2,3.43,1.9,1.9,0,0,0-.34-.26,5,5,0,0,0,1.87-3.17h-1.65v-.41h1.73a9.77,9.77,0,0,0,.14-1.3l.6,0c0,.07-.06.11-.15.11,0,.44-.07.77-.14,1.15h2l.09,0Z"/><path class="cls-30" d="M158.31,23.31v.4h-4.95v-.4Zm-.59-3.3v.42H154V20Z"/><path class="cls-30" d="M164.11,20.57a.15.15,0,0,1-.05.07,9.69,9.69,0,0,1-.48,3.24.81.81,0,0,1-.79.43,6.61,6.61,0,0,1-1.07-.13,2.1,2.1,0,0,0,0-.43,6.46,6.46,0,0,0,1.05.15.45.45,0,0,0,.46-.28,9.15,9.15,0,0,0,.39-2.72h-1.92a5.44,5.44,0,0,1-2,3.43,1.9,1.9,0,0,0-.34-.26,5,5,0,0,0,1.87-3.17h-1.65v-.41h1.73a9.77,9.77,0,0,0,.14-1.3l.6,0c0,.07-.06.11-.15.11,0,.44-.07.77-.14,1.15h2l.09,0Z"/><path class="cls-30" d="M166.7,20.09c0,.06-.06.09-.13.1,0,1.62-.17,3.09-1.1,4.16a3.76,3.76,0,0,0-.36-.23c.9-1,1-2.47,1-4.08Zm1.56,3.46a3.92,3.92,0,0,0,2-2.41,2.4,2.4,0,0,0,.38.23,4.5,4.5,0,0,1-2.45,2.71.24.24,0,0,1-.1.12l-.32-.4.07-.09v-4.4l.56,0c0,.06,0,.1-.13.12Z"/><path class="cls-30" d="M146.4,26.7l-.08.05a5.13,5.13,0,0,1-1.42,1.92,2.4,2.4,0,0,0-.37-.25,3.67,3.67,0,0,0,1.2-1.48h-4.3v-.41H146l.07,0Zm-2.34,1.09c0,.05-.06.09-.14.1A4.37,4.37,0,0,1,142,31.37a3.76,3.76,0,0,0-.36-.28,3.94,3.94,0,0,0,1.81-3.37Z"/><path class="cls-30" d="M147.33,28.45h5v.42h-4.78a.3.3,0,0,1-.19.12Z"/><path class="cls-30" d="M153.85,26.88a7.47,7.47,0,0,1,.58,1.59l-.4.13a8.36,8.36,0,0,0-.57-1.6Zm4.49.07c0,.05-.07.08-.15.08a6,6,0,0,1-3.49,4.23,2.86,2.86,0,0,0-.29-.33,5.5,5.5,0,0,0,3.37-4.16Zm-2.59-.42a10,10,0,0,1,.32,1.71l-.43.06a8.75,8.75,0,0,0-.31-1.69Z"/><path class="cls-30" d="M161,28.29a8.31,8.31,0,0,0,.39-1.16l.46.14s-.05.05-.13.06a9,9,0,0,1-.37,1h.89v.37h-3.16v-.37h2.11Zm1.14-1.6V27h-2.9v-.35h1.24V26l.51,0s0,.08-.12.09v.59Zm-2.65,4.87V29.28h2.38v2.24h-.39v-.3h-1.6v.34Zm.47-4.37a4.2,4.2,0,0,1,.28,1l-.35.09a4.55,4.55,0,0,0-.26-1Zm1.52,2.45h-1.6v1.22h1.6Zm2.91-3.31.27.13s0,0-.06.06c-.23.51-.54,1.15-.87,1.78.64.61.92,1.06.92,1.49,0,.94-.66.94-1,.94h-.27a.92.92,0,0,0-.14-.4l.37,0c.4,0,.69,0,.69-.57,0-.39-.29-.81-.95-1.41.3-.59.55-1.16.76-1.64h-1.2v4.82h-.39V26.34h1.92Z"/></g></g></g></svg>